G04 #@! TF.GenerationSoftware,KiCad,Pcbnew,8.0.1*
G04 #@! TF.CreationDate,2024-05-25T23:28:08+08:00*
G04 #@! TF.ProjectId,BatteryPod,42617474-6572-4795-906f-642e6b696361,rev?*
G04 #@! TF.SameCoordinates,Original*
G04 #@! TF.FileFunction,Copper,L1,Top*
G04 #@! TF.FilePolarity,Positive*
%FSLAX46Y46*%
G04 Gerber Fmt 4.6, Leading zero omitted, Abs format (unit mm)*
G04 Created by KiCad (PCBNEW 8.0.1) date 2024-05-25 23:28:08*
%MOMM*%
%LPD*%
G01*
G04 APERTURE LIST*
G04 Aperture macros list*
%AMRoundRect*
0 Rectangle with rounded corners*
0 $1 Rounding radius*
0 $2 $3 $4 $5 $6 $7 $8 $9 X,Y pos of 4 corners*
0 Add a 4 corners polygon primitive as box body*
4,1,4,$2,$3,$4,$5,$6,$7,$8,$9,$2,$3,0*
0 Add four circle primitives for the rounded corners*
1,1,$1+$1,$2,$3*
1,1,$1+$1,$4,$5*
1,1,$1+$1,$6,$7*
1,1,$1+$1,$8,$9*
0 Add four rect primitives between the rounded corners*
20,1,$1+$1,$2,$3,$4,$5,0*
20,1,$1+$1,$4,$5,$6,$7,0*
20,1,$1+$1,$6,$7,$8,$9,0*
20,1,$1+$1,$8,$9,$2,$3,0*%
G04 Aperture macros list end*
%ADD10C,0.300000*%
G04 #@! TA.AperFunction,SMDPad,CuDef*
%ADD11RoundRect,0.008000X-0.292000X-0.092000X0.292000X-0.092000X0.292000X0.092000X-0.292000X0.092000X0*%
G04 #@! TD*
G04 #@! TA.AperFunction,SMDPad,CuDef*
%ADD12RoundRect,0.024000X-0.076000X-0.276000X0.076000X-0.276000X0.076000X0.276000X-0.076000X0.276000X0*%
G04 #@! TD*
G04 #@! TA.AperFunction,SMDPad,CuDef*
%ADD13RoundRect,0.112000X-0.238000X-0.502000X0.238000X-0.502000X0.238000X0.502000X-0.238000X0.502000X0*%
G04 #@! TD*
G04 #@! TA.AperFunction,SMDPad,CuDef*
%ADD14RoundRect,0.058500X-0.266500X-0.291500X0.266500X-0.291500X0.266500X0.291500X-0.266500X0.291500X0*%
G04 #@! TD*
G04 #@! TA.AperFunction,ComponentPad*
%ADD15C,0.400000*%
G04 #@! TD*
G04 #@! TA.AperFunction,SMDPad,CuDef*
%ADD16RoundRect,0.185500X-1.174500X-1.139500X1.174500X-1.139500X1.174500X1.139500X-1.174500X1.139500X0*%
G04 #@! TD*
G04 #@! TA.AperFunction,SMDPad,CuDef*
%ADD17RoundRect,0.107100X-0.657900X-1.217900X0.657900X-1.217900X0.657900X1.217900X-0.657900X1.217900X0*%
G04 #@! TD*
G04 #@! TA.AperFunction,SMDPad,CuDef*
%ADD18RoundRect,0.225000X-0.225000X-0.250000X0.225000X-0.250000X0.225000X0.250000X-0.225000X0.250000X0*%
G04 #@! TD*
G04 #@! TA.AperFunction,SMDPad,CuDef*
%ADD19R,0.812800X0.254000*%
G04 #@! TD*
G04 #@! TA.AperFunction,SMDPad,CuDef*
%ADD20R,0.254000X0.812800*%
G04 #@! TD*
G04 #@! TA.AperFunction,SMDPad,CuDef*
%ADD21R,1.752600X1.752600*%
G04 #@! TD*
G04 #@! TA.AperFunction,SMDPad,CuDef*
%ADD22RoundRect,0.200000X0.200000X0.275000X-0.200000X0.275000X-0.200000X-0.275000X0.200000X-0.275000X0*%
G04 #@! TD*
G04 #@! TA.AperFunction,ComponentPad*
%ADD23R,1.700000X1.700000*%
G04 #@! TD*
G04 #@! TA.AperFunction,ComponentPad*
%ADD24O,1.700000X1.700000*%
G04 #@! TD*
G04 #@! TA.AperFunction,SMDPad,CuDef*
%ADD25RoundRect,0.225000X0.250000X-0.225000X0.250000X0.225000X-0.250000X0.225000X-0.250000X-0.225000X0*%
G04 #@! TD*
G04 #@! TA.AperFunction,SMDPad,CuDef*
%ADD26RoundRect,0.250000X-0.650000X-2.450000X0.650000X-2.450000X0.650000X2.450000X-0.650000X2.450000X0*%
G04 #@! TD*
G04 #@! TA.AperFunction,ComponentPad*
%ADD27RoundRect,0.250002X2.404160X0.000000X0.000000X2.404160X-2.404160X0.000000X0.000000X-2.404160X0*%
G04 #@! TD*
G04 #@! TA.AperFunction,ComponentPad*
%ADD28C,3.900000*%
G04 #@! TD*
G04 #@! TA.AperFunction,SMDPad,CuDef*
%ADD29RoundRect,0.200000X0.275000X-0.200000X0.275000X0.200000X-0.275000X0.200000X-0.275000X-0.200000X0*%
G04 #@! TD*
G04 #@! TA.AperFunction,SMDPad,CuDef*
%ADD30RoundRect,0.200000X-0.200000X-0.275000X0.200000X-0.275000X0.200000X0.275000X-0.200000X0.275000X0*%
G04 #@! TD*
G04 #@! TA.AperFunction,SMDPad,CuDef*
%ADD31RoundRect,0.225000X0.225000X0.250000X-0.225000X0.250000X-0.225000X-0.250000X0.225000X-0.250000X0*%
G04 #@! TD*
G04 #@! TA.AperFunction,SMDPad,CuDef*
%ADD32R,0.600000X1.240000*%
G04 #@! TD*
G04 #@! TA.AperFunction,SMDPad,CuDef*
%ADD33R,0.300000X1.240000*%
G04 #@! TD*
G04 #@! TA.AperFunction,ComponentPad*
%ADD34O,1.000000X2.100000*%
G04 #@! TD*
G04 #@! TA.AperFunction,ComponentPad*
%ADD35O,1.000000X1.800000*%
G04 #@! TD*
G04 #@! TA.AperFunction,SMDPad,CuDef*
%ADD36RoundRect,0.250000X-1.000000X1.400000X-1.000000X-1.400000X1.000000X-1.400000X1.000000X1.400000X0*%
G04 #@! TD*
G04 #@! TA.AperFunction,SMDPad,CuDef*
%ADD37RoundRect,0.140000X0.140000X0.170000X-0.140000X0.170000X-0.140000X-0.170000X0.140000X-0.170000X0*%
G04 #@! TD*
G04 #@! TA.AperFunction,SMDPad,CuDef*
%ADD38RoundRect,0.250000X1.000000X-1.400000X1.000000X1.400000X-1.000000X1.400000X-1.000000X-1.400000X0*%
G04 #@! TD*
G04 #@! TA.AperFunction,SMDPad,CuDef*
%ADD39R,3.200000X2.600000*%
G04 #@! TD*
G04 #@! TA.AperFunction,SMDPad,CuDef*
%ADD40R,3.200000X2.599990*%
G04 #@! TD*
G04 #@! TA.AperFunction,SMDPad,CuDef*
%ADD41R,2.400000X2.600000*%
G04 #@! TD*
G04 #@! TA.AperFunction,SMDPad,CuDef*
%ADD42RoundRect,0.150000X-0.825000X-0.150000X0.825000X-0.150000X0.825000X0.150000X-0.825000X0.150000X0*%
G04 #@! TD*
G04 #@! TA.AperFunction,SMDPad,CuDef*
%ADD43RoundRect,0.200000X-0.275000X0.200000X-0.275000X-0.200000X0.275000X-0.200000X0.275000X0.200000X0*%
G04 #@! TD*
G04 #@! TA.AperFunction,SMDPad,CuDef*
%ADD44RoundRect,0.250000X-1.750000X-1.000000X1.750000X-1.000000X1.750000X1.000000X-1.750000X1.000000X0*%
G04 #@! TD*
G04 #@! TA.AperFunction,ComponentPad*
%ADD45C,2.000000*%
G04 #@! TD*
G04 #@! TA.AperFunction,ViaPad*
%ADD46C,0.600000*%
G04 #@! TD*
G04 #@! TA.AperFunction,ViaPad*
%ADD47C,0.550000*%
G04 #@! TD*
G04 #@! TA.AperFunction,Conductor*
%ADD48C,0.600000*%
G04 #@! TD*
G04 #@! TA.AperFunction,Conductor*
%ADD49C,0.250000*%
G04 #@! TD*
G04 #@! TA.AperFunction,Conductor*
%ADD50C,0.500000*%
G04 #@! TD*
G04 #@! TA.AperFunction,Conductor*
%ADD51C,0.900000*%
G04 #@! TD*
G04 #@! TA.AperFunction,Conductor*
%ADD52C,1.000000*%
G04 #@! TD*
G04 #@! TA.AperFunction,Conductor*
%ADD53C,0.200000*%
G04 #@! TD*
G04 #@! TA.AperFunction,Conductor*
%ADD54C,0.400000*%
G04 #@! TD*
G04 APERTURE END LIST*
D10*
G36*
X106917124Y-151614795D02*
G01*
X106946559Y-151642956D01*
X106993234Y-151732854D01*
X106994936Y-151876625D01*
X106952003Y-151965867D01*
X106915012Y-152004532D01*
X106825554Y-152050979D01*
X106435434Y-152052851D01*
X106434513Y-151564303D01*
X106754316Y-151562562D01*
X106917124Y-151614795D01*
G37*
G36*
X106836467Y-150891681D02*
G01*
X106875131Y-150928671D01*
X106921969Y-151018882D01*
X106923186Y-151091579D01*
X106880575Y-151180152D01*
X106843585Y-151218816D01*
X106754084Y-151265286D01*
X106433953Y-151267029D01*
X106433167Y-150850025D01*
X106746334Y-150848319D01*
X106836467Y-150891681D01*
G37*
G36*
X108407366Y-150891426D02*
G01*
X108506953Y-150988561D01*
X108564333Y-151209697D01*
X108566852Y-151672392D01*
X108510248Y-151907687D01*
X108416583Y-152003717D01*
X108325285Y-152051119D01*
X108110287Y-152053086D01*
X108021201Y-152010229D01*
X107921616Y-151913095D01*
X107864236Y-151691959D01*
X107861717Y-151229263D01*
X107918320Y-150993969D01*
X108011986Y-150897940D01*
X108103286Y-150850536D01*
X108318282Y-150848569D01*
X108407366Y-150891426D01*
G37*
G36*
X112264509Y-150891426D02*
G01*
X112364096Y-150988561D01*
X112421476Y-151209697D01*
X112423995Y-151672392D01*
X112367391Y-151907687D01*
X112273726Y-152003717D01*
X112182428Y-152051119D01*
X111967430Y-152053086D01*
X111878344Y-152010229D01*
X111778759Y-151913095D01*
X111721379Y-151691959D01*
X111718860Y-151229263D01*
X111775463Y-150993969D01*
X111869129Y-150897940D01*
X111960429Y-150850536D01*
X112175425Y-150848569D01*
X112264509Y-150891426D01*
G37*
G36*
X114530952Y-152517495D02*
G01*
X105969046Y-152517495D01*
X105969046Y-150700828D01*
X106135713Y-150700828D01*
X106138595Y-152230092D01*
X106160993Y-152284164D01*
X106202377Y-152325548D01*
X106256449Y-152347946D01*
X106285713Y-152350828D01*
X106834022Y-152348197D01*
X106838380Y-152349650D01*
X106860621Y-152348069D01*
X106886406Y-152347946D01*
X106891384Y-152345883D01*
X106896760Y-152345502D01*
X106924224Y-152334992D01*
X107066765Y-152260983D01*
X107083334Y-152254121D01*
X107089104Y-152249385D01*
X107091967Y-152247899D01*
X107094563Y-152244905D01*
X107106065Y-152235466D01*
X107177966Y-152160310D01*
X107189927Y-152149938D01*
X107193844Y-152143714D01*
X107196149Y-152141306D01*
X107197665Y-152137644D01*
X107205592Y-152125053D01*
X107265498Y-152000527D01*
X107267576Y-151998450D01*
X107274254Y-151982327D01*
X107287530Y-151954732D01*
X107287911Y-151949356D01*
X107289974Y-151944378D01*
X107292856Y-151915114D01*
X107290581Y-151722880D01*
X107291678Y-151719590D01*
X107290315Y-151700411D01*
X107289974Y-151671564D01*
X107287911Y-151666585D01*
X107287530Y-151661210D01*
X107277020Y-151633747D01*
X107203014Y-151491209D01*
X107196149Y-151474636D01*
X107191411Y-151468863D01*
X107189927Y-151466004D01*
X107186935Y-151463409D01*
X107177494Y-151451905D01*
X107119349Y-151396276D01*
X107118498Y-151394575D01*
X107108565Y-151385960D01*
X107101831Y-151379517D01*
X107106536Y-151374598D01*
X107118498Y-151364225D01*
X107122415Y-151358002D01*
X107124720Y-151355593D01*
X107126236Y-151351930D01*
X107134163Y-151339339D01*
X107194069Y-151214814D01*
X107196148Y-151212736D01*
X107201080Y-151200828D01*
X107564285Y-151200828D01*
X107566956Y-151691359D01*
X107564462Y-151708119D01*
X107567146Y-151726268D01*
X107567167Y-151730092D01*
X107568014Y-151732136D01*
X107568764Y-151737208D01*
X107638595Y-152006331D01*
X107638595Y-152015805D01*
X107645175Y-152031691D01*
X107650085Y-152050613D01*
X107656724Y-152059573D01*
X107660992Y-152069877D01*
X107679647Y-152092608D01*
X107824233Y-152233635D01*
X107836604Y-152247899D01*
X107842957Y-152251898D01*
X107845236Y-152254121D01*
X107848897Y-152255637D01*
X107861489Y-152263564D01*
X107986014Y-152323470D01*
X107988092Y-152325548D01*
X108004214Y-152332226D01*
X108031810Y-152345502D01*
X108037185Y-152345883D01*
X108042164Y-152347946D01*
X108071428Y-152350828D01*
X108334687Y-152348419D01*
X108338380Y-152349650D01*
X108358808Y-152348198D01*
X108386406Y-152347946D01*
X108391384Y-152345883D01*
X108396760Y-152345502D01*
X108424224Y-152334992D01*
X108566762Y-152260985D01*
X108583335Y-152254121D01*
X108589106Y-152249384D01*
X108591967Y-152247899D01*
X108594562Y-152244906D01*
X108606065Y-152235466D01*
X108736066Y-152102183D01*
X108743640Y-152097639D01*
X108753570Y-152084237D01*
X108767577Y-152069877D01*
X108771843Y-152059575D01*
X108778484Y-152050614D01*
X108788377Y-152022923D01*
X108855247Y-151744952D01*
X108861403Y-151730092D01*
X108863191Y-151711928D01*
X108864108Y-151708120D01*
X108863782Y-151705931D01*
X108864285Y-151700828D01*
X108861613Y-151210295D01*
X108864108Y-151193536D01*
X108861423Y-151175386D01*
X108861403Y-151171564D01*
X108860556Y-151169519D01*
X108859806Y-151164447D01*
X108789974Y-150895323D01*
X108789974Y-150885851D01*
X108783394Y-150869965D01*
X108778484Y-150851042D01*
X108771844Y-150842081D01*
X108767577Y-150831778D01*
X108748922Y-150809048D01*
X108667973Y-150730092D01*
X108995739Y-150730092D01*
X109018137Y-150784164D01*
X109059521Y-150825548D01*
X109113593Y-150847946D01*
X109142857Y-150850828D01*
X109421708Y-150849921D01*
X109424310Y-152230092D01*
X109446708Y-152284164D01*
X109488092Y-152325548D01*
X109542164Y-152347946D01*
X109600692Y-152347946D01*
X109654764Y-152325548D01*
X109696148Y-152284164D01*
X109718546Y-152230092D01*
X109721428Y-152200828D01*
X109718880Y-150848955D01*
X110029264Y-150847946D01*
X110083336Y-150825548D01*
X110124720Y-150784164D01*
X110142857Y-150740378D01*
X110160994Y-150784164D01*
X110202378Y-150825548D01*
X110256450Y-150847946D01*
X110285714Y-150850828D01*
X110564565Y-150849921D01*
X110567167Y-152230092D01*
X110589565Y-152284164D01*
X110630949Y-152325548D01*
X110685021Y-152347946D01*
X110743549Y-152347946D01*
X110797621Y-152325548D01*
X110839005Y-152284164D01*
X110861403Y-152230092D01*
X110864285Y-152200828D01*
X110862400Y-151200828D01*
X111421428Y-151200828D01*
X111424099Y-151691359D01*
X111421605Y-151708119D01*
X111424289Y-151726268D01*
X111424310Y-151730092D01*
X111425157Y-151732136D01*
X111425907Y-151737208D01*
X111495738Y-152006331D01*
X111495738Y-152015805D01*
X111502318Y-152031691D01*
X111507228Y-152050613D01*
X111513867Y-152059573D01*
X111518135Y-152069877D01*
X111536790Y-152092608D01*
X111681376Y-152233635D01*
X111693747Y-152247899D01*
X111700100Y-152251898D01*
X111702379Y-152254121D01*
X111706040Y-152255637D01*
X111718632Y-152263564D01*
X111843157Y-152323470D01*
X111845235Y-152325548D01*
X111861357Y-152332226D01*
X111888953Y-152345502D01*
X111894328Y-152345883D01*
X111899307Y-152347946D01*
X111928571Y-152350828D01*
X112191830Y-152348419D01*
X112195523Y-152349650D01*
X112215951Y-152348198D01*
X112243549Y-152347946D01*
X112248527Y-152345883D01*
X112253903Y-152345502D01*
X112281367Y-152334992D01*
X112423905Y-152260985D01*
X112440478Y-152254121D01*
X112446249Y-152249384D01*
X112449110Y-152247899D01*
X112451705Y-152244906D01*
X112463208Y-152235466D01*
X112593209Y-152102183D01*
X112600783Y-152097639D01*
X112610713Y-152084237D01*
X112624720Y-152069877D01*
X112628986Y-152059575D01*
X112635627Y-152050614D01*
X112645520Y-152022923D01*
X112712390Y-151744952D01*
X112718546Y-151730092D01*
X112720334Y-151711928D01*
X112721251Y-151708120D01*
X112720925Y-151705931D01*
X112721428Y-151700828D01*
X112718756Y-151210295D01*
X112721251Y-151193536D01*
X112718566Y-151175386D01*
X112718546Y-151171564D01*
X112717699Y-151169519D01*
X112716949Y-151164447D01*
X112647117Y-150895323D01*
X112647117Y-150885851D01*
X112640537Y-150869965D01*
X112635627Y-150851042D01*
X112628987Y-150842081D01*
X112624720Y-150831778D01*
X112606065Y-150809048D01*
X112495114Y-150700828D01*
X113064285Y-150700828D01*
X113067167Y-152230092D01*
X113089565Y-152284164D01*
X113130949Y-152325548D01*
X113185021Y-152347946D01*
X113243549Y-152347946D01*
X113297621Y-152325548D01*
X113339005Y-152284164D01*
X113361403Y-152230092D01*
X113364285Y-152200828D01*
X113362718Y-151369843D01*
X113578555Y-151829494D01*
X113586025Y-151850035D01*
X113590490Y-151854911D01*
X113593345Y-151860990D01*
X113610150Y-151876380D01*
X113625552Y-151893198D01*
X113631595Y-151896018D01*
X113636508Y-151900517D01*
X113657928Y-151908306D01*
X113678590Y-151917948D01*
X113685247Y-151918240D01*
X113691510Y-151920518D01*
X113714289Y-151919517D01*
X113737060Y-151920518D01*
X113743319Y-151918241D01*
X113749981Y-151917949D01*
X113770648Y-151908304D01*
X113792063Y-151900517D01*
X113796976Y-151896017D01*
X113803018Y-151893198D01*
X113818413Y-151876385D01*
X113835226Y-151860990D01*
X113840194Y-151852601D01*
X113842545Y-151850035D01*
X113843864Y-151846405D01*
X113850212Y-151835690D01*
X114065548Y-151371375D01*
X114067167Y-152230092D01*
X114089565Y-152284164D01*
X114130949Y-152325548D01*
X114185021Y-152347946D01*
X114243549Y-152347946D01*
X114297621Y-152325548D01*
X114339005Y-152284164D01*
X114361403Y-152230092D01*
X114364285Y-152200828D01*
X114361461Y-150702720D01*
X114362546Y-150678052D01*
X114361409Y-150674926D01*
X114361403Y-150671564D01*
X114351442Y-150647518D01*
X114342545Y-150623050D01*
X114340285Y-150620582D01*
X114339005Y-150617492D01*
X114320607Y-150599094D01*
X114303018Y-150579887D01*
X114299984Y-150578471D01*
X114297621Y-150576108D01*
X114273590Y-150566154D01*
X114249981Y-150555136D01*
X114246636Y-150554989D01*
X114243549Y-150553710D01*
X114217525Y-150553710D01*
X114191510Y-150552567D01*
X114188367Y-150553710D01*
X114185021Y-150553710D01*
X114160968Y-150563673D01*
X114136508Y-150572568D01*
X114134040Y-150574827D01*
X114130949Y-150576108D01*
X114112540Y-150594516D01*
X114093345Y-150612095D01*
X114090995Y-150616061D01*
X114089565Y-150617492D01*
X114088209Y-150620764D01*
X114078358Y-150637395D01*
X113715001Y-151420874D01*
X113348322Y-150639984D01*
X113339005Y-150617492D01*
X113336658Y-150615145D01*
X113335226Y-150612095D01*
X113316018Y-150594505D01*
X113297621Y-150576108D01*
X113294530Y-150574827D01*
X113292063Y-150572568D01*
X113267597Y-150563671D01*
X113243549Y-150553710D01*
X113240203Y-150553710D01*
X113237060Y-150552567D01*
X113211056Y-150553710D01*
X113185021Y-150553710D01*
X113181930Y-150554990D01*
X113178590Y-150555137D01*
X113154994Y-150566147D01*
X113130949Y-150576108D01*
X113128585Y-150578471D01*
X113125552Y-150579887D01*
X113107962Y-150599094D01*
X113089565Y-150617492D01*
X113088284Y-150620582D01*
X113086025Y-150623050D01*
X113077128Y-150647515D01*
X113067167Y-150671564D01*
X113066715Y-150676152D01*
X113066024Y-150678053D01*
X113066179Y-150681591D01*
X113064285Y-150700828D01*
X112495114Y-150700828D01*
X112461484Y-150668026D01*
X112449110Y-150653758D01*
X112442754Y-150649757D01*
X112440477Y-150647536D01*
X112436817Y-150646020D01*
X112424224Y-150638093D01*
X112299699Y-150578186D01*
X112297621Y-150576108D01*
X112281489Y-150569426D01*
X112253904Y-150556155D01*
X112248529Y-150555773D01*
X112243549Y-150553710D01*
X112214285Y-150550828D01*
X111951024Y-150553236D01*
X111947332Y-150552006D01*
X111926908Y-150553457D01*
X111899307Y-150553710D01*
X111894326Y-150555773D01*
X111888952Y-150556155D01*
X111861488Y-150566664D01*
X111718944Y-150640674D01*
X111702379Y-150647536D01*
X111696608Y-150652271D01*
X111693746Y-150653758D01*
X111691149Y-150656752D01*
X111679648Y-150666191D01*
X111549644Y-150799473D01*
X111542072Y-150804017D01*
X111532145Y-150817414D01*
X111518135Y-150831778D01*
X111513866Y-150842083D01*
X111507228Y-150851043D01*
X111497335Y-150878734D01*
X111430466Y-151156702D01*
X111424310Y-151171564D01*
X111422521Y-151189729D01*
X111421605Y-151193537D01*
X111421930Y-151195724D01*
X111421428Y-151200828D01*
X110862400Y-151200828D01*
X110861737Y-150848955D01*
X111172121Y-150847946D01*
X111226193Y-150825548D01*
X111267577Y-150784164D01*
X111289975Y-150730092D01*
X111289975Y-150671564D01*
X111267577Y-150617492D01*
X111226193Y-150576108D01*
X111172121Y-150553710D01*
X111142857Y-150550828D01*
X110256450Y-150553710D01*
X110202378Y-150576108D01*
X110160994Y-150617492D01*
X110142857Y-150661277D01*
X110124720Y-150617492D01*
X110083336Y-150576108D01*
X110029264Y-150553710D01*
X110000000Y-150550828D01*
X109113593Y-150553710D01*
X109059521Y-150576108D01*
X109018137Y-150617492D01*
X108995739Y-150671564D01*
X108995739Y-150730092D01*
X108667973Y-150730092D01*
X108604341Y-150668026D01*
X108591967Y-150653758D01*
X108585611Y-150649757D01*
X108583334Y-150647536D01*
X108579674Y-150646020D01*
X108567081Y-150638093D01*
X108442556Y-150578186D01*
X108440478Y-150576108D01*
X108424346Y-150569426D01*
X108396761Y-150556155D01*
X108391386Y-150555773D01*
X108386406Y-150553710D01*
X108357142Y-150550828D01*
X108093881Y-150553236D01*
X108090189Y-150552006D01*
X108069765Y-150553457D01*
X108042164Y-150553710D01*
X108037183Y-150555773D01*
X108031809Y-150556155D01*
X108004345Y-150566664D01*
X107861801Y-150640674D01*
X107845236Y-150647536D01*
X107839465Y-150652271D01*
X107836603Y-150653758D01*
X107834006Y-150656752D01*
X107822505Y-150666191D01*
X107692501Y-150799473D01*
X107684929Y-150804017D01*
X107675002Y-150817414D01*
X107660992Y-150831778D01*
X107656723Y-150842083D01*
X107650085Y-150851043D01*
X107640192Y-150878734D01*
X107573323Y-151156702D01*
X107567167Y-151171564D01*
X107565378Y-151189729D01*
X107564462Y-151193537D01*
X107564787Y-151195724D01*
X107564285Y-151200828D01*
X107201080Y-151200828D01*
X107202829Y-151196604D01*
X107216101Y-151169019D01*
X107216482Y-151163644D01*
X107218546Y-151158664D01*
X107221428Y-151129400D01*
X107219393Y-151007873D01*
X107220250Y-151005303D01*
X107219072Y-150988738D01*
X107218546Y-150957278D01*
X107216482Y-150952297D01*
X107216101Y-150946923D01*
X107205592Y-150919459D01*
X107131581Y-150776916D01*
X107124720Y-150760349D01*
X107119983Y-150754577D01*
X107118498Y-150751717D01*
X107115505Y-150749121D01*
X107106065Y-150737619D01*
X107030915Y-150665722D01*
X107020539Y-150653758D01*
X107014313Y-150649839D01*
X107011906Y-150647536D01*
X107008246Y-150646020D01*
X106995653Y-150638093D01*
X106871125Y-150578184D01*
X106869049Y-150576108D01*
X106852931Y-150569431D01*
X106825332Y-150556154D01*
X106819954Y-150555771D01*
X106814977Y-150553710D01*
X106785713Y-150550828D01*
X106256449Y-150553710D01*
X106202377Y-150576108D01*
X106160993Y-150617492D01*
X106138595Y-150671564D01*
X106135713Y-150700828D01*
X105969046Y-150700828D01*
X105969046Y-150384161D01*
X114530952Y-150384161D01*
X114530952Y-152517495D01*
G37*
D11*
X107350000Y-89025000D03*
X107350000Y-89425000D03*
X107350000Y-89825000D03*
X107350000Y-90225000D03*
X107350000Y-90625000D03*
X107350000Y-91025000D03*
D12*
X107850000Y-91925000D03*
X108250000Y-91925000D03*
X108650000Y-91925000D03*
X109050000Y-91925000D03*
X109450000Y-91925000D03*
X109850000Y-91925000D03*
X110250000Y-91925000D03*
X110650000Y-91925000D03*
X111050000Y-91925000D03*
X111450000Y-91925000D03*
X111850000Y-91925000D03*
X112250000Y-91925000D03*
X112650000Y-91925000D03*
D13*
X113150000Y-90714000D03*
X113150000Y-89336000D03*
D12*
X112650000Y-88125000D03*
X112250000Y-88125000D03*
X111850000Y-88125000D03*
X111450000Y-88125000D03*
X111050000Y-88125000D03*
X110650000Y-88125000D03*
D14*
X110050000Y-88125000D03*
X109250000Y-88125000D03*
D12*
X108650000Y-88125000D03*
X108250000Y-88125000D03*
X107850000Y-88125000D03*
D15*
X108225000Y-88975000D03*
X108225000Y-89675000D03*
X108225000Y-90375000D03*
X108225000Y-91075000D03*
X108925000Y-88975000D03*
X108925000Y-89675000D03*
X108925000Y-90375000D03*
X108925000Y-91075000D03*
D16*
X109285000Y-90025000D03*
D15*
X109625000Y-88975000D03*
X109625000Y-89675000D03*
X109625000Y-90375000D03*
X109625000Y-91075000D03*
X110325000Y-88975000D03*
X110325000Y-89675000D03*
X110325000Y-90375000D03*
X110325000Y-91075000D03*
X111350000Y-88975000D03*
X111350000Y-89675000D03*
X111350000Y-90375000D03*
X111350000Y-91075000D03*
D17*
X111810000Y-90025000D03*
D15*
X112250000Y-88975000D03*
X112250000Y-89675000D03*
X112250000Y-90375000D03*
X112250000Y-91075000D03*
D18*
X111766802Y-86781802D03*
X113316802Y-86781802D03*
D19*
X122750000Y-111026989D03*
X122750000Y-110526863D03*
X122750000Y-110026737D03*
X122750000Y-109526611D03*
D20*
X122026989Y-108803600D03*
X121526863Y-108803600D03*
X121026737Y-108803600D03*
X120526611Y-108803600D03*
D19*
X119803600Y-109526611D03*
X119803600Y-110026737D03*
X119803600Y-110526863D03*
X119803600Y-111026989D03*
D20*
X120526611Y-111750000D03*
X121026737Y-111750000D03*
X121526863Y-111750000D03*
X122026989Y-111750000D03*
D15*
X121876800Y-110876800D03*
X121876800Y-109676800D03*
X121276800Y-110276800D03*
D21*
X121276800Y-110276800D03*
D15*
X120676800Y-110876800D03*
X120676800Y-109676800D03*
D22*
X124025000Y-107200000D03*
X122375000Y-107200000D03*
D23*
X114800000Y-84250000D03*
D24*
X112260000Y-84250000D03*
X109720000Y-84250000D03*
X107180000Y-84250000D03*
X104640000Y-84250000D03*
D25*
X129000000Y-114175000D03*
X129000000Y-112625000D03*
D26*
X125700000Y-122100000D03*
X130800000Y-122100000D03*
D27*
X98000000Y-82000000D03*
D28*
X92484567Y-76484567D03*
D29*
X124800000Y-92575000D03*
X124800000Y-90925000D03*
D30*
X115625000Y-105900000D03*
X117275000Y-105900000D03*
D31*
X125675000Y-108700000D03*
X124125000Y-108700000D03*
D30*
X112650000Y-108200000D03*
X114300000Y-108200000D03*
D31*
X110353604Y-86781802D03*
X108803604Y-86781802D03*
D32*
X113450000Y-81325000D03*
X112650000Y-81325000D03*
D33*
X111500000Y-81325000D03*
X110500000Y-81325000D03*
X110000000Y-81325000D03*
X109000000Y-81325000D03*
D32*
X107850000Y-81325000D03*
X107050000Y-81325000D03*
X107050000Y-81325000D03*
X107850000Y-81325000D03*
D33*
X108500000Y-81325000D03*
X109500000Y-81325000D03*
X111000000Y-81325000D03*
X112000000Y-81325000D03*
D32*
X112650000Y-81325000D03*
X113450000Y-81325000D03*
D34*
X114570000Y-80725000D03*
D35*
X114570000Y-76525000D03*
D34*
X105930000Y-80725000D03*
D35*
X105930000Y-76525000D03*
D36*
X126700000Y-115800000D03*
X119900000Y-115800000D03*
D31*
X120200000Y-107400000D03*
X118650000Y-107400000D03*
D23*
X128850000Y-96890000D03*
D24*
X128850000Y-94350000D03*
X128850000Y-91810000D03*
D26*
X105150000Y-109000000D03*
X110250000Y-109000000D03*
D30*
X125075000Y-100800000D03*
X126725000Y-100800000D03*
X115625000Y-108200000D03*
X117275000Y-108200000D03*
D37*
X106350000Y-90400000D03*
X105390000Y-90400000D03*
D38*
X106500000Y-95850000D03*
X113300000Y-95850000D03*
D37*
X107650000Y-86550000D03*
X106690000Y-86550000D03*
D39*
X115000000Y-113900000D03*
D40*
X105400000Y-114000005D03*
D41*
X110200000Y-127900000D03*
D31*
X120200000Y-105900000D03*
X118650000Y-105900000D03*
D37*
X106350000Y-89000000D03*
X105390000Y-89000000D03*
D18*
X128925000Y-115700000D03*
X130475000Y-115700000D03*
D42*
X117875000Y-92545000D03*
X117875000Y-93815000D03*
X117875000Y-95085000D03*
X117875000Y-96355000D03*
X122825000Y-96355000D03*
X122825000Y-95085000D03*
X122825000Y-93815000D03*
X122825000Y-92545000D03*
D31*
X125675000Y-110200000D03*
X124125000Y-110200000D03*
D43*
X124800000Y-94450000D03*
X124800000Y-96100000D03*
X126300000Y-93425000D03*
X126300000Y-95075000D03*
D23*
X125575000Y-103350000D03*
D24*
X123035000Y-103350000D03*
X120495000Y-103350000D03*
D31*
X118400000Y-109675000D03*
X116850000Y-109675000D03*
D44*
X123800000Y-130600000D03*
X131800000Y-130600000D03*
D37*
X106330000Y-87700000D03*
X105370000Y-87700000D03*
D45*
X135000000Y-125100000D03*
X135000000Y-134000000D03*
D46*
X110000000Y-121000000D03*
X99000000Y-123000000D03*
X145000000Y-116000000D03*
X110000000Y-122000000D03*
X89000000Y-74000000D03*
X135000000Y-152000000D03*
X76000000Y-148000000D03*
X110800000Y-101950000D03*
X140000000Y-136000000D03*
X124300000Y-113000000D03*
X110900000Y-131400000D03*
X87000000Y-82000000D03*
X83000000Y-152000000D03*
X131900000Y-137400000D03*
D47*
X109600000Y-98000000D03*
D46*
X89000000Y-152000000D03*
X119200000Y-108300000D03*
X89000000Y-118000000D03*
X110000000Y-105000000D03*
X87000000Y-81000000D03*
X102000000Y-123000000D03*
X110000000Y-123000000D03*
X145000000Y-140000000D03*
D47*
X109600000Y-94000000D03*
D46*
X145000000Y-115000000D03*
X111900000Y-139400000D03*
X115000000Y-105000000D03*
X138000000Y-152000000D03*
X116900000Y-139400000D03*
X110900000Y-132400000D03*
X89000000Y-121000000D03*
X110800000Y-99950000D03*
X113900000Y-139400000D03*
X114900000Y-139400000D03*
X133400000Y-84000000D03*
X121200000Y-105500000D03*
X119900000Y-108800000D03*
D47*
X110800000Y-96000000D03*
D46*
X112900000Y-139400000D03*
X98000000Y-123000000D03*
X110900000Y-137400000D03*
X110900000Y-136400000D03*
X114847738Y-110300000D03*
X133400000Y-82000000D03*
X110900000Y-138400000D03*
X131900000Y-138400000D03*
X145000000Y-117000000D03*
X108000000Y-123000000D03*
X137000000Y-152000000D03*
X110800000Y-98950000D03*
X133400000Y-88000000D03*
X123900000Y-139400000D03*
X130300000Y-113000000D03*
X88000000Y-152000000D03*
D47*
X118000000Y-89000000D03*
D46*
X123300000Y-113000000D03*
X145000000Y-119000000D03*
X145000000Y-120000000D03*
X133400000Y-87000000D03*
X120900000Y-139400000D03*
X132000000Y-73000000D03*
X109000000Y-123000000D03*
X76000000Y-121000000D03*
X110900000Y-133400000D03*
X132000000Y-72000000D03*
X115800000Y-110300000D03*
X115800000Y-101950000D03*
X114000000Y-105000000D03*
X76000000Y-117000000D03*
X119900000Y-139400000D03*
X114800000Y-101950000D03*
X90000000Y-71500000D03*
X76000000Y-144000000D03*
X87000000Y-83000000D03*
X90000000Y-152000000D03*
X87000000Y-87000000D03*
X91000000Y-152000000D03*
D47*
X112866802Y-85981802D03*
D46*
X89000000Y-122000000D03*
X76000000Y-120000000D03*
D47*
X110800000Y-94000000D03*
D46*
X89000000Y-119000000D03*
X139000000Y-135000000D03*
X76000000Y-119000000D03*
X133400000Y-89000000D03*
X101000000Y-123000000D03*
X145000000Y-111000000D03*
X85000000Y-152000000D03*
X76000000Y-141000000D03*
X140000000Y-131000000D03*
X140000000Y-152000000D03*
X139000000Y-132000000D03*
X89000000Y-120000000D03*
X124900000Y-139400000D03*
X139000000Y-152000000D03*
X131000000Y-71500000D03*
X130300000Y-114000000D03*
X97000000Y-123000000D03*
X145000000Y-148000000D03*
X76000000Y-147000000D03*
X125000000Y-106500000D03*
X133400000Y-81000000D03*
X133000000Y-152000000D03*
X76000000Y-111000000D03*
X145000000Y-141000000D03*
X145000000Y-147000000D03*
D47*
X118000000Y-88000000D03*
D46*
X87000000Y-152000000D03*
X110000000Y-118000000D03*
D47*
X110800000Y-95000000D03*
D46*
X126300000Y-113000000D03*
X132000000Y-74000000D03*
X125300000Y-113000000D03*
X129900000Y-139400000D03*
X105000000Y-123000000D03*
X139000000Y-133000000D03*
D47*
X118000000Y-90000000D03*
D46*
X76000000Y-145000000D03*
X94000000Y-123000000D03*
X110800000Y-100950000D03*
X110900000Y-139400000D03*
X122750000Y-111750000D03*
X131900000Y-139400000D03*
X117900000Y-139400000D03*
X118900000Y-139400000D03*
X93000000Y-123000000D03*
X76000000Y-146000000D03*
X113000000Y-105000000D03*
X76000000Y-142000000D03*
X96000000Y-123000000D03*
D47*
X109600000Y-102000000D03*
D46*
X76000000Y-139000000D03*
X127300000Y-113000000D03*
X122900000Y-139400000D03*
X91000000Y-123000000D03*
X145000000Y-114000000D03*
X89000000Y-123000000D03*
D47*
X118000000Y-87000000D03*
D46*
X133400000Y-83000000D03*
X76000000Y-114000000D03*
X110900000Y-134400000D03*
X76000000Y-140000000D03*
X122300000Y-113000000D03*
X90000000Y-123000000D03*
X92000000Y-123000000D03*
X110000000Y-119000000D03*
X111800000Y-101950000D03*
X130900000Y-139400000D03*
X89000000Y-73000000D03*
X145000000Y-112000000D03*
D47*
X110800000Y-97000000D03*
D46*
X136000000Y-152000000D03*
X145000000Y-142000000D03*
X115900000Y-139400000D03*
X111000000Y-105000000D03*
X110000000Y-120000000D03*
X142000000Y-131000000D03*
X87000000Y-88000000D03*
D47*
X110800000Y-98000000D03*
D46*
X87000000Y-84000000D03*
X113800000Y-101950000D03*
X76000000Y-112000000D03*
X76000000Y-115000000D03*
X141000000Y-136000000D03*
X84000000Y-152000000D03*
X132000000Y-75000000D03*
X87000000Y-89000000D03*
X139000000Y-131000000D03*
X133400000Y-85000000D03*
X87000000Y-86000000D03*
X95000000Y-123000000D03*
X100000000Y-123000000D03*
X76000000Y-113000000D03*
X113850000Y-110300000D03*
X106000000Y-123000000D03*
X107000000Y-123000000D03*
X104000000Y-123000000D03*
X145000000Y-149000000D03*
X112800000Y-101950000D03*
X110900000Y-135400000D03*
X89000000Y-72000000D03*
X121200000Y-106400000D03*
X145000000Y-118000000D03*
X133400000Y-86000000D03*
X125000000Y-107400000D03*
X82000000Y-152000000D03*
X76000000Y-118000000D03*
X134000000Y-152000000D03*
X76000000Y-116000000D03*
X89000000Y-75000000D03*
D47*
X118000000Y-91000000D03*
D46*
X76000000Y-143000000D03*
X112000000Y-105000000D03*
X103000000Y-123000000D03*
D47*
X119000000Y-91000000D03*
D46*
X145000000Y-113000000D03*
X139000000Y-134000000D03*
X121900000Y-139400000D03*
X86000000Y-152000000D03*
X87000000Y-85000000D03*
X107400000Y-103350000D03*
X108500000Y-103350000D03*
X106300000Y-103350000D03*
X122600000Y-106000000D03*
X125000000Y-134000000D03*
X125000000Y-126000000D03*
X129000000Y-123000000D03*
X125000000Y-129000000D03*
X127000000Y-130000000D03*
X124000000Y-126000000D03*
X128000000Y-128900000D03*
X124000000Y-134000000D03*
X126000000Y-134000000D03*
X127000000Y-128000000D03*
X129000000Y-128900000D03*
X125000000Y-128000000D03*
X125000000Y-127000000D03*
X121950000Y-114100000D03*
X127000000Y-133000000D03*
X128000000Y-122000000D03*
X124000000Y-128000000D03*
X128000000Y-126000000D03*
X128000000Y-127900000D03*
X126000000Y-128000000D03*
X129000000Y-127900000D03*
X124000000Y-129000000D03*
X129000000Y-122000000D03*
X128000000Y-123000000D03*
X126000000Y-127000000D03*
X124000000Y-127000000D03*
X128000000Y-132900000D03*
X123000000Y-134000000D03*
X127000000Y-123000000D03*
X125000000Y-133000000D03*
X127000000Y-126000000D03*
X128000000Y-130900000D03*
X129000000Y-131900000D03*
X129000000Y-130900000D03*
X127000000Y-121000000D03*
X128000000Y-129900000D03*
X127000000Y-132000000D03*
X128000000Y-133900000D03*
X129000000Y-132900000D03*
X128000000Y-124000000D03*
X126000000Y-129000000D03*
X123000000Y-128000000D03*
X124000000Y-133000000D03*
X123000000Y-133000000D03*
X129000000Y-133900000D03*
X127000000Y-124000000D03*
X129000000Y-127000000D03*
X127000000Y-127000000D03*
X128000000Y-131900000D03*
X129000000Y-129900000D03*
X126000000Y-126000000D03*
X128000000Y-127000000D03*
X126000000Y-133000000D03*
X128000000Y-121000000D03*
X113400000Y-108950000D03*
X127000000Y-134000000D03*
X127000000Y-122000000D03*
X127000000Y-129000000D03*
X127000000Y-131000000D03*
X123000000Y-127000000D03*
X129000000Y-121000000D03*
X129000000Y-126000000D03*
X129000000Y-124000000D03*
D47*
X110774854Y-82954854D03*
X109498000Y-82952000D03*
X111502468Y-82972532D03*
X111005000Y-86020000D03*
X123650000Y-90900000D03*
X112454000Y-93102000D03*
X121400000Y-95100000D03*
X111952000Y-93598000D03*
X111450000Y-93102000D03*
X121400000Y-96350000D03*
D46*
X107850000Y-82360000D03*
X112650000Y-82385000D03*
D47*
X110250000Y-93102000D03*
X106350000Y-89650000D03*
X121150000Y-92500000D03*
D48*
X112866802Y-85981802D02*
X113316802Y-86431802D01*
X113316802Y-86431802D02*
X113316802Y-86781802D01*
D49*
X122600000Y-106000000D02*
X122455234Y-106000000D01*
D50*
X123200000Y-106600000D02*
X123200000Y-107775000D01*
X122600000Y-106000000D02*
X123200000Y-106600000D01*
D49*
X124125000Y-109044186D02*
X124125000Y-108700000D01*
D50*
X123200000Y-107775000D02*
X124125000Y-108700000D01*
D49*
X122750000Y-110026737D02*
X123142449Y-110026737D01*
X123142449Y-110026737D02*
X124125000Y-109044186D01*
X123848137Y-110526863D02*
X124175000Y-110200000D01*
X122750000Y-110526863D02*
X123848137Y-110526863D01*
D51*
X120200000Y-105900000D02*
X120200000Y-107400000D01*
D49*
X120526611Y-108803600D02*
X120526611Y-107726611D01*
X120526611Y-107726611D02*
X120200000Y-107400000D01*
D52*
X117275000Y-105900000D02*
X118650000Y-105900000D01*
D49*
X118400000Y-110026737D02*
X119803600Y-110026737D01*
X118400000Y-109675000D02*
X118400000Y-110026737D01*
X115625000Y-108200000D02*
X116352000Y-108927000D01*
X119203989Y-108927000D02*
X119803600Y-109526611D01*
D52*
X115625000Y-108200000D02*
X114300000Y-108200000D01*
D49*
X116352000Y-108927000D02*
X119203989Y-108927000D01*
X122026989Y-108803600D02*
X122026989Y-107548011D01*
X122026989Y-107548011D02*
X122375000Y-107200000D01*
D53*
X113400000Y-108950000D02*
X112650000Y-108200000D01*
X111050000Y-91925000D02*
X111050000Y-90785000D01*
X111050000Y-88125000D02*
X111050000Y-89265000D01*
X111050000Y-89265000D02*
X111491802Y-89706802D01*
X111050000Y-90785000D02*
X111491802Y-90343198D01*
X112260000Y-84604540D02*
X113993802Y-86338342D01*
X113000000Y-87525000D02*
X112650000Y-87875000D01*
X113993802Y-87229802D02*
X113698604Y-87525000D01*
X113698604Y-87525000D02*
X113000000Y-87525000D01*
X110500000Y-82680000D02*
X112070000Y-84250000D01*
X109500000Y-82950000D02*
X109498000Y-82952000D01*
X109500000Y-81325000D02*
X109500000Y-82950000D01*
X110500000Y-81325000D02*
X110500000Y-82680000D01*
X113993802Y-86338342D02*
X113993802Y-87229802D01*
X112260000Y-84250000D02*
X112260000Y-84604540D01*
X112650000Y-87875000D02*
X112650000Y-88125000D01*
X110800000Y-80450000D02*
X111000000Y-80650000D01*
X112450000Y-86344540D02*
X112450000Y-87348604D01*
X111000000Y-80650000D02*
X111000000Y-81325000D01*
X110000000Y-81325000D02*
X110000000Y-83780000D01*
X110000000Y-80650000D02*
X110200000Y-80450000D01*
X112450000Y-87348604D02*
X112250000Y-87548604D01*
X112250000Y-87548604D02*
X112250000Y-88125000D01*
X110355460Y-84250000D02*
X112450000Y-86344540D01*
X110000000Y-81325000D02*
X110000000Y-80650000D01*
X109720000Y-84250000D02*
X110355460Y-84250000D01*
X110200000Y-80450000D02*
X110800000Y-80450000D01*
D49*
X111500000Y-82970064D02*
X111500000Y-81325000D01*
X111502468Y-82972532D02*
X111500000Y-82970064D01*
X111850000Y-86759186D02*
X111850000Y-88125000D01*
X111005000Y-86020000D02*
X111766802Y-86781802D01*
X111450000Y-88125000D02*
X111450000Y-87775000D01*
X107925000Y-84250000D02*
X106990000Y-84250000D01*
X108500000Y-82740000D02*
X108500000Y-81325000D01*
X111450000Y-87775000D02*
X107925000Y-84250000D01*
X106990000Y-84250000D02*
X108500000Y-82740000D01*
D53*
X106350000Y-90225000D02*
X107350000Y-90225000D01*
X107850000Y-88125000D02*
X107625000Y-87900000D01*
X107625000Y-87900000D02*
X106530000Y-87900000D01*
X106530000Y-87900000D02*
X106330000Y-87700000D01*
X112250000Y-92600000D02*
X112454000Y-92804000D01*
X112250000Y-91925000D02*
X112250000Y-92600000D01*
X124775000Y-90900000D02*
X124800000Y-90925000D01*
X112454000Y-92804000D02*
X112454000Y-93102000D01*
X123650000Y-90900000D02*
X124775000Y-90900000D01*
X111952000Y-93598000D02*
X111952000Y-92852000D01*
X111952000Y-92852000D02*
X111850000Y-92750000D01*
X127550000Y-94350000D02*
X128850000Y-94350000D01*
X121400000Y-95100000D02*
X126800000Y-95100000D01*
X111850000Y-92750000D02*
X111850000Y-91925000D01*
X126800000Y-95100000D02*
X127550000Y-94350000D01*
X111450000Y-91925000D02*
X111450000Y-93102000D01*
X125175000Y-96300000D02*
X128260000Y-96300000D01*
X124570000Y-96355000D02*
X124900000Y-96025000D01*
X121970000Y-96350000D02*
X121975000Y-96355000D01*
X121400000Y-96350000D02*
X121970000Y-96350000D01*
X124900000Y-96025000D02*
X125175000Y-96300000D01*
X128260000Y-96300000D02*
X128850000Y-96890000D01*
X121975000Y-96355000D02*
X124570000Y-96355000D01*
D48*
X107850000Y-81325000D02*
X107850000Y-82360000D01*
D51*
X114515000Y-84250000D02*
X112650000Y-82385000D01*
X114610000Y-84250000D02*
X114515000Y-84250000D01*
D48*
X112650000Y-82385000D02*
X112650000Y-81325000D01*
D49*
X121526863Y-106923137D02*
X121526863Y-108803600D01*
X123035000Y-104015000D02*
X122048000Y-105002000D01*
X123035000Y-103350000D02*
X123035000Y-104015000D01*
X122048000Y-105002000D02*
X122048000Y-106402000D01*
X122048000Y-106402000D02*
X121526863Y-106923137D01*
D48*
X125075000Y-100800000D02*
X125075000Y-102850000D01*
D53*
X110250000Y-91925000D02*
X110250000Y-93102000D01*
D54*
X121150000Y-92500000D02*
X122780000Y-92500000D01*
D49*
X125650000Y-93425000D02*
X124800000Y-92575000D01*
D54*
X124770000Y-92545000D02*
X124800000Y-92575000D01*
D49*
X126300000Y-93425000D02*
X125650000Y-93425000D01*
D54*
X106350000Y-89000000D02*
X106350000Y-89650000D01*
D49*
X124800000Y-94450000D02*
X124800000Y-92575000D01*
D54*
X122825000Y-92545000D02*
X124770000Y-92545000D01*
D53*
X107350000Y-89025000D02*
X106220000Y-89025000D01*
D54*
X122780000Y-92500000D02*
X122825000Y-92545000D01*
D53*
X108370198Y-86079802D02*
X109222064Y-86079802D01*
X109676604Y-87225262D02*
X110050000Y-87598658D01*
X110050000Y-87598658D02*
X110050000Y-88125000D01*
X107900000Y-86550000D02*
X108370198Y-86079802D01*
X107630000Y-86550000D02*
X107900000Y-86550000D01*
X109222064Y-86079802D02*
X109676604Y-86534342D01*
X107680000Y-86600000D02*
X107630000Y-86550000D01*
X109676604Y-86534342D02*
X109676604Y-87225262D01*
G04 #@! TA.AperFunction,Conductor*
G36*
X113405690Y-90106422D02*
G01*
X113419861Y-90109240D01*
X113460087Y-90117242D01*
X113460087Y-90117241D01*
X113460527Y-90117329D01*
X113467569Y-90119093D01*
X113483106Y-90123806D01*
X113518722Y-90129088D01*
X113528240Y-90130500D01*
X116426000Y-90130500D01*
X116478326Y-90152174D01*
X116500000Y-90204500D01*
X116500000Y-98251000D01*
X116478326Y-98303326D01*
X116426000Y-98325000D01*
X111449000Y-98325000D01*
X111396674Y-98303326D01*
X111375000Y-98251000D01*
X111375000Y-93615214D01*
X111396674Y-93562888D01*
X111449000Y-93541214D01*
X111501326Y-93562888D01*
X111522089Y-93603638D01*
X111542280Y-93731126D01*
X111603471Y-93851219D01*
X111603472Y-93851220D01*
X111698780Y-93946528D01*
X111818873Y-94007718D01*
X111818873Y-94007719D01*
X111837075Y-94010601D01*
X111952000Y-94028804D01*
X112085126Y-94007719D01*
X112205220Y-93946528D01*
X112300528Y-93851220D01*
X112361719Y-93731126D01*
X112382804Y-93598000D01*
X112382803Y-93597999D01*
X112383243Y-93595228D01*
X112412836Y-93546937D01*
X112448506Y-93535346D01*
X112448248Y-93533715D01*
X112587126Y-93511719D01*
X112707220Y-93450528D01*
X112802528Y-93355220D01*
X112863719Y-93235126D01*
X112884804Y-93102000D01*
X112863719Y-92968874D01*
X112863719Y-92968873D01*
X112802528Y-92848780D01*
X112771674Y-92817926D01*
X112750000Y-92765600D01*
X112750000Y-92433082D01*
X112771674Y-92380756D01*
X112788214Y-92369705D01*
X112788027Y-92369425D01*
X112799500Y-92361759D01*
X112851808Y-92326808D01*
X112890376Y-92269087D01*
X112900500Y-92218189D01*
X112900499Y-91631812D01*
X112900499Y-91631807D01*
X112890377Y-91580915D01*
X112851808Y-91523192D01*
X112851807Y-91523191D01*
X112788027Y-91480575D01*
X112789206Y-91478810D01*
X112755631Y-91445232D01*
X112750000Y-91416917D01*
X112750000Y-90190375D01*
X112771674Y-90138049D01*
X112824000Y-90116375D01*
X112844270Y-90116375D01*
X112844271Y-90116375D01*
X112894309Y-90106422D01*
X112908745Y-90105000D01*
X113391254Y-90105000D01*
X113405690Y-90106422D01*
G37*
G04 #@! TD.AperFunction*
G04 #@! TA.AperFunction,Conductor*
G36*
X129376780Y-113749225D02*
G01*
X129443694Y-113769331D01*
X129489116Y-113822422D01*
X129500000Y-113873223D01*
X129500000Y-137876000D01*
X129480315Y-137943039D01*
X129427511Y-137988794D01*
X129376000Y-138000000D01*
X112424000Y-138000000D01*
X112356961Y-137980315D01*
X112311206Y-137927511D01*
X112300000Y-137876000D01*
X112300000Y-121323331D01*
X112319685Y-121256292D01*
X112372489Y-121210537D01*
X112423328Y-121199333D01*
X121550000Y-121150000D01*
X121550000Y-113824782D01*
X121569685Y-113757743D01*
X121622489Y-113711988D01*
X121674776Y-113700784D01*
X129376780Y-113749225D01*
G37*
G04 #@! TD.AperFunction*
G04 #@! TA.AperFunction,Conductor*
G36*
X119301357Y-110831002D02*
G01*
X119303699Y-110832527D01*
X119318969Y-110842730D01*
X119318971Y-110842730D01*
X119318972Y-110842731D01*
X119377447Y-110854362D01*
X119377450Y-110854363D01*
X119377452Y-110854363D01*
X120076000Y-110854363D01*
X120143039Y-110874048D01*
X120188794Y-110926852D01*
X120200000Y-110978363D01*
X120200000Y-111172852D01*
X120211631Y-111231329D01*
X120211632Y-111231330D01*
X120255947Y-111297652D01*
X120322269Y-111341967D01*
X120322270Y-111341968D01*
X120380747Y-111353599D01*
X120380750Y-111353600D01*
X120380752Y-111353600D01*
X121075363Y-111353600D01*
X121142402Y-111373285D01*
X121188157Y-111426089D01*
X121199363Y-111477600D01*
X121199363Y-112176152D01*
X121210994Y-112234629D01*
X121210995Y-112234630D01*
X121255310Y-112300952D01*
X121294891Y-112327399D01*
X121339696Y-112381011D01*
X121350000Y-112430501D01*
X121350000Y-113777660D01*
X121348738Y-113795307D01*
X121344500Y-113824782D01*
X121344500Y-120822275D01*
X121324815Y-120889314D01*
X121272011Y-120935069D01*
X121221170Y-120946273D01*
X114921952Y-120980323D01*
X112424669Y-120993822D01*
X112357525Y-120974501D01*
X112311486Y-120921945D01*
X112300000Y-120869825D01*
X112300000Y-110973316D01*
X112319685Y-110906277D01*
X112372489Y-110860522D01*
X112423311Y-110849318D01*
X119234214Y-110811689D01*
X119301357Y-110831002D01*
G37*
G04 #@! TD.AperFunction*
G04 #@! TA.AperFunction,Conductor*
G36*
X116478326Y-82896674D02*
G01*
X116500000Y-82949000D01*
X116500000Y-89901000D01*
X116478326Y-89953326D01*
X116426000Y-89975000D01*
X113528241Y-89975000D01*
X113497873Y-89965789D01*
X113497157Y-89967519D01*
X113490423Y-89964730D01*
X113486064Y-89963863D01*
X113413856Y-89949500D01*
X112886144Y-89949500D01*
X112844611Y-89957761D01*
X112813935Y-89963863D01*
X112758387Y-89952814D01*
X112726921Y-89905721D01*
X112725499Y-89891285D01*
X112725499Y-88781729D01*
X112725499Y-88781727D01*
X112710554Y-88706589D01*
X112710552Y-88706586D01*
X112707764Y-88699853D01*
X112709356Y-88699193D01*
X112700000Y-88668346D01*
X112700000Y-88644820D01*
X112721674Y-88592494D01*
X112759563Y-88572242D01*
X112794087Y-88565376D01*
X112851808Y-88526808D01*
X112890376Y-88469087D01*
X112900500Y-88418189D01*
X112900500Y-88125500D01*
X112900500Y-88009412D01*
X112922174Y-87957086D01*
X113082086Y-87797174D01*
X113134412Y-87775500D01*
X113748431Y-87775500D01*
X113748432Y-87775500D01*
X113840501Y-87737364D01*
X114206166Y-87371699D01*
X114244302Y-87279630D01*
X114244302Y-87179974D01*
X114244302Y-86288514D01*
X114206166Y-86196445D01*
X114135699Y-86125978D01*
X113321674Y-85311953D01*
X113300000Y-85259627D01*
X113300000Y-82949000D01*
X113321674Y-82896674D01*
X113374000Y-82875000D01*
X116426000Y-82875000D01*
X116478326Y-82896674D01*
G37*
G04 #@! TD.AperFunction*
G04 #@! TA.AperFunction,Conductor*
G36*
X98439910Y-76312338D02*
G01*
X98486460Y-76344073D01*
X101605037Y-79737257D01*
X102411233Y-80614442D01*
X102442104Y-80677121D01*
X102443935Y-80698293D01*
X102445987Y-85113730D01*
X102450000Y-93750000D01*
X108976000Y-93750000D01*
X109043039Y-93769685D01*
X109088794Y-93822489D01*
X109100000Y-93874000D01*
X109100000Y-121676651D01*
X109080315Y-121743690D01*
X109027511Y-121789445D01*
X108976653Y-121800649D01*
X90224653Y-121899343D01*
X90157510Y-121880012D01*
X90111478Y-121827449D01*
X90100000Y-121775345D01*
X90100000Y-84402251D01*
X90119685Y-84335212D01*
X90137394Y-84313507D01*
X90189415Y-84262740D01*
X96797918Y-84262740D01*
X97505001Y-84969823D01*
X97505022Y-84969842D01*
X97585053Y-85035038D01*
X97585059Y-85035042D01*
X97741740Y-85113730D01*
X97912329Y-85154161D01*
X97912340Y-85154163D01*
X98087660Y-85154163D01*
X98087670Y-85154161D01*
X98258259Y-85113730D01*
X98414940Y-85035042D01*
X98494977Y-84969843D01*
X98494992Y-84969830D01*
X99202081Y-84262741D01*
X99202081Y-84262740D01*
X98000000Y-83060660D01*
X96797918Y-84262740D01*
X90189415Y-84262740D01*
X92418201Y-82087659D01*
X94845837Y-82087659D01*
X94845838Y-82087670D01*
X94886269Y-82258259D01*
X94964957Y-82414940D01*
X95030156Y-82494977D01*
X95030170Y-82494993D01*
X95737258Y-83202081D01*
X96835922Y-82103416D01*
X96950000Y-82103416D01*
X96990350Y-82306274D01*
X97069502Y-82497362D01*
X97184411Y-82669336D01*
X97330664Y-82815589D01*
X97502638Y-82930498D01*
X97693726Y-83009650D01*
X97896584Y-83050000D01*
X98103416Y-83050000D01*
X98306274Y-83009650D01*
X98497362Y-82930498D01*
X98669336Y-82815589D01*
X98815589Y-82669336D01*
X98930498Y-82497362D01*
X99009650Y-82306274D01*
X99050000Y-82103416D01*
X99050000Y-82000000D01*
X99060660Y-82000000D01*
X100262741Y-83202081D01*
X100969823Y-82494998D01*
X100969842Y-82494977D01*
X101035038Y-82414946D01*
X101035042Y-82414940D01*
X101113730Y-82258259D01*
X101154161Y-82087670D01*
X101154163Y-82087659D01*
X101154163Y-81912340D01*
X101154161Y-81912329D01*
X101113730Y-81741740D01*
X101035042Y-81585059D01*
X100969843Y-81505022D01*
X100969829Y-81505006D01*
X100262741Y-80797918D01*
X100262740Y-80797918D01*
X99060660Y-81999999D01*
X99060660Y-82000000D01*
X99050000Y-82000000D01*
X99050000Y-81896584D01*
X99009650Y-81693726D01*
X98930498Y-81502638D01*
X98815589Y-81330664D01*
X98669336Y-81184411D01*
X98497362Y-81069502D01*
X98306274Y-80990350D01*
X98103416Y-80950000D01*
X97896584Y-80950000D01*
X97693726Y-80990350D01*
X97502638Y-81069502D01*
X97330664Y-81184411D01*
X97184411Y-81330664D01*
X97069502Y-81502638D01*
X96990350Y-81693726D01*
X96950000Y-81896584D01*
X96950000Y-82103416D01*
X96835922Y-82103416D01*
X96939339Y-81999999D01*
X95737258Y-80797918D01*
X95737257Y-80797918D01*
X95030176Y-81505001D01*
X95030157Y-81505022D01*
X94964961Y-81585053D01*
X94964957Y-81585059D01*
X94886269Y-81741740D01*
X94845838Y-81912329D01*
X94845837Y-81912340D01*
X94845837Y-82087659D01*
X92418201Y-82087659D01*
X94826636Y-79737258D01*
X96797918Y-79737258D01*
X98000000Y-80939340D01*
X98000001Y-80939340D01*
X99202081Y-79737258D01*
X99202081Y-79737257D01*
X98494998Y-79030176D01*
X98494977Y-79030157D01*
X98414946Y-78964961D01*
X98414940Y-78964957D01*
X98258259Y-78886269D01*
X98087670Y-78845838D01*
X98087660Y-78845837D01*
X97912340Y-78845837D01*
X97912329Y-78845838D01*
X97741740Y-78886269D01*
X97585059Y-78964957D01*
X97505022Y-79030156D01*
X97505006Y-79030170D01*
X96797918Y-79737257D01*
X96797918Y-79737258D01*
X94826636Y-79737258D01*
X98308558Y-76339238D01*
X98370284Y-76306504D01*
X98439910Y-76312338D01*
G37*
G04 #@! TD.AperFunction*
G04 #@! TA.AperFunction,Conductor*
G36*
X111806651Y-85142135D02*
G01*
X111875273Y-85178814D01*
X112063868Y-85236024D01*
X112260000Y-85255341D01*
X112456132Y-85236024D01*
X112475903Y-85230026D01*
X112532267Y-85235576D01*
X112549712Y-85248513D01*
X113721628Y-86420429D01*
X113743302Y-86472755D01*
X113743302Y-87095389D01*
X113721628Y-87147715D01*
X113616517Y-87252826D01*
X113564191Y-87274500D01*
X113058448Y-87274500D01*
X113058440Y-87274499D01*
X113049828Y-87274499D01*
X112950172Y-87274499D01*
X112891564Y-87298776D01*
X112858103Y-87312635D01*
X112858102Y-87312637D01*
X112826826Y-87343913D01*
X112774500Y-87365587D01*
X112722174Y-87343913D01*
X112700500Y-87291587D01*
X112700500Y-86294712D01*
X112700499Y-86294710D01*
X112662365Y-86202645D01*
X112662363Y-86202642D01*
X112587682Y-86127961D01*
X112587675Y-86127955D01*
X111719445Y-85259724D01*
X111697771Y-85207398D01*
X111719445Y-85155072D01*
X111771771Y-85133398D01*
X111806651Y-85142135D01*
G37*
G04 #@! TD.AperFunction*
G04 #@! TA.AperFunction,Conductor*
G36*
X116382874Y-67509073D02*
G01*
X117415090Y-67620931D01*
X117416828Y-67621141D01*
X118855101Y-67812582D01*
X118856877Y-67812841D01*
X120290056Y-68039289D01*
X120291700Y-68039569D01*
X121719034Y-68300910D01*
X121720707Y-68301238D01*
X123141106Y-68597269D01*
X123142848Y-68597653D01*
X124555728Y-68928254D01*
X124557324Y-68928648D01*
X125961694Y-69293588D01*
X125963367Y-69294044D01*
X127358376Y-69693100D01*
X127360023Y-69693593D01*
X128744910Y-70126546D01*
X128746578Y-70127089D01*
X129178808Y-70273876D01*
X130120460Y-70593664D01*
X130122162Y-70594265D01*
X131444475Y-71079593D01*
X131484249Y-71094191D01*
X131485932Y-71094833D01*
X132602684Y-71535894D01*
X132643389Y-71575274D01*
X132649500Y-71604720D01*
X132649500Y-78627841D01*
X132682873Y-78881338D01*
X132749049Y-79128309D01*
X132749051Y-79128316D01*
X132846892Y-79364526D01*
X132846895Y-79364534D01*
X132974736Y-79585961D01*
X132974740Y-79585967D01*
X133130390Y-79788813D01*
X133311186Y-79969609D01*
X133514032Y-80125259D01*
X133514038Y-80125263D01*
X133703959Y-80234914D01*
X133735465Y-80253104D01*
X133971687Y-80350950D01*
X134218660Y-80417126D01*
X134226161Y-80418113D01*
X134235158Y-80419298D01*
X134284208Y-80447616D01*
X134299500Y-80492665D01*
X134299500Y-89796057D01*
X134299519Y-89796357D01*
X134299540Y-90041786D01*
X134332155Y-90620739D01*
X134397282Y-91196913D01*
X134493908Y-91763776D01*
X134494716Y-91768516D01*
X134623475Y-92330799D01*
X134624150Y-92333745D01*
X134657610Y-92449499D01*
X134783331Y-92884427D01*
X134785172Y-92890794D01*
X134971402Y-93421186D01*
X134977266Y-93437887D01*
X135162312Y-93883053D01*
X135199836Y-93973323D01*
X135452169Y-94495391D01*
X135733468Y-95002436D01*
X135733473Y-95002445D01*
X135907817Y-95278812D01*
X136042844Y-95492856D01*
X136042848Y-95492862D01*
X136184886Y-95692253D01*
X136184888Y-95692263D01*
X136211059Y-95728993D01*
X136211058Y-95728993D01*
X136238676Y-95767755D01*
X136238677Y-95767756D01*
X143861668Y-106466692D01*
X143871854Y-106480987D01*
X143871855Y-106480989D01*
X143898850Y-106518878D01*
X143899999Y-106520538D01*
X144133336Y-106868337D01*
X144202401Y-106971281D01*
X144204622Y-106974803D01*
X144480604Y-107440850D01*
X144482624Y-107444492D01*
X144731952Y-107925323D01*
X144733764Y-107929072D01*
X144955649Y-108423162D01*
X144957248Y-108427007D01*
X145151003Y-108932826D01*
X145152382Y-108936755D01*
X145317364Y-109452630D01*
X145318521Y-109456630D01*
X145454236Y-109981012D01*
X145455165Y-109985071D01*
X145561161Y-110516222D01*
X145561861Y-110520327D01*
X145637817Y-111056630D01*
X145638284Y-111060768D01*
X145683951Y-111600449D01*
X145684186Y-111604606D01*
X145687061Y-111706787D01*
X145699471Y-112147725D01*
X145699500Y-112149755D01*
X145699500Y-120245148D01*
X145698867Y-120254808D01*
X145687158Y-120343741D01*
X145682158Y-120362399D01*
X145649705Y-120440749D01*
X145640046Y-120457480D01*
X145588419Y-120524760D01*
X145574760Y-120538419D01*
X145550057Y-120557375D01*
X145507477Y-120590047D01*
X145490749Y-120599705D01*
X145412399Y-120632158D01*
X145393741Y-120637158D01*
X145327068Y-120645936D01*
X145304806Y-120648867D01*
X145295149Y-120649500D01*
X144712464Y-120649500D01*
X144540062Y-120679898D01*
X144375558Y-120739773D01*
X144223945Y-120827308D01*
X144089837Y-120939837D01*
X143977308Y-121073945D01*
X143889773Y-121225558D01*
X143829898Y-121390062D01*
X143799500Y-121562464D01*
X143799500Y-127229253D01*
X143777826Y-127281579D01*
X143766554Y-127290820D01*
X143545253Y-127438387D01*
X143295748Y-127650134D01*
X143072330Y-127889252D01*
X142877994Y-128152536D01*
X142715330Y-128436471D01*
X142715326Y-128436480D01*
X142586497Y-128737292D01*
X142586492Y-128737307D01*
X142493223Y-129050974D01*
X142436759Y-129373305D01*
X142436758Y-129373312D01*
X142417854Y-129699993D01*
X142417854Y-129700006D01*
X142436758Y-130026687D01*
X142436759Y-130026694D01*
X142493223Y-130349025D01*
X142586492Y-130662692D01*
X142586497Y-130662707D01*
X142715326Y-130963519D01*
X142715330Y-130963528D01*
X142877994Y-131247463D01*
X143072330Y-131510747D01*
X143072333Y-131510751D01*
X143072336Y-131510754D01*
X143295749Y-131749867D01*
X143545253Y-131961612D01*
X143766555Y-132109179D01*
X143798064Y-132156241D01*
X143799500Y-132170746D01*
X143799500Y-137837535D01*
X143829898Y-138009937D01*
X143889773Y-138174441D01*
X143889774Y-138174443D01*
X143889775Y-138174445D01*
X143977308Y-138326055D01*
X144089837Y-138460163D01*
X144223945Y-138572692D01*
X144375555Y-138660225D01*
X144540062Y-138720101D01*
X144712468Y-138750500D01*
X144760438Y-138750500D01*
X145252405Y-138750500D01*
X145295149Y-138750500D01*
X145304807Y-138751132D01*
X145393743Y-138762841D01*
X145412396Y-138767840D01*
X145490753Y-138800296D01*
X145507472Y-138809948D01*
X145574760Y-138861580D01*
X145588418Y-138875238D01*
X145640049Y-138942525D01*
X145649705Y-138959250D01*
X145682158Y-139037600D01*
X145687158Y-139056258D01*
X145698867Y-139145191D01*
X145699500Y-139154851D01*
X145699500Y-148448375D01*
X145699430Y-148451603D01*
X145681757Y-148856364D01*
X145681194Y-148862795D01*
X145628525Y-149262855D01*
X145627404Y-149269213D01*
X145540066Y-149663169D01*
X145538395Y-149669404D01*
X145417057Y-150054240D01*
X145414849Y-150060307D01*
X145260428Y-150433111D01*
X145257700Y-150438961D01*
X145071377Y-150796884D01*
X145068149Y-150802475D01*
X144851339Y-151142799D01*
X144847636Y-151148087D01*
X144601994Y-151468215D01*
X144597844Y-151473161D01*
X144325230Y-151770666D01*
X144320666Y-151775230D01*
X144023161Y-152047844D01*
X144018215Y-152051994D01*
X143698087Y-152297636D01*
X143692799Y-152301339D01*
X143352475Y-152518149D01*
X143346884Y-152521377D01*
X142988961Y-152707700D01*
X142983111Y-152710428D01*
X142610307Y-152864849D01*
X142604240Y-152867057D01*
X142219404Y-152988395D01*
X142213169Y-152990066D01*
X141819213Y-153077404D01*
X141812855Y-153078525D01*
X141412795Y-153131194D01*
X141406364Y-153131757D01*
X141001603Y-153149430D01*
X140998375Y-153149500D01*
X79501625Y-153149500D01*
X79498397Y-153149430D01*
X79093635Y-153131757D01*
X79087204Y-153131194D01*
X78687144Y-153078525D01*
X78680786Y-153077404D01*
X78286830Y-152990066D01*
X78280595Y-152988395D01*
X77895759Y-152867057D01*
X77889692Y-152864849D01*
X77516888Y-152710428D01*
X77511038Y-152707700D01*
X77153115Y-152521377D01*
X77147524Y-152518149D01*
X76807200Y-152301339D01*
X76801912Y-152297636D01*
X76676265Y-152201224D01*
X76481775Y-152051987D01*
X76476847Y-152047851D01*
X76179330Y-151775227D01*
X76174769Y-151770666D01*
X75902146Y-151473150D01*
X75898014Y-151468226D01*
X75652360Y-151148084D01*
X75648660Y-151142799D01*
X75565564Y-151012365D01*
X75431849Y-150802474D01*
X75428622Y-150796884D01*
X75242299Y-150438961D01*
X75239571Y-150433111D01*
X75175717Y-150278954D01*
X75147248Y-150210223D01*
X96999500Y-150210223D01*
X97033984Y-150427948D01*
X97033987Y-150427961D01*
X97102103Y-150637602D01*
X97102104Y-150637605D01*
X97102105Y-150637606D01*
X97202185Y-150834022D01*
X97331758Y-151012365D01*
X97487635Y-151168242D01*
X97665978Y-151297815D01*
X97862394Y-151397895D01*
X97862397Y-151397896D01*
X97862396Y-151397896D01*
X98072038Y-151466012D01*
X98072044Y-151466013D01*
X98072049Y-151466015D01*
X98180913Y-151483257D01*
X98289776Y-151500500D01*
X98289778Y-151500500D01*
X98510224Y-151500500D01*
X98597313Y-151486706D01*
X98727951Y-151466015D01*
X98727958Y-151466012D01*
X98727961Y-151466012D01*
X98823133Y-151435088D01*
X98937606Y-151397895D01*
X99134022Y-151297815D01*
X99312365Y-151168242D01*
X99468242Y-151012365D01*
X99597815Y-150834022D01*
X99697895Y-150637606D01*
X99763369Y-150436095D01*
X99766012Y-150427961D01*
X99766012Y-150427958D01*
X99766015Y-150427951D01*
X99771642Y-150392423D01*
X105979046Y-150392423D01*
X105979046Y-152509233D01*
X114522118Y-152509233D01*
X114522118Y-150392423D01*
X105979046Y-150392423D01*
X99771642Y-150392423D01*
X99800500Y-150210222D01*
X99800500Y-149989778D01*
X99799342Y-149982468D01*
X99766015Y-149772051D01*
X99766012Y-149772038D01*
X99717912Y-149624000D01*
X141168672Y-149624000D01*
X141184231Y-149772038D01*
X141187932Y-149807243D01*
X141244865Y-149982464D01*
X141244866Y-149982466D01*
X141244867Y-149982468D01*
X141336991Y-150142032D01*
X141398389Y-150210222D01*
X141460278Y-150278956D01*
X141609332Y-150387250D01*
X141609337Y-150387253D01*
X141700769Y-150427961D01*
X141777655Y-150462193D01*
X141957876Y-150500500D01*
X141957877Y-150500500D01*
X142142123Y-150500500D01*
X142142124Y-150500500D01*
X142322345Y-150462193D01*
X142490664Y-150387252D01*
X142639724Y-150278954D01*
X142763009Y-150142032D01*
X142855133Y-149982468D01*
X142912069Y-149807238D01*
X142931328Y-149624000D01*
X142912069Y-149440762D01*
X142855133Y-149265532D01*
X142763009Y-149105968D01*
X142639724Y-148969046D01*
X142639723Y-148969045D01*
X142639721Y-148969043D01*
X142490667Y-148860749D01*
X142490662Y-148860746D01*
X142322346Y-148785807D01*
X142322344Y-148785806D01*
X142180430Y-148755642D01*
X142142124Y-148747500D01*
X141957876Y-148747500D01*
X141926284Y-148754214D01*
X141777655Y-148785806D01*
X141777653Y-148785807D01*
X141609337Y-148860746D01*
X141609332Y-148860749D01*
X141460278Y-148969043D01*
X141336991Y-149105967D01*
X141336989Y-149105970D01*
X141244865Y-149265535D01*
X141187932Y-149440756D01*
X141187931Y-149440760D01*
X141187931Y-149440762D01*
X141168672Y-149624000D01*
X99717912Y-149624000D01*
X99697896Y-149562397D01*
X99697895Y-149562396D01*
X99697895Y-149562394D01*
X99597815Y-149365978D01*
X99468242Y-149187635D01*
X99312365Y-149031758D01*
X99208441Y-148956253D01*
X99134024Y-148902186D01*
X98937602Y-148802103D01*
X98937603Y-148802103D01*
X98727961Y-148733987D01*
X98727948Y-148733984D01*
X98510224Y-148699500D01*
X98510222Y-148699500D01*
X98289778Y-148699500D01*
X98289776Y-148699500D01*
X98072051Y-148733984D01*
X98072038Y-148733987D01*
X97862397Y-148802103D01*
X97665976Y-148902186D01*
X97665975Y-148902186D01*
X97487639Y-149031755D01*
X97487635Y-149031758D01*
X97331758Y-149187635D01*
X97331755Y-149187638D01*
X97331755Y-149187639D01*
X97202186Y-149365975D01*
X97202186Y-149365976D01*
X97102103Y-149562397D01*
X97033987Y-149772038D01*
X97033984Y-149772051D01*
X96999500Y-149989776D01*
X96999500Y-150210223D01*
X75147248Y-150210223D01*
X75085145Y-150060295D01*
X75082946Y-150054252D01*
X74961601Y-149669395D01*
X74959933Y-149663169D01*
X74951249Y-149624000D01*
X74872594Y-149269212D01*
X74871474Y-149262855D01*
X74861571Y-149187635D01*
X74818804Y-148862790D01*
X74818242Y-148856364D01*
X74815161Y-148785807D01*
X74800570Y-148451603D01*
X74800500Y-148448375D01*
X74800500Y-144710223D01*
X141299500Y-144710223D01*
X141333984Y-144927948D01*
X141333987Y-144927961D01*
X141402103Y-145137602D01*
X141402104Y-145137605D01*
X141402105Y-145137606D01*
X141502185Y-145334022D01*
X141631758Y-145512365D01*
X141787635Y-145668242D01*
X141965978Y-145797815D01*
X142162394Y-145897895D01*
X142162397Y-145897896D01*
X142162396Y-145897896D01*
X142372038Y-145966012D01*
X142372044Y-145966013D01*
X142372049Y-145966015D01*
X142480913Y-145983257D01*
X142589776Y-146000500D01*
X142589778Y-146000500D01*
X142810224Y-146000500D01*
X142897313Y-145986706D01*
X143027951Y-145966015D01*
X143027958Y-145966012D01*
X143027961Y-145966012D01*
X143123133Y-145935088D01*
X143237606Y-145897895D01*
X143434022Y-145797815D01*
X143612365Y-145668242D01*
X143768242Y-145512365D01*
X143897815Y-145334022D01*
X143997895Y-145137606D01*
X144066015Y-144927951D01*
X144100500Y-144710222D01*
X144100500Y-144489778D01*
X144066015Y-144272049D01*
X144066013Y-144272044D01*
X144066012Y-144272038D01*
X143997896Y-144062397D01*
X143997895Y-144062396D01*
X143997895Y-144062394D01*
X143897815Y-143865978D01*
X143768242Y-143687635D01*
X143612365Y-143531758D01*
X143508441Y-143456253D01*
X143434024Y-143402186D01*
X143237602Y-143302103D01*
X143237603Y-143302103D01*
X143027961Y-143233987D01*
X143027948Y-143233984D01*
X142810224Y-143199500D01*
X142810222Y-143199500D01*
X142589778Y-143199500D01*
X142589776Y-143199500D01*
X142372051Y-143233984D01*
X142372038Y-143233987D01*
X142162397Y-143302103D01*
X141965976Y-143402186D01*
X141965975Y-143402186D01*
X141787639Y-143531755D01*
X141787635Y-143531758D01*
X141631758Y-143687635D01*
X141631755Y-143687638D01*
X141631755Y-143687639D01*
X141502186Y-143865975D01*
X141502186Y-143865976D01*
X141402103Y-144062397D01*
X141333987Y-144272038D01*
X141333984Y-144272051D01*
X141299500Y-144489776D01*
X141299500Y-144710223D01*
X74800500Y-144710223D01*
X74800500Y-138530974D01*
X138799500Y-138530974D01*
X138827620Y-138690451D01*
X138849707Y-138751133D01*
X138883008Y-138842627D01*
X138963979Y-138982873D01*
X138963981Y-138982876D01*
X139030767Y-139062468D01*
X139068073Y-139106927D01*
X139192127Y-139211021D01*
X139332373Y-139291992D01*
X139484548Y-139347379D01*
X139644029Y-139375500D01*
X139644033Y-139375500D01*
X142555967Y-139375500D01*
X142555971Y-139375500D01*
X142715452Y-139347379D01*
X142867627Y-139291992D01*
X143007873Y-139211021D01*
X143131927Y-139106927D01*
X143236021Y-138982873D01*
X143316992Y-138842627D01*
X143372379Y-138690452D01*
X143400500Y-138530971D01*
X143400500Y-138450000D01*
X143400500Y-138402405D01*
X143400500Y-138369029D01*
X143372379Y-138209548D01*
X143316992Y-138057373D01*
X143236021Y-137917127D01*
X143131927Y-137793073D01*
X143080595Y-137750000D01*
X143007876Y-137688981D01*
X143007873Y-137688979D01*
X142867627Y-137608008D01*
X142848411Y-137601014D01*
X142715451Y-137552620D01*
X142555974Y-137524500D01*
X142555971Y-137524500D01*
X142514562Y-137524500D01*
X139772595Y-137524500D01*
X139725000Y-137524500D01*
X139644029Y-137524500D01*
X139644025Y-137524500D01*
X139484548Y-137552620D01*
X139332375Y-137608007D01*
X139192123Y-137688981D01*
X139068077Y-137793069D01*
X139068069Y-137793077D01*
X138963981Y-137917123D01*
X138883007Y-138057375D01*
X138827620Y-138209548D01*
X138799500Y-138369025D01*
X138799500Y-138530974D01*
X74800500Y-138530974D01*
X74800500Y-137876000D01*
X112094500Y-137876000D01*
X112099197Y-137919684D01*
X112110407Y-137971215D01*
X112112888Y-137981370D01*
X112112889Y-137981372D01*
X112155899Y-138062083D01*
X112155901Y-138062087D01*
X112185268Y-138095977D01*
X112201655Y-138114889D01*
X112219246Y-138132843D01*
X112299061Y-138177489D01*
X112299060Y-138177489D01*
X112366098Y-138197174D01*
X112366099Y-138197174D01*
X112366102Y-138197175D01*
X112424000Y-138205500D01*
X112424004Y-138205500D01*
X129376001Y-138205500D01*
X129380241Y-138205043D01*
X129419684Y-138200803D01*
X129471195Y-138189597D01*
X129474234Y-138188854D01*
X129481370Y-138187111D01*
X129481371Y-138187110D01*
X129481373Y-138187110D01*
X129562085Y-138144100D01*
X129614889Y-138098345D01*
X129632843Y-138080754D01*
X129677490Y-138000937D01*
X129697175Y-137933898D01*
X129705500Y-137876000D01*
X129705500Y-125100003D01*
X133844571Y-125100003D01*
X133864242Y-125312303D01*
X133864243Y-125312309D01*
X133922593Y-125517383D01*
X133922596Y-125517393D01*
X134017632Y-125708252D01*
X134017634Y-125708255D01*
X134146128Y-125878407D01*
X134303698Y-126022052D01*
X134484981Y-126134298D01*
X134683802Y-126211321D01*
X134893390Y-126250500D01*
X135106610Y-126250500D01*
X135316198Y-126211321D01*
X135515019Y-126134298D01*
X135696302Y-126022052D01*
X135853872Y-125878407D01*
X135982366Y-125708255D01*
X136077405Y-125517389D01*
X136135756Y-125312310D01*
X136155429Y-125100000D01*
X136135756Y-124887690D01*
X136077405Y-124682611D01*
X135982366Y-124491745D01*
X135853872Y-124321593D01*
X135696302Y-124177948D01*
X135515019Y-124065702D01*
X135316198Y-123988679D01*
X135224150Y-123971472D01*
X135106613Y-123949500D01*
X135106610Y-123949500D01*
X134893390Y-123949500D01*
X134893386Y-123949500D01*
X134736670Y-123978796D01*
X134683802Y-123988679D01*
X134683800Y-123988679D01*
X134683798Y-123988680D01*
X134484986Y-124065700D01*
X134484981Y-124065702D01*
X134484976Y-124065704D01*
X134484976Y-124065705D01*
X134303700Y-124177946D01*
X134146130Y-124321590D01*
X134017636Y-124491741D01*
X134017632Y-124491747D01*
X133922596Y-124682606D01*
X133922593Y-124682616D01*
X133864243Y-124887690D01*
X133864242Y-124887696D01*
X133844571Y-125099996D01*
X133844571Y-125100003D01*
X129705500Y-125100003D01*
X129705500Y-121030974D01*
X138799500Y-121030974D01*
X138827620Y-121190451D01*
X138854912Y-121265434D01*
X138883008Y-121342627D01*
X138897375Y-121367511D01*
X138963981Y-121482876D01*
X139017454Y-121546602D01*
X139068073Y-121606927D01*
X139119405Y-121650000D01*
X139151166Y-121676651D01*
X139192127Y-121711021D01*
X139332373Y-121791992D01*
X139484548Y-121847379D01*
X139644029Y-121875500D01*
X139644033Y-121875500D01*
X142555967Y-121875500D01*
X142555971Y-121875500D01*
X142715452Y-121847379D01*
X142867627Y-121791992D01*
X143007873Y-121711021D01*
X143131927Y-121606927D01*
X143236021Y-121482873D01*
X143316992Y-121342627D01*
X143372379Y-121190452D01*
X143400500Y-121030971D01*
X143400500Y-120950000D01*
X143400500Y-120902405D01*
X143400500Y-120869029D01*
X143372379Y-120709548D01*
X143316992Y-120557373D01*
X143236021Y-120417127D01*
X143131927Y-120293073D01*
X143080595Y-120250000D01*
X143007876Y-120188981D01*
X143007873Y-120188979D01*
X142867627Y-120108008D01*
X142848411Y-120101014D01*
X142715451Y-120052620D01*
X142555974Y-120024500D01*
X142555971Y-120024500D01*
X142514562Y-120024500D01*
X139772595Y-120024500D01*
X139725000Y-120024500D01*
X139644029Y-120024500D01*
X139644025Y-120024500D01*
X139484548Y-120052620D01*
X139332375Y-120108007D01*
X139192123Y-120188981D01*
X139068077Y-120293069D01*
X139068069Y-120293077D01*
X138963981Y-120417123D01*
X138883007Y-120557375D01*
X138827620Y-120709548D01*
X138799500Y-120869025D01*
X138799500Y-121030974D01*
X129705500Y-121030974D01*
X129705500Y-113873223D01*
X129704602Y-113864747D01*
X129700942Y-113830185D01*
X129700940Y-113830179D01*
X129700940Y-113830172D01*
X129690056Y-113779371D01*
X129687767Y-113769809D01*
X129645266Y-113688828D01*
X129599844Y-113635737D01*
X129582365Y-113617672D01*
X129582364Y-113617671D01*
X129582363Y-113617670D01*
X129582360Y-113617668D01*
X129502833Y-113572524D01*
X129502828Y-113572522D01*
X129464656Y-113561052D01*
X129435916Y-113552417D01*
X129435913Y-113552416D01*
X129435902Y-113552414D01*
X129378076Y-113543729D01*
X129378080Y-113543729D01*
X124976926Y-113516048D01*
X121676068Y-113495288D01*
X121676067Y-113495288D01*
X121676062Y-113495288D01*
X121676052Y-113495289D01*
X121637063Y-113499295D01*
X121582796Y-113483083D01*
X121555888Y-113433246D01*
X121555500Y-113425683D01*
X121555500Y-112430506D01*
X121555500Y-112430501D01*
X121551186Y-112388613D01*
X121540882Y-112339123D01*
X121538942Y-112330697D01*
X121497380Y-112249230D01*
X121452575Y-112195618D01*
X121452574Y-112195617D01*
X121429413Y-112174813D01*
X121404969Y-112123722D01*
X121404863Y-112119761D01*
X121404863Y-111477599D01*
X121404357Y-111472902D01*
X121400166Y-111433916D01*
X121388960Y-111382405D01*
X121388955Y-111382384D01*
X121386474Y-111372229D01*
X121386473Y-111372227D01*
X121343463Y-111291515D01*
X121343461Y-111291513D01*
X121343461Y-111291512D01*
X121297711Y-111238715D01*
X121297708Y-111238711D01*
X121280117Y-111220757D01*
X121280114Y-111220755D01*
X121200300Y-111176110D01*
X121200302Y-111176110D01*
X121133264Y-111156425D01*
X121133259Y-111156424D01*
X121075365Y-111148100D01*
X121075363Y-111148100D01*
X120479500Y-111148100D01*
X120427174Y-111126426D01*
X120405500Y-111074100D01*
X120405500Y-110978362D01*
X120404957Y-110973313D01*
X120400803Y-110934679D01*
X120389597Y-110883168D01*
X120389592Y-110883147D01*
X120387111Y-110872992D01*
X120387110Y-110872990D01*
X120361803Y-110825499D01*
X120344100Y-110792278D01*
X120344098Y-110792276D01*
X120344098Y-110792275D01*
X120298348Y-110739478D01*
X120298345Y-110739474D01*
X120280754Y-110721520D01*
X120280751Y-110721518D01*
X120200937Y-110676873D01*
X120200939Y-110676873D01*
X120133901Y-110657188D01*
X120133896Y-110657187D01*
X120076002Y-110648863D01*
X120076000Y-110648863D01*
X119407870Y-110648863D01*
X119377115Y-110642169D01*
X119358166Y-110633510D01*
X119291021Y-110614197D01*
X119233079Y-110606192D01*
X119233078Y-110606192D01*
X112422167Y-110643821D01*
X112379074Y-110648636D01*
X112328207Y-110659850D01*
X112318629Y-110662204D01*
X112318627Y-110662205D01*
X112237916Y-110705215D01*
X112237912Y-110705217D01*
X112185115Y-110750967D01*
X112167155Y-110768564D01*
X112122510Y-110848377D01*
X112102825Y-110915414D01*
X112102824Y-110915419D01*
X112094500Y-110973313D01*
X112094500Y-120869833D01*
X112099314Y-120914048D01*
X112110800Y-120966169D01*
X112113463Y-120976874D01*
X112113465Y-120976878D01*
X112158882Y-121061013D01*
X112156757Y-121062160D01*
X112167225Y-121110180D01*
X112158978Y-121133197D01*
X112122511Y-121198389D01*
X112122510Y-121198391D01*
X112102825Y-121265429D01*
X112102824Y-121265434D01*
X112094500Y-121323328D01*
X112094500Y-137876000D01*
X74800500Y-137876000D01*
X74800500Y-129214820D01*
X108849500Y-129214820D01*
X108858233Y-129258722D01*
X108891496Y-129308504D01*
X108941278Y-129341767D01*
X108985180Y-129350500D01*
X108985181Y-129350500D01*
X111414819Y-129350500D01*
X111414820Y-129350500D01*
X111458722Y-129341767D01*
X111508504Y-129308504D01*
X111541767Y-129258722D01*
X111550500Y-129214820D01*
X111550500Y-126585180D01*
X111541767Y-126541278D01*
X111508504Y-126491496D01*
X111458722Y-126458233D01*
X111414820Y-126449500D01*
X108985180Y-126449500D01*
X108963229Y-126453866D01*
X108941277Y-126458233D01*
X108891496Y-126491495D01*
X108891495Y-126491496D01*
X108858233Y-126541277D01*
X108858233Y-126541278D01*
X108849500Y-126585180D01*
X108849500Y-129214820D01*
X74800500Y-129214820D01*
X74800500Y-121775359D01*
X89894500Y-121775359D01*
X89899311Y-121819550D01*
X89899314Y-121819569D01*
X89910788Y-121871655D01*
X89913447Y-121882349D01*
X89913448Y-121882353D01*
X89956882Y-121962839D01*
X90002906Y-122015393D01*
X90002931Y-122015419D01*
X90020600Y-122033263D01*
X90020602Y-122033265D01*
X90100654Y-122077490D01*
X90100656Y-122077490D01*
X90100659Y-122077492D01*
X90155874Y-122093388D01*
X90167797Y-122096821D01*
X90193449Y-122100371D01*
X90225724Y-122104839D01*
X90225731Y-122104839D01*
X90225735Y-122104840D01*
X90225738Y-122104839D01*
X90225739Y-122104840D01*
X100941163Y-122048443D01*
X108977735Y-122006146D01*
X109020864Y-122001337D01*
X109071722Y-121990133D01*
X109081373Y-121987761D01*
X109081375Y-121987760D01*
X109162080Y-121944754D01*
X109162081Y-121944752D01*
X109162085Y-121944751D01*
X109214889Y-121898996D01*
X109232843Y-121881405D01*
X109277490Y-121801588D01*
X109297175Y-121734549D01*
X109305500Y-121676651D01*
X109305500Y-108508264D01*
X112099500Y-108508264D01*
X112109427Y-108576393D01*
X112109427Y-108576394D01*
X112160801Y-108681482D01*
X112160802Y-108681483D01*
X112243517Y-108764198D01*
X112348607Y-108815573D01*
X112416740Y-108825500D01*
X112416746Y-108825500D01*
X112877367Y-108825500D01*
X112929693Y-108847174D01*
X112951367Y-108899500D01*
X112950614Y-108910024D01*
X112946771Y-108936755D01*
X112944867Y-108950000D01*
X112963302Y-109078223D01*
X112963302Y-109078224D01*
X112963303Y-109078226D01*
X113017118Y-109196063D01*
X113101951Y-109293967D01*
X113210931Y-109364004D01*
X113335228Y-109400500D01*
X113464772Y-109400500D01*
X113589069Y-109364004D01*
X113698049Y-109293967D01*
X113782882Y-109196063D01*
X113836697Y-109078226D01*
X113855133Y-108950000D01*
X113843401Y-108868405D01*
X113857408Y-108813529D01*
X113906116Y-108784628D01*
X113949147Y-108791393D01*
X113998607Y-108815573D01*
X114066740Y-108825500D01*
X114102962Y-108825500D01*
X114117399Y-108826922D01*
X114146565Y-108832723D01*
X114235931Y-108850500D01*
X114235933Y-108850500D01*
X115689067Y-108850500D01*
X115689069Y-108850500D01*
X115778434Y-108832723D01*
X115807601Y-108826922D01*
X115822038Y-108825500D01*
X115830232Y-108825500D01*
X115882558Y-108847174D01*
X116195941Y-109160557D01*
X116200298Y-109162361D01*
X116200303Y-109162366D01*
X116200304Y-109162364D01*
X116297200Y-109202500D01*
X117747258Y-109202500D01*
X117799584Y-109224174D01*
X117821258Y-109276500D01*
X117813740Y-109308999D01*
X117810134Y-109316374D01*
X117799500Y-109389359D01*
X117799500Y-109960640D01*
X117810134Y-110033625D01*
X117810134Y-110033626D01*
X117865173Y-110146210D01*
X117865174Y-110146211D01*
X117953789Y-110234826D01*
X118066375Y-110289866D01*
X118139364Y-110300500D01*
X118329178Y-110300500D01*
X118343614Y-110301922D01*
X118345198Y-110302237D01*
X118345200Y-110302237D01*
X118454800Y-110302237D01*
X119365037Y-110302237D01*
X119379472Y-110303659D01*
X119382378Y-110304237D01*
X119382380Y-110304237D01*
X120224819Y-110304237D01*
X120224820Y-110304237D01*
X120268722Y-110295504D01*
X120318504Y-110262241D01*
X120351767Y-110212459D01*
X120360500Y-110168557D01*
X120360500Y-109884917D01*
X120351767Y-109841015D01*
X120336245Y-109817785D01*
X120325196Y-109762239D01*
X120336246Y-109735562D01*
X120351767Y-109712333D01*
X120360500Y-109668431D01*
X120360500Y-109434500D01*
X120382174Y-109382174D01*
X120434500Y-109360500D01*
X120668430Y-109360500D01*
X120668431Y-109360500D01*
X120712333Y-109351767D01*
X120762115Y-109318504D01*
X120795378Y-109268722D01*
X120804111Y-109224820D01*
X120804111Y-109224819D01*
X121249363Y-109224819D01*
X121258096Y-109268722D01*
X121289935Y-109316374D01*
X121291359Y-109318504D01*
X121341141Y-109351767D01*
X121385043Y-109360500D01*
X121385044Y-109360500D01*
X121668682Y-109360500D01*
X121668683Y-109360500D01*
X121712585Y-109351767D01*
X121735814Y-109336245D01*
X121791361Y-109325196D01*
X121818036Y-109336244D01*
X121841267Y-109351767D01*
X121885169Y-109360500D01*
X121885170Y-109360500D01*
X122119100Y-109360500D01*
X122171426Y-109382174D01*
X122193100Y-109434500D01*
X122193100Y-109668430D01*
X122201833Y-109712333D01*
X122217354Y-109735562D01*
X122228403Y-109791111D01*
X122217354Y-109817786D01*
X122201833Y-109841014D01*
X122193100Y-109884917D01*
X122193100Y-110168556D01*
X122201833Y-110212459D01*
X122217354Y-110235688D01*
X122228403Y-110291237D01*
X122217354Y-110317912D01*
X122201833Y-110341140D01*
X122193100Y-110385043D01*
X122193100Y-110668682D01*
X122201833Y-110712585D01*
X122219799Y-110739474D01*
X122235096Y-110762367D01*
X122284878Y-110795630D01*
X122328780Y-110804363D01*
X122328781Y-110804363D01*
X123171222Y-110804363D01*
X123174128Y-110803785D01*
X123188563Y-110802363D01*
X123748679Y-110802363D01*
X123781179Y-110809882D01*
X123791372Y-110814865D01*
X123791373Y-110814865D01*
X123791375Y-110814866D01*
X123864364Y-110825500D01*
X123864370Y-110825500D01*
X124385630Y-110825500D01*
X124385636Y-110825500D01*
X124458625Y-110814866D01*
X124571211Y-110759826D01*
X124659826Y-110671211D01*
X124714866Y-110558625D01*
X124725500Y-110485636D01*
X124725500Y-109914364D01*
X124714866Y-109841375D01*
X124659826Y-109728789D01*
X124571211Y-109640174D01*
X124571210Y-109640173D01*
X124458626Y-109585134D01*
X124385640Y-109574500D01*
X124385636Y-109574500D01*
X124162953Y-109574500D01*
X124110627Y-109552826D01*
X124088953Y-109500500D01*
X124110627Y-109448174D01*
X124211627Y-109347174D01*
X124263953Y-109325500D01*
X124385630Y-109325500D01*
X124385636Y-109325500D01*
X124458625Y-109314866D01*
X124571211Y-109259826D01*
X124659826Y-109171211D01*
X124714866Y-109058625D01*
X124725500Y-108985636D01*
X124725500Y-108650000D01*
X141518672Y-108650000D01*
X141537267Y-108826922D01*
X141537932Y-108833243D01*
X141594865Y-109008464D01*
X141594866Y-109008466D01*
X141594867Y-109008468D01*
X141623825Y-109058625D01*
X141683719Y-109162366D01*
X141686991Y-109168032D01*
X141800381Y-109293965D01*
X141810278Y-109304956D01*
X141959332Y-109413250D01*
X141959337Y-109413253D01*
X142092792Y-109472671D01*
X142127655Y-109488193D01*
X142307876Y-109526500D01*
X142307877Y-109526500D01*
X142492123Y-109526500D01*
X142492124Y-109526500D01*
X142672345Y-109488193D01*
X142840664Y-109413252D01*
X142989724Y-109304954D01*
X143113009Y-109168032D01*
X143205133Y-109008468D01*
X143262069Y-108833238D01*
X143281328Y-108650000D01*
X143262069Y-108466762D01*
X143205133Y-108291532D01*
X143113009Y-108131968D01*
X142989724Y-107995046D01*
X142989723Y-107995045D01*
X142989721Y-107995043D01*
X142840667Y-107886749D01*
X142840662Y-107886746D01*
X142672346Y-107811807D01*
X142672344Y-107811806D01*
X142530430Y-107781642D01*
X142492124Y-107773500D01*
X142307876Y-107773500D01*
X142276284Y-107780214D01*
X142127655Y-107811806D01*
X142127653Y-107811807D01*
X141959337Y-107886746D01*
X141959332Y-107886749D01*
X141810278Y-107995043D01*
X141686991Y-108131967D01*
X141686989Y-108131970D01*
X141594865Y-108291535D01*
X141537932Y-108466756D01*
X141537931Y-108466760D01*
X141537931Y-108466762D01*
X141518672Y-108650000D01*
X124725500Y-108650000D01*
X124725500Y-108414364D01*
X124714866Y-108341375D01*
X124659826Y-108228789D01*
X124571211Y-108140174D01*
X124571210Y-108140173D01*
X124458626Y-108085134D01*
X124385640Y-108074500D01*
X124385636Y-108074500D01*
X124096544Y-108074500D01*
X124044218Y-108052826D01*
X123622174Y-107630781D01*
X123600500Y-107578455D01*
X123600500Y-106547272D01*
X123587878Y-106500164D01*
X123587878Y-106500163D01*
X123573208Y-106445415D01*
X123573206Y-106445410D01*
X123520482Y-106354090D01*
X123520481Y-106354089D01*
X123520480Y-106354087D01*
X123044901Y-105878508D01*
X123029915Y-105856925D01*
X122982882Y-105753937D01*
X122898049Y-105656033D01*
X122798208Y-105591869D01*
X122789068Y-105585995D01*
X122664772Y-105549500D01*
X122535228Y-105549500D01*
X122418348Y-105583818D01*
X122362035Y-105577763D01*
X122326497Y-105533663D01*
X122323500Y-105512815D01*
X122323500Y-105146767D01*
X122345174Y-105094441D01*
X122671172Y-104768443D01*
X123070936Y-104368678D01*
X123116005Y-104347362D01*
X123231132Y-104336024D01*
X123419727Y-104278814D01*
X123593538Y-104185910D01*
X123745883Y-104060883D01*
X123870910Y-103908538D01*
X123963814Y-103734727D01*
X124021024Y-103546132D01*
X124040341Y-103350000D01*
X124021024Y-103153868D01*
X123963814Y-102965273D01*
X123963812Y-102965270D01*
X123963812Y-102965268D01*
X123912048Y-102868426D01*
X123870910Y-102791462D01*
X123745883Y-102639117D01*
X123593538Y-102514090D01*
X123563086Y-102497813D01*
X123419731Y-102421187D01*
X123231133Y-102363976D01*
X123035000Y-102344659D01*
X122838866Y-102363976D01*
X122650268Y-102421187D01*
X122476463Y-102514089D01*
X122324117Y-102639117D01*
X122199089Y-102791463D01*
X122106187Y-102965268D01*
X122048976Y-103153866D01*
X122029659Y-103350000D01*
X122048976Y-103546133D01*
X122106187Y-103734731D01*
X122193776Y-103898597D01*
X122199090Y-103908538D01*
X122324117Y-104060883D01*
X122412257Y-104133218D01*
X122438955Y-104183167D01*
X122422513Y-104237366D01*
X122417637Y-104242746D01*
X121891942Y-104768443D01*
X121814442Y-104845943D01*
X121772500Y-104947200D01*
X121772500Y-106257233D01*
X121750826Y-106309559D01*
X121293305Y-106767080D01*
X121251363Y-106868337D01*
X121251363Y-108365038D01*
X121249941Y-108379473D01*
X121249363Y-108382379D01*
X121249363Y-109224819D01*
X120804111Y-109224819D01*
X120804111Y-108382380D01*
X120803533Y-108379473D01*
X120802111Y-108365038D01*
X120802111Y-107671811D01*
X120801921Y-107670856D01*
X120800500Y-107656423D01*
X120800500Y-105614370D01*
X120800500Y-105614364D01*
X120789866Y-105541375D01*
X120734826Y-105428789D01*
X120646211Y-105340174D01*
X120646210Y-105340173D01*
X120533626Y-105285134D01*
X120460640Y-105274500D01*
X120460636Y-105274500D01*
X119939364Y-105274500D01*
X119939359Y-105274500D01*
X119866374Y-105285134D01*
X119866373Y-105285134D01*
X119753789Y-105340173D01*
X119665173Y-105428789D01*
X119610134Y-105541373D01*
X119610134Y-105541374D01*
X119599500Y-105614359D01*
X119599500Y-107685640D01*
X119610134Y-107758625D01*
X119610134Y-107758626D01*
X119665173Y-107871210D01*
X119665174Y-107871211D01*
X119753789Y-107959826D01*
X119866375Y-108014866D01*
X119939364Y-108025500D01*
X120177111Y-108025500D01*
X120229437Y-108047174D01*
X120251111Y-108099500D01*
X120251111Y-108365038D01*
X120249689Y-108379473D01*
X120249111Y-108382379D01*
X120249111Y-109175111D01*
X120227437Y-109227437D01*
X120175111Y-109249111D01*
X119946367Y-109249111D01*
X119894041Y-109227437D01*
X119360046Y-108693442D01*
X119331173Y-108681483D01*
X119331171Y-108681482D01*
X119258789Y-108651500D01*
X119258788Y-108651500D01*
X116496768Y-108651500D01*
X116444442Y-108629826D01*
X116270814Y-108456198D01*
X116249140Y-108403872D01*
X116250562Y-108389435D01*
X116251966Y-108382380D01*
X116275500Y-108264069D01*
X116275500Y-108135931D01*
X116250501Y-108010256D01*
X116201465Y-107891873D01*
X116177570Y-107856111D01*
X116165873Y-107825668D01*
X116165573Y-107823607D01*
X116114198Y-107718517D01*
X116031483Y-107635802D01*
X116031482Y-107635801D01*
X115926394Y-107584427D01*
X115858264Y-107574500D01*
X115858260Y-107574500D01*
X115822038Y-107574500D01*
X115807601Y-107573078D01*
X115778434Y-107567276D01*
X115689069Y-107549500D01*
X114235931Y-107549500D01*
X114146565Y-107567276D01*
X114117399Y-107573078D01*
X114102962Y-107574500D01*
X114066735Y-107574500D01*
X113998606Y-107584427D01*
X113998605Y-107584427D01*
X113893517Y-107635801D01*
X113810801Y-107718517D01*
X113759427Y-107823604D01*
X113759425Y-107823611D01*
X113759125Y-107825674D01*
X113747428Y-107856112D01*
X113723536Y-107891869D01*
X113674498Y-108010257D01*
X113674497Y-108010260D01*
X113659604Y-108085134D01*
X113649500Y-108135931D01*
X113649500Y-108264069D01*
X113656586Y-108299696D01*
X113674497Y-108389739D01*
X113674499Y-108389746D01*
X113697606Y-108445530D01*
X113697606Y-108502167D01*
X113657557Y-108542215D01*
X113600920Y-108542215D01*
X113589234Y-108536102D01*
X113589069Y-108535996D01*
X113589068Y-108535995D01*
X113589067Y-108535995D01*
X113464772Y-108499500D01*
X113335228Y-108499500D01*
X113334413Y-108499500D01*
X113282087Y-108477826D01*
X113222174Y-108417913D01*
X113200500Y-108365587D01*
X113200500Y-107891746D01*
X113200500Y-107891740D01*
X113190573Y-107823607D01*
X113139198Y-107718517D01*
X113056483Y-107635802D01*
X113056482Y-107635801D01*
X112951394Y-107584427D01*
X112883264Y-107574500D01*
X112883260Y-107574500D01*
X112416740Y-107574500D01*
X112416735Y-107574500D01*
X112348606Y-107584427D01*
X112348605Y-107584427D01*
X112243517Y-107635801D01*
X112160801Y-107718517D01*
X112109427Y-107823605D01*
X112109427Y-107823606D01*
X112099500Y-107891735D01*
X112099500Y-108508264D01*
X109305500Y-108508264D01*
X109305500Y-105964067D01*
X116624500Y-105964067D01*
X116649497Y-106089739D01*
X116649498Y-106089742D01*
X116698535Y-106208127D01*
X116722428Y-106243886D01*
X116734125Y-106274325D01*
X116734426Y-106276392D01*
X116785801Y-106381482D01*
X116785802Y-106381483D01*
X116868517Y-106464198D01*
X116973607Y-106515573D01*
X117041740Y-106525500D01*
X117077962Y-106525500D01*
X117092399Y-106526922D01*
X117121565Y-106532723D01*
X117210931Y-106550500D01*
X117210933Y-106550500D01*
X118714067Y-106550500D01*
X118714069Y-106550500D01*
X118803434Y-106532723D01*
X118832601Y-106526922D01*
X118847038Y-106525500D01*
X118910630Y-106525500D01*
X118910636Y-106525500D01*
X118983625Y-106514866D01*
X119096211Y-106459826D01*
X119184826Y-106371211D01*
X119239866Y-106258625D01*
X119250500Y-106185636D01*
X119250500Y-106164820D01*
X119256133Y-106136501D01*
X119257897Y-106132243D01*
X119275501Y-106089744D01*
X119300500Y-105964069D01*
X119300500Y-105835931D01*
X119275501Y-105710256D01*
X119256133Y-105663497D01*
X119250500Y-105635179D01*
X119250500Y-105614370D01*
X119250500Y-105614364D01*
X119239866Y-105541375D01*
X119184826Y-105428789D01*
X119096211Y-105340174D01*
X119096210Y-105340173D01*
X118983626Y-105285134D01*
X118910640Y-105274500D01*
X118910636Y-105274500D01*
X118847038Y-105274500D01*
X118832601Y-105273078D01*
X118803434Y-105267276D01*
X118714069Y-105249500D01*
X117210931Y-105249500D01*
X117121565Y-105267276D01*
X117092399Y-105273078D01*
X117077962Y-105274500D01*
X117041735Y-105274500D01*
X116973606Y-105284427D01*
X116973605Y-105284427D01*
X116868517Y-105335801D01*
X116785801Y-105418517D01*
X116734427Y-105523604D01*
X116734425Y-105523611D01*
X116734125Y-105525674D01*
X116722428Y-105556112D01*
X116698536Y-105591869D01*
X116649498Y-105710257D01*
X116649497Y-105710260D01*
X116624500Y-105835932D01*
X116624500Y-105964067D01*
X109305500Y-105964067D01*
X109305500Y-103350000D01*
X119489659Y-103350000D01*
X119508976Y-103546133D01*
X119566187Y-103734731D01*
X119653776Y-103898597D01*
X119659090Y-103908538D01*
X119784117Y-104060883D01*
X119936462Y-104185910D01*
X119990547Y-104214819D01*
X120110268Y-104278812D01*
X120110270Y-104278812D01*
X120110273Y-104278814D01*
X120298868Y-104336024D01*
X120495000Y-104355341D01*
X120691132Y-104336024D01*
X120879727Y-104278814D01*
X121053538Y-104185910D01*
X121205883Y-104060883D01*
X121330910Y-103908538D01*
X121423814Y-103734727D01*
X121481024Y-103546132D01*
X121500341Y-103350000D01*
X121481024Y-103153868D01*
X121423814Y-102965273D01*
X121423812Y-102965270D01*
X121423812Y-102965268D01*
X121372048Y-102868426D01*
X121330910Y-102791462D01*
X121205883Y-102639117D01*
X121053538Y-102514090D01*
X121023086Y-102497813D01*
X120879731Y-102421187D01*
X120691133Y-102363976D01*
X120495000Y-102344659D01*
X120298866Y-102363976D01*
X120110268Y-102421187D01*
X119936463Y-102514089D01*
X119784117Y-102639117D01*
X119659089Y-102791463D01*
X119566187Y-102965268D01*
X119508976Y-103153866D01*
X119489659Y-103350000D01*
X109305500Y-103350000D01*
X109305500Y-101108264D01*
X124524500Y-101108264D01*
X124534427Y-101176393D01*
X124534427Y-101176394D01*
X124585801Y-101281482D01*
X124602826Y-101298507D01*
X124624500Y-101350833D01*
X124624500Y-102357070D01*
X124612029Y-102398182D01*
X124583233Y-102441278D01*
X124574500Y-102485180D01*
X124574500Y-104214819D01*
X124583233Y-104258722D01*
X124596656Y-104278812D01*
X124616496Y-104308504D01*
X124666278Y-104341767D01*
X124710180Y-104350500D01*
X124710181Y-104350500D01*
X126439819Y-104350500D01*
X126439820Y-104350500D01*
X126483722Y-104341767D01*
X126533504Y-104308504D01*
X126566767Y-104258722D01*
X126575500Y-104214820D01*
X126575500Y-102485180D01*
X126566767Y-102441278D01*
X126533504Y-102391496D01*
X126483722Y-102358233D01*
X126439820Y-102349500D01*
X126439819Y-102349500D01*
X125599500Y-102349500D01*
X125547174Y-102327826D01*
X125525500Y-102275500D01*
X125525500Y-101410223D01*
X134649500Y-101410223D01*
X134683984Y-101627948D01*
X134683987Y-101627961D01*
X134752103Y-101837602D01*
X134752104Y-101837605D01*
X134752105Y-101837606D01*
X134852185Y-102034022D01*
X134981758Y-102212365D01*
X135137635Y-102368242D01*
X135315978Y-102497815D01*
X135512394Y-102597895D01*
X135512397Y-102597896D01*
X135512396Y-102597896D01*
X135722038Y-102666012D01*
X135722044Y-102666013D01*
X135722049Y-102666015D01*
X135830913Y-102683257D01*
X135939776Y-102700500D01*
X135939778Y-102700500D01*
X136160224Y-102700500D01*
X136247313Y-102686706D01*
X136377951Y-102666015D01*
X136377958Y-102666012D01*
X136377961Y-102666012D01*
X136473133Y-102635088D01*
X136587606Y-102597895D01*
X136784022Y-102497815D01*
X136962365Y-102368242D01*
X137118242Y-102212365D01*
X137247815Y-102034022D01*
X137347895Y-101837606D01*
X137416015Y-101627951D01*
X137450500Y-101410222D01*
X137450500Y-101189778D01*
X137416015Y-100972049D01*
X137416013Y-100972044D01*
X137416012Y-100972038D01*
X137347896Y-100762397D01*
X137347895Y-100762396D01*
X137347895Y-100762394D01*
X137247815Y-100565978D01*
X137118242Y-100387635D01*
X136962365Y-100231758D01*
X136858441Y-100156253D01*
X136784024Y-100102186D01*
X136587602Y-100002103D01*
X136587603Y-100002103D01*
X136377961Y-99933987D01*
X136377948Y-99933984D01*
X136160224Y-99899500D01*
X136160222Y-99899500D01*
X135939778Y-99899500D01*
X135939776Y-99899500D01*
X135722051Y-99933984D01*
X135722038Y-99933987D01*
X135512397Y-100002103D01*
X135315976Y-100102186D01*
X135315975Y-100102186D01*
X135137639Y-100231755D01*
X135137635Y-100231758D01*
X134981758Y-100387635D01*
X134981755Y-100387638D01*
X134981755Y-100387639D01*
X134852186Y-100565975D01*
X134852186Y-100565976D01*
X134752103Y-100762397D01*
X134683987Y-100972038D01*
X134683984Y-100972051D01*
X134649500Y-101189776D01*
X134649500Y-101410223D01*
X125525500Y-101410223D01*
X125525500Y-101350833D01*
X125547174Y-101298507D01*
X125564198Y-101281483D01*
X125615573Y-101176393D01*
X125625500Y-101108260D01*
X125625500Y-100491740D01*
X125615573Y-100423607D01*
X125564198Y-100318517D01*
X125481483Y-100235802D01*
X125481482Y-100235801D01*
X125376394Y-100184427D01*
X125308264Y-100174500D01*
X125308260Y-100174500D01*
X124841740Y-100174500D01*
X124841735Y-100174500D01*
X124773606Y-100184427D01*
X124773605Y-100184427D01*
X124668517Y-100235801D01*
X124585801Y-100318517D01*
X124534427Y-100423605D01*
X124534427Y-100423606D01*
X124524500Y-100491735D01*
X124524500Y-101108264D01*
X109305500Y-101108264D01*
X109305500Y-93874000D01*
X109300803Y-93830316D01*
X109289597Y-93778805D01*
X109289592Y-93778784D01*
X109287111Y-93768629D01*
X109287110Y-93768627D01*
X109250806Y-93700500D01*
X109244100Y-93687915D01*
X109244098Y-93687913D01*
X109244098Y-93687912D01*
X109198348Y-93635115D01*
X109198345Y-93635111D01*
X109180754Y-93617157D01*
X109180751Y-93617155D01*
X109100937Y-93572510D01*
X109100939Y-93572510D01*
X109033901Y-93552825D01*
X109033896Y-93552824D01*
X108976002Y-93544500D01*
X108976000Y-93544500D01*
X102729371Y-93544500D01*
X102677045Y-93522826D01*
X102655371Y-93470534D01*
X102655200Y-93102000D01*
X109819196Y-93102000D01*
X109840280Y-93235126D01*
X109901471Y-93355219D01*
X109901472Y-93355220D01*
X109996780Y-93450528D01*
X110116873Y-93511718D01*
X110116873Y-93511719D01*
X110131844Y-93514090D01*
X110250000Y-93532804D01*
X110383126Y-93511719D01*
X110503220Y-93450528D01*
X110598528Y-93355220D01*
X110659719Y-93235126D01*
X110680804Y-93102000D01*
X110659719Y-92968874D01*
X110659719Y-92968873D01*
X110598528Y-92848780D01*
X110522174Y-92772426D01*
X110500500Y-92720100D01*
X110500500Y-91866561D01*
X110500499Y-91866551D01*
X110500499Y-91631807D01*
X110490377Y-91580915D01*
X110451808Y-91523192D01*
X110451807Y-91523191D01*
X110394086Y-91484623D01*
X110348211Y-91475499D01*
X110343189Y-91474500D01*
X110343188Y-91474500D01*
X110156807Y-91474500D01*
X110105915Y-91484622D01*
X110048192Y-91523191D01*
X110048191Y-91523192D01*
X110009623Y-91580913D01*
X109999500Y-91631811D01*
X109999500Y-92720100D01*
X109977826Y-92772426D01*
X109901472Y-92848779D01*
X109901471Y-92848780D01*
X109840281Y-92968873D01*
X109840280Y-92968873D01*
X109819196Y-93102000D01*
X102655200Y-93102000D01*
X102654789Y-92218192D01*
X107599500Y-92218192D01*
X107609622Y-92269084D01*
X107612643Y-92273606D01*
X107648192Y-92326808D01*
X107705913Y-92365376D01*
X107756811Y-92375500D01*
X107943188Y-92375499D01*
X107943192Y-92375499D01*
X107994084Y-92365377D01*
X107994084Y-92365376D01*
X107994087Y-92365376D01*
X108008888Y-92355485D01*
X108064436Y-92344437D01*
X108091110Y-92355485D01*
X108105913Y-92365376D01*
X108156811Y-92375500D01*
X108343188Y-92375499D01*
X108343192Y-92375499D01*
X108394084Y-92365377D01*
X108394084Y-92365376D01*
X108394087Y-92365376D01*
X108408888Y-92355485D01*
X108464436Y-92344437D01*
X108491110Y-92355485D01*
X108505913Y-92365376D01*
X108556811Y-92375500D01*
X108743188Y-92375499D01*
X108743192Y-92375499D01*
X108794084Y-92365377D01*
X108794084Y-92365376D01*
X108794087Y-92365376D01*
X108808888Y-92355485D01*
X108864436Y-92344437D01*
X108891110Y-92355485D01*
X108905913Y-92365376D01*
X108956811Y-92375500D01*
X109143188Y-92375499D01*
X109143192Y-92375499D01*
X109194084Y-92365377D01*
X109194084Y-92365376D01*
X109194087Y-92365376D01*
X109251808Y-92326808D01*
X109290376Y-92269087D01*
X109300500Y-92218189D01*
X109300499Y-91631812D01*
X109300499Y-91631811D01*
X109300499Y-91631807D01*
X109290377Y-91580915D01*
X109251808Y-91523192D01*
X109251807Y-91523191D01*
X109194086Y-91484623D01*
X109148211Y-91475499D01*
X109143189Y-91474500D01*
X109143188Y-91474500D01*
X108956807Y-91474500D01*
X108905915Y-91484622D01*
X108891109Y-91494515D01*
X108835560Y-91505561D01*
X108808890Y-91494514D01*
X108794087Y-91484624D01*
X108794088Y-91484624D01*
X108748211Y-91475499D01*
X108743189Y-91474500D01*
X108743188Y-91474500D01*
X108556807Y-91474500D01*
X108505915Y-91484622D01*
X108491109Y-91494515D01*
X108435560Y-91505561D01*
X108408890Y-91494514D01*
X108394087Y-91484624D01*
X108394088Y-91484624D01*
X108348211Y-91475499D01*
X108343189Y-91474500D01*
X108343188Y-91474500D01*
X108156807Y-91474500D01*
X108105915Y-91484622D01*
X108091109Y-91494515D01*
X108035560Y-91505561D01*
X108008890Y-91494514D01*
X107994087Y-91484624D01*
X107994088Y-91484624D01*
X107948211Y-91475499D01*
X107943189Y-91474500D01*
X107943188Y-91474500D01*
X107756807Y-91474500D01*
X107705915Y-91484622D01*
X107648192Y-91523191D01*
X107648191Y-91523192D01*
X107609623Y-91580913D01*
X107599500Y-91631811D01*
X107599500Y-92218192D01*
X102654789Y-92218192D01*
X102653596Y-89650000D01*
X105919196Y-89650000D01*
X105940280Y-89783126D01*
X106001471Y-89903219D01*
X106011385Y-89913133D01*
X106033059Y-89965459D01*
X106011385Y-90017784D01*
X105966188Y-90062981D01*
X105922318Y-90162337D01*
X105919500Y-90186630D01*
X105919500Y-90613372D01*
X105922317Y-90637659D01*
X105922317Y-90637661D01*
X105922318Y-90637662D01*
X105966187Y-90737016D01*
X106042984Y-90813813D01*
X106142338Y-90857682D01*
X106166627Y-90860500D01*
X106533372Y-90860499D01*
X106557662Y-90857682D01*
X106657016Y-90813813D01*
X106733813Y-90737016D01*
X106757806Y-90682675D01*
X106798767Y-90643564D01*
X106855389Y-90644871D01*
X106894502Y-90685833D01*
X106899500Y-90712563D01*
X106899500Y-90732608D01*
X106908696Y-90778845D01*
X106912067Y-90783890D01*
X106923115Y-90839439D01*
X106912067Y-90866110D01*
X106908696Y-90871155D01*
X106899500Y-90917389D01*
X106899500Y-91132609D01*
X106908696Y-91178844D01*
X106943727Y-91231271D01*
X106943728Y-91231272D01*
X106996154Y-91266303D01*
X106996156Y-91266304D01*
X107042389Y-91275500D01*
X107657610Y-91275499D01*
X107703844Y-91266304D01*
X107756272Y-91231272D01*
X107791304Y-91178844D01*
X107800500Y-91132611D01*
X107800499Y-90917390D01*
X107791304Y-90871156D01*
X107791303Y-90871154D01*
X107787935Y-90866113D01*
X107776883Y-90810565D01*
X107787934Y-90783886D01*
X107791304Y-90778844D01*
X107800500Y-90732611D01*
X107800499Y-90517390D01*
X107791304Y-90471156D01*
X107791303Y-90471154D01*
X107787935Y-90466113D01*
X107776883Y-90410565D01*
X107787934Y-90383886D01*
X107791304Y-90378844D01*
X107800500Y-90332611D01*
X107800499Y-90117390D01*
X107791304Y-90071156D01*
X107756272Y-90018728D01*
X107756271Y-90018727D01*
X107703845Y-89983696D01*
X107657611Y-89974500D01*
X107399829Y-89974500D01*
X107399828Y-89974500D01*
X106782966Y-89974500D01*
X106730640Y-89952826D01*
X106708966Y-89900500D01*
X106717031Y-89866905D01*
X106759719Y-89783126D01*
X106780804Y-89650000D01*
X106759719Y-89516874D01*
X106759718Y-89516872D01*
X106759718Y-89516871D01*
X106714674Y-89428468D01*
X106710230Y-89372005D01*
X106728285Y-89342544D01*
X106733813Y-89337016D01*
X106741498Y-89319610D01*
X106782460Y-89280497D01*
X106809193Y-89275500D01*
X107414546Y-89275500D01*
X107414550Y-89275499D01*
X107657610Y-89275499D01*
X107703844Y-89266304D01*
X107756272Y-89231272D01*
X107791304Y-89178844D01*
X107800500Y-89132611D01*
X107800499Y-88917390D01*
X107791304Y-88871156D01*
X107756272Y-88818728D01*
X107756271Y-88818727D01*
X107703845Y-88783696D01*
X107657611Y-88774500D01*
X107399829Y-88774500D01*
X107399828Y-88774500D01*
X106831271Y-88774500D01*
X106778945Y-88752826D01*
X106763576Y-88730391D01*
X106733813Y-88662984D01*
X106657016Y-88586187D01*
X106557662Y-88542318D01*
X106557663Y-88542318D01*
X106552804Y-88541754D01*
X106533373Y-88539500D01*
X106533369Y-88539500D01*
X106166627Y-88539500D01*
X106142340Y-88542317D01*
X106042983Y-88586187D01*
X105966187Y-88662983D01*
X105922318Y-88762337D01*
X105919500Y-88786630D01*
X105919500Y-89213372D01*
X105922317Y-89237659D01*
X105922317Y-89237661D01*
X105922318Y-89237662D01*
X105958502Y-89319611D01*
X105966187Y-89337016D01*
X105971717Y-89342546D01*
X105993391Y-89394872D01*
X105985326Y-89428467D01*
X105940281Y-89516873D01*
X105919196Y-89650000D01*
X102653596Y-89650000D01*
X102653509Y-89463761D01*
X102652788Y-87913372D01*
X105899500Y-87913372D01*
X105902317Y-87937659D01*
X105902317Y-87937661D01*
X105902318Y-87937662D01*
X105946187Y-88037016D01*
X106022984Y-88113813D01*
X106122338Y-88157682D01*
X106146627Y-88160500D01*
X106513372Y-88160499D01*
X106537662Y-88157682D01*
X106539644Y-88156807D01*
X106569535Y-88150501D01*
X106588440Y-88150501D01*
X106588448Y-88150500D01*
X107490587Y-88150500D01*
X107542913Y-88172174D01*
X107577826Y-88207087D01*
X107599500Y-88259413D01*
X107599500Y-88418192D01*
X107609622Y-88469084D01*
X107609623Y-88469086D01*
X107609624Y-88469087D01*
X107648192Y-88526808D01*
X107705913Y-88565376D01*
X107756811Y-88575500D01*
X107943188Y-88575499D01*
X107943192Y-88575499D01*
X107994084Y-88565377D01*
X107994084Y-88565376D01*
X107994087Y-88565376D01*
X108008888Y-88555485D01*
X108064436Y-88544437D01*
X108091110Y-88555485D01*
X108105913Y-88565376D01*
X108156811Y-88575500D01*
X108343188Y-88575499D01*
X108343192Y-88575499D01*
X108394084Y-88565377D01*
X108394084Y-88565376D01*
X108394087Y-88565376D01*
X108408888Y-88555485D01*
X108464436Y-88544437D01*
X108491110Y-88555485D01*
X108505913Y-88565376D01*
X108556811Y-88575500D01*
X108743188Y-88575499D01*
X108743192Y-88575499D01*
X108794084Y-88565377D01*
X108794084Y-88565376D01*
X108794087Y-88565376D01*
X108851808Y-88526808D01*
X108890376Y-88469087D01*
X108900500Y-88418189D01*
X108900499Y-87831812D01*
X108900499Y-87831811D01*
X108900499Y-87831807D01*
X108890377Y-87780915D01*
X108851808Y-87723192D01*
X108851807Y-87723191D01*
X108794086Y-87684623D01*
X108753312Y-87676513D01*
X108743189Y-87674500D01*
X108743188Y-87674500D01*
X108556807Y-87674500D01*
X108505915Y-87684622D01*
X108491109Y-87694515D01*
X108435560Y-87705561D01*
X108408890Y-87694514D01*
X108394087Y-87684624D01*
X108394088Y-87684624D01*
X108368638Y-87679562D01*
X108343189Y-87674500D01*
X108343188Y-87674500D01*
X108156807Y-87674500D01*
X108105915Y-87684622D01*
X108091109Y-87694515D01*
X108035560Y-87705561D01*
X108008890Y-87694514D01*
X107994087Y-87684624D01*
X107994088Y-87684624D01*
X107968638Y-87679562D01*
X107943189Y-87674500D01*
X107943188Y-87674500D01*
X107753178Y-87674501D01*
X107753178Y-87673723D01*
X107722218Y-87669129D01*
X107674828Y-87649500D01*
X107674826Y-87649500D01*
X106834499Y-87649500D01*
X106782173Y-87627826D01*
X106760499Y-87575500D01*
X106760499Y-87486627D01*
X106757682Y-87462340D01*
X106757682Y-87462338D01*
X106713813Y-87362984D01*
X106637016Y-87286187D01*
X106537662Y-87242318D01*
X106537663Y-87242318D01*
X106532804Y-87241754D01*
X106513373Y-87239500D01*
X106513369Y-87239500D01*
X106146627Y-87239500D01*
X106122340Y-87242317D01*
X106022983Y-87286187D01*
X105946187Y-87362983D01*
X105902318Y-87462337D01*
X105899500Y-87486630D01*
X105899500Y-87913372D01*
X102652788Y-87913372D01*
X102651318Y-84750000D01*
X103383593Y-84750000D01*
X103466401Y-84927579D01*
X103601888Y-85121075D01*
X103768924Y-85288111D01*
X103962420Y-85423598D01*
X104140000Y-85506405D01*
X104140000Y-84750000D01*
X103383593Y-84750000D01*
X102651318Y-84750000D01*
X102651116Y-84315826D01*
X104140000Y-84315826D01*
X104174075Y-84442993D01*
X104239901Y-84557007D01*
X104332993Y-84650099D01*
X104447007Y-84715925D01*
X104574174Y-84750000D01*
X104705826Y-84750000D01*
X105140000Y-84750000D01*
X105140000Y-85506405D01*
X105317579Y-85423598D01*
X105511075Y-85288111D01*
X105678111Y-85121075D01*
X105813598Y-84927579D01*
X105896407Y-84750000D01*
X105140000Y-84750000D01*
X104705826Y-84750000D01*
X104832993Y-84715925D01*
X104947007Y-84650099D01*
X105040099Y-84557007D01*
X105105925Y-84442993D01*
X105140000Y-84315826D01*
X105140000Y-84250000D01*
X106174659Y-84250000D01*
X106193976Y-84446133D01*
X106251187Y-84634731D01*
X106316916Y-84757699D01*
X106344090Y-84808538D01*
X106469117Y-84960883D01*
X106621462Y-85085910D01*
X106687251Y-85121075D01*
X106795268Y-85178812D01*
X106795270Y-85178812D01*
X106795273Y-85178814D01*
X106983868Y-85236024D01*
X107180000Y-85255341D01*
X107376132Y-85236024D01*
X107564727Y-85178814D01*
X107738538Y-85085910D01*
X107890883Y-84960883D01*
X107999280Y-84828801D01*
X108049227Y-84802104D01*
X108103425Y-84818545D01*
X108108806Y-84823422D01*
X108573495Y-85288111D01*
X108988361Y-85702976D01*
X109010035Y-85755302D01*
X108988361Y-85807628D01*
X108936035Y-85829302D01*
X108320370Y-85829302D01*
X108228303Y-85867436D01*
X108228299Y-85867439D01*
X107994619Y-86101119D01*
X107942293Y-86122793D01*
X107912404Y-86116488D01*
X107857664Y-86092319D01*
X107857663Y-86092318D01*
X107852804Y-86091754D01*
X107833373Y-86089500D01*
X107833369Y-86089500D01*
X107466627Y-86089500D01*
X107442340Y-86092317D01*
X107342983Y-86136187D01*
X107266187Y-86212983D01*
X107222318Y-86312337D01*
X107219500Y-86336630D01*
X107219500Y-86763372D01*
X107222317Y-86787659D01*
X107222317Y-86787661D01*
X107222318Y-86787662D01*
X107266187Y-86887016D01*
X107342984Y-86963813D01*
X107442338Y-87007682D01*
X107466627Y-87010500D01*
X107833372Y-87010499D01*
X107857662Y-87007682D01*
X107957016Y-86963813D01*
X108033813Y-86887016D01*
X108077682Y-86787662D01*
X108080500Y-86763373D01*
X108080499Y-86754417D01*
X108102167Y-86702092D01*
X108452285Y-86351976D01*
X108504611Y-86330302D01*
X109087651Y-86330302D01*
X109139977Y-86351976D01*
X109404430Y-86616428D01*
X109426104Y-86668754D01*
X109426104Y-87275091D01*
X109464238Y-87367156D01*
X109464240Y-87367159D01*
X109587582Y-87490501D01*
X109657228Y-87560146D01*
X109678902Y-87612472D01*
X109657228Y-87664798D01*
X109646017Y-87673999D01*
X109632820Y-87682817D01*
X109632818Y-87682819D01*
X109586626Y-87751951D01*
X109574500Y-87812914D01*
X109574500Y-88437081D01*
X109586625Y-88498047D01*
X109631614Y-88565377D01*
X109632819Y-88567181D01*
X109701952Y-88613374D01*
X109762913Y-88625500D01*
X110337086Y-88625499D01*
X110398048Y-88613374D01*
X110467181Y-88567181D01*
X110513374Y-88498048D01*
X110525500Y-88437087D01*
X110525499Y-87812914D01*
X110513374Y-87751952D01*
X110467181Y-87682819D01*
X110467178Y-87682817D01*
X110398048Y-87636626D01*
X110360063Y-87629070D01*
X110312972Y-87597603D01*
X110300501Y-87556492D01*
X110300501Y-87548831D01*
X110284259Y-87509621D01*
X110284259Y-87452984D01*
X110324307Y-87412935D01*
X110352626Y-87407302D01*
X110614234Y-87407302D01*
X110614240Y-87407302D01*
X110645969Y-87402679D01*
X110700873Y-87416583D01*
X110708964Y-87423580D01*
X110795268Y-87509884D01*
X110880576Y-87595191D01*
X110902250Y-87647517D01*
X110880576Y-87699843D01*
X110869363Y-87709045D01*
X110848193Y-87723190D01*
X110848191Y-87723192D01*
X110809623Y-87780913D01*
X110799500Y-87831811D01*
X110799500Y-89314829D01*
X110837634Y-89406894D01*
X110837637Y-89406898D01*
X110872826Y-89442087D01*
X110894500Y-89494413D01*
X110894500Y-90555587D01*
X110872826Y-90607911D01*
X110860009Y-90620730D01*
X110837634Y-90643105D01*
X110799500Y-90735170D01*
X110799500Y-92218192D01*
X110809622Y-92269084D01*
X110812643Y-92273606D01*
X110848192Y-92326808D01*
X110905913Y-92365376D01*
X110956811Y-92375500D01*
X111125500Y-92375499D01*
X111177826Y-92397173D01*
X111199500Y-92449499D01*
X111199500Y-92720100D01*
X111177826Y-92772426D01*
X111101472Y-92848779D01*
X111101471Y-92848780D01*
X111040281Y-92968873D01*
X111040280Y-92968873D01*
X111019196Y-93102000D01*
X111040280Y-93235126D01*
X111101471Y-93355219D01*
X111196781Y-93450529D01*
X111200337Y-93452341D01*
X111237122Y-93495407D01*
X111235112Y-93546591D01*
X111231339Y-93555698D01*
X111231335Y-93555712D01*
X111219500Y-93615215D01*
X111219500Y-98250998D01*
X111231335Y-98310501D01*
X111231338Y-98310511D01*
X111253008Y-98362826D01*
X111253016Y-98362843D01*
X111273305Y-98397986D01*
X111273307Y-98397988D01*
X111273308Y-98397989D01*
X111337167Y-98446989D01*
X111389493Y-98468663D01*
X111449000Y-98480500D01*
X111449002Y-98480500D01*
X116425998Y-98480500D01*
X116426000Y-98480500D01*
X116485507Y-98468663D01*
X116537833Y-98446989D01*
X116572989Y-98426692D01*
X116621989Y-98362833D01*
X116643663Y-98310507D01*
X116655500Y-98251000D01*
X116655500Y-96350000D01*
X120969196Y-96350000D01*
X120990280Y-96483126D01*
X121035653Y-96572174D01*
X121051472Y-96603220D01*
X121146780Y-96698528D01*
X121266873Y-96759718D01*
X121266873Y-96759719D01*
X121285075Y-96762601D01*
X121400000Y-96780804D01*
X121533126Y-96759719D01*
X121653220Y-96698528D01*
X121658560Y-96693187D01*
X121710884Y-96671511D01*
X121763211Y-96693182D01*
X121827235Y-96757206D01*
X121930009Y-96802585D01*
X121955135Y-96805500D01*
X123694864Y-96805499D01*
X123719991Y-96802585D01*
X123822765Y-96757206D01*
X123902206Y-96677765D01*
X123914637Y-96649610D01*
X123955599Y-96610497D01*
X123982332Y-96605500D01*
X124334743Y-96605500D01*
X124367243Y-96613019D01*
X124423604Y-96640572D01*
X124423605Y-96640572D01*
X124423607Y-96640573D01*
X124491740Y-96650500D01*
X124491746Y-96650500D01*
X125108254Y-96650500D01*
X125108260Y-96650500D01*
X125176393Y-96640573D01*
X125281483Y-96589198D01*
X125298507Y-96572174D01*
X125350833Y-96550500D01*
X127775500Y-96550500D01*
X127827826Y-96572174D01*
X127849500Y-96624500D01*
X127849500Y-97754820D01*
X127858233Y-97798722D01*
X127891496Y-97848504D01*
X127941278Y-97881767D01*
X127985180Y-97890500D01*
X127985181Y-97890500D01*
X129714819Y-97890500D01*
X129714820Y-97890500D01*
X129758722Y-97881767D01*
X129808504Y-97848504D01*
X129841767Y-97798722D01*
X129850500Y-97754820D01*
X129850500Y-96025180D01*
X129841767Y-95981278D01*
X129808504Y-95931496D01*
X129772462Y-95907414D01*
X129758722Y-95898233D01*
X129714820Y-95889500D01*
X127985180Y-95889500D01*
X127963229Y-95893866D01*
X127941277Y-95898233D01*
X127891496Y-95931495D01*
X127891495Y-95931496D01*
X127858233Y-95981278D01*
X127856511Y-95989936D01*
X127825046Y-96037028D01*
X127783933Y-96049500D01*
X125499500Y-96049500D01*
X125447174Y-96027826D01*
X125425500Y-95975500D01*
X125425500Y-95866746D01*
X125425500Y-95866740D01*
X125415573Y-95798607D01*
X125364198Y-95693517D01*
X125281483Y-95610802D01*
X125281482Y-95610801D01*
X125176394Y-95559427D01*
X125108264Y-95549500D01*
X125108260Y-95549500D01*
X124491740Y-95549500D01*
X124491735Y-95549500D01*
X124423606Y-95559427D01*
X124423605Y-95559427D01*
X124318517Y-95610801D01*
X124235801Y-95693517D01*
X124184427Y-95798605D01*
X124184427Y-95798606D01*
X124174500Y-95866735D01*
X124174500Y-96030500D01*
X124152826Y-96082826D01*
X124100500Y-96104500D01*
X123982332Y-96104500D01*
X123930006Y-96082826D01*
X123914637Y-96060389D01*
X123902206Y-96032235D01*
X123822765Y-95952794D01*
X123719991Y-95907415D01*
X123719990Y-95907414D01*
X123719988Y-95907414D01*
X123698659Y-95904940D01*
X123694865Y-95904500D01*
X123694864Y-95904500D01*
X121955136Y-95904500D01*
X121930013Y-95907414D01*
X121930007Y-95907415D01*
X121827232Y-95952795D01*
X121768213Y-96011814D01*
X121715887Y-96033488D01*
X121663562Y-96011814D01*
X121653219Y-96001471D01*
X121533126Y-95940281D01*
X121533126Y-95940280D01*
X121400000Y-95919196D01*
X121266873Y-95940280D01*
X121266873Y-95940281D01*
X121146780Y-96001471D01*
X121051471Y-96096780D01*
X120990281Y-96216873D01*
X120990280Y-96216873D01*
X120969196Y-96350000D01*
X116655500Y-96350000D01*
X116655500Y-92500000D01*
X120719196Y-92500000D01*
X120740280Y-92633126D01*
X120800894Y-92752086D01*
X120801472Y-92753220D01*
X120896780Y-92848528D01*
X121016873Y-92909718D01*
X121016873Y-92909719D01*
X121035075Y-92912601D01*
X121150000Y-92930804D01*
X121283126Y-92909719D01*
X121363903Y-92868561D01*
X121383522Y-92858565D01*
X121417117Y-92850500D01*
X121699877Y-92850500D01*
X121752203Y-92872174D01*
X121827235Y-92947206D01*
X121930009Y-92992585D01*
X121955135Y-92995500D01*
X123694864Y-92995499D01*
X123719991Y-92992585D01*
X123822765Y-92947206D01*
X123852797Y-92917174D01*
X123905123Y-92895500D01*
X124147575Y-92895500D01*
X124199901Y-92917174D01*
X124214056Y-92937000D01*
X124235801Y-92981482D01*
X124235802Y-92981483D01*
X124318517Y-93064198D01*
X124423607Y-93115573D01*
X124461170Y-93121046D01*
X124509823Y-93150037D01*
X124524500Y-93194272D01*
X124524500Y-93830727D01*
X124502826Y-93883053D01*
X124461170Y-93903954D01*
X124423606Y-93909427D01*
X124423605Y-93909427D01*
X124318517Y-93960801D01*
X124235801Y-94043517D01*
X124184427Y-94148605D01*
X124184427Y-94148606D01*
X124174500Y-94216735D01*
X124174500Y-94683264D01*
X124184427Y-94751393D01*
X124185126Y-94753654D01*
X124184981Y-94755198D01*
X124185256Y-94757080D01*
X124184800Y-94757146D01*
X124179865Y-94810046D01*
X124136270Y-94846202D01*
X124114424Y-94849500D01*
X123988956Y-94849500D01*
X123936630Y-94827826D01*
X123921261Y-94805391D01*
X123912774Y-94786170D01*
X123902206Y-94762235D01*
X123822765Y-94682794D01*
X123719991Y-94637415D01*
X123719990Y-94637414D01*
X123719988Y-94637414D01*
X123698659Y-94634940D01*
X123694865Y-94634500D01*
X123694864Y-94634500D01*
X121955136Y-94634500D01*
X121930013Y-94637414D01*
X121930007Y-94637415D01*
X121827234Y-94682794D01*
X121758214Y-94751814D01*
X121705887Y-94773488D01*
X121658646Y-94753920D01*
X121657936Y-94754898D01*
X121653861Y-94751937D01*
X121653562Y-94751814D01*
X121653219Y-94751471D01*
X121533126Y-94690281D01*
X121533126Y-94690280D01*
X121400000Y-94669196D01*
X121266873Y-94690280D01*
X121266873Y-94690281D01*
X121146780Y-94751471D01*
X121051471Y-94846780D01*
X120990281Y-94966873D01*
X120990280Y-94966873D01*
X120969196Y-95100000D01*
X120990280Y-95233126D01*
X121042710Y-95336024D01*
X121051472Y-95353220D01*
X121146780Y-95448528D01*
X121266873Y-95509718D01*
X121266873Y-95509719D01*
X121285075Y-95512601D01*
X121400000Y-95530804D01*
X121533126Y-95509719D01*
X121653220Y-95448528D01*
X121668562Y-95433185D01*
X121720886Y-95411511D01*
X121773213Y-95433184D01*
X121827235Y-95487206D01*
X121930009Y-95532585D01*
X121955135Y-95535500D01*
X123694864Y-95535499D01*
X123719991Y-95532585D01*
X123822765Y-95487206D01*
X123902206Y-95407765D01*
X123908014Y-95394610D01*
X123948976Y-95355497D01*
X123975709Y-95350500D01*
X125625575Y-95350500D01*
X125677901Y-95372174D01*
X125692056Y-95391999D01*
X125735802Y-95481483D01*
X125818517Y-95564198D01*
X125923607Y-95615573D01*
X125991740Y-95625500D01*
X125991746Y-95625500D01*
X126608254Y-95625500D01*
X126608260Y-95625500D01*
X126676393Y-95615573D01*
X126781483Y-95564198D01*
X126864198Y-95481483D01*
X126915573Y-95376393D01*
X126918463Y-95356554D01*
X126939363Y-95314897D01*
X126941895Y-95312364D01*
X126941897Y-95312364D01*
X127632087Y-94622174D01*
X127684413Y-94600500D01*
X127825587Y-94600500D01*
X127877913Y-94622174D01*
X127896398Y-94653014D01*
X127917615Y-94722956D01*
X127921187Y-94734731D01*
X128008776Y-94898597D01*
X128014090Y-94908538D01*
X128139117Y-95060883D01*
X128291462Y-95185910D01*
X128368426Y-95227048D01*
X128465268Y-95278812D01*
X128465270Y-95278812D01*
X128465273Y-95278814D01*
X128653868Y-95336024D01*
X128850000Y-95355341D01*
X129046132Y-95336024D01*
X129234727Y-95278814D01*
X129408538Y-95185910D01*
X129560883Y-95060883D01*
X129685910Y-94908538D01*
X129778814Y-94734727D01*
X129836024Y-94546132D01*
X129855341Y-94350000D01*
X129836024Y-94153868D01*
X129778814Y-93965273D01*
X129778812Y-93965270D01*
X129778812Y-93965268D01*
X129727048Y-93868426D01*
X129685910Y-93791462D01*
X129560883Y-93639117D01*
X129408538Y-93514090D01*
X129355950Y-93485981D01*
X129234731Y-93421187D01*
X129046133Y-93363976D01*
X128850000Y-93344659D01*
X128653866Y-93363976D01*
X128465268Y-93421187D01*
X128291463Y-93514089D01*
X128139117Y-93639117D01*
X128014089Y-93791463D01*
X127921187Y-93965268D01*
X127914008Y-93988932D01*
X127896398Y-94046983D01*
X127860470Y-94090762D01*
X127825587Y-94099500D01*
X127500172Y-94099500D01*
X127408105Y-94137634D01*
X127408101Y-94137637D01*
X126923035Y-94622702D01*
X126870709Y-94644376D01*
X126818383Y-94622702D01*
X126781482Y-94585801D01*
X126676394Y-94534427D01*
X126608264Y-94524500D01*
X126608260Y-94524500D01*
X125991740Y-94524500D01*
X125991735Y-94524500D01*
X125923606Y-94534427D01*
X125923605Y-94534427D01*
X125818517Y-94585801D01*
X125735801Y-94668517D01*
X125684427Y-94773605D01*
X125682597Y-94786170D01*
X125653605Y-94834824D01*
X125609370Y-94849500D01*
X125485576Y-94849500D01*
X125433250Y-94827826D01*
X125411576Y-94775500D01*
X125414874Y-94753654D01*
X125415570Y-94751398D01*
X125415573Y-94751393D01*
X125425500Y-94683260D01*
X125425500Y-94216740D01*
X125415573Y-94148607D01*
X125364198Y-94043517D01*
X125281483Y-93960802D01*
X125281482Y-93960801D01*
X125176394Y-93909427D01*
X125138830Y-93903954D01*
X125090176Y-93874961D01*
X125075500Y-93830727D01*
X125075500Y-93418767D01*
X125097174Y-93366441D01*
X125149500Y-93344767D01*
X125201825Y-93366440D01*
X125493942Y-93658558D01*
X125595200Y-93700500D01*
X125625575Y-93700500D01*
X125677901Y-93722174D01*
X125692056Y-93741999D01*
X125735231Y-93830315D01*
X125735802Y-93831483D01*
X125818517Y-93914198D01*
X125923607Y-93965573D01*
X125991740Y-93975500D01*
X125991746Y-93975500D01*
X126608254Y-93975500D01*
X126608260Y-93975500D01*
X126676393Y-93965573D01*
X126781483Y-93914198D01*
X126864198Y-93831483D01*
X126915573Y-93726393D01*
X126925500Y-93658260D01*
X126925500Y-93191740D01*
X126915573Y-93123607D01*
X126864198Y-93018517D01*
X126781483Y-92935802D01*
X126781482Y-92935801D01*
X126676394Y-92884427D01*
X126608264Y-92874500D01*
X126608260Y-92874500D01*
X125991740Y-92874500D01*
X125991735Y-92874500D01*
X125923606Y-92884427D01*
X125923605Y-92884427D01*
X125818517Y-92935801D01*
X125736793Y-93017525D01*
X125684467Y-93039199D01*
X125632141Y-93017525D01*
X125447174Y-92832558D01*
X125425500Y-92780232D01*
X125425500Y-92341746D01*
X125425500Y-92341740D01*
X125420875Y-92310000D01*
X127593593Y-92310000D01*
X127676401Y-92487579D01*
X127811888Y-92681075D01*
X127978924Y-92848111D01*
X128172420Y-92983598D01*
X128350000Y-93066405D01*
X128350000Y-92310000D01*
X127593593Y-92310000D01*
X125420875Y-92310000D01*
X125415573Y-92273607D01*
X125364198Y-92168517D01*
X125281483Y-92085802D01*
X125281482Y-92085801D01*
X125176394Y-92034427D01*
X125108264Y-92024500D01*
X125108260Y-92024500D01*
X124491740Y-92024500D01*
X124491735Y-92024500D01*
X124423606Y-92034427D01*
X124423605Y-92034427D01*
X124318517Y-92085801D01*
X124231493Y-92172826D01*
X124179167Y-92194500D01*
X123905123Y-92194500D01*
X123852797Y-92172826D01*
X123822765Y-92142794D01*
X123819687Y-92141435D01*
X123719991Y-92097415D01*
X123719990Y-92097414D01*
X123719988Y-92097414D01*
X123698659Y-92094940D01*
X123694865Y-92094500D01*
X123694864Y-92094500D01*
X121955136Y-92094500D01*
X121930013Y-92097414D01*
X121930007Y-92097415D01*
X121826327Y-92143195D01*
X121796437Y-92149500D01*
X121417117Y-92149500D01*
X121383522Y-92141435D01*
X121283126Y-92090281D01*
X121150000Y-92069196D01*
X121016873Y-92090280D01*
X121016873Y-92090281D01*
X120896780Y-92151471D01*
X120801471Y-92246780D01*
X120740281Y-92366873D01*
X120740280Y-92366873D01*
X120719196Y-92500000D01*
X116655500Y-92500000D01*
X116655500Y-91875826D01*
X128350000Y-91875826D01*
X128384075Y-92002993D01*
X128449901Y-92117007D01*
X128542993Y-92210099D01*
X128657007Y-92275925D01*
X128784174Y-92310000D01*
X128915826Y-92310000D01*
X129350000Y-92310000D01*
X129350000Y-93066405D01*
X129527579Y-92983598D01*
X129721075Y-92848111D01*
X129888111Y-92681075D01*
X130023598Y-92487579D01*
X130106407Y-92310000D01*
X129350000Y-92310000D01*
X128915826Y-92310000D01*
X129042993Y-92275925D01*
X129157007Y-92210099D01*
X129250099Y-92117007D01*
X129315925Y-92002993D01*
X129350000Y-91875826D01*
X129350000Y-91744174D01*
X129315925Y-91617007D01*
X129250099Y-91502993D01*
X129157007Y-91409901D01*
X129042993Y-91344075D01*
X128915826Y-91310000D01*
X128784174Y-91310000D01*
X128657007Y-91344075D01*
X128542993Y-91409901D01*
X128449901Y-91502993D01*
X128384075Y-91617007D01*
X128350000Y-91744174D01*
X128350000Y-91875826D01*
X116655500Y-91875826D01*
X116655500Y-90900000D01*
X123219196Y-90900000D01*
X123240280Y-91033126D01*
X123290971Y-91132611D01*
X123301472Y-91153220D01*
X123396780Y-91248528D01*
X123516873Y-91309718D01*
X123516873Y-91309719D01*
X123535075Y-91312601D01*
X123650000Y-91330804D01*
X123783126Y-91309719D01*
X123903220Y-91248528D01*
X123979574Y-91172174D01*
X124031900Y-91150500D01*
X124109370Y-91150500D01*
X124161696Y-91172174D01*
X124182597Y-91213830D01*
X124184427Y-91226394D01*
X124235801Y-91331482D01*
X124235802Y-91331483D01*
X124318517Y-91414198D01*
X124423607Y-91465573D01*
X124491740Y-91475500D01*
X124491746Y-91475500D01*
X125108254Y-91475500D01*
X125108260Y-91475500D01*
X125176393Y-91465573D01*
X125281483Y-91414198D01*
X125364198Y-91331483D01*
X125374700Y-91310000D01*
X127593594Y-91310000D01*
X128350000Y-91310000D01*
X128350000Y-90553593D01*
X129350000Y-90553593D01*
X129350000Y-91310000D01*
X130106405Y-91310000D01*
X130023598Y-91132421D01*
X129888109Y-90938921D01*
X129721075Y-90771888D01*
X129721076Y-90771888D01*
X129527579Y-90636401D01*
X129350000Y-90553593D01*
X128350000Y-90553593D01*
X128172421Y-90636401D01*
X127978921Y-90771890D01*
X127811890Y-90938921D01*
X127676401Y-91132421D01*
X127593594Y-91310000D01*
X125374700Y-91310000D01*
X125415573Y-91226393D01*
X125425500Y-91158260D01*
X125425500Y-90691740D01*
X125415573Y-90623607D01*
X125364198Y-90518517D01*
X125281483Y-90435802D01*
X125281482Y-90435801D01*
X125176394Y-90384427D01*
X125108264Y-90374500D01*
X125108260Y-90374500D01*
X124491740Y-90374500D01*
X124491735Y-90374500D01*
X124423606Y-90384427D01*
X124423605Y-90384427D01*
X124318517Y-90435801D01*
X124235802Y-90518516D01*
X124192056Y-90608001D01*
X124149603Y-90645491D01*
X124125575Y-90649500D01*
X124031900Y-90649500D01*
X123979574Y-90627826D01*
X123903219Y-90551471D01*
X123783126Y-90490281D01*
X123783126Y-90490280D01*
X123650000Y-90469196D01*
X123516873Y-90490280D01*
X123516873Y-90490281D01*
X123396780Y-90551471D01*
X123301471Y-90646780D01*
X123240281Y-90766873D01*
X123240280Y-90766873D01*
X123219196Y-90900000D01*
X116655500Y-90900000D01*
X116655500Y-90204500D01*
X116643663Y-90144993D01*
X116621989Y-90092667D01*
X116620303Y-90089748D01*
X116612911Y-90033597D01*
X116620310Y-90015738D01*
X116621981Y-90012842D01*
X116621989Y-90012833D01*
X116643663Y-89960507D01*
X116655500Y-89901000D01*
X116655500Y-82949000D01*
X116643663Y-82889493D01*
X116621989Y-82837167D01*
X116621983Y-82837156D01*
X116601694Y-82802013D01*
X116601692Y-82802011D01*
X116537835Y-82753012D01*
X116537831Y-82753010D01*
X116485511Y-82731338D01*
X116485501Y-82731335D01*
X116445654Y-82723409D01*
X116426000Y-82719500D01*
X116425998Y-82719500D01*
X113864387Y-82719500D01*
X113812061Y-82697826D01*
X113122174Y-82007939D01*
X113100500Y-81955613D01*
X113100500Y-81225000D01*
X113570000Y-81225000D01*
X113570000Y-81373490D01*
X113608427Y-81566682D01*
X113608430Y-81566693D01*
X113683809Y-81748675D01*
X113793246Y-81912459D01*
X113932540Y-82051753D01*
X114070000Y-82143600D01*
X114070000Y-81314496D01*
X114270000Y-81314496D01*
X114290444Y-81390796D01*
X114329940Y-81459205D01*
X114385795Y-81515060D01*
X114454204Y-81554556D01*
X114530504Y-81575000D01*
X114609496Y-81575000D01*
X114685796Y-81554556D01*
X114754205Y-81515060D01*
X114810060Y-81459205D01*
X114849556Y-81390796D01*
X114870000Y-81314496D01*
X114870000Y-81225000D01*
X115070000Y-81225000D01*
X115070000Y-82143600D01*
X115207459Y-82051753D01*
X115346753Y-81912459D01*
X115456190Y-81748675D01*
X115531569Y-81566693D01*
X115531572Y-81566682D01*
X115570000Y-81373490D01*
X115570000Y-81225000D01*
X115070000Y-81225000D01*
X114870000Y-81225000D01*
X114870000Y-80135504D01*
X114849556Y-80059204D01*
X114810060Y-79990795D01*
X114754205Y-79934940D01*
X114685796Y-79895444D01*
X114609496Y-79875000D01*
X114530504Y-79875000D01*
X114454204Y-79895444D01*
X114385795Y-79934940D01*
X114329940Y-79990795D01*
X114290444Y-80059204D01*
X114270000Y-80135504D01*
X114270000Y-81314496D01*
X114070000Y-81314496D01*
X114070000Y-81225000D01*
X113570000Y-81225000D01*
X113100500Y-81225000D01*
X113100500Y-80754500D01*
X113122174Y-80702174D01*
X113174500Y-80680500D01*
X113202603Y-80680500D01*
X113202603Y-80680499D01*
X113323536Y-80648095D01*
X113431964Y-80585495D01*
X113520495Y-80496964D01*
X113583095Y-80388536D01*
X113604647Y-80308104D01*
X113612219Y-80279847D01*
X113646697Y-80234914D01*
X113683697Y-80225000D01*
X114070000Y-80225000D01*
X114070000Y-79306397D01*
X115070000Y-79306397D01*
X115070000Y-80225000D01*
X115570000Y-80225000D01*
X115570000Y-80076509D01*
X115531572Y-79883317D01*
X115531569Y-79883306D01*
X115456190Y-79701324D01*
X115346753Y-79537540D01*
X115207457Y-79398244D01*
X115070000Y-79306397D01*
X114070000Y-79306397D01*
X114069999Y-79306397D01*
X113932542Y-79398244D01*
X113793246Y-79537540D01*
X113683810Y-79701322D01*
X113616349Y-79864190D01*
X113576301Y-79904238D01*
X113519663Y-79904238D01*
X113495656Y-79888197D01*
X113431963Y-79824504D01*
X113323534Y-79761904D01*
X113323536Y-79761904D01*
X113202603Y-79729500D01*
X113202601Y-79729500D01*
X113077399Y-79729500D01*
X113077397Y-79729500D01*
X112956464Y-79761904D01*
X112848036Y-79824504D01*
X112759504Y-79913036D01*
X112696904Y-80021464D01*
X112664500Y-80142396D01*
X112664500Y-80267603D01*
X112696904Y-80388535D01*
X112728638Y-80443501D01*
X112736030Y-80499653D01*
X112701551Y-80544586D01*
X112664552Y-80554500D01*
X112335180Y-80554500D01*
X112326448Y-80556236D01*
X112291279Y-80563232D01*
X112291275Y-80563234D01*
X112291107Y-80563347D01*
X112290908Y-80563386D01*
X112284546Y-80566022D01*
X112284021Y-80564755D01*
X112235557Y-80574392D01*
X112208893Y-80563347D01*
X112208724Y-80563234D01*
X112208720Y-80563232D01*
X112175720Y-80556668D01*
X112164820Y-80554500D01*
X111835180Y-80554500D01*
X111826448Y-80556236D01*
X111791279Y-80563232D01*
X111791275Y-80563234D01*
X111791107Y-80563347D01*
X111790908Y-80563386D01*
X111784546Y-80566022D01*
X111784021Y-80564755D01*
X111735557Y-80574392D01*
X111708893Y-80563347D01*
X111708724Y-80563234D01*
X111708720Y-80563232D01*
X111675720Y-80556668D01*
X111664820Y-80554500D01*
X111335180Y-80554500D01*
X111335179Y-80554500D01*
X111299031Y-80561690D01*
X111243482Y-80550640D01*
X111216228Y-80517431D01*
X111212364Y-80508103D01*
X111137682Y-80433421D01*
X111137675Y-80433415D01*
X111055208Y-80350948D01*
X110941897Y-80237636D01*
X110941895Y-80237635D01*
X110941893Y-80237634D01*
X110849828Y-80199500D01*
X110258448Y-80199500D01*
X110258440Y-80199499D01*
X110249828Y-80199499D01*
X110150173Y-80199499D01*
X110096239Y-80221838D01*
X110096240Y-80221839D01*
X110058104Y-80237635D01*
X109987635Y-80308104D01*
X109847695Y-80448043D01*
X109787637Y-80508101D01*
X109787633Y-80508107D01*
X109783769Y-80517435D01*
X109743718Y-80557481D01*
X109700968Y-80561690D01*
X109664820Y-80554500D01*
X109335180Y-80554500D01*
X109326448Y-80556236D01*
X109291279Y-80563232D01*
X109291275Y-80563234D01*
X109291107Y-80563347D01*
X109290908Y-80563386D01*
X109284546Y-80566022D01*
X109284021Y-80564755D01*
X109235557Y-80574392D01*
X109208893Y-80563347D01*
X109208724Y-80563234D01*
X109208720Y-80563232D01*
X109175720Y-80556668D01*
X109164820Y-80554500D01*
X108835180Y-80554500D01*
X108826448Y-80556236D01*
X108791279Y-80563232D01*
X108791275Y-80563234D01*
X108791107Y-80563347D01*
X108790908Y-80563386D01*
X108784546Y-80566022D01*
X108784021Y-80564755D01*
X108735557Y-80574392D01*
X108708893Y-80563347D01*
X108708724Y-80563234D01*
X108708720Y-80563232D01*
X108675720Y-80556668D01*
X108664820Y-80554500D01*
X108335180Y-80554500D01*
X108326448Y-80556236D01*
X108291279Y-80563232D01*
X108291275Y-80563234D01*
X108291107Y-80563347D01*
X108290908Y-80563386D01*
X108284546Y-80566022D01*
X108284021Y-80564755D01*
X108235557Y-80574392D01*
X108208893Y-80563347D01*
X108208724Y-80563234D01*
X108208720Y-80563232D01*
X108175720Y-80556668D01*
X108164820Y-80554500D01*
X108164819Y-80554500D01*
X107835448Y-80554500D01*
X107783122Y-80532826D01*
X107761448Y-80480500D01*
X107771362Y-80443501D01*
X107787313Y-80415870D01*
X107803095Y-80388536D01*
X107835499Y-80267603D01*
X107835500Y-80267603D01*
X107835500Y-80142397D01*
X107835499Y-80142396D01*
X107817844Y-80076509D01*
X107803095Y-80021464D01*
X107740495Y-79913036D01*
X107651964Y-79824505D01*
X107651963Y-79824504D01*
X107543534Y-79761904D01*
X107543536Y-79761904D01*
X107422603Y-79729500D01*
X107422601Y-79729500D01*
X107297399Y-79729500D01*
X107297397Y-79729500D01*
X107176464Y-79761904D01*
X107068036Y-79824504D01*
X107004343Y-79888197D01*
X106952016Y-79909871D01*
X106899691Y-79888197D01*
X106883650Y-79864189D01*
X106816190Y-79701324D01*
X106706753Y-79537540D01*
X106567457Y-79398244D01*
X106430000Y-79306397D01*
X106430000Y-80225000D01*
X106816303Y-80225000D01*
X106868629Y-80246674D01*
X106887781Y-80279847D01*
X106916904Y-80388535D01*
X106970000Y-80480500D01*
X106979505Y-80496964D01*
X107068036Y-80585495D01*
X107176464Y-80648095D01*
X107176463Y-80648095D01*
X107218706Y-80659414D01*
X107297396Y-80680499D01*
X107297397Y-80680500D01*
X107297399Y-80680500D01*
X107325500Y-80680500D01*
X107377826Y-80702174D01*
X107399500Y-80754500D01*
X107399500Y-82322482D01*
X107398747Y-82333012D01*
X107394867Y-82359999D01*
X107398747Y-82386985D01*
X107399500Y-82397516D01*
X107399500Y-82419309D01*
X107406762Y-82446413D01*
X107408530Y-82455032D01*
X107413302Y-82488224D01*
X107413304Y-82488229D01*
X107422019Y-82507313D01*
X107426184Y-82518897D01*
X107430201Y-82533886D01*
X107447358Y-82563603D01*
X107450584Y-82569861D01*
X107467117Y-82606062D01*
X107476738Y-82617165D01*
X107484898Y-82628624D01*
X107489510Y-82636612D01*
X107518190Y-82665292D01*
X107521790Y-82669159D01*
X107547456Y-82698780D01*
X107551951Y-82703967D01*
X107559010Y-82708503D01*
X107571327Y-82718429D01*
X107573387Y-82720489D01*
X107592178Y-82731338D01*
X107613903Y-82743881D01*
X107616910Y-82745714D01*
X107629362Y-82753716D01*
X107660931Y-82774004D01*
X107662908Y-82774584D01*
X107671498Y-82778263D01*
X107671632Y-82777942D01*
X107676110Y-82779796D01*
X107676114Y-82779799D01*
X107727423Y-82793547D01*
X107728992Y-82793987D01*
X107773386Y-82807022D01*
X107785227Y-82810500D01*
X107861231Y-82810500D01*
X107913557Y-82832174D01*
X107935231Y-82884500D01*
X107913557Y-82936826D01*
X107568830Y-83281552D01*
X107516504Y-83303226D01*
X107495024Y-83300040D01*
X107376135Y-83263976D01*
X107180000Y-83244659D01*
X106983866Y-83263976D01*
X106795268Y-83321187D01*
X106621463Y-83414089D01*
X106469117Y-83539117D01*
X106344089Y-83691463D01*
X106251187Y-83865268D01*
X106193976Y-84053866D01*
X106174659Y-84250000D01*
X105140000Y-84250000D01*
X105140000Y-84184174D01*
X105105925Y-84057007D01*
X105040099Y-83942993D01*
X104947007Y-83849901D01*
X104832993Y-83784075D01*
X104705826Y-83750000D01*
X104574174Y-83750000D01*
X104447007Y-83784075D01*
X104332993Y-83849901D01*
X104239901Y-83942993D01*
X104174075Y-84057007D01*
X104140000Y-84184174D01*
X104140000Y-84315826D01*
X102651116Y-84315826D01*
X102650853Y-83750000D01*
X103383594Y-83750000D01*
X104140000Y-83750000D01*
X104140000Y-82993593D01*
X105140000Y-82993593D01*
X105140000Y-83750000D01*
X105896405Y-83750000D01*
X105813598Y-83572421D01*
X105678109Y-83378921D01*
X105511075Y-83211888D01*
X105511076Y-83211888D01*
X105317579Y-83076401D01*
X105140000Y-82993593D01*
X104140000Y-82993593D01*
X103962421Y-83076401D01*
X103768921Y-83211890D01*
X103601890Y-83378921D01*
X103466401Y-83572421D01*
X103383594Y-83750000D01*
X102650853Y-83750000D01*
X102649680Y-81225000D01*
X104930000Y-81225000D01*
X104930000Y-81373490D01*
X104968427Y-81566682D01*
X104968430Y-81566693D01*
X105043809Y-81748675D01*
X105153246Y-81912459D01*
X105292540Y-82051753D01*
X105430000Y-82143600D01*
X105430000Y-81314496D01*
X105630000Y-81314496D01*
X105650444Y-81390796D01*
X105689940Y-81459205D01*
X105745795Y-81515060D01*
X105814204Y-81554556D01*
X105890504Y-81575000D01*
X105969496Y-81575000D01*
X106045796Y-81554556D01*
X106114205Y-81515060D01*
X106170060Y-81459205D01*
X106209556Y-81390796D01*
X106230000Y-81314496D01*
X106230000Y-81225000D01*
X106430000Y-81225000D01*
X106430000Y-82143600D01*
X106567459Y-82051753D01*
X106706753Y-81912459D01*
X106816190Y-81748675D01*
X106891569Y-81566693D01*
X106891572Y-81566682D01*
X106930000Y-81373490D01*
X106930000Y-81225000D01*
X106430000Y-81225000D01*
X106230000Y-81225000D01*
X106230000Y-80135504D01*
X106209556Y-80059204D01*
X106170060Y-79990795D01*
X106114205Y-79934940D01*
X106045796Y-79895444D01*
X105969496Y-79875000D01*
X105890504Y-79875000D01*
X105814204Y-79895444D01*
X105745795Y-79934940D01*
X105689940Y-79990795D01*
X105650444Y-80059204D01*
X105630000Y-80135504D01*
X105630000Y-81314496D01*
X105430000Y-81314496D01*
X105430000Y-81225000D01*
X104930000Y-81225000D01*
X102649680Y-81225000D01*
X102649435Y-80698198D01*
X102648671Y-80680587D01*
X102646840Y-80659415D01*
X102626457Y-80586323D01*
X102595586Y-80523644D01*
X102562537Y-80475383D01*
X102562536Y-80475381D01*
X102332418Y-80225000D01*
X104930000Y-80225000D01*
X105430000Y-80225000D01*
X105430000Y-79306397D01*
X105429999Y-79306397D01*
X105292542Y-79398244D01*
X105153246Y-79537540D01*
X105043809Y-79701324D01*
X104968430Y-79883306D01*
X104968427Y-79883317D01*
X104930000Y-80076509D01*
X104930000Y-80225000D01*
X102332418Y-80225000D01*
X100500603Y-78231885D01*
X99391390Y-77025000D01*
X104930300Y-77025000D01*
X104968427Y-77216683D01*
X104968430Y-77216693D01*
X105043809Y-77398675D01*
X105153246Y-77562459D01*
X105292540Y-77701753D01*
X105430000Y-77793600D01*
X105430000Y-77025000D01*
X104930300Y-77025000D01*
X99391390Y-77025000D01*
X99335782Y-76964496D01*
X105630000Y-76964496D01*
X105650444Y-77040796D01*
X105689940Y-77109205D01*
X105745795Y-77165060D01*
X105814204Y-77204556D01*
X105890504Y-77225000D01*
X105969496Y-77225000D01*
X106045796Y-77204556D01*
X106114205Y-77165060D01*
X106170060Y-77109205D01*
X106209556Y-77040796D01*
X106213788Y-77025000D01*
X106430000Y-77025000D01*
X106430000Y-77793600D01*
X106567459Y-77701753D01*
X106706753Y-77562459D01*
X106816190Y-77398675D01*
X106891569Y-77216693D01*
X106891572Y-77216683D01*
X106929699Y-77025000D01*
X113570300Y-77025000D01*
X113608427Y-77216683D01*
X113608430Y-77216693D01*
X113683809Y-77398675D01*
X113793246Y-77562459D01*
X113932540Y-77701753D01*
X114070000Y-77793600D01*
X114070000Y-77025000D01*
X113570300Y-77025000D01*
X106929699Y-77025000D01*
X106430000Y-77025000D01*
X106213788Y-77025000D01*
X106230000Y-76964496D01*
X114270000Y-76964496D01*
X114290444Y-77040796D01*
X114329940Y-77109205D01*
X114385795Y-77165060D01*
X114454204Y-77204556D01*
X114530504Y-77225000D01*
X114609496Y-77225000D01*
X114685796Y-77204556D01*
X114754205Y-77165060D01*
X114810060Y-77109205D01*
X114849556Y-77040796D01*
X114853788Y-77025000D01*
X115070000Y-77025000D01*
X115070000Y-77793600D01*
X115207459Y-77701753D01*
X115346753Y-77562459D01*
X115456190Y-77398675D01*
X115531569Y-77216693D01*
X115531572Y-77216683D01*
X115569699Y-77025000D01*
X115070000Y-77025000D01*
X114853788Y-77025000D01*
X114870000Y-76964496D01*
X114870000Y-76085504D01*
X114849556Y-76009204D01*
X114810060Y-75940795D01*
X114754205Y-75884940D01*
X114685796Y-75845444D01*
X114609496Y-75825000D01*
X114530504Y-75825000D01*
X114454204Y-75845444D01*
X114385795Y-75884940D01*
X114329940Y-75940795D01*
X114290444Y-76009204D01*
X114270000Y-76085504D01*
X114270000Y-76964496D01*
X106230000Y-76964496D01*
X106230000Y-76085504D01*
X106209556Y-76009204D01*
X106170060Y-75940795D01*
X106114205Y-75884940D01*
X106045796Y-75845444D01*
X105969496Y-75825000D01*
X105890504Y-75825000D01*
X105814204Y-75845444D01*
X105745795Y-75884940D01*
X105689940Y-75940795D01*
X105650444Y-76009204D01*
X105630000Y-76085504D01*
X105630000Y-76964496D01*
X99335782Y-76964496D01*
X98637764Y-76205014D01*
X98602217Y-76174277D01*
X98602214Y-76174275D01*
X98602206Y-76174268D01*
X98555689Y-76142556D01*
X98555667Y-76142542D01*
X98544221Y-76135280D01*
X98544219Y-76135279D01*
X98544217Y-76135278D01*
X98457070Y-76107556D01*
X98434352Y-76105652D01*
X98387443Y-76101722D01*
X98387440Y-76101721D01*
X98387431Y-76101721D01*
X98362316Y-76101158D01*
X98362304Y-76101160D01*
X98274007Y-76124952D01*
X98212279Y-76157687D01*
X98212277Y-76157688D01*
X98165034Y-76192162D01*
X98165028Y-76192167D01*
X94683108Y-79590186D01*
X94532406Y-79737257D01*
X92274673Y-81940587D01*
X92148583Y-82063639D01*
X90045887Y-84115668D01*
X89993887Y-84166413D01*
X89993856Y-84166446D01*
X89978187Y-84183571D01*
X89978150Y-84183614D01*
X89960461Y-84205295D01*
X89960458Y-84205300D01*
X89930190Y-84262739D01*
X89930189Y-84262739D01*
X89922514Y-84277305D01*
X89922508Y-84277320D01*
X89902825Y-84344349D01*
X89902824Y-84344354D01*
X89894500Y-84402248D01*
X89894500Y-121775359D01*
X74800500Y-121775359D01*
X74800500Y-112160600D01*
X74800529Y-112158511D01*
X74815900Y-111614212D01*
X74816136Y-111610041D01*
X74862112Y-111068533D01*
X74862582Y-111064393D01*
X74863686Y-111056630D01*
X74939045Y-110526349D01*
X74939748Y-110522240D01*
X74947078Y-110485636D01*
X75046461Y-109989336D01*
X75047386Y-109985311D01*
X75184007Y-109459271D01*
X75185158Y-109455301D01*
X75351249Y-108937810D01*
X75352625Y-108933907D01*
X75461775Y-108650000D01*
X77218672Y-108650000D01*
X77237267Y-108826922D01*
X77237932Y-108833243D01*
X77294865Y-109008464D01*
X77294866Y-109008466D01*
X77294867Y-109008468D01*
X77323825Y-109058625D01*
X77383719Y-109162366D01*
X77386991Y-109168032D01*
X77500381Y-109293965D01*
X77510278Y-109304956D01*
X77659332Y-109413250D01*
X77659337Y-109413253D01*
X77792792Y-109472671D01*
X77827655Y-109488193D01*
X78007876Y-109526500D01*
X78007877Y-109526500D01*
X78192123Y-109526500D01*
X78192124Y-109526500D01*
X78372345Y-109488193D01*
X78540664Y-109413252D01*
X78689724Y-109304954D01*
X78813009Y-109168032D01*
X78905133Y-109008468D01*
X78962069Y-108833238D01*
X78981328Y-108650000D01*
X78962069Y-108466762D01*
X78905133Y-108291532D01*
X78813009Y-108131968D01*
X78689724Y-107995046D01*
X78689723Y-107995045D01*
X78689721Y-107995043D01*
X78540667Y-107886749D01*
X78540662Y-107886746D01*
X78372346Y-107811807D01*
X78372344Y-107811806D01*
X78230430Y-107781642D01*
X78192124Y-107773500D01*
X78007876Y-107773500D01*
X77976284Y-107780214D01*
X77827655Y-107811806D01*
X77827653Y-107811807D01*
X77659337Y-107886746D01*
X77659332Y-107886749D01*
X77510278Y-107995043D01*
X77386991Y-108131967D01*
X77386989Y-108131970D01*
X77294865Y-108291535D01*
X77237932Y-108466756D01*
X77237931Y-108466760D01*
X77237931Y-108466762D01*
X77218672Y-108650000D01*
X75461775Y-108650000D01*
X75547649Y-108426635D01*
X75549242Y-108422814D01*
X75772608Y-107927305D01*
X75774393Y-107923625D01*
X76025363Y-107441521D01*
X76027369Y-107437918D01*
X76305140Y-106970758D01*
X76307355Y-106967263D01*
X76611690Y-106515573D01*
X76612774Y-106514010D01*
X76639890Y-106476120D01*
X76639890Y-106476117D01*
X76646629Y-106466701D01*
X76646631Y-106466696D01*
X80265109Y-101410223D01*
X83049500Y-101410223D01*
X83083984Y-101627948D01*
X83083987Y-101627961D01*
X83152103Y-101837602D01*
X83152104Y-101837605D01*
X83152105Y-101837606D01*
X83252185Y-102034022D01*
X83381758Y-102212365D01*
X83537635Y-102368242D01*
X83715978Y-102497815D01*
X83912394Y-102597895D01*
X83912397Y-102597896D01*
X83912396Y-102597896D01*
X84122038Y-102666012D01*
X84122044Y-102666013D01*
X84122049Y-102666015D01*
X84230913Y-102683257D01*
X84339776Y-102700500D01*
X84339778Y-102700500D01*
X84560224Y-102700500D01*
X84647313Y-102686706D01*
X84777951Y-102666015D01*
X84777958Y-102666012D01*
X84777961Y-102666012D01*
X84873133Y-102635088D01*
X84987606Y-102597895D01*
X85184022Y-102497815D01*
X85362365Y-102368242D01*
X85518242Y-102212365D01*
X85647815Y-102034022D01*
X85747895Y-101837606D01*
X85816015Y-101627951D01*
X85850500Y-101410222D01*
X85850500Y-101189778D01*
X85816015Y-100972049D01*
X85816013Y-100972044D01*
X85816012Y-100972038D01*
X85747896Y-100762397D01*
X85747895Y-100762396D01*
X85747895Y-100762394D01*
X85647815Y-100565978D01*
X85518242Y-100387635D01*
X85362365Y-100231758D01*
X85258441Y-100156253D01*
X85184024Y-100102186D01*
X84987602Y-100002103D01*
X84987603Y-100002103D01*
X84777961Y-99933987D01*
X84777948Y-99933984D01*
X84560224Y-99899500D01*
X84560222Y-99899500D01*
X84339778Y-99899500D01*
X84339776Y-99899500D01*
X84122051Y-99933984D01*
X84122038Y-99933987D01*
X83912397Y-100002103D01*
X83715976Y-100102186D01*
X83715975Y-100102186D01*
X83537639Y-100231755D01*
X83537635Y-100231758D01*
X83381758Y-100387635D01*
X83381755Y-100387638D01*
X83381755Y-100387639D01*
X83252186Y-100565975D01*
X83252186Y-100565976D01*
X83152103Y-100762397D01*
X83083987Y-100972038D01*
X83083984Y-100972051D01*
X83049500Y-101189776D01*
X83049500Y-101410223D01*
X80265109Y-101410223D01*
X84294980Y-95778867D01*
X84295840Y-95777848D01*
X84298851Y-95773639D01*
X84298854Y-95773638D01*
X84326552Y-95734933D01*
X84326551Y-95734932D01*
X84342352Y-95712855D01*
X84342355Y-95712851D01*
X84495850Y-95498392D01*
X84495850Y-95498391D01*
X84495857Y-95498382D01*
X84807196Y-95006903D01*
X85090301Y-94498637D01*
X85344269Y-93975203D01*
X85568292Y-93438270D01*
X85639878Y-93235126D01*
X85761646Y-92889578D01*
X85761657Y-92889542D01*
X85763141Y-92884427D01*
X85923742Y-92330791D01*
X86054035Y-91763776D01*
X86152121Y-91190311D01*
X86217685Y-90612224D01*
X86250520Y-90031359D01*
X86250500Y-89740462D01*
X86250500Y-89692867D01*
X86250500Y-80492665D01*
X86272174Y-80440339D01*
X86314842Y-80419298D01*
X86321026Y-80418483D01*
X86331340Y-80417126D01*
X86578313Y-80350950D01*
X86814535Y-80253104D01*
X87035965Y-80125261D01*
X87238813Y-79969610D01*
X87419610Y-79788813D01*
X87575261Y-79585965D01*
X87703104Y-79364535D01*
X87800950Y-79128313D01*
X87867126Y-78881340D01*
X87900500Y-78627843D01*
X87900500Y-78500000D01*
X87900500Y-78452405D01*
X87900500Y-77234567D01*
X90152174Y-77234567D01*
X90202110Y-77388251D01*
X90202115Y-77388265D01*
X90333371Y-77667198D01*
X90498555Y-77927487D01*
X90695061Y-78165021D01*
X90695065Y-78165026D01*
X90919787Y-78376054D01*
X91169190Y-78557256D01*
X91439344Y-78705775D01*
X91439351Y-78705778D01*
X91725969Y-78819259D01*
X91734567Y-78821466D01*
X91734567Y-77234567D01*
X90152174Y-77234567D01*
X87900500Y-77234567D01*
X87900500Y-76587983D01*
X91434567Y-76587983D01*
X91474917Y-76790841D01*
X91554069Y-76981929D01*
X91668978Y-77153903D01*
X91815231Y-77300156D01*
X91987205Y-77415065D01*
X92178293Y-77494217D01*
X92381151Y-77534567D01*
X92587983Y-77534567D01*
X92790841Y-77494217D01*
X92981929Y-77415065D01*
X93153903Y-77300156D01*
X93219492Y-77234567D01*
X93234567Y-77234567D01*
X93234567Y-78821466D01*
X93243164Y-78819259D01*
X93529782Y-78705778D01*
X93529789Y-78705775D01*
X93799943Y-78557256D01*
X94049346Y-78376054D01*
X94274068Y-78165026D01*
X94274072Y-78165021D01*
X94470578Y-77927487D01*
X94635762Y-77667198D01*
X94767018Y-77388265D01*
X94767023Y-77388251D01*
X94816960Y-77234567D01*
X93234567Y-77234567D01*
X93219492Y-77234567D01*
X93300156Y-77153903D01*
X93415065Y-76981929D01*
X93494217Y-76790841D01*
X93534567Y-76587983D01*
X93534567Y-76381151D01*
X93494217Y-76178293D01*
X93430720Y-76025000D01*
X104930300Y-76025000D01*
X105430000Y-76025000D01*
X105430000Y-75256397D01*
X106430000Y-75256397D01*
X106430000Y-76025000D01*
X106929700Y-76025000D01*
X113570300Y-76025000D01*
X114070000Y-76025000D01*
X114070000Y-75256397D01*
X115070000Y-75256397D01*
X115070000Y-76025000D01*
X115569700Y-76025000D01*
X115569699Y-76024999D01*
X115531572Y-75833316D01*
X115531569Y-75833306D01*
X115456190Y-75651324D01*
X115346753Y-75487540D01*
X115207457Y-75348244D01*
X115070000Y-75256397D01*
X114070000Y-75256397D01*
X114069999Y-75256397D01*
X113932542Y-75348244D01*
X113793246Y-75487540D01*
X113683809Y-75651324D01*
X113608430Y-75833306D01*
X113608427Y-75833316D01*
X113570300Y-76024999D01*
X113570300Y-76025000D01*
X106929700Y-76025000D01*
X106929699Y-76024999D01*
X106891572Y-75833316D01*
X106891569Y-75833306D01*
X106816190Y-75651324D01*
X106706753Y-75487540D01*
X106567457Y-75348244D01*
X106430000Y-75256397D01*
X105430000Y-75256397D01*
X105429999Y-75256397D01*
X105292542Y-75348244D01*
X105153246Y-75487540D01*
X105043809Y-75651324D01*
X104968430Y-75833306D01*
X104968427Y-75833316D01*
X104930300Y-76024999D01*
X104930300Y-76025000D01*
X93430720Y-76025000D01*
X93415065Y-75987205D01*
X93300156Y-75815231D01*
X93153903Y-75668978D01*
X92981929Y-75554069D01*
X92790841Y-75474917D01*
X92587983Y-75434567D01*
X92381151Y-75434567D01*
X92178293Y-75474917D01*
X91987205Y-75554069D01*
X91815231Y-75668978D01*
X91668978Y-75815231D01*
X91554069Y-75987205D01*
X91474917Y-76178293D01*
X91434567Y-76381151D01*
X91434567Y-76587983D01*
X87900500Y-76587983D01*
X87900500Y-75734567D01*
X90152173Y-75734567D01*
X91734567Y-75734567D01*
X91734567Y-74147666D01*
X91734566Y-74147665D01*
X93234567Y-74147665D01*
X93234567Y-75734567D01*
X94816960Y-75734567D01*
X94767023Y-75580882D01*
X94767018Y-75580868D01*
X94635762Y-75301935D01*
X94470578Y-75041646D01*
X94274072Y-74804112D01*
X94274068Y-74804107D01*
X94049346Y-74593079D01*
X93799943Y-74411877D01*
X93529789Y-74263358D01*
X93529782Y-74263355D01*
X93243158Y-74149872D01*
X93243150Y-74149870D01*
X93234567Y-74147665D01*
X91734566Y-74147665D01*
X91725983Y-74149870D01*
X91725975Y-74149872D01*
X91439351Y-74263355D01*
X91439344Y-74263358D01*
X91169190Y-74411877D01*
X90919787Y-74593079D01*
X90695065Y-74804107D01*
X90695061Y-74804112D01*
X90498555Y-75041646D01*
X90333371Y-75301935D01*
X90202115Y-75580868D01*
X90202110Y-75580882D01*
X90152173Y-75734567D01*
X87900500Y-75734567D01*
X87900500Y-71604712D01*
X87922174Y-71552386D01*
X87947313Y-71535887D01*
X89060245Y-71096289D01*
X89061798Y-71095697D01*
X90419981Y-70597042D01*
X90421570Y-70596481D01*
X91791418Y-70131007D01*
X91793016Y-70130485D01*
X93173832Y-69698429D01*
X93175515Y-69697925D01*
X94566420Y-69299565D01*
X94567980Y-69299139D01*
X95968130Y-68934715D01*
X95969837Y-68934293D01*
X97378443Y-68604009D01*
X97380071Y-68603649D01*
X98796295Y-68307704D01*
X98797933Y-68307382D01*
X100220993Y-68045938D01*
X100222620Y-68045660D01*
X101651506Y-67818905D01*
X101653229Y-67818652D01*
X103087233Y-67626695D01*
X103088955Y-67626485D01*
X104116591Y-67514277D01*
X104170958Y-67530144D01*
X104198184Y-67579808D01*
X104198621Y-67587829D01*
X104199237Y-71554378D01*
X104199500Y-73250000D01*
X104199500Y-73328842D01*
X104209661Y-73379925D01*
X104230261Y-73483491D01*
X104230264Y-73483501D01*
X104290603Y-73629174D01*
X104290605Y-73629177D01*
X104290606Y-73629179D01*
X104378211Y-73760289D01*
X104489711Y-73871789D01*
X104620821Y-73959394D01*
X104620826Y-73959396D01*
X104620825Y-73959396D01*
X104766498Y-74019735D01*
X104766503Y-74019737D01*
X104921158Y-74050500D01*
X104921160Y-74050500D01*
X115578840Y-74050500D01*
X115578842Y-74050500D01*
X115733497Y-74019737D01*
X115879179Y-73959394D01*
X116010289Y-73871789D01*
X116121789Y-73760289D01*
X116209394Y-73629179D01*
X116269737Y-73483497D01*
X116300500Y-73328842D01*
X116300500Y-73250000D01*
X116300500Y-73248309D01*
X116300911Y-67582637D01*
X116322589Y-67530313D01*
X116374916Y-67508643D01*
X116382874Y-67509073D01*
G37*
G04 #@! TD.AperFunction*
M02*
