M48
; DRILL file {KiCad 8.0.1} date 2024-05-25T23:28:13+0800
; FORMAT={-:-/ absolute / metric / decimal}
; #@! TF.CreationDate,2024-05-25T23:28:13+08:00
; #@! TF.GenerationSoftware,Kicad,Pcbnew,8.0.1
; #@! TF.FileFunction,Plated,1,2,PTH
FMAT,2
METRIC
; #@! TA.AperFunction,Plated,PTH,ComponentDrill
T1C0.200
; #@! TA.AperFunction,Plated,PTH,ViaDrill
T2C0.300
; #@! TA.AperFunction,Plated,PTH,ComponentDrill
T3C0.600
; #@! TA.AperFunction,Plated,PTH,ComponentDrill
T4C1.000
; #@! TA.AperFunction,Plated,PTH,ComponentDrill
T5C2.100
%
G90
G05
T1
X108.225Y-88.975
X108.225Y-89.675
X108.225Y-90.375
X108.225Y-91.075
X108.925Y-88.975
X108.925Y-89.675
X108.925Y-90.375
X108.925Y-91.075
X109.625Y-88.975
X109.625Y-89.675
X109.625Y-90.375
X109.625Y-91.075
X110.325Y-88.975
X110.325Y-89.675
X110.325Y-90.375
X110.325Y-91.075
X111.35Y-88.975
X111.35Y-89.675
X111.35Y-90.375
X111.35Y-91.075
X112.25Y-88.975
X112.25Y-89.675
X112.25Y-90.375
X112.25Y-91.075
X120.677Y-109.677
X120.677Y-110.877
X121.277Y-110.277
X121.877Y-109.677
X121.877Y-110.877
T2
X76.0Y-111.0
X76.0Y-112.0
X76.0Y-113.0
X76.0Y-114.0
X76.0Y-115.0
X76.0Y-116.0
X76.0Y-117.0
X76.0Y-118.0
X76.0Y-119.0
X76.0Y-120.0
X76.0Y-121.0
X76.0Y-139.0
X76.0Y-140.0
X76.0Y-141.0
X76.0Y-142.0
X76.0Y-143.0
X76.0Y-144.0
X76.0Y-145.0
X76.0Y-146.0
X76.0Y-147.0
X76.0Y-148.0
X82.0Y-152.0
X83.0Y-152.0
X84.0Y-152.0
X85.0Y-152.0
X86.0Y-152.0
X87.0Y-81.0
X87.0Y-82.0
X87.0Y-83.0
X87.0Y-84.0
X87.0Y-85.0
X87.0Y-86.0
X87.0Y-87.0
X87.0Y-88.0
X87.0Y-89.0
X87.0Y-152.0
X88.0Y-152.0
X89.0Y-72.0
X89.0Y-73.0
X89.0Y-74.0
X89.0Y-75.0
X89.0Y-118.0
X89.0Y-119.0
X89.0Y-120.0
X89.0Y-121.0
X89.0Y-122.0
X89.0Y-123.0
X89.0Y-152.0
X90.0Y-71.5
X90.0Y-123.0
X90.0Y-152.0
X91.0Y-123.0
X91.0Y-152.0
X92.0Y-123.0
X93.0Y-123.0
X94.0Y-123.0
X95.0Y-123.0
X96.0Y-123.0
X97.0Y-123.0
X98.0Y-123.0
X99.0Y-123.0
X100.0Y-123.0
X101.0Y-123.0
X102.0Y-123.0
X103.0Y-123.0
X104.0Y-123.0
X105.0Y-123.0
X106.0Y-123.0
X106.3Y-103.35
X106.35Y-89.65
X107.0Y-123.0
X107.4Y-103.35
X107.85Y-82.36
X108.0Y-123.0
X108.5Y-103.35
X109.0Y-123.0
X109.498Y-82.952
X109.6Y-94.0
X109.6Y-98.0
X109.6Y-102.0
X110.0Y-105.0
X110.0Y-118.0
X110.0Y-119.0
X110.0Y-120.0
X110.0Y-121.0
X110.0Y-122.0
X110.0Y-123.0
X110.25Y-93.102
X110.775Y-82.955
X110.8Y-94.0
X110.8Y-95.0
X110.8Y-96.0
X110.8Y-97.0
X110.8Y-98.0
X110.8Y-98.95
X110.8Y-99.95
X110.8Y-100.95
X110.8Y-101.95
X110.9Y-131.4
X110.9Y-132.4
X110.9Y-133.4
X110.9Y-134.4
X110.9Y-135.4
X110.9Y-136.4
X110.9Y-137.4
X110.9Y-138.4
X110.9Y-139.4
X111.0Y-105.0
X111.005Y-86.02
X111.45Y-93.102
X111.502Y-82.973
X111.8Y-101.95
X111.9Y-139.4
X111.952Y-93.598
X112.0Y-105.0
X112.454Y-93.102
X112.65Y-82.385
X112.8Y-101.95
X112.867Y-85.982
X112.9Y-139.4
X113.0Y-105.0
X113.4Y-108.95
X113.8Y-101.95
X113.85Y-110.3
X113.9Y-139.4
X114.0Y-105.0
X114.8Y-101.95
X114.848Y-110.3
X114.9Y-139.4
X115.0Y-105.0
X115.8Y-101.95
X115.8Y-110.3
X115.9Y-139.4
X116.9Y-139.4
X117.9Y-139.4
X118.0Y-87.0
X118.0Y-88.0
X118.0Y-89.0
X118.0Y-90.0
X118.0Y-91.0
X118.9Y-139.4
X119.0Y-91.0
X119.2Y-108.3
X119.9Y-108.8
X119.9Y-139.4
X120.9Y-139.4
X121.15Y-92.5
X121.2Y-105.5
X121.2Y-106.4
X121.4Y-95.1
X121.4Y-96.35
X121.9Y-139.4
X121.95Y-114.1
X122.3Y-113.0
X122.6Y-106.0
X122.75Y-111.75
X122.9Y-139.4
X123.0Y-127.0
X123.0Y-128.0
X123.0Y-133.0
X123.0Y-134.0
X123.3Y-113.0
X123.65Y-90.9
X123.9Y-139.4
X124.0Y-126.0
X124.0Y-127.0
X124.0Y-128.0
X124.0Y-129.0
X124.0Y-133.0
X124.0Y-134.0
X124.3Y-113.0
X124.9Y-139.4
X125.0Y-106.5
X125.0Y-107.4
X125.0Y-126.0
X125.0Y-127.0
X125.0Y-128.0
X125.0Y-129.0
X125.0Y-133.0
X125.0Y-134.0
X125.3Y-113.0
X126.0Y-126.0
X126.0Y-127.0
X126.0Y-128.0
X126.0Y-129.0
X126.0Y-133.0
X126.0Y-134.0
X126.3Y-113.0
X127.0Y-121.0
X127.0Y-122.0
X127.0Y-123.0
X127.0Y-124.0
X127.0Y-126.0
X127.0Y-127.0
X127.0Y-128.0
X127.0Y-129.0
X127.0Y-130.0
X127.0Y-131.0
X127.0Y-132.0
X127.0Y-133.0
X127.0Y-134.0
X127.3Y-113.0
X128.0Y-121.0
X128.0Y-122.0
X128.0Y-123.0
X128.0Y-124.0
X128.0Y-126.0
X128.0Y-127.0
X128.0Y-127.9
X128.0Y-128.9
X128.0Y-129.9
X128.0Y-130.9
X128.0Y-131.9
X128.0Y-132.9
X128.0Y-133.9
X129.0Y-121.0
X129.0Y-122.0
X129.0Y-123.0
X129.0Y-124.0
X129.0Y-126.0
X129.0Y-127.0
X129.0Y-127.9
X129.0Y-128.9
X129.0Y-129.9
X129.0Y-130.9
X129.0Y-131.9
X129.0Y-132.9
X129.0Y-133.9
X129.9Y-139.4
X130.3Y-113.0
X130.3Y-114.0
X130.9Y-139.4
X131.0Y-71.5
X131.9Y-137.4
X131.9Y-138.4
X131.9Y-139.4
X132.0Y-72.0
X132.0Y-73.0
X132.0Y-74.0
X132.0Y-75.0
X133.0Y-152.0
X133.4Y-81.0
X133.4Y-82.0
X133.4Y-83.0
X133.4Y-84.0
X133.4Y-85.0
X133.4Y-86.0
X133.4Y-87.0
X133.4Y-88.0
X133.4Y-89.0
X134.0Y-152.0
X135.0Y-152.0
X136.0Y-152.0
X137.0Y-152.0
X138.0Y-152.0
X139.0Y-131.0
X139.0Y-132.0
X139.0Y-133.0
X139.0Y-134.0
X139.0Y-135.0
X139.0Y-152.0
X140.0Y-131.0
X140.0Y-136.0
X140.0Y-152.0
X141.0Y-136.0
X142.0Y-131.0
X145.0Y-111.0
X145.0Y-112.0
X145.0Y-113.0
X145.0Y-114.0
X145.0Y-115.0
X145.0Y-116.0
X145.0Y-117.0
X145.0Y-118.0
X145.0Y-119.0
X145.0Y-120.0
X145.0Y-140.0
X145.0Y-141.0
X145.0Y-142.0
X145.0Y-147.0
X145.0Y-148.0
X145.0Y-149.0
T4
X104.64Y-84.25
X107.18Y-84.25
X109.72Y-84.25
X112.26Y-84.25
X114.8Y-84.25
X120.495Y-103.35
X123.035Y-103.35
X125.575Y-103.35
X128.85Y-91.81
X128.85Y-94.35
X128.85Y-96.89
X135.0Y-125.1
X135.0Y-134.0
T5
X92.485Y-76.485
X98.0Y-82.0
T3
X105.93Y-76.925G85X105.93Y-76.125
G05
X105.93Y-81.275G85X105.93Y-80.175
G05
X114.57Y-76.925G85X114.57Y-76.125
G05
X114.57Y-81.275G85X114.57Y-80.175
G05
M30
