G04 #@! TF.GenerationSoftware,KiCad,Pcbnew,8.0.1*
G04 #@! TF.CreationDate,2024-05-25T23:28:08+08:00*
G04 #@! TF.ProjectId,BatteryPod,42617474-6572-4795-906f-642e6b696361,rev?*
G04 #@! TF.SameCoordinates,Original*
G04 #@! TF.FileFunction,Copper,L2,Bot*
G04 #@! TF.FilePolarity,Positive*
%FSLAX46Y46*%
G04 Gerber Fmt 4.6, Leading zero omitted, Abs format (unit mm)*
G04 Created by KiCad (PCBNEW 8.0.1) date 2024-05-25 23:28:08*
%MOMM*%
%LPD*%
G01*
G04 APERTURE LIST*
G04 Aperture macros list*
%AMRoundRect*
0 Rectangle with rounded corners*
0 $1 Rounding radius*
0 $2 $3 $4 $5 $6 $7 $8 $9 X,Y pos of 4 corners*
0 Add a 4 corners polygon primitive as box body*
4,1,4,$2,$3,$4,$5,$6,$7,$8,$9,$2,$3,0*
0 Add four circle primitives for the rounded corners*
1,1,$1+$1,$2,$3*
1,1,$1+$1,$4,$5*
1,1,$1+$1,$6,$7*
1,1,$1+$1,$8,$9*
0 Add four rect primitives between the rounded corners*
20,1,$1+$1,$2,$3,$4,$5,0*
20,1,$1+$1,$4,$5,$6,$7,0*
20,1,$1+$1,$6,$7,$8,$9,0*
20,1,$1+$1,$8,$9,$2,$3,0*%
G04 Aperture macros list end*
%ADD10C,0.300000*%
G04 #@! TA.AperFunction,ComponentPad*
%ADD11C,0.400000*%
G04 #@! TD*
G04 #@! TA.AperFunction,ComponentPad*
%ADD12R,1.700000X1.700000*%
G04 #@! TD*
G04 #@! TA.AperFunction,ComponentPad*
%ADD13O,1.700000X1.700000*%
G04 #@! TD*
G04 #@! TA.AperFunction,ComponentPad*
%ADD14RoundRect,0.250002X2.404160X0.000000X0.000000X2.404160X-2.404160X0.000000X0.000000X-2.404160X0*%
G04 #@! TD*
G04 #@! TA.AperFunction,ComponentPad*
%ADD15C,3.900000*%
G04 #@! TD*
G04 #@! TA.AperFunction,ComponentPad*
%ADD16O,1.000000X2.100000*%
G04 #@! TD*
G04 #@! TA.AperFunction,ComponentPad*
%ADD17O,1.000000X1.800000*%
G04 #@! TD*
G04 #@! TA.AperFunction,ComponentPad*
%ADD18C,2.000000*%
G04 #@! TD*
G04 #@! TA.AperFunction,ViaPad*
%ADD19C,0.600000*%
G04 #@! TD*
G04 #@! TA.AperFunction,ViaPad*
%ADD20C,0.550000*%
G04 #@! TD*
G04 #@! TA.AperFunction,Conductor*
%ADD21C,1.000000*%
G04 #@! TD*
G04 #@! TA.AperFunction,Conductor*
%ADD22C,0.200000*%
G04 #@! TD*
G04 #@! TA.AperFunction,Conductor*
%ADD23C,0.250000*%
G04 #@! TD*
G04 #@! TA.AperFunction,Conductor*
%ADD24C,0.600000*%
G04 #@! TD*
G04 #@! TA.AperFunction,Conductor*
%ADD25C,0.400000*%
G04 #@! TD*
G04 APERTURE END LIST*
D10*
G36*
X113547182Y-152495158D02*
G01*
X106950375Y-152495158D01*
X106950375Y-148124528D01*
X107505931Y-148124528D01*
X107571855Y-148380084D01*
X107767885Y-148558851D01*
X107974878Y-148603244D01*
X108218238Y-148537234D01*
X108330251Y-148449371D01*
X109098395Y-147683670D01*
X109785938Y-146891102D01*
X109755408Y-147632379D01*
X109755408Y-151426692D01*
X109811124Y-151682020D01*
X109985027Y-151871039D01*
X110223904Y-151939004D01*
X110251221Y-151939602D01*
X110497430Y-151882626D01*
X110679699Y-151703524D01*
X110745236Y-151455239D01*
X110745813Y-151426692D01*
X110745813Y-147632379D01*
X110715282Y-146891102D01*
X111402826Y-147683670D01*
X112168527Y-148449371D01*
X112383016Y-148581937D01*
X112523901Y-148603244D01*
X112769945Y-148537776D01*
X112946852Y-148339260D01*
X112991626Y-148124528D01*
X112925358Y-147881707D01*
X112837753Y-147769155D01*
X110616364Y-145540439D01*
X110396796Y-145413370D01*
X110281751Y-145393893D01*
X112520237Y-145393893D01*
X112768909Y-145325015D01*
X112936655Y-145144176D01*
X112991626Y-144915177D01*
X112925602Y-144666130D01*
X112749159Y-144493870D01*
X112520237Y-144436461D01*
X107980984Y-144436461D01*
X107731310Y-144505339D01*
X107561752Y-144686179D01*
X107505931Y-144915177D01*
X107572956Y-145164225D01*
X107751211Y-145336485D01*
X107980984Y-145393893D01*
X110219469Y-145393893D01*
X109975747Y-145469800D01*
X109884857Y-145540439D01*
X107659804Y-147769155D01*
X107527570Y-147982247D01*
X107505931Y-148124528D01*
X106950375Y-148124528D01*
X106950375Y-143880905D01*
X113547182Y-143880905D01*
X113547182Y-152495158D01*
G37*
D11*
X108225000Y-88975000D03*
X108225000Y-89675000D03*
X108225000Y-90375000D03*
X108225000Y-91075000D03*
X108925000Y-88975000D03*
X108925000Y-89675000D03*
X108925000Y-90375000D03*
X108925000Y-91075000D03*
X109625000Y-88975000D03*
X109625000Y-89675000D03*
X109625000Y-90375000D03*
X109625000Y-91075000D03*
X110325000Y-88975000D03*
X110325000Y-89675000D03*
X110325000Y-90375000D03*
X110325000Y-91075000D03*
X111350000Y-88975000D03*
X111350000Y-89675000D03*
X111350000Y-90375000D03*
X111350000Y-91075000D03*
X112250000Y-88975000D03*
X112250000Y-89675000D03*
X112250000Y-90375000D03*
X112250000Y-91075000D03*
X121876800Y-110876800D03*
X121876800Y-109676800D03*
X121276800Y-110276800D03*
X120676800Y-110876800D03*
X120676800Y-109676800D03*
D12*
X114800000Y-84250000D03*
D13*
X112260000Y-84250000D03*
X109720000Y-84250000D03*
X107180000Y-84250000D03*
X104640000Y-84250000D03*
D14*
X98000000Y-82000000D03*
D15*
X92484567Y-76484567D03*
D16*
X114570000Y-80725000D03*
D17*
X114570000Y-76525000D03*
D16*
X105930000Y-80725000D03*
D17*
X105930000Y-76525000D03*
D12*
X128850000Y-96890000D03*
D13*
X128850000Y-94350000D03*
X128850000Y-91810000D03*
D12*
X125575000Y-103350000D03*
D13*
X123035000Y-103350000D03*
X120495000Y-103350000D03*
D18*
X135000000Y-125100000D03*
X135000000Y-134000000D03*
D19*
X110000000Y-121000000D03*
X99000000Y-123000000D03*
X145000000Y-116000000D03*
X110000000Y-122000000D03*
X89000000Y-74000000D03*
X135000000Y-152000000D03*
X76000000Y-148000000D03*
X110800000Y-101950000D03*
X140000000Y-136000000D03*
X124300000Y-113000000D03*
X110900000Y-131400000D03*
X87000000Y-82000000D03*
X83000000Y-152000000D03*
X131900000Y-137400000D03*
D20*
X109600000Y-98000000D03*
D19*
X89000000Y-152000000D03*
X119200000Y-108300000D03*
X89000000Y-118000000D03*
X110000000Y-105000000D03*
X87000000Y-81000000D03*
X102000000Y-123000000D03*
X110000000Y-123000000D03*
X145000000Y-140000000D03*
D20*
X109600000Y-94000000D03*
D19*
X145000000Y-115000000D03*
X111900000Y-139400000D03*
X115000000Y-105000000D03*
X138000000Y-152000000D03*
X116900000Y-139400000D03*
X110900000Y-132400000D03*
X89000000Y-121000000D03*
X110800000Y-99950000D03*
X113900000Y-139400000D03*
X114900000Y-139400000D03*
X133400000Y-84000000D03*
X121200000Y-105500000D03*
X119900000Y-108800000D03*
D20*
X110800000Y-96000000D03*
D19*
X112900000Y-139400000D03*
X98000000Y-123000000D03*
X110900000Y-137400000D03*
X110900000Y-136400000D03*
X114847738Y-110300000D03*
X133400000Y-82000000D03*
X110900000Y-138400000D03*
X131900000Y-138400000D03*
X145000000Y-117000000D03*
X108000000Y-123000000D03*
X137000000Y-152000000D03*
X110800000Y-98950000D03*
X133400000Y-88000000D03*
X123900000Y-139400000D03*
X130300000Y-113000000D03*
X88000000Y-152000000D03*
D20*
X118000000Y-89000000D03*
D19*
X123300000Y-113000000D03*
X145000000Y-119000000D03*
X145000000Y-120000000D03*
X133400000Y-87000000D03*
X120900000Y-139400000D03*
X132000000Y-73000000D03*
X109000000Y-123000000D03*
X76000000Y-121000000D03*
X110900000Y-133400000D03*
X132000000Y-72000000D03*
X115800000Y-110300000D03*
X115800000Y-101950000D03*
X114000000Y-105000000D03*
X76000000Y-117000000D03*
X119900000Y-139400000D03*
X114800000Y-101950000D03*
X90000000Y-71500000D03*
X76000000Y-144000000D03*
X87000000Y-83000000D03*
X90000000Y-152000000D03*
X87000000Y-87000000D03*
X91000000Y-152000000D03*
D20*
X112866802Y-85981802D03*
D19*
X89000000Y-122000000D03*
X76000000Y-120000000D03*
D20*
X110800000Y-94000000D03*
D19*
X89000000Y-119000000D03*
X139000000Y-135000000D03*
X76000000Y-119000000D03*
X133400000Y-89000000D03*
X101000000Y-123000000D03*
X145000000Y-111000000D03*
X85000000Y-152000000D03*
X76000000Y-141000000D03*
X140000000Y-131000000D03*
X140000000Y-152000000D03*
X139000000Y-132000000D03*
X89000000Y-120000000D03*
X124900000Y-139400000D03*
X139000000Y-152000000D03*
X131000000Y-71500000D03*
X130300000Y-114000000D03*
X97000000Y-123000000D03*
X145000000Y-148000000D03*
X76000000Y-147000000D03*
X125000000Y-106500000D03*
X133400000Y-81000000D03*
X133000000Y-152000000D03*
X76000000Y-111000000D03*
X145000000Y-141000000D03*
X145000000Y-147000000D03*
D20*
X118000000Y-88000000D03*
D19*
X87000000Y-152000000D03*
X110000000Y-118000000D03*
D20*
X110800000Y-95000000D03*
D19*
X126300000Y-113000000D03*
X132000000Y-74000000D03*
X125300000Y-113000000D03*
X129900000Y-139400000D03*
X105000000Y-123000000D03*
X139000000Y-133000000D03*
D20*
X118000000Y-90000000D03*
D19*
X76000000Y-145000000D03*
X94000000Y-123000000D03*
X110800000Y-100950000D03*
X110900000Y-139400000D03*
X122750000Y-111750000D03*
X131900000Y-139400000D03*
X117900000Y-139400000D03*
X118900000Y-139400000D03*
X93000000Y-123000000D03*
X76000000Y-146000000D03*
X113000000Y-105000000D03*
X76000000Y-142000000D03*
X96000000Y-123000000D03*
D20*
X109600000Y-102000000D03*
D19*
X76000000Y-139000000D03*
X127300000Y-113000000D03*
X122900000Y-139400000D03*
X91000000Y-123000000D03*
X145000000Y-114000000D03*
X89000000Y-123000000D03*
D20*
X118000000Y-87000000D03*
D19*
X133400000Y-83000000D03*
X76000000Y-114000000D03*
X110900000Y-134400000D03*
X76000000Y-140000000D03*
X122300000Y-113000000D03*
X90000000Y-123000000D03*
X92000000Y-123000000D03*
X110000000Y-119000000D03*
X111800000Y-101950000D03*
X130900000Y-139400000D03*
X89000000Y-73000000D03*
X145000000Y-112000000D03*
D20*
X110800000Y-97000000D03*
D19*
X136000000Y-152000000D03*
X145000000Y-142000000D03*
X115900000Y-139400000D03*
X111000000Y-105000000D03*
X110000000Y-120000000D03*
X142000000Y-131000000D03*
X87000000Y-88000000D03*
D20*
X110800000Y-98000000D03*
D19*
X87000000Y-84000000D03*
X113800000Y-101950000D03*
X76000000Y-112000000D03*
X76000000Y-115000000D03*
X141000000Y-136000000D03*
X84000000Y-152000000D03*
X132000000Y-75000000D03*
X87000000Y-89000000D03*
X139000000Y-131000000D03*
X133400000Y-85000000D03*
X87000000Y-86000000D03*
X95000000Y-123000000D03*
X100000000Y-123000000D03*
X76000000Y-113000000D03*
X113850000Y-110300000D03*
X106000000Y-123000000D03*
X107000000Y-123000000D03*
X104000000Y-123000000D03*
X145000000Y-149000000D03*
X112800000Y-101950000D03*
X110900000Y-135400000D03*
X89000000Y-72000000D03*
X121200000Y-106400000D03*
X145000000Y-118000000D03*
X133400000Y-86000000D03*
X125000000Y-107400000D03*
X82000000Y-152000000D03*
X76000000Y-118000000D03*
X134000000Y-152000000D03*
X76000000Y-116000000D03*
X89000000Y-75000000D03*
D20*
X118000000Y-91000000D03*
D19*
X76000000Y-143000000D03*
X112000000Y-105000000D03*
X103000000Y-123000000D03*
D20*
X119000000Y-91000000D03*
D19*
X145000000Y-113000000D03*
X139000000Y-134000000D03*
X121900000Y-139400000D03*
X86000000Y-152000000D03*
X87000000Y-85000000D03*
X107400000Y-103350000D03*
X108500000Y-103350000D03*
X106300000Y-103350000D03*
X122600000Y-106000000D03*
X125000000Y-134000000D03*
X125000000Y-126000000D03*
X129000000Y-123000000D03*
X125000000Y-129000000D03*
X127000000Y-130000000D03*
X124000000Y-126000000D03*
X128000000Y-128900000D03*
X124000000Y-134000000D03*
X126000000Y-134000000D03*
X127000000Y-128000000D03*
X129000000Y-128900000D03*
X125000000Y-128000000D03*
X125000000Y-127000000D03*
X121950000Y-114100000D03*
X127000000Y-133000000D03*
X128000000Y-122000000D03*
X124000000Y-128000000D03*
X128000000Y-126000000D03*
X128000000Y-127900000D03*
X126000000Y-128000000D03*
X129000000Y-127900000D03*
X124000000Y-129000000D03*
X129000000Y-122000000D03*
X128000000Y-123000000D03*
X126000000Y-127000000D03*
X124000000Y-127000000D03*
X128000000Y-132900000D03*
X123000000Y-134000000D03*
X127000000Y-123000000D03*
X125000000Y-133000000D03*
X127000000Y-126000000D03*
X128000000Y-130900000D03*
X129000000Y-131900000D03*
X129000000Y-130900000D03*
X127000000Y-121000000D03*
X128000000Y-129900000D03*
X127000000Y-132000000D03*
X128000000Y-133900000D03*
X129000000Y-132900000D03*
X128000000Y-124000000D03*
X126000000Y-129000000D03*
X123000000Y-128000000D03*
X124000000Y-133000000D03*
X123000000Y-133000000D03*
X129000000Y-133900000D03*
X127000000Y-124000000D03*
X129000000Y-127000000D03*
X127000000Y-127000000D03*
X128000000Y-131900000D03*
X129000000Y-129900000D03*
X126000000Y-126000000D03*
X128000000Y-127000000D03*
X126000000Y-133000000D03*
X128000000Y-121000000D03*
X113400000Y-108950000D03*
X127000000Y-134000000D03*
X127000000Y-122000000D03*
X127000000Y-129000000D03*
X127000000Y-131000000D03*
X123000000Y-127000000D03*
X129000000Y-121000000D03*
X129000000Y-126000000D03*
X129000000Y-124000000D03*
D20*
X110774854Y-82954854D03*
X109498000Y-82952000D03*
X111502468Y-82972532D03*
X111005000Y-86020000D03*
X123650000Y-90900000D03*
X112454000Y-93102000D03*
X121400000Y-95100000D03*
X111952000Y-93598000D03*
X111450000Y-93102000D03*
X121400000Y-96350000D03*
D19*
X107850000Y-82360000D03*
X112650000Y-82385000D03*
D20*
X110250000Y-93102000D03*
X106350000Y-89650000D03*
X121150000Y-92500000D03*
D21*
X122600000Y-105050000D02*
X120900000Y-103350000D01*
X120900000Y-103350000D02*
X108500000Y-103350000D01*
X106300000Y-103350000D02*
X108500000Y-103350000D01*
X122600000Y-106000000D02*
X122600000Y-105050000D01*
D22*
X121950000Y-114100000D02*
X117550000Y-109700000D01*
X114150000Y-109700000D02*
X113400000Y-108950000D01*
X117550000Y-109700000D02*
X114150000Y-109700000D01*
X110774854Y-82954854D02*
X110772000Y-82952000D01*
X110772000Y-82952000D02*
X109498000Y-82952000D01*
D23*
X111005000Y-86020000D02*
X111000000Y-86015000D01*
X111000000Y-83475000D02*
X111502468Y-82972532D01*
X111000000Y-86015000D02*
X111000000Y-83475000D01*
D22*
X121448000Y-93102000D02*
X123650000Y-90900000D01*
X112454000Y-93102000D02*
X121448000Y-93102000D01*
X111952000Y-93598000D02*
X112004000Y-93650000D01*
X112004000Y-93650000D02*
X119950000Y-93650000D01*
X119950000Y-93650000D02*
X121400000Y-95100000D01*
X111450000Y-93102000D02*
X111450000Y-93805936D01*
X119150000Y-94100000D02*
X121400000Y-96350000D01*
X111450000Y-93805936D02*
X111744064Y-94100000D01*
X111744064Y-94100000D02*
X119150000Y-94100000D01*
D24*
X107850000Y-82360000D02*
X107960000Y-82250000D01*
X112515000Y-82250000D02*
X112650000Y-82385000D01*
X107960000Y-82250000D02*
X112515000Y-82250000D01*
D22*
X119550000Y-102550000D02*
X119900000Y-102200000D01*
X124425000Y-102200000D02*
X125575000Y-103350000D01*
X110250000Y-102150000D02*
X110650000Y-102550000D01*
X110650000Y-102550000D02*
X119550000Y-102550000D01*
X119900000Y-102200000D02*
X124425000Y-102200000D01*
X110250000Y-93102000D02*
X110250000Y-102150000D01*
D25*
X121150000Y-92500000D02*
X106850000Y-92500000D01*
X106850000Y-92500000D02*
X106350000Y-92000000D01*
X106350000Y-92000000D02*
X106350000Y-89650000D01*
G04 #@! TA.AperFunction,Conductor*
G36*
X116382874Y-67509073D02*
G01*
X117415090Y-67620931D01*
X117416828Y-67621141D01*
X118855101Y-67812582D01*
X118856877Y-67812841D01*
X120290056Y-68039289D01*
X120291700Y-68039569D01*
X121719034Y-68300910D01*
X121720707Y-68301238D01*
X123141106Y-68597269D01*
X123142848Y-68597653D01*
X124555728Y-68928254D01*
X124557324Y-68928648D01*
X125961694Y-69293588D01*
X125963367Y-69294044D01*
X127358376Y-69693100D01*
X127360023Y-69693593D01*
X128744910Y-70126546D01*
X128746578Y-70127089D01*
X129178808Y-70273876D01*
X130120460Y-70593664D01*
X130122162Y-70594265D01*
X131444475Y-71079593D01*
X131484249Y-71094191D01*
X131485932Y-71094833D01*
X132602684Y-71535894D01*
X132643389Y-71575274D01*
X132649500Y-71604720D01*
X132649500Y-78627841D01*
X132682873Y-78881338D01*
X132749049Y-79128309D01*
X132749051Y-79128316D01*
X132846892Y-79364526D01*
X132846895Y-79364534D01*
X132974736Y-79585961D01*
X132974740Y-79585967D01*
X133130390Y-79788813D01*
X133311186Y-79969609D01*
X133514032Y-80125259D01*
X133514038Y-80125263D01*
X133703959Y-80234914D01*
X133735465Y-80253104D01*
X133971687Y-80350950D01*
X134218660Y-80417126D01*
X134226161Y-80418113D01*
X134235158Y-80419298D01*
X134284208Y-80447616D01*
X134299500Y-80492665D01*
X134299500Y-89796057D01*
X134299519Y-89796357D01*
X134299540Y-90041786D01*
X134332155Y-90620739D01*
X134397282Y-91196913D01*
X134493908Y-91763776D01*
X134494716Y-91768516D01*
X134623475Y-92330799D01*
X134624150Y-92333745D01*
X134659424Y-92455773D01*
X134779789Y-92872174D01*
X134785172Y-92890794D01*
X134977262Y-93437877D01*
X134977266Y-93437887D01*
X135150969Y-93855765D01*
X135199836Y-93973323D01*
X135452169Y-94495391D01*
X135733468Y-95002436D01*
X135733473Y-95002445D01*
X135907817Y-95278812D01*
X136042844Y-95492856D01*
X136042848Y-95492862D01*
X136184886Y-95692253D01*
X136184888Y-95692263D01*
X136211059Y-95728993D01*
X136211058Y-95728993D01*
X136238676Y-95767755D01*
X136238677Y-95767756D01*
X143861668Y-106466692D01*
X143871854Y-106480987D01*
X143871855Y-106480989D01*
X143898850Y-106518878D01*
X143899999Y-106520538D01*
X144149948Y-106893097D01*
X144202401Y-106971281D01*
X144204622Y-106974803D01*
X144480604Y-107440850D01*
X144482624Y-107444492D01*
X144731952Y-107925323D01*
X144733764Y-107929072D01*
X144955649Y-108423162D01*
X144957248Y-108427007D01*
X145151003Y-108932826D01*
X145152382Y-108936755D01*
X145317364Y-109452630D01*
X145318521Y-109456630D01*
X145454236Y-109981012D01*
X145455165Y-109985071D01*
X145561161Y-110516222D01*
X145561861Y-110520327D01*
X145637817Y-111056630D01*
X145638284Y-111060768D01*
X145683951Y-111600449D01*
X145684186Y-111604606D01*
X145687061Y-111706787D01*
X145699471Y-112147725D01*
X145699500Y-112149755D01*
X145699500Y-120245148D01*
X145698867Y-120254808D01*
X145687158Y-120343741D01*
X145682158Y-120362399D01*
X145649705Y-120440749D01*
X145640047Y-120457477D01*
X145633015Y-120466643D01*
X145588419Y-120524760D01*
X145574760Y-120538419D01*
X145534209Y-120569535D01*
X145507477Y-120590047D01*
X145490749Y-120599705D01*
X145412399Y-120632158D01*
X145393741Y-120637158D01*
X145327068Y-120645936D01*
X145304806Y-120648867D01*
X145295149Y-120649500D01*
X144731233Y-120649500D01*
X144678907Y-120627826D01*
X144657941Y-120585712D01*
X144651995Y-120543039D01*
X144648296Y-120524760D01*
X144647009Y-120518398D01*
X144604352Y-120437499D01*
X144558827Y-120384496D01*
X144558822Y-120384490D01*
X144558820Y-120384488D01*
X144541315Y-120366466D01*
X144541310Y-120366462D01*
X144461696Y-120321474D01*
X144461688Y-120321470D01*
X144394736Y-120301494D01*
X144336884Y-120292919D01*
X144336870Y-120292918D01*
X143472692Y-120289160D01*
X143472667Y-120289160D01*
X143451076Y-120290206D01*
X143451052Y-120290207D01*
X143425135Y-120292834D01*
X143348812Y-120316147D01*
X143348809Y-120316148D01*
X143287219Y-120349146D01*
X143270347Y-120359561D01*
X143214436Y-120368602D01*
X143174792Y-120344157D01*
X143131927Y-120293073D01*
X143088270Y-120256440D01*
X143007876Y-120188981D01*
X143007873Y-120188979D01*
X142867627Y-120108008D01*
X142848411Y-120101014D01*
X142715451Y-120052620D01*
X142555974Y-120024500D01*
X142555971Y-120024500D01*
X142514562Y-120024500D01*
X139772595Y-120024500D01*
X139725000Y-120024500D01*
X139644029Y-120024500D01*
X139644025Y-120024500D01*
X139484548Y-120052620D01*
X139332375Y-120108007D01*
X139192123Y-120188981D01*
X139068077Y-120293068D01*
X139068072Y-120293073D01*
X139039174Y-120327511D01*
X138988935Y-120353662D01*
X138946081Y-120344368D01*
X138933984Y-120337532D01*
X138862483Y-120297126D01*
X138848913Y-120293077D01*
X138795529Y-120277149D01*
X138737678Y-120268574D01*
X138737662Y-120268573D01*
X121825440Y-120195042D01*
X121825413Y-120195044D01*
X121781294Y-120199642D01*
X121729237Y-120210849D01*
X121718625Y-120213430D01*
X121637916Y-120256439D01*
X121637912Y-120256441D01*
X121585115Y-120302191D01*
X121567155Y-120319788D01*
X121522510Y-120399601D01*
X121502825Y-120466638D01*
X121502824Y-120466643D01*
X121494500Y-120524537D01*
X121494500Y-134777411D01*
X121498951Y-134819936D01*
X121498953Y-134819949D01*
X121509579Y-134870167D01*
X121511712Y-134879229D01*
X121511712Y-134879230D01*
X121511713Y-134879231D01*
X121553802Y-134960427D01*
X121586905Y-134999519D01*
X121598939Y-135013730D01*
X121598969Y-135013765D01*
X121616339Y-135031899D01*
X121616342Y-135031902D01*
X121695647Y-135077453D01*
X121695650Y-135077454D01*
X121701800Y-135079336D01*
X121762458Y-135097898D01*
X121820256Y-135106880D01*
X130372256Y-135204061D01*
X130417133Y-135199622D01*
X130470053Y-135188424D01*
X130481373Y-135185692D01*
X130562085Y-135142682D01*
X130614889Y-135096927D01*
X130632843Y-135079336D01*
X130677490Y-134999519D01*
X130697175Y-134932480D01*
X130705500Y-134874582D01*
X130705500Y-129379500D01*
X130727174Y-129327174D01*
X130779500Y-129305500D01*
X142362277Y-129305500D01*
X142414603Y-129327174D01*
X142436277Y-129379500D01*
X142436153Y-129383775D01*
X142417854Y-129699993D01*
X142417854Y-129700006D01*
X142436758Y-130026687D01*
X142436759Y-130026694D01*
X142493223Y-130349025D01*
X142586492Y-130662692D01*
X142586497Y-130662707D01*
X142715326Y-130963519D01*
X142715330Y-130963528D01*
X142877994Y-131247463D01*
X143072330Y-131510747D01*
X143072333Y-131510751D01*
X143072336Y-131510754D01*
X143295749Y-131749867D01*
X143545253Y-131961612D01*
X143766555Y-132109179D01*
X143798064Y-132156241D01*
X143799500Y-132170746D01*
X143799500Y-137837535D01*
X143829898Y-138009937D01*
X143889773Y-138174441D01*
X143889774Y-138174443D01*
X143889775Y-138174445D01*
X143977308Y-138326055D01*
X144089837Y-138460163D01*
X144223945Y-138572692D01*
X144375555Y-138660225D01*
X144540062Y-138720101D01*
X144712468Y-138750500D01*
X144760438Y-138750500D01*
X145252405Y-138750500D01*
X145295149Y-138750500D01*
X145304807Y-138751132D01*
X145393743Y-138762841D01*
X145412396Y-138767840D01*
X145490753Y-138800296D01*
X145507472Y-138809948D01*
X145574760Y-138861580D01*
X145588418Y-138875238D01*
X145640049Y-138942525D01*
X145649705Y-138959250D01*
X145682158Y-139037600D01*
X145687158Y-139056258D01*
X145698867Y-139145191D01*
X145699500Y-139154851D01*
X145699500Y-148448375D01*
X145699430Y-148451603D01*
X145681757Y-148856364D01*
X145681194Y-148862795D01*
X145628525Y-149262855D01*
X145627404Y-149269213D01*
X145540066Y-149663169D01*
X145538395Y-149669404D01*
X145417057Y-150054240D01*
X145414849Y-150060307D01*
X145260428Y-150433111D01*
X145257700Y-150438961D01*
X145071377Y-150796884D01*
X145068149Y-150802475D01*
X144851339Y-151142799D01*
X144847636Y-151148087D01*
X144601994Y-151468215D01*
X144597844Y-151473161D01*
X144325230Y-151770666D01*
X144320666Y-151775230D01*
X144023161Y-152047844D01*
X144018215Y-152051994D01*
X143698087Y-152297636D01*
X143692799Y-152301339D01*
X143352475Y-152518149D01*
X143346884Y-152521377D01*
X142988961Y-152707700D01*
X142983111Y-152710428D01*
X142610307Y-152864849D01*
X142604240Y-152867057D01*
X142219404Y-152988395D01*
X142213169Y-152990066D01*
X141819213Y-153077404D01*
X141812855Y-153078525D01*
X141412795Y-153131194D01*
X141406364Y-153131757D01*
X141001603Y-153149430D01*
X140998375Y-153149500D01*
X79501625Y-153149500D01*
X79498397Y-153149430D01*
X79093635Y-153131757D01*
X79087204Y-153131194D01*
X78687144Y-153078525D01*
X78680786Y-153077404D01*
X78286830Y-152990066D01*
X78280595Y-152988395D01*
X77895759Y-152867057D01*
X77889692Y-152864849D01*
X77516888Y-152710428D01*
X77511038Y-152707700D01*
X77153115Y-152521377D01*
X77147524Y-152518149D01*
X76807200Y-152301339D01*
X76801912Y-152297636D01*
X76676265Y-152201224D01*
X76481775Y-152051987D01*
X76476847Y-152047851D01*
X76179330Y-151775227D01*
X76174769Y-151770666D01*
X75902146Y-151473150D01*
X75898014Y-151468226D01*
X75652360Y-151148084D01*
X75648660Y-151142799D01*
X75565564Y-151012365D01*
X75431849Y-150802474D01*
X75428622Y-150796884D01*
X75242299Y-150438961D01*
X75239571Y-150433111D01*
X75175717Y-150278954D01*
X75147248Y-150210223D01*
X96999500Y-150210223D01*
X97033984Y-150427948D01*
X97033987Y-150427961D01*
X97102103Y-150637602D01*
X97102104Y-150637605D01*
X97102105Y-150637606D01*
X97202185Y-150834022D01*
X97331758Y-151012365D01*
X97487635Y-151168242D01*
X97665978Y-151297815D01*
X97862394Y-151397895D01*
X97862397Y-151397896D01*
X97862396Y-151397896D01*
X98072038Y-151466012D01*
X98072044Y-151466013D01*
X98072049Y-151466015D01*
X98180913Y-151483257D01*
X98289776Y-151500500D01*
X98289778Y-151500500D01*
X98510224Y-151500500D01*
X98597313Y-151486706D01*
X98727951Y-151466015D01*
X98727958Y-151466012D01*
X98727961Y-151466012D01*
X98823133Y-151435088D01*
X98937606Y-151397895D01*
X99134022Y-151297815D01*
X99312365Y-151168242D01*
X99468242Y-151012365D01*
X99597815Y-150834022D01*
X99697895Y-150637606D01*
X99763369Y-150436095D01*
X99766012Y-150427961D01*
X99766012Y-150427958D01*
X99766015Y-150427951D01*
X99800500Y-150210222D01*
X99800500Y-149989778D01*
X99799342Y-149982468D01*
X99766015Y-149772051D01*
X99766012Y-149772038D01*
X99697896Y-149562397D01*
X99697895Y-149562396D01*
X99697895Y-149562394D01*
X99597815Y-149365978D01*
X99468242Y-149187635D01*
X99312365Y-149031758D01*
X99208441Y-148956253D01*
X99134024Y-148902186D01*
X98937602Y-148802103D01*
X98937603Y-148802103D01*
X98727961Y-148733987D01*
X98727948Y-148733984D01*
X98510224Y-148699500D01*
X98510222Y-148699500D01*
X98289778Y-148699500D01*
X98289776Y-148699500D01*
X98072051Y-148733984D01*
X98072038Y-148733987D01*
X97862397Y-148802103D01*
X97665976Y-148902186D01*
X97665975Y-148902186D01*
X97487639Y-149031755D01*
X97487635Y-149031758D01*
X97331758Y-149187635D01*
X97331755Y-149187638D01*
X97331755Y-149187639D01*
X97202186Y-149365975D01*
X97202186Y-149365976D01*
X97102103Y-149562397D01*
X97033987Y-149772038D01*
X97033984Y-149772051D01*
X96999500Y-149989776D01*
X96999500Y-150210223D01*
X75147248Y-150210223D01*
X75085145Y-150060295D01*
X75082946Y-150054252D01*
X74961601Y-149669395D01*
X74959933Y-149663169D01*
X74951249Y-149624000D01*
X74872594Y-149269212D01*
X74871474Y-149262855D01*
X74861571Y-149187635D01*
X74818804Y-148862790D01*
X74818242Y-148856364D01*
X74815161Y-148785807D01*
X74800570Y-148451603D01*
X74800500Y-148448375D01*
X74800500Y-143890905D01*
X106960375Y-143890905D01*
X106960375Y-152485158D01*
X113537182Y-152485158D01*
X113537182Y-149624000D01*
X141168672Y-149624000D01*
X141184231Y-149772038D01*
X141187932Y-149807243D01*
X141244865Y-149982464D01*
X141244866Y-149982466D01*
X141244867Y-149982468D01*
X141336991Y-150142032D01*
X141398389Y-150210222D01*
X141460278Y-150278956D01*
X141609332Y-150387250D01*
X141609337Y-150387253D01*
X141700769Y-150427961D01*
X141777655Y-150462193D01*
X141957876Y-150500500D01*
X141957877Y-150500500D01*
X142142123Y-150500500D01*
X142142124Y-150500500D01*
X142322345Y-150462193D01*
X142490664Y-150387252D01*
X142639724Y-150278954D01*
X142763009Y-150142032D01*
X142855133Y-149982468D01*
X142912069Y-149807238D01*
X142931328Y-149624000D01*
X142912069Y-149440762D01*
X142855133Y-149265532D01*
X142763009Y-149105968D01*
X142639724Y-148969046D01*
X142639723Y-148969045D01*
X142639721Y-148969043D01*
X142490667Y-148860749D01*
X142490662Y-148860746D01*
X142322346Y-148785807D01*
X142322344Y-148785806D01*
X142180430Y-148755642D01*
X142142124Y-148747500D01*
X141957876Y-148747500D01*
X141926284Y-148754214D01*
X141777655Y-148785806D01*
X141777653Y-148785807D01*
X141609337Y-148860746D01*
X141609332Y-148860749D01*
X141460278Y-148969043D01*
X141336991Y-149105967D01*
X141336989Y-149105970D01*
X141244865Y-149265535D01*
X141187932Y-149440756D01*
X141187931Y-149440760D01*
X141187931Y-149440762D01*
X141168672Y-149624000D01*
X113537182Y-149624000D01*
X113537182Y-144710223D01*
X141299500Y-144710223D01*
X141333984Y-144927948D01*
X141333987Y-144927961D01*
X141402103Y-145137602D01*
X141402104Y-145137605D01*
X141402105Y-145137606D01*
X141502185Y-145334022D01*
X141631758Y-145512365D01*
X141787635Y-145668242D01*
X141965978Y-145797815D01*
X142162394Y-145897895D01*
X142162397Y-145897896D01*
X142162396Y-145897896D01*
X142372038Y-145966012D01*
X142372044Y-145966013D01*
X142372049Y-145966015D01*
X142480913Y-145983257D01*
X142589776Y-146000500D01*
X142589778Y-146000500D01*
X142810224Y-146000500D01*
X142897313Y-145986706D01*
X143027951Y-145966015D01*
X143027958Y-145966012D01*
X143027961Y-145966012D01*
X143123133Y-145935088D01*
X143237606Y-145897895D01*
X143434022Y-145797815D01*
X143612365Y-145668242D01*
X143768242Y-145512365D01*
X143897815Y-145334022D01*
X143997895Y-145137606D01*
X144066015Y-144927951D01*
X144100500Y-144710222D01*
X144100500Y-144489778D01*
X144066015Y-144272049D01*
X144066013Y-144272044D01*
X144066012Y-144272038D01*
X143997896Y-144062397D01*
X143997895Y-144062396D01*
X143997895Y-144062394D01*
X143897815Y-143865978D01*
X143768242Y-143687635D01*
X143612365Y-143531758D01*
X143508441Y-143456253D01*
X143434024Y-143402186D01*
X143237602Y-143302103D01*
X143237603Y-143302103D01*
X143027961Y-143233987D01*
X143027948Y-143233984D01*
X142810224Y-143199500D01*
X142810222Y-143199500D01*
X142589778Y-143199500D01*
X142589776Y-143199500D01*
X142372051Y-143233984D01*
X142372038Y-143233987D01*
X142162397Y-143302103D01*
X141965976Y-143402186D01*
X141965975Y-143402186D01*
X141787639Y-143531755D01*
X141787635Y-143531758D01*
X141631758Y-143687635D01*
X141631755Y-143687638D01*
X141631755Y-143687639D01*
X141502186Y-143865975D01*
X141502186Y-143865976D01*
X141402103Y-144062397D01*
X141333987Y-144272038D01*
X141333984Y-144272051D01*
X141299500Y-144489776D01*
X141299500Y-144710223D01*
X113537182Y-144710223D01*
X113537182Y-143890905D01*
X106960375Y-143890905D01*
X74800500Y-143890905D01*
X74800500Y-138530974D01*
X138799500Y-138530974D01*
X138827620Y-138690451D01*
X138849707Y-138751133D01*
X138883008Y-138842627D01*
X138963979Y-138982873D01*
X138963981Y-138982876D01*
X139030767Y-139062468D01*
X139068073Y-139106927D01*
X139192127Y-139211021D01*
X139332373Y-139291992D01*
X139484548Y-139347379D01*
X139644029Y-139375500D01*
X139644033Y-139375500D01*
X142555967Y-139375500D01*
X142555971Y-139375500D01*
X142715452Y-139347379D01*
X142867627Y-139291992D01*
X143007873Y-139211021D01*
X143131927Y-139106927D01*
X143236021Y-138982873D01*
X143316992Y-138842627D01*
X143372379Y-138690452D01*
X143400500Y-138530971D01*
X143400500Y-138450000D01*
X143400500Y-138402405D01*
X143400500Y-138369029D01*
X143372379Y-138209548D01*
X143316992Y-138057373D01*
X143236021Y-137917127D01*
X143131927Y-137793073D01*
X143080595Y-137750000D01*
X143007876Y-137688981D01*
X143007873Y-137688979D01*
X142867627Y-137608008D01*
X142848411Y-137601014D01*
X142715451Y-137552620D01*
X142555974Y-137524500D01*
X142555971Y-137524500D01*
X142514562Y-137524500D01*
X139772595Y-137524500D01*
X139725000Y-137524500D01*
X139644029Y-137524500D01*
X139644025Y-137524500D01*
X139484548Y-137552620D01*
X139332375Y-137608007D01*
X139192123Y-137688981D01*
X139068077Y-137793069D01*
X139068069Y-137793077D01*
X138963981Y-137917123D01*
X138883007Y-138057375D01*
X138827620Y-138209548D01*
X138799500Y-138369025D01*
X138799500Y-138530974D01*
X74800500Y-138530974D01*
X74800500Y-112160600D01*
X74800529Y-112158511D01*
X74815900Y-111614212D01*
X74816136Y-111610041D01*
X74862112Y-111068533D01*
X74862582Y-111064393D01*
X74863686Y-111056630D01*
X74939045Y-110526349D01*
X74939748Y-110522240D01*
X75017047Y-110136224D01*
X75046461Y-109989336D01*
X75047386Y-109985311D01*
X75184007Y-109459271D01*
X75185158Y-109455301D01*
X75351249Y-108937810D01*
X75352625Y-108933907D01*
X75461775Y-108650000D01*
X77218672Y-108650000D01*
X77236726Y-108821776D01*
X77237932Y-108833243D01*
X77294865Y-109008464D01*
X77294866Y-109008466D01*
X77294867Y-109008468D01*
X77386991Y-109168032D01*
X77500381Y-109293965D01*
X77510278Y-109304956D01*
X77659332Y-109413250D01*
X77659337Y-109413253D01*
X77799899Y-109475835D01*
X77827655Y-109488193D01*
X78007876Y-109526500D01*
X78007877Y-109526500D01*
X78192123Y-109526500D01*
X78192124Y-109526500D01*
X78372345Y-109488193D01*
X78540664Y-109413252D01*
X78689724Y-109304954D01*
X78813009Y-109168032D01*
X78905133Y-109008468D01*
X78924131Y-108950000D01*
X112944867Y-108950000D01*
X112963302Y-109078223D01*
X112963302Y-109078224D01*
X112963303Y-109078226D01*
X113017118Y-109196063D01*
X113101951Y-109293967D01*
X113210931Y-109364004D01*
X113335228Y-109400500D01*
X113465587Y-109400500D01*
X113517913Y-109422174D01*
X113937636Y-109841897D01*
X114008103Y-109912364D01*
X114100172Y-109950500D01*
X117415587Y-109950500D01*
X117467913Y-109972174D01*
X121481354Y-113985614D01*
X121503028Y-114037940D01*
X121502275Y-114048470D01*
X121494867Y-114099999D01*
X121513302Y-114228223D01*
X121513302Y-114228224D01*
X121513303Y-114228226D01*
X121567118Y-114346063D01*
X121651951Y-114443967D01*
X121760931Y-114514004D01*
X121885228Y-114550500D01*
X122014772Y-114550500D01*
X122139069Y-114514004D01*
X122248049Y-114443967D01*
X122332882Y-114346063D01*
X122386697Y-114228226D01*
X122405133Y-114100000D01*
X122386697Y-113971774D01*
X122332882Y-113853937D01*
X122248049Y-113756033D01*
X122181032Y-113712964D01*
X122139068Y-113685995D01*
X122014772Y-113649500D01*
X121885228Y-113649500D01*
X121884412Y-113649500D01*
X121832086Y-113627826D01*
X117691897Y-109487636D01*
X117691894Y-109487634D01*
X117599828Y-109449500D01*
X114284413Y-109449500D01*
X114232087Y-109427826D01*
X113868644Y-109064383D01*
X113846970Y-109012057D01*
X113847721Y-109001542D01*
X113855133Y-108950000D01*
X113836697Y-108821774D01*
X113782882Y-108703937D01*
X113736146Y-108650000D01*
X141518672Y-108650000D01*
X141536726Y-108821776D01*
X141537932Y-108833243D01*
X141594865Y-109008464D01*
X141594866Y-109008466D01*
X141594867Y-109008468D01*
X141686991Y-109168032D01*
X141800381Y-109293965D01*
X141810278Y-109304956D01*
X141959332Y-109413250D01*
X141959337Y-109413253D01*
X142099899Y-109475835D01*
X142127655Y-109488193D01*
X142307876Y-109526500D01*
X142307877Y-109526500D01*
X142492123Y-109526500D01*
X142492124Y-109526500D01*
X142672345Y-109488193D01*
X142840664Y-109413252D01*
X142989724Y-109304954D01*
X143113009Y-109168032D01*
X143205133Y-109008468D01*
X143262069Y-108833238D01*
X143281328Y-108650000D01*
X143262069Y-108466762D01*
X143205133Y-108291532D01*
X143113009Y-108131968D01*
X142989724Y-107995046D01*
X142989723Y-107995045D01*
X142989721Y-107995043D01*
X142840667Y-107886749D01*
X142840662Y-107886746D01*
X142672346Y-107811807D01*
X142672344Y-107811806D01*
X142530430Y-107781642D01*
X142492124Y-107773500D01*
X142307876Y-107773500D01*
X142276284Y-107780214D01*
X142127655Y-107811806D01*
X142127653Y-107811807D01*
X141959337Y-107886746D01*
X141959332Y-107886749D01*
X141810278Y-107995043D01*
X141686991Y-108131967D01*
X141686989Y-108131970D01*
X141594865Y-108291535D01*
X141537932Y-108466756D01*
X141537931Y-108466760D01*
X141537931Y-108466762D01*
X141518672Y-108650000D01*
X113736146Y-108650000D01*
X113698049Y-108606033D01*
X113602412Y-108544571D01*
X113589068Y-108535995D01*
X113464772Y-108499500D01*
X113335228Y-108499500D01*
X113210931Y-108535995D01*
X113101954Y-108606031D01*
X113101950Y-108606034D01*
X113017119Y-108703935D01*
X112963302Y-108821776D01*
X112944867Y-108950000D01*
X78924131Y-108950000D01*
X78962069Y-108833238D01*
X78981328Y-108650000D01*
X78962069Y-108466762D01*
X78905133Y-108291532D01*
X78813009Y-108131968D01*
X78689724Y-107995046D01*
X78689723Y-107995045D01*
X78689721Y-107995043D01*
X78540667Y-107886749D01*
X78540662Y-107886746D01*
X78372346Y-107811807D01*
X78372344Y-107811806D01*
X78230430Y-107781642D01*
X78192124Y-107773500D01*
X78007876Y-107773500D01*
X77976284Y-107780214D01*
X77827655Y-107811806D01*
X77827653Y-107811807D01*
X77659337Y-107886746D01*
X77659332Y-107886749D01*
X77510278Y-107995043D01*
X77386991Y-108131967D01*
X77386989Y-108131970D01*
X77294865Y-108291535D01*
X77237932Y-108466756D01*
X77237931Y-108466760D01*
X77237931Y-108466762D01*
X77218672Y-108650000D01*
X75461775Y-108650000D01*
X75547649Y-108426635D01*
X75549242Y-108422814D01*
X75772608Y-107927305D01*
X75774393Y-107923625D01*
X76025363Y-107441521D01*
X76027369Y-107437918D01*
X76305140Y-106970758D01*
X76307355Y-106967263D01*
X76611675Y-106515593D01*
X76612774Y-106514010D01*
X76639890Y-106476120D01*
X76639890Y-106476117D01*
X76646629Y-106466701D01*
X76646631Y-106466696D01*
X78831131Y-103414069D01*
X105649500Y-103414069D01*
X105653939Y-103436383D01*
X105674497Y-103539739D01*
X105674498Y-103539742D01*
X105674499Y-103539744D01*
X105723535Y-103658127D01*
X105794724Y-103764669D01*
X105885331Y-103855276D01*
X105991873Y-103926465D01*
X106110256Y-103975501D01*
X106110258Y-103975501D01*
X106110260Y-103975502D01*
X106152903Y-103983984D01*
X106235931Y-104000500D01*
X108435931Y-104000500D01*
X119699562Y-104000500D01*
X119751888Y-104022174D01*
X119756765Y-104027555D01*
X119784113Y-104060879D01*
X119784114Y-104060880D01*
X119784115Y-104060881D01*
X119784117Y-104060883D01*
X119936462Y-104185910D01*
X119990547Y-104214819D01*
X120110268Y-104278812D01*
X120110270Y-104278812D01*
X120110273Y-104278814D01*
X120298868Y-104336024D01*
X120495000Y-104355341D01*
X120691132Y-104336024D01*
X120859641Y-104284907D01*
X120916005Y-104290458D01*
X120933448Y-104303394D01*
X121927826Y-105297772D01*
X121949500Y-105350098D01*
X121949500Y-106064067D01*
X121974497Y-106189739D01*
X121974498Y-106189742D01*
X121974499Y-106189744D01*
X122023535Y-106308127D01*
X122071207Y-106379473D01*
X122086003Y-106401618D01*
X122094724Y-106414669D01*
X122185331Y-106505276D01*
X122291873Y-106576465D01*
X122410256Y-106625501D01*
X122410258Y-106625501D01*
X122410260Y-106625502D01*
X122452903Y-106633984D01*
X122535931Y-106650500D01*
X122535933Y-106650500D01*
X122664067Y-106650500D01*
X122664069Y-106650500D01*
X122789744Y-106625501D01*
X122908127Y-106576465D01*
X123014669Y-106505276D01*
X123105276Y-106414669D01*
X123176465Y-106308127D01*
X123225501Y-106189744D01*
X123250500Y-106064069D01*
X123250500Y-104985931D01*
X123225501Y-104860256D01*
X123176465Y-104741873D01*
X123105277Y-104635331D01*
X122948616Y-104478670D01*
X122926942Y-104426344D01*
X122948616Y-104374018D01*
X123000942Y-104352344D01*
X123008173Y-104352698D01*
X123035000Y-104355341D01*
X123231132Y-104336024D01*
X123419727Y-104278814D01*
X123593538Y-104185910D01*
X123745883Y-104060883D01*
X123870910Y-103908538D01*
X123963814Y-103734727D01*
X124021024Y-103546132D01*
X124040341Y-103350000D01*
X124021024Y-103153868D01*
X123963814Y-102965273D01*
X123963812Y-102965270D01*
X123963812Y-102965268D01*
X123899379Y-102844724D01*
X123870910Y-102791462D01*
X123745883Y-102639117D01*
X123675922Y-102581701D01*
X123649225Y-102531753D01*
X123665667Y-102477554D01*
X123715616Y-102450856D01*
X123722869Y-102450500D01*
X124290587Y-102450500D01*
X124342913Y-102472174D01*
X124552826Y-102682086D01*
X124574500Y-102734412D01*
X124574500Y-104214819D01*
X124583233Y-104258722D01*
X124613081Y-104303394D01*
X124616496Y-104308504D01*
X124666278Y-104341767D01*
X124710180Y-104350500D01*
X124710181Y-104350500D01*
X126439819Y-104350500D01*
X126439820Y-104350500D01*
X126483722Y-104341767D01*
X126533504Y-104308504D01*
X126566767Y-104258722D01*
X126575500Y-104214820D01*
X126575500Y-102485180D01*
X126566767Y-102441278D01*
X126533504Y-102391496D01*
X126483722Y-102358233D01*
X126439820Y-102349500D01*
X126439819Y-102349500D01*
X124959413Y-102349500D01*
X124907087Y-102327826D01*
X124566898Y-101987637D01*
X124566894Y-101987634D01*
X124474828Y-101949500D01*
X119958448Y-101949500D01*
X119958440Y-101949499D01*
X119949828Y-101949499D01*
X119850172Y-101949499D01*
X119785069Y-101976465D01*
X119785067Y-101976466D01*
X119785066Y-101976465D01*
X119758102Y-101987636D01*
X119467913Y-102277826D01*
X119415587Y-102299500D01*
X110784413Y-102299500D01*
X110732087Y-102277826D01*
X110522174Y-102067913D01*
X110500500Y-102015587D01*
X110500500Y-101410223D01*
X134649500Y-101410223D01*
X134683984Y-101627948D01*
X134683987Y-101627961D01*
X134752103Y-101837602D01*
X134752104Y-101837605D01*
X134752105Y-101837606D01*
X134828550Y-101987637D01*
X134852186Y-102034023D01*
X134852186Y-102034024D01*
X134906253Y-102108441D01*
X134981758Y-102212365D01*
X135137635Y-102368242D01*
X135315978Y-102497815D01*
X135512394Y-102597895D01*
X135512397Y-102597896D01*
X135512396Y-102597896D01*
X135722038Y-102666012D01*
X135722044Y-102666013D01*
X135722049Y-102666015D01*
X135823517Y-102682086D01*
X135939776Y-102700500D01*
X135939778Y-102700500D01*
X136160224Y-102700500D01*
X136247313Y-102686706D01*
X136377951Y-102666015D01*
X136377958Y-102666012D01*
X136377961Y-102666012D01*
X136502645Y-102625500D01*
X136587606Y-102597895D01*
X136784022Y-102497815D01*
X136962365Y-102368242D01*
X137118242Y-102212365D01*
X137247815Y-102034022D01*
X137347895Y-101837606D01*
X137416015Y-101627951D01*
X137450500Y-101410222D01*
X137450500Y-101189778D01*
X137416015Y-100972049D01*
X137416013Y-100972044D01*
X137416012Y-100972038D01*
X137347896Y-100762397D01*
X137347895Y-100762396D01*
X137347895Y-100762394D01*
X137247815Y-100565978D01*
X137118242Y-100387635D01*
X136962365Y-100231758D01*
X136858441Y-100156253D01*
X136784024Y-100102186D01*
X136587602Y-100002103D01*
X136587603Y-100002103D01*
X136377961Y-99933987D01*
X136377948Y-99933984D01*
X136160224Y-99899500D01*
X136160222Y-99899500D01*
X135939778Y-99899500D01*
X135939776Y-99899500D01*
X135722051Y-99933984D01*
X135722038Y-99933987D01*
X135512397Y-100002103D01*
X135315976Y-100102186D01*
X135315975Y-100102186D01*
X135137639Y-100231755D01*
X135137635Y-100231758D01*
X134981758Y-100387635D01*
X134981755Y-100387638D01*
X134981755Y-100387639D01*
X134852186Y-100565975D01*
X134852186Y-100565976D01*
X134752103Y-100762397D01*
X134683987Y-100972038D01*
X134683984Y-100972051D01*
X134649500Y-101189776D01*
X134649500Y-101410223D01*
X110500500Y-101410223D01*
X110500500Y-97754820D01*
X127849500Y-97754820D01*
X127858233Y-97798722D01*
X127891496Y-97848504D01*
X127941278Y-97881767D01*
X127985180Y-97890500D01*
X127985181Y-97890500D01*
X129714819Y-97890500D01*
X129714820Y-97890500D01*
X129758722Y-97881767D01*
X129808504Y-97848504D01*
X129841767Y-97798722D01*
X129850500Y-97754820D01*
X129850500Y-96025180D01*
X129841767Y-95981278D01*
X129808504Y-95931496D01*
X129758722Y-95898233D01*
X129714820Y-95889500D01*
X127985180Y-95889500D01*
X127963229Y-95893866D01*
X127941277Y-95898233D01*
X127891496Y-95931495D01*
X127891495Y-95931496D01*
X127858233Y-95981277D01*
X127858233Y-95981278D01*
X127849500Y-96025180D01*
X127849500Y-97754820D01*
X110500500Y-97754820D01*
X110500500Y-93483900D01*
X110522174Y-93431574D01*
X110554248Y-93399500D01*
X110598528Y-93355220D01*
X110659719Y-93235126D01*
X110680804Y-93102000D01*
X110659719Y-92968874D01*
X110654225Y-92958093D01*
X110649783Y-92901632D01*
X110686566Y-92858565D01*
X110720161Y-92850500D01*
X110979839Y-92850500D01*
X111032165Y-92872174D01*
X111053839Y-92924500D01*
X111045774Y-92958092D01*
X111042134Y-92965238D01*
X111040280Y-92968876D01*
X111019196Y-93102000D01*
X111040280Y-93235126D01*
X111101471Y-93355219D01*
X111177826Y-93431574D01*
X111199500Y-93483900D01*
X111199500Y-93855765D01*
X111237634Y-93947830D01*
X111237635Y-93947832D01*
X111237636Y-93947833D01*
X111531700Y-94241897D01*
X111602167Y-94312364D01*
X111694236Y-94350500D01*
X119015587Y-94350500D01*
X119067913Y-94372174D01*
X120953000Y-96257260D01*
X120974674Y-96309586D01*
X120973763Y-96321161D01*
X120969196Y-96349999D01*
X120990280Y-96483126D01*
X121051471Y-96603219D01*
X121051472Y-96603220D01*
X121146780Y-96698528D01*
X121266873Y-96759718D01*
X121266873Y-96759719D01*
X121285075Y-96762601D01*
X121400000Y-96780804D01*
X121533126Y-96759719D01*
X121653220Y-96698528D01*
X121748528Y-96603220D01*
X121809719Y-96483126D01*
X121830804Y-96350000D01*
X121809719Y-96216874D01*
X121809719Y-96216873D01*
X121748528Y-96096780D01*
X121653219Y-96001471D01*
X121533126Y-95940281D01*
X121533126Y-95940280D01*
X121400000Y-95919196D01*
X121399999Y-95919196D01*
X121371161Y-95923763D01*
X121316089Y-95910540D01*
X121307260Y-95903000D01*
X119431087Y-94026826D01*
X119409413Y-93974500D01*
X119431087Y-93922174D01*
X119483413Y-93900500D01*
X119815587Y-93900500D01*
X119867913Y-93922174D01*
X120953000Y-95007260D01*
X120974674Y-95059586D01*
X120973763Y-95071161D01*
X120969196Y-95099999D01*
X120990280Y-95233126D01*
X121042710Y-95336024D01*
X121051472Y-95353220D01*
X121146780Y-95448528D01*
X121266873Y-95509718D01*
X121266873Y-95509719D01*
X121285075Y-95512601D01*
X121400000Y-95530804D01*
X121533126Y-95509719D01*
X121653220Y-95448528D01*
X121748528Y-95353220D01*
X121809719Y-95233126D01*
X121830804Y-95100000D01*
X121809719Y-94966874D01*
X121809719Y-94966873D01*
X121748528Y-94846780D01*
X121653219Y-94751471D01*
X121533126Y-94690281D01*
X121533126Y-94690280D01*
X121400000Y-94669196D01*
X121399999Y-94669196D01*
X121371161Y-94673763D01*
X121316089Y-94660540D01*
X121307260Y-94653000D01*
X121004260Y-94350000D01*
X127844659Y-94350000D01*
X127863976Y-94546133D01*
X127921187Y-94734731D01*
X128008776Y-94898597D01*
X128014090Y-94908538D01*
X128139117Y-95060883D01*
X128291462Y-95185910D01*
X128368426Y-95227048D01*
X128465268Y-95278812D01*
X128465270Y-95278812D01*
X128465273Y-95278814D01*
X128653868Y-95336024D01*
X128850000Y-95355341D01*
X129046132Y-95336024D01*
X129234727Y-95278814D01*
X129408538Y-95185910D01*
X129560883Y-95060883D01*
X129685910Y-94908538D01*
X129778814Y-94734727D01*
X129836024Y-94546132D01*
X129855341Y-94350000D01*
X129836024Y-94153868D01*
X129778814Y-93965273D01*
X129778812Y-93965270D01*
X129778812Y-93965268D01*
X129720280Y-93855764D01*
X129685910Y-93791462D01*
X129560883Y-93639117D01*
X129408538Y-93514090D01*
X129342564Y-93478826D01*
X129234731Y-93421187D01*
X129046133Y-93363976D01*
X128850000Y-93344659D01*
X128653866Y-93363976D01*
X128465268Y-93421187D01*
X128291463Y-93514089D01*
X128139117Y-93639117D01*
X128014089Y-93791463D01*
X127921187Y-93965268D01*
X127863976Y-94153866D01*
X127844659Y-94350000D01*
X121004260Y-94350000D01*
X120133087Y-93478826D01*
X120111413Y-93426500D01*
X120133087Y-93374174D01*
X120185413Y-93352500D01*
X121497827Y-93352500D01*
X121497828Y-93352500D01*
X121589897Y-93314364D01*
X122594260Y-92310000D01*
X127593593Y-92310000D01*
X127676401Y-92487579D01*
X127811888Y-92681075D01*
X127978924Y-92848111D01*
X128172420Y-92983598D01*
X128350000Y-93066405D01*
X128350000Y-92310000D01*
X127593593Y-92310000D01*
X122594260Y-92310000D01*
X123028434Y-91875826D01*
X128350000Y-91875826D01*
X128384075Y-92002993D01*
X128449901Y-92117007D01*
X128542993Y-92210099D01*
X128657007Y-92275925D01*
X128784174Y-92310000D01*
X128915826Y-92310000D01*
X129350000Y-92310000D01*
X129350000Y-93066405D01*
X129527579Y-92983598D01*
X129721075Y-92848111D01*
X129888111Y-92681075D01*
X130023598Y-92487579D01*
X130106407Y-92310000D01*
X129350000Y-92310000D01*
X128915826Y-92310000D01*
X129042993Y-92275925D01*
X129157007Y-92210099D01*
X129250099Y-92117007D01*
X129315925Y-92002993D01*
X129350000Y-91875826D01*
X129350000Y-91744174D01*
X129315925Y-91617007D01*
X129250099Y-91502993D01*
X129157007Y-91409901D01*
X129042993Y-91344075D01*
X128915826Y-91310000D01*
X128784174Y-91310000D01*
X128657007Y-91344075D01*
X128542993Y-91409901D01*
X128449901Y-91502993D01*
X128384075Y-91617007D01*
X128350000Y-91744174D01*
X128350000Y-91875826D01*
X123028434Y-91875826D01*
X123557261Y-91346998D01*
X123609586Y-91325325D01*
X123621156Y-91326235D01*
X123650000Y-91330804D01*
X123781352Y-91310000D01*
X127593594Y-91310000D01*
X128350000Y-91310000D01*
X128350000Y-90553593D01*
X129350000Y-90553593D01*
X129350000Y-91310000D01*
X130106405Y-91310000D01*
X130023598Y-91132421D01*
X129888109Y-90938921D01*
X129721075Y-90771888D01*
X129721076Y-90771888D01*
X129527579Y-90636401D01*
X129350000Y-90553593D01*
X128350000Y-90553593D01*
X128172421Y-90636401D01*
X127978921Y-90771890D01*
X127811890Y-90938921D01*
X127676401Y-91132421D01*
X127593594Y-91310000D01*
X123781352Y-91310000D01*
X123783126Y-91309719D01*
X123903220Y-91248528D01*
X123998528Y-91153220D01*
X124059719Y-91033126D01*
X124080804Y-90900000D01*
X124062601Y-90785075D01*
X124059719Y-90766873D01*
X123998528Y-90646780D01*
X123903219Y-90551471D01*
X123783126Y-90490281D01*
X123783126Y-90490280D01*
X123650000Y-90469196D01*
X123516873Y-90490280D01*
X123516873Y-90490281D01*
X123396780Y-90551471D01*
X123301471Y-90646780D01*
X123240281Y-90766873D01*
X123240280Y-90766873D01*
X123219196Y-90900000D01*
X123219196Y-90900003D01*
X123223762Y-90928839D01*
X123210539Y-90983910D01*
X123202999Y-90992738D01*
X121699214Y-92496523D01*
X121646888Y-92518197D01*
X121594562Y-92496523D01*
X121573799Y-92455773D01*
X121571733Y-92442727D01*
X121559719Y-92366874D01*
X121498528Y-92246780D01*
X121403220Y-92151472D01*
X121403219Y-92151471D01*
X121283126Y-92090281D01*
X121283126Y-92090280D01*
X121150000Y-92069196D01*
X121016873Y-92090281D01*
X120916478Y-92141435D01*
X120882883Y-92149500D01*
X117754500Y-92149500D01*
X117702174Y-92127826D01*
X117680500Y-92075500D01*
X117680500Y-87524001D01*
X117668664Y-87464498D01*
X117668663Y-87464497D01*
X117668663Y-87464493D01*
X117646989Y-87412167D01*
X117646983Y-87412156D01*
X117626694Y-87377013D01*
X117626692Y-87377011D01*
X117562835Y-87328012D01*
X117562831Y-87328010D01*
X117510511Y-87306338D01*
X117510501Y-87306335D01*
X117470654Y-87298409D01*
X117451000Y-87294500D01*
X114228857Y-87294500D01*
X114172367Y-87305124D01*
X114172364Y-87305124D01*
X114172364Y-87305125D01*
X114157168Y-87311050D01*
X114122268Y-87324659D01*
X114073497Y-87355081D01*
X112923101Y-88413164D01*
X112873006Y-88432698D01*
X110974000Y-88432698D01*
X110957131Y-88436053D01*
X110914498Y-88444533D01*
X110914488Y-88444536D01*
X110862173Y-88466206D01*
X110862156Y-88466214D01*
X110827013Y-88486503D01*
X110827011Y-88486505D01*
X110778012Y-88550362D01*
X110778010Y-88550366D01*
X110756338Y-88602686D01*
X110756335Y-88602696D01*
X110744500Y-88662199D01*
X110744500Y-91514196D01*
X110756335Y-91573699D01*
X110756338Y-91573709D01*
X110778008Y-91626024D01*
X110778016Y-91626041D01*
X110798305Y-91661184D01*
X110798307Y-91661186D01*
X110798308Y-91661187D01*
X110862167Y-91710187D01*
X110914493Y-91731861D01*
X110974000Y-91743698D01*
X112865094Y-91743698D01*
X112917420Y-91765372D01*
X112918306Y-91766273D01*
X112920470Y-91768514D01*
X113167321Y-92024091D01*
X113188083Y-92076785D01*
X113165503Y-92128727D01*
X113114094Y-92149500D01*
X107025834Y-92149500D01*
X106973508Y-92127826D01*
X106722174Y-91876492D01*
X106700500Y-91824166D01*
X106700500Y-89917113D01*
X106708565Y-89883520D01*
X106759719Y-89783126D01*
X106780804Y-89650000D01*
X106759719Y-89516874D01*
X106759719Y-89516873D01*
X106698528Y-89396780D01*
X106603219Y-89301471D01*
X106483126Y-89240281D01*
X106483126Y-89240280D01*
X106350000Y-89219196D01*
X106216873Y-89240280D01*
X106216873Y-89240281D01*
X106096780Y-89301471D01*
X106001471Y-89396780D01*
X105940281Y-89516873D01*
X105940280Y-89516873D01*
X105919196Y-89650000D01*
X105940280Y-89783124D01*
X105940280Y-89783125D01*
X105940281Y-89783126D01*
X105991434Y-89883520D01*
X105999500Y-89917113D01*
X105999500Y-92046146D01*
X106023292Y-92134936D01*
X106023302Y-92135016D01*
X106023313Y-92135014D01*
X106023386Y-92135288D01*
X106069530Y-92215212D01*
X106634788Y-92780470D01*
X106714712Y-92826614D01*
X106714713Y-92826614D01*
X106714715Y-92826615D01*
X106759284Y-92838557D01*
X106803853Y-92850499D01*
X106803854Y-92850500D01*
X106803856Y-92850500D01*
X106896144Y-92850500D01*
X109779839Y-92850500D01*
X109832165Y-92872174D01*
X109853839Y-92924500D01*
X109845774Y-92958092D01*
X109842134Y-92965238D01*
X109840280Y-92968876D01*
X109819196Y-93102000D01*
X109840280Y-93235126D01*
X109901471Y-93355219D01*
X109977826Y-93431574D01*
X109999500Y-93483900D01*
X109999500Y-102199829D01*
X110037634Y-102291894D01*
X110037637Y-102291898D01*
X110318913Y-102573174D01*
X110340587Y-102625500D01*
X110318913Y-102677826D01*
X110266587Y-102699500D01*
X108564069Y-102699500D01*
X106235931Y-102699500D01*
X106204726Y-102705707D01*
X106110260Y-102724497D01*
X106110257Y-102724498D01*
X105991876Y-102773533D01*
X105885331Y-102844723D01*
X105885330Y-102844725D01*
X105794725Y-102935330D01*
X105794723Y-102935331D01*
X105723533Y-103041876D01*
X105674498Y-103160257D01*
X105674497Y-103160260D01*
X105653043Y-103268117D01*
X105649500Y-103285931D01*
X105649500Y-103414069D01*
X78831131Y-103414069D01*
X80265109Y-101410223D01*
X83049500Y-101410223D01*
X83083984Y-101627948D01*
X83083987Y-101627961D01*
X83152103Y-101837602D01*
X83152104Y-101837605D01*
X83152105Y-101837606D01*
X83228550Y-101987637D01*
X83252186Y-102034023D01*
X83252186Y-102034024D01*
X83306253Y-102108441D01*
X83381758Y-102212365D01*
X83537635Y-102368242D01*
X83715978Y-102497815D01*
X83912394Y-102597895D01*
X83912397Y-102597896D01*
X83912396Y-102597896D01*
X84122038Y-102666012D01*
X84122044Y-102666013D01*
X84122049Y-102666015D01*
X84223517Y-102682086D01*
X84339776Y-102700500D01*
X84339778Y-102700500D01*
X84560224Y-102700500D01*
X84647313Y-102686706D01*
X84777951Y-102666015D01*
X84777958Y-102666012D01*
X84777961Y-102666012D01*
X84902645Y-102625500D01*
X84987606Y-102597895D01*
X85184022Y-102497815D01*
X85362365Y-102368242D01*
X85518242Y-102212365D01*
X85647815Y-102034022D01*
X85747895Y-101837606D01*
X85816015Y-101627951D01*
X85850500Y-101410222D01*
X85850500Y-101189778D01*
X85816015Y-100972049D01*
X85816013Y-100972044D01*
X85816012Y-100972038D01*
X85747896Y-100762397D01*
X85747895Y-100762396D01*
X85747895Y-100762394D01*
X85647815Y-100565978D01*
X85518242Y-100387635D01*
X85362365Y-100231758D01*
X85258441Y-100156253D01*
X85184024Y-100102186D01*
X84987602Y-100002103D01*
X84987603Y-100002103D01*
X84777961Y-99933987D01*
X84777948Y-99933984D01*
X84560224Y-99899500D01*
X84560222Y-99899500D01*
X84339778Y-99899500D01*
X84339776Y-99899500D01*
X84122051Y-99933984D01*
X84122038Y-99933987D01*
X83912397Y-100002103D01*
X83715976Y-100102186D01*
X83715975Y-100102186D01*
X83537639Y-100231755D01*
X83537635Y-100231758D01*
X83381758Y-100387635D01*
X83381755Y-100387638D01*
X83381755Y-100387639D01*
X83252186Y-100565975D01*
X83252186Y-100565976D01*
X83152103Y-100762397D01*
X83083987Y-100972038D01*
X83083984Y-100972051D01*
X83049500Y-101189776D01*
X83049500Y-101410223D01*
X80265109Y-101410223D01*
X84294980Y-95778867D01*
X84295840Y-95777848D01*
X84298851Y-95773639D01*
X84298854Y-95773638D01*
X84326552Y-95734933D01*
X84326551Y-95734932D01*
X84342352Y-95712855D01*
X84342355Y-95712851D01*
X84495850Y-95498392D01*
X84495850Y-95498391D01*
X84495857Y-95498382D01*
X84807196Y-95006903D01*
X85090301Y-94498637D01*
X85344269Y-93975203D01*
X85568292Y-93438270D01*
X85611955Y-93314364D01*
X85761646Y-92889578D01*
X85761657Y-92889542D01*
X85770643Y-92858565D01*
X85923742Y-92330791D01*
X86054035Y-91763776D01*
X86152121Y-91190311D01*
X86217685Y-90612224D01*
X86250520Y-90031359D01*
X86250500Y-89740462D01*
X86250500Y-89692867D01*
X86250500Y-82063435D01*
X95195338Y-82063435D01*
X95234538Y-82184084D01*
X95234542Y-82184092D01*
X95290352Y-82260907D01*
X95290354Y-82260909D01*
X95290355Y-82260910D01*
X97739090Y-84709644D01*
X97815910Y-84765459D01*
X97936566Y-84804662D01*
X98063434Y-84804662D01*
X98184090Y-84765459D01*
X98205367Y-84750000D01*
X103383593Y-84750000D01*
X103466401Y-84927579D01*
X103601888Y-85121075D01*
X103768924Y-85288111D01*
X103962420Y-85423598D01*
X104140000Y-85506405D01*
X104140000Y-84750000D01*
X103383593Y-84750000D01*
X98205367Y-84750000D01*
X98260910Y-84709645D01*
X98654729Y-84315826D01*
X104140000Y-84315826D01*
X104174075Y-84442993D01*
X104239901Y-84557007D01*
X104332993Y-84650099D01*
X104447007Y-84715925D01*
X104574174Y-84750000D01*
X104705826Y-84750000D01*
X105140000Y-84750000D01*
X105140000Y-85506405D01*
X105317579Y-85423598D01*
X105511075Y-85288111D01*
X105678111Y-85121075D01*
X105813598Y-84927579D01*
X105896407Y-84750000D01*
X105140000Y-84750000D01*
X104705826Y-84750000D01*
X104832993Y-84715925D01*
X104947007Y-84650099D01*
X105040099Y-84557007D01*
X105105925Y-84442993D01*
X105140000Y-84315826D01*
X105140000Y-84250000D01*
X106174659Y-84250000D01*
X106193976Y-84446133D01*
X106251187Y-84634731D01*
X106321063Y-84765458D01*
X106344090Y-84808538D01*
X106469117Y-84960883D01*
X106621462Y-85085910D01*
X106675547Y-85114819D01*
X106795268Y-85178812D01*
X106795270Y-85178812D01*
X106795273Y-85178814D01*
X106983868Y-85236024D01*
X107180000Y-85255341D01*
X107376132Y-85236024D01*
X107564727Y-85178814D01*
X107738538Y-85085910D01*
X107890883Y-84960883D01*
X108015910Y-84808538D01*
X108098187Y-84654608D01*
X108108812Y-84634731D01*
X108108812Y-84634730D01*
X108108814Y-84634727D01*
X108166024Y-84446132D01*
X108185341Y-84250000D01*
X108166024Y-84053868D01*
X108108814Y-83865273D01*
X108108812Y-83865270D01*
X108108812Y-83865268D01*
X108044443Y-83744844D01*
X108015910Y-83691462D01*
X107890883Y-83539117D01*
X107738538Y-83414090D01*
X107707287Y-83397386D01*
X107564731Y-83321187D01*
X107376133Y-83263976D01*
X107180000Y-83244659D01*
X106983866Y-83263976D01*
X106795268Y-83321187D01*
X106621463Y-83414089D01*
X106469117Y-83539117D01*
X106344089Y-83691463D01*
X106251187Y-83865268D01*
X106193976Y-84053866D01*
X106174659Y-84250000D01*
X105140000Y-84250000D01*
X105140000Y-84184174D01*
X105105925Y-84057007D01*
X105040099Y-83942993D01*
X104947007Y-83849901D01*
X104832993Y-83784075D01*
X104705826Y-83750000D01*
X104574174Y-83750000D01*
X104447007Y-83784075D01*
X104332993Y-83849901D01*
X104239901Y-83942993D01*
X104174075Y-84057007D01*
X104140000Y-84184174D01*
X104140000Y-84315826D01*
X98654729Y-84315826D01*
X99220555Y-83750000D01*
X103383594Y-83750000D01*
X104140000Y-83750000D01*
X104140000Y-82993593D01*
X105140000Y-82993593D01*
X105140000Y-83750000D01*
X105896405Y-83750000D01*
X105813598Y-83572421D01*
X105678109Y-83378921D01*
X105511075Y-83211888D01*
X105511076Y-83211888D01*
X105317579Y-83076401D01*
X105140000Y-82993593D01*
X104140000Y-82993593D01*
X103962421Y-83076401D01*
X103768921Y-83211890D01*
X103601890Y-83378921D01*
X103466401Y-83572421D01*
X103383594Y-83750000D01*
X99220555Y-83750000D01*
X100610554Y-82360000D01*
X107394867Y-82360000D01*
X107398748Y-82386992D01*
X107399501Y-82397523D01*
X107399501Y-82419308D01*
X107406761Y-82446406D01*
X107408528Y-82455024D01*
X107413302Y-82488221D01*
X107413303Y-82488226D01*
X107422020Y-82507315D01*
X107426184Y-82518897D01*
X107430201Y-82533887D01*
X107430203Y-82533892D01*
X107447362Y-82563613D01*
X107450588Y-82569870D01*
X107467116Y-82606061D01*
X107476739Y-82617167D01*
X107484895Y-82628621D01*
X107489506Y-82636607D01*
X107489509Y-82636611D01*
X107489511Y-82636614D01*
X107506524Y-82653627D01*
X107518197Y-82665300D01*
X107521796Y-82669166D01*
X107548946Y-82700500D01*
X107551951Y-82703967D01*
X107559004Y-82708499D01*
X107571323Y-82718426D01*
X107573386Y-82720489D01*
X107613915Y-82743888D01*
X107616919Y-82745719D01*
X107660931Y-82774004D01*
X107662621Y-82774500D01*
X107662900Y-82774582D01*
X107671496Y-82778263D01*
X107671630Y-82777942D01*
X107676108Y-82779796D01*
X107676113Y-82779799D01*
X107727360Y-82793530D01*
X107729000Y-82793990D01*
X107785228Y-82810500D01*
X107914773Y-82810500D01*
X107946217Y-82801266D01*
X107970986Y-82793993D01*
X107972638Y-82793530D01*
X108002688Y-82785478D01*
X108023888Y-82779799D01*
X108028371Y-82777942D01*
X108028505Y-82778266D01*
X108037102Y-82774581D01*
X108039069Y-82774004D01*
X108083104Y-82745702D01*
X108086056Y-82743903D01*
X108126614Y-82720489D01*
X108126619Y-82720483D01*
X108130459Y-82717538D01*
X108131824Y-82719317D01*
X108177255Y-82700500D01*
X109027839Y-82700500D01*
X109080165Y-82722174D01*
X109101839Y-82774500D01*
X109093774Y-82808092D01*
X109093773Y-82808096D01*
X109088280Y-82818876D01*
X109067196Y-82952000D01*
X109088280Y-83085126D01*
X109149471Y-83205219D01*
X109219209Y-83274957D01*
X109240883Y-83327283D01*
X109219209Y-83379609D01*
X109201769Y-83392544D01*
X109161461Y-83414090D01*
X109009117Y-83539117D01*
X108884089Y-83691463D01*
X108791187Y-83865268D01*
X108733976Y-84053866D01*
X108714659Y-84250000D01*
X108733976Y-84446133D01*
X108791187Y-84634731D01*
X108861063Y-84765458D01*
X108884090Y-84808538D01*
X109009117Y-84960883D01*
X109161462Y-85085910D01*
X109215547Y-85114819D01*
X109335268Y-85178812D01*
X109335270Y-85178812D01*
X109335273Y-85178814D01*
X109523868Y-85236024D01*
X109720000Y-85255341D01*
X109916132Y-85236024D01*
X110104727Y-85178814D01*
X110278538Y-85085910D01*
X110430883Y-84960883D01*
X110555910Y-84808538D01*
X110585238Y-84753668D01*
X110629019Y-84717738D01*
X110685383Y-84723290D01*
X110721314Y-84767071D01*
X110724500Y-84788552D01*
X110724500Y-85668100D01*
X110702826Y-85720426D01*
X110656472Y-85766779D01*
X110656471Y-85766780D01*
X110595281Y-85886873D01*
X110595280Y-85886873D01*
X110574196Y-86020000D01*
X110595280Y-86153126D01*
X110656471Y-86273219D01*
X110656472Y-86273220D01*
X110751780Y-86368528D01*
X110871873Y-86429718D01*
X110871873Y-86429719D01*
X110890075Y-86432601D01*
X111005000Y-86450804D01*
X111138126Y-86429719D01*
X111258220Y-86368528D01*
X111353528Y-86273220D01*
X111414719Y-86153126D01*
X111435804Y-86020000D01*
X111414719Y-85886874D01*
X111414719Y-85886873D01*
X111353528Y-85766780D01*
X111297174Y-85710426D01*
X111275500Y-85658100D01*
X111275500Y-84825969D01*
X111297174Y-84773643D01*
X111349500Y-84751969D01*
X111401826Y-84773643D01*
X111414760Y-84791083D01*
X111424090Y-84808538D01*
X111549117Y-84960883D01*
X111701462Y-85085910D01*
X111755547Y-85114819D01*
X111875268Y-85178812D01*
X111875270Y-85178812D01*
X111875273Y-85178814D01*
X112063868Y-85236024D01*
X112260000Y-85255341D01*
X112456132Y-85236024D01*
X112644727Y-85178814D01*
X112764453Y-85114819D01*
X113799500Y-85114819D01*
X113808233Y-85158722D01*
X113821656Y-85178812D01*
X113841496Y-85208504D01*
X113891278Y-85241767D01*
X113935180Y-85250500D01*
X113935181Y-85250500D01*
X115664819Y-85250500D01*
X115664820Y-85250500D01*
X115708722Y-85241767D01*
X115758504Y-85208504D01*
X115791767Y-85158722D01*
X115800500Y-85114820D01*
X115800500Y-83385180D01*
X115791767Y-83341278D01*
X115758504Y-83291496D01*
X115758269Y-83291339D01*
X115708722Y-83258233D01*
X115664820Y-83249500D01*
X113935180Y-83249500D01*
X113913229Y-83253866D01*
X113891277Y-83258233D01*
X113841496Y-83291495D01*
X113841495Y-83291496D01*
X113808233Y-83341277D01*
X113799500Y-83385180D01*
X113799500Y-85114819D01*
X112764453Y-85114819D01*
X112818538Y-85085910D01*
X112970883Y-84960883D01*
X113095910Y-84808538D01*
X113178187Y-84654608D01*
X113188812Y-84634731D01*
X113188812Y-84634730D01*
X113188814Y-84634727D01*
X113246024Y-84446132D01*
X113265341Y-84250000D01*
X113246024Y-84053868D01*
X113188814Y-83865273D01*
X113188812Y-83865270D01*
X113188812Y-83865268D01*
X113124443Y-83744844D01*
X113095910Y-83691462D01*
X112970883Y-83539117D01*
X112818538Y-83414090D01*
X112787287Y-83397386D01*
X112644731Y-83321187D01*
X112456133Y-83263976D01*
X112260000Y-83244659D01*
X112063866Y-83263976D01*
X111955362Y-83296891D01*
X111898997Y-83291339D01*
X111863067Y-83247558D01*
X111867946Y-83192484D01*
X111912187Y-83105658D01*
X111933272Y-82972532D01*
X111912187Y-82839406D01*
X111896232Y-82808094D01*
X111891789Y-82751633D01*
X111928571Y-82708566D01*
X111962167Y-82700500D01*
X112293490Y-82700500D01*
X112345816Y-82722174D01*
X112349410Y-82726035D01*
X112351951Y-82728967D01*
X112359004Y-82733499D01*
X112371321Y-82743425D01*
X112373386Y-82745490D01*
X112413929Y-82768897D01*
X112416915Y-82770716D01*
X112460931Y-82799004D01*
X112462886Y-82799578D01*
X112462900Y-82799582D01*
X112471496Y-82803263D01*
X112471630Y-82802942D01*
X112476108Y-82804796D01*
X112476113Y-82804799D01*
X112527360Y-82818530D01*
X112529000Y-82818990D01*
X112585228Y-82835500D01*
X112714773Y-82835500D01*
X112746217Y-82826266D01*
X112770986Y-82818993D01*
X112772638Y-82818530D01*
X112811586Y-82808095D01*
X112823888Y-82804799D01*
X112828371Y-82802942D01*
X112828505Y-82803266D01*
X112837102Y-82799581D01*
X112839069Y-82799004D01*
X112883088Y-82770713D01*
X112886043Y-82768912D01*
X112926614Y-82745490D01*
X112928670Y-82743432D01*
X112941002Y-82733495D01*
X112948044Y-82728970D01*
X112948042Y-82728970D01*
X112948049Y-82728967D01*
X112978208Y-82694159D01*
X112981783Y-82690319D01*
X113010490Y-82661614D01*
X113015101Y-82653627D01*
X113023265Y-82642162D01*
X113032879Y-82631066D01*
X113032878Y-82631066D01*
X113032882Y-82631063D01*
X113049420Y-82594847D01*
X113052629Y-82588624D01*
X113069799Y-82558887D01*
X113073816Y-82543893D01*
X113077977Y-82532318D01*
X113086697Y-82513226D01*
X113091470Y-82480025D01*
X113093239Y-82471402D01*
X113100499Y-82444309D01*
X113100499Y-82422523D01*
X113101252Y-82411992D01*
X113104093Y-82392230D01*
X113105133Y-82385000D01*
X113101539Y-82360000D01*
X113101252Y-82358005D01*
X113100499Y-82347475D01*
X113100499Y-82325689D01*
X113100498Y-82325688D01*
X113093238Y-82298591D01*
X113091469Y-82289967D01*
X113086697Y-82256773D01*
X113077980Y-82237686D01*
X113073815Y-82226104D01*
X113069799Y-82211113D01*
X113052635Y-82181384D01*
X113049410Y-82175129D01*
X113040848Y-82156380D01*
X113032882Y-82138937D01*
X113023263Y-82127836D01*
X113015104Y-82116378D01*
X113010490Y-82108386D01*
X112981796Y-82079692D01*
X112978196Y-82075825D01*
X112948049Y-82041033D01*
X112948044Y-82041029D01*
X112940994Y-82036498D01*
X112928676Y-82026572D01*
X112791612Y-81889509D01*
X112688891Y-81830203D01*
X112688889Y-81830202D01*
X112688887Y-81830201D01*
X112687585Y-81829852D01*
X112664674Y-81823712D01*
X112664674Y-81823713D01*
X112574309Y-81799500D01*
X107900691Y-81799500D01*
X107900689Y-81799500D01*
X107786114Y-81830200D01*
X107742695Y-81855267D01*
X107742696Y-81855268D01*
X107683386Y-81889510D01*
X107683382Y-81889512D01*
X107571321Y-82001573D01*
X107559009Y-82011496D01*
X107551952Y-82016031D01*
X107521796Y-82050833D01*
X107518199Y-82054696D01*
X107489508Y-82083388D01*
X107484895Y-82091378D01*
X107476741Y-82102830D01*
X107467117Y-82113937D01*
X107467116Y-82113940D01*
X107450590Y-82150125D01*
X107447366Y-82156380D01*
X107430198Y-82186117D01*
X107426183Y-82201101D01*
X107422021Y-82212680D01*
X107413302Y-82231773D01*
X107408527Y-82264979D01*
X107406760Y-82273593D01*
X107399501Y-82300686D01*
X107399501Y-82322475D01*
X107398748Y-82333005D01*
X107395154Y-82358005D01*
X107394867Y-82360000D01*
X100610554Y-82360000D01*
X100709644Y-82260910D01*
X100765459Y-82184090D01*
X100804662Y-82063434D01*
X100804662Y-81936566D01*
X100770103Y-81830203D01*
X100765461Y-81815915D01*
X100765457Y-81815907D01*
X100709647Y-81739092D01*
X100195555Y-81225000D01*
X104930000Y-81225000D01*
X104930000Y-81373490D01*
X104968427Y-81566682D01*
X104968430Y-81566693D01*
X105043809Y-81748675D01*
X105153246Y-81912459D01*
X105292540Y-82051753D01*
X105430000Y-82143600D01*
X105430000Y-81314496D01*
X105630000Y-81314496D01*
X105650444Y-81390796D01*
X105689940Y-81459205D01*
X105745795Y-81515060D01*
X105814204Y-81554556D01*
X105890504Y-81575000D01*
X105969496Y-81575000D01*
X106045796Y-81554556D01*
X106114205Y-81515060D01*
X106170060Y-81459205D01*
X106209556Y-81390796D01*
X106230000Y-81314496D01*
X106230000Y-81225000D01*
X106430000Y-81225000D01*
X106430000Y-82143600D01*
X106567459Y-82051753D01*
X106706753Y-81912459D01*
X106816190Y-81748675D01*
X106891569Y-81566693D01*
X106891572Y-81566682D01*
X106930000Y-81373490D01*
X106930000Y-81225000D01*
X113570000Y-81225000D01*
X113570000Y-81373490D01*
X113608427Y-81566682D01*
X113608430Y-81566693D01*
X113683809Y-81748675D01*
X113793246Y-81912459D01*
X113932540Y-82051753D01*
X114070000Y-82143600D01*
X114070000Y-81314496D01*
X114270000Y-81314496D01*
X114290444Y-81390796D01*
X114329940Y-81459205D01*
X114385795Y-81515060D01*
X114454204Y-81554556D01*
X114530504Y-81575000D01*
X114609496Y-81575000D01*
X114685796Y-81554556D01*
X114754205Y-81515060D01*
X114810060Y-81459205D01*
X114849556Y-81390796D01*
X114870000Y-81314496D01*
X114870000Y-81225000D01*
X115070000Y-81225000D01*
X115070000Y-82143600D01*
X115207459Y-82051753D01*
X115346753Y-81912459D01*
X115456190Y-81748675D01*
X115531569Y-81566693D01*
X115531572Y-81566682D01*
X115570000Y-81373490D01*
X115570000Y-81225000D01*
X115070000Y-81225000D01*
X114870000Y-81225000D01*
X114870000Y-80135504D01*
X114849556Y-80059204D01*
X114810060Y-79990795D01*
X114754205Y-79934940D01*
X114685796Y-79895444D01*
X114609496Y-79875000D01*
X114530504Y-79875000D01*
X114454204Y-79895444D01*
X114385795Y-79934940D01*
X114329940Y-79990795D01*
X114290444Y-80059204D01*
X114270000Y-80135504D01*
X114270000Y-81314496D01*
X114070000Y-81314496D01*
X114070000Y-81225000D01*
X113570000Y-81225000D01*
X106930000Y-81225000D01*
X106430000Y-81225000D01*
X106230000Y-81225000D01*
X106230000Y-80135504D01*
X106209556Y-80059204D01*
X106170060Y-79990795D01*
X106114205Y-79934940D01*
X106045796Y-79895444D01*
X105969496Y-79875000D01*
X105890504Y-79875000D01*
X105814204Y-79895444D01*
X105745795Y-79934940D01*
X105689940Y-79990795D01*
X105650444Y-80059204D01*
X105630000Y-80135504D01*
X105630000Y-81314496D01*
X105430000Y-81314496D01*
X105430000Y-81225000D01*
X104930000Y-81225000D01*
X100195555Y-81225000D01*
X99195554Y-80225000D01*
X104930000Y-80225000D01*
X105430000Y-80225000D01*
X105430000Y-79306397D01*
X106430000Y-79306397D01*
X106430000Y-80225000D01*
X106816303Y-80225000D01*
X106868629Y-80246674D01*
X106887781Y-80279847D01*
X106916904Y-80388535D01*
X106916905Y-80388536D01*
X106979505Y-80496964D01*
X107068036Y-80585495D01*
X107176464Y-80648095D01*
X107176463Y-80648095D01*
X107246286Y-80666804D01*
X107297396Y-80680499D01*
X107297397Y-80680500D01*
X107297399Y-80680500D01*
X107422603Y-80680500D01*
X107422603Y-80680499D01*
X107543536Y-80648095D01*
X107651964Y-80585495D01*
X107740495Y-80496964D01*
X107803095Y-80388536D01*
X107835499Y-80267603D01*
X107835500Y-80267603D01*
X112664500Y-80267603D01*
X112696904Y-80388535D01*
X112696905Y-80388536D01*
X112759505Y-80496964D01*
X112848036Y-80585495D01*
X112956464Y-80648095D01*
X112956463Y-80648095D01*
X113026286Y-80666804D01*
X113077396Y-80680499D01*
X113077397Y-80680500D01*
X113077399Y-80680500D01*
X113202603Y-80680500D01*
X113202603Y-80680499D01*
X113323536Y-80648095D01*
X113431964Y-80585495D01*
X113520495Y-80496964D01*
X113583095Y-80388536D01*
X113612219Y-80279847D01*
X113646697Y-80234914D01*
X113683697Y-80225000D01*
X114070000Y-80225000D01*
X114070000Y-79306397D01*
X115070000Y-79306397D01*
X115070000Y-80225000D01*
X115570000Y-80225000D01*
X115570000Y-80076509D01*
X115531572Y-79883317D01*
X115531569Y-79883306D01*
X115456190Y-79701324D01*
X115346753Y-79537540D01*
X115207457Y-79398244D01*
X115070000Y-79306397D01*
X114070000Y-79306397D01*
X114069999Y-79306397D01*
X113932542Y-79398244D01*
X113793246Y-79537540D01*
X113683810Y-79701322D01*
X113616349Y-79864190D01*
X113576301Y-79904238D01*
X113519663Y-79904238D01*
X113495656Y-79888197D01*
X113431963Y-79824504D01*
X113323534Y-79761904D01*
X113323536Y-79761904D01*
X113202603Y-79729500D01*
X113202601Y-79729500D01*
X113077399Y-79729500D01*
X113077397Y-79729500D01*
X112956464Y-79761904D01*
X112848036Y-79824504D01*
X112759504Y-79913036D01*
X112696904Y-80021464D01*
X112664500Y-80142396D01*
X112664500Y-80267603D01*
X107835500Y-80267603D01*
X107835500Y-80142397D01*
X107835499Y-80142396D01*
X107817844Y-80076509D01*
X107803095Y-80021464D01*
X107740495Y-79913036D01*
X107651964Y-79824505D01*
X107651963Y-79824504D01*
X107543534Y-79761904D01*
X107543536Y-79761904D01*
X107422603Y-79729500D01*
X107422601Y-79729500D01*
X107297399Y-79729500D01*
X107297397Y-79729500D01*
X107176464Y-79761904D01*
X107068036Y-79824504D01*
X107004343Y-79888197D01*
X106952016Y-79909871D01*
X106899691Y-79888197D01*
X106883650Y-79864189D01*
X106816190Y-79701324D01*
X106706753Y-79537540D01*
X106567457Y-79398244D01*
X106430000Y-79306397D01*
X105430000Y-79306397D01*
X105429999Y-79306397D01*
X105292542Y-79398244D01*
X105153246Y-79537540D01*
X105043809Y-79701324D01*
X104968430Y-79883306D01*
X104968427Y-79883317D01*
X104930000Y-80076509D01*
X104930000Y-80225000D01*
X99195554Y-80225000D01*
X98260910Y-79290356D01*
X98260904Y-79290352D01*
X98184090Y-79234541D01*
X98123762Y-79214939D01*
X98063435Y-79195338D01*
X98063434Y-79195338D01*
X97936566Y-79195338D01*
X97936564Y-79195338D01*
X97815915Y-79234538D01*
X97815907Y-79234542D01*
X97739092Y-79290352D01*
X95290356Y-81739089D01*
X95234541Y-81815910D01*
X95195338Y-81936564D01*
X95195338Y-82063435D01*
X86250500Y-82063435D01*
X86250500Y-80492665D01*
X86272174Y-80440339D01*
X86314842Y-80419298D01*
X86321026Y-80418483D01*
X86331340Y-80417126D01*
X86578313Y-80350950D01*
X86814535Y-80253104D01*
X87035965Y-80125261D01*
X87238813Y-79969610D01*
X87419610Y-79788813D01*
X87575261Y-79585965D01*
X87703104Y-79364535D01*
X87800950Y-79128313D01*
X87867126Y-78881340D01*
X87900500Y-78627843D01*
X87900500Y-78500000D01*
X87900500Y-78452405D01*
X87900500Y-77234567D01*
X90152174Y-77234567D01*
X90202110Y-77388251D01*
X90202115Y-77388265D01*
X90333371Y-77667198D01*
X90498555Y-77927487D01*
X90695061Y-78165021D01*
X90695065Y-78165026D01*
X90919787Y-78376054D01*
X91169190Y-78557256D01*
X91439344Y-78705775D01*
X91439351Y-78705778D01*
X91725969Y-78819259D01*
X91734567Y-78821466D01*
X91734567Y-77234567D01*
X90152174Y-77234567D01*
X87900500Y-77234567D01*
X87900500Y-76587983D01*
X91434567Y-76587983D01*
X91474917Y-76790841D01*
X91554069Y-76981929D01*
X91668978Y-77153903D01*
X91815231Y-77300156D01*
X91987205Y-77415065D01*
X92178293Y-77494217D01*
X92381151Y-77534567D01*
X92587983Y-77534567D01*
X92790841Y-77494217D01*
X92981929Y-77415065D01*
X93153903Y-77300156D01*
X93219492Y-77234567D01*
X93234567Y-77234567D01*
X93234567Y-78821466D01*
X93243164Y-78819259D01*
X93529782Y-78705778D01*
X93529789Y-78705775D01*
X93799943Y-78557256D01*
X94049346Y-78376054D01*
X94274068Y-78165026D01*
X94274072Y-78165021D01*
X94470578Y-77927487D01*
X94635762Y-77667198D01*
X94767018Y-77388265D01*
X94767023Y-77388251D01*
X94816960Y-77234567D01*
X93234567Y-77234567D01*
X93219492Y-77234567D01*
X93300156Y-77153903D01*
X93386286Y-77025000D01*
X104930300Y-77025000D01*
X104968427Y-77216683D01*
X104968430Y-77216693D01*
X105043809Y-77398675D01*
X105153246Y-77562459D01*
X105292540Y-77701753D01*
X105430000Y-77793600D01*
X105430000Y-77025000D01*
X104930300Y-77025000D01*
X93386286Y-77025000D01*
X93415065Y-76981929D01*
X93422286Y-76964496D01*
X105630000Y-76964496D01*
X105650444Y-77040796D01*
X105689940Y-77109205D01*
X105745795Y-77165060D01*
X105814204Y-77204556D01*
X105890504Y-77225000D01*
X105969496Y-77225000D01*
X106045796Y-77204556D01*
X106114205Y-77165060D01*
X106170060Y-77109205D01*
X106209556Y-77040796D01*
X106213788Y-77025000D01*
X106430000Y-77025000D01*
X106430000Y-77793600D01*
X106567459Y-77701753D01*
X106706753Y-77562459D01*
X106816190Y-77398675D01*
X106891569Y-77216693D01*
X106891572Y-77216683D01*
X106929699Y-77025000D01*
X113570300Y-77025000D01*
X113608427Y-77216683D01*
X113608430Y-77216693D01*
X113683809Y-77398675D01*
X113793246Y-77562459D01*
X113932540Y-77701753D01*
X114070000Y-77793600D01*
X114070000Y-77025000D01*
X113570300Y-77025000D01*
X106929699Y-77025000D01*
X106430000Y-77025000D01*
X106213788Y-77025000D01*
X106230000Y-76964496D01*
X114270000Y-76964496D01*
X114290444Y-77040796D01*
X114329940Y-77109205D01*
X114385795Y-77165060D01*
X114454204Y-77204556D01*
X114530504Y-77225000D01*
X114609496Y-77225000D01*
X114685796Y-77204556D01*
X114754205Y-77165060D01*
X114810060Y-77109205D01*
X114849556Y-77040796D01*
X114853788Y-77025000D01*
X115070000Y-77025000D01*
X115070000Y-77793600D01*
X115207459Y-77701753D01*
X115346753Y-77562459D01*
X115456190Y-77398675D01*
X115531569Y-77216693D01*
X115531572Y-77216683D01*
X115569699Y-77025000D01*
X115070000Y-77025000D01*
X114853788Y-77025000D01*
X114870000Y-76964496D01*
X114870000Y-76085504D01*
X114849556Y-76009204D01*
X114810060Y-75940795D01*
X114754205Y-75884940D01*
X114685796Y-75845444D01*
X114609496Y-75825000D01*
X114530504Y-75825000D01*
X114454204Y-75845444D01*
X114385795Y-75884940D01*
X114329940Y-75940795D01*
X114290444Y-76009204D01*
X114270000Y-76085504D01*
X114270000Y-76964496D01*
X106230000Y-76964496D01*
X106230000Y-76085504D01*
X106209556Y-76009204D01*
X106170060Y-75940795D01*
X106114205Y-75884940D01*
X106045796Y-75845444D01*
X105969496Y-75825000D01*
X105890504Y-75825000D01*
X105814204Y-75845444D01*
X105745795Y-75884940D01*
X105689940Y-75940795D01*
X105650444Y-76009204D01*
X105630000Y-76085504D01*
X105630000Y-76964496D01*
X93422286Y-76964496D01*
X93494217Y-76790841D01*
X93534567Y-76587983D01*
X93534567Y-76381151D01*
X93494217Y-76178293D01*
X93430720Y-76025000D01*
X104930300Y-76025000D01*
X105430000Y-76025000D01*
X105430000Y-75256397D01*
X106430000Y-75256397D01*
X106430000Y-76025000D01*
X106929700Y-76025000D01*
X113570300Y-76025000D01*
X114070000Y-76025000D01*
X114070000Y-75256397D01*
X115070000Y-75256397D01*
X115070000Y-76025000D01*
X115569700Y-76025000D01*
X115569699Y-76024999D01*
X115531572Y-75833316D01*
X115531569Y-75833306D01*
X115456190Y-75651324D01*
X115346753Y-75487540D01*
X115207457Y-75348244D01*
X115070000Y-75256397D01*
X114070000Y-75256397D01*
X114069999Y-75256397D01*
X113932542Y-75348244D01*
X113793246Y-75487540D01*
X113683809Y-75651324D01*
X113608430Y-75833306D01*
X113608427Y-75833316D01*
X113570300Y-76024999D01*
X113570300Y-76025000D01*
X106929700Y-76025000D01*
X106929699Y-76024999D01*
X106891572Y-75833316D01*
X106891569Y-75833306D01*
X106816190Y-75651324D01*
X106706753Y-75487540D01*
X106567457Y-75348244D01*
X106430000Y-75256397D01*
X105430000Y-75256397D01*
X105429999Y-75256397D01*
X105292542Y-75348244D01*
X105153246Y-75487540D01*
X105043809Y-75651324D01*
X104968430Y-75833306D01*
X104968427Y-75833316D01*
X104930300Y-76024999D01*
X104930300Y-76025000D01*
X93430720Y-76025000D01*
X93415065Y-75987205D01*
X93300156Y-75815231D01*
X93153903Y-75668978D01*
X92981929Y-75554069D01*
X92790841Y-75474917D01*
X92587983Y-75434567D01*
X92381151Y-75434567D01*
X92178293Y-75474917D01*
X91987205Y-75554069D01*
X91815231Y-75668978D01*
X91668978Y-75815231D01*
X91554069Y-75987205D01*
X91474917Y-76178293D01*
X91434567Y-76381151D01*
X91434567Y-76587983D01*
X87900500Y-76587983D01*
X87900500Y-75734567D01*
X90152173Y-75734567D01*
X91734567Y-75734567D01*
X91734567Y-74147666D01*
X91734566Y-74147665D01*
X93234567Y-74147665D01*
X93234567Y-75734567D01*
X94816960Y-75734567D01*
X94767023Y-75580882D01*
X94767018Y-75580868D01*
X94635762Y-75301935D01*
X94470578Y-75041646D01*
X94274072Y-74804112D01*
X94274068Y-74804107D01*
X94049346Y-74593079D01*
X93799943Y-74411877D01*
X93529789Y-74263358D01*
X93529782Y-74263355D01*
X93243158Y-74149872D01*
X93243150Y-74149870D01*
X93234567Y-74147665D01*
X91734566Y-74147665D01*
X91725983Y-74149870D01*
X91725975Y-74149872D01*
X91439351Y-74263355D01*
X91439344Y-74263358D01*
X91169190Y-74411877D01*
X90919787Y-74593079D01*
X90695065Y-74804107D01*
X90695061Y-74804112D01*
X90498555Y-75041646D01*
X90333371Y-75301935D01*
X90202115Y-75580868D01*
X90202110Y-75580882D01*
X90152173Y-75734567D01*
X87900500Y-75734567D01*
X87900500Y-71604712D01*
X87922174Y-71552386D01*
X87947313Y-71535887D01*
X89060245Y-71096289D01*
X89061798Y-71095697D01*
X90419981Y-70597042D01*
X90421570Y-70596481D01*
X91791418Y-70131007D01*
X91793016Y-70130485D01*
X93173832Y-69698429D01*
X93175515Y-69697925D01*
X94566420Y-69299565D01*
X94567980Y-69299139D01*
X95968130Y-68934715D01*
X95969837Y-68934293D01*
X97378443Y-68604009D01*
X97380071Y-68603649D01*
X98796295Y-68307704D01*
X98797933Y-68307382D01*
X100220993Y-68045938D01*
X100222620Y-68045660D01*
X101651506Y-67818905D01*
X101653229Y-67818652D01*
X103087233Y-67626695D01*
X103088955Y-67626485D01*
X104116591Y-67514277D01*
X104170958Y-67530144D01*
X104198184Y-67579808D01*
X104198621Y-67587829D01*
X104199237Y-71554378D01*
X104199500Y-73250000D01*
X104199500Y-73328842D01*
X104209661Y-73379925D01*
X104230261Y-73483491D01*
X104230264Y-73483501D01*
X104290603Y-73629174D01*
X104290605Y-73629177D01*
X104290606Y-73629179D01*
X104378211Y-73760289D01*
X104489711Y-73871789D01*
X104620821Y-73959394D01*
X104620826Y-73959396D01*
X104620825Y-73959396D01*
X104766498Y-74019735D01*
X104766503Y-74019737D01*
X104921158Y-74050500D01*
X104921160Y-74050500D01*
X115578840Y-74050500D01*
X115578842Y-74050500D01*
X115733497Y-74019737D01*
X115879179Y-73959394D01*
X116010289Y-73871789D01*
X116121789Y-73760289D01*
X116209394Y-73629179D01*
X116269737Y-73483497D01*
X116300500Y-73328842D01*
X116300500Y-73250000D01*
X116300500Y-73248309D01*
X116300911Y-67582637D01*
X116322589Y-67530313D01*
X116374916Y-67508643D01*
X116382874Y-67509073D01*
G37*
G04 #@! TD.AperFunction*
G04 #@! TA.AperFunction,Conductor*
G36*
X138736777Y-120474072D02*
G01*
X138803728Y-120494048D01*
X138849253Y-120547050D01*
X138858896Y-120616252D01*
X138852758Y-120640480D01*
X138827621Y-120709543D01*
X138827621Y-120709544D01*
X138799500Y-120869026D01*
X138799500Y-121030973D01*
X138827620Y-121190451D01*
X138883007Y-121342624D01*
X138883010Y-121342631D01*
X138963974Y-121482866D01*
X138963977Y-121482869D01*
X138963979Y-121482873D01*
X139068073Y-121606927D01*
X139192127Y-121711021D01*
X139192130Y-121711023D01*
X139192133Y-121711025D01*
X139307902Y-121777864D01*
X139332373Y-121791992D01*
X139484548Y-121847379D01*
X139644029Y-121875500D01*
X139644031Y-121875500D01*
X142555969Y-121875500D01*
X142555971Y-121875500D01*
X142715452Y-121847379D01*
X142867627Y-121791992D01*
X143007873Y-121711021D01*
X143131927Y-121606927D01*
X143236021Y-121482873D01*
X143316992Y-121342627D01*
X143372379Y-121190452D01*
X143400500Y-121030971D01*
X143400500Y-120950000D01*
X143400500Y-120902405D01*
X143400500Y-120869029D01*
X143372379Y-120709548D01*
X143354733Y-120661068D01*
X143350303Y-120591340D01*
X143384273Y-120530284D01*
X143445860Y-120497287D01*
X143471785Y-120494659D01*
X144335984Y-120498417D01*
X144402936Y-120518393D01*
X144448461Y-120571396D01*
X144458104Y-120640597D01*
X144428803Y-120704025D01*
X144380339Y-120737235D01*
X144380458Y-120737489D01*
X144378932Y-120738200D01*
X144377859Y-120738936D01*
X144375559Y-120739773D01*
X144375555Y-120739774D01*
X144223942Y-120827309D01*
X144089836Y-120939836D01*
X143977309Y-121073942D01*
X143889775Y-121225553D01*
X143829898Y-121390062D01*
X143799500Y-121562465D01*
X143799500Y-127202496D01*
X143779815Y-127269535D01*
X143744294Y-127305663D01*
X143545252Y-127438388D01*
X143295742Y-127650139D01*
X143295741Y-127650140D01*
X143072341Y-127889239D01*
X143072340Y-127889240D01*
X142877996Y-128152534D01*
X142715329Y-128436474D01*
X142715320Y-128436493D01*
X142586497Y-128737289D01*
X142505008Y-129011342D01*
X142467032Y-129069991D01*
X142403377Y-129098798D01*
X142386151Y-129100000D01*
X130500000Y-129100000D01*
X130500000Y-134874582D01*
X130480315Y-134941621D01*
X130427511Y-134987376D01*
X130374591Y-134998574D01*
X121822591Y-134901393D01*
X121755780Y-134880948D01*
X121710628Y-134827627D01*
X121700000Y-134777401D01*
X121700000Y-120524540D01*
X121719685Y-120457501D01*
X121772489Y-120411746D01*
X121824536Y-120400541D01*
X138736777Y-120474072D01*
G37*
G04 #@! TD.AperFunction*
G04 #@! TA.AperFunction,Conductor*
G36*
X117503326Y-87471674D02*
G01*
X117525000Y-87524000D01*
X117525000Y-92075500D01*
X117503326Y-92127826D01*
X117451000Y-92149500D01*
X113536045Y-92149500D01*
X113483719Y-92127826D01*
X113482852Y-92126944D01*
X112962500Y-91588198D01*
X112962499Y-91588198D01*
X110974000Y-91588198D01*
X110921674Y-91566524D01*
X110900000Y-91514198D01*
X110900000Y-88662198D01*
X110921674Y-88609872D01*
X110974000Y-88588198D01*
X112962499Y-88588198D01*
X112962500Y-88588198D01*
X114178762Y-87469534D01*
X114228857Y-87450000D01*
X117451000Y-87450000D01*
X117503326Y-87471674D01*
G37*
G04 #@! TD.AperFunction*
M02*
