G04 #@! TF.GenerationSoftware,KiCad,Pcbnew,8.0.1*
G04 #@! TF.CreationDate,2024-05-01T12:53:58+08:00*
G04 #@! TF.ProjectId,BatteryPod,42617474-6572-4795-906f-642e6b696361,rev?*
G04 #@! TF.SameCoordinates,Original*
G04 #@! TF.FileFunction,Copper,L1,Top*
G04 #@! TF.FilePolarity,Positive*
%FSLAX46Y46*%
G04 Gerber Fmt 4.6, Leading zero omitted, Abs format (unit mm)*
G04 Created by KiCad (PCBNEW 8.0.1) date 2024-05-01 12:53:58*
%MOMM*%
%LPD*%
G01*
G04 APERTURE LIST*
G04 Aperture macros list*
%AMRoundRect*
0 Rectangle with rounded corners*
0 $1 Rounding radius*
0 $2 $3 $4 $5 $6 $7 $8 $9 X,Y pos of 4 corners*
0 Add a 4 corners polygon primitive as box body*
4,1,4,$2,$3,$4,$5,$6,$7,$8,$9,$2,$3,0*
0 Add four circle primitives for the rounded corners*
1,1,$1+$1,$2,$3*
1,1,$1+$1,$4,$5*
1,1,$1+$1,$6,$7*
1,1,$1+$1,$8,$9*
0 Add four rect primitives between the rounded corners*
20,1,$1+$1,$2,$3,$4,$5,0*
20,1,$1+$1,$4,$5,$6,$7,0*
20,1,$1+$1,$6,$7,$8,$9,0*
20,1,$1+$1,$8,$9,$2,$3,0*%
G04 Aperture macros list end*
G04 #@! TA.AperFunction,SMDPad,CuDef*
%ADD10RoundRect,0.249998X-4.550002X3.650002X-4.550002X-3.650002X4.550002X-3.650002X4.550002X3.650002X0*%
G04 #@! TD*
G04 #@! TA.AperFunction,SMDPad,CuDef*
%ADD11R,0.812800X0.254000*%
G04 #@! TD*
G04 #@! TA.AperFunction,SMDPad,CuDef*
%ADD12R,0.254000X0.812800*%
G04 #@! TD*
G04 #@! TA.AperFunction,SMDPad,CuDef*
%ADD13R,1.752600X1.752600*%
G04 #@! TD*
G04 #@! TA.AperFunction,SMDPad,CuDef*
%ADD14R,5.334000X5.588000*%
G04 #@! TD*
G04 #@! TA.AperFunction,SMDPad,CuDef*
%ADD15R,6.350000X5.283200*%
G04 #@! TD*
G04 #@! TA.AperFunction,SMDPad,CuDef*
%ADD16RoundRect,0.250000X2.192031X1.272792X1.272792X2.192031X-2.192031X-1.272792X-1.272792X-2.192031X0*%
G04 #@! TD*
G04 #@! TA.AperFunction,SMDPad,CuDef*
%ADD17RoundRect,0.250000X-0.650000X-2.450000X0.650000X-2.450000X0.650000X2.450000X-0.650000X2.450000X0*%
G04 #@! TD*
G04 #@! TA.AperFunction,ComponentPad*
%ADD18C,3.900000*%
G04 #@! TD*
G04 #@! TA.AperFunction,ComponentPad*
%ADD19RoundRect,0.250002X2.404160X0.000000X0.000000X2.404160X-2.404160X0.000000X0.000000X-2.404160X0*%
G04 #@! TD*
G04 #@! TA.AperFunction,SMDPad,CuDef*
%ADD20RoundRect,0.200000X-0.200000X-0.275000X0.200000X-0.275000X0.200000X0.275000X-0.200000X0.275000X0*%
G04 #@! TD*
G04 #@! TA.AperFunction,SMDPad,CuDef*
%ADD21RoundRect,0.200000X0.200000X0.275000X-0.200000X0.275000X-0.200000X-0.275000X0.200000X-0.275000X0*%
G04 #@! TD*
G04 #@! TA.AperFunction,SMDPad,CuDef*
%ADD22RoundRect,0.225000X0.225000X0.250000X-0.225000X0.250000X-0.225000X-0.250000X0.225000X-0.250000X0*%
G04 #@! TD*
G04 #@! TA.AperFunction,SMDPad,CuDef*
%ADD23RoundRect,0.225000X-0.225000X-0.250000X0.225000X-0.250000X0.225000X0.250000X-0.225000X0.250000X0*%
G04 #@! TD*
G04 #@! TA.AperFunction,SMDPad,CuDef*
%ADD24RoundRect,0.250000X-1.000000X1.400000X-1.000000X-1.400000X1.000000X-1.400000X1.000000X1.400000X0*%
G04 #@! TD*
G04 #@! TA.AperFunction,ViaPad*
%ADD25C,0.600000*%
G04 #@! TD*
G04 #@! TA.AperFunction,Conductor*
%ADD26C,0.250000*%
G04 #@! TD*
G04 #@! TA.AperFunction,Conductor*
%ADD27C,1.000000*%
G04 #@! TD*
G04 #@! TA.AperFunction,Conductor*
%ADD28C,0.900000*%
G04 #@! TD*
G04 APERTURE END LIST*
D10*
X112200000Y-119450000D03*
X112200000Y-131950000D03*
D11*
X116450000Y-85026989D03*
X116450000Y-84526863D03*
X116450000Y-84026737D03*
X116450000Y-83526611D03*
D12*
X115726989Y-82803600D03*
X115226863Y-82803600D03*
X114726737Y-82803600D03*
X114226611Y-82803600D03*
D11*
X113503600Y-83526611D03*
X113503600Y-84026737D03*
X113503600Y-84526863D03*
X113503600Y-85026989D03*
D12*
X114226611Y-85750000D03*
X114726737Y-85750000D03*
X115226863Y-85750000D03*
X115726989Y-85750000D03*
D13*
X114976800Y-84276800D03*
D14*
X109215001Y-89000000D03*
X98785002Y-89000000D03*
D15*
X104000000Y-111075001D03*
D16*
X93303122Y-85203122D03*
X89696878Y-81596878D03*
D17*
X119400000Y-96100000D03*
X124500000Y-96100000D03*
D18*
X92484567Y-76484567D03*
D19*
X98000000Y-82000000D03*
D20*
X109325000Y-79900000D03*
X110975000Y-79900000D03*
D21*
X117625000Y-81400000D03*
X115975000Y-81400000D03*
D22*
X109950000Y-83675000D03*
X111500000Y-83675000D03*
X113900000Y-79900000D03*
X112350000Y-79900000D03*
X113900000Y-81400000D03*
X112350000Y-81400000D03*
D23*
X122725000Y-92400000D03*
X124275000Y-92400000D03*
D22*
X119425000Y-84200000D03*
X117875000Y-84200000D03*
D20*
X108400000Y-82200000D03*
X110050000Y-82200000D03*
X105400000Y-82200000D03*
X107050000Y-82200000D03*
D24*
X120450000Y-89800000D03*
X113650000Y-89800000D03*
D25*
X114900000Y-79500000D03*
X114900000Y-80400000D03*
X106300000Y-96000000D03*
X105400000Y-83200000D03*
X116000000Y-80300000D03*
X145000000Y-140000000D03*
X145000000Y-141000000D03*
X145000000Y-142000000D03*
X145000000Y-143000000D03*
X145000000Y-144000000D03*
X145000000Y-145000000D03*
X145000000Y-146000000D03*
X145000000Y-147000000D03*
X145000000Y-149000000D03*
X145000000Y-148000000D03*
X131000000Y-152000000D03*
X132000000Y-152000000D03*
X133000000Y-152000000D03*
X134000000Y-152000000D03*
X135000000Y-152000000D03*
X136000000Y-152000000D03*
X137000000Y-152000000D03*
X139000000Y-152000000D03*
X138000000Y-152000000D03*
X140000000Y-152000000D03*
X76000000Y-139000000D03*
X76000000Y-140000000D03*
X91000000Y-152000000D03*
X76000000Y-141000000D03*
X76000000Y-142000000D03*
X76000000Y-143000000D03*
X76000000Y-144000000D03*
X76000000Y-145000000D03*
X76000000Y-146000000D03*
X76000000Y-147000000D03*
X76000000Y-148000000D03*
X90000000Y-152000000D03*
X89000000Y-152000000D03*
X88000000Y-152000000D03*
X87000000Y-152000000D03*
X86000000Y-152000000D03*
X85000000Y-152000000D03*
X83000000Y-152000000D03*
X84000000Y-152000000D03*
X82000000Y-152000000D03*
X132000000Y-75000000D03*
X132000000Y-74000000D03*
X132000000Y-73000000D03*
X132000000Y-72000000D03*
X89000000Y-75000000D03*
X89000000Y-74000000D03*
X89000000Y-73000000D03*
X89000000Y-72000000D03*
X120000000Y-87000000D03*
X119000000Y-87000000D03*
X118000000Y-87000000D03*
X117000000Y-87000000D03*
X116000000Y-87000000D03*
X108350000Y-83500000D03*
X112500000Y-83474737D03*
X115500000Y-84800000D03*
X114450000Y-83750000D03*
X115500000Y-83750000D03*
X114450000Y-84800000D03*
X114976800Y-84276800D03*
D26*
X116000000Y-80300000D02*
X116800000Y-81100000D01*
X116800000Y-81100000D02*
X116800000Y-82700000D01*
X116800000Y-82700000D02*
X117173000Y-83073000D01*
X117173000Y-83827000D02*
X116973263Y-84026737D01*
X115955234Y-80300000D02*
X115226863Y-81028371D01*
X115226863Y-81028371D02*
X115226863Y-82803600D01*
X116000000Y-80300000D02*
X115955234Y-80300000D01*
X117173000Y-83073000D02*
X117173000Y-83827000D01*
X116973263Y-84026737D02*
X116450000Y-84026737D01*
D27*
X110975000Y-79900000D02*
X112350000Y-79900000D01*
D28*
X113900000Y-79900000D02*
X113900000Y-81400000D01*
D26*
X105400000Y-82200000D02*
X105400000Y-83200000D01*
D27*
X108400000Y-82200000D02*
X107050000Y-82200000D01*
D26*
X108350000Y-83500000D02*
X107050000Y-82200000D01*
X111500000Y-83675000D02*
X111500000Y-84026737D01*
X111500000Y-84026737D02*
X113503600Y-84026737D01*
X112500000Y-83474737D02*
X112551874Y-83526611D01*
X112551874Y-83526611D02*
X113503600Y-83526611D01*
X116450000Y-84526863D02*
X117548137Y-84526863D01*
X117548137Y-84526863D02*
X117875000Y-84200000D01*
X115726989Y-82803600D02*
X115726989Y-81648011D01*
X115726989Y-81648011D02*
X115975000Y-81400000D01*
X114226611Y-82803600D02*
X114226611Y-81726611D01*
X114226611Y-81726611D02*
X113900000Y-81400000D01*
G04 #@! TA.AperFunction,Conductor*
G36*
X111020432Y-67396261D02*
G01*
X112504640Y-67433453D01*
X112507698Y-67433569D01*
X113990499Y-67507931D01*
X113993551Y-67508122D01*
X115474045Y-67619609D01*
X115477131Y-67619880D01*
X116954388Y-67768423D01*
X116957404Y-67768764D01*
X118430437Y-67954262D01*
X118433449Y-67954679D01*
X119901474Y-68177036D01*
X119904429Y-68177521D01*
X121366341Y-68436570D01*
X121369392Y-68437150D01*
X122824394Y-68732747D01*
X122827306Y-68733377D01*
X124274463Y-69065336D01*
X124277361Y-69066038D01*
X125715758Y-69434148D01*
X125718707Y-69434942D01*
X127147398Y-69838961D01*
X127150308Y-69839824D01*
X128568369Y-70279487D01*
X128571318Y-70280441D01*
X129977980Y-70755512D01*
X129980827Y-70756514D01*
X131375143Y-71266673D01*
X131377972Y-71267748D01*
X132371011Y-71659563D01*
X132426147Y-71702479D01*
X132449329Y-71768391D01*
X132449500Y-71774909D01*
X132449500Y-78434108D01*
X132449500Y-78500000D01*
X132449500Y-78630081D01*
X132480859Y-78888347D01*
X132526803Y-79074750D01*
X132543121Y-79140955D01*
X132633995Y-79380568D01*
X132635375Y-79384206D01*
X132756278Y-79614569D01*
X132756281Y-79614574D01*
X132756282Y-79614575D01*
X132883927Y-79799500D01*
X132904068Y-79828678D01*
X133076587Y-80023413D01*
X133271322Y-80195932D01*
X133485431Y-80343722D01*
X133715794Y-80464625D01*
X133959050Y-80556880D01*
X134005174Y-80568248D01*
X134065555Y-80603404D01*
X134097344Y-80665623D01*
X134099500Y-80688645D01*
X134099500Y-89825455D01*
X134099521Y-89825797D01*
X134099541Y-90047423D01*
X134132789Y-90637598D01*
X134199180Y-91224964D01*
X134298503Y-91807655D01*
X134298512Y-91807698D01*
X134430452Y-92383871D01*
X134594594Y-92951716D01*
X134594597Y-92951724D01*
X134751397Y-93398299D01*
X134790427Y-93509456D01*
X134946862Y-93885794D01*
X135017316Y-94055286D01*
X135274548Y-94587487D01*
X135274560Y-94587510D01*
X135561305Y-95104372D01*
X135561311Y-95104382D01*
X135876694Y-95604326D01*
X135914981Y-95658073D01*
X136005620Y-95785311D01*
X136005688Y-95785419D01*
X139396191Y-100544020D01*
X143720423Y-106613118D01*
X143720424Y-106613119D01*
X143720423Y-106613119D01*
X143735547Y-106634344D01*
X143737534Y-106637216D01*
X144032452Y-107076805D01*
X144036175Y-107082706D01*
X144304996Y-107536661D01*
X144308381Y-107542763D01*
X144551236Y-108011112D01*
X144554272Y-108017394D01*
X144770402Y-108498665D01*
X144773077Y-108505102D01*
X144961793Y-108997768D01*
X144964097Y-109004329D01*
X145008397Y-109142850D01*
X145124803Y-109506834D01*
X145126741Y-109513537D01*
X145258930Y-110024295D01*
X145260487Y-110031097D01*
X145363728Y-110548443D01*
X145364901Y-110555321D01*
X145438886Y-111077700D01*
X145439669Y-111084634D01*
X145484149Y-111610300D01*
X145484542Y-111617266D01*
X145499451Y-112146997D01*
X145499500Y-112150486D01*
X145499500Y-148447293D01*
X145499382Y-148452702D01*
X145482614Y-148836750D01*
X145481671Y-148847526D01*
X145431849Y-149225957D01*
X145429971Y-149236610D01*
X145347354Y-149609272D01*
X145344554Y-149619721D01*
X145229775Y-149983755D01*
X145226075Y-149993921D01*
X145080002Y-150346572D01*
X145075430Y-150356376D01*
X144899183Y-150694942D01*
X144893775Y-150704310D01*
X144688681Y-151026244D01*
X144682476Y-151035105D01*
X144450110Y-151337930D01*
X144443156Y-151346217D01*
X144185284Y-151627635D01*
X144177635Y-151635284D01*
X143896217Y-151893156D01*
X143887930Y-151900110D01*
X143585105Y-152132476D01*
X143576244Y-152138681D01*
X143254310Y-152343775D01*
X143244942Y-152349183D01*
X142906376Y-152525430D01*
X142896572Y-152530002D01*
X142543921Y-152676075D01*
X142533755Y-152679775D01*
X142169721Y-152794554D01*
X142159272Y-152797354D01*
X141786610Y-152879971D01*
X141775957Y-152881849D01*
X141397526Y-152931671D01*
X141386750Y-152932614D01*
X141002703Y-152949382D01*
X140997294Y-152949500D01*
X79502706Y-152949500D01*
X79497297Y-152949382D01*
X79113249Y-152932614D01*
X79102473Y-152931671D01*
X78724042Y-152881849D01*
X78713389Y-152879971D01*
X78340727Y-152797354D01*
X78330278Y-152794554D01*
X77966244Y-152679775D01*
X77956078Y-152676075D01*
X77603427Y-152530002D01*
X77593623Y-152525430D01*
X77255057Y-152349183D01*
X77245689Y-152343775D01*
X76923755Y-152138681D01*
X76914894Y-152132476D01*
X76612069Y-151900110D01*
X76603782Y-151893156D01*
X76322364Y-151635284D01*
X76314715Y-151627635D01*
X76056843Y-151346217D01*
X76049889Y-151337930D01*
X75817523Y-151035105D01*
X75811318Y-151026244D01*
X75606224Y-150704310D01*
X75600816Y-150694942D01*
X75424569Y-150356376D01*
X75419997Y-150346572D01*
X75273924Y-149993921D01*
X75270224Y-149983755D01*
X75155442Y-149619710D01*
X75152648Y-149609284D01*
X75070025Y-149236597D01*
X75068152Y-149225971D01*
X75018326Y-148847506D01*
X75017386Y-148836771D01*
X75000618Y-148452702D01*
X75000500Y-148447293D01*
X75000500Y-113736353D01*
X100624500Y-113736353D01*
X100636131Y-113794830D01*
X100636132Y-113794831D01*
X100680447Y-113861153D01*
X100746769Y-113905468D01*
X100746770Y-113905469D01*
X100805247Y-113917100D01*
X100805250Y-113917101D01*
X100805252Y-113917101D01*
X105670500Y-113917101D01*
X105737539Y-113936786D01*
X105783294Y-113989590D01*
X105794500Y-114041101D01*
X105794500Y-124776007D01*
X105799197Y-124819686D01*
X105810397Y-124871174D01*
X105812890Y-124881372D01*
X105812891Y-124881375D01*
X105855899Y-124962083D01*
X105855901Y-124962086D01*
X105901660Y-125014895D01*
X105919242Y-125032839D01*
X105919246Y-125032843D01*
X105919247Y-125032844D01*
X105919249Y-125032845D01*
X105999059Y-125077488D01*
X105999063Y-125077490D01*
X106066102Y-125097175D01*
X106124000Y-125105500D01*
X106124004Y-125105500D01*
X129075991Y-125105500D01*
X129076000Y-125105500D01*
X129119684Y-125100803D01*
X129148875Y-125094452D01*
X129171174Y-125089602D01*
X129171190Y-125089598D01*
X129171195Y-125089597D01*
X129181373Y-125087110D01*
X129262085Y-125044100D01*
X129314889Y-124998345D01*
X129332843Y-124980754D01*
X129377490Y-124900937D01*
X129397175Y-124833898D01*
X129405500Y-124776000D01*
X129405500Y-112824000D01*
X129400803Y-112780316D01*
X129396897Y-112762364D01*
X129389602Y-112728825D01*
X129389348Y-112727789D01*
X129387110Y-112718627D01*
X129344100Y-112637915D01*
X129298345Y-112585111D01*
X129298339Y-112585104D01*
X129280757Y-112567160D01*
X129280756Y-112567159D01*
X129280754Y-112567157D01*
X129280752Y-112567156D01*
X129280750Y-112567154D01*
X129200940Y-112522511D01*
X129200935Y-112522509D01*
X129133903Y-112502826D01*
X129133899Y-112502825D01*
X129133898Y-112502825D01*
X129076000Y-112494500D01*
X129075996Y-112494500D01*
X123529500Y-112494500D01*
X123462461Y-112474815D01*
X123416706Y-112422011D01*
X123405500Y-112370500D01*
X123405500Y-88174008D01*
X123405499Y-88173992D01*
X123400803Y-88130316D01*
X123396897Y-88112364D01*
X123389602Y-88078825D01*
X123389348Y-88077789D01*
X123387110Y-88068627D01*
X123344100Y-87987915D01*
X123298345Y-87935111D01*
X123298339Y-87935104D01*
X123280757Y-87917160D01*
X123280756Y-87917159D01*
X123280754Y-87917157D01*
X123280752Y-87917156D01*
X123280750Y-87917154D01*
X123200940Y-87872511D01*
X123200935Y-87872509D01*
X123133903Y-87852826D01*
X123133899Y-87852825D01*
X123133898Y-87852825D01*
X123076000Y-87844500D01*
X115574000Y-87844500D01*
X115542753Y-87847859D01*
X115473995Y-87835454D01*
X115422858Y-87787843D01*
X115405500Y-87724570D01*
X115405500Y-86480908D01*
X115405500Y-86480900D01*
X115401702Y-86445582D01*
X115414106Y-86376825D01*
X115456099Y-86329226D01*
X115498415Y-86300952D01*
X115542730Y-86234631D01*
X115542730Y-86234629D01*
X115542731Y-86234629D01*
X115554362Y-86176152D01*
X115554363Y-86176150D01*
X115554363Y-85323849D01*
X115554362Y-85323847D01*
X115542731Y-85265370D01*
X115542730Y-85265369D01*
X115498415Y-85199047D01*
X115432093Y-85154732D01*
X115432092Y-85154731D01*
X115373615Y-85143100D01*
X115373611Y-85143100D01*
X115080115Y-85143100D01*
X115080110Y-85143100D01*
X115009653Y-85157115D01*
X115009283Y-85155256D01*
X114954784Y-85161116D01*
X114935298Y-85155394D01*
X114873489Y-85143100D01*
X114873485Y-85143100D01*
X114579989Y-85143100D01*
X114579988Y-85143100D01*
X114566832Y-85145717D01*
X114542640Y-85148100D01*
X114410708Y-85148100D01*
X114386516Y-85145717D01*
X114373360Y-85143100D01*
X114373359Y-85143100D01*
X114234500Y-85143100D01*
X114167461Y-85123415D01*
X114121706Y-85070611D01*
X114110500Y-85019100D01*
X114110500Y-84880238D01*
X114110499Y-84880236D01*
X114098868Y-84821759D01*
X114098867Y-84821758D01*
X114054552Y-84755436D01*
X113988232Y-84711122D01*
X113975536Y-84708596D01*
X113967006Y-84706899D01*
X113930668Y-84693503D01*
X113900937Y-84676873D01*
X113869530Y-84667651D01*
X113833903Y-84657189D01*
X113833899Y-84657188D01*
X113833898Y-84657188D01*
X113776000Y-84648863D01*
X113775996Y-84648863D01*
X113103296Y-84648863D01*
X113089153Y-84647993D01*
X113089151Y-84648020D01*
X113088442Y-84647950D01*
X113088113Y-84647930D01*
X113087622Y-84647869D01*
X113063458Y-84645490D01*
X113063447Y-84645489D01*
X113061767Y-84645406D01*
X113043306Y-84644500D01*
X106124000Y-84644500D01*
X106123992Y-84644500D01*
X106080313Y-84649197D01*
X106028825Y-84660397D01*
X106018627Y-84662890D01*
X106018624Y-84662891D01*
X105937916Y-84705899D01*
X105937913Y-84705901D01*
X105885104Y-84751660D01*
X105867160Y-84769242D01*
X105867154Y-84769249D01*
X105822511Y-84849059D01*
X105822509Y-84849064D01*
X105802826Y-84916096D01*
X105802825Y-84916101D01*
X105802825Y-84916102D01*
X105795375Y-84967920D01*
X105794500Y-84974003D01*
X105794500Y-95370507D01*
X105799197Y-95414186D01*
X105810397Y-95465674D01*
X105812890Y-95475872D01*
X105812892Y-95475879D01*
X105846649Y-95539226D01*
X105860804Y-95607647D01*
X105845438Y-95658073D01*
X105822511Y-95699062D01*
X105822509Y-95699064D01*
X105802826Y-95766096D01*
X105802825Y-95766101D01*
X105802825Y-95766102D01*
X105800048Y-95785419D01*
X105794500Y-95824003D01*
X105794500Y-95990111D01*
X105794352Y-95992179D01*
X105794353Y-96007848D01*
X105794500Y-96009891D01*
X105794500Y-108108901D01*
X105774815Y-108175940D01*
X105722011Y-108221695D01*
X105670500Y-108232901D01*
X100805247Y-108232901D01*
X100746770Y-108244532D01*
X100746769Y-108244533D01*
X100680447Y-108288848D01*
X100636132Y-108355170D01*
X100636131Y-108355171D01*
X100624500Y-108413648D01*
X100624500Y-113736353D01*
X75000500Y-113736353D01*
X75000500Y-112161303D01*
X75000549Y-112157803D01*
X75009169Y-111852574D01*
X75015543Y-111626878D01*
X75015936Y-111619933D01*
X75060719Y-111092468D01*
X75061498Y-111085595D01*
X75135992Y-110561401D01*
X75137154Y-110554613D01*
X75241100Y-110035528D01*
X75242666Y-110028718D01*
X75255468Y-109979421D01*
X75375733Y-109516359D01*
X75377665Y-109509696D01*
X75539452Y-109005617D01*
X75541758Y-108999072D01*
X75731722Y-108504960D01*
X75734417Y-108498504D01*
X75783083Y-108390544D01*
X75951949Y-108015935D01*
X75955001Y-108009645D01*
X76199443Y-107540079D01*
X76202812Y-107534031D01*
X76473368Y-107079005D01*
X76477077Y-107073149D01*
X76773904Y-106632600D01*
X76775842Y-106629810D01*
X76813182Y-106577632D01*
X76813182Y-106577630D01*
X78961187Y-103576000D01*
X89294500Y-103576000D01*
X89294501Y-103576009D01*
X89306052Y-103683450D01*
X89306054Y-103683462D01*
X89317260Y-103734972D01*
X89351383Y-103837497D01*
X89351386Y-103837503D01*
X89429171Y-103958537D01*
X89429179Y-103958548D01*
X89474923Y-104011340D01*
X89474926Y-104011343D01*
X89474930Y-104011347D01*
X89583664Y-104105567D01*
X89583667Y-104105568D01*
X89583668Y-104105569D01*
X89677925Y-104148616D01*
X89714541Y-104165338D01*
X89781580Y-104185023D01*
X89781584Y-104185024D01*
X89924000Y-104205500D01*
X89924003Y-104205500D01*
X102875990Y-104205500D01*
X102876000Y-104205500D01*
X102983456Y-104193947D01*
X103034967Y-104182741D01*
X103069197Y-104171347D01*
X103137497Y-104148616D01*
X103137501Y-104148613D01*
X103137504Y-104148613D01*
X103258543Y-104070825D01*
X103311347Y-104025070D01*
X103405567Y-103916336D01*
X103465338Y-103785459D01*
X103485023Y-103718420D01*
X103485024Y-103718416D01*
X103505500Y-103576000D01*
X103505500Y-82506517D01*
X104799500Y-82506517D01*
X104803508Y-82531822D01*
X104814354Y-82600304D01*
X104871950Y-82713342D01*
X104948423Y-82789815D01*
X104981907Y-82851136D01*
X104976923Y-82920828D01*
X104973536Y-82929006D01*
X104914834Y-83057545D01*
X104894353Y-83200000D01*
X104914834Y-83342456D01*
X104951027Y-83421706D01*
X104974623Y-83473373D01*
X105068872Y-83582143D01*
X105189947Y-83659953D01*
X105189950Y-83659954D01*
X105189949Y-83659954D01*
X105297107Y-83691417D01*
X105315349Y-83696774D01*
X105328036Y-83700499D01*
X105328038Y-83700500D01*
X105328039Y-83700500D01*
X105471962Y-83700500D01*
X105471962Y-83700499D01*
X105610053Y-83659953D01*
X105731128Y-83582143D01*
X105825377Y-83473373D01*
X105885165Y-83342457D01*
X105905647Y-83200000D01*
X105885165Y-83057543D01*
X105865637Y-83014784D01*
X105826464Y-82929007D01*
X105816520Y-82859848D01*
X105845545Y-82796293D01*
X105851564Y-82789827D01*
X105928050Y-82713342D01*
X105985646Y-82600304D01*
X105985646Y-82600302D01*
X105985647Y-82600301D01*
X106000499Y-82506524D01*
X106000500Y-82506519D01*
X106000500Y-82268995D01*
X106349499Y-82268995D01*
X106376418Y-82404322D01*
X106376421Y-82404332D01*
X106429221Y-82531804D01*
X106429231Y-82531822D01*
X106445934Y-82556820D01*
X106459552Y-82591605D01*
X106461339Y-82591025D01*
X106464352Y-82600301D01*
X106464959Y-82601492D01*
X106521950Y-82713342D01*
X106521952Y-82713344D01*
X106521954Y-82713347D01*
X106611652Y-82803045D01*
X106611654Y-82803046D01*
X106611658Y-82803050D01*
X106706032Y-82851136D01*
X106724698Y-82860647D01*
X106818475Y-82875499D01*
X106818481Y-82875500D01*
X106843111Y-82875499D01*
X106867302Y-82877881D01*
X106933144Y-82890979D01*
X106981006Y-82900500D01*
X106981007Y-82900500D01*
X107238811Y-82900500D01*
X107305850Y-82920185D01*
X107326492Y-82936819D01*
X107808034Y-83418361D01*
X107841519Y-83479684D01*
X107842764Y-83491268D01*
X107843091Y-83491222D01*
X107864834Y-83642456D01*
X107905656Y-83731842D01*
X107924623Y-83773373D01*
X108018872Y-83882143D01*
X108139947Y-83959953D01*
X108139950Y-83959954D01*
X108139949Y-83959954D01*
X108278036Y-84000499D01*
X108278038Y-84000500D01*
X108278039Y-84000500D01*
X108421962Y-84000500D01*
X108421962Y-84000499D01*
X108560053Y-83959953D01*
X108681128Y-83882143D01*
X108775377Y-83773373D01*
X108835165Y-83642457D01*
X108855647Y-83500000D01*
X108835165Y-83357543D01*
X108775377Y-83226627D01*
X108681128Y-83117857D01*
X108679944Y-83117096D01*
X108642463Y-83093008D01*
X108596708Y-83040204D01*
X108586765Y-82971045D01*
X108615790Y-82907490D01*
X108674569Y-82869716D01*
X108690095Y-82866221D01*
X108725304Y-82860646D01*
X108838342Y-82803050D01*
X108928050Y-82713342D01*
X108985646Y-82600304D01*
X108985646Y-82600297D01*
X108988660Y-82591026D01*
X108990453Y-82591608D01*
X109004067Y-82556815D01*
X109020775Y-82531811D01*
X109073580Y-82404328D01*
X109100500Y-82268993D01*
X109100500Y-82131007D01*
X109100500Y-82131004D01*
X109073581Y-81995677D01*
X109073580Y-81995676D01*
X109073580Y-81995672D01*
X109051304Y-81941892D01*
X109020777Y-81868193D01*
X109020776Y-81868191D01*
X109020775Y-81868189D01*
X109004064Y-81843180D01*
X108990449Y-81808392D01*
X108988660Y-81808974D01*
X108985644Y-81799691D01*
X108951351Y-81732389D01*
X108928050Y-81686658D01*
X108928047Y-81686655D01*
X108928045Y-81686652D01*
X108838347Y-81596954D01*
X108838344Y-81596952D01*
X108838342Y-81596950D01*
X108761517Y-81557805D01*
X108725301Y-81539352D01*
X108631524Y-81524500D01*
X108631519Y-81524500D01*
X108606886Y-81524500D01*
X108582695Y-81522117D01*
X108545003Y-81514619D01*
X108468995Y-81499500D01*
X108468993Y-81499500D01*
X106981007Y-81499500D01*
X106936460Y-81508360D01*
X106867293Y-81522118D01*
X106843107Y-81524500D01*
X106818487Y-81524500D01*
X106765223Y-81532935D01*
X106724696Y-81539354D01*
X106611658Y-81596950D01*
X106611657Y-81596951D01*
X106611652Y-81596954D01*
X106521954Y-81686652D01*
X106521951Y-81686657D01*
X106521950Y-81686658D01*
X106498649Y-81732389D01*
X106464354Y-81799696D01*
X106461339Y-81808976D01*
X106459552Y-81808395D01*
X106445937Y-81843176D01*
X106429228Y-81868184D01*
X106429223Y-81868192D01*
X106376420Y-81995671D01*
X106376418Y-81995677D01*
X106349500Y-82131004D01*
X106349500Y-82131007D01*
X106349500Y-82268993D01*
X106349500Y-82268995D01*
X106349499Y-82268995D01*
X106000500Y-82268995D01*
X106000499Y-81893482D01*
X105985646Y-81799696D01*
X105928050Y-81686658D01*
X105928046Y-81686654D01*
X105928045Y-81686652D01*
X105838347Y-81596954D01*
X105838344Y-81596952D01*
X105838342Y-81596950D01*
X105761517Y-81557805D01*
X105725301Y-81539352D01*
X105631524Y-81524500D01*
X105168482Y-81524500D01*
X105087519Y-81537323D01*
X105074696Y-81539354D01*
X104961658Y-81596950D01*
X104961657Y-81596951D01*
X104961652Y-81596954D01*
X104871954Y-81686652D01*
X104871951Y-81686657D01*
X104871950Y-81686658D01*
X104852751Y-81724337D01*
X104814352Y-81799698D01*
X104799500Y-81893475D01*
X104799500Y-82506517D01*
X103505500Y-82506517D01*
X103505500Y-79968995D01*
X110274499Y-79968995D01*
X110301418Y-80104322D01*
X110301421Y-80104332D01*
X110354221Y-80231804D01*
X110354231Y-80231822D01*
X110370934Y-80256820D01*
X110384552Y-80291605D01*
X110386339Y-80291025D01*
X110389352Y-80300301D01*
X110401097Y-80323351D01*
X110446950Y-80413342D01*
X110446952Y-80413344D01*
X110446954Y-80413347D01*
X110536652Y-80503045D01*
X110536654Y-80503046D01*
X110536658Y-80503050D01*
X110642301Y-80556878D01*
X110649698Y-80560647D01*
X110743475Y-80575499D01*
X110743481Y-80575500D01*
X110768111Y-80575499D01*
X110792302Y-80577881D01*
X110858144Y-80590979D01*
X110906006Y-80600500D01*
X110906007Y-80600500D01*
X112418995Y-80600500D01*
X112497505Y-80584882D01*
X112532696Y-80577882D01*
X112556887Y-80575500D01*
X112608493Y-80575500D01*
X112708121Y-80559720D01*
X112708121Y-80559719D01*
X112708126Y-80559719D01*
X112828220Y-80498528D01*
X112923528Y-80403220D01*
X112984719Y-80283126D01*
X112985303Y-80279439D01*
X113000500Y-80183491D01*
X113000882Y-80178638D01*
X113001695Y-80178701D01*
X113009932Y-80137276D01*
X113010935Y-80134855D01*
X113054768Y-80080450D01*
X113121060Y-80058378D01*
X113188761Y-80075649D01*
X113236378Y-80126781D01*
X113249500Y-80182298D01*
X113249500Y-81683493D01*
X113265279Y-81783121D01*
X113265280Y-81783124D01*
X113265281Y-81783126D01*
X113326472Y-81903220D01*
X113326473Y-81903221D01*
X113326476Y-81903225D01*
X113421774Y-81998523D01*
X113421778Y-81998526D01*
X113421780Y-81998528D01*
X113541874Y-82059719D01*
X113541876Y-82059719D01*
X113541878Y-82059720D01*
X113641507Y-82075500D01*
X113641512Y-82075500D01*
X113777111Y-82075500D01*
X113844150Y-82095185D01*
X113889905Y-82147989D01*
X113901111Y-82199500D01*
X113901111Y-82355183D01*
X113899516Y-82371370D01*
X113899708Y-82371389D01*
X113899111Y-82377451D01*
X113899111Y-83075111D01*
X113879426Y-83142150D01*
X113826622Y-83187905D01*
X113775111Y-83199111D01*
X113077451Y-83199111D01*
X113071389Y-83199708D01*
X113071370Y-83199516D01*
X113055183Y-83201111D01*
X112981787Y-83201111D01*
X112914748Y-83181426D01*
X112888074Y-83158314D01*
X112860613Y-83126622D01*
X112831128Y-83092594D01*
X112710053Y-83014784D01*
X112710051Y-83014783D01*
X112710049Y-83014782D01*
X112710050Y-83014782D01*
X112571963Y-82974237D01*
X112571961Y-82974237D01*
X112428039Y-82974237D01*
X112428036Y-82974237D01*
X112289949Y-83014782D01*
X112168872Y-83092594D01*
X112162616Y-83098015D01*
X112099060Y-83127040D01*
X112029901Y-83117096D01*
X111993732Y-83091983D01*
X111978225Y-83076476D01*
X111978221Y-83076473D01*
X111978220Y-83076472D01*
X111858126Y-83015281D01*
X111858124Y-83015280D01*
X111858121Y-83015279D01*
X111758493Y-82999500D01*
X111758488Y-82999500D01*
X111241512Y-82999500D01*
X111241507Y-82999500D01*
X111141878Y-83015279D01*
X111021778Y-83076473D01*
X111021774Y-83076476D01*
X110926476Y-83171774D01*
X110926473Y-83171778D01*
X110865279Y-83291878D01*
X110849500Y-83391506D01*
X110849500Y-83958493D01*
X110865279Y-84058121D01*
X110865280Y-84058124D01*
X110865281Y-84058126D01*
X110926472Y-84178220D01*
X110926473Y-84178221D01*
X110926476Y-84178225D01*
X111021774Y-84273523D01*
X111021778Y-84273526D01*
X111021780Y-84273528D01*
X111141874Y-84334719D01*
X111141876Y-84334719D01*
X111141878Y-84334720D01*
X111241507Y-84350500D01*
X111241512Y-84350500D01*
X111435823Y-84350500D01*
X111452004Y-84351560D01*
X111457146Y-84352236D01*
X111457147Y-84352237D01*
X113055183Y-84352237D01*
X113071370Y-84353831D01*
X113071389Y-84353640D01*
X113077451Y-84354237D01*
X113077452Y-84354237D01*
X113929750Y-84354237D01*
X113929751Y-84354236D01*
X113948535Y-84350500D01*
X113988229Y-84342605D01*
X113988229Y-84342604D01*
X113988231Y-84342604D01*
X114054552Y-84298289D01*
X114098867Y-84231968D01*
X114098867Y-84231966D01*
X114098868Y-84231966D01*
X114110499Y-84173489D01*
X114110500Y-84173487D01*
X114110500Y-83879986D01*
X114110499Y-83879984D01*
X114096485Y-83809527D01*
X114098343Y-83809157D01*
X114092484Y-83754658D01*
X114098205Y-83735172D01*
X114110499Y-83673363D01*
X114110500Y-83673361D01*
X114110500Y-83534500D01*
X114130185Y-83467461D01*
X114182989Y-83421706D01*
X114234500Y-83410500D01*
X114373361Y-83410500D01*
X114373362Y-83410499D01*
X114388179Y-83407552D01*
X114431840Y-83398868D01*
X114431840Y-83398867D01*
X114431842Y-83398867D01*
X114498163Y-83354552D01*
X114542478Y-83288231D01*
X114542478Y-83288229D01*
X114542479Y-83288229D01*
X114554110Y-83229752D01*
X114899363Y-83229752D01*
X114910994Y-83288229D01*
X114910995Y-83288230D01*
X114955310Y-83354552D01*
X115021632Y-83398867D01*
X115021633Y-83398868D01*
X115080110Y-83410499D01*
X115080113Y-83410500D01*
X115080115Y-83410500D01*
X115373613Y-83410500D01*
X115373614Y-83410499D01*
X115388348Y-83407568D01*
X115444073Y-83396485D01*
X115444442Y-83398343D01*
X115498942Y-83392484D01*
X115518427Y-83398205D01*
X115580236Y-83410499D01*
X115580239Y-83410500D01*
X115580241Y-83410500D01*
X115719100Y-83410500D01*
X115786139Y-83430185D01*
X115831894Y-83482989D01*
X115843100Y-83534500D01*
X115843100Y-83673363D01*
X115857115Y-83743821D01*
X115855256Y-83744190D01*
X115861116Y-83798690D01*
X115855394Y-83818175D01*
X115843100Y-83879984D01*
X115843100Y-84173489D01*
X115857115Y-84243947D01*
X115855256Y-84244316D01*
X115861116Y-84298816D01*
X115855394Y-84318301D01*
X115843100Y-84380110D01*
X115843100Y-84673615D01*
X115854731Y-84732092D01*
X115854732Y-84732093D01*
X115899047Y-84798415D01*
X115965369Y-84842730D01*
X115965370Y-84842731D01*
X116023847Y-84854362D01*
X116023850Y-84854363D01*
X116023852Y-84854363D01*
X116876149Y-84854363D01*
X116882211Y-84853766D01*
X116882229Y-84853957D01*
X116898417Y-84852363D01*
X117474596Y-84852363D01*
X117512920Y-84858434D01*
X117516872Y-84859718D01*
X117516874Y-84859719D01*
X117516875Y-84859719D01*
X117516878Y-84859720D01*
X117616507Y-84875500D01*
X117616512Y-84875500D01*
X118133493Y-84875500D01*
X118233121Y-84859720D01*
X118233121Y-84859719D01*
X118233126Y-84859719D01*
X118353220Y-84798528D01*
X118448528Y-84703220D01*
X118509719Y-84583126D01*
X118509720Y-84583121D01*
X118525500Y-84483493D01*
X118525500Y-83916506D01*
X118509720Y-83816878D01*
X118509719Y-83816876D01*
X118509719Y-83816874D01*
X118448528Y-83696780D01*
X118448526Y-83696778D01*
X118448523Y-83696774D01*
X118353225Y-83601476D01*
X118353221Y-83601473D01*
X118353220Y-83601472D01*
X118233126Y-83540281D01*
X118233124Y-83540280D01*
X118233121Y-83540279D01*
X118133493Y-83524500D01*
X118133488Y-83524500D01*
X117622500Y-83524500D01*
X117555461Y-83504815D01*
X117509706Y-83452011D01*
X117498500Y-83400500D01*
X117498500Y-83125855D01*
X117498501Y-83125842D01*
X117498501Y-83030148D01*
X117498501Y-83030147D01*
X117476318Y-82947362D01*
X117448894Y-82899862D01*
X117433465Y-82873138D01*
X117372862Y-82812535D01*
X117372861Y-82812534D01*
X117368531Y-82808204D01*
X117368531Y-82808203D01*
X117368521Y-82808194D01*
X117161819Y-82601492D01*
X117128334Y-82540169D01*
X117125500Y-82513811D01*
X117125500Y-81057149D01*
X117125500Y-81057147D01*
X117103318Y-80974362D01*
X117103318Y-80974361D01*
X117060465Y-80900138D01*
X116541966Y-80381639D01*
X116508481Y-80320316D01*
X116507235Y-80308732D01*
X116506909Y-80308779D01*
X116504356Y-80291025D01*
X116485165Y-80157543D01*
X116425377Y-80026627D01*
X116331128Y-79917857D01*
X116210053Y-79840047D01*
X116210051Y-79840046D01*
X116210049Y-79840045D01*
X116210050Y-79840045D01*
X116071963Y-79799500D01*
X116071961Y-79799500D01*
X115928039Y-79799500D01*
X115928036Y-79799500D01*
X115789949Y-79840045D01*
X115668873Y-79917856D01*
X115574623Y-80026626D01*
X115574622Y-80026628D01*
X115514834Y-80157543D01*
X115500133Y-80259795D01*
X115471108Y-80323351D01*
X115465076Y-80329829D01*
X114966400Y-80828506D01*
X114966396Y-80828512D01*
X114923544Y-80902732D01*
X114923545Y-80902733D01*
X114901363Y-80985518D01*
X114901363Y-82355183D01*
X114899768Y-82371370D01*
X114899960Y-82371389D01*
X114899363Y-82377451D01*
X114899363Y-83229752D01*
X114554110Y-83229752D01*
X114554111Y-83229750D01*
X114554111Y-82377451D01*
X114553514Y-82371389D01*
X114553705Y-82371370D01*
X114552111Y-82355183D01*
X114552111Y-81779466D01*
X114552112Y-81779453D01*
X114552112Y-81683759D01*
X114551561Y-81679575D01*
X114550500Y-81663388D01*
X114550500Y-79616506D01*
X114534720Y-79516878D01*
X114534719Y-79516876D01*
X114534719Y-79516874D01*
X114473528Y-79396780D01*
X114473526Y-79396778D01*
X114473523Y-79396774D01*
X114378225Y-79301476D01*
X114378221Y-79301473D01*
X114378220Y-79301472D01*
X114258126Y-79240281D01*
X114258124Y-79240280D01*
X114258121Y-79240279D01*
X114158493Y-79224500D01*
X114158488Y-79224500D01*
X113641512Y-79224500D01*
X113641507Y-79224500D01*
X113541878Y-79240279D01*
X113421778Y-79301473D01*
X113421774Y-79301476D01*
X113326476Y-79396774D01*
X113326473Y-79396778D01*
X113265279Y-79516878D01*
X113249500Y-79616506D01*
X113249500Y-79617701D01*
X113249371Y-79618138D01*
X113249118Y-79621362D01*
X113248440Y-79621308D01*
X113229815Y-79684740D01*
X113177011Y-79730495D01*
X113107853Y-79740439D01*
X113044297Y-79711414D01*
X113010940Y-79665157D01*
X113009939Y-79662740D01*
X113001695Y-79621298D01*
X113000882Y-79621362D01*
X113000500Y-79616508D01*
X112984720Y-79516878D01*
X112984719Y-79516876D01*
X112984719Y-79516874D01*
X112923528Y-79396780D01*
X112923526Y-79396778D01*
X112923523Y-79396774D01*
X112828225Y-79301476D01*
X112828221Y-79301473D01*
X112828220Y-79301472D01*
X112708126Y-79240281D01*
X112708124Y-79240280D01*
X112708121Y-79240279D01*
X112608493Y-79224500D01*
X112608488Y-79224500D01*
X112556887Y-79224500D01*
X112532696Y-79222117D01*
X112497505Y-79215117D01*
X112418995Y-79199500D01*
X112418993Y-79199500D01*
X110906007Y-79199500D01*
X110861460Y-79208360D01*
X110792293Y-79222118D01*
X110768107Y-79224500D01*
X110743487Y-79224500D01*
X110690223Y-79232935D01*
X110649696Y-79239354D01*
X110536658Y-79296950D01*
X110536657Y-79296951D01*
X110536652Y-79296954D01*
X110446954Y-79386652D01*
X110446951Y-79386657D01*
X110389354Y-79499696D01*
X110386339Y-79508976D01*
X110384552Y-79508395D01*
X110370937Y-79543176D01*
X110354228Y-79568184D01*
X110354223Y-79568192D01*
X110301420Y-79695671D01*
X110301418Y-79695677D01*
X110274500Y-79831004D01*
X110274500Y-79831007D01*
X110274500Y-79968993D01*
X110274500Y-79968995D01*
X110274499Y-79968995D01*
X103505500Y-79968995D01*
X103505500Y-77124000D01*
X103493947Y-77016544D01*
X103482741Y-76965033D01*
X103482637Y-76964722D01*
X103448616Y-76862502D01*
X103448613Y-76862496D01*
X103403460Y-76792238D01*
X103370825Y-76741457D01*
X103364855Y-76734567D01*
X103325076Y-76688659D01*
X103325072Y-76688656D01*
X103325070Y-76688653D01*
X103216336Y-76594433D01*
X103216333Y-76594431D01*
X103216331Y-76594430D01*
X103085465Y-76534664D01*
X103085460Y-76534662D01*
X103085459Y-76534662D01*
X103018420Y-76514977D01*
X103018422Y-76514977D01*
X103018417Y-76514976D01*
X102970944Y-76508150D01*
X102876000Y-76494500D01*
X98051803Y-76494500D01*
X98051802Y-76494500D01*
X97996249Y-76497562D01*
X97969161Y-76500557D01*
X97969150Y-76500558D01*
X97969148Y-76500559D01*
X97941707Y-76505134D01*
X97914266Y-76509709D01*
X97914262Y-76509710D01*
X97779767Y-76560805D01*
X97718650Y-76594660D01*
X97603989Y-76681582D01*
X94936118Y-79381988D01*
X94585129Y-79737257D01*
X92614035Y-81732389D01*
X92321418Y-82028574D01*
X90465159Y-83907470D01*
X90114170Y-84262739D01*
X89476189Y-84908500D01*
X89476170Y-84908520D01*
X89441200Y-84947812D01*
X89425098Y-84967920D01*
X89394435Y-85010581D01*
X89394434Y-85010583D01*
X89334663Y-85141459D01*
X89334662Y-85141463D01*
X89314977Y-85208502D01*
X89314976Y-85208506D01*
X89294500Y-85350922D01*
X89294500Y-103576000D01*
X78961187Y-103576000D01*
X84445537Y-95912149D01*
X84446550Y-95910915D01*
X84450846Y-95904910D01*
X84450849Y-95904909D01*
X84489196Y-95851325D01*
X84489195Y-95851324D01*
X84494186Y-95844349D01*
X84661788Y-95610180D01*
X84979172Y-95109159D01*
X85267773Y-94591024D01*
X85526673Y-94057427D01*
X85755046Y-93510069D01*
X85952163Y-92950694D01*
X86117397Y-92381087D01*
X86250221Y-91803062D01*
X86350211Y-91218462D01*
X86417048Y-90629151D01*
X86450520Y-90037007D01*
X86450500Y-89740462D01*
X86450500Y-89674570D01*
X86450500Y-80688645D01*
X86470185Y-80621606D01*
X86522989Y-80575851D01*
X86544823Y-80568248D01*
X86590950Y-80556880D01*
X86834206Y-80464625D01*
X87064569Y-80343722D01*
X87278678Y-80195932D01*
X87473413Y-80023413D01*
X87645932Y-79828678D01*
X87793722Y-79614569D01*
X87914625Y-79384206D01*
X88006880Y-79140950D01*
X88069141Y-78888347D01*
X88100500Y-78630081D01*
X88100500Y-78500000D01*
X88100500Y-78434108D01*
X88100500Y-76234566D01*
X90045450Y-76234566D01*
X90045451Y-76234567D01*
X91463724Y-76234567D01*
X91434567Y-76381151D01*
X91434567Y-76587983D01*
X91463724Y-76734567D01*
X90045451Y-76734567D01*
X90049078Y-76792232D01*
X90049079Y-76792238D01*
X90106847Y-77095066D01*
X90202111Y-77388256D01*
X90202113Y-77388261D01*
X90333369Y-77667193D01*
X90333372Y-77667199D01*
X90498549Y-77927478D01*
X90695068Y-78165029D01*
X90919789Y-78376055D01*
X90919799Y-78376063D01*
X91169184Y-78557252D01*
X91169202Y-78557264D01*
X91439345Y-78705776D01*
X91439353Y-78705780D01*
X91725973Y-78819260D01*
X92024575Y-78895928D01*
X92024584Y-78895930D01*
X92234566Y-78922457D01*
X92234567Y-78922456D01*
X92234567Y-77505410D01*
X92381151Y-77534567D01*
X92587983Y-77534567D01*
X92734567Y-77505410D01*
X92734567Y-78922457D01*
X92944549Y-78895930D01*
X92944558Y-78895928D01*
X93243160Y-78819260D01*
X93529780Y-78705780D01*
X93529788Y-78705776D01*
X93799931Y-78557264D01*
X93799949Y-78557252D01*
X94049334Y-78376063D01*
X94049344Y-78376055D01*
X94274065Y-78165029D01*
X94470584Y-77927478D01*
X94635761Y-77667199D01*
X94635764Y-77667193D01*
X94767020Y-77388261D01*
X94767022Y-77388256D01*
X94862286Y-77095066D01*
X94920054Y-76792238D01*
X94920055Y-76792232D01*
X94923683Y-76734567D01*
X93505410Y-76734567D01*
X93534567Y-76587983D01*
X93534567Y-76381151D01*
X93505410Y-76234567D01*
X94923683Y-76234567D01*
X94923683Y-76234566D01*
X94920055Y-76176901D01*
X94920054Y-76176895D01*
X94862286Y-75874067D01*
X94767022Y-75580877D01*
X94767020Y-75580872D01*
X94635764Y-75301940D01*
X94635761Y-75301934D01*
X94470584Y-75041655D01*
X94274065Y-74804104D01*
X94049344Y-74593078D01*
X94049334Y-74593070D01*
X93799949Y-74411881D01*
X93799931Y-74411869D01*
X93529788Y-74263357D01*
X93529780Y-74263353D01*
X93243160Y-74149873D01*
X92944553Y-74073203D01*
X92734567Y-74046675D01*
X92734567Y-75463723D01*
X92587983Y-75434567D01*
X92381151Y-75434567D01*
X92234567Y-75463723D01*
X92234567Y-74046676D01*
X92234566Y-74046675D01*
X92024580Y-74073203D01*
X91725973Y-74149873D01*
X91439353Y-74263353D01*
X91439345Y-74263357D01*
X91169202Y-74411869D01*
X91169184Y-74411881D01*
X90919799Y-74593070D01*
X90919789Y-74593078D01*
X90695068Y-74804104D01*
X90498549Y-75041655D01*
X90333372Y-75301934D01*
X90333369Y-75301940D01*
X90202113Y-75580872D01*
X90202111Y-75580877D01*
X90106847Y-75874067D01*
X90049079Y-76176895D01*
X90049078Y-76176901D01*
X90045450Y-76234566D01*
X88100500Y-76234566D01*
X88100500Y-71774909D01*
X88120185Y-71707870D01*
X88172989Y-71662115D01*
X88178979Y-71659566D01*
X89172053Y-71267738D01*
X89174829Y-71266683D01*
X90569197Y-70756505D01*
X90571994Y-70755521D01*
X91978705Y-70280433D01*
X91981599Y-70279496D01*
X93399712Y-69839817D01*
X93402580Y-69838967D01*
X94831312Y-69434936D01*
X94834221Y-69434153D01*
X96272656Y-69066033D01*
X96275517Y-69065340D01*
X97722709Y-68733373D01*
X97725589Y-68732750D01*
X99180621Y-68437147D01*
X99183644Y-68436572D01*
X100645583Y-68177519D01*
X100648513Y-68177037D01*
X102116561Y-67954678D01*
X102119551Y-67954264D01*
X103592604Y-67768763D01*
X103595602Y-67768423D01*
X105072875Y-67619879D01*
X105075947Y-67619609D01*
X106556453Y-67508122D01*
X106559495Y-67507931D01*
X108042304Y-67433568D01*
X108045356Y-67433453D01*
X109529568Y-67396261D01*
X109532674Y-67396222D01*
X111017326Y-67396222D01*
X111020432Y-67396261D01*
G37*
G04 #@! TD.AperFunction*
G04 #@! TA.AperFunction,Conductor*
G36*
X102943039Y-77019685D02*
G01*
X102988794Y-77072489D01*
X103000000Y-77124000D01*
X103000000Y-103576000D01*
X102980315Y-103643039D01*
X102927511Y-103688794D01*
X102876000Y-103700000D01*
X89924000Y-103700000D01*
X89856961Y-103680315D01*
X89811206Y-103627511D01*
X89800000Y-103576000D01*
X89800000Y-85350922D01*
X89819685Y-85283883D01*
X89835786Y-85263776D01*
X90824761Y-84262740D01*
X96797918Y-84262740D01*
X97505001Y-84969823D01*
X97505022Y-84969842D01*
X97585053Y-85035038D01*
X97585059Y-85035042D01*
X97741740Y-85113730D01*
X97912329Y-85154161D01*
X97912340Y-85154163D01*
X98087660Y-85154163D01*
X98087670Y-85154161D01*
X98258259Y-85113730D01*
X98414940Y-85035042D01*
X98494977Y-84969843D01*
X98494992Y-84969830D01*
X99202081Y-84262741D01*
X99202081Y-84262740D01*
X98000000Y-83060660D01*
X96797918Y-84262740D01*
X90824761Y-84262740D01*
X92973637Y-82087659D01*
X94845837Y-82087659D01*
X94845838Y-82087670D01*
X94886269Y-82258259D01*
X94964957Y-82414940D01*
X95030156Y-82494977D01*
X95030170Y-82494993D01*
X95737258Y-83202081D01*
X96835922Y-82103416D01*
X96950000Y-82103416D01*
X96990350Y-82306274D01*
X97069502Y-82497362D01*
X97184411Y-82669336D01*
X97330664Y-82815589D01*
X97502638Y-82930498D01*
X97693726Y-83009650D01*
X97896584Y-83050000D01*
X98103416Y-83050000D01*
X98306274Y-83009650D01*
X98497362Y-82930498D01*
X98669336Y-82815589D01*
X98815589Y-82669336D01*
X98930498Y-82497362D01*
X99009650Y-82306274D01*
X99050000Y-82103416D01*
X99050000Y-82000000D01*
X99060660Y-82000000D01*
X100262741Y-83202081D01*
X100969823Y-82494998D01*
X100969842Y-82494977D01*
X101035038Y-82414946D01*
X101035042Y-82414940D01*
X101113730Y-82258259D01*
X101154161Y-82087670D01*
X101154163Y-82087659D01*
X101154163Y-81912340D01*
X101154161Y-81912329D01*
X101113730Y-81741740D01*
X101035042Y-81585059D01*
X100969843Y-81505022D01*
X100969829Y-81505006D01*
X100262741Y-80797918D01*
X100262740Y-80797918D01*
X99060660Y-81999999D01*
X99060660Y-82000000D01*
X99050000Y-82000000D01*
X99050000Y-81896584D01*
X99009650Y-81693726D01*
X98930498Y-81502638D01*
X98815589Y-81330664D01*
X98669336Y-81184411D01*
X98497362Y-81069502D01*
X98306274Y-80990350D01*
X98103416Y-80950000D01*
X97896584Y-80950000D01*
X97693726Y-80990350D01*
X97502638Y-81069502D01*
X97330664Y-81184411D01*
X97184411Y-81330664D01*
X97069502Y-81502638D01*
X96990350Y-81693726D01*
X96950000Y-81896584D01*
X96950000Y-82103416D01*
X96835922Y-82103416D01*
X96939339Y-81999999D01*
X95737258Y-80797918D01*
X95737257Y-80797918D01*
X95030176Y-81505001D01*
X95030157Y-81505022D01*
X94964961Y-81585053D01*
X94964957Y-81585059D01*
X94886269Y-81741740D01*
X94845838Y-81912329D01*
X94845837Y-81912340D01*
X94845837Y-82087659D01*
X92973637Y-82087659D01*
X95295720Y-79737258D01*
X96797918Y-79737258D01*
X98000000Y-80939340D01*
X98000001Y-80939340D01*
X99202081Y-79737258D01*
X99202081Y-79737257D01*
X98494998Y-79030176D01*
X98494977Y-79030157D01*
X98414946Y-78964961D01*
X98414940Y-78964957D01*
X98258259Y-78886269D01*
X98087670Y-78845838D01*
X98087660Y-78845837D01*
X97912340Y-78845837D01*
X97912329Y-78845838D01*
X97741740Y-78886269D01*
X97585059Y-78964957D01*
X97505022Y-79030156D01*
X97505006Y-79030170D01*
X96797918Y-79737257D01*
X96797918Y-79737258D01*
X95295720Y-79737258D01*
X97963592Y-77036852D01*
X98024711Y-77002996D01*
X98051803Y-77000000D01*
X102876000Y-77000000D01*
X102943039Y-77019685D01*
G37*
G04 #@! TD.AperFunction*
G04 #@! TA.AperFunction,Conductor*
G36*
X113067494Y-84852382D02*
G01*
X113077452Y-84854363D01*
X113776000Y-84854363D01*
X113843039Y-84874048D01*
X113888794Y-84926852D01*
X113900000Y-84978363D01*
X113900000Y-85172852D01*
X113911631Y-85231329D01*
X113911632Y-85231330D01*
X113955947Y-85297652D01*
X114022269Y-85341967D01*
X114022270Y-85341968D01*
X114080747Y-85353599D01*
X114080750Y-85353600D01*
X114080752Y-85353600D01*
X114775363Y-85353600D01*
X114842402Y-85373285D01*
X114888157Y-85426089D01*
X114899363Y-85477600D01*
X114899363Y-86176152D01*
X114910994Y-86234629D01*
X114910995Y-86234630D01*
X114955310Y-86300952D01*
X115021632Y-86345267D01*
X115021633Y-86345268D01*
X115079715Y-86356820D01*
X115080115Y-86356900D01*
X115080120Y-86356900D01*
X115086175Y-86357497D01*
X115085946Y-86359820D01*
X115143039Y-86376585D01*
X115188794Y-86429389D01*
X115200000Y-86480900D01*
X115200000Y-95370500D01*
X115180315Y-95437539D01*
X115127511Y-95483294D01*
X115076000Y-95494500D01*
X106124000Y-95494500D01*
X106056961Y-95474815D01*
X106011206Y-95422011D01*
X106000000Y-95370500D01*
X106000000Y-84974000D01*
X106019685Y-84906961D01*
X106072489Y-84861206D01*
X106124000Y-84850000D01*
X113043306Y-84850000D01*
X113067494Y-84852382D01*
G37*
G04 #@! TD.AperFunction*
G04 #@! TA.AperFunction,Conductor*
G36*
X123143039Y-88069685D02*
G01*
X123188794Y-88122489D01*
X123200000Y-88174000D01*
X123200000Y-112700000D01*
X129076000Y-112700000D01*
X129143039Y-112719685D01*
X129188794Y-112772489D01*
X129200000Y-112824000D01*
X129200000Y-124776000D01*
X129180315Y-124843039D01*
X129127511Y-124888794D01*
X129076000Y-124900000D01*
X106124000Y-124900000D01*
X106056961Y-124880315D01*
X106011206Y-124827511D01*
X106000000Y-124776000D01*
X106000000Y-114041101D01*
X106019685Y-113974062D01*
X106072489Y-113928307D01*
X106124000Y-113917101D01*
X107194750Y-113917101D01*
X107194751Y-113917100D01*
X107209568Y-113914153D01*
X107253229Y-113905469D01*
X107253229Y-113905468D01*
X107253231Y-113905468D01*
X107319552Y-113861153D01*
X107363867Y-113794832D01*
X107363867Y-113794830D01*
X107363868Y-113794830D01*
X107375499Y-113736353D01*
X107375500Y-113736351D01*
X107375500Y-108413650D01*
X107375499Y-108413648D01*
X107363868Y-108355171D01*
X107363867Y-108355170D01*
X107319552Y-108288848D01*
X107253230Y-108244533D01*
X107253229Y-108244532D01*
X107194752Y-108232901D01*
X107194748Y-108232901D01*
X106124000Y-108232901D01*
X106056961Y-108213216D01*
X106011206Y-108160412D01*
X106000000Y-108108901D01*
X106000000Y-95824000D01*
X106019685Y-95756961D01*
X106072489Y-95711206D01*
X106124000Y-95700000D01*
X115450000Y-95700000D01*
X115450000Y-88174000D01*
X115469685Y-88106961D01*
X115522489Y-88061206D01*
X115574000Y-88050000D01*
X123076000Y-88050000D01*
X123143039Y-88069685D01*
G37*
G04 #@! TD.AperFunction*
M02*
