M48
; DRILL file {KiCad 8.0.1} date 2024-05-01T12:54:10+0800
; FORMAT={-:-/ absolute / metric / decimal}
; #@! TF.CreationDate,2024-05-01T12:54:10+08:00
; #@! TF.GenerationSoftware,Kicad,Pcbnew,8.0.1
; #@! TF.FileFunction,Plated,1,2,PTH
FMAT,2
METRIC
; #@! TA.AperFunction,Plated,PTH,ViaDrill
T1C0.300
; #@! TA.AperFunction,Plated,PTH,ComponentDrill
T2C2.100
%
G90
G05
T1
X76.0Y-139.0
X76.0Y-140.0
X76.0Y-141.0
X76.0Y-142.0
X76.0Y-143.0
X76.0Y-144.0
X76.0Y-145.0
X76.0Y-146.0
X76.0Y-147.0
X76.0Y-148.0
X82.0Y-152.0
X83.0Y-152.0
X84.0Y-152.0
X85.0Y-152.0
X86.0Y-152.0
X87.0Y-152.0
X88.0Y-152.0
X89.0Y-72.0
X89.0Y-73.0
X89.0Y-74.0
X89.0Y-75.0
X89.0Y-152.0
X90.0Y-152.0
X91.0Y-152.0
X105.4Y-83.2
X106.3Y-96.0
X108.35Y-83.5
X112.5Y-83.475
X114.45Y-83.75
X114.45Y-84.8
X114.9Y-79.5
X114.9Y-80.4
X114.977Y-84.277
X115.5Y-83.75
X115.5Y-84.8
X116.0Y-80.3
X116.0Y-87.0
X117.0Y-87.0
X118.0Y-87.0
X119.0Y-87.0
X120.0Y-87.0
X131.0Y-152.0
X132.0Y-72.0
X132.0Y-73.0
X132.0Y-74.0
X132.0Y-75.0
X132.0Y-152.0
X133.0Y-152.0
X134.0Y-152.0
X135.0Y-152.0
X136.0Y-152.0
X137.0Y-152.0
X138.0Y-152.0
X139.0Y-152.0
X140.0Y-152.0
X145.0Y-140.0
X145.0Y-141.0
X145.0Y-142.0
X145.0Y-143.0
X145.0Y-144.0
X145.0Y-145.0
X145.0Y-146.0
X145.0Y-147.0
X145.0Y-148.0
X145.0Y-149.0
T2
X92.485Y-76.485
X98.0Y-82.0
M30
