G04 #@! TF.GenerationSoftware,KiCad,Pcbnew,8.0.1*
G04 #@! TF.CreationDate,2024-05-09T01:50:06+08:00*
G04 #@! TF.ProjectId,BatteryPod,42617474-6572-4795-906f-642e6b696361,rev?*
G04 #@! TF.SameCoordinates,Original*
G04 #@! TF.FileFunction,Soldermask,Bot*
G04 #@! TF.FilePolarity,Negative*
%FSLAX46Y46*%
G04 Gerber Fmt 4.6, Leading zero omitted, Abs format (unit mm)*
G04 Created by KiCad (PCBNEW 8.0.1) date 2024-05-09 01:50:06*
%MOMM*%
%LPD*%
G01*
G04 APERTURE LIST*
G04 Aperture macros list*
%AMRoundRect*
0 Rectangle with rounded corners*
0 $1 Rounding radius*
0 $2 $3 $4 $5 $6 $7 $8 $9 X,Y pos of 4 corners*
0 Add a 4 corners polygon primitive as box body*
4,1,4,$2,$3,$4,$5,$6,$7,$8,$9,$2,$3,0*
0 Add four circle primitives for the rounded corners*
1,1,$1+$1,$2,$3*
1,1,$1+$1,$4,$5*
1,1,$1+$1,$6,$7*
1,1,$1+$1,$8,$9*
0 Add four rect primitives between the rounded corners*
20,1,$1+$1,$2,$3,$4,$5,0*
20,1,$1+$1,$4,$5,$6,$7,0*
20,1,$1+$1,$6,$7,$8,$9,0*
20,1,$1+$1,$8,$9,$2,$3,0*%
G04 Aperture macros list end*
%ADD10C,0.100000*%
%ADD11C,0.150000*%
%ADD12R,1.700000X1.700000*%
%ADD13O,1.700000X1.700000*%
%ADD14C,0.400000*%
%ADD15RoundRect,0.250002X2.404160X0.000000X0.000000X2.404160X-2.404160X0.000000X0.000000X-2.404160X0*%
%ADD16C,3.900000*%
%ADD17C,0.650000*%
%ADD18O,1.000000X2.100000*%
%ADD19O,1.000000X1.800000*%
%ADD20C,2.500000*%
%ADD21C,2.000000*%
G04 APERTURE END LIST*
D10*
X140000000Y-124400000D02*
X144500000Y-124400000D01*
X144500000Y-127400000D01*
X140000000Y-127400000D01*
X140000000Y-124400000D01*
G36*
X140000000Y-124400000D02*
G01*
X144500000Y-124400000D01*
X144500000Y-127400000D01*
X140000000Y-127400000D01*
X140000000Y-124400000D01*
G37*
X140000000Y-131800000D02*
X144500000Y-131800000D01*
X144500000Y-134800000D01*
X140000000Y-134800000D01*
X140000000Y-131800000D01*
G36*
X140000000Y-131800000D02*
G01*
X144500000Y-131800000D01*
X144500000Y-134800000D01*
X140000000Y-134800000D01*
X140000000Y-131800000D01*
G37*
D11*
X81598683Y-143803152D02*
X81360588Y-144469819D01*
X81360588Y-144469819D02*
X81122493Y-143803152D01*
X80551064Y-143469819D02*
X80455826Y-143469819D01*
X80455826Y-143469819D02*
X80360588Y-143517438D01*
X80360588Y-143517438D02*
X80312969Y-143565057D01*
X80312969Y-143565057D02*
X80265350Y-143660295D01*
X80265350Y-143660295D02*
X80217731Y-143850771D01*
X80217731Y-143850771D02*
X80217731Y-144088866D01*
X80217731Y-144088866D02*
X80265350Y-144279342D01*
X80265350Y-144279342D02*
X80312969Y-144374580D01*
X80312969Y-144374580D02*
X80360588Y-144422200D01*
X80360588Y-144422200D02*
X80455826Y-144469819D01*
X80455826Y-144469819D02*
X80551064Y-144469819D01*
X80551064Y-144469819D02*
X80646302Y-144422200D01*
X80646302Y-144422200D02*
X80693921Y-144374580D01*
X80693921Y-144374580D02*
X80741540Y-144279342D01*
X80741540Y-144279342D02*
X80789159Y-144088866D01*
X80789159Y-144088866D02*
X80789159Y-143850771D01*
X80789159Y-143850771D02*
X80741540Y-143660295D01*
X80741540Y-143660295D02*
X80693921Y-143565057D01*
X80693921Y-143565057D02*
X80646302Y-143517438D01*
X80646302Y-143517438D02*
X80551064Y-143469819D01*
X79789159Y-144374580D02*
X79741540Y-144422200D01*
X79741540Y-144422200D02*
X79789159Y-144469819D01*
X79789159Y-144469819D02*
X79836778Y-144422200D01*
X79836778Y-144422200D02*
X79789159Y-144374580D01*
X79789159Y-144374580D02*
X79789159Y-144469819D01*
X78789160Y-144469819D02*
X79360588Y-144469819D01*
X79074874Y-144469819D02*
X79074874Y-143469819D01*
X79074874Y-143469819D02*
X79170112Y-143612676D01*
X79170112Y-143612676D02*
X79265350Y-143707914D01*
X79265350Y-143707914D02*
X79360588Y-143755533D01*
D12*
X128850000Y-96890000D03*
D13*
X128850000Y-94350000D03*
X128850000Y-91810000D03*
D14*
X121876800Y-110876800D03*
X121876800Y-109676800D03*
X121276800Y-110276800D03*
X120676800Y-110876800D03*
X120676800Y-109676800D03*
D12*
X114800000Y-84250000D03*
D13*
X112260000Y-84250000D03*
X109720000Y-84250000D03*
X107180000Y-84250000D03*
X104640000Y-84250000D03*
D15*
X98000000Y-82000000D03*
D16*
X92484567Y-76484567D03*
D17*
X113140000Y-80205000D03*
X107360000Y-80205000D03*
D18*
X114570000Y-80725000D03*
D19*
X114570000Y-76525000D03*
D18*
X105930000Y-80725000D03*
D19*
X105930000Y-76525000D03*
D12*
X125575000Y-103350000D03*
D13*
X123035000Y-103350000D03*
X120495000Y-103350000D03*
D20*
X98400000Y-150100000D03*
X136050000Y-101300000D03*
D21*
X135000000Y-125100000D03*
D20*
X84450000Y-101300000D03*
D21*
X135000000Y-134000000D03*
D20*
X142700000Y-144600000D03*
M02*
