%TF.GenerationSoftware,KiCad,Pcbnew,8.0.1*%
%TF.CreationDate,2024-05-09T01:50:10+08:00*%
%TF.ProjectId,BatteryPod,42617474-6572-4795-906f-642e6b696361,rev?*%
%TF.SameCoordinates,Original*%
%TF.FileFunction,Drillmap*%
%TF.FilePolarity,Positive*%
%FSLAX45Y45*%
G04 Gerber Fmt 4.5, Leading zero omitted, Abs format (unit mm)*
G04 Created by KiCad (PCBNEW 8.0.1) date 2024-05-09 01:50:10*
%MOMM*%
%LPD*%
G01*
G04 APERTURE LIST*
%ADD10C,0.050000*%
%ADD11C,0.200000*%
%ADD12C,0.100000*%
%ADD13C,0.210000*%
G04 APERTURE END LIST*
D10*
X14297600Y-10865000D02*
G75*
G02*
X14182400Y-10865000I-57600J0D01*
G01*
X14182400Y-10865000D02*
G75*
G02*
X14297600Y-10865000I57600J0D01*
G01*
X14262600Y-14962400D02*
G75*
G02*
X14147400Y-14962400I-57600J0D01*
G01*
X14147400Y-14962400D02*
G75*
G02*
X14262600Y-14962400I57600J0D01*
G01*
X7867600Y-10865000D02*
G75*
G02*
X7752400Y-10865000I-57600J0D01*
G01*
X7752400Y-10865000D02*
G75*
G02*
X7867600Y-10865000I57600J0D01*
G01*
X14247500Y-13907500D02*
X13972500Y-13907500D01*
X13972500Y-13782500D02*
X14247500Y-13782500D01*
X13972500Y-13907500D02*
G75*
G02*
X13910000Y-13845000I0J62500D01*
G01*
X14310000Y-13845000D02*
G75*
G02*
X14247500Y-13907500I-62500J0D01*
G01*
X13910000Y-13845000D02*
G75*
G02*
X13972500Y-13782500I62500J0D01*
G01*
X14247500Y-13782500D02*
G75*
G02*
X14310000Y-13845000I0J-62500D01*
G01*
X13972500Y-12032500D02*
X14247500Y-12032500D01*
X14247500Y-12157500D02*
X13972500Y-12157500D01*
X14247500Y-12032500D02*
G75*
G02*
X14310000Y-12095000I0J-62500D01*
G01*
X14310000Y-12095000D02*
G75*
G02*
X14247500Y-12157500I-62500J0D01*
G01*
X13910000Y-12095000D02*
G75*
G02*
X13972500Y-12032500I62500J0D01*
G01*
X13972500Y-12157500D02*
G75*
G02*
X13910000Y-12095000I0J62500D01*
G01*
X10500000Y-7375000D02*
G75*
G02*
X10450000Y-7325000I0J50000D01*
G01*
X14414421Y-10634538D02*
G75*
G02*
X14599998Y-11214813I-814421J-580272D01*
G01*
X7950000Y-15345000D02*
G75*
G02*
X7450000Y-14845000I0J500000D01*
G01*
X13295000Y-7135001D02*
X13295000Y-7850000D01*
X14410000Y-13195000D02*
G75*
G02*
X14410000Y-12745000I115000J225000D01*
G01*
X14480000Y-12095000D02*
X14530000Y-12095000D01*
X13460000Y-8015000D02*
X13460000Y-8975187D01*
X8760000Y-7850000D02*
X8760000Y-7135000D01*
X14410000Y-13195000D02*
X14410000Y-13775000D01*
X14410000Y-12165000D02*
G75*
G02*
X14480000Y-12095000I70000J0D01*
G01*
X14530000Y-13845000D02*
G75*
G02*
X14600000Y-13915000I0J-70000D01*
G01*
X8760000Y-7135000D02*
G75*
G02*
X10449906Y-6717025I2267510J-5542519D01*
G01*
X11600000Y-7325000D02*
X11600044Y-6716539D01*
X7450000Y-11215954D02*
G75*
G02*
X7636782Y-10633995I1000000J0D01*
G01*
X8760000Y-7850000D02*
G75*
G02*
X8595000Y-8015000I-165000J0D01*
G01*
X8595000Y-8974046D02*
G75*
G02*
X8408218Y-9556005I-1000000J0D01*
G01*
X13460000Y-8015000D02*
G75*
G02*
X13295000Y-7850000I0J165000D01*
G01*
X11600044Y-6716539D02*
G75*
G02*
X13295000Y-7135000I-572534J-5960921D01*
G01*
X10500000Y-7375000D02*
X11550000Y-7375000D01*
X14530000Y-13845000D02*
X14480000Y-13845000D01*
X14100000Y-15345000D02*
X7950000Y-15345000D01*
X7636782Y-10633995D02*
X8408209Y-9555999D01*
X14480000Y-13845000D02*
G75*
G02*
X14410000Y-13775000I0J70000D01*
G01*
X14600000Y-13915000D02*
X14600000Y-14845000D01*
X14600000Y-12025000D02*
G75*
G02*
X14530000Y-12095000I-70000J0D01*
G01*
X8595000Y-8974046D02*
X8595000Y-8015000D01*
X13645579Y-9555462D02*
X14414421Y-10634538D01*
X10449906Y-6717026D02*
X10450000Y-7325000D01*
X7450000Y-14845000D02*
X7450000Y-11215954D01*
X14600000Y-11214813D02*
X14600000Y-12025000D01*
X14410000Y-12165000D02*
X14410000Y-12745000D01*
X11600000Y-7325000D02*
G75*
G02*
X11550000Y-7375000I-50000J0D01*
G01*
X14600000Y-14845000D02*
G75*
G02*
X14100000Y-15345000I-500000J0D01*
G01*
X13645579Y-9555462D02*
G75*
G02*
X13460002Y-8975187I814421J580272D01*
G01*
D11*
D12*
X12057680Y-10957680D02*
X12077680Y-10977680D01*
X12077680Y-10957680D02*
X12057680Y-10977680D01*
X12057680Y-11077680D02*
X12077680Y-11097680D01*
X12077680Y-11077680D02*
X12057680Y-11097680D01*
X12117680Y-11017680D02*
X12137680Y-11037680D01*
X12137680Y-11017680D02*
X12117680Y-11037680D01*
X12177680Y-10957680D02*
X12197680Y-10977680D01*
X12197680Y-10957680D02*
X12177680Y-10977680D01*
X12177680Y-11077680D02*
X12197680Y-11097680D01*
X12197680Y-11077680D02*
X12177680Y-11097680D01*
X10835000Y-8897500D02*
G75*
G02*
X10810000Y-8897500I-12500J0D01*
G01*
X10810000Y-8897500D02*
G75*
G02*
X10835000Y-8897500I12500J0D01*
G01*
X10835000Y-8967500D02*
G75*
G02*
X10810000Y-8967500I-12500J0D01*
G01*
X10810000Y-8967500D02*
G75*
G02*
X10835000Y-8967500I12500J0D01*
G01*
X10835000Y-9037500D02*
G75*
G02*
X10810000Y-9037500I-12500J0D01*
G01*
X10810000Y-9037500D02*
G75*
G02*
X10835000Y-9037500I12500J0D01*
G01*
X10835000Y-9107500D02*
G75*
G02*
X10810000Y-9107500I-12500J0D01*
G01*
X10810000Y-9107500D02*
G75*
G02*
X10835000Y-9107500I12500J0D01*
G01*
X10905000Y-8897500D02*
G75*
G02*
X10880000Y-8897500I-12500J0D01*
G01*
X10880000Y-8897500D02*
G75*
G02*
X10905000Y-8897500I12500J0D01*
G01*
X10905000Y-8967500D02*
G75*
G02*
X10880000Y-8967500I-12500J0D01*
G01*
X10880000Y-8967500D02*
G75*
G02*
X10905000Y-8967500I12500J0D01*
G01*
X10905000Y-9037500D02*
G75*
G02*
X10880000Y-9037500I-12500J0D01*
G01*
X10880000Y-9037500D02*
G75*
G02*
X10905000Y-9037500I12500J0D01*
G01*
X10905000Y-9107500D02*
G75*
G02*
X10880000Y-9107500I-12500J0D01*
G01*
X10880000Y-9107500D02*
G75*
G02*
X10905000Y-9107500I12500J0D01*
G01*
X10975000Y-8897500D02*
G75*
G02*
X10950000Y-8897500I-12500J0D01*
G01*
X10950000Y-8897500D02*
G75*
G02*
X10975000Y-8897500I12500J0D01*
G01*
X10975000Y-8967500D02*
G75*
G02*
X10950000Y-8967500I-12500J0D01*
G01*
X10950000Y-8967500D02*
G75*
G02*
X10975000Y-8967500I12500J0D01*
G01*
X10975000Y-9037500D02*
G75*
G02*
X10950000Y-9037500I-12500J0D01*
G01*
X10950000Y-9037500D02*
G75*
G02*
X10975000Y-9037500I12500J0D01*
G01*
X10975000Y-9107500D02*
G75*
G02*
X10950000Y-9107500I-12500J0D01*
G01*
X10950000Y-9107500D02*
G75*
G02*
X10975000Y-9107500I12500J0D01*
G01*
X11045000Y-8897500D02*
G75*
G02*
X11020000Y-8897500I-12500J0D01*
G01*
X11020000Y-8897500D02*
G75*
G02*
X11045000Y-8897500I12500J0D01*
G01*
X11045000Y-8967500D02*
G75*
G02*
X11020000Y-8967500I-12500J0D01*
G01*
X11020000Y-8967500D02*
G75*
G02*
X11045000Y-8967500I12500J0D01*
G01*
X11045000Y-9037500D02*
G75*
G02*
X11020000Y-9037500I-12500J0D01*
G01*
X11020000Y-9037500D02*
G75*
G02*
X11045000Y-9037500I12500J0D01*
G01*
X11045000Y-9107500D02*
G75*
G02*
X11020000Y-9107500I-12500J0D01*
G01*
X11020000Y-9107500D02*
G75*
G02*
X11045000Y-9107500I12500J0D01*
G01*
X11157500Y-8897500D02*
G75*
G02*
X11132500Y-8897500I-12500J0D01*
G01*
X11132500Y-8897500D02*
G75*
G02*
X11157500Y-8897500I12500J0D01*
G01*
X11157500Y-8967500D02*
G75*
G02*
X11132500Y-8967500I-12500J0D01*
G01*
X11132500Y-8967500D02*
G75*
G02*
X11157500Y-8967500I12500J0D01*
G01*
X11157500Y-9037500D02*
G75*
G02*
X11132500Y-9037500I-12500J0D01*
G01*
X11132500Y-9037500D02*
G75*
G02*
X11157500Y-9037500I12500J0D01*
G01*
X11157500Y-9107500D02*
G75*
G02*
X11132500Y-9107500I-12500J0D01*
G01*
X11132500Y-9107500D02*
G75*
G02*
X11157500Y-9107500I12500J0D01*
G01*
X11227500Y-8897500D02*
G75*
G02*
X11202500Y-8897500I-12500J0D01*
G01*
X11202500Y-8897500D02*
G75*
G02*
X11227500Y-8897500I12500J0D01*
G01*
X11227500Y-8967500D02*
G75*
G02*
X11202500Y-8967500I-12500J0D01*
G01*
X11202500Y-8967500D02*
G75*
G02*
X11227500Y-8967500I12500J0D01*
G01*
X11227500Y-9037500D02*
G75*
G02*
X11202500Y-9037500I-12500J0D01*
G01*
X11202500Y-9037500D02*
G75*
G02*
X11227500Y-9037500I12500J0D01*
G01*
X11227500Y-9107500D02*
G75*
G02*
X11202500Y-9107500I-12500J0D01*
G01*
X11202500Y-9107500D02*
G75*
G02*
X11227500Y-9107500I12500J0D01*
G01*
X7600000Y-11085000D02*
X7600000Y-11115000D01*
X7585000Y-11100000D02*
X7615000Y-11100000D01*
X7600000Y-11185000D02*
X7600000Y-11215000D01*
X7585000Y-11200000D02*
X7615000Y-11200000D01*
X7600000Y-11285000D02*
X7600000Y-11315000D01*
X7585000Y-11300000D02*
X7615000Y-11300000D01*
X7600000Y-11385000D02*
X7600000Y-11415000D01*
X7585000Y-11400000D02*
X7615000Y-11400000D01*
X7600000Y-11485000D02*
X7600000Y-11515000D01*
X7585000Y-11500000D02*
X7615000Y-11500000D01*
X7600000Y-11585000D02*
X7600000Y-11615000D01*
X7585000Y-11600000D02*
X7615000Y-11600000D01*
X7600000Y-11685000D02*
X7600000Y-11715000D01*
X7585000Y-11700000D02*
X7615000Y-11700000D01*
X7600000Y-11785000D02*
X7600000Y-11815000D01*
X7585000Y-11800000D02*
X7615000Y-11800000D01*
X7600000Y-11885000D02*
X7600000Y-11915000D01*
X7585000Y-11900000D02*
X7615000Y-11900000D01*
X7600000Y-11985000D02*
X7600000Y-12015000D01*
X7585000Y-12000000D02*
X7615000Y-12000000D01*
X7600000Y-12085000D02*
X7600000Y-12115000D01*
X7585000Y-12100000D02*
X7615000Y-12100000D01*
X7600000Y-13885000D02*
X7600000Y-13915000D01*
X7585000Y-13900000D02*
X7615000Y-13900000D01*
X7600000Y-13985000D02*
X7600000Y-14015000D01*
X7585000Y-14000000D02*
X7615000Y-14000000D01*
X7600000Y-14085000D02*
X7600000Y-14115000D01*
X7585000Y-14100000D02*
X7615000Y-14100000D01*
X7600000Y-14185000D02*
X7600000Y-14215000D01*
X7585000Y-14200000D02*
X7615000Y-14200000D01*
X7600000Y-14285000D02*
X7600000Y-14315000D01*
X7585000Y-14300000D02*
X7615000Y-14300000D01*
X7600000Y-14385000D02*
X7600000Y-14415000D01*
X7585000Y-14400000D02*
X7615000Y-14400000D01*
X7600000Y-14485000D02*
X7600000Y-14515000D01*
X7585000Y-14500000D02*
X7615000Y-14500000D01*
X7600000Y-14585000D02*
X7600000Y-14615000D01*
X7585000Y-14600000D02*
X7615000Y-14600000D01*
X7600000Y-14685000D02*
X7600000Y-14715000D01*
X7585000Y-14700000D02*
X7615000Y-14700000D01*
X7600000Y-14785000D02*
X7600000Y-14815000D01*
X7585000Y-14800000D02*
X7615000Y-14800000D01*
X8200000Y-15185000D02*
X8200000Y-15215000D01*
X8185000Y-15200000D02*
X8215000Y-15200000D01*
X8300000Y-15185000D02*
X8300000Y-15215000D01*
X8285000Y-15200000D02*
X8315000Y-15200000D01*
X8400000Y-15185000D02*
X8400000Y-15215000D01*
X8385000Y-15200000D02*
X8415000Y-15200000D01*
X8500000Y-15185000D02*
X8500000Y-15215000D01*
X8485000Y-15200000D02*
X8515000Y-15200000D01*
X8600000Y-15185000D02*
X8600000Y-15215000D01*
X8585000Y-15200000D02*
X8615000Y-15200000D01*
X8700000Y-8085000D02*
X8700000Y-8115000D01*
X8685000Y-8100000D02*
X8715000Y-8100000D01*
X8700000Y-8185000D02*
X8700000Y-8215000D01*
X8685000Y-8200000D02*
X8715000Y-8200000D01*
X8700000Y-8285000D02*
X8700000Y-8315000D01*
X8685000Y-8300000D02*
X8715000Y-8300000D01*
X8700000Y-8385000D02*
X8700000Y-8415000D01*
X8685000Y-8400000D02*
X8715000Y-8400000D01*
X8700000Y-8485000D02*
X8700000Y-8515000D01*
X8685000Y-8500000D02*
X8715000Y-8500000D01*
X8700000Y-8585000D02*
X8700000Y-8615000D01*
X8685000Y-8600000D02*
X8715000Y-8600000D01*
X8700000Y-8685000D02*
X8700000Y-8715000D01*
X8685000Y-8700000D02*
X8715000Y-8700000D01*
X8700000Y-8785000D02*
X8700000Y-8815000D01*
X8685000Y-8800000D02*
X8715000Y-8800000D01*
X8700000Y-8885000D02*
X8700000Y-8915000D01*
X8685000Y-8900000D02*
X8715000Y-8900000D01*
X8700000Y-15185000D02*
X8700000Y-15215000D01*
X8685000Y-15200000D02*
X8715000Y-15200000D01*
X8800000Y-15185000D02*
X8800000Y-15215000D01*
X8785000Y-15200000D02*
X8815000Y-15200000D01*
X8900000Y-7185000D02*
X8900000Y-7215000D01*
X8885000Y-7200000D02*
X8915000Y-7200000D01*
X8900000Y-7285000D02*
X8900000Y-7315000D01*
X8885000Y-7300000D02*
X8915000Y-7300000D01*
X8900000Y-7385000D02*
X8900000Y-7415000D01*
X8885000Y-7400000D02*
X8915000Y-7400000D01*
X8900000Y-7485000D02*
X8900000Y-7515000D01*
X8885000Y-7500000D02*
X8915000Y-7500000D01*
X8900000Y-11785000D02*
X8900000Y-11815000D01*
X8885000Y-11800000D02*
X8915000Y-11800000D01*
X8900000Y-11885000D02*
X8900000Y-11915000D01*
X8885000Y-11900000D02*
X8915000Y-11900000D01*
X8900000Y-11985000D02*
X8900000Y-12015000D01*
X8885000Y-12000000D02*
X8915000Y-12000000D01*
X8900000Y-12085000D02*
X8900000Y-12115000D01*
X8885000Y-12100000D02*
X8915000Y-12100000D01*
X8900000Y-12185000D02*
X8900000Y-12215000D01*
X8885000Y-12200000D02*
X8915000Y-12200000D01*
X8900000Y-12285000D02*
X8900000Y-12315000D01*
X8885000Y-12300000D02*
X8915000Y-12300000D01*
X8900000Y-15185000D02*
X8900000Y-15215000D01*
X8885000Y-15200000D02*
X8915000Y-15200000D01*
X9000000Y-7135000D02*
X9000000Y-7165000D01*
X8985000Y-7150000D02*
X9015000Y-7150000D01*
X9000000Y-12285000D02*
X9000000Y-12315000D01*
X8985000Y-12300000D02*
X9015000Y-12300000D01*
X9000000Y-15185000D02*
X9000000Y-15215000D01*
X8985000Y-15200000D02*
X9015000Y-15200000D01*
X9100000Y-12285000D02*
X9100000Y-12315000D01*
X9085000Y-12300000D02*
X9115000Y-12300000D01*
X9100000Y-15185000D02*
X9100000Y-15215000D01*
X9085000Y-15200000D02*
X9115000Y-15200000D01*
X9200000Y-12285000D02*
X9200000Y-12315000D01*
X9185000Y-12300000D02*
X9215000Y-12300000D01*
X9300000Y-12285000D02*
X9300000Y-12315000D01*
X9285000Y-12300000D02*
X9315000Y-12300000D01*
X9400000Y-12285000D02*
X9400000Y-12315000D01*
X9385000Y-12300000D02*
X9415000Y-12300000D01*
X9500000Y-12285000D02*
X9500000Y-12315000D01*
X9485000Y-12300000D02*
X9515000Y-12300000D01*
X9700000Y-12285000D02*
X9700000Y-12315000D01*
X9685000Y-12300000D02*
X9715000Y-12300000D01*
X9800000Y-12285000D02*
X9800000Y-12315000D01*
X9785000Y-12300000D02*
X9815000Y-12300000D01*
X9900000Y-12285000D02*
X9900000Y-12315000D01*
X9885000Y-12300000D02*
X9915000Y-12300000D01*
X10000000Y-12285000D02*
X10000000Y-12315000D01*
X9985000Y-12300000D02*
X10015000Y-12300000D01*
X10100000Y-12285000D02*
X10100000Y-12315000D01*
X10085000Y-12300000D02*
X10115000Y-12300000D01*
X10200000Y-12285000D02*
X10200000Y-12315000D01*
X10185000Y-12300000D02*
X10215000Y-12300000D01*
X10300000Y-12285000D02*
X10300000Y-12315000D01*
X10285000Y-12300000D02*
X10315000Y-12300000D01*
X10400000Y-12285000D02*
X10400000Y-12315000D01*
X10385000Y-12300000D02*
X10415000Y-12300000D01*
X10500000Y-12285000D02*
X10500000Y-12315000D01*
X10485000Y-12300000D02*
X10515000Y-12300000D01*
X10600000Y-12285000D02*
X10600000Y-12315000D01*
X10585000Y-12300000D02*
X10615000Y-12300000D01*
X10630000Y-10320000D02*
X10630000Y-10350000D01*
X10615000Y-10335000D02*
X10645000Y-10335000D01*
X10635000Y-8950000D02*
X10635000Y-8980000D01*
X10620000Y-8965000D02*
X10650000Y-8965000D01*
X10700000Y-12285000D02*
X10700000Y-12315000D01*
X10685000Y-12300000D02*
X10715000Y-12300000D01*
X10740000Y-10320000D02*
X10740000Y-10350000D01*
X10725000Y-10335000D02*
X10755000Y-10335000D01*
X10785000Y-8221000D02*
X10785000Y-8251000D01*
X10770000Y-8236000D02*
X10800000Y-8236000D01*
X10800000Y-12285000D02*
X10800000Y-12315000D01*
X10785000Y-12300000D02*
X10815000Y-12300000D01*
X10850000Y-10320000D02*
X10850000Y-10350000D01*
X10835000Y-10335000D02*
X10865000Y-10335000D01*
X10900000Y-12285000D02*
X10900000Y-12315000D01*
X10885000Y-12300000D02*
X10915000Y-12300000D01*
X10949800Y-8280200D02*
X10949800Y-8310200D01*
X10934800Y-8295200D02*
X10964800Y-8295200D01*
X10960000Y-9385000D02*
X10960000Y-9415000D01*
X10945000Y-9400000D02*
X10975000Y-9400000D01*
X10960000Y-9785000D02*
X10960000Y-9815000D01*
X10945000Y-9800000D02*
X10975000Y-9800000D01*
X10960000Y-10185000D02*
X10960000Y-10215000D01*
X10945000Y-10200000D02*
X10975000Y-10200000D01*
X11000000Y-10485000D02*
X11000000Y-10515000D01*
X10985000Y-10500000D02*
X11015000Y-10500000D01*
X11000000Y-11785000D02*
X11000000Y-11815000D01*
X10985000Y-11800000D02*
X11015000Y-11800000D01*
X11000000Y-11885000D02*
X11000000Y-11915000D01*
X10985000Y-11900000D02*
X11015000Y-11900000D01*
X11000000Y-11985000D02*
X11000000Y-12015000D01*
X10985000Y-12000000D02*
X11015000Y-12000000D01*
X11000000Y-12085000D02*
X11000000Y-12115000D01*
X10985000Y-12100000D02*
X11015000Y-12100000D01*
X11000000Y-12185000D02*
X11000000Y-12215000D01*
X10985000Y-12200000D02*
X11015000Y-12200000D01*
X11000000Y-12285000D02*
X11000000Y-12315000D01*
X10985000Y-12300000D02*
X11015000Y-12300000D01*
X11025000Y-9295200D02*
X11025000Y-9325200D01*
X11010000Y-9310200D02*
X11040000Y-9310200D01*
X11077485Y-8280485D02*
X11077485Y-8310485D01*
X11062485Y-8295485D02*
X11092485Y-8295485D01*
X11080000Y-9385000D02*
X11080000Y-9415000D01*
X11065000Y-9400000D02*
X11095000Y-9400000D01*
X11080000Y-9485000D02*
X11080000Y-9515000D01*
X11065000Y-9500000D02*
X11095000Y-9500000D01*
X11080000Y-9585000D02*
X11080000Y-9615000D01*
X11065000Y-9600000D02*
X11095000Y-9600000D01*
X11080000Y-9685000D02*
X11080000Y-9715000D01*
X11065000Y-9700000D02*
X11095000Y-9700000D01*
X11080000Y-9785000D02*
X11080000Y-9815000D01*
X11065000Y-9800000D02*
X11095000Y-9800000D01*
X11080000Y-9880000D02*
X11080000Y-9910000D01*
X11065000Y-9895000D02*
X11095000Y-9895000D01*
X11080000Y-9980000D02*
X11080000Y-10010000D01*
X11065000Y-9995000D02*
X11095000Y-9995000D01*
X11080000Y-10080000D02*
X11080000Y-10110000D01*
X11065000Y-10095000D02*
X11095000Y-10095000D01*
X11080000Y-10180000D02*
X11080000Y-10210000D01*
X11065000Y-10195000D02*
X11095000Y-10195000D01*
X11090000Y-13125000D02*
X11090000Y-13155000D01*
X11075000Y-13140000D02*
X11105000Y-13140000D01*
X11090000Y-13225000D02*
X11090000Y-13255000D01*
X11075000Y-13240000D02*
X11105000Y-13240000D01*
X11090000Y-13325000D02*
X11090000Y-13355000D01*
X11075000Y-13340000D02*
X11105000Y-13340000D01*
X11090000Y-13425000D02*
X11090000Y-13455000D01*
X11075000Y-13440000D02*
X11105000Y-13440000D01*
X11090000Y-13525000D02*
X11090000Y-13555000D01*
X11075000Y-13540000D02*
X11105000Y-13540000D01*
X11090000Y-13625000D02*
X11090000Y-13655000D01*
X11075000Y-13640000D02*
X11105000Y-13640000D01*
X11090000Y-13725000D02*
X11090000Y-13755000D01*
X11075000Y-13740000D02*
X11105000Y-13740000D01*
X11090000Y-13825000D02*
X11090000Y-13855000D01*
X11075000Y-13840000D02*
X11105000Y-13840000D01*
X11090000Y-13925000D02*
X11090000Y-13955000D01*
X11075000Y-13940000D02*
X11105000Y-13940000D01*
X11100000Y-10485000D02*
X11100000Y-10515000D01*
X11085000Y-10500000D02*
X11115000Y-10500000D01*
X11100500Y-8587000D02*
X11100500Y-8617000D01*
X11085500Y-8602000D02*
X11115500Y-8602000D01*
X11145000Y-9295200D02*
X11145000Y-9325200D01*
X11130000Y-9310200D02*
X11160000Y-9310200D01*
X11150247Y-8282253D02*
X11150247Y-8312253D01*
X11135247Y-8297253D02*
X11165247Y-8297253D01*
X11180000Y-10180000D02*
X11180000Y-10210000D01*
X11165000Y-10195000D02*
X11195000Y-10195000D01*
X11190000Y-13925000D02*
X11190000Y-13955000D01*
X11175000Y-13940000D02*
X11205000Y-13940000D01*
X11195200Y-9344800D02*
X11195200Y-9374800D01*
X11180200Y-9359800D02*
X11210200Y-9359800D01*
X11200000Y-10485000D02*
X11200000Y-10515000D01*
X11185000Y-10500000D02*
X11215000Y-10500000D01*
X11245400Y-9295200D02*
X11245400Y-9325200D01*
X11230400Y-9310200D02*
X11260400Y-9310200D01*
X11265000Y-8223500D02*
X11265000Y-8253500D01*
X11250000Y-8238500D02*
X11280000Y-8238500D01*
X11280000Y-10180000D02*
X11280000Y-10210000D01*
X11265000Y-10195000D02*
X11295000Y-10195000D01*
X11286680Y-8583180D02*
X11286680Y-8613180D01*
X11271680Y-8598180D02*
X11301680Y-8598180D01*
X11290000Y-13925000D02*
X11290000Y-13955000D01*
X11275000Y-13940000D02*
X11305000Y-13940000D01*
X11300000Y-10485000D02*
X11300000Y-10515000D01*
X11285000Y-10500000D02*
X11315000Y-10500000D01*
X11340000Y-10880000D02*
X11340000Y-10910000D01*
X11325000Y-10895000D02*
X11355000Y-10895000D01*
X11380000Y-10180000D02*
X11380000Y-10210000D01*
X11365000Y-10195000D02*
X11395000Y-10195000D01*
X11385000Y-11015000D02*
X11385000Y-11045000D01*
X11370000Y-11030000D02*
X11400000Y-11030000D01*
X11390000Y-13925000D02*
X11390000Y-13955000D01*
X11375000Y-13940000D02*
X11405000Y-13940000D01*
X11400000Y-10485000D02*
X11400000Y-10515000D01*
X11385000Y-10500000D02*
X11415000Y-10500000D01*
X11480000Y-10180000D02*
X11480000Y-10210000D01*
X11465000Y-10195000D02*
X11495000Y-10195000D01*
X11484774Y-11025200D02*
X11484774Y-11055200D01*
X11469774Y-11040200D02*
X11499774Y-11040200D01*
X11490000Y-13925000D02*
X11490000Y-13955000D01*
X11475000Y-13940000D02*
X11505000Y-13940000D01*
X11500000Y-10485000D02*
X11500000Y-10515000D01*
X11485000Y-10500000D02*
X11515000Y-10500000D01*
X11580000Y-10180000D02*
X11580000Y-10210000D01*
X11565000Y-10195000D02*
X11595000Y-10195000D01*
X11580000Y-11025000D02*
X11580000Y-11055000D01*
X11565000Y-11040000D02*
X11595000Y-11040000D01*
X11590000Y-13925000D02*
X11590000Y-13955000D01*
X11575000Y-13940000D02*
X11605000Y-13940000D01*
X11690000Y-13925000D02*
X11690000Y-13955000D01*
X11675000Y-13940000D02*
X11705000Y-13940000D01*
X11790000Y-13925000D02*
X11790000Y-13955000D01*
X11775000Y-13940000D02*
X11805000Y-13940000D01*
X11800000Y-8685000D02*
X11800000Y-8715000D01*
X11785000Y-8700000D02*
X11815000Y-8700000D01*
X11800000Y-8785000D02*
X11800000Y-8815000D01*
X11785000Y-8800000D02*
X11815000Y-8800000D01*
X11800000Y-8885000D02*
X11800000Y-8915000D01*
X11785000Y-8900000D02*
X11815000Y-8900000D01*
X11800000Y-8985000D02*
X11800000Y-9015000D01*
X11785000Y-9000000D02*
X11815000Y-9000000D01*
X11800000Y-9085000D02*
X11800000Y-9115000D01*
X11785000Y-9100000D02*
X11815000Y-9100000D01*
X11890000Y-13925000D02*
X11890000Y-13955000D01*
X11875000Y-13940000D02*
X11905000Y-13940000D01*
X11900000Y-9085000D02*
X11900000Y-9115000D01*
X11885000Y-9100000D02*
X11915000Y-9100000D01*
X11920000Y-10815000D02*
X11920000Y-10845000D01*
X11905000Y-10830000D02*
X11935000Y-10830000D01*
X11990000Y-10865000D02*
X11990000Y-10895000D01*
X11975000Y-10880000D02*
X12005000Y-10880000D01*
X11990000Y-13925000D02*
X11990000Y-13955000D01*
X11975000Y-13940000D02*
X12005000Y-13940000D01*
X12090000Y-13925000D02*
X12090000Y-13955000D01*
X12075000Y-13940000D02*
X12105000Y-13940000D01*
X12115000Y-9235000D02*
X12115000Y-9265000D01*
X12100000Y-9250000D02*
X12130000Y-9250000D01*
X12120000Y-10535000D02*
X12120000Y-10565000D01*
X12105000Y-10550000D02*
X12135000Y-10550000D01*
X12120000Y-10625000D02*
X12120000Y-10655000D01*
X12105000Y-10640000D02*
X12135000Y-10640000D01*
X12140000Y-9495000D02*
X12140000Y-9525000D01*
X12125000Y-9510000D02*
X12155000Y-9510000D01*
X12140000Y-9620000D02*
X12140000Y-9650000D01*
X12125000Y-9635000D02*
X12155000Y-9635000D01*
X12190000Y-13925000D02*
X12190000Y-13955000D01*
X12175000Y-13940000D02*
X12205000Y-13940000D01*
X12195000Y-11395000D02*
X12195000Y-11425000D01*
X12180000Y-11410000D02*
X12210000Y-11410000D01*
X12230000Y-11285000D02*
X12230000Y-11315000D01*
X12215000Y-11300000D02*
X12245000Y-11300000D01*
X12260000Y-10585000D02*
X12260000Y-10615000D01*
X12245000Y-10600000D02*
X12275000Y-10600000D01*
X12275000Y-11160000D02*
X12275000Y-11190000D01*
X12260000Y-11175000D02*
X12290000Y-11175000D01*
X12290000Y-13925000D02*
X12290000Y-13955000D01*
X12275000Y-13940000D02*
X12305000Y-13940000D01*
X12300000Y-12685000D02*
X12300000Y-12715000D01*
X12285000Y-12700000D02*
X12315000Y-12700000D01*
X12300000Y-12785000D02*
X12300000Y-12815000D01*
X12285000Y-12800000D02*
X12315000Y-12800000D01*
X12300000Y-13285000D02*
X12300000Y-13315000D01*
X12285000Y-13300000D02*
X12315000Y-13300000D01*
X12300000Y-13385000D02*
X12300000Y-13415000D01*
X12285000Y-13400000D02*
X12315000Y-13400000D01*
X12330000Y-11285000D02*
X12330000Y-11315000D01*
X12315000Y-11300000D02*
X12345000Y-11300000D01*
X12365000Y-9075000D02*
X12365000Y-9105000D01*
X12350000Y-9090000D02*
X12380000Y-9090000D01*
X12390000Y-13925000D02*
X12390000Y-13955000D01*
X12375000Y-13940000D02*
X12405000Y-13940000D01*
X12400000Y-12585000D02*
X12400000Y-12615000D01*
X12385000Y-12600000D02*
X12415000Y-12600000D01*
X12400000Y-12685000D02*
X12400000Y-12715000D01*
X12385000Y-12700000D02*
X12415000Y-12700000D01*
X12400000Y-12785000D02*
X12400000Y-12815000D01*
X12385000Y-12800000D02*
X12415000Y-12800000D01*
X12400000Y-12885000D02*
X12400000Y-12915000D01*
X12385000Y-12900000D02*
X12415000Y-12900000D01*
X12400000Y-13285000D02*
X12400000Y-13315000D01*
X12385000Y-13300000D02*
X12415000Y-13300000D01*
X12400000Y-13385000D02*
X12400000Y-13415000D01*
X12385000Y-13400000D02*
X12415000Y-13400000D01*
X12430000Y-11285000D02*
X12430000Y-11315000D01*
X12415000Y-11300000D02*
X12445000Y-11300000D01*
X12490000Y-13925000D02*
X12490000Y-13955000D01*
X12475000Y-13940000D02*
X12505000Y-13940000D01*
X12500000Y-10635000D02*
X12500000Y-10665000D01*
X12485000Y-10650000D02*
X12515000Y-10650000D01*
X12500000Y-10725000D02*
X12500000Y-10755000D01*
X12485000Y-10740000D02*
X12515000Y-10740000D01*
X12500000Y-12585000D02*
X12500000Y-12615000D01*
X12485000Y-12600000D02*
X12515000Y-12600000D01*
X12500000Y-12685000D02*
X12500000Y-12715000D01*
X12485000Y-12700000D02*
X12515000Y-12700000D01*
X12500000Y-12785000D02*
X12500000Y-12815000D01*
X12485000Y-12800000D02*
X12515000Y-12800000D01*
X12500000Y-12885000D02*
X12500000Y-12915000D01*
X12485000Y-12900000D02*
X12515000Y-12900000D01*
X12500000Y-13285000D02*
X12500000Y-13315000D01*
X12485000Y-13300000D02*
X12515000Y-13300000D01*
X12500000Y-13385000D02*
X12500000Y-13415000D01*
X12485000Y-13400000D02*
X12515000Y-13400000D01*
X12530000Y-11285000D02*
X12530000Y-11315000D01*
X12515000Y-11300000D02*
X12545000Y-11300000D01*
X12600000Y-12585000D02*
X12600000Y-12615000D01*
X12585000Y-12600000D02*
X12615000Y-12600000D01*
X12600000Y-12685000D02*
X12600000Y-12715000D01*
X12585000Y-12700000D02*
X12615000Y-12700000D01*
X12600000Y-12785000D02*
X12600000Y-12815000D01*
X12585000Y-12800000D02*
X12615000Y-12800000D01*
X12600000Y-12885000D02*
X12600000Y-12915000D01*
X12585000Y-12900000D02*
X12615000Y-12900000D01*
X12600000Y-13285000D02*
X12600000Y-13315000D01*
X12585000Y-13300000D02*
X12615000Y-13300000D01*
X12600000Y-13385000D02*
X12600000Y-13415000D01*
X12585000Y-13400000D02*
X12615000Y-13400000D01*
X12630000Y-11285000D02*
X12630000Y-11315000D01*
X12615000Y-11300000D02*
X12645000Y-11300000D01*
X12700000Y-12085000D02*
X12700000Y-12115000D01*
X12685000Y-12100000D02*
X12715000Y-12100000D01*
X12700000Y-12185000D02*
X12700000Y-12215000D01*
X12685000Y-12200000D02*
X12715000Y-12200000D01*
X12700000Y-12285000D02*
X12700000Y-12315000D01*
X12685000Y-12300000D02*
X12715000Y-12300000D01*
X12700000Y-12385000D02*
X12700000Y-12415000D01*
X12685000Y-12400000D02*
X12715000Y-12400000D01*
X12700000Y-12585000D02*
X12700000Y-12615000D01*
X12685000Y-12600000D02*
X12715000Y-12600000D01*
X12700000Y-12685000D02*
X12700000Y-12715000D01*
X12685000Y-12700000D02*
X12715000Y-12700000D01*
X12700000Y-12785000D02*
X12700000Y-12815000D01*
X12685000Y-12800000D02*
X12715000Y-12800000D01*
X12700000Y-12885000D02*
X12700000Y-12915000D01*
X12685000Y-12900000D02*
X12715000Y-12900000D01*
X12700000Y-12985000D02*
X12700000Y-13015000D01*
X12685000Y-13000000D02*
X12715000Y-13000000D01*
X12700000Y-13085000D02*
X12700000Y-13115000D01*
X12685000Y-13100000D02*
X12715000Y-13100000D01*
X12700000Y-13185000D02*
X12700000Y-13215000D01*
X12685000Y-13200000D02*
X12715000Y-13200000D01*
X12700000Y-13285000D02*
X12700000Y-13315000D01*
X12685000Y-13300000D02*
X12715000Y-13300000D01*
X12700000Y-13385000D02*
X12700000Y-13415000D01*
X12685000Y-13400000D02*
X12715000Y-13400000D01*
X12730000Y-11285000D02*
X12730000Y-11315000D01*
X12715000Y-11300000D02*
X12745000Y-11300000D01*
X12800000Y-12085000D02*
X12800000Y-12115000D01*
X12785000Y-12100000D02*
X12815000Y-12100000D01*
X12800000Y-12185000D02*
X12800000Y-12215000D01*
X12785000Y-12200000D02*
X12815000Y-12200000D01*
X12800000Y-12285000D02*
X12800000Y-12315000D01*
X12785000Y-12300000D02*
X12815000Y-12300000D01*
X12800000Y-12385000D02*
X12800000Y-12415000D01*
X12785000Y-12400000D02*
X12815000Y-12400000D01*
X12800000Y-12585000D02*
X12800000Y-12615000D01*
X12785000Y-12600000D02*
X12815000Y-12600000D01*
X12800000Y-12685000D02*
X12800000Y-12715000D01*
X12785000Y-12700000D02*
X12815000Y-12700000D01*
X12800000Y-12775000D02*
X12800000Y-12805000D01*
X12785000Y-12790000D02*
X12815000Y-12790000D01*
X12800000Y-12875000D02*
X12800000Y-12905000D01*
X12785000Y-12890000D02*
X12815000Y-12890000D01*
X12800000Y-12975000D02*
X12800000Y-13005000D01*
X12785000Y-12990000D02*
X12815000Y-12990000D01*
X12800000Y-13075000D02*
X12800000Y-13105000D01*
X12785000Y-13090000D02*
X12815000Y-13090000D01*
X12800000Y-13175000D02*
X12800000Y-13205000D01*
X12785000Y-13190000D02*
X12815000Y-13190000D01*
X12800000Y-13275000D02*
X12800000Y-13305000D01*
X12785000Y-13290000D02*
X12815000Y-13290000D01*
X12800000Y-13375000D02*
X12800000Y-13405000D01*
X12785000Y-13390000D02*
X12815000Y-13390000D01*
X12830000Y-11285000D02*
X12830000Y-11315000D01*
X12815000Y-11300000D02*
X12845000Y-11300000D01*
X12900000Y-12085000D02*
X12900000Y-12115000D01*
X12885000Y-12100000D02*
X12915000Y-12100000D01*
X12900000Y-12185000D02*
X12900000Y-12215000D01*
X12885000Y-12200000D02*
X12915000Y-12200000D01*
X12900000Y-12285000D02*
X12900000Y-12315000D01*
X12885000Y-12300000D02*
X12915000Y-12300000D01*
X12900000Y-12385000D02*
X12900000Y-12415000D01*
X12885000Y-12400000D02*
X12915000Y-12400000D01*
X12900000Y-12585000D02*
X12900000Y-12615000D01*
X12885000Y-12600000D02*
X12915000Y-12600000D01*
X12900000Y-12685000D02*
X12900000Y-12715000D01*
X12885000Y-12700000D02*
X12915000Y-12700000D01*
X12900000Y-12775000D02*
X12900000Y-12805000D01*
X12885000Y-12790000D02*
X12915000Y-12790000D01*
X12900000Y-12875000D02*
X12900000Y-12905000D01*
X12885000Y-12890000D02*
X12915000Y-12890000D01*
X12900000Y-12975000D02*
X12900000Y-13005000D01*
X12885000Y-12990000D02*
X12915000Y-12990000D01*
X12900000Y-13075000D02*
X12900000Y-13105000D01*
X12885000Y-13090000D02*
X12915000Y-13090000D01*
X12900000Y-13175000D02*
X12900000Y-13205000D01*
X12885000Y-13190000D02*
X12915000Y-13190000D01*
X12900000Y-13275000D02*
X12900000Y-13305000D01*
X12885000Y-13290000D02*
X12915000Y-13290000D01*
X12900000Y-13375000D02*
X12900000Y-13405000D01*
X12885000Y-13390000D02*
X12915000Y-13390000D01*
X12930000Y-11285000D02*
X12930000Y-11315000D01*
X12915000Y-11300000D02*
X12945000Y-11300000D01*
X12990000Y-13925000D02*
X12990000Y-13955000D01*
X12975000Y-13940000D02*
X13005000Y-13940000D01*
X13030000Y-11285000D02*
X13030000Y-11315000D01*
X13015000Y-11300000D02*
X13045000Y-11300000D01*
X13030000Y-11385000D02*
X13030000Y-11415000D01*
X13015000Y-11400000D02*
X13045000Y-11400000D01*
X13090000Y-13925000D02*
X13090000Y-13955000D01*
X13075000Y-13940000D02*
X13105000Y-13940000D01*
X13100000Y-7135000D02*
X13100000Y-7165000D01*
X13085000Y-7150000D02*
X13115000Y-7150000D01*
X13190000Y-13725000D02*
X13190000Y-13755000D01*
X13175000Y-13740000D02*
X13205000Y-13740000D01*
X13190000Y-13825000D02*
X13190000Y-13855000D01*
X13175000Y-13840000D02*
X13205000Y-13840000D01*
X13190000Y-13925000D02*
X13190000Y-13955000D01*
X13175000Y-13940000D02*
X13205000Y-13940000D01*
X13200000Y-7185000D02*
X13200000Y-7215000D01*
X13185000Y-7200000D02*
X13215000Y-7200000D01*
X13200000Y-7285000D02*
X13200000Y-7315000D01*
X13185000Y-7300000D02*
X13215000Y-7300000D01*
X13200000Y-7385000D02*
X13200000Y-7415000D01*
X13185000Y-7400000D02*
X13215000Y-7400000D01*
X13200000Y-7485000D02*
X13200000Y-7515000D01*
X13185000Y-7500000D02*
X13215000Y-7500000D01*
X13300000Y-15185000D02*
X13300000Y-15215000D01*
X13285000Y-15200000D02*
X13315000Y-15200000D01*
X13340000Y-8085000D02*
X13340000Y-8115000D01*
X13325000Y-8100000D02*
X13355000Y-8100000D01*
X13340000Y-8185000D02*
X13340000Y-8215000D01*
X13325000Y-8200000D02*
X13355000Y-8200000D01*
X13340000Y-8285000D02*
X13340000Y-8315000D01*
X13325000Y-8300000D02*
X13355000Y-8300000D01*
X13340000Y-8385000D02*
X13340000Y-8415000D01*
X13325000Y-8400000D02*
X13355000Y-8400000D01*
X13340000Y-8485000D02*
X13340000Y-8515000D01*
X13325000Y-8500000D02*
X13355000Y-8500000D01*
X13340000Y-8585000D02*
X13340000Y-8615000D01*
X13325000Y-8600000D02*
X13355000Y-8600000D01*
X13340000Y-8685000D02*
X13340000Y-8715000D01*
X13325000Y-8700000D02*
X13355000Y-8700000D01*
X13340000Y-8785000D02*
X13340000Y-8815000D01*
X13325000Y-8800000D02*
X13355000Y-8800000D01*
X13340000Y-8885000D02*
X13340000Y-8915000D01*
X13325000Y-8900000D02*
X13355000Y-8900000D01*
X13400000Y-15185000D02*
X13400000Y-15215000D01*
X13385000Y-15200000D02*
X13415000Y-15200000D01*
X13500000Y-15185000D02*
X13500000Y-15215000D01*
X13485000Y-15200000D02*
X13515000Y-15200000D01*
X13600000Y-15185000D02*
X13600000Y-15215000D01*
X13585000Y-15200000D02*
X13615000Y-15200000D01*
X13700000Y-15185000D02*
X13700000Y-15215000D01*
X13685000Y-15200000D02*
X13715000Y-15200000D01*
X13800000Y-15185000D02*
X13800000Y-15215000D01*
X13785000Y-15200000D02*
X13815000Y-15200000D01*
X13900000Y-13085000D02*
X13900000Y-13115000D01*
X13885000Y-13100000D02*
X13915000Y-13100000D01*
X13900000Y-13185000D02*
X13900000Y-13215000D01*
X13885000Y-13200000D02*
X13915000Y-13200000D01*
X13900000Y-13285000D02*
X13900000Y-13315000D01*
X13885000Y-13300000D02*
X13915000Y-13300000D01*
X13900000Y-13385000D02*
X13900000Y-13415000D01*
X13885000Y-13400000D02*
X13915000Y-13400000D01*
X13900000Y-13485000D02*
X13900000Y-13515000D01*
X13885000Y-13500000D02*
X13915000Y-13500000D01*
X13900000Y-15185000D02*
X13900000Y-15215000D01*
X13885000Y-15200000D02*
X13915000Y-15200000D01*
X14000000Y-13085000D02*
X14000000Y-13115000D01*
X13985000Y-13100000D02*
X14015000Y-13100000D01*
X14000000Y-13585000D02*
X14000000Y-13615000D01*
X13985000Y-13600000D02*
X14015000Y-13600000D01*
X14000000Y-15185000D02*
X14000000Y-15215000D01*
X13985000Y-15200000D02*
X14015000Y-15200000D01*
X14100000Y-13585000D02*
X14100000Y-13615000D01*
X14085000Y-13600000D02*
X14115000Y-13600000D01*
X14200000Y-13085000D02*
X14200000Y-13115000D01*
X14185000Y-13100000D02*
X14215000Y-13100000D01*
X14500000Y-11085000D02*
X14500000Y-11115000D01*
X14485000Y-11100000D02*
X14515000Y-11100000D01*
X14500000Y-11185000D02*
X14500000Y-11215000D01*
X14485000Y-11200000D02*
X14515000Y-11200000D01*
X14500000Y-11285000D02*
X14500000Y-11315000D01*
X14485000Y-11300000D02*
X14515000Y-11300000D01*
X14500000Y-11385000D02*
X14500000Y-11415000D01*
X14485000Y-11400000D02*
X14515000Y-11400000D01*
X14500000Y-11485000D02*
X14500000Y-11515000D01*
X14485000Y-11500000D02*
X14515000Y-11500000D01*
X14500000Y-11585000D02*
X14500000Y-11615000D01*
X14485000Y-11600000D02*
X14515000Y-11600000D01*
X14500000Y-11685000D02*
X14500000Y-11715000D01*
X14485000Y-11700000D02*
X14515000Y-11700000D01*
X14500000Y-11785000D02*
X14500000Y-11815000D01*
X14485000Y-11800000D02*
X14515000Y-11800000D01*
X14500000Y-11885000D02*
X14500000Y-11915000D01*
X14485000Y-11900000D02*
X14515000Y-11900000D01*
X14500000Y-11985000D02*
X14500000Y-12015000D01*
X14485000Y-12000000D02*
X14515000Y-12000000D01*
X14500000Y-13985000D02*
X14500000Y-14015000D01*
X14485000Y-14000000D02*
X14515000Y-14000000D01*
X14500000Y-14085000D02*
X14500000Y-14115000D01*
X14485000Y-14100000D02*
X14515000Y-14100000D01*
X14500000Y-14185000D02*
X14500000Y-14215000D01*
X14485000Y-14200000D02*
X14515000Y-14200000D01*
X14500000Y-14685000D02*
X14500000Y-14715000D01*
X14485000Y-14700000D02*
X14515000Y-14700000D01*
X14500000Y-14785000D02*
X14500000Y-14815000D01*
X14485000Y-14800000D02*
X14515000Y-14800000D01*
X14500000Y-14885000D02*
X14500000Y-14915000D01*
X14485000Y-14900000D02*
X14515000Y-14900000D01*
X10614213Y-7673713D02*
X10614213Y-7631287D01*
X10571787Y-7631287D01*
X10571787Y-7673713D01*
X10614213Y-7673713D01*
X10623000Y-7692500D02*
X10623000Y-7612500D01*
X10563000Y-7612500D02*
G75*
G02*
X10623000Y-7612500I30000J0D01*
G01*
X10563000Y-7612500D02*
X10563000Y-7692500D01*
X10563000Y-7692500D02*
G75*
G03*
X10623000Y-7692500I30000J0D01*
G01*
X10614213Y-8093713D02*
X10614213Y-8051287D01*
X10571787Y-8051287D01*
X10571787Y-8093713D01*
X10614213Y-8093713D01*
X10623000Y-8127500D02*
X10623000Y-8017500D01*
X10563000Y-8017500D02*
G75*
G02*
X10623000Y-8017500I30000J0D01*
G01*
X10563000Y-8017500D02*
X10563000Y-8127500D01*
X10563000Y-8127500D02*
G75*
G03*
X10623000Y-8127500I30000J0D01*
G01*
X11478213Y-7673713D02*
X11478213Y-7631287D01*
X11435787Y-7631287D01*
X11435787Y-7673713D01*
X11478213Y-7673713D01*
X11487000Y-7692500D02*
X11487000Y-7612500D01*
X11427000Y-7612500D02*
G75*
G02*
X11487000Y-7612500I30000J0D01*
G01*
X11427000Y-7612500D02*
X11427000Y-7692500D01*
X11427000Y-7692500D02*
G75*
G03*
X11487000Y-7692500I30000J0D01*
G01*
X11478213Y-8093713D02*
X11478213Y-8051287D01*
X11435787Y-8051287D01*
X11435787Y-8093713D01*
X11478213Y-8093713D01*
X11487000Y-8127500D02*
X11487000Y-8017500D01*
X11427000Y-8017500D02*
G75*
G02*
X11487000Y-8017500I30000J0D01*
G01*
X11427000Y-8017500D02*
X11427000Y-8127500D01*
X11427000Y-8127500D02*
G75*
G03*
X11487000Y-8127500I30000J0D01*
G01*
X10464000Y-8475000D02*
X10514000Y-8425000D01*
X10464000Y-8375000D01*
X10414000Y-8425000D01*
X10464000Y-8475000D01*
X10718000Y-8475000D02*
X10768000Y-8425000D01*
X10718000Y-8375000D01*
X10668000Y-8425000D01*
X10718000Y-8475000D01*
X10972000Y-8475000D02*
X11022000Y-8425000D01*
X10972000Y-8375000D01*
X10922000Y-8425000D01*
X10972000Y-8475000D01*
X11226000Y-8475000D02*
X11276000Y-8425000D01*
X11226000Y-8375000D01*
X11176000Y-8425000D01*
X11226000Y-8475000D01*
X11480000Y-8475000D02*
X11530000Y-8425000D01*
X11480000Y-8375000D01*
X11430000Y-8425000D01*
X11480000Y-8475000D01*
X12049500Y-10385000D02*
X12099500Y-10335000D01*
X12049500Y-10285000D01*
X11999500Y-10335000D01*
X12049500Y-10385000D01*
X12303500Y-10385000D02*
X12353500Y-10335000D01*
X12303500Y-10285000D01*
X12253500Y-10335000D01*
X12303500Y-10385000D01*
X12557500Y-10385000D02*
X12607500Y-10335000D01*
X12557500Y-10285000D01*
X12507500Y-10335000D01*
X12557500Y-10385000D01*
X12885000Y-9231000D02*
X12935000Y-9181000D01*
X12885000Y-9131000D01*
X12835000Y-9181000D01*
X12885000Y-9231000D01*
X12885000Y-9485000D02*
X12935000Y-9435000D01*
X12885000Y-9385000D01*
X12835000Y-9435000D01*
X12885000Y-9485000D01*
X12885000Y-9739000D02*
X12935000Y-9689000D01*
X12885000Y-9639000D01*
X12835000Y-9689000D01*
X12885000Y-9739000D01*
X13500000Y-12560000D02*
X13550000Y-12510000D01*
X13500000Y-12460000D01*
X13450000Y-12510000D01*
X13500000Y-12560000D01*
X13500000Y-13450000D02*
X13550000Y-13400000D01*
X13500000Y-13350000D01*
X13450000Y-13400000D01*
X13500000Y-13450000D01*
D13*
X9143457Y-7543457D02*
X9353457Y-7753457D01*
X9353457Y-7543457D02*
X9143457Y-7753457D01*
X9353457Y-7648457D02*
G75*
G02*
X9143457Y-7648457I-105000J0D01*
G01*
X9143457Y-7648457D02*
G75*
G02*
X9353457Y-7648457I105000J0D01*
G01*
X9695000Y-8095000D02*
X9905000Y-8305000D01*
X9905000Y-8095000D02*
X9695000Y-8305000D01*
X9905000Y-8200000D02*
G75*
G02*
X9695000Y-8200000I-105000J0D01*
G01*
X9695000Y-8200000D02*
G75*
G02*
X9905000Y-8200000I105000J0D01*
G01*
D11*
X7708277Y-15658984D02*
X7708277Y-15458984D01*
X7708277Y-15458984D02*
X7755896Y-15458984D01*
X7755896Y-15458984D02*
X7784467Y-15468508D01*
X7784467Y-15468508D02*
X7803515Y-15487555D01*
X7803515Y-15487555D02*
X7813039Y-15506603D01*
X7813039Y-15506603D02*
X7822562Y-15544698D01*
X7822562Y-15544698D02*
X7822562Y-15573269D01*
X7822562Y-15573269D02*
X7813039Y-15611365D01*
X7813039Y-15611365D02*
X7803515Y-15630412D01*
X7803515Y-15630412D02*
X7784467Y-15649460D01*
X7784467Y-15649460D02*
X7755896Y-15658984D01*
X7755896Y-15658984D02*
X7708277Y-15658984D01*
X7908277Y-15658984D02*
X7908277Y-15525650D01*
X7908277Y-15563746D02*
X7917801Y-15544698D01*
X7917801Y-15544698D02*
X7927324Y-15535174D01*
X7927324Y-15535174D02*
X7946372Y-15525650D01*
X7946372Y-15525650D02*
X7965420Y-15525650D01*
X8032086Y-15658984D02*
X8032086Y-15525650D01*
X8032086Y-15458984D02*
X8022562Y-15468508D01*
X8022562Y-15468508D02*
X8032086Y-15478031D01*
X8032086Y-15478031D02*
X8041610Y-15468508D01*
X8041610Y-15468508D02*
X8032086Y-15458984D01*
X8032086Y-15458984D02*
X8032086Y-15478031D01*
X8155896Y-15658984D02*
X8136848Y-15649460D01*
X8136848Y-15649460D02*
X8127324Y-15630412D01*
X8127324Y-15630412D02*
X8127324Y-15458984D01*
X8260658Y-15658984D02*
X8241610Y-15649460D01*
X8241610Y-15649460D02*
X8232086Y-15630412D01*
X8232086Y-15630412D02*
X8232086Y-15458984D01*
X8489229Y-15658984D02*
X8489229Y-15458984D01*
X8489229Y-15458984D02*
X8555896Y-15601841D01*
X8555896Y-15601841D02*
X8622563Y-15458984D01*
X8622563Y-15458984D02*
X8622563Y-15658984D01*
X8803515Y-15658984D02*
X8803515Y-15554222D01*
X8803515Y-15554222D02*
X8793991Y-15535174D01*
X8793991Y-15535174D02*
X8774944Y-15525650D01*
X8774944Y-15525650D02*
X8736848Y-15525650D01*
X8736848Y-15525650D02*
X8717801Y-15535174D01*
X8803515Y-15649460D02*
X8784467Y-15658984D01*
X8784467Y-15658984D02*
X8736848Y-15658984D01*
X8736848Y-15658984D02*
X8717801Y-15649460D01*
X8717801Y-15649460D02*
X8708277Y-15630412D01*
X8708277Y-15630412D02*
X8708277Y-15611365D01*
X8708277Y-15611365D02*
X8717801Y-15592317D01*
X8717801Y-15592317D02*
X8736848Y-15582793D01*
X8736848Y-15582793D02*
X8784467Y-15582793D01*
X8784467Y-15582793D02*
X8803515Y-15573269D01*
X8898753Y-15525650D02*
X8898753Y-15725650D01*
X8898753Y-15535174D02*
X8917801Y-15525650D01*
X8917801Y-15525650D02*
X8955896Y-15525650D01*
X8955896Y-15525650D02*
X8974944Y-15535174D01*
X8974944Y-15535174D02*
X8984467Y-15544698D01*
X8984467Y-15544698D02*
X8993991Y-15563746D01*
X8993991Y-15563746D02*
X8993991Y-15620888D01*
X8993991Y-15620888D02*
X8984467Y-15639936D01*
X8984467Y-15639936D02*
X8974944Y-15649460D01*
X8974944Y-15649460D02*
X8955896Y-15658984D01*
X8955896Y-15658984D02*
X8917801Y-15658984D01*
X8917801Y-15658984D02*
X8898753Y-15649460D01*
X9079705Y-15639936D02*
X9089229Y-15649460D01*
X9089229Y-15649460D02*
X9079705Y-15658984D01*
X9079705Y-15658984D02*
X9070182Y-15649460D01*
X9070182Y-15649460D02*
X9079705Y-15639936D01*
X9079705Y-15639936D02*
X9079705Y-15658984D01*
X9079705Y-15535174D02*
X9089229Y-15544698D01*
X9089229Y-15544698D02*
X9079705Y-15554222D01*
X9079705Y-15554222D02*
X9070182Y-15544698D01*
X9070182Y-15544698D02*
X9079705Y-15535174D01*
X9079705Y-15535174D02*
X9079705Y-15554222D01*
D12*
X7427500Y-15977500D02*
X7447500Y-15997500D01*
X7447500Y-15977500D02*
X7427500Y-15997500D01*
D11*
X7746372Y-15878984D02*
X7765420Y-15878984D01*
X7765420Y-15878984D02*
X7784467Y-15888508D01*
X7784467Y-15888508D02*
X7793991Y-15898031D01*
X7793991Y-15898031D02*
X7803515Y-15917079D01*
X7803515Y-15917079D02*
X7813039Y-15955174D01*
X7813039Y-15955174D02*
X7813039Y-16002793D01*
X7813039Y-16002793D02*
X7803515Y-16040888D01*
X7803515Y-16040888D02*
X7793991Y-16059936D01*
X7793991Y-16059936D02*
X7784467Y-16069460D01*
X7784467Y-16069460D02*
X7765420Y-16078984D01*
X7765420Y-16078984D02*
X7746372Y-16078984D01*
X7746372Y-16078984D02*
X7727324Y-16069460D01*
X7727324Y-16069460D02*
X7717801Y-16059936D01*
X7717801Y-16059936D02*
X7708277Y-16040888D01*
X7708277Y-16040888D02*
X7698753Y-16002793D01*
X7698753Y-16002793D02*
X7698753Y-15955174D01*
X7698753Y-15955174D02*
X7708277Y-15917079D01*
X7708277Y-15917079D02*
X7717801Y-15898031D01*
X7717801Y-15898031D02*
X7727324Y-15888508D01*
X7727324Y-15888508D02*
X7746372Y-15878984D01*
X7898753Y-16059936D02*
X7908277Y-16069460D01*
X7908277Y-16069460D02*
X7898753Y-16078984D01*
X7898753Y-16078984D02*
X7889229Y-16069460D01*
X7889229Y-16069460D02*
X7898753Y-16059936D01*
X7898753Y-16059936D02*
X7898753Y-16078984D01*
X7984467Y-15898031D02*
X7993991Y-15888508D01*
X7993991Y-15888508D02*
X8013039Y-15878984D01*
X8013039Y-15878984D02*
X8060658Y-15878984D01*
X8060658Y-15878984D02*
X8079705Y-15888508D01*
X8079705Y-15888508D02*
X8089229Y-15898031D01*
X8089229Y-15898031D02*
X8098753Y-15917079D01*
X8098753Y-15917079D02*
X8098753Y-15936127D01*
X8098753Y-15936127D02*
X8089229Y-15964698D01*
X8089229Y-15964698D02*
X7974943Y-16078984D01*
X7974943Y-16078984D02*
X8098753Y-16078984D01*
X8222562Y-15878984D02*
X8241610Y-15878984D01*
X8241610Y-15878984D02*
X8260658Y-15888508D01*
X8260658Y-15888508D02*
X8270182Y-15898031D01*
X8270182Y-15898031D02*
X8279705Y-15917079D01*
X8279705Y-15917079D02*
X8289229Y-15955174D01*
X8289229Y-15955174D02*
X8289229Y-16002793D01*
X8289229Y-16002793D02*
X8279705Y-16040888D01*
X8279705Y-16040888D02*
X8270182Y-16059936D01*
X8270182Y-16059936D02*
X8260658Y-16069460D01*
X8260658Y-16069460D02*
X8241610Y-16078984D01*
X8241610Y-16078984D02*
X8222562Y-16078984D01*
X8222562Y-16078984D02*
X8203515Y-16069460D01*
X8203515Y-16069460D02*
X8193991Y-16059936D01*
X8193991Y-16059936D02*
X8184467Y-16040888D01*
X8184467Y-16040888D02*
X8174943Y-16002793D01*
X8174943Y-16002793D02*
X8174943Y-15955174D01*
X8174943Y-15955174D02*
X8184467Y-15917079D01*
X8184467Y-15917079D02*
X8193991Y-15898031D01*
X8193991Y-15898031D02*
X8203515Y-15888508D01*
X8203515Y-15888508D02*
X8222562Y-15878984D01*
X8413039Y-15878984D02*
X8432086Y-15878984D01*
X8432086Y-15878984D02*
X8451134Y-15888508D01*
X8451134Y-15888508D02*
X8460658Y-15898031D01*
X8460658Y-15898031D02*
X8470182Y-15917079D01*
X8470182Y-15917079D02*
X8479705Y-15955174D01*
X8479705Y-15955174D02*
X8479705Y-16002793D01*
X8479705Y-16002793D02*
X8470182Y-16040888D01*
X8470182Y-16040888D02*
X8460658Y-16059936D01*
X8460658Y-16059936D02*
X8451134Y-16069460D01*
X8451134Y-16069460D02*
X8432086Y-16078984D01*
X8432086Y-16078984D02*
X8413039Y-16078984D01*
X8413039Y-16078984D02*
X8393991Y-16069460D01*
X8393991Y-16069460D02*
X8384467Y-16059936D01*
X8384467Y-16059936D02*
X8374943Y-16040888D01*
X8374943Y-16040888D02*
X8365420Y-16002793D01*
X8365420Y-16002793D02*
X8365420Y-15955174D01*
X8365420Y-15955174D02*
X8374943Y-15917079D01*
X8374943Y-15917079D02*
X8384467Y-15898031D01*
X8384467Y-15898031D02*
X8393991Y-15888508D01*
X8393991Y-15888508D02*
X8413039Y-15878984D01*
X8565420Y-16078984D02*
X8565420Y-15945650D01*
X8565420Y-15964698D02*
X8574944Y-15955174D01*
X8574944Y-15955174D02*
X8593991Y-15945650D01*
X8593991Y-15945650D02*
X8622563Y-15945650D01*
X8622563Y-15945650D02*
X8641610Y-15955174D01*
X8641610Y-15955174D02*
X8651134Y-15974222D01*
X8651134Y-15974222D02*
X8651134Y-16078984D01*
X8651134Y-15974222D02*
X8660658Y-15955174D01*
X8660658Y-15955174D02*
X8679705Y-15945650D01*
X8679705Y-15945650D02*
X8708277Y-15945650D01*
X8708277Y-15945650D02*
X8727325Y-15955174D01*
X8727325Y-15955174D02*
X8736848Y-15974222D01*
X8736848Y-15974222D02*
X8736848Y-16078984D01*
X8832086Y-16078984D02*
X8832086Y-15945650D01*
X8832086Y-15964698D02*
X8841610Y-15955174D01*
X8841610Y-15955174D02*
X8860658Y-15945650D01*
X8860658Y-15945650D02*
X8889229Y-15945650D01*
X8889229Y-15945650D02*
X8908277Y-15955174D01*
X8908277Y-15955174D02*
X8917801Y-15974222D01*
X8917801Y-15974222D02*
X8917801Y-16078984D01*
X8917801Y-15974222D02*
X8927325Y-15955174D01*
X8927325Y-15955174D02*
X8946372Y-15945650D01*
X8946372Y-15945650D02*
X8974944Y-15945650D01*
X8974944Y-15945650D02*
X8993991Y-15955174D01*
X8993991Y-15955174D02*
X9003515Y-15974222D01*
X9003515Y-15974222D02*
X9003515Y-16078984D01*
X9393991Y-15869460D02*
X9222563Y-16126603D01*
X9651134Y-15878984D02*
X9670182Y-15878984D01*
X9670182Y-15878984D02*
X9689229Y-15888508D01*
X9689229Y-15888508D02*
X9698753Y-15898031D01*
X9698753Y-15898031D02*
X9708277Y-15917079D01*
X9708277Y-15917079D02*
X9717801Y-15955174D01*
X9717801Y-15955174D02*
X9717801Y-16002793D01*
X9717801Y-16002793D02*
X9708277Y-16040888D01*
X9708277Y-16040888D02*
X9698753Y-16059936D01*
X9698753Y-16059936D02*
X9689229Y-16069460D01*
X9689229Y-16069460D02*
X9670182Y-16078984D01*
X9670182Y-16078984D02*
X9651134Y-16078984D01*
X9651134Y-16078984D02*
X9632087Y-16069460D01*
X9632087Y-16069460D02*
X9622563Y-16059936D01*
X9622563Y-16059936D02*
X9613039Y-16040888D01*
X9613039Y-16040888D02*
X9603515Y-16002793D01*
X9603515Y-16002793D02*
X9603515Y-15955174D01*
X9603515Y-15955174D02*
X9613039Y-15917079D01*
X9613039Y-15917079D02*
X9622563Y-15898031D01*
X9622563Y-15898031D02*
X9632087Y-15888508D01*
X9632087Y-15888508D02*
X9651134Y-15878984D01*
X9803515Y-16059936D02*
X9813039Y-16069460D01*
X9813039Y-16069460D02*
X9803515Y-16078984D01*
X9803515Y-16078984D02*
X9793991Y-16069460D01*
X9793991Y-16069460D02*
X9803515Y-16059936D01*
X9803515Y-16059936D02*
X9803515Y-16078984D01*
X9936848Y-15878984D02*
X9955896Y-15878984D01*
X9955896Y-15878984D02*
X9974944Y-15888508D01*
X9974944Y-15888508D02*
X9984468Y-15898031D01*
X9984468Y-15898031D02*
X9993991Y-15917079D01*
X9993991Y-15917079D02*
X10003515Y-15955174D01*
X10003515Y-15955174D02*
X10003515Y-16002793D01*
X10003515Y-16002793D02*
X9993991Y-16040888D01*
X9993991Y-16040888D02*
X9984468Y-16059936D01*
X9984468Y-16059936D02*
X9974944Y-16069460D01*
X9974944Y-16069460D02*
X9955896Y-16078984D01*
X9955896Y-16078984D02*
X9936848Y-16078984D01*
X9936848Y-16078984D02*
X9917801Y-16069460D01*
X9917801Y-16069460D02*
X9908277Y-16059936D01*
X9908277Y-16059936D02*
X9898753Y-16040888D01*
X9898753Y-16040888D02*
X9889229Y-16002793D01*
X9889229Y-16002793D02*
X9889229Y-15955174D01*
X9889229Y-15955174D02*
X9898753Y-15917079D01*
X9898753Y-15917079D02*
X9908277Y-15898031D01*
X9908277Y-15898031D02*
X9917801Y-15888508D01*
X9917801Y-15888508D02*
X9936848Y-15878984D01*
X10127325Y-15878984D02*
X10146372Y-15878984D01*
X10146372Y-15878984D02*
X10165420Y-15888508D01*
X10165420Y-15888508D02*
X10174944Y-15898031D01*
X10174944Y-15898031D02*
X10184468Y-15917079D01*
X10184468Y-15917079D02*
X10193991Y-15955174D01*
X10193991Y-15955174D02*
X10193991Y-16002793D01*
X10193991Y-16002793D02*
X10184468Y-16040888D01*
X10184468Y-16040888D02*
X10174944Y-16059936D01*
X10174944Y-16059936D02*
X10165420Y-16069460D01*
X10165420Y-16069460D02*
X10146372Y-16078984D01*
X10146372Y-16078984D02*
X10127325Y-16078984D01*
X10127325Y-16078984D02*
X10108277Y-16069460D01*
X10108277Y-16069460D02*
X10098753Y-16059936D01*
X10098753Y-16059936D02*
X10089229Y-16040888D01*
X10089229Y-16040888D02*
X10079706Y-16002793D01*
X10079706Y-16002793D02*
X10079706Y-15955174D01*
X10079706Y-15955174D02*
X10089229Y-15917079D01*
X10089229Y-15917079D02*
X10098753Y-15898031D01*
X10098753Y-15898031D02*
X10108277Y-15888508D01*
X10108277Y-15888508D02*
X10127325Y-15878984D01*
X10260658Y-15878984D02*
X10393991Y-15878984D01*
X10393991Y-15878984D02*
X10308277Y-16078984D01*
X10479706Y-16078984D02*
X10517801Y-16078984D01*
X10517801Y-16078984D02*
X10536849Y-16069460D01*
X10536849Y-16069460D02*
X10546372Y-16059936D01*
X10546372Y-16059936D02*
X10565420Y-16031365D01*
X10565420Y-16031365D02*
X10574944Y-15993269D01*
X10574944Y-15993269D02*
X10574944Y-15917079D01*
X10574944Y-15917079D02*
X10565420Y-15898031D01*
X10565420Y-15898031D02*
X10555896Y-15888508D01*
X10555896Y-15888508D02*
X10536849Y-15878984D01*
X10536849Y-15878984D02*
X10498753Y-15878984D01*
X10498753Y-15878984D02*
X10479706Y-15888508D01*
X10479706Y-15888508D02*
X10470182Y-15898031D01*
X10470182Y-15898031D02*
X10460658Y-15917079D01*
X10460658Y-15917079D02*
X10460658Y-15964698D01*
X10460658Y-15964698D02*
X10470182Y-15983746D01*
X10470182Y-15983746D02*
X10479706Y-15993269D01*
X10479706Y-15993269D02*
X10498753Y-16002793D01*
X10498753Y-16002793D02*
X10536849Y-16002793D01*
X10536849Y-16002793D02*
X10555896Y-15993269D01*
X10555896Y-15993269D02*
X10565420Y-15983746D01*
X10565420Y-15983746D02*
X10574944Y-15964698D01*
X10651134Y-15878984D02*
X10651134Y-15917079D01*
X10727325Y-15878984D02*
X10727325Y-15917079D01*
X11022563Y-16155174D02*
X11013039Y-16145650D01*
X11013039Y-16145650D02*
X10993991Y-16117079D01*
X10993991Y-16117079D02*
X10984468Y-16098031D01*
X10984468Y-16098031D02*
X10974944Y-16069460D01*
X10974944Y-16069460D02*
X10965420Y-16021841D01*
X10965420Y-16021841D02*
X10965420Y-15983746D01*
X10965420Y-15983746D02*
X10974944Y-15936127D01*
X10974944Y-15936127D02*
X10984468Y-15907555D01*
X10984468Y-15907555D02*
X10993991Y-15888508D01*
X10993991Y-15888508D02*
X11013039Y-15859936D01*
X11013039Y-15859936D02*
X11022563Y-15850412D01*
X11193991Y-15878984D02*
X11098753Y-15878984D01*
X11098753Y-15878984D02*
X11089230Y-15974222D01*
X11089230Y-15974222D02*
X11098753Y-15964698D01*
X11098753Y-15964698D02*
X11117801Y-15955174D01*
X11117801Y-15955174D02*
X11165420Y-15955174D01*
X11165420Y-15955174D02*
X11184468Y-15964698D01*
X11184468Y-15964698D02*
X11193991Y-15974222D01*
X11193991Y-15974222D02*
X11203515Y-15993269D01*
X11203515Y-15993269D02*
X11203515Y-16040888D01*
X11203515Y-16040888D02*
X11193991Y-16059936D01*
X11193991Y-16059936D02*
X11184468Y-16069460D01*
X11184468Y-16069460D02*
X11165420Y-16078984D01*
X11165420Y-16078984D02*
X11117801Y-16078984D01*
X11117801Y-16078984D02*
X11098753Y-16069460D01*
X11098753Y-16069460D02*
X11089230Y-16059936D01*
X11441610Y-16078984D02*
X11441610Y-15878984D01*
X11527325Y-16078984D02*
X11527325Y-15974222D01*
X11527325Y-15974222D02*
X11517801Y-15955174D01*
X11517801Y-15955174D02*
X11498753Y-15945650D01*
X11498753Y-15945650D02*
X11470182Y-15945650D01*
X11470182Y-15945650D02*
X11451134Y-15955174D01*
X11451134Y-15955174D02*
X11441610Y-15964698D01*
X11651134Y-16078984D02*
X11632087Y-16069460D01*
X11632087Y-16069460D02*
X11622563Y-16059936D01*
X11622563Y-16059936D02*
X11613039Y-16040888D01*
X11613039Y-16040888D02*
X11613039Y-15983746D01*
X11613039Y-15983746D02*
X11622563Y-15964698D01*
X11622563Y-15964698D02*
X11632087Y-15955174D01*
X11632087Y-15955174D02*
X11651134Y-15945650D01*
X11651134Y-15945650D02*
X11679706Y-15945650D01*
X11679706Y-15945650D02*
X11698753Y-15955174D01*
X11698753Y-15955174D02*
X11708277Y-15964698D01*
X11708277Y-15964698D02*
X11717801Y-15983746D01*
X11717801Y-15983746D02*
X11717801Y-16040888D01*
X11717801Y-16040888D02*
X11708277Y-16059936D01*
X11708277Y-16059936D02*
X11698753Y-16069460D01*
X11698753Y-16069460D02*
X11679706Y-16078984D01*
X11679706Y-16078984D02*
X11651134Y-16078984D01*
X11832087Y-16078984D02*
X11813039Y-16069460D01*
X11813039Y-16069460D02*
X11803515Y-16050412D01*
X11803515Y-16050412D02*
X11803515Y-15878984D01*
X11984468Y-16069460D02*
X11965420Y-16078984D01*
X11965420Y-16078984D02*
X11927325Y-16078984D01*
X11927325Y-16078984D02*
X11908277Y-16069460D01*
X11908277Y-16069460D02*
X11898753Y-16050412D01*
X11898753Y-16050412D02*
X11898753Y-15974222D01*
X11898753Y-15974222D02*
X11908277Y-15955174D01*
X11908277Y-15955174D02*
X11927325Y-15945650D01*
X11927325Y-15945650D02*
X11965420Y-15945650D01*
X11965420Y-15945650D02*
X11984468Y-15955174D01*
X11984468Y-15955174D02*
X11993991Y-15974222D01*
X11993991Y-15974222D02*
X11993991Y-15993269D01*
X11993991Y-15993269D02*
X11898753Y-16012317D01*
X12070182Y-16069460D02*
X12089230Y-16078984D01*
X12089230Y-16078984D02*
X12127325Y-16078984D01*
X12127325Y-16078984D02*
X12146372Y-16069460D01*
X12146372Y-16069460D02*
X12155896Y-16050412D01*
X12155896Y-16050412D02*
X12155896Y-16040888D01*
X12155896Y-16040888D02*
X12146372Y-16021841D01*
X12146372Y-16021841D02*
X12127325Y-16012317D01*
X12127325Y-16012317D02*
X12098753Y-16012317D01*
X12098753Y-16012317D02*
X12079706Y-16002793D01*
X12079706Y-16002793D02*
X12070182Y-15983746D01*
X12070182Y-15983746D02*
X12070182Y-15974222D01*
X12070182Y-15974222D02*
X12079706Y-15955174D01*
X12079706Y-15955174D02*
X12098753Y-15945650D01*
X12098753Y-15945650D02*
X12127325Y-15945650D01*
X12127325Y-15945650D02*
X12146372Y-15955174D01*
X12222563Y-16155174D02*
X12232087Y-16145650D01*
X12232087Y-16145650D02*
X12251134Y-16117079D01*
X12251134Y-16117079D02*
X12260658Y-16098031D01*
X12260658Y-16098031D02*
X12270182Y-16069460D01*
X12270182Y-16069460D02*
X12279706Y-16021841D01*
X12279706Y-16021841D02*
X12279706Y-15983746D01*
X12279706Y-15983746D02*
X12270182Y-15936127D01*
X12270182Y-15936127D02*
X12260658Y-15907555D01*
X12260658Y-15907555D02*
X12251134Y-15888508D01*
X12251134Y-15888508D02*
X12232087Y-15859936D01*
X12232087Y-15859936D02*
X12222563Y-15850412D01*
D12*
X7447500Y-16251500D02*
G75*
G02*
X7422500Y-16251500I-12500J0D01*
G01*
X7422500Y-16251500D02*
G75*
G02*
X7447500Y-16251500I12500J0D01*
G01*
D11*
X7746372Y-16142984D02*
X7765420Y-16142984D01*
X7765420Y-16142984D02*
X7784467Y-16152508D01*
X7784467Y-16152508D02*
X7793991Y-16162031D01*
X7793991Y-16162031D02*
X7803515Y-16181079D01*
X7803515Y-16181079D02*
X7813039Y-16219174D01*
X7813039Y-16219174D02*
X7813039Y-16266793D01*
X7813039Y-16266793D02*
X7803515Y-16304888D01*
X7803515Y-16304888D02*
X7793991Y-16323936D01*
X7793991Y-16323936D02*
X7784467Y-16333460D01*
X7784467Y-16333460D02*
X7765420Y-16342984D01*
X7765420Y-16342984D02*
X7746372Y-16342984D01*
X7746372Y-16342984D02*
X7727324Y-16333460D01*
X7727324Y-16333460D02*
X7717801Y-16323936D01*
X7717801Y-16323936D02*
X7708277Y-16304888D01*
X7708277Y-16304888D02*
X7698753Y-16266793D01*
X7698753Y-16266793D02*
X7698753Y-16219174D01*
X7698753Y-16219174D02*
X7708277Y-16181079D01*
X7708277Y-16181079D02*
X7717801Y-16162031D01*
X7717801Y-16162031D02*
X7727324Y-16152508D01*
X7727324Y-16152508D02*
X7746372Y-16142984D01*
X7898753Y-16323936D02*
X7908277Y-16333460D01*
X7908277Y-16333460D02*
X7898753Y-16342984D01*
X7898753Y-16342984D02*
X7889229Y-16333460D01*
X7889229Y-16333460D02*
X7898753Y-16323936D01*
X7898753Y-16323936D02*
X7898753Y-16342984D01*
X7984467Y-16162031D02*
X7993991Y-16152508D01*
X7993991Y-16152508D02*
X8013039Y-16142984D01*
X8013039Y-16142984D02*
X8060658Y-16142984D01*
X8060658Y-16142984D02*
X8079705Y-16152508D01*
X8079705Y-16152508D02*
X8089229Y-16162031D01*
X8089229Y-16162031D02*
X8098753Y-16181079D01*
X8098753Y-16181079D02*
X8098753Y-16200127D01*
X8098753Y-16200127D02*
X8089229Y-16228698D01*
X8089229Y-16228698D02*
X7974943Y-16342984D01*
X7974943Y-16342984D02*
X8098753Y-16342984D01*
X8279705Y-16142984D02*
X8184467Y-16142984D01*
X8184467Y-16142984D02*
X8174943Y-16238222D01*
X8174943Y-16238222D02*
X8184467Y-16228698D01*
X8184467Y-16228698D02*
X8203515Y-16219174D01*
X8203515Y-16219174D02*
X8251134Y-16219174D01*
X8251134Y-16219174D02*
X8270182Y-16228698D01*
X8270182Y-16228698D02*
X8279705Y-16238222D01*
X8279705Y-16238222D02*
X8289229Y-16257269D01*
X8289229Y-16257269D02*
X8289229Y-16304888D01*
X8289229Y-16304888D02*
X8279705Y-16323936D01*
X8279705Y-16323936D02*
X8270182Y-16333460D01*
X8270182Y-16333460D02*
X8251134Y-16342984D01*
X8251134Y-16342984D02*
X8203515Y-16342984D01*
X8203515Y-16342984D02*
X8184467Y-16333460D01*
X8184467Y-16333460D02*
X8174943Y-16323936D01*
X8413039Y-16142984D02*
X8432086Y-16142984D01*
X8432086Y-16142984D02*
X8451134Y-16152508D01*
X8451134Y-16152508D02*
X8460658Y-16162031D01*
X8460658Y-16162031D02*
X8470182Y-16181079D01*
X8470182Y-16181079D02*
X8479705Y-16219174D01*
X8479705Y-16219174D02*
X8479705Y-16266793D01*
X8479705Y-16266793D02*
X8470182Y-16304888D01*
X8470182Y-16304888D02*
X8460658Y-16323936D01*
X8460658Y-16323936D02*
X8451134Y-16333460D01*
X8451134Y-16333460D02*
X8432086Y-16342984D01*
X8432086Y-16342984D02*
X8413039Y-16342984D01*
X8413039Y-16342984D02*
X8393991Y-16333460D01*
X8393991Y-16333460D02*
X8384467Y-16323936D01*
X8384467Y-16323936D02*
X8374943Y-16304888D01*
X8374943Y-16304888D02*
X8365420Y-16266793D01*
X8365420Y-16266793D02*
X8365420Y-16219174D01*
X8365420Y-16219174D02*
X8374943Y-16181079D01*
X8374943Y-16181079D02*
X8384467Y-16162031D01*
X8384467Y-16162031D02*
X8393991Y-16152508D01*
X8393991Y-16152508D02*
X8413039Y-16142984D01*
X8565420Y-16342984D02*
X8565420Y-16209650D01*
X8565420Y-16228698D02*
X8574944Y-16219174D01*
X8574944Y-16219174D02*
X8593991Y-16209650D01*
X8593991Y-16209650D02*
X8622563Y-16209650D01*
X8622563Y-16209650D02*
X8641610Y-16219174D01*
X8641610Y-16219174D02*
X8651134Y-16238222D01*
X8651134Y-16238222D02*
X8651134Y-16342984D01*
X8651134Y-16238222D02*
X8660658Y-16219174D01*
X8660658Y-16219174D02*
X8679705Y-16209650D01*
X8679705Y-16209650D02*
X8708277Y-16209650D01*
X8708277Y-16209650D02*
X8727325Y-16219174D01*
X8727325Y-16219174D02*
X8736848Y-16238222D01*
X8736848Y-16238222D02*
X8736848Y-16342984D01*
X8832086Y-16342984D02*
X8832086Y-16209650D01*
X8832086Y-16228698D02*
X8841610Y-16219174D01*
X8841610Y-16219174D02*
X8860658Y-16209650D01*
X8860658Y-16209650D02*
X8889229Y-16209650D01*
X8889229Y-16209650D02*
X8908277Y-16219174D01*
X8908277Y-16219174D02*
X8917801Y-16238222D01*
X8917801Y-16238222D02*
X8917801Y-16342984D01*
X8917801Y-16238222D02*
X8927325Y-16219174D01*
X8927325Y-16219174D02*
X8946372Y-16209650D01*
X8946372Y-16209650D02*
X8974944Y-16209650D01*
X8974944Y-16209650D02*
X8993991Y-16219174D01*
X8993991Y-16219174D02*
X9003515Y-16238222D01*
X9003515Y-16238222D02*
X9003515Y-16342984D01*
X9393991Y-16133460D02*
X9222563Y-16390603D01*
X9651134Y-16142984D02*
X9670182Y-16142984D01*
X9670182Y-16142984D02*
X9689229Y-16152508D01*
X9689229Y-16152508D02*
X9698753Y-16162031D01*
X9698753Y-16162031D02*
X9708277Y-16181079D01*
X9708277Y-16181079D02*
X9717801Y-16219174D01*
X9717801Y-16219174D02*
X9717801Y-16266793D01*
X9717801Y-16266793D02*
X9708277Y-16304888D01*
X9708277Y-16304888D02*
X9698753Y-16323936D01*
X9698753Y-16323936D02*
X9689229Y-16333460D01*
X9689229Y-16333460D02*
X9670182Y-16342984D01*
X9670182Y-16342984D02*
X9651134Y-16342984D01*
X9651134Y-16342984D02*
X9632087Y-16333460D01*
X9632087Y-16333460D02*
X9622563Y-16323936D01*
X9622563Y-16323936D02*
X9613039Y-16304888D01*
X9613039Y-16304888D02*
X9603515Y-16266793D01*
X9603515Y-16266793D02*
X9603515Y-16219174D01*
X9603515Y-16219174D02*
X9613039Y-16181079D01*
X9613039Y-16181079D02*
X9622563Y-16162031D01*
X9622563Y-16162031D02*
X9632087Y-16152508D01*
X9632087Y-16152508D02*
X9651134Y-16142984D01*
X9803515Y-16323936D02*
X9813039Y-16333460D01*
X9813039Y-16333460D02*
X9803515Y-16342984D01*
X9803515Y-16342984D02*
X9793991Y-16333460D01*
X9793991Y-16333460D02*
X9803515Y-16323936D01*
X9803515Y-16323936D02*
X9803515Y-16342984D01*
X9936848Y-16142984D02*
X9955896Y-16142984D01*
X9955896Y-16142984D02*
X9974944Y-16152508D01*
X9974944Y-16152508D02*
X9984468Y-16162031D01*
X9984468Y-16162031D02*
X9993991Y-16181079D01*
X9993991Y-16181079D02*
X10003515Y-16219174D01*
X10003515Y-16219174D02*
X10003515Y-16266793D01*
X10003515Y-16266793D02*
X9993991Y-16304888D01*
X9993991Y-16304888D02*
X9984468Y-16323936D01*
X9984468Y-16323936D02*
X9974944Y-16333460D01*
X9974944Y-16333460D02*
X9955896Y-16342984D01*
X9955896Y-16342984D02*
X9936848Y-16342984D01*
X9936848Y-16342984D02*
X9917801Y-16333460D01*
X9917801Y-16333460D02*
X9908277Y-16323936D01*
X9908277Y-16323936D02*
X9898753Y-16304888D01*
X9898753Y-16304888D02*
X9889229Y-16266793D01*
X9889229Y-16266793D02*
X9889229Y-16219174D01*
X9889229Y-16219174D02*
X9898753Y-16181079D01*
X9898753Y-16181079D02*
X9908277Y-16162031D01*
X9908277Y-16162031D02*
X9917801Y-16152508D01*
X9917801Y-16152508D02*
X9936848Y-16142984D01*
X10127325Y-16142984D02*
X10146372Y-16142984D01*
X10146372Y-16142984D02*
X10165420Y-16152508D01*
X10165420Y-16152508D02*
X10174944Y-16162031D01*
X10174944Y-16162031D02*
X10184468Y-16181079D01*
X10184468Y-16181079D02*
X10193991Y-16219174D01*
X10193991Y-16219174D02*
X10193991Y-16266793D01*
X10193991Y-16266793D02*
X10184468Y-16304888D01*
X10184468Y-16304888D02*
X10174944Y-16323936D01*
X10174944Y-16323936D02*
X10165420Y-16333460D01*
X10165420Y-16333460D02*
X10146372Y-16342984D01*
X10146372Y-16342984D02*
X10127325Y-16342984D01*
X10127325Y-16342984D02*
X10108277Y-16333460D01*
X10108277Y-16333460D02*
X10098753Y-16323936D01*
X10098753Y-16323936D02*
X10089229Y-16304888D01*
X10089229Y-16304888D02*
X10079706Y-16266793D01*
X10079706Y-16266793D02*
X10079706Y-16219174D01*
X10079706Y-16219174D02*
X10089229Y-16181079D01*
X10089229Y-16181079D02*
X10098753Y-16162031D01*
X10098753Y-16162031D02*
X10108277Y-16152508D01*
X10108277Y-16152508D02*
X10127325Y-16142984D01*
X10289229Y-16342984D02*
X10327325Y-16342984D01*
X10327325Y-16342984D02*
X10346372Y-16333460D01*
X10346372Y-16333460D02*
X10355896Y-16323936D01*
X10355896Y-16323936D02*
X10374944Y-16295365D01*
X10374944Y-16295365D02*
X10384468Y-16257269D01*
X10384468Y-16257269D02*
X10384468Y-16181079D01*
X10384468Y-16181079D02*
X10374944Y-16162031D01*
X10374944Y-16162031D02*
X10365420Y-16152508D01*
X10365420Y-16152508D02*
X10346372Y-16142984D01*
X10346372Y-16142984D02*
X10308277Y-16142984D01*
X10308277Y-16142984D02*
X10289229Y-16152508D01*
X10289229Y-16152508D02*
X10279706Y-16162031D01*
X10279706Y-16162031D02*
X10270182Y-16181079D01*
X10270182Y-16181079D02*
X10270182Y-16228698D01*
X10270182Y-16228698D02*
X10279706Y-16247746D01*
X10279706Y-16247746D02*
X10289229Y-16257269D01*
X10289229Y-16257269D02*
X10308277Y-16266793D01*
X10308277Y-16266793D02*
X10346372Y-16266793D01*
X10346372Y-16266793D02*
X10365420Y-16257269D01*
X10365420Y-16257269D02*
X10374944Y-16247746D01*
X10374944Y-16247746D02*
X10384468Y-16228698D01*
X10498753Y-16228698D02*
X10479706Y-16219174D01*
X10479706Y-16219174D02*
X10470182Y-16209650D01*
X10470182Y-16209650D02*
X10460658Y-16190603D01*
X10460658Y-16190603D02*
X10460658Y-16181079D01*
X10460658Y-16181079D02*
X10470182Y-16162031D01*
X10470182Y-16162031D02*
X10479706Y-16152508D01*
X10479706Y-16152508D02*
X10498753Y-16142984D01*
X10498753Y-16142984D02*
X10536849Y-16142984D01*
X10536849Y-16142984D02*
X10555896Y-16152508D01*
X10555896Y-16152508D02*
X10565420Y-16162031D01*
X10565420Y-16162031D02*
X10574944Y-16181079D01*
X10574944Y-16181079D02*
X10574944Y-16190603D01*
X10574944Y-16190603D02*
X10565420Y-16209650D01*
X10565420Y-16209650D02*
X10555896Y-16219174D01*
X10555896Y-16219174D02*
X10536849Y-16228698D01*
X10536849Y-16228698D02*
X10498753Y-16228698D01*
X10498753Y-16228698D02*
X10479706Y-16238222D01*
X10479706Y-16238222D02*
X10470182Y-16247746D01*
X10470182Y-16247746D02*
X10460658Y-16266793D01*
X10460658Y-16266793D02*
X10460658Y-16304888D01*
X10460658Y-16304888D02*
X10470182Y-16323936D01*
X10470182Y-16323936D02*
X10479706Y-16333460D01*
X10479706Y-16333460D02*
X10498753Y-16342984D01*
X10498753Y-16342984D02*
X10536849Y-16342984D01*
X10536849Y-16342984D02*
X10555896Y-16333460D01*
X10555896Y-16333460D02*
X10565420Y-16323936D01*
X10565420Y-16323936D02*
X10574944Y-16304888D01*
X10574944Y-16304888D02*
X10574944Y-16266793D01*
X10574944Y-16266793D02*
X10565420Y-16247746D01*
X10565420Y-16247746D02*
X10555896Y-16238222D01*
X10555896Y-16238222D02*
X10536849Y-16228698D01*
X10651134Y-16142984D02*
X10651134Y-16181079D01*
X10727325Y-16142984D02*
X10727325Y-16181079D01*
X11022563Y-16419174D02*
X11013039Y-16409650D01*
X11013039Y-16409650D02*
X10993991Y-16381079D01*
X10993991Y-16381079D02*
X10984468Y-16362031D01*
X10984468Y-16362031D02*
X10974944Y-16333460D01*
X10974944Y-16333460D02*
X10965420Y-16285841D01*
X10965420Y-16285841D02*
X10965420Y-16247746D01*
X10965420Y-16247746D02*
X10974944Y-16200127D01*
X10974944Y-16200127D02*
X10984468Y-16171555D01*
X10984468Y-16171555D02*
X10993991Y-16152508D01*
X10993991Y-16152508D02*
X11013039Y-16123936D01*
X11013039Y-16123936D02*
X11022563Y-16114412D01*
X11089230Y-16162031D02*
X11098753Y-16152508D01*
X11098753Y-16152508D02*
X11117801Y-16142984D01*
X11117801Y-16142984D02*
X11165420Y-16142984D01*
X11165420Y-16142984D02*
X11184468Y-16152508D01*
X11184468Y-16152508D02*
X11193991Y-16162031D01*
X11193991Y-16162031D02*
X11203515Y-16181079D01*
X11203515Y-16181079D02*
X11203515Y-16200127D01*
X11203515Y-16200127D02*
X11193991Y-16228698D01*
X11193991Y-16228698D02*
X11079706Y-16342984D01*
X11079706Y-16342984D02*
X11203515Y-16342984D01*
X11374944Y-16209650D02*
X11374944Y-16342984D01*
X11327325Y-16133460D02*
X11279706Y-16276317D01*
X11279706Y-16276317D02*
X11403515Y-16276317D01*
X11632087Y-16342984D02*
X11632087Y-16142984D01*
X11717801Y-16342984D02*
X11717801Y-16238222D01*
X11717801Y-16238222D02*
X11708277Y-16219174D01*
X11708277Y-16219174D02*
X11689230Y-16209650D01*
X11689230Y-16209650D02*
X11660658Y-16209650D01*
X11660658Y-16209650D02*
X11641610Y-16219174D01*
X11641610Y-16219174D02*
X11632087Y-16228698D01*
X11841610Y-16342984D02*
X11822563Y-16333460D01*
X11822563Y-16333460D02*
X11813039Y-16323936D01*
X11813039Y-16323936D02*
X11803515Y-16304888D01*
X11803515Y-16304888D02*
X11803515Y-16247746D01*
X11803515Y-16247746D02*
X11813039Y-16228698D01*
X11813039Y-16228698D02*
X11822563Y-16219174D01*
X11822563Y-16219174D02*
X11841610Y-16209650D01*
X11841610Y-16209650D02*
X11870182Y-16209650D01*
X11870182Y-16209650D02*
X11889230Y-16219174D01*
X11889230Y-16219174D02*
X11898753Y-16228698D01*
X11898753Y-16228698D02*
X11908277Y-16247746D01*
X11908277Y-16247746D02*
X11908277Y-16304888D01*
X11908277Y-16304888D02*
X11898753Y-16323936D01*
X11898753Y-16323936D02*
X11889230Y-16333460D01*
X11889230Y-16333460D02*
X11870182Y-16342984D01*
X11870182Y-16342984D02*
X11841610Y-16342984D01*
X12022563Y-16342984D02*
X12003515Y-16333460D01*
X12003515Y-16333460D02*
X11993991Y-16314412D01*
X11993991Y-16314412D02*
X11993991Y-16142984D01*
X12174944Y-16333460D02*
X12155896Y-16342984D01*
X12155896Y-16342984D02*
X12117801Y-16342984D01*
X12117801Y-16342984D02*
X12098753Y-16333460D01*
X12098753Y-16333460D02*
X12089230Y-16314412D01*
X12089230Y-16314412D02*
X12089230Y-16238222D01*
X12089230Y-16238222D02*
X12098753Y-16219174D01*
X12098753Y-16219174D02*
X12117801Y-16209650D01*
X12117801Y-16209650D02*
X12155896Y-16209650D01*
X12155896Y-16209650D02*
X12174944Y-16219174D01*
X12174944Y-16219174D02*
X12184468Y-16238222D01*
X12184468Y-16238222D02*
X12184468Y-16257269D01*
X12184468Y-16257269D02*
X12089230Y-16276317D01*
X12260658Y-16333460D02*
X12279706Y-16342984D01*
X12279706Y-16342984D02*
X12317801Y-16342984D01*
X12317801Y-16342984D02*
X12336849Y-16333460D01*
X12336849Y-16333460D02*
X12346372Y-16314412D01*
X12346372Y-16314412D02*
X12346372Y-16304888D01*
X12346372Y-16304888D02*
X12336849Y-16285841D01*
X12336849Y-16285841D02*
X12317801Y-16276317D01*
X12317801Y-16276317D02*
X12289230Y-16276317D01*
X12289230Y-16276317D02*
X12270182Y-16266793D01*
X12270182Y-16266793D02*
X12260658Y-16247746D01*
X12260658Y-16247746D02*
X12260658Y-16238222D01*
X12260658Y-16238222D02*
X12270182Y-16219174D01*
X12270182Y-16219174D02*
X12289230Y-16209650D01*
X12289230Y-16209650D02*
X12317801Y-16209650D01*
X12317801Y-16209650D02*
X12336849Y-16219174D01*
X12413039Y-16419174D02*
X12422563Y-16409650D01*
X12422563Y-16409650D02*
X12441611Y-16381079D01*
X12441611Y-16381079D02*
X12451134Y-16362031D01*
X12451134Y-16362031D02*
X12460658Y-16333460D01*
X12460658Y-16333460D02*
X12470182Y-16285841D01*
X12470182Y-16285841D02*
X12470182Y-16247746D01*
X12470182Y-16247746D02*
X12460658Y-16200127D01*
X12460658Y-16200127D02*
X12451134Y-16171555D01*
X12451134Y-16171555D02*
X12441611Y-16152508D01*
X12441611Y-16152508D02*
X12422563Y-16123936D01*
X12422563Y-16123936D02*
X12413039Y-16114412D01*
D12*
X7432500Y-16500500D02*
X7432500Y-16530500D01*
X7417500Y-16515500D02*
X7447500Y-16515500D01*
D11*
X7746372Y-16406984D02*
X7765420Y-16406984D01*
X7765420Y-16406984D02*
X7784467Y-16416508D01*
X7784467Y-16416508D02*
X7793991Y-16426031D01*
X7793991Y-16426031D02*
X7803515Y-16445079D01*
X7803515Y-16445079D02*
X7813039Y-16483174D01*
X7813039Y-16483174D02*
X7813039Y-16530793D01*
X7813039Y-16530793D02*
X7803515Y-16568888D01*
X7803515Y-16568888D02*
X7793991Y-16587936D01*
X7793991Y-16587936D02*
X7784467Y-16597460D01*
X7784467Y-16597460D02*
X7765420Y-16606984D01*
X7765420Y-16606984D02*
X7746372Y-16606984D01*
X7746372Y-16606984D02*
X7727324Y-16597460D01*
X7727324Y-16597460D02*
X7717801Y-16587936D01*
X7717801Y-16587936D02*
X7708277Y-16568888D01*
X7708277Y-16568888D02*
X7698753Y-16530793D01*
X7698753Y-16530793D02*
X7698753Y-16483174D01*
X7698753Y-16483174D02*
X7708277Y-16445079D01*
X7708277Y-16445079D02*
X7717801Y-16426031D01*
X7717801Y-16426031D02*
X7727324Y-16416508D01*
X7727324Y-16416508D02*
X7746372Y-16406984D01*
X7898753Y-16587936D02*
X7908277Y-16597460D01*
X7908277Y-16597460D02*
X7898753Y-16606984D01*
X7898753Y-16606984D02*
X7889229Y-16597460D01*
X7889229Y-16597460D02*
X7898753Y-16587936D01*
X7898753Y-16587936D02*
X7898753Y-16606984D01*
X7974943Y-16406984D02*
X8098753Y-16406984D01*
X8098753Y-16406984D02*
X8032086Y-16483174D01*
X8032086Y-16483174D02*
X8060658Y-16483174D01*
X8060658Y-16483174D02*
X8079705Y-16492698D01*
X8079705Y-16492698D02*
X8089229Y-16502222D01*
X8089229Y-16502222D02*
X8098753Y-16521269D01*
X8098753Y-16521269D02*
X8098753Y-16568888D01*
X8098753Y-16568888D02*
X8089229Y-16587936D01*
X8089229Y-16587936D02*
X8079705Y-16597460D01*
X8079705Y-16597460D02*
X8060658Y-16606984D01*
X8060658Y-16606984D02*
X8003515Y-16606984D01*
X8003515Y-16606984D02*
X7984467Y-16597460D01*
X7984467Y-16597460D02*
X7974943Y-16587936D01*
X8222562Y-16406984D02*
X8241610Y-16406984D01*
X8241610Y-16406984D02*
X8260658Y-16416508D01*
X8260658Y-16416508D02*
X8270182Y-16426031D01*
X8270182Y-16426031D02*
X8279705Y-16445079D01*
X8279705Y-16445079D02*
X8289229Y-16483174D01*
X8289229Y-16483174D02*
X8289229Y-16530793D01*
X8289229Y-16530793D02*
X8279705Y-16568888D01*
X8279705Y-16568888D02*
X8270182Y-16587936D01*
X8270182Y-16587936D02*
X8260658Y-16597460D01*
X8260658Y-16597460D02*
X8241610Y-16606984D01*
X8241610Y-16606984D02*
X8222562Y-16606984D01*
X8222562Y-16606984D02*
X8203515Y-16597460D01*
X8203515Y-16597460D02*
X8193991Y-16587936D01*
X8193991Y-16587936D02*
X8184467Y-16568888D01*
X8184467Y-16568888D02*
X8174943Y-16530793D01*
X8174943Y-16530793D02*
X8174943Y-16483174D01*
X8174943Y-16483174D02*
X8184467Y-16445079D01*
X8184467Y-16445079D02*
X8193991Y-16426031D01*
X8193991Y-16426031D02*
X8203515Y-16416508D01*
X8203515Y-16416508D02*
X8222562Y-16406984D01*
X8413039Y-16406984D02*
X8432086Y-16406984D01*
X8432086Y-16406984D02*
X8451134Y-16416508D01*
X8451134Y-16416508D02*
X8460658Y-16426031D01*
X8460658Y-16426031D02*
X8470182Y-16445079D01*
X8470182Y-16445079D02*
X8479705Y-16483174D01*
X8479705Y-16483174D02*
X8479705Y-16530793D01*
X8479705Y-16530793D02*
X8470182Y-16568888D01*
X8470182Y-16568888D02*
X8460658Y-16587936D01*
X8460658Y-16587936D02*
X8451134Y-16597460D01*
X8451134Y-16597460D02*
X8432086Y-16606984D01*
X8432086Y-16606984D02*
X8413039Y-16606984D01*
X8413039Y-16606984D02*
X8393991Y-16597460D01*
X8393991Y-16597460D02*
X8384467Y-16587936D01*
X8384467Y-16587936D02*
X8374943Y-16568888D01*
X8374943Y-16568888D02*
X8365420Y-16530793D01*
X8365420Y-16530793D02*
X8365420Y-16483174D01*
X8365420Y-16483174D02*
X8374943Y-16445079D01*
X8374943Y-16445079D02*
X8384467Y-16426031D01*
X8384467Y-16426031D02*
X8393991Y-16416508D01*
X8393991Y-16416508D02*
X8413039Y-16406984D01*
X8565420Y-16606984D02*
X8565420Y-16473650D01*
X8565420Y-16492698D02*
X8574944Y-16483174D01*
X8574944Y-16483174D02*
X8593991Y-16473650D01*
X8593991Y-16473650D02*
X8622563Y-16473650D01*
X8622563Y-16473650D02*
X8641610Y-16483174D01*
X8641610Y-16483174D02*
X8651134Y-16502222D01*
X8651134Y-16502222D02*
X8651134Y-16606984D01*
X8651134Y-16502222D02*
X8660658Y-16483174D01*
X8660658Y-16483174D02*
X8679705Y-16473650D01*
X8679705Y-16473650D02*
X8708277Y-16473650D01*
X8708277Y-16473650D02*
X8727325Y-16483174D01*
X8727325Y-16483174D02*
X8736848Y-16502222D01*
X8736848Y-16502222D02*
X8736848Y-16606984D01*
X8832086Y-16606984D02*
X8832086Y-16473650D01*
X8832086Y-16492698D02*
X8841610Y-16483174D01*
X8841610Y-16483174D02*
X8860658Y-16473650D01*
X8860658Y-16473650D02*
X8889229Y-16473650D01*
X8889229Y-16473650D02*
X8908277Y-16483174D01*
X8908277Y-16483174D02*
X8917801Y-16502222D01*
X8917801Y-16502222D02*
X8917801Y-16606984D01*
X8917801Y-16502222D02*
X8927325Y-16483174D01*
X8927325Y-16483174D02*
X8946372Y-16473650D01*
X8946372Y-16473650D02*
X8974944Y-16473650D01*
X8974944Y-16473650D02*
X8993991Y-16483174D01*
X8993991Y-16483174D02*
X9003515Y-16502222D01*
X9003515Y-16502222D02*
X9003515Y-16606984D01*
X9393991Y-16397460D02*
X9222563Y-16654603D01*
X9651134Y-16406984D02*
X9670182Y-16406984D01*
X9670182Y-16406984D02*
X9689229Y-16416508D01*
X9689229Y-16416508D02*
X9698753Y-16426031D01*
X9698753Y-16426031D02*
X9708277Y-16445079D01*
X9708277Y-16445079D02*
X9717801Y-16483174D01*
X9717801Y-16483174D02*
X9717801Y-16530793D01*
X9717801Y-16530793D02*
X9708277Y-16568888D01*
X9708277Y-16568888D02*
X9698753Y-16587936D01*
X9698753Y-16587936D02*
X9689229Y-16597460D01*
X9689229Y-16597460D02*
X9670182Y-16606984D01*
X9670182Y-16606984D02*
X9651134Y-16606984D01*
X9651134Y-16606984D02*
X9632087Y-16597460D01*
X9632087Y-16597460D02*
X9622563Y-16587936D01*
X9622563Y-16587936D02*
X9613039Y-16568888D01*
X9613039Y-16568888D02*
X9603515Y-16530793D01*
X9603515Y-16530793D02*
X9603515Y-16483174D01*
X9603515Y-16483174D02*
X9613039Y-16445079D01*
X9613039Y-16445079D02*
X9622563Y-16426031D01*
X9622563Y-16426031D02*
X9632087Y-16416508D01*
X9632087Y-16416508D02*
X9651134Y-16406984D01*
X9803515Y-16587936D02*
X9813039Y-16597460D01*
X9813039Y-16597460D02*
X9803515Y-16606984D01*
X9803515Y-16606984D02*
X9793991Y-16597460D01*
X9793991Y-16597460D02*
X9803515Y-16587936D01*
X9803515Y-16587936D02*
X9803515Y-16606984D01*
X9936848Y-16406984D02*
X9955896Y-16406984D01*
X9955896Y-16406984D02*
X9974944Y-16416508D01*
X9974944Y-16416508D02*
X9984468Y-16426031D01*
X9984468Y-16426031D02*
X9993991Y-16445079D01*
X9993991Y-16445079D02*
X10003515Y-16483174D01*
X10003515Y-16483174D02*
X10003515Y-16530793D01*
X10003515Y-16530793D02*
X9993991Y-16568888D01*
X9993991Y-16568888D02*
X9984468Y-16587936D01*
X9984468Y-16587936D02*
X9974944Y-16597460D01*
X9974944Y-16597460D02*
X9955896Y-16606984D01*
X9955896Y-16606984D02*
X9936848Y-16606984D01*
X9936848Y-16606984D02*
X9917801Y-16597460D01*
X9917801Y-16597460D02*
X9908277Y-16587936D01*
X9908277Y-16587936D02*
X9898753Y-16568888D01*
X9898753Y-16568888D02*
X9889229Y-16530793D01*
X9889229Y-16530793D02*
X9889229Y-16483174D01*
X9889229Y-16483174D02*
X9898753Y-16445079D01*
X9898753Y-16445079D02*
X9908277Y-16426031D01*
X9908277Y-16426031D02*
X9917801Y-16416508D01*
X9917801Y-16416508D02*
X9936848Y-16406984D01*
X10193991Y-16606984D02*
X10079706Y-16606984D01*
X10136848Y-16606984D02*
X10136848Y-16406984D01*
X10136848Y-16406984D02*
X10117801Y-16435555D01*
X10117801Y-16435555D02*
X10098753Y-16454603D01*
X10098753Y-16454603D02*
X10079706Y-16464127D01*
X10384468Y-16606984D02*
X10270182Y-16606984D01*
X10327325Y-16606984D02*
X10327325Y-16406984D01*
X10327325Y-16406984D02*
X10308277Y-16435555D01*
X10308277Y-16435555D02*
X10289229Y-16454603D01*
X10289229Y-16454603D02*
X10270182Y-16464127D01*
X10498753Y-16492698D02*
X10479706Y-16483174D01*
X10479706Y-16483174D02*
X10470182Y-16473650D01*
X10470182Y-16473650D02*
X10460658Y-16454603D01*
X10460658Y-16454603D02*
X10460658Y-16445079D01*
X10460658Y-16445079D02*
X10470182Y-16426031D01*
X10470182Y-16426031D02*
X10479706Y-16416508D01*
X10479706Y-16416508D02*
X10498753Y-16406984D01*
X10498753Y-16406984D02*
X10536849Y-16406984D01*
X10536849Y-16406984D02*
X10555896Y-16416508D01*
X10555896Y-16416508D02*
X10565420Y-16426031D01*
X10565420Y-16426031D02*
X10574944Y-16445079D01*
X10574944Y-16445079D02*
X10574944Y-16454603D01*
X10574944Y-16454603D02*
X10565420Y-16473650D01*
X10565420Y-16473650D02*
X10555896Y-16483174D01*
X10555896Y-16483174D02*
X10536849Y-16492698D01*
X10536849Y-16492698D02*
X10498753Y-16492698D01*
X10498753Y-16492698D02*
X10479706Y-16502222D01*
X10479706Y-16502222D02*
X10470182Y-16511746D01*
X10470182Y-16511746D02*
X10460658Y-16530793D01*
X10460658Y-16530793D02*
X10460658Y-16568888D01*
X10460658Y-16568888D02*
X10470182Y-16587936D01*
X10470182Y-16587936D02*
X10479706Y-16597460D01*
X10479706Y-16597460D02*
X10498753Y-16606984D01*
X10498753Y-16606984D02*
X10536849Y-16606984D01*
X10536849Y-16606984D02*
X10555896Y-16597460D01*
X10555896Y-16597460D02*
X10565420Y-16587936D01*
X10565420Y-16587936D02*
X10574944Y-16568888D01*
X10574944Y-16568888D02*
X10574944Y-16530793D01*
X10574944Y-16530793D02*
X10565420Y-16511746D01*
X10565420Y-16511746D02*
X10555896Y-16502222D01*
X10555896Y-16502222D02*
X10536849Y-16492698D01*
X10651134Y-16406984D02*
X10651134Y-16445079D01*
X10727325Y-16406984D02*
X10727325Y-16445079D01*
X11022563Y-16683174D02*
X11013039Y-16673650D01*
X11013039Y-16673650D02*
X10993991Y-16645079D01*
X10993991Y-16645079D02*
X10984468Y-16626031D01*
X10984468Y-16626031D02*
X10974944Y-16597460D01*
X10974944Y-16597460D02*
X10965420Y-16549841D01*
X10965420Y-16549841D02*
X10965420Y-16511746D01*
X10965420Y-16511746D02*
X10974944Y-16464127D01*
X10974944Y-16464127D02*
X10984468Y-16435555D01*
X10984468Y-16435555D02*
X10993991Y-16416508D01*
X10993991Y-16416508D02*
X11013039Y-16387936D01*
X11013039Y-16387936D02*
X11022563Y-16378412D01*
X11089230Y-16426031D02*
X11098753Y-16416508D01*
X11098753Y-16416508D02*
X11117801Y-16406984D01*
X11117801Y-16406984D02*
X11165420Y-16406984D01*
X11165420Y-16406984D02*
X11184468Y-16416508D01*
X11184468Y-16416508D02*
X11193991Y-16426031D01*
X11193991Y-16426031D02*
X11203515Y-16445079D01*
X11203515Y-16445079D02*
X11203515Y-16464127D01*
X11203515Y-16464127D02*
X11193991Y-16492698D01*
X11193991Y-16492698D02*
X11079706Y-16606984D01*
X11079706Y-16606984D02*
X11203515Y-16606984D01*
X11317801Y-16492698D02*
X11298753Y-16483174D01*
X11298753Y-16483174D02*
X11289229Y-16473650D01*
X11289229Y-16473650D02*
X11279706Y-16454603D01*
X11279706Y-16454603D02*
X11279706Y-16445079D01*
X11279706Y-16445079D02*
X11289229Y-16426031D01*
X11289229Y-16426031D02*
X11298753Y-16416508D01*
X11298753Y-16416508D02*
X11317801Y-16406984D01*
X11317801Y-16406984D02*
X11355896Y-16406984D01*
X11355896Y-16406984D02*
X11374944Y-16416508D01*
X11374944Y-16416508D02*
X11384468Y-16426031D01*
X11384468Y-16426031D02*
X11393991Y-16445079D01*
X11393991Y-16445079D02*
X11393991Y-16454603D01*
X11393991Y-16454603D02*
X11384468Y-16473650D01*
X11384468Y-16473650D02*
X11374944Y-16483174D01*
X11374944Y-16483174D02*
X11355896Y-16492698D01*
X11355896Y-16492698D02*
X11317801Y-16492698D01*
X11317801Y-16492698D02*
X11298753Y-16502222D01*
X11298753Y-16502222D02*
X11289229Y-16511746D01*
X11289229Y-16511746D02*
X11279706Y-16530793D01*
X11279706Y-16530793D02*
X11279706Y-16568888D01*
X11279706Y-16568888D02*
X11289229Y-16587936D01*
X11289229Y-16587936D02*
X11298753Y-16597460D01*
X11298753Y-16597460D02*
X11317801Y-16606984D01*
X11317801Y-16606984D02*
X11355896Y-16606984D01*
X11355896Y-16606984D02*
X11374944Y-16597460D01*
X11374944Y-16597460D02*
X11384468Y-16587936D01*
X11384468Y-16587936D02*
X11393991Y-16568888D01*
X11393991Y-16568888D02*
X11393991Y-16530793D01*
X11393991Y-16530793D02*
X11384468Y-16511746D01*
X11384468Y-16511746D02*
X11374944Y-16502222D01*
X11374944Y-16502222D02*
X11355896Y-16492698D01*
X11460658Y-16406984D02*
X11584468Y-16406984D01*
X11584468Y-16406984D02*
X11517801Y-16483174D01*
X11517801Y-16483174D02*
X11546372Y-16483174D01*
X11546372Y-16483174D02*
X11565420Y-16492698D01*
X11565420Y-16492698D02*
X11574944Y-16502222D01*
X11574944Y-16502222D02*
X11584468Y-16521269D01*
X11584468Y-16521269D02*
X11584468Y-16568888D01*
X11584468Y-16568888D02*
X11574944Y-16587936D01*
X11574944Y-16587936D02*
X11565420Y-16597460D01*
X11565420Y-16597460D02*
X11546372Y-16606984D01*
X11546372Y-16606984D02*
X11489229Y-16606984D01*
X11489229Y-16606984D02*
X11470182Y-16597460D01*
X11470182Y-16597460D02*
X11460658Y-16587936D01*
X11822563Y-16606984D02*
X11822563Y-16406984D01*
X11908277Y-16606984D02*
X11908277Y-16502222D01*
X11908277Y-16502222D02*
X11898753Y-16483174D01*
X11898753Y-16483174D02*
X11879706Y-16473650D01*
X11879706Y-16473650D02*
X11851134Y-16473650D01*
X11851134Y-16473650D02*
X11832087Y-16483174D01*
X11832087Y-16483174D02*
X11822563Y-16492698D01*
X12032087Y-16606984D02*
X12013039Y-16597460D01*
X12013039Y-16597460D02*
X12003515Y-16587936D01*
X12003515Y-16587936D02*
X11993991Y-16568888D01*
X11993991Y-16568888D02*
X11993991Y-16511746D01*
X11993991Y-16511746D02*
X12003515Y-16492698D01*
X12003515Y-16492698D02*
X12013039Y-16483174D01*
X12013039Y-16483174D02*
X12032087Y-16473650D01*
X12032087Y-16473650D02*
X12060658Y-16473650D01*
X12060658Y-16473650D02*
X12079706Y-16483174D01*
X12079706Y-16483174D02*
X12089230Y-16492698D01*
X12089230Y-16492698D02*
X12098753Y-16511746D01*
X12098753Y-16511746D02*
X12098753Y-16568888D01*
X12098753Y-16568888D02*
X12089230Y-16587936D01*
X12089230Y-16587936D02*
X12079706Y-16597460D01*
X12079706Y-16597460D02*
X12060658Y-16606984D01*
X12060658Y-16606984D02*
X12032087Y-16606984D01*
X12213039Y-16606984D02*
X12193991Y-16597460D01*
X12193991Y-16597460D02*
X12184468Y-16578412D01*
X12184468Y-16578412D02*
X12184468Y-16406984D01*
X12365420Y-16597460D02*
X12346372Y-16606984D01*
X12346372Y-16606984D02*
X12308277Y-16606984D01*
X12308277Y-16606984D02*
X12289230Y-16597460D01*
X12289230Y-16597460D02*
X12279706Y-16578412D01*
X12279706Y-16578412D02*
X12279706Y-16502222D01*
X12279706Y-16502222D02*
X12289230Y-16483174D01*
X12289230Y-16483174D02*
X12308277Y-16473650D01*
X12308277Y-16473650D02*
X12346372Y-16473650D01*
X12346372Y-16473650D02*
X12365420Y-16483174D01*
X12365420Y-16483174D02*
X12374944Y-16502222D01*
X12374944Y-16502222D02*
X12374944Y-16521269D01*
X12374944Y-16521269D02*
X12279706Y-16540317D01*
X12451134Y-16597460D02*
X12470182Y-16606984D01*
X12470182Y-16606984D02*
X12508277Y-16606984D01*
X12508277Y-16606984D02*
X12527325Y-16597460D01*
X12527325Y-16597460D02*
X12536849Y-16578412D01*
X12536849Y-16578412D02*
X12536849Y-16568888D01*
X12536849Y-16568888D02*
X12527325Y-16549841D01*
X12527325Y-16549841D02*
X12508277Y-16540317D01*
X12508277Y-16540317D02*
X12479706Y-16540317D01*
X12479706Y-16540317D02*
X12460658Y-16530793D01*
X12460658Y-16530793D02*
X12451134Y-16511746D01*
X12451134Y-16511746D02*
X12451134Y-16502222D01*
X12451134Y-16502222D02*
X12460658Y-16483174D01*
X12460658Y-16483174D02*
X12479706Y-16473650D01*
X12479706Y-16473650D02*
X12508277Y-16473650D01*
X12508277Y-16473650D02*
X12527325Y-16483174D01*
X12603515Y-16683174D02*
X12613039Y-16673650D01*
X12613039Y-16673650D02*
X12632087Y-16645079D01*
X12632087Y-16645079D02*
X12641611Y-16626031D01*
X12641611Y-16626031D02*
X12651134Y-16597460D01*
X12651134Y-16597460D02*
X12660658Y-16549841D01*
X12660658Y-16549841D02*
X12660658Y-16511746D01*
X12660658Y-16511746D02*
X12651134Y-16464127D01*
X12651134Y-16464127D02*
X12641611Y-16435555D01*
X12641611Y-16435555D02*
X12632087Y-16416508D01*
X12632087Y-16416508D02*
X12613039Y-16387936D01*
X12613039Y-16387936D02*
X12603515Y-16378412D01*
D12*
X7438713Y-16800713D02*
X7438713Y-16758287D01*
X7396287Y-16758287D01*
X7396287Y-16800713D01*
X7438713Y-16800713D01*
D11*
X7746372Y-16670984D02*
X7765420Y-16670984D01*
X7765420Y-16670984D02*
X7784467Y-16680508D01*
X7784467Y-16680508D02*
X7793991Y-16690031D01*
X7793991Y-16690031D02*
X7803515Y-16709079D01*
X7803515Y-16709079D02*
X7813039Y-16747174D01*
X7813039Y-16747174D02*
X7813039Y-16794793D01*
X7813039Y-16794793D02*
X7803515Y-16832889D01*
X7803515Y-16832889D02*
X7793991Y-16851936D01*
X7793991Y-16851936D02*
X7784467Y-16861460D01*
X7784467Y-16861460D02*
X7765420Y-16870984D01*
X7765420Y-16870984D02*
X7746372Y-16870984D01*
X7746372Y-16870984D02*
X7727324Y-16861460D01*
X7727324Y-16861460D02*
X7717801Y-16851936D01*
X7717801Y-16851936D02*
X7708277Y-16832889D01*
X7708277Y-16832889D02*
X7698753Y-16794793D01*
X7698753Y-16794793D02*
X7698753Y-16747174D01*
X7698753Y-16747174D02*
X7708277Y-16709079D01*
X7708277Y-16709079D02*
X7717801Y-16690031D01*
X7717801Y-16690031D02*
X7727324Y-16680508D01*
X7727324Y-16680508D02*
X7746372Y-16670984D01*
X7898753Y-16851936D02*
X7908277Y-16861460D01*
X7908277Y-16861460D02*
X7898753Y-16870984D01*
X7898753Y-16870984D02*
X7889229Y-16861460D01*
X7889229Y-16861460D02*
X7898753Y-16851936D01*
X7898753Y-16851936D02*
X7898753Y-16870984D01*
X8079705Y-16670984D02*
X8041610Y-16670984D01*
X8041610Y-16670984D02*
X8022562Y-16680508D01*
X8022562Y-16680508D02*
X8013039Y-16690031D01*
X8013039Y-16690031D02*
X7993991Y-16718603D01*
X7993991Y-16718603D02*
X7984467Y-16756698D01*
X7984467Y-16756698D02*
X7984467Y-16832889D01*
X7984467Y-16832889D02*
X7993991Y-16851936D01*
X7993991Y-16851936D02*
X8003515Y-16861460D01*
X8003515Y-16861460D02*
X8022562Y-16870984D01*
X8022562Y-16870984D02*
X8060658Y-16870984D01*
X8060658Y-16870984D02*
X8079705Y-16861460D01*
X8079705Y-16861460D02*
X8089229Y-16851936D01*
X8089229Y-16851936D02*
X8098753Y-16832889D01*
X8098753Y-16832889D02*
X8098753Y-16785270D01*
X8098753Y-16785270D02*
X8089229Y-16766222D01*
X8089229Y-16766222D02*
X8079705Y-16756698D01*
X8079705Y-16756698D02*
X8060658Y-16747174D01*
X8060658Y-16747174D02*
X8022562Y-16747174D01*
X8022562Y-16747174D02*
X8003515Y-16756698D01*
X8003515Y-16756698D02*
X7993991Y-16766222D01*
X7993991Y-16766222D02*
X7984467Y-16785270D01*
X8222562Y-16670984D02*
X8241610Y-16670984D01*
X8241610Y-16670984D02*
X8260658Y-16680508D01*
X8260658Y-16680508D02*
X8270182Y-16690031D01*
X8270182Y-16690031D02*
X8279705Y-16709079D01*
X8279705Y-16709079D02*
X8289229Y-16747174D01*
X8289229Y-16747174D02*
X8289229Y-16794793D01*
X8289229Y-16794793D02*
X8279705Y-16832889D01*
X8279705Y-16832889D02*
X8270182Y-16851936D01*
X8270182Y-16851936D02*
X8260658Y-16861460D01*
X8260658Y-16861460D02*
X8241610Y-16870984D01*
X8241610Y-16870984D02*
X8222562Y-16870984D01*
X8222562Y-16870984D02*
X8203515Y-16861460D01*
X8203515Y-16861460D02*
X8193991Y-16851936D01*
X8193991Y-16851936D02*
X8184467Y-16832889D01*
X8184467Y-16832889D02*
X8174943Y-16794793D01*
X8174943Y-16794793D02*
X8174943Y-16747174D01*
X8174943Y-16747174D02*
X8184467Y-16709079D01*
X8184467Y-16709079D02*
X8193991Y-16690031D01*
X8193991Y-16690031D02*
X8203515Y-16680508D01*
X8203515Y-16680508D02*
X8222562Y-16670984D01*
X8413039Y-16670984D02*
X8432086Y-16670984D01*
X8432086Y-16670984D02*
X8451134Y-16680508D01*
X8451134Y-16680508D02*
X8460658Y-16690031D01*
X8460658Y-16690031D02*
X8470182Y-16709079D01*
X8470182Y-16709079D02*
X8479705Y-16747174D01*
X8479705Y-16747174D02*
X8479705Y-16794793D01*
X8479705Y-16794793D02*
X8470182Y-16832889D01*
X8470182Y-16832889D02*
X8460658Y-16851936D01*
X8460658Y-16851936D02*
X8451134Y-16861460D01*
X8451134Y-16861460D02*
X8432086Y-16870984D01*
X8432086Y-16870984D02*
X8413039Y-16870984D01*
X8413039Y-16870984D02*
X8393991Y-16861460D01*
X8393991Y-16861460D02*
X8384467Y-16851936D01*
X8384467Y-16851936D02*
X8374943Y-16832889D01*
X8374943Y-16832889D02*
X8365420Y-16794793D01*
X8365420Y-16794793D02*
X8365420Y-16747174D01*
X8365420Y-16747174D02*
X8374943Y-16709079D01*
X8374943Y-16709079D02*
X8384467Y-16690031D01*
X8384467Y-16690031D02*
X8393991Y-16680508D01*
X8393991Y-16680508D02*
X8413039Y-16670984D01*
X8565420Y-16870984D02*
X8565420Y-16737650D01*
X8565420Y-16756698D02*
X8574944Y-16747174D01*
X8574944Y-16747174D02*
X8593991Y-16737650D01*
X8593991Y-16737650D02*
X8622563Y-16737650D01*
X8622563Y-16737650D02*
X8641610Y-16747174D01*
X8641610Y-16747174D02*
X8651134Y-16766222D01*
X8651134Y-16766222D02*
X8651134Y-16870984D01*
X8651134Y-16766222D02*
X8660658Y-16747174D01*
X8660658Y-16747174D02*
X8679705Y-16737650D01*
X8679705Y-16737650D02*
X8708277Y-16737650D01*
X8708277Y-16737650D02*
X8727325Y-16747174D01*
X8727325Y-16747174D02*
X8736848Y-16766222D01*
X8736848Y-16766222D02*
X8736848Y-16870984D01*
X8832086Y-16870984D02*
X8832086Y-16737650D01*
X8832086Y-16756698D02*
X8841610Y-16747174D01*
X8841610Y-16747174D02*
X8860658Y-16737650D01*
X8860658Y-16737650D02*
X8889229Y-16737650D01*
X8889229Y-16737650D02*
X8908277Y-16747174D01*
X8908277Y-16747174D02*
X8917801Y-16766222D01*
X8917801Y-16766222D02*
X8917801Y-16870984D01*
X8917801Y-16766222D02*
X8927325Y-16747174D01*
X8927325Y-16747174D02*
X8946372Y-16737650D01*
X8946372Y-16737650D02*
X8974944Y-16737650D01*
X8974944Y-16737650D02*
X8993991Y-16747174D01*
X8993991Y-16747174D02*
X9003515Y-16766222D01*
X9003515Y-16766222D02*
X9003515Y-16870984D01*
X9393991Y-16661460D02*
X9222563Y-16918603D01*
X9651134Y-16670984D02*
X9670182Y-16670984D01*
X9670182Y-16670984D02*
X9689229Y-16680508D01*
X9689229Y-16680508D02*
X9698753Y-16690031D01*
X9698753Y-16690031D02*
X9708277Y-16709079D01*
X9708277Y-16709079D02*
X9717801Y-16747174D01*
X9717801Y-16747174D02*
X9717801Y-16794793D01*
X9717801Y-16794793D02*
X9708277Y-16832889D01*
X9708277Y-16832889D02*
X9698753Y-16851936D01*
X9698753Y-16851936D02*
X9689229Y-16861460D01*
X9689229Y-16861460D02*
X9670182Y-16870984D01*
X9670182Y-16870984D02*
X9651134Y-16870984D01*
X9651134Y-16870984D02*
X9632087Y-16861460D01*
X9632087Y-16861460D02*
X9622563Y-16851936D01*
X9622563Y-16851936D02*
X9613039Y-16832889D01*
X9613039Y-16832889D02*
X9603515Y-16794793D01*
X9603515Y-16794793D02*
X9603515Y-16747174D01*
X9603515Y-16747174D02*
X9613039Y-16709079D01*
X9613039Y-16709079D02*
X9622563Y-16690031D01*
X9622563Y-16690031D02*
X9632087Y-16680508D01*
X9632087Y-16680508D02*
X9651134Y-16670984D01*
X9803515Y-16851936D02*
X9813039Y-16861460D01*
X9813039Y-16861460D02*
X9803515Y-16870984D01*
X9803515Y-16870984D02*
X9793991Y-16861460D01*
X9793991Y-16861460D02*
X9803515Y-16851936D01*
X9803515Y-16851936D02*
X9803515Y-16870984D01*
X9936848Y-16670984D02*
X9955896Y-16670984D01*
X9955896Y-16670984D02*
X9974944Y-16680508D01*
X9974944Y-16680508D02*
X9984468Y-16690031D01*
X9984468Y-16690031D02*
X9993991Y-16709079D01*
X9993991Y-16709079D02*
X10003515Y-16747174D01*
X10003515Y-16747174D02*
X10003515Y-16794793D01*
X10003515Y-16794793D02*
X9993991Y-16832889D01*
X9993991Y-16832889D02*
X9984468Y-16851936D01*
X9984468Y-16851936D02*
X9974944Y-16861460D01*
X9974944Y-16861460D02*
X9955896Y-16870984D01*
X9955896Y-16870984D02*
X9936848Y-16870984D01*
X9936848Y-16870984D02*
X9917801Y-16861460D01*
X9917801Y-16861460D02*
X9908277Y-16851936D01*
X9908277Y-16851936D02*
X9898753Y-16832889D01*
X9898753Y-16832889D02*
X9889229Y-16794793D01*
X9889229Y-16794793D02*
X9889229Y-16747174D01*
X9889229Y-16747174D02*
X9898753Y-16709079D01*
X9898753Y-16709079D02*
X9908277Y-16690031D01*
X9908277Y-16690031D02*
X9917801Y-16680508D01*
X9917801Y-16680508D02*
X9936848Y-16670984D01*
X10079706Y-16690031D02*
X10089229Y-16680508D01*
X10089229Y-16680508D02*
X10108277Y-16670984D01*
X10108277Y-16670984D02*
X10155896Y-16670984D01*
X10155896Y-16670984D02*
X10174944Y-16680508D01*
X10174944Y-16680508D02*
X10184468Y-16690031D01*
X10184468Y-16690031D02*
X10193991Y-16709079D01*
X10193991Y-16709079D02*
X10193991Y-16728127D01*
X10193991Y-16728127D02*
X10184468Y-16756698D01*
X10184468Y-16756698D02*
X10070182Y-16870984D01*
X10070182Y-16870984D02*
X10193991Y-16870984D01*
X10260658Y-16670984D02*
X10384468Y-16670984D01*
X10384468Y-16670984D02*
X10317801Y-16747174D01*
X10317801Y-16747174D02*
X10346372Y-16747174D01*
X10346372Y-16747174D02*
X10365420Y-16756698D01*
X10365420Y-16756698D02*
X10374944Y-16766222D01*
X10374944Y-16766222D02*
X10384468Y-16785270D01*
X10384468Y-16785270D02*
X10384468Y-16832889D01*
X10384468Y-16832889D02*
X10374944Y-16851936D01*
X10374944Y-16851936D02*
X10365420Y-16861460D01*
X10365420Y-16861460D02*
X10346372Y-16870984D01*
X10346372Y-16870984D02*
X10289229Y-16870984D01*
X10289229Y-16870984D02*
X10270182Y-16861460D01*
X10270182Y-16861460D02*
X10260658Y-16851936D01*
X10555896Y-16670984D02*
X10517801Y-16670984D01*
X10517801Y-16670984D02*
X10498753Y-16680508D01*
X10498753Y-16680508D02*
X10489229Y-16690031D01*
X10489229Y-16690031D02*
X10470182Y-16718603D01*
X10470182Y-16718603D02*
X10460658Y-16756698D01*
X10460658Y-16756698D02*
X10460658Y-16832889D01*
X10460658Y-16832889D02*
X10470182Y-16851936D01*
X10470182Y-16851936D02*
X10479706Y-16861460D01*
X10479706Y-16861460D02*
X10498753Y-16870984D01*
X10498753Y-16870984D02*
X10536849Y-16870984D01*
X10536849Y-16870984D02*
X10555896Y-16861460D01*
X10555896Y-16861460D02*
X10565420Y-16851936D01*
X10565420Y-16851936D02*
X10574944Y-16832889D01*
X10574944Y-16832889D02*
X10574944Y-16785270D01*
X10574944Y-16785270D02*
X10565420Y-16766222D01*
X10565420Y-16766222D02*
X10555896Y-16756698D01*
X10555896Y-16756698D02*
X10536849Y-16747174D01*
X10536849Y-16747174D02*
X10498753Y-16747174D01*
X10498753Y-16747174D02*
X10479706Y-16756698D01*
X10479706Y-16756698D02*
X10470182Y-16766222D01*
X10470182Y-16766222D02*
X10460658Y-16785270D01*
X10651134Y-16670984D02*
X10651134Y-16709079D01*
X10727325Y-16670984D02*
X10727325Y-16709079D01*
X11022563Y-16947174D02*
X11013039Y-16937650D01*
X11013039Y-16937650D02*
X10993991Y-16909079D01*
X10993991Y-16909079D02*
X10984468Y-16890031D01*
X10984468Y-16890031D02*
X10974944Y-16861460D01*
X10974944Y-16861460D02*
X10965420Y-16813841D01*
X10965420Y-16813841D02*
X10965420Y-16775746D01*
X10965420Y-16775746D02*
X10974944Y-16728127D01*
X10974944Y-16728127D02*
X10984468Y-16699555D01*
X10984468Y-16699555D02*
X10993991Y-16680508D01*
X10993991Y-16680508D02*
X11013039Y-16651936D01*
X11013039Y-16651936D02*
X11022563Y-16642412D01*
X11136849Y-16670984D02*
X11155896Y-16670984D01*
X11155896Y-16670984D02*
X11174944Y-16680508D01*
X11174944Y-16680508D02*
X11184468Y-16690031D01*
X11184468Y-16690031D02*
X11193991Y-16709079D01*
X11193991Y-16709079D02*
X11203515Y-16747174D01*
X11203515Y-16747174D02*
X11203515Y-16794793D01*
X11203515Y-16794793D02*
X11193991Y-16832889D01*
X11193991Y-16832889D02*
X11184468Y-16851936D01*
X11184468Y-16851936D02*
X11174944Y-16861460D01*
X11174944Y-16861460D02*
X11155896Y-16870984D01*
X11155896Y-16870984D02*
X11136849Y-16870984D01*
X11136849Y-16870984D02*
X11117801Y-16861460D01*
X11117801Y-16861460D02*
X11108277Y-16851936D01*
X11108277Y-16851936D02*
X11098753Y-16832889D01*
X11098753Y-16832889D02*
X11089230Y-16794793D01*
X11089230Y-16794793D02*
X11089230Y-16747174D01*
X11089230Y-16747174D02*
X11098753Y-16709079D01*
X11098753Y-16709079D02*
X11108277Y-16690031D01*
X11108277Y-16690031D02*
X11117801Y-16680508D01*
X11117801Y-16680508D02*
X11136849Y-16670984D01*
X11441610Y-16870984D02*
X11441610Y-16670984D01*
X11527325Y-16870984D02*
X11527325Y-16766222D01*
X11527325Y-16766222D02*
X11517801Y-16747174D01*
X11517801Y-16747174D02*
X11498753Y-16737650D01*
X11498753Y-16737650D02*
X11470182Y-16737650D01*
X11470182Y-16737650D02*
X11451134Y-16747174D01*
X11451134Y-16747174D02*
X11441610Y-16756698D01*
X11651134Y-16870984D02*
X11632087Y-16861460D01*
X11632087Y-16861460D02*
X11622563Y-16851936D01*
X11622563Y-16851936D02*
X11613039Y-16832889D01*
X11613039Y-16832889D02*
X11613039Y-16775746D01*
X11613039Y-16775746D02*
X11622563Y-16756698D01*
X11622563Y-16756698D02*
X11632087Y-16747174D01*
X11632087Y-16747174D02*
X11651134Y-16737650D01*
X11651134Y-16737650D02*
X11679706Y-16737650D01*
X11679706Y-16737650D02*
X11698753Y-16747174D01*
X11698753Y-16747174D02*
X11708277Y-16756698D01*
X11708277Y-16756698D02*
X11717801Y-16775746D01*
X11717801Y-16775746D02*
X11717801Y-16832889D01*
X11717801Y-16832889D02*
X11708277Y-16851936D01*
X11708277Y-16851936D02*
X11698753Y-16861460D01*
X11698753Y-16861460D02*
X11679706Y-16870984D01*
X11679706Y-16870984D02*
X11651134Y-16870984D01*
X11832087Y-16870984D02*
X11813039Y-16861460D01*
X11813039Y-16861460D02*
X11803515Y-16842412D01*
X11803515Y-16842412D02*
X11803515Y-16670984D01*
X11984468Y-16861460D02*
X11965420Y-16870984D01*
X11965420Y-16870984D02*
X11927325Y-16870984D01*
X11927325Y-16870984D02*
X11908277Y-16861460D01*
X11908277Y-16861460D02*
X11898753Y-16842412D01*
X11898753Y-16842412D02*
X11898753Y-16766222D01*
X11898753Y-16766222D02*
X11908277Y-16747174D01*
X11908277Y-16747174D02*
X11927325Y-16737650D01*
X11927325Y-16737650D02*
X11965420Y-16737650D01*
X11965420Y-16737650D02*
X11984468Y-16747174D01*
X11984468Y-16747174D02*
X11993991Y-16766222D01*
X11993991Y-16766222D02*
X11993991Y-16785270D01*
X11993991Y-16785270D02*
X11898753Y-16804317D01*
X12070182Y-16861460D02*
X12089230Y-16870984D01*
X12089230Y-16870984D02*
X12127325Y-16870984D01*
X12127325Y-16870984D02*
X12146372Y-16861460D01*
X12146372Y-16861460D02*
X12155896Y-16842412D01*
X12155896Y-16842412D02*
X12155896Y-16832889D01*
X12155896Y-16832889D02*
X12146372Y-16813841D01*
X12146372Y-16813841D02*
X12127325Y-16804317D01*
X12127325Y-16804317D02*
X12098753Y-16804317D01*
X12098753Y-16804317D02*
X12079706Y-16794793D01*
X12079706Y-16794793D02*
X12070182Y-16775746D01*
X12070182Y-16775746D02*
X12070182Y-16766222D01*
X12070182Y-16766222D02*
X12079706Y-16747174D01*
X12079706Y-16747174D02*
X12098753Y-16737650D01*
X12098753Y-16737650D02*
X12127325Y-16737650D01*
X12127325Y-16737650D02*
X12146372Y-16747174D01*
X12393992Y-16794793D02*
X12546373Y-16794793D01*
X12470182Y-16870984D02*
X12470182Y-16718603D01*
X12879706Y-16737650D02*
X12879706Y-16870984D01*
X12832087Y-16661460D02*
X12784468Y-16804317D01*
X12784468Y-16804317D02*
X12908277Y-16804317D01*
X13127325Y-16861460D02*
X13146373Y-16870984D01*
X13146373Y-16870984D02*
X13184468Y-16870984D01*
X13184468Y-16870984D02*
X13203515Y-16861460D01*
X13203515Y-16861460D02*
X13213039Y-16842412D01*
X13213039Y-16842412D02*
X13213039Y-16832889D01*
X13213039Y-16832889D02*
X13203515Y-16813841D01*
X13203515Y-16813841D02*
X13184468Y-16804317D01*
X13184468Y-16804317D02*
X13155896Y-16804317D01*
X13155896Y-16804317D02*
X13136849Y-16794793D01*
X13136849Y-16794793D02*
X13127325Y-16775746D01*
X13127325Y-16775746D02*
X13127325Y-16766222D01*
X13127325Y-16766222D02*
X13136849Y-16747174D01*
X13136849Y-16747174D02*
X13155896Y-16737650D01*
X13155896Y-16737650D02*
X13184468Y-16737650D01*
X13184468Y-16737650D02*
X13203515Y-16747174D01*
X13327325Y-16870984D02*
X13308277Y-16861460D01*
X13308277Y-16861460D02*
X13298754Y-16842412D01*
X13298754Y-16842412D02*
X13298754Y-16670984D01*
X13432087Y-16870984D02*
X13413039Y-16861460D01*
X13413039Y-16861460D02*
X13403515Y-16851936D01*
X13403515Y-16851936D02*
X13393992Y-16832889D01*
X13393992Y-16832889D02*
X13393992Y-16775746D01*
X13393992Y-16775746D02*
X13403515Y-16756698D01*
X13403515Y-16756698D02*
X13413039Y-16747174D01*
X13413039Y-16747174D02*
X13432087Y-16737650D01*
X13432087Y-16737650D02*
X13460658Y-16737650D01*
X13460658Y-16737650D02*
X13479706Y-16747174D01*
X13479706Y-16747174D02*
X13489230Y-16756698D01*
X13489230Y-16756698D02*
X13498754Y-16775746D01*
X13498754Y-16775746D02*
X13498754Y-16832889D01*
X13498754Y-16832889D02*
X13489230Y-16851936D01*
X13489230Y-16851936D02*
X13479706Y-16861460D01*
X13479706Y-16861460D02*
X13460658Y-16870984D01*
X13460658Y-16870984D02*
X13432087Y-16870984D01*
X13555896Y-16737650D02*
X13632087Y-16737650D01*
X13584468Y-16670984D02*
X13584468Y-16842412D01*
X13584468Y-16842412D02*
X13593992Y-16861460D01*
X13593992Y-16861460D02*
X13613039Y-16870984D01*
X13613039Y-16870984D02*
X13632087Y-16870984D01*
X13689230Y-16861460D02*
X13708277Y-16870984D01*
X13708277Y-16870984D02*
X13746373Y-16870984D01*
X13746373Y-16870984D02*
X13765420Y-16861460D01*
X13765420Y-16861460D02*
X13774944Y-16842412D01*
X13774944Y-16842412D02*
X13774944Y-16832889D01*
X13774944Y-16832889D02*
X13765420Y-16813841D01*
X13765420Y-16813841D02*
X13746373Y-16804317D01*
X13746373Y-16804317D02*
X13717801Y-16804317D01*
X13717801Y-16804317D02*
X13698754Y-16794793D01*
X13698754Y-16794793D02*
X13689230Y-16775746D01*
X13689230Y-16775746D02*
X13689230Y-16766222D01*
X13689230Y-16766222D02*
X13698754Y-16747174D01*
X13698754Y-16747174D02*
X13717801Y-16737650D01*
X13717801Y-16737650D02*
X13746373Y-16737650D01*
X13746373Y-16737650D02*
X13765420Y-16747174D01*
X13841611Y-16947174D02*
X13851135Y-16937650D01*
X13851135Y-16937650D02*
X13870182Y-16909079D01*
X13870182Y-16909079D02*
X13879706Y-16890031D01*
X13879706Y-16890031D02*
X13889230Y-16861460D01*
X13889230Y-16861460D02*
X13898754Y-16813841D01*
X13898754Y-16813841D02*
X13898754Y-16775746D01*
X13898754Y-16775746D02*
X13889230Y-16728127D01*
X13889230Y-16728127D02*
X13879706Y-16699555D01*
X13879706Y-16699555D02*
X13870182Y-16680508D01*
X13870182Y-16680508D02*
X13851135Y-16651936D01*
X13851135Y-16651936D02*
X13841611Y-16642412D01*
D12*
X7397500Y-17093500D02*
X7447500Y-17043500D01*
X7397500Y-16993500D01*
X7347500Y-17043500D01*
X7397500Y-17093500D01*
D11*
X7813039Y-17134984D02*
X7698753Y-17134984D01*
X7755896Y-17134984D02*
X7755896Y-16934984D01*
X7755896Y-16934984D02*
X7736848Y-16963555D01*
X7736848Y-16963555D02*
X7717801Y-16982603D01*
X7717801Y-16982603D02*
X7698753Y-16992127D01*
X7898753Y-17115936D02*
X7908277Y-17125460D01*
X7908277Y-17125460D02*
X7898753Y-17134984D01*
X7898753Y-17134984D02*
X7889229Y-17125460D01*
X7889229Y-17125460D02*
X7898753Y-17115936D01*
X7898753Y-17115936D02*
X7898753Y-17134984D01*
X8032086Y-16934984D02*
X8051134Y-16934984D01*
X8051134Y-16934984D02*
X8070182Y-16944508D01*
X8070182Y-16944508D02*
X8079705Y-16954031D01*
X8079705Y-16954031D02*
X8089229Y-16973079D01*
X8089229Y-16973079D02*
X8098753Y-17011174D01*
X8098753Y-17011174D02*
X8098753Y-17058793D01*
X8098753Y-17058793D02*
X8089229Y-17096889D01*
X8089229Y-17096889D02*
X8079705Y-17115936D01*
X8079705Y-17115936D02*
X8070182Y-17125460D01*
X8070182Y-17125460D02*
X8051134Y-17134984D01*
X8051134Y-17134984D02*
X8032086Y-17134984D01*
X8032086Y-17134984D02*
X8013039Y-17125460D01*
X8013039Y-17125460D02*
X8003515Y-17115936D01*
X8003515Y-17115936D02*
X7993991Y-17096889D01*
X7993991Y-17096889D02*
X7984467Y-17058793D01*
X7984467Y-17058793D02*
X7984467Y-17011174D01*
X7984467Y-17011174D02*
X7993991Y-16973079D01*
X7993991Y-16973079D02*
X8003515Y-16954031D01*
X8003515Y-16954031D02*
X8013039Y-16944508D01*
X8013039Y-16944508D02*
X8032086Y-16934984D01*
X8222562Y-16934984D02*
X8241610Y-16934984D01*
X8241610Y-16934984D02*
X8260658Y-16944508D01*
X8260658Y-16944508D02*
X8270182Y-16954031D01*
X8270182Y-16954031D02*
X8279705Y-16973079D01*
X8279705Y-16973079D02*
X8289229Y-17011174D01*
X8289229Y-17011174D02*
X8289229Y-17058793D01*
X8289229Y-17058793D02*
X8279705Y-17096889D01*
X8279705Y-17096889D02*
X8270182Y-17115936D01*
X8270182Y-17115936D02*
X8260658Y-17125460D01*
X8260658Y-17125460D02*
X8241610Y-17134984D01*
X8241610Y-17134984D02*
X8222562Y-17134984D01*
X8222562Y-17134984D02*
X8203515Y-17125460D01*
X8203515Y-17125460D02*
X8193991Y-17115936D01*
X8193991Y-17115936D02*
X8184467Y-17096889D01*
X8184467Y-17096889D02*
X8174943Y-17058793D01*
X8174943Y-17058793D02*
X8174943Y-17011174D01*
X8174943Y-17011174D02*
X8184467Y-16973079D01*
X8184467Y-16973079D02*
X8193991Y-16954031D01*
X8193991Y-16954031D02*
X8203515Y-16944508D01*
X8203515Y-16944508D02*
X8222562Y-16934984D01*
X8413039Y-16934984D02*
X8432086Y-16934984D01*
X8432086Y-16934984D02*
X8451134Y-16944508D01*
X8451134Y-16944508D02*
X8460658Y-16954031D01*
X8460658Y-16954031D02*
X8470182Y-16973079D01*
X8470182Y-16973079D02*
X8479705Y-17011174D01*
X8479705Y-17011174D02*
X8479705Y-17058793D01*
X8479705Y-17058793D02*
X8470182Y-17096889D01*
X8470182Y-17096889D02*
X8460658Y-17115936D01*
X8460658Y-17115936D02*
X8451134Y-17125460D01*
X8451134Y-17125460D02*
X8432086Y-17134984D01*
X8432086Y-17134984D02*
X8413039Y-17134984D01*
X8413039Y-17134984D02*
X8393991Y-17125460D01*
X8393991Y-17125460D02*
X8384467Y-17115936D01*
X8384467Y-17115936D02*
X8374943Y-17096889D01*
X8374943Y-17096889D02*
X8365420Y-17058793D01*
X8365420Y-17058793D02*
X8365420Y-17011174D01*
X8365420Y-17011174D02*
X8374943Y-16973079D01*
X8374943Y-16973079D02*
X8384467Y-16954031D01*
X8384467Y-16954031D02*
X8393991Y-16944508D01*
X8393991Y-16944508D02*
X8413039Y-16934984D01*
X8565420Y-17134984D02*
X8565420Y-17001650D01*
X8565420Y-17020698D02*
X8574944Y-17011174D01*
X8574944Y-17011174D02*
X8593991Y-17001650D01*
X8593991Y-17001650D02*
X8622563Y-17001650D01*
X8622563Y-17001650D02*
X8641610Y-17011174D01*
X8641610Y-17011174D02*
X8651134Y-17030222D01*
X8651134Y-17030222D02*
X8651134Y-17134984D01*
X8651134Y-17030222D02*
X8660658Y-17011174D01*
X8660658Y-17011174D02*
X8679705Y-17001650D01*
X8679705Y-17001650D02*
X8708277Y-17001650D01*
X8708277Y-17001650D02*
X8727325Y-17011174D01*
X8727325Y-17011174D02*
X8736848Y-17030222D01*
X8736848Y-17030222D02*
X8736848Y-17134984D01*
X8832086Y-17134984D02*
X8832086Y-17001650D01*
X8832086Y-17020698D02*
X8841610Y-17011174D01*
X8841610Y-17011174D02*
X8860658Y-17001650D01*
X8860658Y-17001650D02*
X8889229Y-17001650D01*
X8889229Y-17001650D02*
X8908277Y-17011174D01*
X8908277Y-17011174D02*
X8917801Y-17030222D01*
X8917801Y-17030222D02*
X8917801Y-17134984D01*
X8917801Y-17030222D02*
X8927325Y-17011174D01*
X8927325Y-17011174D02*
X8946372Y-17001650D01*
X8946372Y-17001650D02*
X8974944Y-17001650D01*
X8974944Y-17001650D02*
X8993991Y-17011174D01*
X8993991Y-17011174D02*
X9003515Y-17030222D01*
X9003515Y-17030222D02*
X9003515Y-17134984D01*
X9393991Y-16925460D02*
X9222563Y-17182603D01*
X9651134Y-16934984D02*
X9670182Y-16934984D01*
X9670182Y-16934984D02*
X9689229Y-16944508D01*
X9689229Y-16944508D02*
X9698753Y-16954031D01*
X9698753Y-16954031D02*
X9708277Y-16973079D01*
X9708277Y-16973079D02*
X9717801Y-17011174D01*
X9717801Y-17011174D02*
X9717801Y-17058793D01*
X9717801Y-17058793D02*
X9708277Y-17096889D01*
X9708277Y-17096889D02*
X9698753Y-17115936D01*
X9698753Y-17115936D02*
X9689229Y-17125460D01*
X9689229Y-17125460D02*
X9670182Y-17134984D01*
X9670182Y-17134984D02*
X9651134Y-17134984D01*
X9651134Y-17134984D02*
X9632087Y-17125460D01*
X9632087Y-17125460D02*
X9622563Y-17115936D01*
X9622563Y-17115936D02*
X9613039Y-17096889D01*
X9613039Y-17096889D02*
X9603515Y-17058793D01*
X9603515Y-17058793D02*
X9603515Y-17011174D01*
X9603515Y-17011174D02*
X9613039Y-16973079D01*
X9613039Y-16973079D02*
X9622563Y-16954031D01*
X9622563Y-16954031D02*
X9632087Y-16944508D01*
X9632087Y-16944508D02*
X9651134Y-16934984D01*
X9803515Y-17115936D02*
X9813039Y-17125460D01*
X9813039Y-17125460D02*
X9803515Y-17134984D01*
X9803515Y-17134984D02*
X9793991Y-17125460D01*
X9793991Y-17125460D02*
X9803515Y-17115936D01*
X9803515Y-17115936D02*
X9803515Y-17134984D01*
X9936848Y-16934984D02*
X9955896Y-16934984D01*
X9955896Y-16934984D02*
X9974944Y-16944508D01*
X9974944Y-16944508D02*
X9984468Y-16954031D01*
X9984468Y-16954031D02*
X9993991Y-16973079D01*
X9993991Y-16973079D02*
X10003515Y-17011174D01*
X10003515Y-17011174D02*
X10003515Y-17058793D01*
X10003515Y-17058793D02*
X9993991Y-17096889D01*
X9993991Y-17096889D02*
X9984468Y-17115936D01*
X9984468Y-17115936D02*
X9974944Y-17125460D01*
X9974944Y-17125460D02*
X9955896Y-17134984D01*
X9955896Y-17134984D02*
X9936848Y-17134984D01*
X9936848Y-17134984D02*
X9917801Y-17125460D01*
X9917801Y-17125460D02*
X9908277Y-17115936D01*
X9908277Y-17115936D02*
X9898753Y-17096889D01*
X9898753Y-17096889D02*
X9889229Y-17058793D01*
X9889229Y-17058793D02*
X9889229Y-17011174D01*
X9889229Y-17011174D02*
X9898753Y-16973079D01*
X9898753Y-16973079D02*
X9908277Y-16954031D01*
X9908277Y-16954031D02*
X9917801Y-16944508D01*
X9917801Y-16944508D02*
X9936848Y-16934984D01*
X10070182Y-16934984D02*
X10193991Y-16934984D01*
X10193991Y-16934984D02*
X10127325Y-17011174D01*
X10127325Y-17011174D02*
X10155896Y-17011174D01*
X10155896Y-17011174D02*
X10174944Y-17020698D01*
X10174944Y-17020698D02*
X10184468Y-17030222D01*
X10184468Y-17030222D02*
X10193991Y-17049270D01*
X10193991Y-17049270D02*
X10193991Y-17096889D01*
X10193991Y-17096889D02*
X10184468Y-17115936D01*
X10184468Y-17115936D02*
X10174944Y-17125460D01*
X10174944Y-17125460D02*
X10155896Y-17134984D01*
X10155896Y-17134984D02*
X10098753Y-17134984D01*
X10098753Y-17134984D02*
X10079706Y-17125460D01*
X10079706Y-17125460D02*
X10070182Y-17115936D01*
X10289229Y-17134984D02*
X10327325Y-17134984D01*
X10327325Y-17134984D02*
X10346372Y-17125460D01*
X10346372Y-17125460D02*
X10355896Y-17115936D01*
X10355896Y-17115936D02*
X10374944Y-17087365D01*
X10374944Y-17087365D02*
X10384468Y-17049270D01*
X10384468Y-17049270D02*
X10384468Y-16973079D01*
X10384468Y-16973079D02*
X10374944Y-16954031D01*
X10374944Y-16954031D02*
X10365420Y-16944508D01*
X10365420Y-16944508D02*
X10346372Y-16934984D01*
X10346372Y-16934984D02*
X10308277Y-16934984D01*
X10308277Y-16934984D02*
X10289229Y-16944508D01*
X10289229Y-16944508D02*
X10279706Y-16954031D01*
X10279706Y-16954031D02*
X10270182Y-16973079D01*
X10270182Y-16973079D02*
X10270182Y-17020698D01*
X10270182Y-17020698D02*
X10279706Y-17039746D01*
X10279706Y-17039746D02*
X10289229Y-17049270D01*
X10289229Y-17049270D02*
X10308277Y-17058793D01*
X10308277Y-17058793D02*
X10346372Y-17058793D01*
X10346372Y-17058793D02*
X10365420Y-17049270D01*
X10365420Y-17049270D02*
X10374944Y-17039746D01*
X10374944Y-17039746D02*
X10384468Y-17020698D01*
X10555896Y-17001650D02*
X10555896Y-17134984D01*
X10508277Y-16925460D02*
X10460658Y-17068317D01*
X10460658Y-17068317D02*
X10584468Y-17068317D01*
X10651134Y-16934984D02*
X10651134Y-16973079D01*
X10727325Y-16934984D02*
X10727325Y-16973079D01*
X11022563Y-17211174D02*
X11013039Y-17201650D01*
X11013039Y-17201650D02*
X10993991Y-17173079D01*
X10993991Y-17173079D02*
X10984468Y-17154031D01*
X10984468Y-17154031D02*
X10974944Y-17125460D01*
X10974944Y-17125460D02*
X10965420Y-17077841D01*
X10965420Y-17077841D02*
X10965420Y-17039746D01*
X10965420Y-17039746D02*
X10974944Y-16992127D01*
X10974944Y-16992127D02*
X10984468Y-16963555D01*
X10984468Y-16963555D02*
X10993991Y-16944508D01*
X10993991Y-16944508D02*
X11013039Y-16915936D01*
X11013039Y-16915936D02*
X11022563Y-16906412D01*
X11203515Y-17134984D02*
X11089230Y-17134984D01*
X11146372Y-17134984D02*
X11146372Y-16934984D01*
X11146372Y-16934984D02*
X11127325Y-16963555D01*
X11127325Y-16963555D02*
X11108277Y-16982603D01*
X11108277Y-16982603D02*
X11089230Y-16992127D01*
X11270182Y-16934984D02*
X11393991Y-16934984D01*
X11393991Y-16934984D02*
X11327325Y-17011174D01*
X11327325Y-17011174D02*
X11355896Y-17011174D01*
X11355896Y-17011174D02*
X11374944Y-17020698D01*
X11374944Y-17020698D02*
X11384468Y-17030222D01*
X11384468Y-17030222D02*
X11393991Y-17049270D01*
X11393991Y-17049270D02*
X11393991Y-17096889D01*
X11393991Y-17096889D02*
X11384468Y-17115936D01*
X11384468Y-17115936D02*
X11374944Y-17125460D01*
X11374944Y-17125460D02*
X11355896Y-17134984D01*
X11355896Y-17134984D02*
X11298753Y-17134984D01*
X11298753Y-17134984D02*
X11279706Y-17125460D01*
X11279706Y-17125460D02*
X11270182Y-17115936D01*
X11632087Y-17134984D02*
X11632087Y-16934984D01*
X11717801Y-17134984D02*
X11717801Y-17030222D01*
X11717801Y-17030222D02*
X11708277Y-17011174D01*
X11708277Y-17011174D02*
X11689230Y-17001650D01*
X11689230Y-17001650D02*
X11660658Y-17001650D01*
X11660658Y-17001650D02*
X11641610Y-17011174D01*
X11641610Y-17011174D02*
X11632087Y-17020698D01*
X11841610Y-17134984D02*
X11822563Y-17125460D01*
X11822563Y-17125460D02*
X11813039Y-17115936D01*
X11813039Y-17115936D02*
X11803515Y-17096889D01*
X11803515Y-17096889D02*
X11803515Y-17039746D01*
X11803515Y-17039746D02*
X11813039Y-17020698D01*
X11813039Y-17020698D02*
X11822563Y-17011174D01*
X11822563Y-17011174D02*
X11841610Y-17001650D01*
X11841610Y-17001650D02*
X11870182Y-17001650D01*
X11870182Y-17001650D02*
X11889230Y-17011174D01*
X11889230Y-17011174D02*
X11898753Y-17020698D01*
X11898753Y-17020698D02*
X11908277Y-17039746D01*
X11908277Y-17039746D02*
X11908277Y-17096889D01*
X11908277Y-17096889D02*
X11898753Y-17115936D01*
X11898753Y-17115936D02*
X11889230Y-17125460D01*
X11889230Y-17125460D02*
X11870182Y-17134984D01*
X11870182Y-17134984D02*
X11841610Y-17134984D01*
X12022563Y-17134984D02*
X12003515Y-17125460D01*
X12003515Y-17125460D02*
X11993991Y-17106412D01*
X11993991Y-17106412D02*
X11993991Y-16934984D01*
X12174944Y-17125460D02*
X12155896Y-17134984D01*
X12155896Y-17134984D02*
X12117801Y-17134984D01*
X12117801Y-17134984D02*
X12098753Y-17125460D01*
X12098753Y-17125460D02*
X12089230Y-17106412D01*
X12089230Y-17106412D02*
X12089230Y-17030222D01*
X12089230Y-17030222D02*
X12098753Y-17011174D01*
X12098753Y-17011174D02*
X12117801Y-17001650D01*
X12117801Y-17001650D02*
X12155896Y-17001650D01*
X12155896Y-17001650D02*
X12174944Y-17011174D01*
X12174944Y-17011174D02*
X12184468Y-17030222D01*
X12184468Y-17030222D02*
X12184468Y-17049270D01*
X12184468Y-17049270D02*
X12089230Y-17068317D01*
X12260658Y-17125460D02*
X12279706Y-17134984D01*
X12279706Y-17134984D02*
X12317801Y-17134984D01*
X12317801Y-17134984D02*
X12336849Y-17125460D01*
X12336849Y-17125460D02*
X12346372Y-17106412D01*
X12346372Y-17106412D02*
X12346372Y-17096889D01*
X12346372Y-17096889D02*
X12336849Y-17077841D01*
X12336849Y-17077841D02*
X12317801Y-17068317D01*
X12317801Y-17068317D02*
X12289230Y-17068317D01*
X12289230Y-17068317D02*
X12270182Y-17058793D01*
X12270182Y-17058793D02*
X12260658Y-17039746D01*
X12260658Y-17039746D02*
X12260658Y-17030222D01*
X12260658Y-17030222D02*
X12270182Y-17011174D01*
X12270182Y-17011174D02*
X12289230Y-17001650D01*
X12289230Y-17001650D02*
X12317801Y-17001650D01*
X12317801Y-17001650D02*
X12336849Y-17011174D01*
X12413039Y-17211174D02*
X12422563Y-17201650D01*
X12422563Y-17201650D02*
X12441611Y-17173079D01*
X12441611Y-17173079D02*
X12451134Y-17154031D01*
X12451134Y-17154031D02*
X12460658Y-17125460D01*
X12460658Y-17125460D02*
X12470182Y-17077841D01*
X12470182Y-17077841D02*
X12470182Y-17039746D01*
X12470182Y-17039746D02*
X12460658Y-16992127D01*
X12460658Y-16992127D02*
X12451134Y-16963555D01*
X12451134Y-16963555D02*
X12441611Y-16944508D01*
X12441611Y-16944508D02*
X12422563Y-16915936D01*
X12422563Y-16915936D02*
X12413039Y-16906412D01*
X7247500Y-17207500D02*
X7447500Y-17407500D01*
X7447500Y-17207500D02*
X7247500Y-17407500D01*
X7447500Y-17307500D02*
G75*
G02*
X7247500Y-17307500I-100000J0D01*
G01*
X7247500Y-17307500D02*
G75*
G02*
X7447500Y-17307500I100000J0D01*
G01*
X7698753Y-17218031D02*
X7708277Y-17208508D01*
X7708277Y-17208508D02*
X7727324Y-17198984D01*
X7727324Y-17198984D02*
X7774943Y-17198984D01*
X7774943Y-17198984D02*
X7793991Y-17208508D01*
X7793991Y-17208508D02*
X7803515Y-17218031D01*
X7803515Y-17218031D02*
X7813039Y-17237079D01*
X7813039Y-17237079D02*
X7813039Y-17256127D01*
X7813039Y-17256127D02*
X7803515Y-17284698D01*
X7803515Y-17284698D02*
X7689229Y-17398984D01*
X7689229Y-17398984D02*
X7813039Y-17398984D01*
X7898753Y-17379936D02*
X7908277Y-17389460D01*
X7908277Y-17389460D02*
X7898753Y-17398984D01*
X7898753Y-17398984D02*
X7889229Y-17389460D01*
X7889229Y-17389460D02*
X7898753Y-17379936D01*
X7898753Y-17379936D02*
X7898753Y-17398984D01*
X8098753Y-17398984D02*
X7984467Y-17398984D01*
X8041610Y-17398984D02*
X8041610Y-17198984D01*
X8041610Y-17198984D02*
X8022562Y-17227555D01*
X8022562Y-17227555D02*
X8003515Y-17246603D01*
X8003515Y-17246603D02*
X7984467Y-17256127D01*
X8222562Y-17198984D02*
X8241610Y-17198984D01*
X8241610Y-17198984D02*
X8260658Y-17208508D01*
X8260658Y-17208508D02*
X8270182Y-17218031D01*
X8270182Y-17218031D02*
X8279705Y-17237079D01*
X8279705Y-17237079D02*
X8289229Y-17275174D01*
X8289229Y-17275174D02*
X8289229Y-17322793D01*
X8289229Y-17322793D02*
X8279705Y-17360889D01*
X8279705Y-17360889D02*
X8270182Y-17379936D01*
X8270182Y-17379936D02*
X8260658Y-17389460D01*
X8260658Y-17389460D02*
X8241610Y-17398984D01*
X8241610Y-17398984D02*
X8222562Y-17398984D01*
X8222562Y-17398984D02*
X8203515Y-17389460D01*
X8203515Y-17389460D02*
X8193991Y-17379936D01*
X8193991Y-17379936D02*
X8184467Y-17360889D01*
X8184467Y-17360889D02*
X8174943Y-17322793D01*
X8174943Y-17322793D02*
X8174943Y-17275174D01*
X8174943Y-17275174D02*
X8184467Y-17237079D01*
X8184467Y-17237079D02*
X8193991Y-17218031D01*
X8193991Y-17218031D02*
X8203515Y-17208508D01*
X8203515Y-17208508D02*
X8222562Y-17198984D01*
X8413039Y-17198984D02*
X8432086Y-17198984D01*
X8432086Y-17198984D02*
X8451134Y-17208508D01*
X8451134Y-17208508D02*
X8460658Y-17218031D01*
X8460658Y-17218031D02*
X8470182Y-17237079D01*
X8470182Y-17237079D02*
X8479705Y-17275174D01*
X8479705Y-17275174D02*
X8479705Y-17322793D01*
X8479705Y-17322793D02*
X8470182Y-17360889D01*
X8470182Y-17360889D02*
X8460658Y-17379936D01*
X8460658Y-17379936D02*
X8451134Y-17389460D01*
X8451134Y-17389460D02*
X8432086Y-17398984D01*
X8432086Y-17398984D02*
X8413039Y-17398984D01*
X8413039Y-17398984D02*
X8393991Y-17389460D01*
X8393991Y-17389460D02*
X8384467Y-17379936D01*
X8384467Y-17379936D02*
X8374943Y-17360889D01*
X8374943Y-17360889D02*
X8365420Y-17322793D01*
X8365420Y-17322793D02*
X8365420Y-17275174D01*
X8365420Y-17275174D02*
X8374943Y-17237079D01*
X8374943Y-17237079D02*
X8384467Y-17218031D01*
X8384467Y-17218031D02*
X8393991Y-17208508D01*
X8393991Y-17208508D02*
X8413039Y-17198984D01*
X8565420Y-17398984D02*
X8565420Y-17265650D01*
X8565420Y-17284698D02*
X8574944Y-17275174D01*
X8574944Y-17275174D02*
X8593991Y-17265650D01*
X8593991Y-17265650D02*
X8622563Y-17265650D01*
X8622563Y-17265650D02*
X8641610Y-17275174D01*
X8641610Y-17275174D02*
X8651134Y-17294222D01*
X8651134Y-17294222D02*
X8651134Y-17398984D01*
X8651134Y-17294222D02*
X8660658Y-17275174D01*
X8660658Y-17275174D02*
X8679705Y-17265650D01*
X8679705Y-17265650D02*
X8708277Y-17265650D01*
X8708277Y-17265650D02*
X8727325Y-17275174D01*
X8727325Y-17275174D02*
X8736848Y-17294222D01*
X8736848Y-17294222D02*
X8736848Y-17398984D01*
X8832086Y-17398984D02*
X8832086Y-17265650D01*
X8832086Y-17284698D02*
X8841610Y-17275174D01*
X8841610Y-17275174D02*
X8860658Y-17265650D01*
X8860658Y-17265650D02*
X8889229Y-17265650D01*
X8889229Y-17265650D02*
X8908277Y-17275174D01*
X8908277Y-17275174D02*
X8917801Y-17294222D01*
X8917801Y-17294222D02*
X8917801Y-17398984D01*
X8917801Y-17294222D02*
X8927325Y-17275174D01*
X8927325Y-17275174D02*
X8946372Y-17265650D01*
X8946372Y-17265650D02*
X8974944Y-17265650D01*
X8974944Y-17265650D02*
X8993991Y-17275174D01*
X8993991Y-17275174D02*
X9003515Y-17294222D01*
X9003515Y-17294222D02*
X9003515Y-17398984D01*
X9393991Y-17189460D02*
X9222563Y-17446603D01*
X9651134Y-17198984D02*
X9670182Y-17198984D01*
X9670182Y-17198984D02*
X9689229Y-17208508D01*
X9689229Y-17208508D02*
X9698753Y-17218031D01*
X9698753Y-17218031D02*
X9708277Y-17237079D01*
X9708277Y-17237079D02*
X9717801Y-17275174D01*
X9717801Y-17275174D02*
X9717801Y-17322793D01*
X9717801Y-17322793D02*
X9708277Y-17360889D01*
X9708277Y-17360889D02*
X9698753Y-17379936D01*
X9698753Y-17379936D02*
X9689229Y-17389460D01*
X9689229Y-17389460D02*
X9670182Y-17398984D01*
X9670182Y-17398984D02*
X9651134Y-17398984D01*
X9651134Y-17398984D02*
X9632087Y-17389460D01*
X9632087Y-17389460D02*
X9622563Y-17379936D01*
X9622563Y-17379936D02*
X9613039Y-17360889D01*
X9613039Y-17360889D02*
X9603515Y-17322793D01*
X9603515Y-17322793D02*
X9603515Y-17275174D01*
X9603515Y-17275174D02*
X9613039Y-17237079D01*
X9613039Y-17237079D02*
X9622563Y-17218031D01*
X9622563Y-17218031D02*
X9632087Y-17208508D01*
X9632087Y-17208508D02*
X9651134Y-17198984D01*
X9803515Y-17379936D02*
X9813039Y-17389460D01*
X9813039Y-17389460D02*
X9803515Y-17398984D01*
X9803515Y-17398984D02*
X9793991Y-17389460D01*
X9793991Y-17389460D02*
X9803515Y-17379936D01*
X9803515Y-17379936D02*
X9803515Y-17398984D01*
X9936848Y-17198984D02*
X9955896Y-17198984D01*
X9955896Y-17198984D02*
X9974944Y-17208508D01*
X9974944Y-17208508D02*
X9984468Y-17218031D01*
X9984468Y-17218031D02*
X9993991Y-17237079D01*
X9993991Y-17237079D02*
X10003515Y-17275174D01*
X10003515Y-17275174D02*
X10003515Y-17322793D01*
X10003515Y-17322793D02*
X9993991Y-17360889D01*
X9993991Y-17360889D02*
X9984468Y-17379936D01*
X9984468Y-17379936D02*
X9974944Y-17389460D01*
X9974944Y-17389460D02*
X9955896Y-17398984D01*
X9955896Y-17398984D02*
X9936848Y-17398984D01*
X9936848Y-17398984D02*
X9917801Y-17389460D01*
X9917801Y-17389460D02*
X9908277Y-17379936D01*
X9908277Y-17379936D02*
X9898753Y-17360889D01*
X9898753Y-17360889D02*
X9889229Y-17322793D01*
X9889229Y-17322793D02*
X9889229Y-17275174D01*
X9889229Y-17275174D02*
X9898753Y-17237079D01*
X9898753Y-17237079D02*
X9908277Y-17218031D01*
X9908277Y-17218031D02*
X9917801Y-17208508D01*
X9917801Y-17208508D02*
X9936848Y-17198984D01*
X10117801Y-17284698D02*
X10098753Y-17275174D01*
X10098753Y-17275174D02*
X10089229Y-17265650D01*
X10089229Y-17265650D02*
X10079706Y-17246603D01*
X10079706Y-17246603D02*
X10079706Y-17237079D01*
X10079706Y-17237079D02*
X10089229Y-17218031D01*
X10089229Y-17218031D02*
X10098753Y-17208508D01*
X10098753Y-17208508D02*
X10117801Y-17198984D01*
X10117801Y-17198984D02*
X10155896Y-17198984D01*
X10155896Y-17198984D02*
X10174944Y-17208508D01*
X10174944Y-17208508D02*
X10184468Y-17218031D01*
X10184468Y-17218031D02*
X10193991Y-17237079D01*
X10193991Y-17237079D02*
X10193991Y-17246603D01*
X10193991Y-17246603D02*
X10184468Y-17265650D01*
X10184468Y-17265650D02*
X10174944Y-17275174D01*
X10174944Y-17275174D02*
X10155896Y-17284698D01*
X10155896Y-17284698D02*
X10117801Y-17284698D01*
X10117801Y-17284698D02*
X10098753Y-17294222D01*
X10098753Y-17294222D02*
X10089229Y-17303746D01*
X10089229Y-17303746D02*
X10079706Y-17322793D01*
X10079706Y-17322793D02*
X10079706Y-17360889D01*
X10079706Y-17360889D02*
X10089229Y-17379936D01*
X10089229Y-17379936D02*
X10098753Y-17389460D01*
X10098753Y-17389460D02*
X10117801Y-17398984D01*
X10117801Y-17398984D02*
X10155896Y-17398984D01*
X10155896Y-17398984D02*
X10174944Y-17389460D01*
X10174944Y-17389460D02*
X10184468Y-17379936D01*
X10184468Y-17379936D02*
X10193991Y-17360889D01*
X10193991Y-17360889D02*
X10193991Y-17322793D01*
X10193991Y-17322793D02*
X10184468Y-17303746D01*
X10184468Y-17303746D02*
X10174944Y-17294222D01*
X10174944Y-17294222D02*
X10155896Y-17284698D01*
X10270182Y-17218031D02*
X10279706Y-17208508D01*
X10279706Y-17208508D02*
X10298753Y-17198984D01*
X10298753Y-17198984D02*
X10346372Y-17198984D01*
X10346372Y-17198984D02*
X10365420Y-17208508D01*
X10365420Y-17208508D02*
X10374944Y-17218031D01*
X10374944Y-17218031D02*
X10384468Y-17237079D01*
X10384468Y-17237079D02*
X10384468Y-17256127D01*
X10384468Y-17256127D02*
X10374944Y-17284698D01*
X10374944Y-17284698D02*
X10260658Y-17398984D01*
X10260658Y-17398984D02*
X10384468Y-17398984D01*
X10451134Y-17198984D02*
X10584468Y-17198984D01*
X10584468Y-17198984D02*
X10498753Y-17398984D01*
X10651134Y-17198984D02*
X10651134Y-17237079D01*
X10727325Y-17198984D02*
X10727325Y-17237079D01*
X11022563Y-17475174D02*
X11013039Y-17465650D01*
X11013039Y-17465650D02*
X10993991Y-17437079D01*
X10993991Y-17437079D02*
X10984468Y-17418031D01*
X10984468Y-17418031D02*
X10974944Y-17389460D01*
X10974944Y-17389460D02*
X10965420Y-17341841D01*
X10965420Y-17341841D02*
X10965420Y-17303746D01*
X10965420Y-17303746D02*
X10974944Y-17256127D01*
X10974944Y-17256127D02*
X10984468Y-17227555D01*
X10984468Y-17227555D02*
X10993991Y-17208508D01*
X10993991Y-17208508D02*
X11013039Y-17179936D01*
X11013039Y-17179936D02*
X11022563Y-17170412D01*
X11089230Y-17218031D02*
X11098753Y-17208508D01*
X11098753Y-17208508D02*
X11117801Y-17198984D01*
X11117801Y-17198984D02*
X11165420Y-17198984D01*
X11165420Y-17198984D02*
X11184468Y-17208508D01*
X11184468Y-17208508D02*
X11193991Y-17218031D01*
X11193991Y-17218031D02*
X11203515Y-17237079D01*
X11203515Y-17237079D02*
X11203515Y-17256127D01*
X11203515Y-17256127D02*
X11193991Y-17284698D01*
X11193991Y-17284698D02*
X11079706Y-17398984D01*
X11079706Y-17398984D02*
X11203515Y-17398984D01*
X11441610Y-17398984D02*
X11441610Y-17198984D01*
X11527325Y-17398984D02*
X11527325Y-17294222D01*
X11527325Y-17294222D02*
X11517801Y-17275174D01*
X11517801Y-17275174D02*
X11498753Y-17265650D01*
X11498753Y-17265650D02*
X11470182Y-17265650D01*
X11470182Y-17265650D02*
X11451134Y-17275174D01*
X11451134Y-17275174D02*
X11441610Y-17284698D01*
X11651134Y-17398984D02*
X11632087Y-17389460D01*
X11632087Y-17389460D02*
X11622563Y-17379936D01*
X11622563Y-17379936D02*
X11613039Y-17360889D01*
X11613039Y-17360889D02*
X11613039Y-17303746D01*
X11613039Y-17303746D02*
X11622563Y-17284698D01*
X11622563Y-17284698D02*
X11632087Y-17275174D01*
X11632087Y-17275174D02*
X11651134Y-17265650D01*
X11651134Y-17265650D02*
X11679706Y-17265650D01*
X11679706Y-17265650D02*
X11698753Y-17275174D01*
X11698753Y-17275174D02*
X11708277Y-17284698D01*
X11708277Y-17284698D02*
X11717801Y-17303746D01*
X11717801Y-17303746D02*
X11717801Y-17360889D01*
X11717801Y-17360889D02*
X11708277Y-17379936D01*
X11708277Y-17379936D02*
X11698753Y-17389460D01*
X11698753Y-17389460D02*
X11679706Y-17398984D01*
X11679706Y-17398984D02*
X11651134Y-17398984D01*
X11832087Y-17398984D02*
X11813039Y-17389460D01*
X11813039Y-17389460D02*
X11803515Y-17370412D01*
X11803515Y-17370412D02*
X11803515Y-17198984D01*
X11984468Y-17389460D02*
X11965420Y-17398984D01*
X11965420Y-17398984D02*
X11927325Y-17398984D01*
X11927325Y-17398984D02*
X11908277Y-17389460D01*
X11908277Y-17389460D02*
X11898753Y-17370412D01*
X11898753Y-17370412D02*
X11898753Y-17294222D01*
X11898753Y-17294222D02*
X11908277Y-17275174D01*
X11908277Y-17275174D02*
X11927325Y-17265650D01*
X11927325Y-17265650D02*
X11965420Y-17265650D01*
X11965420Y-17265650D02*
X11984468Y-17275174D01*
X11984468Y-17275174D02*
X11993991Y-17294222D01*
X11993991Y-17294222D02*
X11993991Y-17313270D01*
X11993991Y-17313270D02*
X11898753Y-17332317D01*
X12070182Y-17389460D02*
X12089230Y-17398984D01*
X12089230Y-17398984D02*
X12127325Y-17398984D01*
X12127325Y-17398984D02*
X12146372Y-17389460D01*
X12146372Y-17389460D02*
X12155896Y-17370412D01*
X12155896Y-17370412D02*
X12155896Y-17360889D01*
X12155896Y-17360889D02*
X12146372Y-17341841D01*
X12146372Y-17341841D02*
X12127325Y-17332317D01*
X12127325Y-17332317D02*
X12098753Y-17332317D01*
X12098753Y-17332317D02*
X12079706Y-17322793D01*
X12079706Y-17322793D02*
X12070182Y-17303746D01*
X12070182Y-17303746D02*
X12070182Y-17294222D01*
X12070182Y-17294222D02*
X12079706Y-17275174D01*
X12079706Y-17275174D02*
X12098753Y-17265650D01*
X12098753Y-17265650D02*
X12127325Y-17265650D01*
X12127325Y-17265650D02*
X12146372Y-17275174D01*
X12222563Y-17475174D02*
X12232087Y-17465650D01*
X12232087Y-17465650D02*
X12251134Y-17437079D01*
X12251134Y-17437079D02*
X12260658Y-17418031D01*
X12260658Y-17418031D02*
X12270182Y-17389460D01*
X12270182Y-17389460D02*
X12279706Y-17341841D01*
X12279706Y-17341841D02*
X12279706Y-17303746D01*
X12279706Y-17303746D02*
X12270182Y-17256127D01*
X12270182Y-17256127D02*
X12260658Y-17227555D01*
X12260658Y-17227555D02*
X12251134Y-17208508D01*
X12251134Y-17208508D02*
X12232087Y-17179936D01*
X12232087Y-17179936D02*
X12222563Y-17170412D01*
M02*
