G04 #@! TF.GenerationSoftware,KiCad,Pcbnew,8.0.1*
G04 #@! TF.CreationDate,2024-05-09T01:50:05+08:00*
G04 #@! TF.ProjectId,BatteryPod,42617474-6572-4795-906f-642e6b696361,rev?*
G04 #@! TF.SameCoordinates,Original*
G04 #@! TF.FileFunction,Paste,Top*
G04 #@! TF.FilePolarity,Positive*
%FSLAX46Y46*%
G04 Gerber Fmt 4.6, Leading zero omitted, Abs format (unit mm)*
G04 Created by KiCad (PCBNEW 8.0.1) date 2024-05-09 01:50:05*
%MOMM*%
%LPD*%
G01*
G04 APERTURE LIST*
G04 Aperture macros list*
%AMRoundRect*
0 Rectangle with rounded corners*
0 $1 Rounding radius*
0 $2 $3 $4 $5 $6 $7 $8 $9 X,Y pos of 4 corners*
0 Add a 4 corners polygon primitive as box body*
4,1,4,$2,$3,$4,$5,$6,$7,$8,$9,$2,$3,0*
0 Add four circle primitives for the rounded corners*
1,1,$1+$1,$2,$3*
1,1,$1+$1,$4,$5*
1,1,$1+$1,$6,$7*
1,1,$1+$1,$8,$9*
0 Add four rect primitives between the rounded corners*
20,1,$1+$1,$2,$3,$4,$5,0*
20,1,$1+$1,$4,$5,$6,$7,0*
20,1,$1+$1,$6,$7,$8,$9,0*
20,1,$1+$1,$8,$9,$2,$3,0*%
G04 Aperture macros list end*
%ADD10C,0.010000*%
%ADD11RoundRect,0.008000X-0.292000X-0.092000X0.292000X-0.092000X0.292000X0.092000X-0.292000X0.092000X0*%
%ADD12RoundRect,0.024000X-0.076000X-0.276000X0.076000X-0.276000X0.076000X0.276000X-0.076000X0.276000X0*%
%ADD13RoundRect,0.225000X-0.225000X-0.250000X0.225000X-0.250000X0.225000X0.250000X-0.225000X0.250000X0*%
%ADD14R,0.812800X0.254000*%
%ADD15R,0.254000X0.812800*%
%ADD16R,1.752600X1.752600*%
%ADD17RoundRect,0.200000X0.200000X0.275000X-0.200000X0.275000X-0.200000X-0.275000X0.200000X-0.275000X0*%
%ADD18RoundRect,0.250000X-0.650000X-2.450000X0.650000X-2.450000X0.650000X2.450000X-0.650000X2.450000X0*%
%ADD19RoundRect,0.200000X0.275000X-0.200000X0.275000X0.200000X-0.275000X0.200000X-0.275000X-0.200000X0*%
%ADD20RoundRect,0.200000X-0.200000X-0.275000X0.200000X-0.275000X0.200000X0.275000X-0.200000X0.275000X0*%
%ADD21RoundRect,0.225000X0.225000X0.250000X-0.225000X0.250000X-0.225000X-0.250000X0.225000X-0.250000X0*%
%ADD22R,0.600000X1.240000*%
%ADD23R,0.300000X1.240000*%
%ADD24RoundRect,0.250000X-1.000000X1.400000X-1.000000X-1.400000X1.000000X-1.400000X1.000000X1.400000X0*%
%ADD25RoundRect,0.140000X0.140000X0.170000X-0.140000X0.170000X-0.140000X-0.170000X0.140000X-0.170000X0*%
%ADD26RoundRect,0.250000X1.000000X-1.400000X1.000000X1.400000X-1.000000X1.400000X-1.000000X-1.400000X0*%
%ADD27R,3.200000X2.600000*%
%ADD28R,3.200000X2.599990*%
%ADD29R,2.400000X2.600000*%
%ADD30RoundRect,0.150000X-0.825000X-0.150000X0.825000X-0.150000X0.825000X0.150000X-0.825000X0.150000X0*%
%ADD31RoundRect,0.200000X-0.275000X0.200000X-0.275000X-0.200000X0.275000X-0.200000X0.275000X0.200000X0*%
%ADD32RoundRect,0.250000X-1.750000X-1.000000X1.750000X-1.000000X1.750000X1.000000X-1.750000X1.000000X0*%
G04 APERTURE END LIST*
D10*
X109143000Y-88751000D02*
X109145000Y-88751000D01*
X109148000Y-88752000D01*
X109150000Y-88752000D01*
X109153000Y-88753000D01*
X109155000Y-88754000D01*
X109158000Y-88755000D01*
X109160000Y-88757000D01*
X109162000Y-88758000D01*
X109164000Y-88760000D01*
X109166000Y-88761000D01*
X109168000Y-88763000D01*
X109170000Y-88765000D01*
X109172000Y-88767000D01*
X109174000Y-88769000D01*
X109175000Y-88771000D01*
X109177000Y-88773000D01*
X109178000Y-88775000D01*
X109180000Y-88777000D01*
X109181000Y-88780000D01*
X109182000Y-88782000D01*
X109183000Y-88785000D01*
X109183000Y-88787000D01*
X109184000Y-88790000D01*
X109184000Y-88792000D01*
X109185000Y-88795000D01*
X109185000Y-88797000D01*
X109185000Y-88800000D01*
X109185000Y-89870000D01*
X109185000Y-89873000D01*
X109185000Y-89875000D01*
X109184000Y-89878000D01*
X109184000Y-89880000D01*
X109183000Y-89883000D01*
X109183000Y-89885000D01*
X109182000Y-89888000D01*
X109181000Y-89890000D01*
X109180000Y-89893000D01*
X109178000Y-89895000D01*
X109177000Y-89897000D01*
X109175000Y-89899000D01*
X109174000Y-89901000D01*
X109172000Y-89903000D01*
X109170000Y-89905000D01*
X109168000Y-89907000D01*
X109166000Y-89909000D01*
X109164000Y-89910000D01*
X109162000Y-89912000D01*
X109160000Y-89913000D01*
X109158000Y-89915000D01*
X109155000Y-89916000D01*
X109153000Y-89917000D01*
X109150000Y-89918000D01*
X109148000Y-89918000D01*
X109145000Y-89919000D01*
X109143000Y-89919000D01*
X109140000Y-89920000D01*
X109138000Y-89920000D01*
X109135000Y-89920000D01*
X108035000Y-89920000D01*
X108032000Y-89920000D01*
X108030000Y-89920000D01*
X108027000Y-89919000D01*
X108025000Y-89919000D01*
X108022000Y-89918000D01*
X108020000Y-89918000D01*
X108017000Y-89917000D01*
X108015000Y-89916000D01*
X108012000Y-89915000D01*
X108010000Y-89913000D01*
X108008000Y-89912000D01*
X108006000Y-89910000D01*
X108004000Y-89909000D01*
X108002000Y-89907000D01*
X108000000Y-89905000D01*
X107998000Y-89903000D01*
X107996000Y-89901000D01*
X107995000Y-89899000D01*
X107993000Y-89897000D01*
X107992000Y-89895000D01*
X107990000Y-89893000D01*
X107989000Y-89890000D01*
X107988000Y-89888000D01*
X107987000Y-89885000D01*
X107987000Y-89883000D01*
X107986000Y-89880000D01*
X107986000Y-89878000D01*
X107985000Y-89875000D01*
X107985000Y-89873000D01*
X107985000Y-89870000D01*
X107985000Y-88800000D01*
X107985000Y-88797000D01*
X107985000Y-88795000D01*
X107986000Y-88792000D01*
X107986000Y-88790000D01*
X107987000Y-88787000D01*
X107987000Y-88785000D01*
X107988000Y-88782000D01*
X107989000Y-88780000D01*
X107990000Y-88777000D01*
X107992000Y-88775000D01*
X107993000Y-88773000D01*
X107995000Y-88771000D01*
X107996000Y-88769000D01*
X107998000Y-88767000D01*
X108000000Y-88765000D01*
X108002000Y-88763000D01*
X108004000Y-88761000D01*
X108006000Y-88760000D01*
X108008000Y-88758000D01*
X108010000Y-88757000D01*
X108012000Y-88755000D01*
X108015000Y-88754000D01*
X108017000Y-88753000D01*
X108020000Y-88752000D01*
X108022000Y-88752000D01*
X108025000Y-88751000D01*
X108027000Y-88751000D01*
X108030000Y-88750000D01*
X108032000Y-88750000D01*
X108035000Y-88750000D01*
X109135000Y-88750000D01*
X109138000Y-88750000D01*
X109140000Y-88750000D01*
X109143000Y-88751000D01*
G36*
X109143000Y-88751000D02*
G01*
X109145000Y-88751000D01*
X109148000Y-88752000D01*
X109150000Y-88752000D01*
X109153000Y-88753000D01*
X109155000Y-88754000D01*
X109158000Y-88755000D01*
X109160000Y-88757000D01*
X109162000Y-88758000D01*
X109164000Y-88760000D01*
X109166000Y-88761000D01*
X109168000Y-88763000D01*
X109170000Y-88765000D01*
X109172000Y-88767000D01*
X109174000Y-88769000D01*
X109175000Y-88771000D01*
X109177000Y-88773000D01*
X109178000Y-88775000D01*
X109180000Y-88777000D01*
X109181000Y-88780000D01*
X109182000Y-88782000D01*
X109183000Y-88785000D01*
X109183000Y-88787000D01*
X109184000Y-88790000D01*
X109184000Y-88792000D01*
X109185000Y-88795000D01*
X109185000Y-88797000D01*
X109185000Y-88800000D01*
X109185000Y-89870000D01*
X109185000Y-89873000D01*
X109185000Y-89875000D01*
X109184000Y-89878000D01*
X109184000Y-89880000D01*
X109183000Y-89883000D01*
X109183000Y-89885000D01*
X109182000Y-89888000D01*
X109181000Y-89890000D01*
X109180000Y-89893000D01*
X109178000Y-89895000D01*
X109177000Y-89897000D01*
X109175000Y-89899000D01*
X109174000Y-89901000D01*
X109172000Y-89903000D01*
X109170000Y-89905000D01*
X109168000Y-89907000D01*
X109166000Y-89909000D01*
X109164000Y-89910000D01*
X109162000Y-89912000D01*
X109160000Y-89913000D01*
X109158000Y-89915000D01*
X109155000Y-89916000D01*
X109153000Y-89917000D01*
X109150000Y-89918000D01*
X109148000Y-89918000D01*
X109145000Y-89919000D01*
X109143000Y-89919000D01*
X109140000Y-89920000D01*
X109138000Y-89920000D01*
X109135000Y-89920000D01*
X108035000Y-89920000D01*
X108032000Y-89920000D01*
X108030000Y-89920000D01*
X108027000Y-89919000D01*
X108025000Y-89919000D01*
X108022000Y-89918000D01*
X108020000Y-89918000D01*
X108017000Y-89917000D01*
X108015000Y-89916000D01*
X108012000Y-89915000D01*
X108010000Y-89913000D01*
X108008000Y-89912000D01*
X108006000Y-89910000D01*
X108004000Y-89909000D01*
X108002000Y-89907000D01*
X108000000Y-89905000D01*
X107998000Y-89903000D01*
X107996000Y-89901000D01*
X107995000Y-89899000D01*
X107993000Y-89897000D01*
X107992000Y-89895000D01*
X107990000Y-89893000D01*
X107989000Y-89890000D01*
X107988000Y-89888000D01*
X107987000Y-89885000D01*
X107987000Y-89883000D01*
X107986000Y-89880000D01*
X107986000Y-89878000D01*
X107985000Y-89875000D01*
X107985000Y-89873000D01*
X107985000Y-89870000D01*
X107985000Y-88800000D01*
X107985000Y-88797000D01*
X107985000Y-88795000D01*
X107986000Y-88792000D01*
X107986000Y-88790000D01*
X107987000Y-88787000D01*
X107987000Y-88785000D01*
X107988000Y-88782000D01*
X107989000Y-88780000D01*
X107990000Y-88777000D01*
X107992000Y-88775000D01*
X107993000Y-88773000D01*
X107995000Y-88771000D01*
X107996000Y-88769000D01*
X107998000Y-88767000D01*
X108000000Y-88765000D01*
X108002000Y-88763000D01*
X108004000Y-88761000D01*
X108006000Y-88760000D01*
X108008000Y-88758000D01*
X108010000Y-88757000D01*
X108012000Y-88755000D01*
X108015000Y-88754000D01*
X108017000Y-88753000D01*
X108020000Y-88752000D01*
X108022000Y-88752000D01*
X108025000Y-88751000D01*
X108027000Y-88751000D01*
X108030000Y-88750000D01*
X108032000Y-88750000D01*
X108035000Y-88750000D01*
X109135000Y-88750000D01*
X109138000Y-88750000D01*
X109140000Y-88750000D01*
X109143000Y-88751000D01*
G37*
X109143000Y-90131000D02*
X109145000Y-90131000D01*
X109148000Y-90132000D01*
X109150000Y-90132000D01*
X109153000Y-90133000D01*
X109155000Y-90134000D01*
X109158000Y-90135000D01*
X109160000Y-90137000D01*
X109162000Y-90138000D01*
X109164000Y-90140000D01*
X109166000Y-90141000D01*
X109168000Y-90143000D01*
X109170000Y-90145000D01*
X109172000Y-90147000D01*
X109174000Y-90149000D01*
X109175000Y-90151000D01*
X109177000Y-90153000D01*
X109178000Y-90155000D01*
X109180000Y-90157000D01*
X109181000Y-90160000D01*
X109182000Y-90162000D01*
X109183000Y-90165000D01*
X109183000Y-90167000D01*
X109184000Y-90170000D01*
X109184000Y-90172000D01*
X109185000Y-90175000D01*
X109185000Y-90177000D01*
X109185000Y-90180000D01*
X109185000Y-91250000D01*
X109185000Y-91253000D01*
X109185000Y-91255000D01*
X109184000Y-91258000D01*
X109184000Y-91260000D01*
X109183000Y-91263000D01*
X109183000Y-91265000D01*
X109182000Y-91268000D01*
X109181000Y-91270000D01*
X109180000Y-91273000D01*
X109178000Y-91275000D01*
X109177000Y-91277000D01*
X109175000Y-91279000D01*
X109174000Y-91281000D01*
X109172000Y-91283000D01*
X109170000Y-91285000D01*
X109168000Y-91287000D01*
X109166000Y-91289000D01*
X109164000Y-91290000D01*
X109162000Y-91292000D01*
X109160000Y-91293000D01*
X109158000Y-91295000D01*
X109155000Y-91296000D01*
X109153000Y-91297000D01*
X109150000Y-91298000D01*
X109148000Y-91298000D01*
X109145000Y-91299000D01*
X109143000Y-91299000D01*
X109140000Y-91300000D01*
X109138000Y-91300000D01*
X109135000Y-91300000D01*
X108035000Y-91300000D01*
X108032000Y-91300000D01*
X108030000Y-91300000D01*
X108027000Y-91299000D01*
X108025000Y-91299000D01*
X108022000Y-91298000D01*
X108020000Y-91298000D01*
X108017000Y-91297000D01*
X108015000Y-91296000D01*
X108012000Y-91295000D01*
X108010000Y-91293000D01*
X108008000Y-91292000D01*
X108006000Y-91290000D01*
X108004000Y-91289000D01*
X108002000Y-91287000D01*
X108000000Y-91285000D01*
X107998000Y-91283000D01*
X107996000Y-91281000D01*
X107995000Y-91279000D01*
X107993000Y-91277000D01*
X107992000Y-91275000D01*
X107990000Y-91273000D01*
X107989000Y-91270000D01*
X107988000Y-91268000D01*
X107987000Y-91265000D01*
X107987000Y-91263000D01*
X107986000Y-91260000D01*
X107986000Y-91258000D01*
X107985000Y-91255000D01*
X107985000Y-91253000D01*
X107985000Y-91250000D01*
X107985000Y-90180000D01*
X107985000Y-90177000D01*
X107985000Y-90175000D01*
X107986000Y-90172000D01*
X107986000Y-90170000D01*
X107987000Y-90167000D01*
X107987000Y-90165000D01*
X107988000Y-90162000D01*
X107989000Y-90160000D01*
X107990000Y-90157000D01*
X107992000Y-90155000D01*
X107993000Y-90153000D01*
X107995000Y-90151000D01*
X107996000Y-90149000D01*
X107998000Y-90147000D01*
X108000000Y-90145000D01*
X108002000Y-90143000D01*
X108004000Y-90141000D01*
X108006000Y-90140000D01*
X108008000Y-90138000D01*
X108010000Y-90137000D01*
X108012000Y-90135000D01*
X108015000Y-90134000D01*
X108017000Y-90133000D01*
X108020000Y-90132000D01*
X108022000Y-90132000D01*
X108025000Y-90131000D01*
X108027000Y-90131000D01*
X108030000Y-90130000D01*
X108032000Y-90130000D01*
X108035000Y-90130000D01*
X109135000Y-90130000D01*
X109138000Y-90130000D01*
X109140000Y-90130000D01*
X109143000Y-90131000D01*
G36*
X109143000Y-90131000D02*
G01*
X109145000Y-90131000D01*
X109148000Y-90132000D01*
X109150000Y-90132000D01*
X109153000Y-90133000D01*
X109155000Y-90134000D01*
X109158000Y-90135000D01*
X109160000Y-90137000D01*
X109162000Y-90138000D01*
X109164000Y-90140000D01*
X109166000Y-90141000D01*
X109168000Y-90143000D01*
X109170000Y-90145000D01*
X109172000Y-90147000D01*
X109174000Y-90149000D01*
X109175000Y-90151000D01*
X109177000Y-90153000D01*
X109178000Y-90155000D01*
X109180000Y-90157000D01*
X109181000Y-90160000D01*
X109182000Y-90162000D01*
X109183000Y-90165000D01*
X109183000Y-90167000D01*
X109184000Y-90170000D01*
X109184000Y-90172000D01*
X109185000Y-90175000D01*
X109185000Y-90177000D01*
X109185000Y-90180000D01*
X109185000Y-91250000D01*
X109185000Y-91253000D01*
X109185000Y-91255000D01*
X109184000Y-91258000D01*
X109184000Y-91260000D01*
X109183000Y-91263000D01*
X109183000Y-91265000D01*
X109182000Y-91268000D01*
X109181000Y-91270000D01*
X109180000Y-91273000D01*
X109178000Y-91275000D01*
X109177000Y-91277000D01*
X109175000Y-91279000D01*
X109174000Y-91281000D01*
X109172000Y-91283000D01*
X109170000Y-91285000D01*
X109168000Y-91287000D01*
X109166000Y-91289000D01*
X109164000Y-91290000D01*
X109162000Y-91292000D01*
X109160000Y-91293000D01*
X109158000Y-91295000D01*
X109155000Y-91296000D01*
X109153000Y-91297000D01*
X109150000Y-91298000D01*
X109148000Y-91298000D01*
X109145000Y-91299000D01*
X109143000Y-91299000D01*
X109140000Y-91300000D01*
X109138000Y-91300000D01*
X109135000Y-91300000D01*
X108035000Y-91300000D01*
X108032000Y-91300000D01*
X108030000Y-91300000D01*
X108027000Y-91299000D01*
X108025000Y-91299000D01*
X108022000Y-91298000D01*
X108020000Y-91298000D01*
X108017000Y-91297000D01*
X108015000Y-91296000D01*
X108012000Y-91295000D01*
X108010000Y-91293000D01*
X108008000Y-91292000D01*
X108006000Y-91290000D01*
X108004000Y-91289000D01*
X108002000Y-91287000D01*
X108000000Y-91285000D01*
X107998000Y-91283000D01*
X107996000Y-91281000D01*
X107995000Y-91279000D01*
X107993000Y-91277000D01*
X107992000Y-91275000D01*
X107990000Y-91273000D01*
X107989000Y-91270000D01*
X107988000Y-91268000D01*
X107987000Y-91265000D01*
X107987000Y-91263000D01*
X107986000Y-91260000D01*
X107986000Y-91258000D01*
X107985000Y-91255000D01*
X107985000Y-91253000D01*
X107985000Y-91250000D01*
X107985000Y-90180000D01*
X107985000Y-90177000D01*
X107985000Y-90175000D01*
X107986000Y-90172000D01*
X107986000Y-90170000D01*
X107987000Y-90167000D01*
X107987000Y-90165000D01*
X107988000Y-90162000D01*
X107989000Y-90160000D01*
X107990000Y-90157000D01*
X107992000Y-90155000D01*
X107993000Y-90153000D01*
X107995000Y-90151000D01*
X107996000Y-90149000D01*
X107998000Y-90147000D01*
X108000000Y-90145000D01*
X108002000Y-90143000D01*
X108004000Y-90141000D01*
X108006000Y-90140000D01*
X108008000Y-90138000D01*
X108010000Y-90137000D01*
X108012000Y-90135000D01*
X108015000Y-90134000D01*
X108017000Y-90133000D01*
X108020000Y-90132000D01*
X108022000Y-90132000D01*
X108025000Y-90131000D01*
X108027000Y-90131000D01*
X108030000Y-90130000D01*
X108032000Y-90130000D01*
X108035000Y-90130000D01*
X109135000Y-90130000D01*
X109138000Y-90130000D01*
X109140000Y-90130000D01*
X109143000Y-90131000D01*
G37*
X110543000Y-88751000D02*
X110545000Y-88751000D01*
X110548000Y-88752000D01*
X110550000Y-88752000D01*
X110553000Y-88753000D01*
X110555000Y-88754000D01*
X110558000Y-88755000D01*
X110560000Y-88757000D01*
X110562000Y-88758000D01*
X110564000Y-88760000D01*
X110566000Y-88761000D01*
X110568000Y-88763000D01*
X110570000Y-88765000D01*
X110572000Y-88767000D01*
X110574000Y-88769000D01*
X110575000Y-88771000D01*
X110577000Y-88773000D01*
X110578000Y-88775000D01*
X110580000Y-88777000D01*
X110581000Y-88780000D01*
X110582000Y-88782000D01*
X110583000Y-88785000D01*
X110583000Y-88787000D01*
X110584000Y-88790000D01*
X110584000Y-88792000D01*
X110585000Y-88795000D01*
X110585000Y-88797000D01*
X110585000Y-88800000D01*
X110585000Y-89870000D01*
X110585000Y-89873000D01*
X110585000Y-89875000D01*
X110584000Y-89878000D01*
X110584000Y-89880000D01*
X110583000Y-89883000D01*
X110583000Y-89885000D01*
X110582000Y-89888000D01*
X110581000Y-89890000D01*
X110580000Y-89893000D01*
X110578000Y-89895000D01*
X110577000Y-89897000D01*
X110575000Y-89899000D01*
X110574000Y-89901000D01*
X110572000Y-89903000D01*
X110570000Y-89905000D01*
X110568000Y-89907000D01*
X110566000Y-89909000D01*
X110564000Y-89910000D01*
X110562000Y-89912000D01*
X110560000Y-89913000D01*
X110558000Y-89915000D01*
X110555000Y-89916000D01*
X110553000Y-89917000D01*
X110550000Y-89918000D01*
X110548000Y-89918000D01*
X110545000Y-89919000D01*
X110543000Y-89919000D01*
X110540000Y-89920000D01*
X110538000Y-89920000D01*
X110535000Y-89920000D01*
X109435000Y-89920000D01*
X109432000Y-89920000D01*
X109430000Y-89920000D01*
X109427000Y-89919000D01*
X109425000Y-89919000D01*
X109422000Y-89918000D01*
X109420000Y-89918000D01*
X109417000Y-89917000D01*
X109415000Y-89916000D01*
X109412000Y-89915000D01*
X109410000Y-89913000D01*
X109408000Y-89912000D01*
X109406000Y-89910000D01*
X109404000Y-89909000D01*
X109402000Y-89907000D01*
X109400000Y-89905000D01*
X109398000Y-89903000D01*
X109396000Y-89901000D01*
X109395000Y-89899000D01*
X109393000Y-89897000D01*
X109392000Y-89895000D01*
X109390000Y-89893000D01*
X109389000Y-89890000D01*
X109388000Y-89888000D01*
X109387000Y-89885000D01*
X109387000Y-89883000D01*
X109386000Y-89880000D01*
X109386000Y-89878000D01*
X109385000Y-89875000D01*
X109385000Y-89873000D01*
X109385000Y-89870000D01*
X109385000Y-88800000D01*
X109385000Y-88797000D01*
X109385000Y-88795000D01*
X109386000Y-88792000D01*
X109386000Y-88790000D01*
X109387000Y-88787000D01*
X109387000Y-88785000D01*
X109388000Y-88782000D01*
X109389000Y-88780000D01*
X109390000Y-88777000D01*
X109392000Y-88775000D01*
X109393000Y-88773000D01*
X109395000Y-88771000D01*
X109396000Y-88769000D01*
X109398000Y-88767000D01*
X109400000Y-88765000D01*
X109402000Y-88763000D01*
X109404000Y-88761000D01*
X109406000Y-88760000D01*
X109408000Y-88758000D01*
X109410000Y-88757000D01*
X109412000Y-88755000D01*
X109415000Y-88754000D01*
X109417000Y-88753000D01*
X109420000Y-88752000D01*
X109422000Y-88752000D01*
X109425000Y-88751000D01*
X109427000Y-88751000D01*
X109430000Y-88750000D01*
X109432000Y-88750000D01*
X109435000Y-88750000D01*
X110535000Y-88750000D01*
X110538000Y-88750000D01*
X110540000Y-88750000D01*
X110543000Y-88751000D01*
G36*
X110543000Y-88751000D02*
G01*
X110545000Y-88751000D01*
X110548000Y-88752000D01*
X110550000Y-88752000D01*
X110553000Y-88753000D01*
X110555000Y-88754000D01*
X110558000Y-88755000D01*
X110560000Y-88757000D01*
X110562000Y-88758000D01*
X110564000Y-88760000D01*
X110566000Y-88761000D01*
X110568000Y-88763000D01*
X110570000Y-88765000D01*
X110572000Y-88767000D01*
X110574000Y-88769000D01*
X110575000Y-88771000D01*
X110577000Y-88773000D01*
X110578000Y-88775000D01*
X110580000Y-88777000D01*
X110581000Y-88780000D01*
X110582000Y-88782000D01*
X110583000Y-88785000D01*
X110583000Y-88787000D01*
X110584000Y-88790000D01*
X110584000Y-88792000D01*
X110585000Y-88795000D01*
X110585000Y-88797000D01*
X110585000Y-88800000D01*
X110585000Y-89870000D01*
X110585000Y-89873000D01*
X110585000Y-89875000D01*
X110584000Y-89878000D01*
X110584000Y-89880000D01*
X110583000Y-89883000D01*
X110583000Y-89885000D01*
X110582000Y-89888000D01*
X110581000Y-89890000D01*
X110580000Y-89893000D01*
X110578000Y-89895000D01*
X110577000Y-89897000D01*
X110575000Y-89899000D01*
X110574000Y-89901000D01*
X110572000Y-89903000D01*
X110570000Y-89905000D01*
X110568000Y-89907000D01*
X110566000Y-89909000D01*
X110564000Y-89910000D01*
X110562000Y-89912000D01*
X110560000Y-89913000D01*
X110558000Y-89915000D01*
X110555000Y-89916000D01*
X110553000Y-89917000D01*
X110550000Y-89918000D01*
X110548000Y-89918000D01*
X110545000Y-89919000D01*
X110543000Y-89919000D01*
X110540000Y-89920000D01*
X110538000Y-89920000D01*
X110535000Y-89920000D01*
X109435000Y-89920000D01*
X109432000Y-89920000D01*
X109430000Y-89920000D01*
X109427000Y-89919000D01*
X109425000Y-89919000D01*
X109422000Y-89918000D01*
X109420000Y-89918000D01*
X109417000Y-89917000D01*
X109415000Y-89916000D01*
X109412000Y-89915000D01*
X109410000Y-89913000D01*
X109408000Y-89912000D01*
X109406000Y-89910000D01*
X109404000Y-89909000D01*
X109402000Y-89907000D01*
X109400000Y-89905000D01*
X109398000Y-89903000D01*
X109396000Y-89901000D01*
X109395000Y-89899000D01*
X109393000Y-89897000D01*
X109392000Y-89895000D01*
X109390000Y-89893000D01*
X109389000Y-89890000D01*
X109388000Y-89888000D01*
X109387000Y-89885000D01*
X109387000Y-89883000D01*
X109386000Y-89880000D01*
X109386000Y-89878000D01*
X109385000Y-89875000D01*
X109385000Y-89873000D01*
X109385000Y-89870000D01*
X109385000Y-88800000D01*
X109385000Y-88797000D01*
X109385000Y-88795000D01*
X109386000Y-88792000D01*
X109386000Y-88790000D01*
X109387000Y-88787000D01*
X109387000Y-88785000D01*
X109388000Y-88782000D01*
X109389000Y-88780000D01*
X109390000Y-88777000D01*
X109392000Y-88775000D01*
X109393000Y-88773000D01*
X109395000Y-88771000D01*
X109396000Y-88769000D01*
X109398000Y-88767000D01*
X109400000Y-88765000D01*
X109402000Y-88763000D01*
X109404000Y-88761000D01*
X109406000Y-88760000D01*
X109408000Y-88758000D01*
X109410000Y-88757000D01*
X109412000Y-88755000D01*
X109415000Y-88754000D01*
X109417000Y-88753000D01*
X109420000Y-88752000D01*
X109422000Y-88752000D01*
X109425000Y-88751000D01*
X109427000Y-88751000D01*
X109430000Y-88750000D01*
X109432000Y-88750000D01*
X109435000Y-88750000D01*
X110535000Y-88750000D01*
X110538000Y-88750000D01*
X110540000Y-88750000D01*
X110543000Y-88751000D01*
G37*
X110543000Y-90131000D02*
X110545000Y-90131000D01*
X110548000Y-90132000D01*
X110550000Y-90132000D01*
X110553000Y-90133000D01*
X110555000Y-90134000D01*
X110558000Y-90135000D01*
X110560000Y-90137000D01*
X110562000Y-90138000D01*
X110564000Y-90140000D01*
X110566000Y-90141000D01*
X110568000Y-90143000D01*
X110570000Y-90145000D01*
X110572000Y-90147000D01*
X110574000Y-90149000D01*
X110575000Y-90151000D01*
X110577000Y-90153000D01*
X110578000Y-90155000D01*
X110580000Y-90157000D01*
X110581000Y-90160000D01*
X110582000Y-90162000D01*
X110583000Y-90165000D01*
X110583000Y-90167000D01*
X110584000Y-90170000D01*
X110584000Y-90172000D01*
X110585000Y-90175000D01*
X110585000Y-90177000D01*
X110585000Y-90180000D01*
X110585000Y-91250000D01*
X110585000Y-91253000D01*
X110585000Y-91255000D01*
X110584000Y-91258000D01*
X110584000Y-91260000D01*
X110583000Y-91263000D01*
X110583000Y-91265000D01*
X110582000Y-91268000D01*
X110581000Y-91270000D01*
X110580000Y-91273000D01*
X110578000Y-91275000D01*
X110577000Y-91277000D01*
X110575000Y-91279000D01*
X110574000Y-91281000D01*
X110572000Y-91283000D01*
X110570000Y-91285000D01*
X110568000Y-91287000D01*
X110566000Y-91289000D01*
X110564000Y-91290000D01*
X110562000Y-91292000D01*
X110560000Y-91293000D01*
X110558000Y-91295000D01*
X110555000Y-91296000D01*
X110553000Y-91297000D01*
X110550000Y-91298000D01*
X110548000Y-91298000D01*
X110545000Y-91299000D01*
X110543000Y-91299000D01*
X110540000Y-91300000D01*
X110538000Y-91300000D01*
X110535000Y-91300000D01*
X109435000Y-91300000D01*
X109432000Y-91300000D01*
X109430000Y-91300000D01*
X109427000Y-91299000D01*
X109425000Y-91299000D01*
X109422000Y-91298000D01*
X109420000Y-91298000D01*
X109417000Y-91297000D01*
X109415000Y-91296000D01*
X109412000Y-91295000D01*
X109410000Y-91293000D01*
X109408000Y-91292000D01*
X109406000Y-91290000D01*
X109404000Y-91289000D01*
X109402000Y-91287000D01*
X109400000Y-91285000D01*
X109398000Y-91283000D01*
X109396000Y-91281000D01*
X109395000Y-91279000D01*
X109393000Y-91277000D01*
X109392000Y-91275000D01*
X109390000Y-91273000D01*
X109389000Y-91270000D01*
X109388000Y-91268000D01*
X109387000Y-91265000D01*
X109387000Y-91263000D01*
X109386000Y-91260000D01*
X109386000Y-91258000D01*
X109385000Y-91255000D01*
X109385000Y-91253000D01*
X109385000Y-91250000D01*
X109385000Y-90180000D01*
X109385000Y-90177000D01*
X109385000Y-90175000D01*
X109386000Y-90172000D01*
X109386000Y-90170000D01*
X109387000Y-90167000D01*
X109387000Y-90165000D01*
X109388000Y-90162000D01*
X109389000Y-90160000D01*
X109390000Y-90157000D01*
X109392000Y-90155000D01*
X109393000Y-90153000D01*
X109395000Y-90151000D01*
X109396000Y-90149000D01*
X109398000Y-90147000D01*
X109400000Y-90145000D01*
X109402000Y-90143000D01*
X109404000Y-90141000D01*
X109406000Y-90140000D01*
X109408000Y-90138000D01*
X109410000Y-90137000D01*
X109412000Y-90135000D01*
X109415000Y-90134000D01*
X109417000Y-90133000D01*
X109420000Y-90132000D01*
X109422000Y-90132000D01*
X109425000Y-90131000D01*
X109427000Y-90131000D01*
X109430000Y-90130000D01*
X109432000Y-90130000D01*
X109435000Y-90130000D01*
X110535000Y-90130000D01*
X110538000Y-90130000D01*
X110540000Y-90130000D01*
X110543000Y-90131000D01*
G36*
X110543000Y-90131000D02*
G01*
X110545000Y-90131000D01*
X110548000Y-90132000D01*
X110550000Y-90132000D01*
X110553000Y-90133000D01*
X110555000Y-90134000D01*
X110558000Y-90135000D01*
X110560000Y-90137000D01*
X110562000Y-90138000D01*
X110564000Y-90140000D01*
X110566000Y-90141000D01*
X110568000Y-90143000D01*
X110570000Y-90145000D01*
X110572000Y-90147000D01*
X110574000Y-90149000D01*
X110575000Y-90151000D01*
X110577000Y-90153000D01*
X110578000Y-90155000D01*
X110580000Y-90157000D01*
X110581000Y-90160000D01*
X110582000Y-90162000D01*
X110583000Y-90165000D01*
X110583000Y-90167000D01*
X110584000Y-90170000D01*
X110584000Y-90172000D01*
X110585000Y-90175000D01*
X110585000Y-90177000D01*
X110585000Y-90180000D01*
X110585000Y-91250000D01*
X110585000Y-91253000D01*
X110585000Y-91255000D01*
X110584000Y-91258000D01*
X110584000Y-91260000D01*
X110583000Y-91263000D01*
X110583000Y-91265000D01*
X110582000Y-91268000D01*
X110581000Y-91270000D01*
X110580000Y-91273000D01*
X110578000Y-91275000D01*
X110577000Y-91277000D01*
X110575000Y-91279000D01*
X110574000Y-91281000D01*
X110572000Y-91283000D01*
X110570000Y-91285000D01*
X110568000Y-91287000D01*
X110566000Y-91289000D01*
X110564000Y-91290000D01*
X110562000Y-91292000D01*
X110560000Y-91293000D01*
X110558000Y-91295000D01*
X110555000Y-91296000D01*
X110553000Y-91297000D01*
X110550000Y-91298000D01*
X110548000Y-91298000D01*
X110545000Y-91299000D01*
X110543000Y-91299000D01*
X110540000Y-91300000D01*
X110538000Y-91300000D01*
X110535000Y-91300000D01*
X109435000Y-91300000D01*
X109432000Y-91300000D01*
X109430000Y-91300000D01*
X109427000Y-91299000D01*
X109425000Y-91299000D01*
X109422000Y-91298000D01*
X109420000Y-91298000D01*
X109417000Y-91297000D01*
X109415000Y-91296000D01*
X109412000Y-91295000D01*
X109410000Y-91293000D01*
X109408000Y-91292000D01*
X109406000Y-91290000D01*
X109404000Y-91289000D01*
X109402000Y-91287000D01*
X109400000Y-91285000D01*
X109398000Y-91283000D01*
X109396000Y-91281000D01*
X109395000Y-91279000D01*
X109393000Y-91277000D01*
X109392000Y-91275000D01*
X109390000Y-91273000D01*
X109389000Y-91270000D01*
X109388000Y-91268000D01*
X109387000Y-91265000D01*
X109387000Y-91263000D01*
X109386000Y-91260000D01*
X109386000Y-91258000D01*
X109385000Y-91255000D01*
X109385000Y-91253000D01*
X109385000Y-91250000D01*
X109385000Y-90180000D01*
X109385000Y-90177000D01*
X109385000Y-90175000D01*
X109386000Y-90172000D01*
X109386000Y-90170000D01*
X109387000Y-90167000D01*
X109387000Y-90165000D01*
X109388000Y-90162000D01*
X109389000Y-90160000D01*
X109390000Y-90157000D01*
X109392000Y-90155000D01*
X109393000Y-90153000D01*
X109395000Y-90151000D01*
X109396000Y-90149000D01*
X109398000Y-90147000D01*
X109400000Y-90145000D01*
X109402000Y-90143000D01*
X109404000Y-90141000D01*
X109406000Y-90140000D01*
X109408000Y-90138000D01*
X109410000Y-90137000D01*
X109412000Y-90135000D01*
X109415000Y-90134000D01*
X109417000Y-90133000D01*
X109420000Y-90132000D01*
X109422000Y-90132000D01*
X109425000Y-90131000D01*
X109427000Y-90131000D01*
X109430000Y-90130000D01*
X109432000Y-90130000D01*
X109435000Y-90130000D01*
X110535000Y-90130000D01*
X110538000Y-90130000D01*
X110540000Y-90130000D01*
X110543000Y-90131000D01*
G37*
X112443000Y-88751000D02*
X112445000Y-88751000D01*
X112448000Y-88752000D01*
X112450000Y-88752000D01*
X112453000Y-88753000D01*
X112455000Y-88754000D01*
X112458000Y-88755000D01*
X112460000Y-88757000D01*
X112462000Y-88758000D01*
X112464000Y-88760000D01*
X112466000Y-88761000D01*
X112468000Y-88763000D01*
X112470000Y-88765000D01*
X112472000Y-88767000D01*
X112474000Y-88769000D01*
X112475000Y-88771000D01*
X112477000Y-88773000D01*
X112478000Y-88775000D01*
X112480000Y-88777000D01*
X112481000Y-88780000D01*
X112482000Y-88782000D01*
X112483000Y-88785000D01*
X112483000Y-88787000D01*
X112484000Y-88790000D01*
X112484000Y-88792000D01*
X112485000Y-88795000D01*
X112485000Y-88797000D01*
X112485000Y-88800000D01*
X112485000Y-89870000D01*
X112485000Y-89873000D01*
X112485000Y-89875000D01*
X112484000Y-89878000D01*
X112484000Y-89880000D01*
X112483000Y-89883000D01*
X112483000Y-89885000D01*
X112482000Y-89888000D01*
X112481000Y-89890000D01*
X112480000Y-89893000D01*
X112478000Y-89895000D01*
X112477000Y-89897000D01*
X112475000Y-89899000D01*
X112474000Y-89901000D01*
X112472000Y-89903000D01*
X112470000Y-89905000D01*
X112468000Y-89907000D01*
X112466000Y-89909000D01*
X112464000Y-89910000D01*
X112462000Y-89912000D01*
X112460000Y-89913000D01*
X112458000Y-89915000D01*
X112455000Y-89916000D01*
X112453000Y-89917000D01*
X112450000Y-89918000D01*
X112448000Y-89918000D01*
X112445000Y-89919000D01*
X112443000Y-89919000D01*
X112440000Y-89920000D01*
X112438000Y-89920000D01*
X112435000Y-89920000D01*
X111185000Y-89920000D01*
X111182000Y-89920000D01*
X111180000Y-89920000D01*
X111177000Y-89919000D01*
X111175000Y-89919000D01*
X111172000Y-89918000D01*
X111170000Y-89918000D01*
X111167000Y-89917000D01*
X111165000Y-89916000D01*
X111162000Y-89915000D01*
X111160000Y-89913000D01*
X111158000Y-89912000D01*
X111156000Y-89910000D01*
X111154000Y-89909000D01*
X111152000Y-89907000D01*
X111150000Y-89905000D01*
X111148000Y-89903000D01*
X111146000Y-89901000D01*
X111145000Y-89899000D01*
X111143000Y-89897000D01*
X111142000Y-89895000D01*
X111140000Y-89893000D01*
X111139000Y-89890000D01*
X111138000Y-89888000D01*
X111137000Y-89885000D01*
X111137000Y-89883000D01*
X111136000Y-89880000D01*
X111136000Y-89878000D01*
X111135000Y-89875000D01*
X111135000Y-89873000D01*
X111135000Y-89870000D01*
X111135000Y-88800000D01*
X111135000Y-88797000D01*
X111135000Y-88795000D01*
X111136000Y-88792000D01*
X111136000Y-88790000D01*
X111137000Y-88787000D01*
X111137000Y-88785000D01*
X111138000Y-88782000D01*
X111139000Y-88780000D01*
X111140000Y-88777000D01*
X111142000Y-88775000D01*
X111143000Y-88773000D01*
X111145000Y-88771000D01*
X111146000Y-88769000D01*
X111148000Y-88767000D01*
X111150000Y-88765000D01*
X111152000Y-88763000D01*
X111154000Y-88761000D01*
X111156000Y-88760000D01*
X111158000Y-88758000D01*
X111160000Y-88757000D01*
X111162000Y-88755000D01*
X111165000Y-88754000D01*
X111167000Y-88753000D01*
X111170000Y-88752000D01*
X111172000Y-88752000D01*
X111175000Y-88751000D01*
X111177000Y-88751000D01*
X111180000Y-88750000D01*
X111182000Y-88750000D01*
X111185000Y-88750000D01*
X112435000Y-88750000D01*
X112438000Y-88750000D01*
X112440000Y-88750000D01*
X112443000Y-88751000D01*
G36*
X112443000Y-88751000D02*
G01*
X112445000Y-88751000D01*
X112448000Y-88752000D01*
X112450000Y-88752000D01*
X112453000Y-88753000D01*
X112455000Y-88754000D01*
X112458000Y-88755000D01*
X112460000Y-88757000D01*
X112462000Y-88758000D01*
X112464000Y-88760000D01*
X112466000Y-88761000D01*
X112468000Y-88763000D01*
X112470000Y-88765000D01*
X112472000Y-88767000D01*
X112474000Y-88769000D01*
X112475000Y-88771000D01*
X112477000Y-88773000D01*
X112478000Y-88775000D01*
X112480000Y-88777000D01*
X112481000Y-88780000D01*
X112482000Y-88782000D01*
X112483000Y-88785000D01*
X112483000Y-88787000D01*
X112484000Y-88790000D01*
X112484000Y-88792000D01*
X112485000Y-88795000D01*
X112485000Y-88797000D01*
X112485000Y-88800000D01*
X112485000Y-89870000D01*
X112485000Y-89873000D01*
X112485000Y-89875000D01*
X112484000Y-89878000D01*
X112484000Y-89880000D01*
X112483000Y-89883000D01*
X112483000Y-89885000D01*
X112482000Y-89888000D01*
X112481000Y-89890000D01*
X112480000Y-89893000D01*
X112478000Y-89895000D01*
X112477000Y-89897000D01*
X112475000Y-89899000D01*
X112474000Y-89901000D01*
X112472000Y-89903000D01*
X112470000Y-89905000D01*
X112468000Y-89907000D01*
X112466000Y-89909000D01*
X112464000Y-89910000D01*
X112462000Y-89912000D01*
X112460000Y-89913000D01*
X112458000Y-89915000D01*
X112455000Y-89916000D01*
X112453000Y-89917000D01*
X112450000Y-89918000D01*
X112448000Y-89918000D01*
X112445000Y-89919000D01*
X112443000Y-89919000D01*
X112440000Y-89920000D01*
X112438000Y-89920000D01*
X112435000Y-89920000D01*
X111185000Y-89920000D01*
X111182000Y-89920000D01*
X111180000Y-89920000D01*
X111177000Y-89919000D01*
X111175000Y-89919000D01*
X111172000Y-89918000D01*
X111170000Y-89918000D01*
X111167000Y-89917000D01*
X111165000Y-89916000D01*
X111162000Y-89915000D01*
X111160000Y-89913000D01*
X111158000Y-89912000D01*
X111156000Y-89910000D01*
X111154000Y-89909000D01*
X111152000Y-89907000D01*
X111150000Y-89905000D01*
X111148000Y-89903000D01*
X111146000Y-89901000D01*
X111145000Y-89899000D01*
X111143000Y-89897000D01*
X111142000Y-89895000D01*
X111140000Y-89893000D01*
X111139000Y-89890000D01*
X111138000Y-89888000D01*
X111137000Y-89885000D01*
X111137000Y-89883000D01*
X111136000Y-89880000D01*
X111136000Y-89878000D01*
X111135000Y-89875000D01*
X111135000Y-89873000D01*
X111135000Y-89870000D01*
X111135000Y-88800000D01*
X111135000Y-88797000D01*
X111135000Y-88795000D01*
X111136000Y-88792000D01*
X111136000Y-88790000D01*
X111137000Y-88787000D01*
X111137000Y-88785000D01*
X111138000Y-88782000D01*
X111139000Y-88780000D01*
X111140000Y-88777000D01*
X111142000Y-88775000D01*
X111143000Y-88773000D01*
X111145000Y-88771000D01*
X111146000Y-88769000D01*
X111148000Y-88767000D01*
X111150000Y-88765000D01*
X111152000Y-88763000D01*
X111154000Y-88761000D01*
X111156000Y-88760000D01*
X111158000Y-88758000D01*
X111160000Y-88757000D01*
X111162000Y-88755000D01*
X111165000Y-88754000D01*
X111167000Y-88753000D01*
X111170000Y-88752000D01*
X111172000Y-88752000D01*
X111175000Y-88751000D01*
X111177000Y-88751000D01*
X111180000Y-88750000D01*
X111182000Y-88750000D01*
X111185000Y-88750000D01*
X112435000Y-88750000D01*
X112438000Y-88750000D01*
X112440000Y-88750000D01*
X112443000Y-88751000D01*
G37*
X112443000Y-90131000D02*
X112445000Y-90131000D01*
X112448000Y-90132000D01*
X112450000Y-90132000D01*
X112453000Y-90133000D01*
X112455000Y-90134000D01*
X112458000Y-90135000D01*
X112460000Y-90137000D01*
X112462000Y-90138000D01*
X112464000Y-90140000D01*
X112466000Y-90141000D01*
X112468000Y-90143000D01*
X112470000Y-90145000D01*
X112472000Y-90147000D01*
X112474000Y-90149000D01*
X112475000Y-90151000D01*
X112477000Y-90153000D01*
X112478000Y-90155000D01*
X112480000Y-90157000D01*
X112481000Y-90160000D01*
X112482000Y-90162000D01*
X112483000Y-90165000D01*
X112483000Y-90167000D01*
X112484000Y-90170000D01*
X112484000Y-90172000D01*
X112485000Y-90175000D01*
X112485000Y-90177000D01*
X112485000Y-90180000D01*
X112485000Y-91250000D01*
X112485000Y-91253000D01*
X112485000Y-91255000D01*
X112484000Y-91258000D01*
X112484000Y-91260000D01*
X112483000Y-91263000D01*
X112483000Y-91265000D01*
X112482000Y-91268000D01*
X112481000Y-91270000D01*
X112480000Y-91273000D01*
X112478000Y-91275000D01*
X112477000Y-91277000D01*
X112475000Y-91279000D01*
X112474000Y-91281000D01*
X112472000Y-91283000D01*
X112470000Y-91285000D01*
X112468000Y-91287000D01*
X112466000Y-91289000D01*
X112464000Y-91290000D01*
X112462000Y-91292000D01*
X112460000Y-91293000D01*
X112458000Y-91295000D01*
X112455000Y-91296000D01*
X112453000Y-91297000D01*
X112450000Y-91298000D01*
X112448000Y-91298000D01*
X112445000Y-91299000D01*
X112443000Y-91299000D01*
X112440000Y-91300000D01*
X112438000Y-91300000D01*
X112435000Y-91300000D01*
X111185000Y-91300000D01*
X111182000Y-91300000D01*
X111180000Y-91300000D01*
X111177000Y-91299000D01*
X111175000Y-91299000D01*
X111172000Y-91298000D01*
X111170000Y-91298000D01*
X111167000Y-91297000D01*
X111165000Y-91296000D01*
X111162000Y-91295000D01*
X111160000Y-91293000D01*
X111158000Y-91292000D01*
X111156000Y-91290000D01*
X111154000Y-91289000D01*
X111152000Y-91287000D01*
X111150000Y-91285000D01*
X111148000Y-91283000D01*
X111146000Y-91281000D01*
X111145000Y-91279000D01*
X111143000Y-91277000D01*
X111142000Y-91275000D01*
X111140000Y-91273000D01*
X111139000Y-91270000D01*
X111138000Y-91268000D01*
X111137000Y-91265000D01*
X111137000Y-91263000D01*
X111136000Y-91260000D01*
X111136000Y-91258000D01*
X111135000Y-91255000D01*
X111135000Y-91253000D01*
X111135000Y-91250000D01*
X111135000Y-90180000D01*
X111135000Y-90177000D01*
X111135000Y-90175000D01*
X111136000Y-90172000D01*
X111136000Y-90170000D01*
X111137000Y-90167000D01*
X111137000Y-90165000D01*
X111138000Y-90162000D01*
X111139000Y-90160000D01*
X111140000Y-90157000D01*
X111142000Y-90155000D01*
X111143000Y-90153000D01*
X111145000Y-90151000D01*
X111146000Y-90149000D01*
X111148000Y-90147000D01*
X111150000Y-90145000D01*
X111152000Y-90143000D01*
X111154000Y-90141000D01*
X111156000Y-90140000D01*
X111158000Y-90138000D01*
X111160000Y-90137000D01*
X111162000Y-90135000D01*
X111165000Y-90134000D01*
X111167000Y-90133000D01*
X111170000Y-90132000D01*
X111172000Y-90132000D01*
X111175000Y-90131000D01*
X111177000Y-90131000D01*
X111180000Y-90130000D01*
X111182000Y-90130000D01*
X111185000Y-90130000D01*
X112435000Y-90130000D01*
X112438000Y-90130000D01*
X112440000Y-90130000D01*
X112443000Y-90131000D01*
G36*
X112443000Y-90131000D02*
G01*
X112445000Y-90131000D01*
X112448000Y-90132000D01*
X112450000Y-90132000D01*
X112453000Y-90133000D01*
X112455000Y-90134000D01*
X112458000Y-90135000D01*
X112460000Y-90137000D01*
X112462000Y-90138000D01*
X112464000Y-90140000D01*
X112466000Y-90141000D01*
X112468000Y-90143000D01*
X112470000Y-90145000D01*
X112472000Y-90147000D01*
X112474000Y-90149000D01*
X112475000Y-90151000D01*
X112477000Y-90153000D01*
X112478000Y-90155000D01*
X112480000Y-90157000D01*
X112481000Y-90160000D01*
X112482000Y-90162000D01*
X112483000Y-90165000D01*
X112483000Y-90167000D01*
X112484000Y-90170000D01*
X112484000Y-90172000D01*
X112485000Y-90175000D01*
X112485000Y-90177000D01*
X112485000Y-90180000D01*
X112485000Y-91250000D01*
X112485000Y-91253000D01*
X112485000Y-91255000D01*
X112484000Y-91258000D01*
X112484000Y-91260000D01*
X112483000Y-91263000D01*
X112483000Y-91265000D01*
X112482000Y-91268000D01*
X112481000Y-91270000D01*
X112480000Y-91273000D01*
X112478000Y-91275000D01*
X112477000Y-91277000D01*
X112475000Y-91279000D01*
X112474000Y-91281000D01*
X112472000Y-91283000D01*
X112470000Y-91285000D01*
X112468000Y-91287000D01*
X112466000Y-91289000D01*
X112464000Y-91290000D01*
X112462000Y-91292000D01*
X112460000Y-91293000D01*
X112458000Y-91295000D01*
X112455000Y-91296000D01*
X112453000Y-91297000D01*
X112450000Y-91298000D01*
X112448000Y-91298000D01*
X112445000Y-91299000D01*
X112443000Y-91299000D01*
X112440000Y-91300000D01*
X112438000Y-91300000D01*
X112435000Y-91300000D01*
X111185000Y-91300000D01*
X111182000Y-91300000D01*
X111180000Y-91300000D01*
X111177000Y-91299000D01*
X111175000Y-91299000D01*
X111172000Y-91298000D01*
X111170000Y-91298000D01*
X111167000Y-91297000D01*
X111165000Y-91296000D01*
X111162000Y-91295000D01*
X111160000Y-91293000D01*
X111158000Y-91292000D01*
X111156000Y-91290000D01*
X111154000Y-91289000D01*
X111152000Y-91287000D01*
X111150000Y-91285000D01*
X111148000Y-91283000D01*
X111146000Y-91281000D01*
X111145000Y-91279000D01*
X111143000Y-91277000D01*
X111142000Y-91275000D01*
X111140000Y-91273000D01*
X111139000Y-91270000D01*
X111138000Y-91268000D01*
X111137000Y-91265000D01*
X111137000Y-91263000D01*
X111136000Y-91260000D01*
X111136000Y-91258000D01*
X111135000Y-91255000D01*
X111135000Y-91253000D01*
X111135000Y-91250000D01*
X111135000Y-90180000D01*
X111135000Y-90177000D01*
X111135000Y-90175000D01*
X111136000Y-90172000D01*
X111136000Y-90170000D01*
X111137000Y-90167000D01*
X111137000Y-90165000D01*
X111138000Y-90162000D01*
X111139000Y-90160000D01*
X111140000Y-90157000D01*
X111142000Y-90155000D01*
X111143000Y-90153000D01*
X111145000Y-90151000D01*
X111146000Y-90149000D01*
X111148000Y-90147000D01*
X111150000Y-90145000D01*
X111152000Y-90143000D01*
X111154000Y-90141000D01*
X111156000Y-90140000D01*
X111158000Y-90138000D01*
X111160000Y-90137000D01*
X111162000Y-90135000D01*
X111165000Y-90134000D01*
X111167000Y-90133000D01*
X111170000Y-90132000D01*
X111172000Y-90132000D01*
X111175000Y-90131000D01*
X111177000Y-90131000D01*
X111180000Y-90130000D01*
X111182000Y-90130000D01*
X111185000Y-90130000D01*
X112435000Y-90130000D01*
X112438000Y-90130000D01*
X112440000Y-90130000D01*
X112443000Y-90131000D01*
G37*
X109108000Y-87826000D02*
X109110000Y-87826000D01*
X109113000Y-87827000D01*
X109115000Y-87827000D01*
X109118000Y-87828000D01*
X109120000Y-87829000D01*
X109123000Y-87830000D01*
X109125000Y-87832000D01*
X109127000Y-87833000D01*
X109129000Y-87835000D01*
X109131000Y-87836000D01*
X109133000Y-87838000D01*
X109135000Y-87840000D01*
X109137000Y-87842000D01*
X109139000Y-87844000D01*
X109140000Y-87846000D01*
X109142000Y-87848000D01*
X109143000Y-87850000D01*
X109145000Y-87852000D01*
X109146000Y-87855000D01*
X109147000Y-87857000D01*
X109148000Y-87860000D01*
X109148000Y-87862000D01*
X109149000Y-87865000D01*
X109149000Y-87867000D01*
X109150000Y-87870000D01*
X109150000Y-87872000D01*
X109150000Y-87875000D01*
X109150000Y-88100000D01*
X109150000Y-88103000D01*
X109150000Y-88105000D01*
X109151000Y-88108000D01*
X109151000Y-88110000D01*
X109152000Y-88113000D01*
X109152000Y-88115000D01*
X109153000Y-88118000D01*
X109154000Y-88120000D01*
X109155000Y-88123000D01*
X109157000Y-88125000D01*
X109158000Y-88127000D01*
X109160000Y-88129000D01*
X109161000Y-88131000D01*
X109163000Y-88133000D01*
X109165000Y-88135000D01*
X109167000Y-88137000D01*
X109169000Y-88139000D01*
X109171000Y-88140000D01*
X109173000Y-88142000D01*
X109175000Y-88143000D01*
X109177000Y-88145000D01*
X109180000Y-88146000D01*
X109182000Y-88147000D01*
X109185000Y-88148000D01*
X109187000Y-88148000D01*
X109190000Y-88149000D01*
X109192000Y-88149000D01*
X109195000Y-88150000D01*
X109197000Y-88150000D01*
X109200000Y-88150000D01*
X109300000Y-88150000D01*
X109303000Y-88150000D01*
X109305000Y-88150000D01*
X109308000Y-88149000D01*
X109310000Y-88149000D01*
X109313000Y-88148000D01*
X109315000Y-88148000D01*
X109318000Y-88147000D01*
X109320000Y-88146000D01*
X109323000Y-88145000D01*
X109325000Y-88143000D01*
X109327000Y-88142000D01*
X109329000Y-88140000D01*
X109331000Y-88139000D01*
X109333000Y-88137000D01*
X109335000Y-88135000D01*
X109337000Y-88133000D01*
X109339000Y-88131000D01*
X109340000Y-88129000D01*
X109342000Y-88127000D01*
X109343000Y-88125000D01*
X109345000Y-88123000D01*
X109346000Y-88120000D01*
X109347000Y-88118000D01*
X109348000Y-88115000D01*
X109348000Y-88113000D01*
X109349000Y-88110000D01*
X109349000Y-88108000D01*
X109350000Y-88105000D01*
X109350000Y-88103000D01*
X109350000Y-88100000D01*
X109350000Y-87875000D01*
X109350000Y-87872000D01*
X109350000Y-87870000D01*
X109351000Y-87867000D01*
X109351000Y-87865000D01*
X109352000Y-87862000D01*
X109352000Y-87860000D01*
X109353000Y-87857000D01*
X109354000Y-87855000D01*
X109355000Y-87852000D01*
X109357000Y-87850000D01*
X109358000Y-87848000D01*
X109360000Y-87846000D01*
X109361000Y-87844000D01*
X109363000Y-87842000D01*
X109365000Y-87840000D01*
X109367000Y-87838000D01*
X109369000Y-87836000D01*
X109371000Y-87835000D01*
X109373000Y-87833000D01*
X109375000Y-87832000D01*
X109377000Y-87830000D01*
X109380000Y-87829000D01*
X109382000Y-87828000D01*
X109385000Y-87827000D01*
X109387000Y-87827000D01*
X109390000Y-87826000D01*
X109392000Y-87826000D01*
X109395000Y-87825000D01*
X109397000Y-87825000D01*
X109400000Y-87825000D01*
X109500000Y-87825000D01*
X109503000Y-87825000D01*
X109505000Y-87825000D01*
X109508000Y-87826000D01*
X109510000Y-87826000D01*
X109513000Y-87827000D01*
X109515000Y-87827000D01*
X109518000Y-87828000D01*
X109520000Y-87829000D01*
X109523000Y-87830000D01*
X109525000Y-87832000D01*
X109527000Y-87833000D01*
X109529000Y-87835000D01*
X109531000Y-87836000D01*
X109533000Y-87838000D01*
X109535000Y-87840000D01*
X109537000Y-87842000D01*
X109539000Y-87844000D01*
X109540000Y-87846000D01*
X109542000Y-87848000D01*
X109543000Y-87850000D01*
X109545000Y-87852000D01*
X109546000Y-87855000D01*
X109547000Y-87857000D01*
X109548000Y-87860000D01*
X109548000Y-87862000D01*
X109549000Y-87865000D01*
X109549000Y-87867000D01*
X109550000Y-87870000D01*
X109550000Y-87872000D01*
X109550000Y-87875000D01*
X109550000Y-88375000D01*
X109550000Y-88378000D01*
X109550000Y-88380000D01*
X109549000Y-88383000D01*
X109549000Y-88385000D01*
X109548000Y-88388000D01*
X109548000Y-88390000D01*
X109547000Y-88393000D01*
X109546000Y-88395000D01*
X109545000Y-88398000D01*
X109543000Y-88400000D01*
X109542000Y-88402000D01*
X109540000Y-88404000D01*
X109539000Y-88406000D01*
X109537000Y-88408000D01*
X109535000Y-88410000D01*
X109533000Y-88412000D01*
X109531000Y-88414000D01*
X109529000Y-88415000D01*
X109527000Y-88417000D01*
X109525000Y-88418000D01*
X109523000Y-88420000D01*
X109520000Y-88421000D01*
X109518000Y-88422000D01*
X109515000Y-88423000D01*
X109513000Y-88423000D01*
X109510000Y-88424000D01*
X109508000Y-88424000D01*
X109505000Y-88425000D01*
X109503000Y-88425000D01*
X109500000Y-88425000D01*
X109000000Y-88425000D01*
X108997000Y-88425000D01*
X108995000Y-88425000D01*
X108992000Y-88424000D01*
X108990000Y-88424000D01*
X108987000Y-88423000D01*
X108985000Y-88423000D01*
X108982000Y-88422000D01*
X108980000Y-88421000D01*
X108977000Y-88420000D01*
X108975000Y-88418000D01*
X108973000Y-88417000D01*
X108971000Y-88415000D01*
X108969000Y-88414000D01*
X108967000Y-88412000D01*
X108965000Y-88410000D01*
X108963000Y-88408000D01*
X108961000Y-88406000D01*
X108960000Y-88404000D01*
X108958000Y-88402000D01*
X108957000Y-88400000D01*
X108955000Y-88398000D01*
X108954000Y-88395000D01*
X108953000Y-88393000D01*
X108952000Y-88390000D01*
X108952000Y-88388000D01*
X108951000Y-88385000D01*
X108951000Y-88383000D01*
X108950000Y-88380000D01*
X108950000Y-88378000D01*
X108950000Y-88375000D01*
X108950000Y-87875000D01*
X108950000Y-87872000D01*
X108950000Y-87870000D01*
X108951000Y-87867000D01*
X108951000Y-87865000D01*
X108952000Y-87862000D01*
X108952000Y-87860000D01*
X108953000Y-87857000D01*
X108954000Y-87855000D01*
X108955000Y-87852000D01*
X108957000Y-87850000D01*
X108958000Y-87848000D01*
X108960000Y-87846000D01*
X108961000Y-87844000D01*
X108963000Y-87842000D01*
X108965000Y-87840000D01*
X108967000Y-87838000D01*
X108969000Y-87836000D01*
X108971000Y-87835000D01*
X108973000Y-87833000D01*
X108975000Y-87832000D01*
X108977000Y-87830000D01*
X108980000Y-87829000D01*
X108982000Y-87828000D01*
X108985000Y-87827000D01*
X108987000Y-87827000D01*
X108990000Y-87826000D01*
X108992000Y-87826000D01*
X108995000Y-87825000D01*
X108997000Y-87825000D01*
X109000000Y-87825000D01*
X109100000Y-87825000D01*
X109103000Y-87825000D01*
X109105000Y-87825000D01*
X109108000Y-87826000D01*
G36*
X109108000Y-87826000D02*
G01*
X109110000Y-87826000D01*
X109113000Y-87827000D01*
X109115000Y-87827000D01*
X109118000Y-87828000D01*
X109120000Y-87829000D01*
X109123000Y-87830000D01*
X109125000Y-87832000D01*
X109127000Y-87833000D01*
X109129000Y-87835000D01*
X109131000Y-87836000D01*
X109133000Y-87838000D01*
X109135000Y-87840000D01*
X109137000Y-87842000D01*
X109139000Y-87844000D01*
X109140000Y-87846000D01*
X109142000Y-87848000D01*
X109143000Y-87850000D01*
X109145000Y-87852000D01*
X109146000Y-87855000D01*
X109147000Y-87857000D01*
X109148000Y-87860000D01*
X109148000Y-87862000D01*
X109149000Y-87865000D01*
X109149000Y-87867000D01*
X109150000Y-87870000D01*
X109150000Y-87872000D01*
X109150000Y-87875000D01*
X109150000Y-88100000D01*
X109150000Y-88103000D01*
X109150000Y-88105000D01*
X109151000Y-88108000D01*
X109151000Y-88110000D01*
X109152000Y-88113000D01*
X109152000Y-88115000D01*
X109153000Y-88118000D01*
X109154000Y-88120000D01*
X109155000Y-88123000D01*
X109157000Y-88125000D01*
X109158000Y-88127000D01*
X109160000Y-88129000D01*
X109161000Y-88131000D01*
X109163000Y-88133000D01*
X109165000Y-88135000D01*
X109167000Y-88137000D01*
X109169000Y-88139000D01*
X109171000Y-88140000D01*
X109173000Y-88142000D01*
X109175000Y-88143000D01*
X109177000Y-88145000D01*
X109180000Y-88146000D01*
X109182000Y-88147000D01*
X109185000Y-88148000D01*
X109187000Y-88148000D01*
X109190000Y-88149000D01*
X109192000Y-88149000D01*
X109195000Y-88150000D01*
X109197000Y-88150000D01*
X109200000Y-88150000D01*
X109300000Y-88150000D01*
X109303000Y-88150000D01*
X109305000Y-88150000D01*
X109308000Y-88149000D01*
X109310000Y-88149000D01*
X109313000Y-88148000D01*
X109315000Y-88148000D01*
X109318000Y-88147000D01*
X109320000Y-88146000D01*
X109323000Y-88145000D01*
X109325000Y-88143000D01*
X109327000Y-88142000D01*
X109329000Y-88140000D01*
X109331000Y-88139000D01*
X109333000Y-88137000D01*
X109335000Y-88135000D01*
X109337000Y-88133000D01*
X109339000Y-88131000D01*
X109340000Y-88129000D01*
X109342000Y-88127000D01*
X109343000Y-88125000D01*
X109345000Y-88123000D01*
X109346000Y-88120000D01*
X109347000Y-88118000D01*
X109348000Y-88115000D01*
X109348000Y-88113000D01*
X109349000Y-88110000D01*
X109349000Y-88108000D01*
X109350000Y-88105000D01*
X109350000Y-88103000D01*
X109350000Y-88100000D01*
X109350000Y-87875000D01*
X109350000Y-87872000D01*
X109350000Y-87870000D01*
X109351000Y-87867000D01*
X109351000Y-87865000D01*
X109352000Y-87862000D01*
X109352000Y-87860000D01*
X109353000Y-87857000D01*
X109354000Y-87855000D01*
X109355000Y-87852000D01*
X109357000Y-87850000D01*
X109358000Y-87848000D01*
X109360000Y-87846000D01*
X109361000Y-87844000D01*
X109363000Y-87842000D01*
X109365000Y-87840000D01*
X109367000Y-87838000D01*
X109369000Y-87836000D01*
X109371000Y-87835000D01*
X109373000Y-87833000D01*
X109375000Y-87832000D01*
X109377000Y-87830000D01*
X109380000Y-87829000D01*
X109382000Y-87828000D01*
X109385000Y-87827000D01*
X109387000Y-87827000D01*
X109390000Y-87826000D01*
X109392000Y-87826000D01*
X109395000Y-87825000D01*
X109397000Y-87825000D01*
X109400000Y-87825000D01*
X109500000Y-87825000D01*
X109503000Y-87825000D01*
X109505000Y-87825000D01*
X109508000Y-87826000D01*
X109510000Y-87826000D01*
X109513000Y-87827000D01*
X109515000Y-87827000D01*
X109518000Y-87828000D01*
X109520000Y-87829000D01*
X109523000Y-87830000D01*
X109525000Y-87832000D01*
X109527000Y-87833000D01*
X109529000Y-87835000D01*
X109531000Y-87836000D01*
X109533000Y-87838000D01*
X109535000Y-87840000D01*
X109537000Y-87842000D01*
X109539000Y-87844000D01*
X109540000Y-87846000D01*
X109542000Y-87848000D01*
X109543000Y-87850000D01*
X109545000Y-87852000D01*
X109546000Y-87855000D01*
X109547000Y-87857000D01*
X109548000Y-87860000D01*
X109548000Y-87862000D01*
X109549000Y-87865000D01*
X109549000Y-87867000D01*
X109550000Y-87870000D01*
X109550000Y-87872000D01*
X109550000Y-87875000D01*
X109550000Y-88375000D01*
X109550000Y-88378000D01*
X109550000Y-88380000D01*
X109549000Y-88383000D01*
X109549000Y-88385000D01*
X109548000Y-88388000D01*
X109548000Y-88390000D01*
X109547000Y-88393000D01*
X109546000Y-88395000D01*
X109545000Y-88398000D01*
X109543000Y-88400000D01*
X109542000Y-88402000D01*
X109540000Y-88404000D01*
X109539000Y-88406000D01*
X109537000Y-88408000D01*
X109535000Y-88410000D01*
X109533000Y-88412000D01*
X109531000Y-88414000D01*
X109529000Y-88415000D01*
X109527000Y-88417000D01*
X109525000Y-88418000D01*
X109523000Y-88420000D01*
X109520000Y-88421000D01*
X109518000Y-88422000D01*
X109515000Y-88423000D01*
X109513000Y-88423000D01*
X109510000Y-88424000D01*
X109508000Y-88424000D01*
X109505000Y-88425000D01*
X109503000Y-88425000D01*
X109500000Y-88425000D01*
X109000000Y-88425000D01*
X108997000Y-88425000D01*
X108995000Y-88425000D01*
X108992000Y-88424000D01*
X108990000Y-88424000D01*
X108987000Y-88423000D01*
X108985000Y-88423000D01*
X108982000Y-88422000D01*
X108980000Y-88421000D01*
X108977000Y-88420000D01*
X108975000Y-88418000D01*
X108973000Y-88417000D01*
X108971000Y-88415000D01*
X108969000Y-88414000D01*
X108967000Y-88412000D01*
X108965000Y-88410000D01*
X108963000Y-88408000D01*
X108961000Y-88406000D01*
X108960000Y-88404000D01*
X108958000Y-88402000D01*
X108957000Y-88400000D01*
X108955000Y-88398000D01*
X108954000Y-88395000D01*
X108953000Y-88393000D01*
X108952000Y-88390000D01*
X108952000Y-88388000D01*
X108951000Y-88385000D01*
X108951000Y-88383000D01*
X108950000Y-88380000D01*
X108950000Y-88378000D01*
X108950000Y-88375000D01*
X108950000Y-87875000D01*
X108950000Y-87872000D01*
X108950000Y-87870000D01*
X108951000Y-87867000D01*
X108951000Y-87865000D01*
X108952000Y-87862000D01*
X108952000Y-87860000D01*
X108953000Y-87857000D01*
X108954000Y-87855000D01*
X108955000Y-87852000D01*
X108957000Y-87850000D01*
X108958000Y-87848000D01*
X108960000Y-87846000D01*
X108961000Y-87844000D01*
X108963000Y-87842000D01*
X108965000Y-87840000D01*
X108967000Y-87838000D01*
X108969000Y-87836000D01*
X108971000Y-87835000D01*
X108973000Y-87833000D01*
X108975000Y-87832000D01*
X108977000Y-87830000D01*
X108980000Y-87829000D01*
X108982000Y-87828000D01*
X108985000Y-87827000D01*
X108987000Y-87827000D01*
X108990000Y-87826000D01*
X108992000Y-87826000D01*
X108995000Y-87825000D01*
X108997000Y-87825000D01*
X109000000Y-87825000D01*
X109100000Y-87825000D01*
X109103000Y-87825000D01*
X109105000Y-87825000D01*
X109108000Y-87826000D01*
G37*
X109908000Y-87826000D02*
X109910000Y-87826000D01*
X109913000Y-87827000D01*
X109915000Y-87827000D01*
X109918000Y-87828000D01*
X109920000Y-87829000D01*
X109923000Y-87830000D01*
X109925000Y-87832000D01*
X109927000Y-87833000D01*
X109929000Y-87835000D01*
X109931000Y-87836000D01*
X109933000Y-87838000D01*
X109935000Y-87840000D01*
X109937000Y-87842000D01*
X109939000Y-87844000D01*
X109940000Y-87846000D01*
X109942000Y-87848000D01*
X109943000Y-87850000D01*
X109945000Y-87852000D01*
X109946000Y-87855000D01*
X109947000Y-87857000D01*
X109948000Y-87860000D01*
X109948000Y-87862000D01*
X109949000Y-87865000D01*
X109949000Y-87867000D01*
X109950000Y-87870000D01*
X109950000Y-87872000D01*
X109950000Y-87875000D01*
X109950000Y-88100000D01*
X109950000Y-88103000D01*
X109950000Y-88105000D01*
X109951000Y-88108000D01*
X109951000Y-88110000D01*
X109952000Y-88113000D01*
X109952000Y-88115000D01*
X109953000Y-88118000D01*
X109954000Y-88120000D01*
X109955000Y-88123000D01*
X109957000Y-88125000D01*
X109958000Y-88127000D01*
X109960000Y-88129000D01*
X109961000Y-88131000D01*
X109963000Y-88133000D01*
X109965000Y-88135000D01*
X109967000Y-88137000D01*
X109969000Y-88139000D01*
X109971000Y-88140000D01*
X109973000Y-88142000D01*
X109975000Y-88143000D01*
X109977000Y-88145000D01*
X109980000Y-88146000D01*
X109982000Y-88147000D01*
X109985000Y-88148000D01*
X109987000Y-88148000D01*
X109990000Y-88149000D01*
X109992000Y-88149000D01*
X109995000Y-88150000D01*
X109997000Y-88150000D01*
X110000000Y-88150000D01*
X110100000Y-88150000D01*
X110103000Y-88150000D01*
X110105000Y-88150000D01*
X110108000Y-88149000D01*
X110110000Y-88149000D01*
X110113000Y-88148000D01*
X110115000Y-88148000D01*
X110118000Y-88147000D01*
X110120000Y-88146000D01*
X110123000Y-88145000D01*
X110125000Y-88143000D01*
X110127000Y-88142000D01*
X110129000Y-88140000D01*
X110131000Y-88139000D01*
X110133000Y-88137000D01*
X110135000Y-88135000D01*
X110137000Y-88133000D01*
X110139000Y-88131000D01*
X110140000Y-88129000D01*
X110142000Y-88127000D01*
X110143000Y-88125000D01*
X110145000Y-88123000D01*
X110146000Y-88120000D01*
X110147000Y-88118000D01*
X110148000Y-88115000D01*
X110148000Y-88113000D01*
X110149000Y-88110000D01*
X110149000Y-88108000D01*
X110150000Y-88105000D01*
X110150000Y-88103000D01*
X110150000Y-88100000D01*
X110150000Y-87875000D01*
X110150000Y-87872000D01*
X110150000Y-87870000D01*
X110151000Y-87867000D01*
X110151000Y-87865000D01*
X110152000Y-87862000D01*
X110152000Y-87860000D01*
X110153000Y-87857000D01*
X110154000Y-87855000D01*
X110155000Y-87852000D01*
X110157000Y-87850000D01*
X110158000Y-87848000D01*
X110160000Y-87846000D01*
X110161000Y-87844000D01*
X110163000Y-87842000D01*
X110165000Y-87840000D01*
X110167000Y-87838000D01*
X110169000Y-87836000D01*
X110171000Y-87835000D01*
X110173000Y-87833000D01*
X110175000Y-87832000D01*
X110177000Y-87830000D01*
X110180000Y-87829000D01*
X110182000Y-87828000D01*
X110185000Y-87827000D01*
X110187000Y-87827000D01*
X110190000Y-87826000D01*
X110192000Y-87826000D01*
X110195000Y-87825000D01*
X110197000Y-87825000D01*
X110200000Y-87825000D01*
X110300000Y-87825000D01*
X110303000Y-87825000D01*
X110305000Y-87825000D01*
X110308000Y-87826000D01*
X110310000Y-87826000D01*
X110313000Y-87827000D01*
X110315000Y-87827000D01*
X110318000Y-87828000D01*
X110320000Y-87829000D01*
X110323000Y-87830000D01*
X110325000Y-87832000D01*
X110327000Y-87833000D01*
X110329000Y-87835000D01*
X110331000Y-87836000D01*
X110333000Y-87838000D01*
X110335000Y-87840000D01*
X110337000Y-87842000D01*
X110339000Y-87844000D01*
X110340000Y-87846000D01*
X110342000Y-87848000D01*
X110343000Y-87850000D01*
X110345000Y-87852000D01*
X110346000Y-87855000D01*
X110347000Y-87857000D01*
X110348000Y-87860000D01*
X110348000Y-87862000D01*
X110349000Y-87865000D01*
X110349000Y-87867000D01*
X110350000Y-87870000D01*
X110350000Y-87872000D01*
X110350000Y-87875000D01*
X110350000Y-88375000D01*
X110350000Y-88378000D01*
X110350000Y-88380000D01*
X110349000Y-88383000D01*
X110349000Y-88385000D01*
X110348000Y-88388000D01*
X110348000Y-88390000D01*
X110347000Y-88393000D01*
X110346000Y-88395000D01*
X110345000Y-88398000D01*
X110343000Y-88400000D01*
X110342000Y-88402000D01*
X110340000Y-88404000D01*
X110339000Y-88406000D01*
X110337000Y-88408000D01*
X110335000Y-88410000D01*
X110333000Y-88412000D01*
X110331000Y-88414000D01*
X110329000Y-88415000D01*
X110327000Y-88417000D01*
X110325000Y-88418000D01*
X110323000Y-88420000D01*
X110320000Y-88421000D01*
X110318000Y-88422000D01*
X110315000Y-88423000D01*
X110313000Y-88423000D01*
X110310000Y-88424000D01*
X110308000Y-88424000D01*
X110305000Y-88425000D01*
X110303000Y-88425000D01*
X110300000Y-88425000D01*
X109800000Y-88425000D01*
X109797000Y-88425000D01*
X109795000Y-88425000D01*
X109792000Y-88424000D01*
X109790000Y-88424000D01*
X109787000Y-88423000D01*
X109785000Y-88423000D01*
X109782000Y-88422000D01*
X109780000Y-88421000D01*
X109777000Y-88420000D01*
X109775000Y-88418000D01*
X109773000Y-88417000D01*
X109771000Y-88415000D01*
X109769000Y-88414000D01*
X109767000Y-88412000D01*
X109765000Y-88410000D01*
X109763000Y-88408000D01*
X109761000Y-88406000D01*
X109760000Y-88404000D01*
X109758000Y-88402000D01*
X109757000Y-88400000D01*
X109755000Y-88398000D01*
X109754000Y-88395000D01*
X109753000Y-88393000D01*
X109752000Y-88390000D01*
X109752000Y-88388000D01*
X109751000Y-88385000D01*
X109751000Y-88383000D01*
X109750000Y-88380000D01*
X109750000Y-88378000D01*
X109750000Y-88375000D01*
X109750000Y-87875000D01*
X109750000Y-87872000D01*
X109750000Y-87870000D01*
X109751000Y-87867000D01*
X109751000Y-87865000D01*
X109752000Y-87862000D01*
X109752000Y-87860000D01*
X109753000Y-87857000D01*
X109754000Y-87855000D01*
X109755000Y-87852000D01*
X109757000Y-87850000D01*
X109758000Y-87848000D01*
X109760000Y-87846000D01*
X109761000Y-87844000D01*
X109763000Y-87842000D01*
X109765000Y-87840000D01*
X109767000Y-87838000D01*
X109769000Y-87836000D01*
X109771000Y-87835000D01*
X109773000Y-87833000D01*
X109775000Y-87832000D01*
X109777000Y-87830000D01*
X109780000Y-87829000D01*
X109782000Y-87828000D01*
X109785000Y-87827000D01*
X109787000Y-87827000D01*
X109790000Y-87826000D01*
X109792000Y-87826000D01*
X109795000Y-87825000D01*
X109797000Y-87825000D01*
X109800000Y-87825000D01*
X109900000Y-87825000D01*
X109903000Y-87825000D01*
X109905000Y-87825000D01*
X109908000Y-87826000D01*
G36*
X109908000Y-87826000D02*
G01*
X109910000Y-87826000D01*
X109913000Y-87827000D01*
X109915000Y-87827000D01*
X109918000Y-87828000D01*
X109920000Y-87829000D01*
X109923000Y-87830000D01*
X109925000Y-87832000D01*
X109927000Y-87833000D01*
X109929000Y-87835000D01*
X109931000Y-87836000D01*
X109933000Y-87838000D01*
X109935000Y-87840000D01*
X109937000Y-87842000D01*
X109939000Y-87844000D01*
X109940000Y-87846000D01*
X109942000Y-87848000D01*
X109943000Y-87850000D01*
X109945000Y-87852000D01*
X109946000Y-87855000D01*
X109947000Y-87857000D01*
X109948000Y-87860000D01*
X109948000Y-87862000D01*
X109949000Y-87865000D01*
X109949000Y-87867000D01*
X109950000Y-87870000D01*
X109950000Y-87872000D01*
X109950000Y-87875000D01*
X109950000Y-88100000D01*
X109950000Y-88103000D01*
X109950000Y-88105000D01*
X109951000Y-88108000D01*
X109951000Y-88110000D01*
X109952000Y-88113000D01*
X109952000Y-88115000D01*
X109953000Y-88118000D01*
X109954000Y-88120000D01*
X109955000Y-88123000D01*
X109957000Y-88125000D01*
X109958000Y-88127000D01*
X109960000Y-88129000D01*
X109961000Y-88131000D01*
X109963000Y-88133000D01*
X109965000Y-88135000D01*
X109967000Y-88137000D01*
X109969000Y-88139000D01*
X109971000Y-88140000D01*
X109973000Y-88142000D01*
X109975000Y-88143000D01*
X109977000Y-88145000D01*
X109980000Y-88146000D01*
X109982000Y-88147000D01*
X109985000Y-88148000D01*
X109987000Y-88148000D01*
X109990000Y-88149000D01*
X109992000Y-88149000D01*
X109995000Y-88150000D01*
X109997000Y-88150000D01*
X110000000Y-88150000D01*
X110100000Y-88150000D01*
X110103000Y-88150000D01*
X110105000Y-88150000D01*
X110108000Y-88149000D01*
X110110000Y-88149000D01*
X110113000Y-88148000D01*
X110115000Y-88148000D01*
X110118000Y-88147000D01*
X110120000Y-88146000D01*
X110123000Y-88145000D01*
X110125000Y-88143000D01*
X110127000Y-88142000D01*
X110129000Y-88140000D01*
X110131000Y-88139000D01*
X110133000Y-88137000D01*
X110135000Y-88135000D01*
X110137000Y-88133000D01*
X110139000Y-88131000D01*
X110140000Y-88129000D01*
X110142000Y-88127000D01*
X110143000Y-88125000D01*
X110145000Y-88123000D01*
X110146000Y-88120000D01*
X110147000Y-88118000D01*
X110148000Y-88115000D01*
X110148000Y-88113000D01*
X110149000Y-88110000D01*
X110149000Y-88108000D01*
X110150000Y-88105000D01*
X110150000Y-88103000D01*
X110150000Y-88100000D01*
X110150000Y-87875000D01*
X110150000Y-87872000D01*
X110150000Y-87870000D01*
X110151000Y-87867000D01*
X110151000Y-87865000D01*
X110152000Y-87862000D01*
X110152000Y-87860000D01*
X110153000Y-87857000D01*
X110154000Y-87855000D01*
X110155000Y-87852000D01*
X110157000Y-87850000D01*
X110158000Y-87848000D01*
X110160000Y-87846000D01*
X110161000Y-87844000D01*
X110163000Y-87842000D01*
X110165000Y-87840000D01*
X110167000Y-87838000D01*
X110169000Y-87836000D01*
X110171000Y-87835000D01*
X110173000Y-87833000D01*
X110175000Y-87832000D01*
X110177000Y-87830000D01*
X110180000Y-87829000D01*
X110182000Y-87828000D01*
X110185000Y-87827000D01*
X110187000Y-87827000D01*
X110190000Y-87826000D01*
X110192000Y-87826000D01*
X110195000Y-87825000D01*
X110197000Y-87825000D01*
X110200000Y-87825000D01*
X110300000Y-87825000D01*
X110303000Y-87825000D01*
X110305000Y-87825000D01*
X110308000Y-87826000D01*
X110310000Y-87826000D01*
X110313000Y-87827000D01*
X110315000Y-87827000D01*
X110318000Y-87828000D01*
X110320000Y-87829000D01*
X110323000Y-87830000D01*
X110325000Y-87832000D01*
X110327000Y-87833000D01*
X110329000Y-87835000D01*
X110331000Y-87836000D01*
X110333000Y-87838000D01*
X110335000Y-87840000D01*
X110337000Y-87842000D01*
X110339000Y-87844000D01*
X110340000Y-87846000D01*
X110342000Y-87848000D01*
X110343000Y-87850000D01*
X110345000Y-87852000D01*
X110346000Y-87855000D01*
X110347000Y-87857000D01*
X110348000Y-87860000D01*
X110348000Y-87862000D01*
X110349000Y-87865000D01*
X110349000Y-87867000D01*
X110350000Y-87870000D01*
X110350000Y-87872000D01*
X110350000Y-87875000D01*
X110350000Y-88375000D01*
X110350000Y-88378000D01*
X110350000Y-88380000D01*
X110349000Y-88383000D01*
X110349000Y-88385000D01*
X110348000Y-88388000D01*
X110348000Y-88390000D01*
X110347000Y-88393000D01*
X110346000Y-88395000D01*
X110345000Y-88398000D01*
X110343000Y-88400000D01*
X110342000Y-88402000D01*
X110340000Y-88404000D01*
X110339000Y-88406000D01*
X110337000Y-88408000D01*
X110335000Y-88410000D01*
X110333000Y-88412000D01*
X110331000Y-88414000D01*
X110329000Y-88415000D01*
X110327000Y-88417000D01*
X110325000Y-88418000D01*
X110323000Y-88420000D01*
X110320000Y-88421000D01*
X110318000Y-88422000D01*
X110315000Y-88423000D01*
X110313000Y-88423000D01*
X110310000Y-88424000D01*
X110308000Y-88424000D01*
X110305000Y-88425000D01*
X110303000Y-88425000D01*
X110300000Y-88425000D01*
X109800000Y-88425000D01*
X109797000Y-88425000D01*
X109795000Y-88425000D01*
X109792000Y-88424000D01*
X109790000Y-88424000D01*
X109787000Y-88423000D01*
X109785000Y-88423000D01*
X109782000Y-88422000D01*
X109780000Y-88421000D01*
X109777000Y-88420000D01*
X109775000Y-88418000D01*
X109773000Y-88417000D01*
X109771000Y-88415000D01*
X109769000Y-88414000D01*
X109767000Y-88412000D01*
X109765000Y-88410000D01*
X109763000Y-88408000D01*
X109761000Y-88406000D01*
X109760000Y-88404000D01*
X109758000Y-88402000D01*
X109757000Y-88400000D01*
X109755000Y-88398000D01*
X109754000Y-88395000D01*
X109753000Y-88393000D01*
X109752000Y-88390000D01*
X109752000Y-88388000D01*
X109751000Y-88385000D01*
X109751000Y-88383000D01*
X109750000Y-88380000D01*
X109750000Y-88378000D01*
X109750000Y-88375000D01*
X109750000Y-87875000D01*
X109750000Y-87872000D01*
X109750000Y-87870000D01*
X109751000Y-87867000D01*
X109751000Y-87865000D01*
X109752000Y-87862000D01*
X109752000Y-87860000D01*
X109753000Y-87857000D01*
X109754000Y-87855000D01*
X109755000Y-87852000D01*
X109757000Y-87850000D01*
X109758000Y-87848000D01*
X109760000Y-87846000D01*
X109761000Y-87844000D01*
X109763000Y-87842000D01*
X109765000Y-87840000D01*
X109767000Y-87838000D01*
X109769000Y-87836000D01*
X109771000Y-87835000D01*
X109773000Y-87833000D01*
X109775000Y-87832000D01*
X109777000Y-87830000D01*
X109780000Y-87829000D01*
X109782000Y-87828000D01*
X109785000Y-87827000D01*
X109787000Y-87827000D01*
X109790000Y-87826000D01*
X109792000Y-87826000D01*
X109795000Y-87825000D01*
X109797000Y-87825000D01*
X109800000Y-87825000D01*
X109900000Y-87825000D01*
X109903000Y-87825000D01*
X109905000Y-87825000D01*
X109908000Y-87826000D01*
G37*
X113408000Y-88773000D02*
X113410000Y-88773000D01*
X113413000Y-88774000D01*
X113415000Y-88774000D01*
X113418000Y-88775000D01*
X113420000Y-88776000D01*
X113423000Y-88777000D01*
X113425000Y-88779000D01*
X113427000Y-88780000D01*
X113429000Y-88782000D01*
X113431000Y-88783000D01*
X113433000Y-88785000D01*
X113435000Y-88787000D01*
X113437000Y-88789000D01*
X113439000Y-88791000D01*
X113440000Y-88793000D01*
X113442000Y-88795000D01*
X113443000Y-88797000D01*
X113445000Y-88799000D01*
X113446000Y-88802000D01*
X113447000Y-88804000D01*
X113448000Y-88807000D01*
X113448000Y-88809000D01*
X113449000Y-88812000D01*
X113449000Y-88814000D01*
X113450000Y-88817000D01*
X113450000Y-88819000D01*
X113450000Y-88822000D01*
X113450000Y-88975000D01*
X113450000Y-88978000D01*
X113450000Y-88980000D01*
X113449000Y-88983000D01*
X113449000Y-88985000D01*
X113448000Y-88988000D01*
X113448000Y-88990000D01*
X113447000Y-88993000D01*
X113446000Y-88995000D01*
X113445000Y-88998000D01*
X113443000Y-89000000D01*
X113442000Y-89002000D01*
X113440000Y-89004000D01*
X113439000Y-89006000D01*
X113437000Y-89008000D01*
X113435000Y-89010000D01*
X113433000Y-89012000D01*
X113431000Y-89014000D01*
X113429000Y-89015000D01*
X113427000Y-89017000D01*
X113425000Y-89018000D01*
X113423000Y-89020000D01*
X113420000Y-89021000D01*
X113418000Y-89022000D01*
X113415000Y-89023000D01*
X113413000Y-89023000D01*
X113410000Y-89024000D01*
X113408000Y-89024000D01*
X113405000Y-89025000D01*
X113403000Y-89025000D01*
X113400000Y-89025000D01*
X113175000Y-89025000D01*
X113172000Y-89025000D01*
X113170000Y-89025000D01*
X113167000Y-89026000D01*
X113165000Y-89026000D01*
X113162000Y-89027000D01*
X113160000Y-89027000D01*
X113157000Y-89028000D01*
X113155000Y-89029000D01*
X113152000Y-89030000D01*
X113150000Y-89032000D01*
X113148000Y-89033000D01*
X113146000Y-89035000D01*
X113144000Y-89036000D01*
X113142000Y-89038000D01*
X113140000Y-89040000D01*
X113138000Y-89042000D01*
X113136000Y-89044000D01*
X113135000Y-89046000D01*
X113133000Y-89048000D01*
X113132000Y-89050000D01*
X113130000Y-89052000D01*
X113129000Y-89055000D01*
X113128000Y-89057000D01*
X113127000Y-89060000D01*
X113127000Y-89062000D01*
X113126000Y-89065000D01*
X113126000Y-89067000D01*
X113125000Y-89070000D01*
X113125000Y-89072000D01*
X113125000Y-89075000D01*
X113125000Y-89225000D01*
X113125000Y-89228000D01*
X113125000Y-89230000D01*
X113126000Y-89233000D01*
X113126000Y-89235000D01*
X113127000Y-89238000D01*
X113127000Y-89240000D01*
X113128000Y-89243000D01*
X113129000Y-89245000D01*
X113130000Y-89248000D01*
X113132000Y-89250000D01*
X113133000Y-89252000D01*
X113135000Y-89254000D01*
X113136000Y-89256000D01*
X113138000Y-89258000D01*
X113140000Y-89260000D01*
X113142000Y-89262000D01*
X113144000Y-89264000D01*
X113146000Y-89265000D01*
X113148000Y-89267000D01*
X113150000Y-89268000D01*
X113152000Y-89270000D01*
X113155000Y-89271000D01*
X113157000Y-89272000D01*
X113160000Y-89273000D01*
X113162000Y-89273000D01*
X113165000Y-89274000D01*
X113167000Y-89274000D01*
X113170000Y-89275000D01*
X113172000Y-89275000D01*
X113175000Y-89275000D01*
X113400000Y-89275000D01*
X113403000Y-89275000D01*
X113405000Y-89275000D01*
X113408000Y-89276000D01*
X113410000Y-89276000D01*
X113413000Y-89277000D01*
X113415000Y-89277000D01*
X113418000Y-89278000D01*
X113420000Y-89279000D01*
X113423000Y-89280000D01*
X113425000Y-89282000D01*
X113427000Y-89283000D01*
X113429000Y-89285000D01*
X113431000Y-89286000D01*
X113433000Y-89288000D01*
X113435000Y-89290000D01*
X113437000Y-89292000D01*
X113439000Y-89294000D01*
X113440000Y-89296000D01*
X113442000Y-89298000D01*
X113443000Y-89300000D01*
X113445000Y-89302000D01*
X113446000Y-89305000D01*
X113447000Y-89307000D01*
X113448000Y-89310000D01*
X113448000Y-89312000D01*
X113449000Y-89315000D01*
X113449000Y-89317000D01*
X113450000Y-89320000D01*
X113450000Y-89322000D01*
X113450000Y-89325000D01*
X113450000Y-89425000D01*
X113450000Y-89428000D01*
X113450000Y-89430000D01*
X113449000Y-89433000D01*
X113449000Y-89435000D01*
X113448000Y-89438000D01*
X113448000Y-89440000D01*
X113447000Y-89443000D01*
X113446000Y-89445000D01*
X113445000Y-89448000D01*
X113443000Y-89450000D01*
X113442000Y-89452000D01*
X113440000Y-89454000D01*
X113439000Y-89456000D01*
X113437000Y-89458000D01*
X113435000Y-89460000D01*
X113433000Y-89462000D01*
X113431000Y-89464000D01*
X113429000Y-89465000D01*
X113427000Y-89467000D01*
X113425000Y-89468000D01*
X113423000Y-89470000D01*
X113420000Y-89471000D01*
X113418000Y-89472000D01*
X113415000Y-89473000D01*
X113413000Y-89473000D01*
X113410000Y-89474000D01*
X113408000Y-89474000D01*
X113405000Y-89475000D01*
X113403000Y-89475000D01*
X113400000Y-89475000D01*
X113175000Y-89475000D01*
X113172000Y-89475000D01*
X113170000Y-89475000D01*
X113167000Y-89476000D01*
X113165000Y-89476000D01*
X113162000Y-89477000D01*
X113160000Y-89477000D01*
X113157000Y-89478000D01*
X113155000Y-89479000D01*
X113152000Y-89480000D01*
X113150000Y-89482000D01*
X113148000Y-89483000D01*
X113146000Y-89485000D01*
X113144000Y-89486000D01*
X113142000Y-89488000D01*
X113140000Y-89490000D01*
X113138000Y-89492000D01*
X113136000Y-89494000D01*
X113135000Y-89496000D01*
X113133000Y-89498000D01*
X113132000Y-89500000D01*
X113130000Y-89502000D01*
X113129000Y-89505000D01*
X113128000Y-89507000D01*
X113127000Y-89510000D01*
X113127000Y-89512000D01*
X113126000Y-89515000D01*
X113126000Y-89517000D01*
X113125000Y-89520000D01*
X113125000Y-89522000D01*
X113125000Y-89525000D01*
X113125000Y-89675000D01*
X113125000Y-89678000D01*
X113125000Y-89680000D01*
X113126000Y-89683000D01*
X113126000Y-89685000D01*
X113127000Y-89688000D01*
X113127000Y-89690000D01*
X113128000Y-89693000D01*
X113129000Y-89695000D01*
X113130000Y-89698000D01*
X113132000Y-89700000D01*
X113133000Y-89702000D01*
X113135000Y-89704000D01*
X113136000Y-89706000D01*
X113138000Y-89708000D01*
X113140000Y-89710000D01*
X113142000Y-89712000D01*
X113144000Y-89714000D01*
X113146000Y-89715000D01*
X113148000Y-89717000D01*
X113150000Y-89718000D01*
X113152000Y-89720000D01*
X113155000Y-89721000D01*
X113157000Y-89722000D01*
X113160000Y-89723000D01*
X113162000Y-89723000D01*
X113165000Y-89724000D01*
X113167000Y-89724000D01*
X113170000Y-89725000D01*
X113172000Y-89725000D01*
X113175000Y-89725000D01*
X113400000Y-89725000D01*
X113403000Y-89725000D01*
X113405000Y-89725000D01*
X113408000Y-89726000D01*
X113410000Y-89726000D01*
X113413000Y-89727000D01*
X113415000Y-89727000D01*
X113418000Y-89728000D01*
X113420000Y-89729000D01*
X113423000Y-89730000D01*
X113425000Y-89732000D01*
X113427000Y-89733000D01*
X113429000Y-89735000D01*
X113431000Y-89736000D01*
X113433000Y-89738000D01*
X113435000Y-89740000D01*
X113437000Y-89742000D01*
X113439000Y-89744000D01*
X113440000Y-89746000D01*
X113442000Y-89748000D01*
X113443000Y-89750000D01*
X113445000Y-89752000D01*
X113446000Y-89755000D01*
X113447000Y-89757000D01*
X113448000Y-89760000D01*
X113448000Y-89762000D01*
X113449000Y-89765000D01*
X113449000Y-89767000D01*
X113450000Y-89770000D01*
X113450000Y-89772000D01*
X113450000Y-89775000D01*
X113450000Y-89875000D01*
X113450000Y-89878000D01*
X113450000Y-89880000D01*
X113449000Y-89883000D01*
X113449000Y-89885000D01*
X113448000Y-89888000D01*
X113448000Y-89890000D01*
X113447000Y-89893000D01*
X113446000Y-89895000D01*
X113445000Y-89898000D01*
X113443000Y-89900000D01*
X113442000Y-89902000D01*
X113440000Y-89904000D01*
X113439000Y-89906000D01*
X113437000Y-89908000D01*
X113435000Y-89910000D01*
X113433000Y-89912000D01*
X113431000Y-89914000D01*
X113429000Y-89915000D01*
X113427000Y-89917000D01*
X113425000Y-89918000D01*
X113423000Y-89920000D01*
X113420000Y-89921000D01*
X113418000Y-89922000D01*
X113415000Y-89923000D01*
X113413000Y-89923000D01*
X113410000Y-89924000D01*
X113408000Y-89924000D01*
X113405000Y-89925000D01*
X113403000Y-89925000D01*
X113400000Y-89925000D01*
X112900000Y-89925000D01*
X112897000Y-89925000D01*
X112895000Y-89925000D01*
X112892000Y-89924000D01*
X112890000Y-89924000D01*
X112887000Y-89923000D01*
X112885000Y-89923000D01*
X112882000Y-89922000D01*
X112880000Y-89921000D01*
X112877000Y-89920000D01*
X112875000Y-89918000D01*
X112873000Y-89917000D01*
X112871000Y-89915000D01*
X112869000Y-89914000D01*
X112867000Y-89912000D01*
X112865000Y-89910000D01*
X112863000Y-89908000D01*
X112861000Y-89906000D01*
X112860000Y-89904000D01*
X112858000Y-89902000D01*
X112857000Y-89900000D01*
X112855000Y-89898000D01*
X112854000Y-89895000D01*
X112853000Y-89893000D01*
X112852000Y-89890000D01*
X112852000Y-89888000D01*
X112851000Y-89885000D01*
X112851000Y-89883000D01*
X112850000Y-89880000D01*
X112850000Y-89878000D01*
X112850000Y-89875000D01*
X112850000Y-88822000D01*
X112850000Y-88819000D01*
X112850000Y-88817000D01*
X112851000Y-88814000D01*
X112851000Y-88812000D01*
X112852000Y-88809000D01*
X112852000Y-88807000D01*
X112853000Y-88804000D01*
X112854000Y-88802000D01*
X112855000Y-88799000D01*
X112857000Y-88797000D01*
X112858000Y-88795000D01*
X112860000Y-88793000D01*
X112861000Y-88791000D01*
X112863000Y-88789000D01*
X112865000Y-88787000D01*
X112867000Y-88785000D01*
X112869000Y-88783000D01*
X112871000Y-88782000D01*
X112873000Y-88780000D01*
X112875000Y-88779000D01*
X112877000Y-88777000D01*
X112880000Y-88776000D01*
X112882000Y-88775000D01*
X112885000Y-88774000D01*
X112887000Y-88774000D01*
X112890000Y-88773000D01*
X112892000Y-88773000D01*
X112895000Y-88772000D01*
X112897000Y-88772000D01*
X112900000Y-88772000D01*
X113400000Y-88772000D01*
X113403000Y-88772000D01*
X113405000Y-88772000D01*
X113408000Y-88773000D01*
G36*
X113408000Y-88773000D02*
G01*
X113410000Y-88773000D01*
X113413000Y-88774000D01*
X113415000Y-88774000D01*
X113418000Y-88775000D01*
X113420000Y-88776000D01*
X113423000Y-88777000D01*
X113425000Y-88779000D01*
X113427000Y-88780000D01*
X113429000Y-88782000D01*
X113431000Y-88783000D01*
X113433000Y-88785000D01*
X113435000Y-88787000D01*
X113437000Y-88789000D01*
X113439000Y-88791000D01*
X113440000Y-88793000D01*
X113442000Y-88795000D01*
X113443000Y-88797000D01*
X113445000Y-88799000D01*
X113446000Y-88802000D01*
X113447000Y-88804000D01*
X113448000Y-88807000D01*
X113448000Y-88809000D01*
X113449000Y-88812000D01*
X113449000Y-88814000D01*
X113450000Y-88817000D01*
X113450000Y-88819000D01*
X113450000Y-88822000D01*
X113450000Y-88975000D01*
X113450000Y-88978000D01*
X113450000Y-88980000D01*
X113449000Y-88983000D01*
X113449000Y-88985000D01*
X113448000Y-88988000D01*
X113448000Y-88990000D01*
X113447000Y-88993000D01*
X113446000Y-88995000D01*
X113445000Y-88998000D01*
X113443000Y-89000000D01*
X113442000Y-89002000D01*
X113440000Y-89004000D01*
X113439000Y-89006000D01*
X113437000Y-89008000D01*
X113435000Y-89010000D01*
X113433000Y-89012000D01*
X113431000Y-89014000D01*
X113429000Y-89015000D01*
X113427000Y-89017000D01*
X113425000Y-89018000D01*
X113423000Y-89020000D01*
X113420000Y-89021000D01*
X113418000Y-89022000D01*
X113415000Y-89023000D01*
X113413000Y-89023000D01*
X113410000Y-89024000D01*
X113408000Y-89024000D01*
X113405000Y-89025000D01*
X113403000Y-89025000D01*
X113400000Y-89025000D01*
X113175000Y-89025000D01*
X113172000Y-89025000D01*
X113170000Y-89025000D01*
X113167000Y-89026000D01*
X113165000Y-89026000D01*
X113162000Y-89027000D01*
X113160000Y-89027000D01*
X113157000Y-89028000D01*
X113155000Y-89029000D01*
X113152000Y-89030000D01*
X113150000Y-89032000D01*
X113148000Y-89033000D01*
X113146000Y-89035000D01*
X113144000Y-89036000D01*
X113142000Y-89038000D01*
X113140000Y-89040000D01*
X113138000Y-89042000D01*
X113136000Y-89044000D01*
X113135000Y-89046000D01*
X113133000Y-89048000D01*
X113132000Y-89050000D01*
X113130000Y-89052000D01*
X113129000Y-89055000D01*
X113128000Y-89057000D01*
X113127000Y-89060000D01*
X113127000Y-89062000D01*
X113126000Y-89065000D01*
X113126000Y-89067000D01*
X113125000Y-89070000D01*
X113125000Y-89072000D01*
X113125000Y-89075000D01*
X113125000Y-89225000D01*
X113125000Y-89228000D01*
X113125000Y-89230000D01*
X113126000Y-89233000D01*
X113126000Y-89235000D01*
X113127000Y-89238000D01*
X113127000Y-89240000D01*
X113128000Y-89243000D01*
X113129000Y-89245000D01*
X113130000Y-89248000D01*
X113132000Y-89250000D01*
X113133000Y-89252000D01*
X113135000Y-89254000D01*
X113136000Y-89256000D01*
X113138000Y-89258000D01*
X113140000Y-89260000D01*
X113142000Y-89262000D01*
X113144000Y-89264000D01*
X113146000Y-89265000D01*
X113148000Y-89267000D01*
X113150000Y-89268000D01*
X113152000Y-89270000D01*
X113155000Y-89271000D01*
X113157000Y-89272000D01*
X113160000Y-89273000D01*
X113162000Y-89273000D01*
X113165000Y-89274000D01*
X113167000Y-89274000D01*
X113170000Y-89275000D01*
X113172000Y-89275000D01*
X113175000Y-89275000D01*
X113400000Y-89275000D01*
X113403000Y-89275000D01*
X113405000Y-89275000D01*
X113408000Y-89276000D01*
X113410000Y-89276000D01*
X113413000Y-89277000D01*
X113415000Y-89277000D01*
X113418000Y-89278000D01*
X113420000Y-89279000D01*
X113423000Y-89280000D01*
X113425000Y-89282000D01*
X113427000Y-89283000D01*
X113429000Y-89285000D01*
X113431000Y-89286000D01*
X113433000Y-89288000D01*
X113435000Y-89290000D01*
X113437000Y-89292000D01*
X113439000Y-89294000D01*
X113440000Y-89296000D01*
X113442000Y-89298000D01*
X113443000Y-89300000D01*
X113445000Y-89302000D01*
X113446000Y-89305000D01*
X113447000Y-89307000D01*
X113448000Y-89310000D01*
X113448000Y-89312000D01*
X113449000Y-89315000D01*
X113449000Y-89317000D01*
X113450000Y-89320000D01*
X113450000Y-89322000D01*
X113450000Y-89325000D01*
X113450000Y-89425000D01*
X113450000Y-89428000D01*
X113450000Y-89430000D01*
X113449000Y-89433000D01*
X113449000Y-89435000D01*
X113448000Y-89438000D01*
X113448000Y-89440000D01*
X113447000Y-89443000D01*
X113446000Y-89445000D01*
X113445000Y-89448000D01*
X113443000Y-89450000D01*
X113442000Y-89452000D01*
X113440000Y-89454000D01*
X113439000Y-89456000D01*
X113437000Y-89458000D01*
X113435000Y-89460000D01*
X113433000Y-89462000D01*
X113431000Y-89464000D01*
X113429000Y-89465000D01*
X113427000Y-89467000D01*
X113425000Y-89468000D01*
X113423000Y-89470000D01*
X113420000Y-89471000D01*
X113418000Y-89472000D01*
X113415000Y-89473000D01*
X113413000Y-89473000D01*
X113410000Y-89474000D01*
X113408000Y-89474000D01*
X113405000Y-89475000D01*
X113403000Y-89475000D01*
X113400000Y-89475000D01*
X113175000Y-89475000D01*
X113172000Y-89475000D01*
X113170000Y-89475000D01*
X113167000Y-89476000D01*
X113165000Y-89476000D01*
X113162000Y-89477000D01*
X113160000Y-89477000D01*
X113157000Y-89478000D01*
X113155000Y-89479000D01*
X113152000Y-89480000D01*
X113150000Y-89482000D01*
X113148000Y-89483000D01*
X113146000Y-89485000D01*
X113144000Y-89486000D01*
X113142000Y-89488000D01*
X113140000Y-89490000D01*
X113138000Y-89492000D01*
X113136000Y-89494000D01*
X113135000Y-89496000D01*
X113133000Y-89498000D01*
X113132000Y-89500000D01*
X113130000Y-89502000D01*
X113129000Y-89505000D01*
X113128000Y-89507000D01*
X113127000Y-89510000D01*
X113127000Y-89512000D01*
X113126000Y-89515000D01*
X113126000Y-89517000D01*
X113125000Y-89520000D01*
X113125000Y-89522000D01*
X113125000Y-89525000D01*
X113125000Y-89675000D01*
X113125000Y-89678000D01*
X113125000Y-89680000D01*
X113126000Y-89683000D01*
X113126000Y-89685000D01*
X113127000Y-89688000D01*
X113127000Y-89690000D01*
X113128000Y-89693000D01*
X113129000Y-89695000D01*
X113130000Y-89698000D01*
X113132000Y-89700000D01*
X113133000Y-89702000D01*
X113135000Y-89704000D01*
X113136000Y-89706000D01*
X113138000Y-89708000D01*
X113140000Y-89710000D01*
X113142000Y-89712000D01*
X113144000Y-89714000D01*
X113146000Y-89715000D01*
X113148000Y-89717000D01*
X113150000Y-89718000D01*
X113152000Y-89720000D01*
X113155000Y-89721000D01*
X113157000Y-89722000D01*
X113160000Y-89723000D01*
X113162000Y-89723000D01*
X113165000Y-89724000D01*
X113167000Y-89724000D01*
X113170000Y-89725000D01*
X113172000Y-89725000D01*
X113175000Y-89725000D01*
X113400000Y-89725000D01*
X113403000Y-89725000D01*
X113405000Y-89725000D01*
X113408000Y-89726000D01*
X113410000Y-89726000D01*
X113413000Y-89727000D01*
X113415000Y-89727000D01*
X113418000Y-89728000D01*
X113420000Y-89729000D01*
X113423000Y-89730000D01*
X113425000Y-89732000D01*
X113427000Y-89733000D01*
X113429000Y-89735000D01*
X113431000Y-89736000D01*
X113433000Y-89738000D01*
X113435000Y-89740000D01*
X113437000Y-89742000D01*
X113439000Y-89744000D01*
X113440000Y-89746000D01*
X113442000Y-89748000D01*
X113443000Y-89750000D01*
X113445000Y-89752000D01*
X113446000Y-89755000D01*
X113447000Y-89757000D01*
X113448000Y-89760000D01*
X113448000Y-89762000D01*
X113449000Y-89765000D01*
X113449000Y-89767000D01*
X113450000Y-89770000D01*
X113450000Y-89772000D01*
X113450000Y-89775000D01*
X113450000Y-89875000D01*
X113450000Y-89878000D01*
X113450000Y-89880000D01*
X113449000Y-89883000D01*
X113449000Y-89885000D01*
X113448000Y-89888000D01*
X113448000Y-89890000D01*
X113447000Y-89893000D01*
X113446000Y-89895000D01*
X113445000Y-89898000D01*
X113443000Y-89900000D01*
X113442000Y-89902000D01*
X113440000Y-89904000D01*
X113439000Y-89906000D01*
X113437000Y-89908000D01*
X113435000Y-89910000D01*
X113433000Y-89912000D01*
X113431000Y-89914000D01*
X113429000Y-89915000D01*
X113427000Y-89917000D01*
X113425000Y-89918000D01*
X113423000Y-89920000D01*
X113420000Y-89921000D01*
X113418000Y-89922000D01*
X113415000Y-89923000D01*
X113413000Y-89923000D01*
X113410000Y-89924000D01*
X113408000Y-89924000D01*
X113405000Y-89925000D01*
X113403000Y-89925000D01*
X113400000Y-89925000D01*
X112900000Y-89925000D01*
X112897000Y-89925000D01*
X112895000Y-89925000D01*
X112892000Y-89924000D01*
X112890000Y-89924000D01*
X112887000Y-89923000D01*
X112885000Y-89923000D01*
X112882000Y-89922000D01*
X112880000Y-89921000D01*
X112877000Y-89920000D01*
X112875000Y-89918000D01*
X112873000Y-89917000D01*
X112871000Y-89915000D01*
X112869000Y-89914000D01*
X112867000Y-89912000D01*
X112865000Y-89910000D01*
X112863000Y-89908000D01*
X112861000Y-89906000D01*
X112860000Y-89904000D01*
X112858000Y-89902000D01*
X112857000Y-89900000D01*
X112855000Y-89898000D01*
X112854000Y-89895000D01*
X112853000Y-89893000D01*
X112852000Y-89890000D01*
X112852000Y-89888000D01*
X112851000Y-89885000D01*
X112851000Y-89883000D01*
X112850000Y-89880000D01*
X112850000Y-89878000D01*
X112850000Y-89875000D01*
X112850000Y-88822000D01*
X112850000Y-88819000D01*
X112850000Y-88817000D01*
X112851000Y-88814000D01*
X112851000Y-88812000D01*
X112852000Y-88809000D01*
X112852000Y-88807000D01*
X112853000Y-88804000D01*
X112854000Y-88802000D01*
X112855000Y-88799000D01*
X112857000Y-88797000D01*
X112858000Y-88795000D01*
X112860000Y-88793000D01*
X112861000Y-88791000D01*
X112863000Y-88789000D01*
X112865000Y-88787000D01*
X112867000Y-88785000D01*
X112869000Y-88783000D01*
X112871000Y-88782000D01*
X112873000Y-88780000D01*
X112875000Y-88779000D01*
X112877000Y-88777000D01*
X112880000Y-88776000D01*
X112882000Y-88775000D01*
X112885000Y-88774000D01*
X112887000Y-88774000D01*
X112890000Y-88773000D01*
X112892000Y-88773000D01*
X112895000Y-88772000D01*
X112897000Y-88772000D01*
X112900000Y-88772000D01*
X113400000Y-88772000D01*
X113403000Y-88772000D01*
X113405000Y-88772000D01*
X113408000Y-88773000D01*
G37*
X113408000Y-90126000D02*
X113410000Y-90126000D01*
X113413000Y-90127000D01*
X113415000Y-90127000D01*
X113418000Y-90128000D01*
X113420000Y-90129000D01*
X113423000Y-90130000D01*
X113425000Y-90132000D01*
X113427000Y-90133000D01*
X113429000Y-90135000D01*
X113431000Y-90136000D01*
X113433000Y-90138000D01*
X113435000Y-90140000D01*
X113437000Y-90142000D01*
X113439000Y-90144000D01*
X113440000Y-90146000D01*
X113442000Y-90148000D01*
X113443000Y-90150000D01*
X113445000Y-90152000D01*
X113446000Y-90155000D01*
X113447000Y-90157000D01*
X113448000Y-90160000D01*
X113448000Y-90162000D01*
X113449000Y-90165000D01*
X113449000Y-90167000D01*
X113450000Y-90170000D01*
X113450000Y-90172000D01*
X113450000Y-90175000D01*
X113450000Y-90275000D01*
X113450000Y-90278000D01*
X113450000Y-90280000D01*
X113449000Y-90283000D01*
X113449000Y-90285000D01*
X113448000Y-90288000D01*
X113448000Y-90290000D01*
X113447000Y-90293000D01*
X113446000Y-90295000D01*
X113445000Y-90298000D01*
X113443000Y-90300000D01*
X113442000Y-90302000D01*
X113440000Y-90304000D01*
X113439000Y-90306000D01*
X113437000Y-90308000D01*
X113435000Y-90310000D01*
X113433000Y-90312000D01*
X113431000Y-90314000D01*
X113429000Y-90315000D01*
X113427000Y-90317000D01*
X113425000Y-90318000D01*
X113423000Y-90320000D01*
X113420000Y-90321000D01*
X113418000Y-90322000D01*
X113415000Y-90323000D01*
X113413000Y-90323000D01*
X113410000Y-90324000D01*
X113408000Y-90324000D01*
X113405000Y-90325000D01*
X113403000Y-90325000D01*
X113400000Y-90325000D01*
X113175000Y-90325000D01*
X113172000Y-90325000D01*
X113170000Y-90325000D01*
X113167000Y-90326000D01*
X113165000Y-90326000D01*
X113162000Y-90327000D01*
X113160000Y-90327000D01*
X113157000Y-90328000D01*
X113155000Y-90329000D01*
X113152000Y-90330000D01*
X113150000Y-90332000D01*
X113148000Y-90333000D01*
X113146000Y-90335000D01*
X113144000Y-90336000D01*
X113142000Y-90338000D01*
X113140000Y-90340000D01*
X113138000Y-90342000D01*
X113136000Y-90344000D01*
X113135000Y-90346000D01*
X113133000Y-90348000D01*
X113132000Y-90350000D01*
X113130000Y-90352000D01*
X113129000Y-90355000D01*
X113128000Y-90357000D01*
X113127000Y-90360000D01*
X113127000Y-90362000D01*
X113126000Y-90365000D01*
X113126000Y-90367000D01*
X113125000Y-90370000D01*
X113125000Y-90372000D01*
X113125000Y-90375000D01*
X113125000Y-90525000D01*
X113125000Y-90528000D01*
X113125000Y-90530000D01*
X113126000Y-90533000D01*
X113126000Y-90535000D01*
X113127000Y-90538000D01*
X113127000Y-90540000D01*
X113128000Y-90543000D01*
X113129000Y-90545000D01*
X113130000Y-90548000D01*
X113132000Y-90550000D01*
X113133000Y-90552000D01*
X113135000Y-90554000D01*
X113136000Y-90556000D01*
X113138000Y-90558000D01*
X113140000Y-90560000D01*
X113142000Y-90562000D01*
X113144000Y-90564000D01*
X113146000Y-90565000D01*
X113148000Y-90567000D01*
X113150000Y-90568000D01*
X113152000Y-90570000D01*
X113155000Y-90571000D01*
X113157000Y-90572000D01*
X113160000Y-90573000D01*
X113162000Y-90573000D01*
X113165000Y-90574000D01*
X113167000Y-90574000D01*
X113170000Y-90575000D01*
X113172000Y-90575000D01*
X113175000Y-90575000D01*
X113400000Y-90575000D01*
X113403000Y-90575000D01*
X113405000Y-90575000D01*
X113408000Y-90576000D01*
X113410000Y-90576000D01*
X113413000Y-90577000D01*
X113415000Y-90577000D01*
X113418000Y-90578000D01*
X113420000Y-90579000D01*
X113423000Y-90580000D01*
X113425000Y-90582000D01*
X113427000Y-90583000D01*
X113429000Y-90585000D01*
X113431000Y-90586000D01*
X113433000Y-90588000D01*
X113435000Y-90590000D01*
X113437000Y-90592000D01*
X113439000Y-90594000D01*
X113440000Y-90596000D01*
X113442000Y-90598000D01*
X113443000Y-90600000D01*
X113445000Y-90602000D01*
X113446000Y-90605000D01*
X113447000Y-90607000D01*
X113448000Y-90610000D01*
X113448000Y-90612000D01*
X113449000Y-90615000D01*
X113449000Y-90617000D01*
X113450000Y-90620000D01*
X113450000Y-90622000D01*
X113450000Y-90625000D01*
X113450000Y-90725000D01*
X113450000Y-90728000D01*
X113450000Y-90730000D01*
X113449000Y-90733000D01*
X113449000Y-90735000D01*
X113448000Y-90738000D01*
X113448000Y-90740000D01*
X113447000Y-90743000D01*
X113446000Y-90745000D01*
X113445000Y-90748000D01*
X113443000Y-90750000D01*
X113442000Y-90752000D01*
X113440000Y-90754000D01*
X113439000Y-90756000D01*
X113437000Y-90758000D01*
X113435000Y-90760000D01*
X113433000Y-90762000D01*
X113431000Y-90764000D01*
X113429000Y-90765000D01*
X113427000Y-90767000D01*
X113425000Y-90768000D01*
X113423000Y-90770000D01*
X113420000Y-90771000D01*
X113418000Y-90772000D01*
X113415000Y-90773000D01*
X113413000Y-90773000D01*
X113410000Y-90774000D01*
X113408000Y-90774000D01*
X113405000Y-90775000D01*
X113403000Y-90775000D01*
X113400000Y-90775000D01*
X113175000Y-90775000D01*
X113172000Y-90775000D01*
X113170000Y-90775000D01*
X113167000Y-90776000D01*
X113165000Y-90776000D01*
X113162000Y-90777000D01*
X113160000Y-90777000D01*
X113157000Y-90778000D01*
X113155000Y-90779000D01*
X113152000Y-90780000D01*
X113150000Y-90782000D01*
X113148000Y-90783000D01*
X113146000Y-90785000D01*
X113144000Y-90786000D01*
X113142000Y-90788000D01*
X113140000Y-90790000D01*
X113138000Y-90792000D01*
X113136000Y-90794000D01*
X113135000Y-90796000D01*
X113133000Y-90798000D01*
X113132000Y-90800000D01*
X113130000Y-90802000D01*
X113129000Y-90805000D01*
X113128000Y-90807000D01*
X113127000Y-90810000D01*
X113127000Y-90812000D01*
X113126000Y-90815000D01*
X113126000Y-90817000D01*
X113125000Y-90820000D01*
X113125000Y-90822000D01*
X113125000Y-90825000D01*
X113125000Y-90975000D01*
X113125000Y-90978000D01*
X113125000Y-90980000D01*
X113126000Y-90983000D01*
X113126000Y-90985000D01*
X113127000Y-90988000D01*
X113127000Y-90990000D01*
X113128000Y-90993000D01*
X113129000Y-90995000D01*
X113130000Y-90998000D01*
X113132000Y-91000000D01*
X113133000Y-91002000D01*
X113135000Y-91004000D01*
X113136000Y-91006000D01*
X113138000Y-91008000D01*
X113140000Y-91010000D01*
X113142000Y-91012000D01*
X113144000Y-91014000D01*
X113146000Y-91015000D01*
X113148000Y-91017000D01*
X113150000Y-91018000D01*
X113152000Y-91020000D01*
X113155000Y-91021000D01*
X113157000Y-91022000D01*
X113160000Y-91023000D01*
X113162000Y-91023000D01*
X113165000Y-91024000D01*
X113167000Y-91024000D01*
X113170000Y-91025000D01*
X113172000Y-91025000D01*
X113175000Y-91025000D01*
X113400000Y-91025000D01*
X113403000Y-91025000D01*
X113405000Y-91025000D01*
X113408000Y-91026000D01*
X113410000Y-91026000D01*
X113413000Y-91027000D01*
X113415000Y-91027000D01*
X113418000Y-91028000D01*
X113420000Y-91029000D01*
X113423000Y-91030000D01*
X113425000Y-91032000D01*
X113427000Y-91033000D01*
X113429000Y-91035000D01*
X113431000Y-91036000D01*
X113433000Y-91038000D01*
X113435000Y-91040000D01*
X113437000Y-91042000D01*
X113439000Y-91044000D01*
X113440000Y-91046000D01*
X113442000Y-91048000D01*
X113443000Y-91050000D01*
X113445000Y-91052000D01*
X113446000Y-91055000D01*
X113447000Y-91057000D01*
X113448000Y-91060000D01*
X113448000Y-91062000D01*
X113449000Y-91065000D01*
X113449000Y-91067000D01*
X113450000Y-91070000D01*
X113450000Y-91072000D01*
X113450000Y-91075000D01*
X113450000Y-91228000D01*
X113450000Y-91231000D01*
X113450000Y-91233000D01*
X113449000Y-91236000D01*
X113449000Y-91238000D01*
X113448000Y-91241000D01*
X113448000Y-91243000D01*
X113447000Y-91246000D01*
X113446000Y-91248000D01*
X113445000Y-91251000D01*
X113443000Y-91253000D01*
X113442000Y-91255000D01*
X113440000Y-91257000D01*
X113439000Y-91259000D01*
X113437000Y-91261000D01*
X113435000Y-91263000D01*
X113433000Y-91265000D01*
X113431000Y-91267000D01*
X113429000Y-91268000D01*
X113427000Y-91270000D01*
X113425000Y-91271000D01*
X113423000Y-91273000D01*
X113420000Y-91274000D01*
X113418000Y-91275000D01*
X113415000Y-91276000D01*
X113413000Y-91276000D01*
X113410000Y-91277000D01*
X113408000Y-91277000D01*
X113405000Y-91278000D01*
X113403000Y-91278000D01*
X113400000Y-91278000D01*
X112900000Y-91278000D01*
X112897000Y-91278000D01*
X112895000Y-91278000D01*
X112892000Y-91277000D01*
X112890000Y-91277000D01*
X112887000Y-91276000D01*
X112885000Y-91276000D01*
X112882000Y-91275000D01*
X112880000Y-91274000D01*
X112877000Y-91273000D01*
X112875000Y-91271000D01*
X112873000Y-91270000D01*
X112871000Y-91268000D01*
X112869000Y-91267000D01*
X112867000Y-91265000D01*
X112865000Y-91263000D01*
X112863000Y-91261000D01*
X112861000Y-91259000D01*
X112860000Y-91257000D01*
X112858000Y-91255000D01*
X112857000Y-91253000D01*
X112855000Y-91251000D01*
X112854000Y-91248000D01*
X112853000Y-91246000D01*
X112852000Y-91243000D01*
X112852000Y-91241000D01*
X112851000Y-91238000D01*
X112851000Y-91236000D01*
X112850000Y-91233000D01*
X112850000Y-91231000D01*
X112850000Y-91228000D01*
X112850000Y-90175000D01*
X112850000Y-90172000D01*
X112850000Y-90170000D01*
X112851000Y-90167000D01*
X112851000Y-90165000D01*
X112852000Y-90162000D01*
X112852000Y-90160000D01*
X112853000Y-90157000D01*
X112854000Y-90155000D01*
X112855000Y-90152000D01*
X112857000Y-90150000D01*
X112858000Y-90148000D01*
X112860000Y-90146000D01*
X112861000Y-90144000D01*
X112863000Y-90142000D01*
X112865000Y-90140000D01*
X112867000Y-90138000D01*
X112869000Y-90136000D01*
X112871000Y-90135000D01*
X112873000Y-90133000D01*
X112875000Y-90132000D01*
X112877000Y-90130000D01*
X112880000Y-90129000D01*
X112882000Y-90128000D01*
X112885000Y-90127000D01*
X112887000Y-90127000D01*
X112890000Y-90126000D01*
X112892000Y-90126000D01*
X112895000Y-90125000D01*
X112897000Y-90125000D01*
X112900000Y-90125000D01*
X113400000Y-90125000D01*
X113403000Y-90125000D01*
X113405000Y-90125000D01*
X113408000Y-90126000D01*
G36*
X113408000Y-90126000D02*
G01*
X113410000Y-90126000D01*
X113413000Y-90127000D01*
X113415000Y-90127000D01*
X113418000Y-90128000D01*
X113420000Y-90129000D01*
X113423000Y-90130000D01*
X113425000Y-90132000D01*
X113427000Y-90133000D01*
X113429000Y-90135000D01*
X113431000Y-90136000D01*
X113433000Y-90138000D01*
X113435000Y-90140000D01*
X113437000Y-90142000D01*
X113439000Y-90144000D01*
X113440000Y-90146000D01*
X113442000Y-90148000D01*
X113443000Y-90150000D01*
X113445000Y-90152000D01*
X113446000Y-90155000D01*
X113447000Y-90157000D01*
X113448000Y-90160000D01*
X113448000Y-90162000D01*
X113449000Y-90165000D01*
X113449000Y-90167000D01*
X113450000Y-90170000D01*
X113450000Y-90172000D01*
X113450000Y-90175000D01*
X113450000Y-90275000D01*
X113450000Y-90278000D01*
X113450000Y-90280000D01*
X113449000Y-90283000D01*
X113449000Y-90285000D01*
X113448000Y-90288000D01*
X113448000Y-90290000D01*
X113447000Y-90293000D01*
X113446000Y-90295000D01*
X113445000Y-90298000D01*
X113443000Y-90300000D01*
X113442000Y-90302000D01*
X113440000Y-90304000D01*
X113439000Y-90306000D01*
X113437000Y-90308000D01*
X113435000Y-90310000D01*
X113433000Y-90312000D01*
X113431000Y-90314000D01*
X113429000Y-90315000D01*
X113427000Y-90317000D01*
X113425000Y-90318000D01*
X113423000Y-90320000D01*
X113420000Y-90321000D01*
X113418000Y-90322000D01*
X113415000Y-90323000D01*
X113413000Y-90323000D01*
X113410000Y-90324000D01*
X113408000Y-90324000D01*
X113405000Y-90325000D01*
X113403000Y-90325000D01*
X113400000Y-90325000D01*
X113175000Y-90325000D01*
X113172000Y-90325000D01*
X113170000Y-90325000D01*
X113167000Y-90326000D01*
X113165000Y-90326000D01*
X113162000Y-90327000D01*
X113160000Y-90327000D01*
X113157000Y-90328000D01*
X113155000Y-90329000D01*
X113152000Y-90330000D01*
X113150000Y-90332000D01*
X113148000Y-90333000D01*
X113146000Y-90335000D01*
X113144000Y-90336000D01*
X113142000Y-90338000D01*
X113140000Y-90340000D01*
X113138000Y-90342000D01*
X113136000Y-90344000D01*
X113135000Y-90346000D01*
X113133000Y-90348000D01*
X113132000Y-90350000D01*
X113130000Y-90352000D01*
X113129000Y-90355000D01*
X113128000Y-90357000D01*
X113127000Y-90360000D01*
X113127000Y-90362000D01*
X113126000Y-90365000D01*
X113126000Y-90367000D01*
X113125000Y-90370000D01*
X113125000Y-90372000D01*
X113125000Y-90375000D01*
X113125000Y-90525000D01*
X113125000Y-90528000D01*
X113125000Y-90530000D01*
X113126000Y-90533000D01*
X113126000Y-90535000D01*
X113127000Y-90538000D01*
X113127000Y-90540000D01*
X113128000Y-90543000D01*
X113129000Y-90545000D01*
X113130000Y-90548000D01*
X113132000Y-90550000D01*
X113133000Y-90552000D01*
X113135000Y-90554000D01*
X113136000Y-90556000D01*
X113138000Y-90558000D01*
X113140000Y-90560000D01*
X113142000Y-90562000D01*
X113144000Y-90564000D01*
X113146000Y-90565000D01*
X113148000Y-90567000D01*
X113150000Y-90568000D01*
X113152000Y-90570000D01*
X113155000Y-90571000D01*
X113157000Y-90572000D01*
X113160000Y-90573000D01*
X113162000Y-90573000D01*
X113165000Y-90574000D01*
X113167000Y-90574000D01*
X113170000Y-90575000D01*
X113172000Y-90575000D01*
X113175000Y-90575000D01*
X113400000Y-90575000D01*
X113403000Y-90575000D01*
X113405000Y-90575000D01*
X113408000Y-90576000D01*
X113410000Y-90576000D01*
X113413000Y-90577000D01*
X113415000Y-90577000D01*
X113418000Y-90578000D01*
X113420000Y-90579000D01*
X113423000Y-90580000D01*
X113425000Y-90582000D01*
X113427000Y-90583000D01*
X113429000Y-90585000D01*
X113431000Y-90586000D01*
X113433000Y-90588000D01*
X113435000Y-90590000D01*
X113437000Y-90592000D01*
X113439000Y-90594000D01*
X113440000Y-90596000D01*
X113442000Y-90598000D01*
X113443000Y-90600000D01*
X113445000Y-90602000D01*
X113446000Y-90605000D01*
X113447000Y-90607000D01*
X113448000Y-90610000D01*
X113448000Y-90612000D01*
X113449000Y-90615000D01*
X113449000Y-90617000D01*
X113450000Y-90620000D01*
X113450000Y-90622000D01*
X113450000Y-90625000D01*
X113450000Y-90725000D01*
X113450000Y-90728000D01*
X113450000Y-90730000D01*
X113449000Y-90733000D01*
X113449000Y-90735000D01*
X113448000Y-90738000D01*
X113448000Y-90740000D01*
X113447000Y-90743000D01*
X113446000Y-90745000D01*
X113445000Y-90748000D01*
X113443000Y-90750000D01*
X113442000Y-90752000D01*
X113440000Y-90754000D01*
X113439000Y-90756000D01*
X113437000Y-90758000D01*
X113435000Y-90760000D01*
X113433000Y-90762000D01*
X113431000Y-90764000D01*
X113429000Y-90765000D01*
X113427000Y-90767000D01*
X113425000Y-90768000D01*
X113423000Y-90770000D01*
X113420000Y-90771000D01*
X113418000Y-90772000D01*
X113415000Y-90773000D01*
X113413000Y-90773000D01*
X113410000Y-90774000D01*
X113408000Y-90774000D01*
X113405000Y-90775000D01*
X113403000Y-90775000D01*
X113400000Y-90775000D01*
X113175000Y-90775000D01*
X113172000Y-90775000D01*
X113170000Y-90775000D01*
X113167000Y-90776000D01*
X113165000Y-90776000D01*
X113162000Y-90777000D01*
X113160000Y-90777000D01*
X113157000Y-90778000D01*
X113155000Y-90779000D01*
X113152000Y-90780000D01*
X113150000Y-90782000D01*
X113148000Y-90783000D01*
X113146000Y-90785000D01*
X113144000Y-90786000D01*
X113142000Y-90788000D01*
X113140000Y-90790000D01*
X113138000Y-90792000D01*
X113136000Y-90794000D01*
X113135000Y-90796000D01*
X113133000Y-90798000D01*
X113132000Y-90800000D01*
X113130000Y-90802000D01*
X113129000Y-90805000D01*
X113128000Y-90807000D01*
X113127000Y-90810000D01*
X113127000Y-90812000D01*
X113126000Y-90815000D01*
X113126000Y-90817000D01*
X113125000Y-90820000D01*
X113125000Y-90822000D01*
X113125000Y-90825000D01*
X113125000Y-90975000D01*
X113125000Y-90978000D01*
X113125000Y-90980000D01*
X113126000Y-90983000D01*
X113126000Y-90985000D01*
X113127000Y-90988000D01*
X113127000Y-90990000D01*
X113128000Y-90993000D01*
X113129000Y-90995000D01*
X113130000Y-90998000D01*
X113132000Y-91000000D01*
X113133000Y-91002000D01*
X113135000Y-91004000D01*
X113136000Y-91006000D01*
X113138000Y-91008000D01*
X113140000Y-91010000D01*
X113142000Y-91012000D01*
X113144000Y-91014000D01*
X113146000Y-91015000D01*
X113148000Y-91017000D01*
X113150000Y-91018000D01*
X113152000Y-91020000D01*
X113155000Y-91021000D01*
X113157000Y-91022000D01*
X113160000Y-91023000D01*
X113162000Y-91023000D01*
X113165000Y-91024000D01*
X113167000Y-91024000D01*
X113170000Y-91025000D01*
X113172000Y-91025000D01*
X113175000Y-91025000D01*
X113400000Y-91025000D01*
X113403000Y-91025000D01*
X113405000Y-91025000D01*
X113408000Y-91026000D01*
X113410000Y-91026000D01*
X113413000Y-91027000D01*
X113415000Y-91027000D01*
X113418000Y-91028000D01*
X113420000Y-91029000D01*
X113423000Y-91030000D01*
X113425000Y-91032000D01*
X113427000Y-91033000D01*
X113429000Y-91035000D01*
X113431000Y-91036000D01*
X113433000Y-91038000D01*
X113435000Y-91040000D01*
X113437000Y-91042000D01*
X113439000Y-91044000D01*
X113440000Y-91046000D01*
X113442000Y-91048000D01*
X113443000Y-91050000D01*
X113445000Y-91052000D01*
X113446000Y-91055000D01*
X113447000Y-91057000D01*
X113448000Y-91060000D01*
X113448000Y-91062000D01*
X113449000Y-91065000D01*
X113449000Y-91067000D01*
X113450000Y-91070000D01*
X113450000Y-91072000D01*
X113450000Y-91075000D01*
X113450000Y-91228000D01*
X113450000Y-91231000D01*
X113450000Y-91233000D01*
X113449000Y-91236000D01*
X113449000Y-91238000D01*
X113448000Y-91241000D01*
X113448000Y-91243000D01*
X113447000Y-91246000D01*
X113446000Y-91248000D01*
X113445000Y-91251000D01*
X113443000Y-91253000D01*
X113442000Y-91255000D01*
X113440000Y-91257000D01*
X113439000Y-91259000D01*
X113437000Y-91261000D01*
X113435000Y-91263000D01*
X113433000Y-91265000D01*
X113431000Y-91267000D01*
X113429000Y-91268000D01*
X113427000Y-91270000D01*
X113425000Y-91271000D01*
X113423000Y-91273000D01*
X113420000Y-91274000D01*
X113418000Y-91275000D01*
X113415000Y-91276000D01*
X113413000Y-91276000D01*
X113410000Y-91277000D01*
X113408000Y-91277000D01*
X113405000Y-91278000D01*
X113403000Y-91278000D01*
X113400000Y-91278000D01*
X112900000Y-91278000D01*
X112897000Y-91278000D01*
X112895000Y-91278000D01*
X112892000Y-91277000D01*
X112890000Y-91277000D01*
X112887000Y-91276000D01*
X112885000Y-91276000D01*
X112882000Y-91275000D01*
X112880000Y-91274000D01*
X112877000Y-91273000D01*
X112875000Y-91271000D01*
X112873000Y-91270000D01*
X112871000Y-91268000D01*
X112869000Y-91267000D01*
X112867000Y-91265000D01*
X112865000Y-91263000D01*
X112863000Y-91261000D01*
X112861000Y-91259000D01*
X112860000Y-91257000D01*
X112858000Y-91255000D01*
X112857000Y-91253000D01*
X112855000Y-91251000D01*
X112854000Y-91248000D01*
X112853000Y-91246000D01*
X112852000Y-91243000D01*
X112852000Y-91241000D01*
X112851000Y-91238000D01*
X112851000Y-91236000D01*
X112850000Y-91233000D01*
X112850000Y-91231000D01*
X112850000Y-91228000D01*
X112850000Y-90175000D01*
X112850000Y-90172000D01*
X112850000Y-90170000D01*
X112851000Y-90167000D01*
X112851000Y-90165000D01*
X112852000Y-90162000D01*
X112852000Y-90160000D01*
X112853000Y-90157000D01*
X112854000Y-90155000D01*
X112855000Y-90152000D01*
X112857000Y-90150000D01*
X112858000Y-90148000D01*
X112860000Y-90146000D01*
X112861000Y-90144000D01*
X112863000Y-90142000D01*
X112865000Y-90140000D01*
X112867000Y-90138000D01*
X112869000Y-90136000D01*
X112871000Y-90135000D01*
X112873000Y-90133000D01*
X112875000Y-90132000D01*
X112877000Y-90130000D01*
X112880000Y-90129000D01*
X112882000Y-90128000D01*
X112885000Y-90127000D01*
X112887000Y-90127000D01*
X112890000Y-90126000D01*
X112892000Y-90126000D01*
X112895000Y-90125000D01*
X112897000Y-90125000D01*
X112900000Y-90125000D01*
X113400000Y-90125000D01*
X113403000Y-90125000D01*
X113405000Y-90125000D01*
X113408000Y-90126000D01*
G37*
D11*
X107350000Y-89025000D03*
X107350000Y-89425000D03*
X107350000Y-89825000D03*
X107350000Y-90225000D03*
X107350000Y-90625000D03*
X107350000Y-91025000D03*
D12*
X107850000Y-91925000D03*
X108250000Y-91925000D03*
X108650000Y-91925000D03*
X109050000Y-91925000D03*
X109450000Y-91925000D03*
X109850000Y-91925000D03*
X110250000Y-91925000D03*
X110650000Y-91925000D03*
X111050000Y-91925000D03*
X111450000Y-91925000D03*
X111850000Y-91925000D03*
X112250000Y-91925000D03*
X112650000Y-91925000D03*
X112650000Y-88125000D03*
X112250000Y-88125000D03*
X111850000Y-88125000D03*
X111450000Y-88125000D03*
X111050000Y-88125000D03*
X110650000Y-88125000D03*
X108650000Y-88125000D03*
X108250000Y-88125000D03*
X107850000Y-88125000D03*
D13*
X111766802Y-86781802D03*
X113316802Y-86781802D03*
D14*
X122750000Y-111026989D03*
X122750000Y-110526863D03*
X122750000Y-110026737D03*
X122750000Y-109526611D03*
D15*
X122026989Y-108803600D03*
X121526863Y-108803600D03*
X121026737Y-108803600D03*
X120526611Y-108803600D03*
D14*
X119803600Y-109526611D03*
X119803600Y-110026737D03*
X119803600Y-110526863D03*
X119803600Y-111026989D03*
D15*
X120526611Y-111750000D03*
X121026737Y-111750000D03*
X121526863Y-111750000D03*
X122026989Y-111750000D03*
D16*
X121276800Y-110276800D03*
D17*
X124025000Y-107200000D03*
X122375000Y-107200000D03*
D13*
X129025000Y-115400000D03*
X130575000Y-115400000D03*
D18*
X125700000Y-122100000D03*
X130800000Y-122100000D03*
D19*
X124800000Y-92575000D03*
X124800000Y-90925000D03*
D20*
X115625000Y-105900000D03*
X117275000Y-105900000D03*
D21*
X125675000Y-108700000D03*
X124125000Y-108700000D03*
D20*
X112650000Y-108200000D03*
X114300000Y-108200000D03*
D21*
X110353604Y-86781802D03*
X108803604Y-86781802D03*
D22*
X113450000Y-81325000D03*
X112650000Y-81325000D03*
D23*
X111500000Y-81325000D03*
X110500000Y-81325000D03*
X110000000Y-81325000D03*
X109000000Y-81325000D03*
D22*
X107850000Y-81325000D03*
X107050000Y-81325000D03*
X107050000Y-81325000D03*
X107850000Y-81325000D03*
D23*
X108500000Y-81325000D03*
X109500000Y-81325000D03*
X111000000Y-81325000D03*
X112000000Y-81325000D03*
D22*
X112650000Y-81325000D03*
X113450000Y-81325000D03*
D24*
X126700000Y-115800000D03*
X119900000Y-115800000D03*
D21*
X120200000Y-107400000D03*
X118650000Y-107400000D03*
D18*
X105150000Y-109000000D03*
X110250000Y-109000000D03*
D20*
X125075000Y-100800000D03*
X126725000Y-100800000D03*
X115625000Y-108200000D03*
X117275000Y-108200000D03*
D25*
X106350000Y-90400000D03*
X105390000Y-90400000D03*
D26*
X106500000Y-95850000D03*
X113300000Y-95850000D03*
D25*
X107650000Y-86550000D03*
X106690000Y-86550000D03*
D27*
X115000000Y-113900000D03*
D28*
X105400000Y-114000005D03*
D29*
X110200000Y-127900000D03*
D21*
X120200000Y-105900000D03*
X118650000Y-105900000D03*
D25*
X106350000Y-89000000D03*
X105390000Y-89000000D03*
D13*
X129025000Y-116900000D03*
X130575000Y-116900000D03*
D30*
X117875000Y-92545000D03*
X117875000Y-93815000D03*
X117875000Y-95085000D03*
X117875000Y-96355000D03*
X122825000Y-96355000D03*
X122825000Y-95085000D03*
X122825000Y-93815000D03*
X122825000Y-92545000D03*
D21*
X125675000Y-110200000D03*
X124125000Y-110200000D03*
D31*
X124800000Y-94450000D03*
X124800000Y-96100000D03*
X126300000Y-93425000D03*
X126300000Y-95075000D03*
D21*
X118400000Y-109675000D03*
X116850000Y-109675000D03*
D32*
X123800000Y-130600000D03*
X131800000Y-130600000D03*
D25*
X106330000Y-87700000D03*
X105370000Y-87700000D03*
M02*
