G04 #@! TF.GenerationSoftware,KiCad,Pcbnew,8.0.1*
G04 #@! TF.CreationDate,2024-05-02T01:56:28+08:00*
G04 #@! TF.ProjectId,BatteryPod,42617474-6572-4795-906f-642e6b696361,rev?*
G04 #@! TF.SameCoordinates,Original*
G04 #@! TF.FileFunction,Legend,Top*
G04 #@! TF.FilePolarity,Positive*
%FSLAX46Y46*%
G04 Gerber Fmt 4.6, Leading zero omitted, Abs format (unit mm)*
G04 Created by KiCad (PCBNEW 8.0.1) date 2024-05-02 01:56:28*
%MOMM*%
%LPD*%
G01*
G04 APERTURE LIST*
G04 Aperture macros list*
%AMRoundRect*
0 Rectangle with rounded corners*
0 $1 Rounding radius*
0 $2 $3 $4 $5 $6 $7 $8 $9 X,Y pos of 4 corners*
0 Add a 4 corners polygon primitive as box body*
4,1,4,$2,$3,$4,$5,$6,$7,$8,$9,$2,$3,0*
0 Add four circle primitives for the rounded corners*
1,1,$1+$1,$2,$3*
1,1,$1+$1,$4,$5*
1,1,$1+$1,$6,$7*
1,1,$1+$1,$8,$9*
0 Add four rect primitives between the rounded corners*
20,1,$1+$1,$2,$3,$4,$5,0*
20,1,$1+$1,$4,$5,$6,$7,0*
20,1,$1+$1,$6,$7,$8,$9,0*
20,1,$1+$1,$8,$9,$2,$3,0*%
G04 Aperture macros list end*
%ADD10C,0.600000*%
%ADD11C,0.150000*%
%ADD12C,0.625000*%
%ADD13C,0.187500*%
%ADD14C,0.375000*%
%ADD15C,0.400000*%
%ADD16C,0.260000*%
%ADD17C,0.152400*%
%ADD18C,0.120000*%
%ADD19C,0.000000*%
%ADD20R,5.334000X5.588000*%
%ADD21R,6.350000X5.283200*%
%ADD22C,2.000000*%
%ADD23RoundRect,0.250002X2.404160X0.000000X0.000000X2.404160X-2.404160X0.000000X0.000000X-2.404160X0*%
%ADD24C,3.900000*%
%ADD25RoundRect,0.225000X-0.225000X-0.250000X0.225000X-0.250000X0.225000X0.250000X-0.225000X0.250000X0*%
%ADD26C,2.500000*%
%ADD27RoundRect,0.249998X-4.550002X3.650002X-4.550002X-3.650002X4.550002X-3.650002X4.550002X3.650002X0*%
%ADD28R,0.812800X0.254000*%
%ADD29R,0.254000X0.812800*%
%ADD30R,1.752600X1.752600*%
%ADD31RoundRect,0.250000X2.192031X1.272792X1.272792X2.192031X-2.192031X-1.272792X-1.272792X-2.192031X0*%
%ADD32RoundRect,0.250000X-0.650000X-2.450000X0.650000X-2.450000X0.650000X2.450000X-0.650000X2.450000X0*%
%ADD33RoundRect,0.200000X-0.200000X-0.275000X0.200000X-0.275000X0.200000X0.275000X-0.200000X0.275000X0*%
%ADD34RoundRect,0.200000X0.200000X0.275000X-0.200000X0.275000X-0.200000X-0.275000X0.200000X-0.275000X0*%
%ADD35RoundRect,0.225000X0.225000X0.250000X-0.225000X0.250000X-0.225000X-0.250000X0.225000X-0.250000X0*%
%ADD36RoundRect,0.250000X-1.000000X1.400000X-1.000000X-1.400000X1.000000X-1.400000X1.000000X1.400000X0*%
G04 APERTURE END LIST*
D10*
X94540698Y-72543057D02*
X96156942Y-74159301D01*
X101959301Y-79656942D02*
X100343057Y-78040698D01*
X101959301Y-78040698D02*
X100343057Y-79656942D01*
D11*
X102154762Y-151457580D02*
X102521429Y-152557580D01*
X102521429Y-152557580D02*
X102888096Y-151457580D01*
X103254762Y-152557580D02*
X103254762Y-151824247D01*
X103254762Y-151457580D02*
X103202381Y-151509961D01*
X103202381Y-151509961D02*
X103254762Y-151562342D01*
X103254762Y-151562342D02*
X103307143Y-151509961D01*
X103307143Y-151509961D02*
X103254762Y-151457580D01*
X103254762Y-151457580D02*
X103254762Y-151562342D01*
X103778572Y-151824247D02*
X103778572Y-152557580D01*
X103778572Y-151929009D02*
X103830953Y-151876628D01*
X103830953Y-151876628D02*
X103935715Y-151824247D01*
X103935715Y-151824247D02*
X104092858Y-151824247D01*
X104092858Y-151824247D02*
X104197620Y-151876628D01*
X104197620Y-151876628D02*
X104250001Y-151981390D01*
X104250001Y-151981390D02*
X104250001Y-152557580D01*
X105245239Y-152505200D02*
X105140477Y-152557580D01*
X105140477Y-152557580D02*
X104930953Y-152557580D01*
X104930953Y-152557580D02*
X104826191Y-152505200D01*
X104826191Y-152505200D02*
X104773810Y-152452819D01*
X104773810Y-152452819D02*
X104721429Y-152348057D01*
X104721429Y-152348057D02*
X104721429Y-152033771D01*
X104721429Y-152033771D02*
X104773810Y-151929009D01*
X104773810Y-151929009D02*
X104826191Y-151876628D01*
X104826191Y-151876628D02*
X104930953Y-151824247D01*
X104930953Y-151824247D02*
X105140477Y-151824247D01*
X105140477Y-151824247D02*
X105245239Y-151876628D01*
X106135715Y-152505200D02*
X106030953Y-152557580D01*
X106030953Y-152557580D02*
X105821429Y-152557580D01*
X105821429Y-152557580D02*
X105716667Y-152505200D01*
X105716667Y-152505200D02*
X105664286Y-152400438D01*
X105664286Y-152400438D02*
X105664286Y-151981390D01*
X105664286Y-151981390D02*
X105716667Y-151876628D01*
X105716667Y-151876628D02*
X105821429Y-151824247D01*
X105821429Y-151824247D02*
X106030953Y-151824247D01*
X106030953Y-151824247D02*
X106135715Y-151876628D01*
X106135715Y-151876628D02*
X106188096Y-151981390D01*
X106188096Y-151981390D02*
X106188096Y-152086152D01*
X106188096Y-152086152D02*
X105664286Y-152190914D01*
X106659524Y-151824247D02*
X106659524Y-152557580D01*
X106659524Y-151929009D02*
X106711905Y-151876628D01*
X106711905Y-151876628D02*
X106816667Y-151824247D01*
X106816667Y-151824247D02*
X106973810Y-151824247D01*
X106973810Y-151824247D02*
X107078572Y-151876628D01*
X107078572Y-151876628D02*
X107130953Y-151981390D01*
X107130953Y-151981390D02*
X107130953Y-152557580D01*
X107497619Y-151824247D02*
X107916667Y-151824247D01*
X107654762Y-151457580D02*
X107654762Y-152400438D01*
X107654762Y-152400438D02*
X107707143Y-152505200D01*
X107707143Y-152505200D02*
X107811905Y-152557580D01*
X107811905Y-152557580D02*
X107916667Y-152557580D01*
X109121428Y-152557580D02*
X109121428Y-151457580D01*
X109750000Y-152557580D02*
X109278571Y-151929009D01*
X109750000Y-151457580D02*
X109121428Y-152086152D01*
X110116666Y-151824247D02*
X110326190Y-152557580D01*
X110326190Y-152557580D02*
X110535714Y-152033771D01*
X110535714Y-152033771D02*
X110745238Y-152557580D01*
X110745238Y-152557580D02*
X110954762Y-151824247D01*
X111530952Y-152557580D02*
X111426190Y-152505200D01*
X111426190Y-152505200D02*
X111373809Y-152452819D01*
X111373809Y-152452819D02*
X111321428Y-152348057D01*
X111321428Y-152348057D02*
X111321428Y-152033771D01*
X111321428Y-152033771D02*
X111373809Y-151929009D01*
X111373809Y-151929009D02*
X111426190Y-151876628D01*
X111426190Y-151876628D02*
X111530952Y-151824247D01*
X111530952Y-151824247D02*
X111688095Y-151824247D01*
X111688095Y-151824247D02*
X111792857Y-151876628D01*
X111792857Y-151876628D02*
X111845238Y-151929009D01*
X111845238Y-151929009D02*
X111897619Y-152033771D01*
X111897619Y-152033771D02*
X111897619Y-152348057D01*
X111897619Y-152348057D02*
X111845238Y-152452819D01*
X111845238Y-152452819D02*
X111792857Y-152505200D01*
X111792857Y-152505200D02*
X111688095Y-152557580D01*
X111688095Y-152557580D02*
X111530952Y-152557580D01*
X112369047Y-152557580D02*
X112369047Y-151457580D01*
X112473809Y-152138533D02*
X112788095Y-152557580D01*
X112788095Y-151824247D02*
X112369047Y-152243295D01*
X113573809Y-152033771D02*
X113573809Y-152243295D01*
X113626190Y-152243295D02*
X113626190Y-152033771D01*
X113678571Y-151981390D02*
X113678571Y-152295676D01*
X113730952Y-152243295D02*
X113730952Y-152033771D01*
X113783333Y-152033771D02*
X113783333Y-152243295D01*
X113573809Y-152190914D02*
X113678571Y-152295676D01*
X113678571Y-152295676D02*
X113783333Y-152190914D01*
X113573809Y-152086152D02*
X113678571Y-151981390D01*
X113678571Y-151981390D02*
X113783333Y-152086152D01*
X113573809Y-152033771D02*
X113678571Y-151981390D01*
X113678571Y-151981390D02*
X113783333Y-152033771D01*
X113783333Y-152033771D02*
X113835714Y-152138533D01*
X113835714Y-152138533D02*
X113783333Y-152243295D01*
X113783333Y-152243295D02*
X113678571Y-152295676D01*
X113678571Y-152295676D02*
X113573809Y-152243295D01*
X113573809Y-152243295D02*
X113521428Y-152138533D01*
X113521428Y-152138533D02*
X113573809Y-152033771D01*
X114569047Y-151562342D02*
X114621428Y-151509961D01*
X114621428Y-151509961D02*
X114726190Y-151457580D01*
X114726190Y-151457580D02*
X114988095Y-151457580D01*
X114988095Y-151457580D02*
X115092857Y-151509961D01*
X115092857Y-151509961D02*
X115145238Y-151562342D01*
X115145238Y-151562342D02*
X115197619Y-151667104D01*
X115197619Y-151667104D02*
X115197619Y-151771866D01*
X115197619Y-151771866D02*
X115145238Y-151929009D01*
X115145238Y-151929009D02*
X114516666Y-152557580D01*
X114516666Y-152557580D02*
X115197619Y-152557580D01*
X115878571Y-151457580D02*
X115983333Y-151457580D01*
X115983333Y-151457580D02*
X116088095Y-151509961D01*
X116088095Y-151509961D02*
X116140476Y-151562342D01*
X116140476Y-151562342D02*
X116192857Y-151667104D01*
X116192857Y-151667104D02*
X116245238Y-151876628D01*
X116245238Y-151876628D02*
X116245238Y-152138533D01*
X116245238Y-152138533D02*
X116192857Y-152348057D01*
X116192857Y-152348057D02*
X116140476Y-152452819D01*
X116140476Y-152452819D02*
X116088095Y-152505200D01*
X116088095Y-152505200D02*
X115983333Y-152557580D01*
X115983333Y-152557580D02*
X115878571Y-152557580D01*
X115878571Y-152557580D02*
X115773809Y-152505200D01*
X115773809Y-152505200D02*
X115721428Y-152452819D01*
X115721428Y-152452819D02*
X115669047Y-152348057D01*
X115669047Y-152348057D02*
X115616666Y-152138533D01*
X115616666Y-152138533D02*
X115616666Y-151876628D01*
X115616666Y-151876628D02*
X115669047Y-151667104D01*
X115669047Y-151667104D02*
X115721428Y-151562342D01*
X115721428Y-151562342D02*
X115773809Y-151509961D01*
X115773809Y-151509961D02*
X115878571Y-151457580D01*
X116664285Y-151562342D02*
X116716666Y-151509961D01*
X116716666Y-151509961D02*
X116821428Y-151457580D01*
X116821428Y-151457580D02*
X117083333Y-151457580D01*
X117083333Y-151457580D02*
X117188095Y-151509961D01*
X117188095Y-151509961D02*
X117240476Y-151562342D01*
X117240476Y-151562342D02*
X117292857Y-151667104D01*
X117292857Y-151667104D02*
X117292857Y-151771866D01*
X117292857Y-151771866D02*
X117240476Y-151929009D01*
X117240476Y-151929009D02*
X116611904Y-152557580D01*
X116611904Y-152557580D02*
X117292857Y-152557580D01*
X118235714Y-151824247D02*
X118235714Y-152557580D01*
X117973809Y-151405200D02*
X117711904Y-152190914D01*
X117711904Y-152190914D02*
X118392857Y-152190914D01*
D12*
G36*
X82392149Y-128464647D02*
G01*
X82690265Y-128458752D01*
X83060570Y-128433516D01*
X83394047Y-128390154D01*
X83684411Y-128330554D01*
X83977161Y-128236099D01*
X84233965Y-128073222D01*
X84291381Y-127940013D01*
X84110655Y-127705786D01*
X83811461Y-127579871D01*
X83470926Y-127498387D01*
X83147638Y-127450986D01*
X82785950Y-127421273D01*
X82392149Y-127410983D01*
X82094480Y-127416812D01*
X81724853Y-127441832D01*
X81392103Y-127484973D01*
X81102461Y-127544503D01*
X80810529Y-127639317D01*
X80554532Y-127804072D01*
X80497313Y-127940013D01*
X80718071Y-128192866D01*
X81037517Y-128313339D01*
X81392103Y-128390154D01*
X81724853Y-128433516D01*
X82094480Y-128458752D01*
X82392149Y-128464647D01*
G37*
G36*
X82392149Y-135835896D02*
G01*
X82801879Y-135826414D01*
X83183292Y-135797754D01*
X83536649Y-135749594D01*
X83862208Y-135681611D01*
X84160230Y-135593484D01*
X84556199Y-135422818D01*
X84891669Y-135205017D01*
X85167518Y-134938993D01*
X85384622Y-134623659D01*
X85543858Y-134257929D01*
X85646102Y-133840716D01*
X85683036Y-133533436D01*
X85695289Y-133202470D01*
X85695289Y-130081046D01*
X85682061Y-129737693D01*
X85643563Y-129428768D01*
X85566512Y-129100289D01*
X85458703Y-128814160D01*
X85298151Y-128528610D01*
X85219016Y-128420683D01*
X84936892Y-128333512D01*
X84840928Y-128386978D01*
X84557007Y-128573960D01*
X84236004Y-128714919D01*
X83934534Y-128813879D01*
X83601508Y-128897422D01*
X83244448Y-128962645D01*
X82870875Y-129006646D01*
X82488313Y-129026523D01*
X82392149Y-129027383D01*
X82009003Y-129013990D01*
X81632882Y-128975748D01*
X81271358Y-128915559D01*
X80932004Y-128836324D01*
X80622395Y-128740946D01*
X80350103Y-128632327D01*
X80073754Y-128482356D01*
X79947766Y-128386978D01*
X79654103Y-128349677D01*
X79571144Y-128420683D01*
X79395935Y-128685745D01*
X79256318Y-129000402D01*
X79168673Y-129314326D01*
X79120564Y-129610120D01*
X79097015Y-129939428D01*
X79094870Y-130081046D01*
X79094870Y-133202470D01*
X79107074Y-133533436D01*
X79143866Y-133840716D01*
X79245747Y-134257929D01*
X79404473Y-134623659D01*
X79620956Y-134938993D01*
X79896109Y-135205017D01*
X80230845Y-135422818D01*
X80626076Y-135593484D01*
X80923623Y-135681611D01*
X81248734Y-135749594D01*
X81601678Y-135797754D01*
X81982726Y-135826414D01*
X82392149Y-135835896D01*
G37*
D13*
G36*
X79054696Y-147215000D02*
G01*
X79054696Y-146188691D01*
X78923318Y-146188691D01*
X78923318Y-147215000D01*
X79054696Y-147215000D01*
G37*
G36*
X79292198Y-147215000D02*
G01*
X79421427Y-147215000D01*
X79421427Y-146733817D01*
X79427730Y-146674743D01*
X79447141Y-146621545D01*
X79480417Y-146577549D01*
X79528310Y-146546081D01*
X79591575Y-146530468D01*
X79616210Y-146529361D01*
X79676737Y-146536486D01*
X79727863Y-146557796D01*
X79773447Y-146600460D01*
X79798592Y-146652178D01*
X79808476Y-146705885D01*
X79809382Y-146730055D01*
X79809382Y-147215000D01*
X79938879Y-147215000D01*
X79938879Y-146708293D01*
X79933356Y-146640330D01*
X79917411Y-146580836D01*
X79891983Y-146529994D01*
X79858011Y-146487986D01*
X79804958Y-146448179D01*
X79755190Y-146426716D01*
X79699926Y-146414682D01*
X79655436Y-146411953D01*
X79599140Y-146416535D01*
X79541957Y-146432285D01*
X79488955Y-146460631D01*
X79445551Y-146499770D01*
X79424382Y-146529361D01*
X79420621Y-146529361D01*
X79420621Y-146424849D01*
X79292198Y-146424849D01*
X79292198Y-147215000D01*
G37*
G36*
X80568271Y-146416339D02*
G01*
X80628801Y-146432007D01*
X80683226Y-146459695D01*
X80730549Y-146498930D01*
X80769772Y-146549239D01*
X80799897Y-146610150D01*
X80815919Y-146662508D01*
X80825841Y-146720364D01*
X80829242Y-146783520D01*
X80829242Y-146856329D01*
X80827743Y-146898578D01*
X80820037Y-146957813D01*
X80806108Y-147011862D01*
X80778478Y-147075432D01*
X80741287Y-147128757D01*
X80695394Y-147171252D01*
X80641658Y-147202330D01*
X80580939Y-147221407D01*
X80514096Y-147227896D01*
X80477429Y-147225693D01*
X80418876Y-147211917D01*
X80367988Y-147186932D01*
X80325374Y-147152392D01*
X80291639Y-147109951D01*
X80287878Y-147109951D01*
X80287878Y-147477487D01*
X80158381Y-147477487D01*
X80158381Y-146846657D01*
X80285460Y-146846657D01*
X80287577Y-146890651D01*
X80296818Y-146944351D01*
X80318231Y-147002656D01*
X80350008Y-147050060D01*
X80391518Y-147085381D01*
X80442126Y-147107440D01*
X80501200Y-147115055D01*
X80522901Y-147113951D01*
X80581968Y-147097563D01*
X80630720Y-147062033D01*
X80662302Y-147018241D01*
X80684666Y-146961928D01*
X80695291Y-146908097D01*
X80698939Y-146846657D01*
X80698939Y-146788087D01*
X80698724Y-146772698D01*
X80693621Y-146715262D01*
X80677962Y-146653142D01*
X80652406Y-146602398D01*
X80609296Y-146557466D01*
X80553336Y-146531039D01*
X80497438Y-146523988D01*
X80473407Y-146525218D01*
X80418823Y-146538646D01*
X80364462Y-146572838D01*
X80329245Y-146614920D01*
X80303923Y-146668008D01*
X80289180Y-146730843D01*
X80285460Y-146787281D01*
X80285460Y-146846657D01*
X80158381Y-146846657D01*
X80158381Y-146424849D01*
X80282505Y-146424849D01*
X80282505Y-146538496D01*
X80286266Y-146538496D01*
X80310340Y-146505321D01*
X80352261Y-146465889D01*
X80403187Y-146436196D01*
X80462477Y-146417963D01*
X80519469Y-146412759D01*
X80568271Y-146416339D01*
G37*
G36*
X81657812Y-146424849D02*
G01*
X81527777Y-146424849D01*
X81527777Y-146914361D01*
X81522109Y-146969152D01*
X81501368Y-147023897D01*
X81467145Y-147065984D01*
X81421270Y-147094723D01*
X81365569Y-147109424D01*
X81334605Y-147111294D01*
X81278565Y-147105958D01*
X81221745Y-147084334D01*
X81178078Y-147042960D01*
X81154253Y-146989258D01*
X81145979Y-146930046D01*
X81145732Y-146916510D01*
X81145732Y-146424849D01*
X81015697Y-146424849D01*
X81015697Y-146953586D01*
X81021026Y-147017363D01*
X81036464Y-147072841D01*
X81068727Y-147130421D01*
X81113897Y-147174813D01*
X81170370Y-147205892D01*
X81222607Y-147221088D01*
X81280229Y-147227623D01*
X81295380Y-147227896D01*
X81350793Y-147224113D01*
X81407436Y-147210596D01*
X81460203Y-147184717D01*
X81503361Y-147145300D01*
X81524016Y-147111294D01*
X81529389Y-147111294D01*
X81529389Y-147215000D01*
X81657812Y-147215000D01*
X81657812Y-146424849D01*
G37*
G36*
X81936957Y-146424849D02*
G01*
X81830296Y-146424849D01*
X81830296Y-146533122D01*
X81936420Y-146533122D01*
X81936420Y-146994155D01*
X81938425Y-147048607D01*
X81947941Y-147105888D01*
X81972996Y-147159143D01*
X82017070Y-147195918D01*
X82071492Y-147214290D01*
X82128440Y-147221135D01*
X82161831Y-147221985D01*
X82216199Y-147218358D01*
X82227386Y-147216612D01*
X82227386Y-147112906D01*
X82194340Y-147114249D01*
X82139712Y-147110325D01*
X82090005Y-147086955D01*
X82068099Y-147034939D01*
X82065648Y-146995498D01*
X82065648Y-146533122D01*
X82222013Y-146533122D01*
X82222013Y-146424849D01*
X82065648Y-146424849D01*
X82065648Y-146227916D01*
X81936957Y-146227916D01*
X81936957Y-146424849D01*
G37*
G36*
X82398796Y-146607543D02*
G01*
X82416084Y-146659729D01*
X82459952Y-146690923D01*
X82485844Y-146694860D01*
X82537508Y-146677474D01*
X82568446Y-146633459D01*
X82572355Y-146607543D01*
X82555102Y-146555994D01*
X82507389Y-146523786D01*
X82485844Y-146521032D01*
X82433755Y-146538364D01*
X82401535Y-146586087D01*
X82398796Y-146607543D01*
G37*
G36*
X82398796Y-147142997D02*
G01*
X82416084Y-147194546D01*
X82459952Y-147225576D01*
X82485844Y-147229508D01*
X82537508Y-147212176D01*
X82569617Y-147164453D01*
X82572355Y-147142997D01*
X82555102Y-147090811D01*
X82507389Y-147058437D01*
X82485844Y-147055680D01*
X82433755Y-147073066D01*
X82402708Y-147117080D01*
X82398796Y-147142997D01*
G37*
G36*
X83209364Y-146472135D02*
G01*
X83209364Y-146467568D01*
X83216757Y-146413198D01*
X83243271Y-146357117D01*
X83287734Y-146313388D01*
X83339083Y-146289267D01*
X83401730Y-146280575D01*
X83459092Y-146287518D01*
X83515916Y-146312234D01*
X83558698Y-146353304D01*
X83584115Y-146409107D01*
X83589797Y-146457090D01*
X83581813Y-146515320D01*
X83560482Y-146568349D01*
X83529735Y-146617223D01*
X83493505Y-146662986D01*
X83471852Y-146688143D01*
X83088196Y-147132519D01*
X83088196Y-147215000D01*
X83742400Y-147215000D01*
X83742400Y-147100010D01*
X83271695Y-147100010D01*
X83271695Y-147097861D01*
X83548422Y-146773042D01*
X83584621Y-146730699D01*
X83625657Y-146680760D01*
X83660958Y-146632595D01*
X83689390Y-146584543D01*
X83712851Y-146524693D01*
X83722193Y-146471045D01*
X83723056Y-146448224D01*
X83717279Y-146389700D01*
X83700412Y-146336038D01*
X83673156Y-146288144D01*
X83636209Y-146246925D01*
X83590270Y-146213287D01*
X83536039Y-146188137D01*
X83474213Y-146172382D01*
X83405491Y-146166929D01*
X83349387Y-146170592D01*
X83282361Y-146186106D01*
X83224480Y-146212391D01*
X83176016Y-146247947D01*
X83137244Y-146291270D01*
X83108438Y-146340859D01*
X83089871Y-146395213D01*
X83081817Y-146452830D01*
X83081479Y-146467568D01*
X83081479Y-146472135D01*
X83209364Y-146472135D01*
G37*
G36*
X84324362Y-146171954D02*
G01*
X84381510Y-146186754D01*
X84432814Y-146210917D01*
X84478179Y-146244031D01*
X84517507Y-146285686D01*
X84550705Y-146335468D01*
X84577675Y-146392967D01*
X84598323Y-146457770D01*
X84612553Y-146529465D01*
X84620269Y-146607642D01*
X84621748Y-146663157D01*
X84621748Y-146742951D01*
X84620278Y-146797955D01*
X84612600Y-146875516D01*
X84598424Y-146946756D01*
X84577830Y-147011242D01*
X84550897Y-147068539D01*
X84517706Y-147118213D01*
X84478336Y-147159829D01*
X84432866Y-147192953D01*
X84381377Y-147217151D01*
X84323948Y-147231988D01*
X84260659Y-147237030D01*
X84197729Y-147232020D01*
X84140490Y-147217266D01*
X84089050Y-147193182D01*
X84043520Y-147160183D01*
X84004008Y-147118683D01*
X83970622Y-147069097D01*
X83943473Y-147011839D01*
X83922667Y-146947323D01*
X83908316Y-146875964D01*
X83900526Y-146798177D01*
X83899033Y-146742951D01*
X83899033Y-146741339D01*
X84029068Y-146741339D01*
X84031364Y-146806844D01*
X84038146Y-146866636D01*
X84049251Y-146920556D01*
X84070501Y-146983037D01*
X84098765Y-147034417D01*
X84143372Y-147082456D01*
X84197587Y-147111820D01*
X84260659Y-147121772D01*
X84323499Y-147111820D01*
X84377521Y-147082456D01*
X84421974Y-147034417D01*
X84450144Y-146983037D01*
X84471325Y-146920556D01*
X84482394Y-146866636D01*
X84489155Y-146806844D01*
X84491444Y-146741339D01*
X84491444Y-146663963D01*
X84489155Y-146598418D01*
X84482394Y-146538517D01*
X84471325Y-146484436D01*
X84450144Y-146421683D01*
X84421974Y-146370004D01*
X84377521Y-146321609D01*
X84323499Y-146291976D01*
X84260659Y-146281919D01*
X84197587Y-146291976D01*
X84143372Y-146321609D01*
X84098765Y-146370004D01*
X84070501Y-146421683D01*
X84049251Y-146484436D01*
X84038146Y-146538517D01*
X84031364Y-146598418D01*
X84029068Y-146663963D01*
X84029068Y-146741339D01*
X83899033Y-146741339D01*
X83899033Y-146663157D01*
X83900535Y-146607775D01*
X83908368Y-146529734D01*
X83922793Y-146458110D01*
X83943693Y-146393324D01*
X83970950Y-146335803D01*
X84004449Y-146285968D01*
X84044071Y-146244244D01*
X84089701Y-146211054D01*
X84141221Y-146186823D01*
X84198515Y-146171973D01*
X84261465Y-146166929D01*
X84324362Y-146171954D01*
G37*
G36*
X85226786Y-146852030D02*
G01*
X85226786Y-146736235D01*
X84753126Y-146736235D01*
X84753126Y-146852030D01*
X85226786Y-146852030D01*
G37*
G36*
X85570143Y-146742951D02*
G01*
X85674654Y-146742951D01*
X85737164Y-146748262D01*
X85790574Y-146763631D01*
X85841866Y-146794166D01*
X85878282Y-146836517D01*
X85898854Y-146889229D01*
X85903290Y-146929406D01*
X85895309Y-146989284D01*
X85870387Y-147040625D01*
X85829320Y-147081411D01*
X85772906Y-147109623D01*
X85714746Y-147122071D01*
X85675191Y-147124190D01*
X85615926Y-147118693D01*
X85558115Y-147098920D01*
X85514048Y-147067018D01*
X85478917Y-147017647D01*
X85460082Y-146958788D01*
X85458646Y-146949825D01*
X85335327Y-146949825D01*
X85342484Y-147007237D01*
X85359386Y-147060978D01*
X85386129Y-147109819D01*
X85422812Y-147152534D01*
X85469532Y-147187895D01*
X85526388Y-147214672D01*
X85593475Y-147231639D01*
X85650565Y-147237187D01*
X85670893Y-147237568D01*
X85729351Y-147234175D01*
X85784249Y-147224283D01*
X85851041Y-147201726D01*
X85909425Y-147169395D01*
X85958214Y-147128306D01*
X85996222Y-147079476D01*
X86022260Y-147023924D01*
X86035143Y-146962664D01*
X86036280Y-146930212D01*
X86029154Y-146871840D01*
X86006331Y-146810634D01*
X85971784Y-146761944D01*
X85929516Y-146725178D01*
X85874239Y-146695968D01*
X85820526Y-146682060D01*
X85812212Y-146681158D01*
X85812212Y-146679009D01*
X85867458Y-146659501D01*
X85914916Y-146625955D01*
X85956426Y-146577900D01*
X85982341Y-146527468D01*
X85996833Y-146468190D01*
X85998667Y-146428611D01*
X85991357Y-146375019D01*
X85967163Y-146313864D01*
X85927421Y-146260921D01*
X85885284Y-146225723D01*
X85834655Y-146197913D01*
X85776184Y-146178439D01*
X85710519Y-146168247D01*
X85675191Y-146166929D01*
X85619589Y-146170593D01*
X85553934Y-146185960D01*
X85497942Y-146211662D01*
X85451576Y-146245905D01*
X85414803Y-146286892D01*
X85382273Y-146344879D01*
X85364610Y-146407096D01*
X85361120Y-146445000D01*
X85486587Y-146445000D01*
X85500717Y-146386879D01*
X85529471Y-146339730D01*
X85575537Y-146302669D01*
X85630260Y-146283728D01*
X85675191Y-146279769D01*
X85735701Y-146286880D01*
X85786136Y-146307184D01*
X85830602Y-146345493D01*
X85857721Y-146397216D01*
X85865676Y-146450373D01*
X85857669Y-146505620D01*
X85828991Y-146559585D01*
X85782253Y-146599696D01*
X85730018Y-146621017D01*
X85668475Y-146628499D01*
X85570143Y-146628499D01*
X85570143Y-146742951D01*
G37*
G36*
X86305484Y-146472135D02*
G01*
X86305484Y-146467568D01*
X86312877Y-146413198D01*
X86339391Y-146357117D01*
X86383854Y-146313388D01*
X86435203Y-146289267D01*
X86497850Y-146280575D01*
X86555212Y-146287518D01*
X86612036Y-146312234D01*
X86654818Y-146353304D01*
X86680235Y-146409107D01*
X86685917Y-146457090D01*
X86677933Y-146515320D01*
X86656602Y-146568349D01*
X86625855Y-146617223D01*
X86589625Y-146662986D01*
X86567972Y-146688143D01*
X86184316Y-147132519D01*
X86184316Y-147215000D01*
X86838520Y-147215000D01*
X86838520Y-147100010D01*
X86367815Y-147100010D01*
X86367815Y-147097861D01*
X86644542Y-146773042D01*
X86680741Y-146730699D01*
X86721777Y-146680760D01*
X86757078Y-146632595D01*
X86785510Y-146584543D01*
X86808971Y-146524693D01*
X86818313Y-146471045D01*
X86819176Y-146448224D01*
X86813399Y-146389700D01*
X86796532Y-146336038D01*
X86769276Y-146288144D01*
X86732329Y-146246925D01*
X86686390Y-146213287D01*
X86632159Y-146188137D01*
X86570333Y-146172382D01*
X86501612Y-146166929D01*
X86445507Y-146170592D01*
X86378481Y-146186106D01*
X86320600Y-146212391D01*
X86272136Y-146247947D01*
X86233364Y-146291270D01*
X86204558Y-146340859D01*
X86185991Y-146395213D01*
X86177937Y-146452830D01*
X86177599Y-146467568D01*
X86177599Y-146472135D01*
X86305484Y-146472135D01*
G37*
G36*
X87303046Y-147215000D02*
G01*
X87438454Y-147215000D01*
X87808408Y-146188691D01*
X87659567Y-146188691D01*
X87374511Y-147046008D01*
X87369944Y-147046008D01*
X87083545Y-146188691D01*
X86933897Y-146188691D01*
X87303046Y-147215000D01*
G37*
G36*
X88344131Y-146472135D02*
G01*
X88344131Y-146467568D01*
X88351523Y-146413198D01*
X88378037Y-146357117D01*
X88422501Y-146313388D01*
X88473849Y-146289267D01*
X88536496Y-146280575D01*
X88593858Y-146287518D01*
X88650682Y-146312234D01*
X88693465Y-146353304D01*
X88718882Y-146409107D01*
X88724563Y-146457090D01*
X88716579Y-146515320D01*
X88695248Y-146568349D01*
X88664501Y-146617223D01*
X88628271Y-146662986D01*
X88606618Y-146688143D01*
X88222962Y-147132519D01*
X88222962Y-147215000D01*
X88877166Y-147215000D01*
X88877166Y-147100010D01*
X88406461Y-147100010D01*
X88406461Y-147097861D01*
X88683189Y-146773042D01*
X88719387Y-146730699D01*
X88760424Y-146680760D01*
X88795724Y-146632595D01*
X88824157Y-146584543D01*
X88847618Y-146524693D01*
X88856959Y-146471045D01*
X88857822Y-146448224D01*
X88852045Y-146389700D01*
X88835179Y-146336038D01*
X88807923Y-146288144D01*
X88770976Y-146246925D01*
X88725037Y-146213287D01*
X88670805Y-146188137D01*
X88608979Y-146172382D01*
X88540258Y-146166929D01*
X88484153Y-146170592D01*
X88417127Y-146186106D01*
X88359246Y-146212391D01*
X88310782Y-146247947D01*
X88272010Y-146291270D01*
X88243204Y-146340859D01*
X88224637Y-146395213D01*
X88216584Y-146452830D01*
X88216245Y-146467568D01*
X88216245Y-146472135D01*
X88344131Y-146472135D01*
G37*
G36*
X89083234Y-147142997D02*
G01*
X89100487Y-147194546D01*
X89148199Y-147226753D01*
X89169745Y-147229508D01*
X89221834Y-147212176D01*
X89254053Y-147164453D01*
X89256793Y-147142997D01*
X89239504Y-147090811D01*
X89195636Y-147059617D01*
X89169745Y-147055680D01*
X89118080Y-147073066D01*
X89087143Y-147117080D01*
X89083234Y-147142997D01*
G37*
G36*
X89656032Y-146742951D02*
G01*
X89760544Y-146742951D01*
X89823053Y-146748262D01*
X89876463Y-146763631D01*
X89927756Y-146794166D01*
X89964171Y-146836517D01*
X89984744Y-146889229D01*
X89989180Y-146929406D01*
X89981199Y-146989284D01*
X89956277Y-147040625D01*
X89915210Y-147081411D01*
X89858796Y-147109623D01*
X89800636Y-147122071D01*
X89761081Y-147124190D01*
X89701815Y-147118693D01*
X89644004Y-147098920D01*
X89599938Y-147067018D01*
X89564807Y-147017647D01*
X89545972Y-146958788D01*
X89544535Y-146949825D01*
X89421217Y-146949825D01*
X89428374Y-147007237D01*
X89445276Y-147060978D01*
X89472019Y-147109819D01*
X89508702Y-147152534D01*
X89555422Y-147187895D01*
X89612277Y-147214672D01*
X89679365Y-147231639D01*
X89736454Y-147237187D01*
X89756782Y-147237568D01*
X89815241Y-147234175D01*
X89870139Y-147224283D01*
X89936931Y-147201726D01*
X89995315Y-147169395D01*
X90044104Y-147128306D01*
X90082111Y-147079476D01*
X90108150Y-147023924D01*
X90121033Y-146962664D01*
X90122170Y-146930212D01*
X90115043Y-146871840D01*
X90092221Y-146810634D01*
X90057674Y-146761944D01*
X90015406Y-146725178D01*
X89960129Y-146695968D01*
X89906416Y-146682060D01*
X89898101Y-146681158D01*
X89898101Y-146679009D01*
X89953347Y-146659501D01*
X90000806Y-146625955D01*
X90042315Y-146577900D01*
X90068231Y-146527468D01*
X90082723Y-146468190D01*
X90084556Y-146428611D01*
X90077247Y-146375019D01*
X90053053Y-146313864D01*
X90013310Y-146260921D01*
X89971173Y-146225723D01*
X89920545Y-146197913D01*
X89862074Y-146178439D01*
X89796409Y-146168247D01*
X89761081Y-146166929D01*
X89705479Y-146170593D01*
X89639824Y-146185960D01*
X89583831Y-146211662D01*
X89537466Y-146245905D01*
X89500692Y-146286892D01*
X89468163Y-146344879D01*
X89450499Y-146407096D01*
X89447009Y-146445000D01*
X89572477Y-146445000D01*
X89586607Y-146386879D01*
X89615361Y-146339730D01*
X89661427Y-146302669D01*
X89716150Y-146283728D01*
X89761081Y-146279769D01*
X89821590Y-146286880D01*
X89872026Y-146307184D01*
X89916491Y-146345493D01*
X89943611Y-146397216D01*
X89951566Y-146450373D01*
X89943559Y-146505620D01*
X89914881Y-146559585D01*
X89868143Y-146599696D01*
X89815908Y-146621017D01*
X89754364Y-146628499D01*
X89656032Y-146628499D01*
X89656032Y-146742951D01*
G37*
G36*
X90730163Y-146852030D02*
G01*
X90730163Y-146736235D01*
X90256503Y-146736235D01*
X90256503Y-146852030D01*
X90730163Y-146852030D01*
G37*
G36*
X91073520Y-146742951D02*
G01*
X91178032Y-146742951D01*
X91240541Y-146748262D01*
X91293951Y-146763631D01*
X91345243Y-146794166D01*
X91381659Y-146836517D01*
X91402232Y-146889229D01*
X91406667Y-146929406D01*
X91398687Y-146989284D01*
X91373765Y-147040625D01*
X91332698Y-147081411D01*
X91276284Y-147109623D01*
X91218124Y-147122071D01*
X91178569Y-147124190D01*
X91119303Y-147118693D01*
X91061492Y-147098920D01*
X91017426Y-147067018D01*
X90982295Y-147017647D01*
X90963460Y-146958788D01*
X90962023Y-146949825D01*
X90838705Y-146949825D01*
X90845862Y-147007237D01*
X90862763Y-147060978D01*
X90889507Y-147109819D01*
X90926190Y-147152534D01*
X90972910Y-147187895D01*
X91029765Y-147214672D01*
X91096853Y-147231639D01*
X91153942Y-147237187D01*
X91174270Y-147237568D01*
X91232729Y-147234175D01*
X91287627Y-147224283D01*
X91354419Y-147201726D01*
X91412803Y-147169395D01*
X91461592Y-147128306D01*
X91499599Y-147079476D01*
X91525638Y-147023924D01*
X91538521Y-146962664D01*
X91539658Y-146930212D01*
X91532531Y-146871840D01*
X91509708Y-146810634D01*
X91475162Y-146761944D01*
X91432894Y-146725178D01*
X91377617Y-146695968D01*
X91323904Y-146682060D01*
X91315589Y-146681158D01*
X91315589Y-146679009D01*
X91370835Y-146659501D01*
X91418294Y-146625955D01*
X91459803Y-146577900D01*
X91485718Y-146527468D01*
X91500211Y-146468190D01*
X91502044Y-146428611D01*
X91494735Y-146375019D01*
X91470540Y-146313864D01*
X91430798Y-146260921D01*
X91388661Y-146225723D01*
X91338033Y-146197913D01*
X91279562Y-146178439D01*
X91213897Y-146168247D01*
X91178569Y-146166929D01*
X91122967Y-146170593D01*
X91057312Y-146185960D01*
X91001319Y-146211662D01*
X90954953Y-146245905D01*
X90918180Y-146286892D01*
X90885650Y-146344879D01*
X90867987Y-146407096D01*
X90864497Y-146445000D01*
X90989965Y-146445000D01*
X91004095Y-146386879D01*
X91032849Y-146339730D01*
X91078915Y-146302669D01*
X91133638Y-146283728D01*
X91178569Y-146279769D01*
X91239078Y-146286880D01*
X91289514Y-146307184D01*
X91333979Y-146345493D01*
X91361099Y-146397216D01*
X91369054Y-146450373D01*
X91361047Y-146505620D01*
X91332369Y-146559585D01*
X91285631Y-146599696D01*
X91233396Y-146621017D01*
X91171852Y-146628499D01*
X91073520Y-146628499D01*
X91073520Y-146742951D01*
G37*
G36*
X91686081Y-147142997D02*
G01*
X91703334Y-147194546D01*
X91751046Y-147226753D01*
X91772592Y-147229508D01*
X91824681Y-147212176D01*
X91856901Y-147164453D01*
X91859640Y-147142997D01*
X91842351Y-147090811D01*
X91798483Y-147059617D01*
X91772592Y-147055680D01*
X91720928Y-147073066D01*
X91689990Y-147117080D01*
X91686081Y-147142997D01*
G37*
G36*
X92389246Y-146169467D02*
G01*
X92454658Y-146178347D01*
X92512376Y-146197683D01*
X92562147Y-146225783D01*
X92603720Y-146260957D01*
X92643772Y-146312296D01*
X92670129Y-146368744D01*
X92682299Y-146426999D01*
X92550652Y-146426999D01*
X92546182Y-146403949D01*
X92521702Y-146355356D01*
X92482924Y-146317078D01*
X92427557Y-146290288D01*
X92366615Y-146281919D01*
X92342182Y-146283366D01*
X92283917Y-146300029D01*
X92231221Y-146336239D01*
X92194366Y-146380049D01*
X92163291Y-146437688D01*
X92144372Y-146490344D01*
X92129673Y-146551354D01*
X92119613Y-146620966D01*
X92114605Y-146699427D01*
X92116755Y-146699427D01*
X92126922Y-146678106D01*
X92163268Y-146630467D01*
X92207363Y-146594882D01*
X92262168Y-146567317D01*
X92315178Y-146552640D01*
X92374138Y-146547362D01*
X92405540Y-146548757D01*
X92467409Y-146559828D01*
X92526379Y-146581724D01*
X92580465Y-146614191D01*
X92627685Y-146656974D01*
X92666054Y-146709818D01*
X92693589Y-146772468D01*
X92705938Y-146825737D01*
X92710240Y-146884270D01*
X92708427Y-146924794D01*
X92699179Y-146981419D01*
X92675567Y-147048861D01*
X92640330Y-147106683D01*
X92594851Y-147154437D01*
X92540511Y-147191677D01*
X92478693Y-147217956D01*
X92410779Y-147232827D01*
X92356674Y-147236224D01*
X92336322Y-147235758D01*
X92277800Y-147228739D01*
X92223400Y-147213234D01*
X92173537Y-147189168D01*
X92128626Y-147156467D01*
X92089082Y-147115055D01*
X92071595Y-147091101D01*
X92041123Y-147036365D01*
X92020558Y-146983766D01*
X92004640Y-146924784D01*
X91999210Y-146892599D01*
X92133412Y-146892599D01*
X92140964Y-146958345D01*
X92162107Y-147013202D01*
X92194572Y-147057068D01*
X92245281Y-147095049D01*
X92305105Y-147116869D01*
X92359092Y-147122578D01*
X92421349Y-147114887D01*
X92478694Y-147091423D01*
X92526949Y-147051602D01*
X92557207Y-147005501D01*
X92575836Y-146947297D01*
X92580743Y-146891793D01*
X92575711Y-146836717D01*
X92556667Y-146778632D01*
X92525860Y-146732326D01*
X92477002Y-146692037D01*
X92419387Y-146668106D01*
X92357480Y-146660202D01*
X92303150Y-146666103D01*
X92243513Y-146688517D01*
X92193371Y-146727248D01*
X92161463Y-146771673D01*
X92140775Y-146826874D01*
X92133412Y-146892599D01*
X91999210Y-146892599D01*
X91993608Y-146859389D01*
X91988462Y-146802434D01*
X91986720Y-146741339D01*
X91988599Y-146671245D01*
X91994138Y-146605827D01*
X92003186Y-146545064D01*
X92015593Y-146488935D01*
X92040171Y-146413383D01*
X92071461Y-146348137D01*
X92108954Y-146293126D01*
X92152144Y-146248277D01*
X92200523Y-146213520D01*
X92253583Y-146188782D01*
X92310818Y-146173992D01*
X92371720Y-146169078D01*
X92389246Y-146169467D01*
G37*
G36*
X93654068Y-147215000D02*
G01*
X93515704Y-147215000D01*
X93411999Y-146906838D01*
X93029954Y-146906838D01*
X92926249Y-147215000D01*
X92789228Y-147215000D01*
X92936831Y-146800715D01*
X93065418Y-146800715D01*
X93376535Y-146800715D01*
X93223126Y-146343712D01*
X93219364Y-146343712D01*
X93065418Y-146800715D01*
X92936831Y-146800715D01*
X93154884Y-146188691D01*
X93288681Y-146188691D01*
X93654068Y-147215000D01*
G37*
G36*
X79341022Y-148016943D02*
G01*
X79405327Y-148027394D01*
X79464397Y-148046523D01*
X79517870Y-148074059D01*
X79565386Y-148109737D01*
X79606583Y-148153286D01*
X79641100Y-148204439D01*
X79668575Y-148262928D01*
X79688648Y-148328483D01*
X79700956Y-148400838D01*
X79705139Y-148479723D01*
X79705139Y-148630714D01*
X79703247Y-148683678D01*
X79693487Y-148757442D01*
X79675758Y-148824226D01*
X79650438Y-148883844D01*
X79617907Y-148936112D01*
X79578542Y-148980846D01*
X79532722Y-149017860D01*
X79480827Y-149046970D01*
X79423233Y-149067991D01*
X79360320Y-149080740D01*
X79292466Y-149085030D01*
X79246819Y-149083119D01*
X79182454Y-149073169D01*
X79123336Y-149054885D01*
X79069825Y-149028450D01*
X79022281Y-148994051D01*
X78981064Y-148951870D01*
X78946534Y-148902093D01*
X78919050Y-148844904D01*
X78898974Y-148780488D01*
X78886664Y-148709030D01*
X78882480Y-148630714D01*
X79014127Y-148630714D01*
X79014482Y-148651936D01*
X79019676Y-148711262D01*
X79035650Y-148780366D01*
X79061037Y-148838242D01*
X79094828Y-148885108D01*
X79136011Y-148921182D01*
X79183576Y-148946679D01*
X79236513Y-148961819D01*
X79293810Y-148966817D01*
X79323117Y-148965572D01*
X79378582Y-148955530D01*
X79429036Y-148935239D01*
X79473507Y-148904480D01*
X79511021Y-148863038D01*
X79540606Y-148810694D01*
X79561288Y-148747231D01*
X79570373Y-148692207D01*
X79573492Y-148630714D01*
X79573492Y-148478917D01*
X79573141Y-148457738D01*
X79567987Y-148398173D01*
X79552121Y-148328052D01*
X79526865Y-148268598D01*
X79493194Y-148219855D01*
X79452080Y-148181867D01*
X79404496Y-148154678D01*
X79351415Y-148138332D01*
X79293810Y-148132874D01*
X79264679Y-148134239D01*
X79209436Y-148145147D01*
X79159059Y-148166920D01*
X79114559Y-148199514D01*
X79076946Y-148242885D01*
X79047230Y-148296989D01*
X79026423Y-148361782D01*
X79017272Y-148417365D01*
X79014127Y-148478917D01*
X79014127Y-148630714D01*
X78882480Y-148630714D01*
X78882480Y-148479723D01*
X78884385Y-148426421D01*
X78894200Y-148351859D01*
X78912017Y-148284008D01*
X78937442Y-148223133D01*
X78970082Y-148169505D01*
X79009544Y-148123392D01*
X79055435Y-148085061D01*
X79107361Y-148054780D01*
X79164930Y-148032820D01*
X79227748Y-148019446D01*
X79295422Y-148014929D01*
X79341022Y-148016943D01*
G37*
G36*
X80532634Y-148272849D02*
G01*
X80402599Y-148272849D01*
X80402599Y-148762361D01*
X80396931Y-148817152D01*
X80376190Y-148871897D01*
X80341967Y-148913984D01*
X80296092Y-148942723D01*
X80240391Y-148957424D01*
X80209427Y-148959294D01*
X80153388Y-148953958D01*
X80096567Y-148932334D01*
X80052900Y-148890960D01*
X80029075Y-148837258D01*
X80020801Y-148778046D01*
X80020554Y-148764510D01*
X80020554Y-148272849D01*
X79890519Y-148272849D01*
X79890519Y-148801586D01*
X79895848Y-148865363D01*
X79911287Y-148920841D01*
X79943549Y-148978421D01*
X79988720Y-149022813D01*
X80045192Y-149053892D01*
X80097429Y-149069088D01*
X80155051Y-149075623D01*
X80170202Y-149075896D01*
X80225615Y-149072113D01*
X80282258Y-149058596D01*
X80335025Y-149032717D01*
X80378183Y-148993300D01*
X80398838Y-148959294D01*
X80404211Y-148959294D01*
X80404211Y-149063000D01*
X80532634Y-149063000D01*
X80532634Y-148272849D01*
G37*
G36*
X80811779Y-148272849D02*
G01*
X80705118Y-148272849D01*
X80705118Y-148381122D01*
X80811242Y-148381122D01*
X80811242Y-148842155D01*
X80813247Y-148896607D01*
X80822764Y-148953888D01*
X80847818Y-149007143D01*
X80891892Y-149043918D01*
X80946314Y-149062290D01*
X81003262Y-149069135D01*
X81036653Y-149069985D01*
X81091021Y-149066358D01*
X81102208Y-149064612D01*
X81102208Y-148960906D01*
X81069162Y-148962249D01*
X81014534Y-148958325D01*
X80964827Y-148934955D01*
X80942921Y-148882939D01*
X80940471Y-148843498D01*
X80940471Y-148381122D01*
X81096835Y-148381122D01*
X81096835Y-148272849D01*
X80940471Y-148272849D01*
X80940471Y-148075916D01*
X80811779Y-148075916D01*
X80811779Y-148272849D01*
G37*
G36*
X81707420Y-148264339D02*
G01*
X81767949Y-148280007D01*
X81822375Y-148307695D01*
X81869698Y-148346930D01*
X81908921Y-148397239D01*
X81939045Y-148458150D01*
X81955068Y-148510508D01*
X81964990Y-148568364D01*
X81968391Y-148631520D01*
X81968391Y-148704329D01*
X81966891Y-148746578D01*
X81959186Y-148805813D01*
X81945256Y-148859862D01*
X81917627Y-148923432D01*
X81880436Y-148976757D01*
X81834543Y-149019252D01*
X81780807Y-149050330D01*
X81720087Y-149069407D01*
X81653244Y-149075896D01*
X81616578Y-149073693D01*
X81558025Y-149059917D01*
X81507137Y-149034932D01*
X81464522Y-149000392D01*
X81430788Y-148957951D01*
X81427027Y-148957951D01*
X81427027Y-149325487D01*
X81297529Y-149325487D01*
X81297529Y-148694657D01*
X81424609Y-148694657D01*
X81426725Y-148738651D01*
X81435967Y-148792351D01*
X81457379Y-148850656D01*
X81489157Y-148898060D01*
X81530667Y-148933381D01*
X81581275Y-148955440D01*
X81640348Y-148963055D01*
X81662050Y-148961951D01*
X81721116Y-148945563D01*
X81769869Y-148910033D01*
X81801451Y-148866241D01*
X81823814Y-148809928D01*
X81834439Y-148756097D01*
X81838087Y-148694657D01*
X81838087Y-148636087D01*
X81837872Y-148620698D01*
X81832770Y-148563262D01*
X81817111Y-148501142D01*
X81791554Y-148450398D01*
X81748445Y-148405466D01*
X81692485Y-148379039D01*
X81636587Y-148371988D01*
X81612556Y-148373218D01*
X81557972Y-148386646D01*
X81503610Y-148420838D01*
X81468394Y-148462920D01*
X81443072Y-148516008D01*
X81428329Y-148578843D01*
X81424609Y-148635281D01*
X81424609Y-148694657D01*
X81297529Y-148694657D01*
X81297529Y-148272849D01*
X81421653Y-148272849D01*
X81421653Y-148386496D01*
X81425415Y-148386496D01*
X81449489Y-148353321D01*
X81491409Y-148313889D01*
X81542335Y-148284196D01*
X81601626Y-148265963D01*
X81658618Y-148260759D01*
X81707420Y-148264339D01*
G37*
G36*
X82796960Y-148272849D02*
G01*
X82666926Y-148272849D01*
X82666926Y-148762361D01*
X82661258Y-148817152D01*
X82640516Y-148871897D01*
X82606294Y-148913984D01*
X82560419Y-148942723D01*
X82504718Y-148957424D01*
X82473754Y-148959294D01*
X82417714Y-148953958D01*
X82360893Y-148932334D01*
X82317226Y-148890960D01*
X82293401Y-148837258D01*
X82285128Y-148778046D01*
X82284881Y-148764510D01*
X82284881Y-148272849D01*
X82154846Y-148272849D01*
X82154846Y-148801586D01*
X82160175Y-148865363D01*
X82175613Y-148920841D01*
X82207876Y-148978421D01*
X82253046Y-149022813D01*
X82309519Y-149053892D01*
X82361756Y-149069088D01*
X82419378Y-149075623D01*
X82434528Y-149075896D01*
X82489942Y-149072113D01*
X82546585Y-149058596D01*
X82599352Y-149032717D01*
X82642510Y-148993300D01*
X82663164Y-148959294D01*
X82668538Y-148959294D01*
X82668538Y-149063000D01*
X82796960Y-149063000D01*
X82796960Y-148272849D01*
G37*
G36*
X83076106Y-148272849D02*
G01*
X82969445Y-148272849D01*
X82969445Y-148381122D01*
X83075568Y-148381122D01*
X83075568Y-148842155D01*
X83077573Y-148896607D01*
X83087090Y-148953888D01*
X83112145Y-149007143D01*
X83156218Y-149043918D01*
X83210641Y-149062290D01*
X83267589Y-149069135D01*
X83300980Y-149069985D01*
X83355347Y-149066358D01*
X83366535Y-149064612D01*
X83366535Y-148960906D01*
X83333489Y-148962249D01*
X83278860Y-148958325D01*
X83229154Y-148934955D01*
X83207247Y-148882939D01*
X83204797Y-148843498D01*
X83204797Y-148381122D01*
X83361161Y-148381122D01*
X83361161Y-148272849D01*
X83204797Y-148272849D01*
X83204797Y-148075916D01*
X83076106Y-148075916D01*
X83076106Y-148272849D01*
G37*
G36*
X83537944Y-148455543D02*
G01*
X83555233Y-148507729D01*
X83599101Y-148538923D01*
X83624993Y-148542860D01*
X83676657Y-148525474D01*
X83707595Y-148481459D01*
X83711503Y-148455543D01*
X83694251Y-148403994D01*
X83646538Y-148371786D01*
X83624993Y-148369032D01*
X83572903Y-148386364D01*
X83540684Y-148434087D01*
X83537944Y-148455543D01*
G37*
G36*
X83537944Y-148990997D02*
G01*
X83555233Y-149042546D01*
X83599101Y-149073576D01*
X83624993Y-149077508D01*
X83676657Y-149060176D01*
X83708766Y-149012453D01*
X83711503Y-148990997D01*
X83694251Y-148938811D01*
X83646538Y-148906437D01*
X83624993Y-148903680D01*
X83572903Y-148921066D01*
X83541857Y-148965080D01*
X83537944Y-148990997D01*
G37*
G36*
X84826741Y-148734420D02*
G01*
X84960537Y-148734420D01*
X84960537Y-148850215D01*
X84826741Y-148850215D01*
X84826741Y-149063000D01*
X84701273Y-149063000D01*
X84701273Y-148850215D01*
X84202627Y-148850215D01*
X84202627Y-148737644D01*
X84204428Y-148734420D01*
X84334274Y-148734420D01*
X84701273Y-148734420D01*
X84701273Y-148151143D01*
X84698855Y-148151143D01*
X84675495Y-148185439D01*
X84640203Y-148238049D01*
X84604750Y-148291828D01*
X84569293Y-148346518D01*
X84533991Y-148401859D01*
X84499001Y-148457592D01*
X84464482Y-148513458D01*
X84430592Y-148569199D01*
X84397488Y-148624555D01*
X84365330Y-148679267D01*
X84334274Y-148733076D01*
X84334274Y-148734420D01*
X84204428Y-148734420D01*
X84227031Y-148693968D01*
X84264614Y-148628129D01*
X84303268Y-148562002D01*
X84342878Y-148495706D01*
X84383330Y-148429357D01*
X84424510Y-148363071D01*
X84466304Y-148296967D01*
X84508597Y-148231159D01*
X84551275Y-148165766D01*
X84594224Y-148100905D01*
X84637330Y-148036691D01*
X84826741Y-148036691D01*
X84826741Y-148734420D01*
G37*
G36*
X85517715Y-148020182D02*
G01*
X85579395Y-148035390D01*
X85634350Y-148059728D01*
X85681572Y-148092372D01*
X85720055Y-148132497D01*
X85748789Y-148179278D01*
X85766769Y-148231889D01*
X85772986Y-148289507D01*
X85766121Y-148349245D01*
X85742738Y-148408757D01*
X85707864Y-148455572D01*
X85659756Y-148494962D01*
X85605338Y-148521098D01*
X85605338Y-148522441D01*
X85613542Y-148524603D01*
X85665323Y-148544967D01*
X85717097Y-148578634D01*
X85755852Y-148617471D01*
X85786863Y-148666642D01*
X85806614Y-148726645D01*
X85811943Y-148782780D01*
X85810163Y-148815528D01*
X85796348Y-148876818D01*
X85769810Y-148931812D01*
X85731689Y-148979689D01*
X85683124Y-149019628D01*
X85625256Y-149050806D01*
X85559224Y-149072401D01*
X85505028Y-149081815D01*
X85447362Y-149085030D01*
X85427798Y-149084673D01*
X85371440Y-149079405D01*
X85302332Y-149063050D01*
X85241057Y-149036746D01*
X85188635Y-149001273D01*
X85146087Y-148957413D01*
X85114433Y-148905947D01*
X85094692Y-148847654D01*
X85087885Y-148783317D01*
X85087987Y-148779018D01*
X85216577Y-148779018D01*
X85221165Y-148820692D01*
X85244003Y-148875818D01*
X85283575Y-148920505D01*
X85337175Y-148952980D01*
X85390601Y-148969433D01*
X85450317Y-148975145D01*
X85487007Y-148973064D01*
X85543326Y-148960784D01*
X85601061Y-148932775D01*
X85645562Y-148891961D01*
X85674196Y-148840117D01*
X85684326Y-148779018D01*
X85679759Y-148736801D01*
X85657000Y-148681069D01*
X85617495Y-148635987D01*
X85563879Y-148603288D01*
X85510320Y-148586747D01*
X85450317Y-148581011D01*
X85413820Y-148583100D01*
X85357690Y-148595439D01*
X85300017Y-148623626D01*
X85255468Y-148664772D01*
X85226751Y-148717147D01*
X85216577Y-148779018D01*
X85087987Y-148779018D01*
X85088238Y-148768423D01*
X85096215Y-148713628D01*
X85118791Y-148655537D01*
X85151990Y-148608440D01*
X85192190Y-148571736D01*
X85244574Y-148540561D01*
X85295565Y-148522441D01*
X85295565Y-148521098D01*
X85281911Y-148516121D01*
X85232194Y-148489169D01*
X85191469Y-148453910D01*
X85157492Y-148407013D01*
X85135002Y-148348086D01*
X85129445Y-148298373D01*
X85255533Y-148298373D01*
X85263908Y-148352849D01*
X85292919Y-148405941D01*
X85339452Y-148445321D01*
X85390739Y-148466219D01*
X85450317Y-148473544D01*
X85510494Y-148466219D01*
X85561890Y-148445321D01*
X85608189Y-148405941D01*
X85636864Y-148352849D01*
X85645101Y-148298373D01*
X85636864Y-148244269D01*
X85608189Y-148191988D01*
X85561890Y-148153516D01*
X85510494Y-148133232D01*
X85450317Y-148126157D01*
X85390739Y-148133232D01*
X85339452Y-148153516D01*
X85292919Y-148191988D01*
X85263908Y-148244269D01*
X85255533Y-148298373D01*
X85129445Y-148298373D01*
X85128454Y-148289507D01*
X85134669Y-148231889D01*
X85152638Y-148179278D01*
X85181343Y-148132497D01*
X85219767Y-148092372D01*
X85266893Y-148059728D01*
X85321705Y-148035390D01*
X85383185Y-148020182D01*
X85450317Y-148014929D01*
X85517715Y-148020182D01*
G37*
G36*
X86272438Y-149063000D02*
G01*
X86407847Y-149063000D01*
X86777801Y-148036691D01*
X86628960Y-148036691D01*
X86343904Y-148894008D01*
X86339337Y-148894008D01*
X86052937Y-148036691D01*
X85903290Y-148036691D01*
X86272438Y-149063000D01*
G37*
G36*
X87556399Y-149063000D02*
G01*
X87556399Y-148036691D01*
X87434692Y-148036691D01*
X87380409Y-148066680D01*
X87331883Y-148094778D01*
X87282937Y-148124488D01*
X87234920Y-148155249D01*
X87189183Y-148186496D01*
X87181877Y-148191712D01*
X87181877Y-148325508D01*
X87234270Y-148290625D01*
X87283972Y-148258973D01*
X87333904Y-148228204D01*
X87380093Y-148200689D01*
X87423946Y-148175861D01*
X87426364Y-148175861D01*
X87426364Y-149063000D01*
X87556399Y-149063000D01*
G37*
G36*
X87766765Y-148990997D02*
G01*
X87784018Y-149042546D01*
X87831730Y-149074753D01*
X87853276Y-149077508D01*
X87905365Y-149060176D01*
X87937584Y-149012453D01*
X87940324Y-148990997D01*
X87923035Y-148938811D01*
X87879167Y-148907617D01*
X87853276Y-148903680D01*
X87801612Y-148921066D01*
X87770674Y-148965080D01*
X87766765Y-148990997D01*
G37*
G36*
X88136451Y-148805348D02*
G01*
X88145299Y-148860099D01*
X88163914Y-148911841D01*
X88192188Y-148959250D01*
X88230014Y-149001005D01*
X88277286Y-149035782D01*
X88333896Y-149062261D01*
X88399737Y-149079117D01*
X88455112Y-149084650D01*
X88474703Y-149085030D01*
X88532116Y-149081263D01*
X88586413Y-149070225D01*
X88653004Y-149044874D01*
X88711763Y-149008228D01*
X88761378Y-148961216D01*
X88800541Y-148904772D01*
X88827940Y-148839827D01*
X88839983Y-148786100D01*
X88844120Y-148728509D01*
X88840136Y-148672396D01*
X88823182Y-148603736D01*
X88794274Y-148542872D01*
X88754884Y-148490633D01*
X88706487Y-148447846D01*
X88650555Y-148415340D01*
X88588562Y-148393942D01*
X88521983Y-148384481D01*
X88504794Y-148384078D01*
X88445896Y-148389171D01*
X88393476Y-148402609D01*
X88342421Y-148425149D01*
X88296271Y-148458232D01*
X88283949Y-148472200D01*
X88281531Y-148472200D01*
X88315383Y-148150337D01*
X88767281Y-148150337D01*
X88767281Y-148035348D01*
X88204961Y-148035348D01*
X88148541Y-148632326D01*
X88259769Y-148632326D01*
X88289856Y-148582694D01*
X88329485Y-148543680D01*
X88382857Y-148513611D01*
X88440501Y-148498450D01*
X88485450Y-148495306D01*
X88541624Y-148501788D01*
X88592799Y-148520720D01*
X88637124Y-148551325D01*
X88672748Y-148592829D01*
X88697819Y-148644457D01*
X88710488Y-148705435D01*
X88711667Y-148732270D01*
X88706163Y-148787438D01*
X88685547Y-148846530D01*
X88652690Y-148894462D01*
X88610825Y-148931026D01*
X88563187Y-148956011D01*
X88502955Y-148970417D01*
X88483032Y-148971384D01*
X88420331Y-148965340D01*
X88365886Y-148947398D01*
X88314744Y-148911811D01*
X88279134Y-148860876D01*
X88262725Y-148805348D01*
X88136451Y-148805348D01*
G37*
G36*
X89808904Y-149063000D02*
G01*
X89670540Y-149063000D01*
X89566835Y-148754838D01*
X89184790Y-148754838D01*
X89081085Y-149063000D01*
X88944064Y-149063000D01*
X89091667Y-148648715D01*
X89220254Y-148648715D01*
X89531371Y-148648715D01*
X89377962Y-148191712D01*
X89374200Y-148191712D01*
X89220254Y-148648715D01*
X89091667Y-148648715D01*
X89309720Y-148036691D01*
X89443517Y-148036691D01*
X89808904Y-149063000D01*
G37*
D14*
G36*
X79712057Y-142690455D02*
G01*
X79809030Y-142705686D01*
X79927387Y-142745088D01*
X80031574Y-142804848D01*
X80119769Y-142883368D01*
X80190153Y-142979052D01*
X80240905Y-143090302D01*
X80270204Y-143215520D01*
X80277006Y-143317641D01*
X80277006Y-143320572D01*
X80273964Y-143389452D01*
X80258350Y-143487300D01*
X80218097Y-143606418D01*
X80157301Y-143710988D01*
X80077784Y-143799288D01*
X79981366Y-143869594D01*
X79869866Y-143920184D01*
X79745106Y-143949335D01*
X79643928Y-143956092D01*
X79187194Y-143956092D01*
X79187194Y-144660000D01*
X78940997Y-144660000D01*
X78940997Y-142906336D01*
X79187194Y-142906336D01*
X79187194Y-143737250D01*
X79580914Y-143737250D01*
X79606987Y-143736799D01*
X79726600Y-143721292D01*
X79827560Y-143684514D01*
X79908871Y-143627585D01*
X79979106Y-143534244D01*
X80013687Y-143436916D01*
X80025436Y-143323014D01*
X80025436Y-143320572D01*
X80023540Y-143273094D01*
X80002539Y-143165687D01*
X79959104Y-143075302D01*
X79878768Y-142990883D01*
X79789478Y-142941880D01*
X79680938Y-142913476D01*
X79580914Y-142906336D01*
X79187194Y-142906336D01*
X78940997Y-142906336D01*
X78940997Y-142687494D01*
X79643928Y-142687494D01*
X79712057Y-142690455D01*
G37*
G36*
X81146540Y-143218480D02*
G01*
X81246185Y-143240112D01*
X81337777Y-143275508D01*
X81446179Y-143343190D01*
X81537399Y-143433120D01*
X81593553Y-143514403D01*
X81638431Y-143606950D01*
X81671342Y-143710224D01*
X81691595Y-143823690D01*
X81698499Y-143946810D01*
X81698499Y-143949253D01*
X81691619Y-144072321D01*
X81671435Y-144185883D01*
X81638630Y-144289371D01*
X81593888Y-144382218D01*
X81537892Y-144463856D01*
X81446905Y-144554290D01*
X81338747Y-144622443D01*
X81247334Y-144658127D01*
X81147856Y-144679953D01*
X81040997Y-144687355D01*
X80933425Y-144679930D01*
X80833437Y-144658043D01*
X80741688Y-144622277D01*
X80633301Y-144554003D01*
X80542275Y-144463468D01*
X80486332Y-144381789D01*
X80441682Y-144288945D01*
X80408978Y-144185520D01*
X80388876Y-144072095D01*
X80382030Y-143949253D01*
X80625296Y-143949253D01*
X80629597Y-144039698D01*
X80648235Y-144148165D01*
X80690958Y-144263439D01*
X80753565Y-144355081D01*
X80834233Y-144421952D01*
X80931140Y-144462911D01*
X81042463Y-144476817D01*
X81132006Y-144467833D01*
X81231065Y-144432003D01*
X81314217Y-144370000D01*
X81379738Y-144283065D01*
X81425909Y-144172437D01*
X81447755Y-144067712D01*
X81455233Y-143949253D01*
X81455233Y-143946810D01*
X81450969Y-143856764D01*
X81432474Y-143748785D01*
X81390035Y-143634041D01*
X81327765Y-143542831D01*
X81247422Y-143476282D01*
X81150759Y-143435525D01*
X81039532Y-143421688D01*
X80950767Y-143430608D01*
X80851924Y-143466198D01*
X80768399Y-143527827D01*
X80702182Y-143614300D01*
X80655262Y-143724420D01*
X80632957Y-143828737D01*
X80625296Y-143946810D01*
X80625296Y-143949253D01*
X80382030Y-143949253D01*
X80382030Y-143946810D01*
X80388910Y-143824028D01*
X80409094Y-143710768D01*
X80441899Y-143607589D01*
X80486642Y-143515047D01*
X80542638Y-143433702D01*
X80633624Y-143343621D01*
X80741782Y-143275758D01*
X80833196Y-143240237D01*
X80932673Y-143218515D01*
X81039532Y-143211151D01*
X81146540Y-143218480D01*
G37*
G36*
X82218248Y-144660000D02*
G01*
X82460537Y-144660000D01*
X82780495Y-143559441D01*
X82785868Y-143559441D01*
X83107292Y-144660000D01*
X83349092Y-144660000D01*
X83745743Y-143238506D01*
X83510293Y-143238506D01*
X83225994Y-144395240D01*
X83220621Y-144395240D01*
X82897732Y-143238506D01*
X82668143Y-143238506D01*
X82346720Y-144395240D01*
X82341346Y-144395240D01*
X82057048Y-143238506D01*
X81820621Y-143238506D01*
X82218248Y-144660000D01*
G37*
G36*
X84545694Y-143211991D02*
G01*
X84648078Y-143224369D01*
X84771189Y-143262854D01*
X84878076Y-143324856D01*
X84967751Y-143408621D01*
X85039221Y-143512400D01*
X85080282Y-143602313D01*
X85110129Y-143701759D01*
X85128343Y-143809999D01*
X85134508Y-143926294D01*
X85134508Y-144013733D01*
X84110642Y-144013733D01*
X84113459Y-144067153D01*
X84135868Y-144187716D01*
X84179051Y-144288841D01*
X84241546Y-144369420D01*
X84321888Y-144428347D01*
X84418611Y-144464515D01*
X84530251Y-144476817D01*
X84546994Y-144476556D01*
X84655021Y-144460873D01*
X84745481Y-144423557D01*
X84824640Y-144359103D01*
X84879030Y-144265303D01*
X84882937Y-144252602D01*
X85116922Y-144252602D01*
X85113991Y-144266280D01*
X85079021Y-144372480D01*
X85019270Y-144468273D01*
X84937220Y-144550551D01*
X84835354Y-144616206D01*
X84741261Y-144654672D01*
X84637345Y-144678919D01*
X84524877Y-144687355D01*
X84450142Y-144684042D01*
X84345456Y-144666930D01*
X84250035Y-144635789D01*
X84137937Y-144573496D01*
X84044024Y-144488785D01*
X83969277Y-144383101D01*
X83926383Y-144290941D01*
X83895234Y-144188402D01*
X83876241Y-144076095D01*
X83869818Y-143954626D01*
X83869818Y-143953649D01*
X83872738Y-143872700D01*
X83878655Y-143827620D01*
X84114549Y-143827620D01*
X84892707Y-143827620D01*
X84882761Y-143753834D01*
X84852010Y-143647758D01*
X84793818Y-143547896D01*
X84715173Y-143477356D01*
X84619011Y-143435499D01*
X84508269Y-143421688D01*
X84433088Y-143428251D01*
X84330606Y-143462412D01*
X84243632Y-143525186D01*
X84175720Y-143615935D01*
X84136253Y-143712470D01*
X84114549Y-143827620D01*
X83878655Y-143827620D01*
X83887806Y-143757895D01*
X83915194Y-143651750D01*
X83954335Y-143555072D01*
X84004661Y-143468667D01*
X84088182Y-143370836D01*
X84189234Y-143294614D01*
X84306472Y-143241915D01*
X84404213Y-143218976D01*
X84509734Y-143211151D01*
X84545694Y-143211991D01*
G37*
G36*
X85373866Y-144660000D02*
G01*
X85611758Y-144660000D01*
X85611758Y-143782679D01*
X85624065Y-143670496D01*
X85659517Y-143578463D01*
X85727193Y-143498698D01*
X85819877Y-143451091D01*
X85916573Y-143437808D01*
X86017192Y-143445283D01*
X86043579Y-143451486D01*
X86043579Y-143220432D01*
X85947836Y-143211151D01*
X85848674Y-143225567D01*
X85751334Y-143274987D01*
X85674516Y-143355686D01*
X85626979Y-143448787D01*
X85617131Y-143478841D01*
X85611758Y-143478841D01*
X85611758Y-143238506D01*
X85373866Y-143238506D01*
X85373866Y-144660000D01*
G37*
G36*
X87491939Y-144693217D02*
G01*
X87614214Y-144687446D01*
X87726806Y-144670445D01*
X87829204Y-144642675D01*
X87920895Y-144604602D01*
X88025610Y-144538611D01*
X88109168Y-144456225D01*
X88170355Y-144358543D01*
X88207956Y-144246664D01*
X88220760Y-144121688D01*
X88220760Y-144120223D01*
X88212687Y-144013674D01*
X88179080Y-143897421D01*
X88117946Y-143798667D01*
X88027788Y-143716005D01*
X87933757Y-143660514D01*
X87819424Y-143613699D01*
X87719889Y-143583846D01*
X87646789Y-143566280D01*
X87427948Y-143518408D01*
X87317524Y-143488920D01*
X87226854Y-143452430D01*
X87143527Y-143398913D01*
X87080511Y-143322303D01*
X87052164Y-143214897D01*
X87051814Y-143199916D01*
X87051814Y-143198939D01*
X87069466Y-143099200D01*
X87120284Y-143015356D01*
X87201061Y-142949801D01*
X87308589Y-142904931D01*
X87416318Y-142885070D01*
X87488032Y-142881423D01*
X87599045Y-142890009D01*
X87696763Y-142915194D01*
X87794678Y-142966114D01*
X87869410Y-143038209D01*
X87918756Y-143129991D01*
X87936461Y-143201381D01*
X87939392Y-143220432D01*
X88185101Y-143220432D01*
X88184124Y-143199916D01*
X88164004Y-143083927D01*
X88121353Y-142978723D01*
X88058003Y-142885747D01*
X87975785Y-142806441D01*
X87876530Y-142742247D01*
X87762072Y-142694608D01*
X87667353Y-142670611D01*
X87565884Y-142657346D01*
X87494870Y-142654766D01*
X87383970Y-142660636D01*
X87280154Y-142677821D01*
X87184251Y-142705684D01*
X87070114Y-142758341D01*
X86973468Y-142827337D01*
X86896270Y-142911158D01*
X86840480Y-143008295D01*
X86808053Y-143117235D01*
X86800244Y-143205778D01*
X86800244Y-143206755D01*
X86808763Y-143309664D01*
X86843667Y-143423582D01*
X86906032Y-143521719D01*
X86996407Y-143604691D01*
X87089243Y-143660564D01*
X87200635Y-143707438D01*
X87296526Y-143736879D01*
X87366399Y-143753859D01*
X87585240Y-143801730D01*
X87700741Y-143832763D01*
X87794207Y-143870128D01*
X87878698Y-143924584D01*
X87941319Y-144003332D01*
X87967851Y-144100804D01*
X87969190Y-144132435D01*
X87969190Y-144133900D01*
X87950813Y-144240196D01*
X87897603Y-144328517D01*
X87812437Y-144396759D01*
X87719132Y-144436768D01*
X87607301Y-144460153D01*
X87505617Y-144466071D01*
X87403029Y-144460457D01*
X87288492Y-144438206D01*
X87190613Y-144399990D01*
X87097321Y-144334504D01*
X87032906Y-144249286D01*
X87000034Y-144146113D01*
X86997103Y-144127062D01*
X86750907Y-144127062D01*
X86752372Y-144146113D01*
X86773812Y-144266533D01*
X86818470Y-144373999D01*
X86884882Y-144467554D01*
X86971580Y-144546243D01*
X87077101Y-144609110D01*
X87199978Y-144655199D01*
X87302644Y-144678179D01*
X87413631Y-144690781D01*
X87491939Y-144693217D01*
G37*
G36*
X88955931Y-144687355D02*
G01*
X89070108Y-144677553D01*
X89169293Y-144649745D01*
X89266265Y-144597741D01*
X89343288Y-144528293D01*
X89393614Y-144457766D01*
X89398988Y-144457766D01*
X89398988Y-144660000D01*
X89636880Y-144660000D01*
X89636880Y-143238506D01*
X89398988Y-143238506D01*
X89398988Y-144075282D01*
X89388549Y-144182319D01*
X89358270Y-144275557D01*
X89297932Y-144366725D01*
X89213947Y-144432390D01*
X89109000Y-144469481D01*
X89028715Y-144476817D01*
X88917293Y-144463574D01*
X88816707Y-144415474D01*
X88747617Y-144333587D01*
X88713324Y-144237600D01*
X88702235Y-144140113D01*
X88701919Y-144118757D01*
X88701919Y-143238506D01*
X88464026Y-143238506D01*
X88464026Y-144161256D01*
X88472380Y-144276846D01*
X88497060Y-144380090D01*
X88537494Y-144470041D01*
X88609317Y-144562348D01*
X88703743Y-144630566D01*
X88794807Y-144666557D01*
X88899048Y-144685004D01*
X88955931Y-144687355D01*
G37*
G36*
X90771028Y-143224474D02*
G01*
X90888457Y-143263419D01*
X90991621Y-143326453D01*
X91079134Y-143412041D01*
X91149612Y-143518649D01*
X91190456Y-143611477D01*
X91220355Y-143714618D01*
X91238723Y-143827426D01*
X91244975Y-143949253D01*
X91244975Y-143950718D01*
X91238656Y-144072509D01*
X91220130Y-144185218D01*
X91190044Y-144288212D01*
X91149045Y-144380859D01*
X91078524Y-144487198D01*
X90991287Y-144572517D01*
X90888869Y-144635316D01*
X90772804Y-144674095D01*
X90644626Y-144687355D01*
X90607405Y-144686179D01*
X90501294Y-144668998D01*
X90404791Y-144632523D01*
X90319540Y-144578280D01*
X90247181Y-144507796D01*
X90189357Y-144422595D01*
X90183984Y-144422595D01*
X90183984Y-145138715D01*
X89946092Y-145138715D01*
X89946092Y-143950718D01*
X90182519Y-143950718D01*
X90186978Y-144036952D01*
X90206163Y-144142211D01*
X90249675Y-144256498D01*
X90312623Y-144349416D01*
X90392581Y-144418652D01*
X90487124Y-144461890D01*
X90593824Y-144476817D01*
X90683557Y-144467495D01*
X90782029Y-144430620D01*
X90864000Y-144367441D01*
X90928097Y-144279803D01*
X90972942Y-144169552D01*
X90994034Y-144066309D01*
X91001221Y-143950718D01*
X91001221Y-143949253D01*
X90997162Y-143860726D01*
X90979480Y-143753667D01*
X90938650Y-143638716D01*
X90878294Y-143546332D01*
X90799787Y-143478226D01*
X90704506Y-143436108D01*
X90593824Y-143421688D01*
X90507148Y-143431294D01*
X90409762Y-143469085D01*
X90326723Y-143533396D01*
X90260357Y-143621947D01*
X90212988Y-143732457D01*
X90190334Y-143835142D01*
X90182519Y-143949253D01*
X90182519Y-143950718D01*
X89946092Y-143950718D01*
X89946092Y-143238506D01*
X90183984Y-143238506D01*
X90183984Y-143478841D01*
X90189357Y-143478841D01*
X90206840Y-143448626D01*
X90268744Y-143367359D01*
X90344069Y-143301395D01*
X90431831Y-143252315D01*
X90531042Y-143221706D01*
X90640718Y-143211151D01*
X90771028Y-143224474D01*
G37*
G36*
X92308781Y-143224474D02*
G01*
X92426210Y-143263419D01*
X92529374Y-143326453D01*
X92616887Y-143412041D01*
X92687365Y-143518649D01*
X92728209Y-143611477D01*
X92758108Y-143714618D01*
X92776476Y-143827426D01*
X92782728Y-143949253D01*
X92782728Y-143950718D01*
X92776409Y-144072509D01*
X92757883Y-144185218D01*
X92727796Y-144288212D01*
X92686798Y-144380859D01*
X92616277Y-144487198D01*
X92529040Y-144572517D01*
X92426622Y-144635316D01*
X92310557Y-144674095D01*
X92182379Y-144687355D01*
X92145157Y-144686179D01*
X92039047Y-144668998D01*
X91942544Y-144632523D01*
X91857293Y-144578280D01*
X91784934Y-144507796D01*
X91727110Y-144422595D01*
X91721737Y-144422595D01*
X91721737Y-145138715D01*
X91483845Y-145138715D01*
X91483845Y-143950718D01*
X91720272Y-143950718D01*
X91724731Y-144036952D01*
X91743916Y-144142211D01*
X91787428Y-144256498D01*
X91850376Y-144349416D01*
X91930334Y-144418652D01*
X92024877Y-144461890D01*
X92131577Y-144476817D01*
X92221310Y-144467495D01*
X92319782Y-144430620D01*
X92401753Y-144367441D01*
X92465850Y-144279803D01*
X92510695Y-144169552D01*
X92531787Y-144066309D01*
X92538974Y-143950718D01*
X92538974Y-143949253D01*
X92534914Y-143860726D01*
X92517233Y-143753667D01*
X92476403Y-143638716D01*
X92416047Y-143546332D01*
X92337540Y-143478226D01*
X92242258Y-143436108D01*
X92131577Y-143421688D01*
X92044901Y-143431294D01*
X91947515Y-143469085D01*
X91864476Y-143533396D01*
X91798110Y-143621947D01*
X91750741Y-143732457D01*
X91728087Y-143835142D01*
X91720272Y-143949253D01*
X91720272Y-143950718D01*
X91483845Y-143950718D01*
X91483845Y-143238506D01*
X91721737Y-143238506D01*
X91721737Y-143478841D01*
X91727110Y-143478841D01*
X91744593Y-143448626D01*
X91806497Y-143367359D01*
X91881822Y-143301395D01*
X91969583Y-143252315D01*
X92068795Y-143221706D01*
X92178471Y-143211151D01*
X92308781Y-143224474D01*
G37*
G36*
X93033810Y-144660000D02*
G01*
X93271702Y-144660000D01*
X93271702Y-142687494D01*
X93033810Y-142687494D01*
X93033810Y-144660000D01*
G37*
G36*
X93728925Y-145138715D02*
G01*
X93840087Y-145129953D01*
X93934351Y-145103108D01*
X94028672Y-145045842D01*
X94106558Y-144959880D01*
X94162017Y-144865278D01*
X94201997Y-144773961D01*
X94211549Y-144748904D01*
X94766468Y-143238506D01*
X94516364Y-143238506D01*
X94122644Y-144422595D01*
X94117271Y-144422595D01*
X93724528Y-143238506D01*
X93470516Y-143238506D01*
X93998080Y-144661465D01*
X93969260Y-144742065D01*
X93927542Y-144831327D01*
X93858679Y-144902594D01*
X93755961Y-144937274D01*
X93678122Y-144941856D01*
X93601430Y-144933551D01*
X93601430Y-145127969D01*
X93702341Y-145138184D01*
X93728925Y-145138715D01*
G37*
D15*
G36*
X78995464Y-141440000D02*
G01*
X79613154Y-141440000D01*
X79613154Y-139502665D01*
X79625610Y-139502665D01*
X80966503Y-141440000D01*
X81503593Y-141440000D01*
X81503593Y-138481242D01*
X80886636Y-138481242D01*
X80886636Y-140404654D01*
X80874180Y-140404654D01*
X79536950Y-138481242D01*
X78995464Y-138481242D01*
X78995464Y-141440000D01*
G37*
G36*
X83070686Y-139202105D02*
G01*
X83241163Y-139227956D01*
X83398063Y-139275210D01*
X83540357Y-139343146D01*
X83667017Y-139431044D01*
X83777013Y-139538181D01*
X83869316Y-139663838D01*
X83942899Y-139807294D01*
X83996732Y-139967827D01*
X84029786Y-140144717D01*
X84041032Y-140337243D01*
X84041032Y-140340907D01*
X84036097Y-140472095D01*
X84010613Y-140655630D01*
X83964245Y-140822676D01*
X83897909Y-140972565D01*
X83812523Y-141104632D01*
X83709003Y-141218209D01*
X83588265Y-141312631D01*
X83451225Y-141387230D01*
X83298801Y-141441340D01*
X83131909Y-141474296D01*
X82951465Y-141485429D01*
X82829113Y-141480440D01*
X82657022Y-141454573D01*
X82499417Y-141407267D01*
X82357152Y-141339221D01*
X82231082Y-141251134D01*
X82122062Y-141143706D01*
X82030946Y-141017634D01*
X81958590Y-140873620D01*
X81905849Y-140712361D01*
X81873578Y-140534557D01*
X81862630Y-140340907D01*
X82471528Y-140340907D01*
X82480133Y-140493603D01*
X82514123Y-140658821D01*
X82572253Y-140794314D01*
X82671347Y-140915827D01*
X82799517Y-140990392D01*
X82953663Y-141015750D01*
X83106043Y-140990204D01*
X83232979Y-140915247D01*
X83331282Y-140793401D01*
X83389030Y-140657863D01*
X83422836Y-140492972D01*
X83431402Y-140340907D01*
X83431402Y-140337243D01*
X83422648Y-140186418D01*
X83388198Y-140022732D01*
X83329555Y-139888059D01*
X83230152Y-139766874D01*
X83102445Y-139692251D01*
X82950000Y-139666796D01*
X82798368Y-139692251D01*
X82671418Y-139766874D01*
X82572656Y-139888059D01*
X82514416Y-140022732D01*
X82480216Y-140186418D01*
X82471528Y-140337243D01*
X82471528Y-140340907D01*
X81862630Y-140340907D01*
X81862630Y-140337243D01*
X81867629Y-140207794D01*
X81893404Y-140026231D01*
X81940208Y-139860489D01*
X82007028Y-139711342D01*
X82092849Y-139579566D01*
X82196657Y-139465937D01*
X82317437Y-139371229D01*
X82454176Y-139296218D01*
X82605859Y-139241679D01*
X82771472Y-139208387D01*
X82950000Y-139197117D01*
X83070686Y-139202105D01*
G37*
G36*
X85219993Y-141485429D02*
G01*
X85367371Y-141479503D01*
X85508688Y-141462714D01*
X85508688Y-141023810D01*
X85379727Y-141034068D01*
X85225191Y-141006713D01*
X85124394Y-140888782D01*
X85107152Y-140759295D01*
X85107152Y-139693175D01*
X85508688Y-139693175D01*
X85508688Y-139241814D01*
X85107152Y-139241814D01*
X85107152Y-138704724D01*
X84501919Y-138704724D01*
X84501919Y-139241814D01*
X84196371Y-139241814D01*
X84196371Y-139693175D01*
X84501919Y-139693175D01*
X84501919Y-140825240D01*
X84512758Y-140989088D01*
X84557136Y-141158214D01*
X84636365Y-141289727D01*
X84751080Y-141385806D01*
X84901920Y-141448632D01*
X85049029Y-141476416D01*
X85219993Y-141485429D01*
G37*
G36*
X85888974Y-141440000D02*
G01*
X86508862Y-141440000D01*
X86508862Y-140193628D01*
X87841695Y-140193628D01*
X87841695Y-141440000D01*
X88460851Y-141440000D01*
X88460851Y-138481242D01*
X87841695Y-138481242D01*
X87841695Y-139682916D01*
X86508862Y-139682916D01*
X86508862Y-138481242D01*
X85888974Y-138481242D01*
X85888974Y-141440000D01*
G37*
G36*
X90028676Y-139202105D02*
G01*
X90199153Y-139227956D01*
X90356053Y-139275210D01*
X90498347Y-139343146D01*
X90625007Y-139431044D01*
X90735003Y-139538181D01*
X90827306Y-139663838D01*
X90900889Y-139807294D01*
X90954722Y-139967827D01*
X90987776Y-140144717D01*
X90999023Y-140337243D01*
X90999023Y-140340907D01*
X90994088Y-140472095D01*
X90968603Y-140655630D01*
X90922235Y-140822676D01*
X90855899Y-140972565D01*
X90770513Y-141104632D01*
X90666993Y-141218209D01*
X90546255Y-141312631D01*
X90409216Y-141387230D01*
X90256792Y-141441340D01*
X90089899Y-141474296D01*
X89909455Y-141485429D01*
X89787103Y-141480440D01*
X89615013Y-141454573D01*
X89457407Y-141407267D01*
X89315142Y-141339221D01*
X89189072Y-141251134D01*
X89080052Y-141143706D01*
X88988936Y-141017634D01*
X88916581Y-140873620D01*
X88863839Y-140712361D01*
X88831568Y-140534557D01*
X88820621Y-140340907D01*
X89429518Y-140340907D01*
X89438123Y-140493603D01*
X89472113Y-140658821D01*
X89530243Y-140794314D01*
X89629337Y-140915827D01*
X89757507Y-140990392D01*
X89911653Y-141015750D01*
X90064033Y-140990204D01*
X90190969Y-140915247D01*
X90289272Y-140793401D01*
X90347020Y-140657863D01*
X90380826Y-140492972D01*
X90389392Y-140340907D01*
X90389392Y-140337243D01*
X90380638Y-140186418D01*
X90346189Y-140022732D01*
X90287545Y-139888059D01*
X90188142Y-139766874D01*
X90060436Y-139692251D01*
X89907990Y-139666796D01*
X89756358Y-139692251D01*
X89629408Y-139766874D01*
X89530646Y-139888059D01*
X89472407Y-140022732D01*
X89438206Y-140186418D01*
X89429518Y-140337243D01*
X89429518Y-140340907D01*
X88820621Y-140340907D01*
X88820621Y-140337243D01*
X88825619Y-140207794D01*
X88851394Y-140026231D01*
X88898198Y-139860489D01*
X88965018Y-139711342D01*
X89050839Y-139579566D01*
X89154647Y-139465937D01*
X89275427Y-139371229D01*
X89412166Y-139296218D01*
X89563849Y-139241679D01*
X89729462Y-139208387D01*
X89907990Y-139197117D01*
X90028676Y-139202105D01*
G37*
G36*
X91303838Y-141440000D02*
G01*
X91903210Y-141440000D01*
X91903210Y-140113761D01*
X91924455Y-139962696D01*
X91996338Y-139824574D01*
X92111755Y-139731901D01*
X92263151Y-139693676D01*
X92284228Y-139693175D01*
X92433304Y-139718614D01*
X92555899Y-139804676D01*
X92625166Y-139946097D01*
X92638869Y-140068332D01*
X92638869Y-141440000D01*
X93215526Y-141440000D01*
X93215526Y-140103503D01*
X93236240Y-139955456D01*
X93306738Y-139820709D01*
X93437784Y-139722976D01*
X93592882Y-139693175D01*
X93746663Y-139718900D01*
X93870292Y-139807423D01*
X93938626Y-139955923D01*
X93951919Y-140086650D01*
X93951919Y-141440000D01*
X94550558Y-141440000D01*
X94550558Y-139937173D01*
X94537281Y-139778098D01*
X94498614Y-139634522D01*
X94417230Y-139479529D01*
X94302301Y-139354941D01*
X94157231Y-139264197D01*
X93985425Y-139210734D01*
X93831018Y-139197117D01*
X93684691Y-139209712D01*
X93524068Y-139256421D01*
X93383664Y-139334804D01*
X93267594Y-139441907D01*
X93179972Y-139574773D01*
X93148115Y-139649944D01*
X93135659Y-139649944D01*
X93078696Y-139500679D01*
X92992781Y-139379477D01*
X92859398Y-139275513D01*
X92719604Y-139220183D01*
X92559028Y-139197595D01*
X92530425Y-139197117D01*
X92371758Y-139213849D01*
X92229871Y-139262033D01*
X92089370Y-139353979D01*
X91980169Y-139479849D01*
X91914933Y-139611109D01*
X91903210Y-139611109D01*
X91903210Y-139241814D01*
X91303838Y-139241814D01*
X91303838Y-141440000D01*
G37*
G36*
X96023891Y-139202184D02*
G01*
X96189542Y-139228306D01*
X96341232Y-139275737D01*
X96478142Y-139343444D01*
X96599453Y-139430395D01*
X96704347Y-139535558D01*
X96792006Y-139657899D01*
X96861610Y-139796388D01*
X96912340Y-139949990D01*
X96943379Y-140117675D01*
X96953907Y-140298408D01*
X96953907Y-140482323D01*
X95440090Y-140482323D01*
X95441245Y-140514798D01*
X95462743Y-140663978D01*
X95521466Y-140812528D01*
X95631931Y-140940863D01*
X95783458Y-141017217D01*
X95942742Y-141038464D01*
X96030513Y-141032399D01*
X96178407Y-140989082D01*
X96299788Y-140905160D01*
X96381646Y-140779811D01*
X96386043Y-140767355D01*
X96935589Y-140767355D01*
X96928995Y-140790069D01*
X96879777Y-140943771D01*
X96793968Y-141094856D01*
X96697613Y-141207395D01*
X96575502Y-141307207D01*
X96426596Y-141389383D01*
X96249856Y-141449010D01*
X96098410Y-141475979D01*
X95930286Y-141485429D01*
X95807300Y-141480353D01*
X95634905Y-141454092D01*
X95477643Y-141406202D01*
X95336223Y-141337525D01*
X95211355Y-141248899D01*
X95103750Y-141141166D01*
X95014117Y-141015166D01*
X94943167Y-140871739D01*
X94891609Y-140711726D01*
X94860154Y-140535967D01*
X94849511Y-140345303D01*
X94849511Y-140343105D01*
X94854301Y-140215039D01*
X94869393Y-140104968D01*
X95446685Y-140104968D01*
X96379448Y-140104968D01*
X96365457Y-140023505D01*
X96305692Y-139863654D01*
X96211690Y-139746719D01*
X96068238Y-139666574D01*
X95916364Y-139644082D01*
X95805788Y-139655983D01*
X95669802Y-139711663D01*
X95560559Y-139811075D01*
X95483353Y-139952239D01*
X95446685Y-140104968D01*
X94869393Y-140104968D01*
X94879035Y-140034643D01*
X94924032Y-139869144D01*
X94988397Y-139719507D01*
X95071236Y-139586695D01*
X95171653Y-139471673D01*
X95288755Y-139375402D01*
X95421645Y-139298848D01*
X95569431Y-139242973D01*
X95731216Y-139208742D01*
X95906106Y-139197117D01*
X96023891Y-139202184D01*
G37*
G36*
X98615132Y-138485900D02*
G01*
X98777003Y-138509913D01*
X98926218Y-138553507D01*
X99061745Y-138615725D01*
X99219370Y-138726002D01*
X99348378Y-138865421D01*
X99446321Y-139031717D01*
X99497921Y-139172713D01*
X99529637Y-139326595D01*
X99540439Y-139492407D01*
X99540439Y-139496071D01*
X99535613Y-139607770D01*
X99510753Y-139765611D01*
X99465666Y-139910944D01*
X99375871Y-140083592D01*
X99254400Y-140229990D01*
X99103700Y-140347846D01*
X98972965Y-140416128D01*
X98828199Y-140466099D01*
X98670432Y-140496791D01*
X98500697Y-140507236D01*
X97930635Y-140507236D01*
X97930635Y-141440000D01*
X97310746Y-141440000D01*
X97310746Y-138971437D01*
X97930635Y-138971437D01*
X97930635Y-140023635D01*
X98349023Y-140023635D01*
X98444869Y-140018685D01*
X98612247Y-139979703D01*
X98745129Y-139903323D01*
X98841023Y-139791196D01*
X98897436Y-139644974D01*
X98912491Y-139498269D01*
X98912491Y-139493872D01*
X98907037Y-139403272D01*
X98864337Y-139246545D01*
X98781326Y-139123632D01*
X98660497Y-139035954D01*
X98504340Y-138984931D01*
X98349023Y-138971437D01*
X97930635Y-138971437D01*
X97310746Y-138971437D01*
X97310746Y-138481242D01*
X98500697Y-138481242D01*
X98615132Y-138485900D01*
G37*
G36*
X100908229Y-139202105D02*
G01*
X101078707Y-139227956D01*
X101235607Y-139275210D01*
X101377901Y-139343146D01*
X101504560Y-139431044D01*
X101614556Y-139538181D01*
X101706860Y-139663838D01*
X101780442Y-139807294D01*
X101834275Y-139967827D01*
X101867329Y-140144717D01*
X101878576Y-140337243D01*
X101878576Y-140340907D01*
X101873641Y-140472095D01*
X101848156Y-140655630D01*
X101801788Y-140822676D01*
X101735453Y-140972565D01*
X101650067Y-141104632D01*
X101546546Y-141218209D01*
X101425808Y-141312631D01*
X101288769Y-141387230D01*
X101136345Y-141441340D01*
X100969453Y-141474296D01*
X100789009Y-141485429D01*
X100666657Y-141480440D01*
X100494566Y-141454573D01*
X100336961Y-141407267D01*
X100194696Y-141339221D01*
X100068626Y-141251134D01*
X99959605Y-141143706D01*
X99868490Y-141017634D01*
X99796134Y-140873620D01*
X99743393Y-140712361D01*
X99711121Y-140534557D01*
X99700174Y-140340907D01*
X100309071Y-140340907D01*
X100317677Y-140493603D01*
X100351667Y-140658821D01*
X100409796Y-140794314D01*
X100508890Y-140915827D01*
X100637061Y-140990392D01*
X100791207Y-141015750D01*
X100943587Y-140990204D01*
X101070522Y-140915247D01*
X101168826Y-140793401D01*
X101226573Y-140657863D01*
X101260379Y-140492972D01*
X101268946Y-140340907D01*
X101268946Y-140337243D01*
X101260192Y-140186418D01*
X101225742Y-140022732D01*
X101167099Y-139888059D01*
X101067696Y-139766874D01*
X100939989Y-139692251D01*
X100787543Y-139666796D01*
X100635912Y-139692251D01*
X100508962Y-139766874D01*
X100410200Y-139888059D01*
X100351960Y-140022732D01*
X100317760Y-140186418D01*
X100309071Y-140337243D01*
X100309071Y-140340907D01*
X99700174Y-140340907D01*
X99700174Y-140337243D01*
X99705173Y-140207794D01*
X99730947Y-140026231D01*
X99777752Y-139860489D01*
X99844571Y-139711342D01*
X99930392Y-139579566D01*
X100034200Y-139465937D01*
X100154981Y-139371229D01*
X100291720Y-139296218D01*
X100443403Y-139241679D01*
X100609015Y-139208387D01*
X100787543Y-139197117D01*
X100908229Y-139202105D01*
G37*
G36*
X104285589Y-141440000D02*
G01*
X103686950Y-141440000D01*
X103686950Y-141064842D01*
X103674494Y-141064842D01*
X103651185Y-141112553D01*
X103564287Y-141240606D01*
X103453509Y-141344238D01*
X103320880Y-141421132D01*
X103168430Y-141468968D01*
X102998185Y-141485429D01*
X102946882Y-141484171D01*
X102800700Y-141465522D01*
X102624700Y-141406958D01*
X102471677Y-141311471D01*
X102343126Y-141180797D01*
X102240541Y-141016668D01*
X102181541Y-140872662D01*
X102138618Y-140711545D01*
X102112402Y-140534049D01*
X102103524Y-140340907D01*
X102712421Y-140340907D01*
X102717287Y-140449347D01*
X102746298Y-140611009D01*
X102813514Y-140770804D01*
X102913313Y-140889680D01*
X103042768Y-140963811D01*
X103198953Y-140989371D01*
X103303534Y-140977827D01*
X103441545Y-140919108D01*
X103553135Y-140814341D01*
X103634046Y-140667610D01*
X103674962Y-140516228D01*
X103689148Y-140340907D01*
X103689148Y-140339441D01*
X103683929Y-140231901D01*
X103653153Y-140071228D01*
X103583015Y-139911959D01*
X103480922Y-139793136D01*
X103351394Y-139718846D01*
X103198953Y-139693175D01*
X103092636Y-139704445D01*
X102954288Y-139762042D01*
X102844129Y-139865457D01*
X102765345Y-140011299D01*
X102725960Y-140162797D01*
X102712421Y-140339441D01*
X102712421Y-140340907D01*
X102103524Y-140340907D01*
X102103524Y-140339441D01*
X102104518Y-140273180D01*
X102119246Y-140084822D01*
X102151101Y-139912631D01*
X102199453Y-139757283D01*
X102263671Y-139619455D01*
X102372888Y-139464111D01*
X102507697Y-139342724D01*
X102666604Y-139256902D01*
X102848116Y-139208249D01*
X102998185Y-139197117D01*
X103055795Y-139198976D01*
X103218542Y-139226243D01*
X103364248Y-139284422D01*
X103490451Y-139371427D01*
X103594688Y-139485170D01*
X103674494Y-139623565D01*
X103686950Y-139623565D01*
X103686950Y-138481242D01*
X104285589Y-138481242D01*
X104285589Y-141440000D01*
G37*
D11*
X99380951Y-99416120D02*
X99380951Y-100130405D01*
X99380951Y-100130405D02*
X99333332Y-100273262D01*
X99333332Y-100273262D02*
X99238094Y-100368501D01*
X99238094Y-100368501D02*
X99095237Y-100416120D01*
X99095237Y-100416120D02*
X98999999Y-100416120D01*
X100333332Y-100416120D02*
X99857142Y-100416120D01*
X99857142Y-100416120D02*
X99857142Y-99416120D01*
X101238094Y-100320881D02*
X101190475Y-100368501D01*
X101190475Y-100368501D02*
X101047618Y-100416120D01*
X101047618Y-100416120D02*
X100952380Y-100416120D01*
X100952380Y-100416120D02*
X100809523Y-100368501D01*
X100809523Y-100368501D02*
X100714285Y-100273262D01*
X100714285Y-100273262D02*
X100666666Y-100178024D01*
X100666666Y-100178024D02*
X100619047Y-99987548D01*
X100619047Y-99987548D02*
X100619047Y-99844691D01*
X100619047Y-99844691D02*
X100666666Y-99654215D01*
X100666666Y-99654215D02*
X100714285Y-99558977D01*
X100714285Y-99558977D02*
X100809523Y-99463739D01*
X100809523Y-99463739D02*
X100952380Y-99416120D01*
X100952380Y-99416120D02*
X101047618Y-99416120D01*
X101047618Y-99416120D02*
X101190475Y-99463739D01*
X101190475Y-99463739D02*
X101238094Y-99511358D01*
X101952380Y-99416120D02*
X101952380Y-100130405D01*
X101952380Y-100130405D02*
X101904761Y-100273262D01*
X101904761Y-100273262D02*
X101809523Y-100368501D01*
X101809523Y-100368501D02*
X101666666Y-100416120D01*
X101666666Y-100416120D02*
X101571428Y-100416120D01*
X102904761Y-100416120D02*
X102428571Y-100416120D01*
X102428571Y-100416120D02*
X102428571Y-99416120D01*
X103809523Y-100320881D02*
X103761904Y-100368501D01*
X103761904Y-100368501D02*
X103619047Y-100416120D01*
X103619047Y-100416120D02*
X103523809Y-100416120D01*
X103523809Y-100416120D02*
X103380952Y-100368501D01*
X103380952Y-100368501D02*
X103285714Y-100273262D01*
X103285714Y-100273262D02*
X103238095Y-100178024D01*
X103238095Y-100178024D02*
X103190476Y-99987548D01*
X103190476Y-99987548D02*
X103190476Y-99844691D01*
X103190476Y-99844691D02*
X103238095Y-99654215D01*
X103238095Y-99654215D02*
X103285714Y-99558977D01*
X103285714Y-99558977D02*
X103380952Y-99463739D01*
X103380952Y-99463739D02*
X103523809Y-99416120D01*
X103523809Y-99416120D02*
X103619047Y-99416120D01*
X103619047Y-99416120D02*
X103761904Y-99463739D01*
X103761904Y-99463739D02*
X103809523Y-99511358D01*
X104523809Y-99416120D02*
X104523809Y-100130405D01*
X104523809Y-100130405D02*
X104476190Y-100273262D01*
X104476190Y-100273262D02*
X104380952Y-100368501D01*
X104380952Y-100368501D02*
X104238095Y-100416120D01*
X104238095Y-100416120D02*
X104142857Y-100416120D01*
X105476190Y-100416120D02*
X105000000Y-100416120D01*
X105000000Y-100416120D02*
X105000000Y-99416120D01*
X106380952Y-100320881D02*
X106333333Y-100368501D01*
X106333333Y-100368501D02*
X106190476Y-100416120D01*
X106190476Y-100416120D02*
X106095238Y-100416120D01*
X106095238Y-100416120D02*
X105952381Y-100368501D01*
X105952381Y-100368501D02*
X105857143Y-100273262D01*
X105857143Y-100273262D02*
X105809524Y-100178024D01*
X105809524Y-100178024D02*
X105761905Y-99987548D01*
X105761905Y-99987548D02*
X105761905Y-99844691D01*
X105761905Y-99844691D02*
X105809524Y-99654215D01*
X105809524Y-99654215D02*
X105857143Y-99558977D01*
X105857143Y-99558977D02*
X105952381Y-99463739D01*
X105952381Y-99463739D02*
X106095238Y-99416120D01*
X106095238Y-99416120D02*
X106190476Y-99416120D01*
X106190476Y-99416120D02*
X106333333Y-99463739D01*
X106333333Y-99463739D02*
X106380952Y-99511358D01*
X107095238Y-99416120D02*
X107095238Y-100130405D01*
X107095238Y-100130405D02*
X107047619Y-100273262D01*
X107047619Y-100273262D02*
X106952381Y-100368501D01*
X106952381Y-100368501D02*
X106809524Y-100416120D01*
X106809524Y-100416120D02*
X106714286Y-100416120D01*
X108047619Y-100416120D02*
X107571429Y-100416120D01*
X107571429Y-100416120D02*
X107571429Y-99416120D01*
X108952381Y-100320881D02*
X108904762Y-100368501D01*
X108904762Y-100368501D02*
X108761905Y-100416120D01*
X108761905Y-100416120D02*
X108666667Y-100416120D01*
X108666667Y-100416120D02*
X108523810Y-100368501D01*
X108523810Y-100368501D02*
X108428572Y-100273262D01*
X108428572Y-100273262D02*
X108380953Y-100178024D01*
X108380953Y-100178024D02*
X108333334Y-99987548D01*
X108333334Y-99987548D02*
X108333334Y-99844691D01*
X108333334Y-99844691D02*
X108380953Y-99654215D01*
X108380953Y-99654215D02*
X108428572Y-99558977D01*
X108428572Y-99558977D02*
X108523810Y-99463739D01*
X108523810Y-99463739D02*
X108666667Y-99416120D01*
X108666667Y-99416120D02*
X108761905Y-99416120D01*
X108761905Y-99416120D02*
X108904762Y-99463739D01*
X108904762Y-99463739D02*
X108952381Y-99511358D01*
X104166666Y-102900181D02*
X104642856Y-102900181D01*
X104642856Y-102900181D02*
X104642856Y-103900181D01*
X103309523Y-102900181D02*
X103880951Y-102900181D01*
X103595237Y-102900181D02*
X103595237Y-103900181D01*
X103595237Y-103900181D02*
X103690475Y-103757324D01*
X103690475Y-103757324D02*
X103785713Y-103662086D01*
X103785713Y-103662086D02*
X103880951Y-103614467D01*
X95392081Y-78621079D02*
X94887005Y-79126155D01*
X94887005Y-79126155D02*
X94752318Y-79193499D01*
X94752318Y-79193499D02*
X94617631Y-79193499D01*
X94617631Y-79193499D02*
X94482944Y-79126155D01*
X94482944Y-79126155D02*
X94415600Y-79058812D01*
X95392081Y-80035293D02*
X94988020Y-79631232D01*
X95190051Y-79833262D02*
X95897158Y-79126155D01*
X95897158Y-79126155D02*
X95728799Y-79159827D01*
X95728799Y-79159827D02*
X95594112Y-79159827D01*
X95594112Y-79159827D02*
X95493097Y-79126155D01*
D16*
X97796756Y-74789673D02*
X97183930Y-76015324D01*
X97183930Y-76015324D02*
X98409582Y-75402499D01*
X97796756Y-76628150D02*
X98715995Y-75708912D01*
X98234489Y-77065884D02*
X99153728Y-76146645D01*
X99153728Y-76146645D02*
X98759768Y-77591163D01*
X98759768Y-77591163D02*
X99679007Y-76671924D01*
D11*
X123358333Y-88459580D02*
X123310714Y-88507200D01*
X123310714Y-88507200D02*
X123167857Y-88554819D01*
X123167857Y-88554819D02*
X123072619Y-88554819D01*
X123072619Y-88554819D02*
X122929762Y-88507200D01*
X122929762Y-88507200D02*
X122834524Y-88411961D01*
X122834524Y-88411961D02*
X122786905Y-88316723D01*
X122786905Y-88316723D02*
X122739286Y-88126247D01*
X122739286Y-88126247D02*
X122739286Y-87983390D01*
X122739286Y-87983390D02*
X122786905Y-87792914D01*
X122786905Y-87792914D02*
X122834524Y-87697676D01*
X122834524Y-87697676D02*
X122929762Y-87602438D01*
X122929762Y-87602438D02*
X123072619Y-87554819D01*
X123072619Y-87554819D02*
X123167857Y-87554819D01*
X123167857Y-87554819D02*
X123310714Y-87602438D01*
X123310714Y-87602438D02*
X123358333Y-87650057D01*
X123834524Y-88554819D02*
X124025000Y-88554819D01*
X124025000Y-88554819D02*
X124120238Y-88507200D01*
X124120238Y-88507200D02*
X124167857Y-88459580D01*
X124167857Y-88459580D02*
X124263095Y-88316723D01*
X124263095Y-88316723D02*
X124310714Y-88126247D01*
X124310714Y-88126247D02*
X124310714Y-87745295D01*
X124310714Y-87745295D02*
X124263095Y-87650057D01*
X124263095Y-87650057D02*
X124215476Y-87602438D01*
X124215476Y-87602438D02*
X124120238Y-87554819D01*
X124120238Y-87554819D02*
X123929762Y-87554819D01*
X123929762Y-87554819D02*
X123834524Y-87602438D01*
X123834524Y-87602438D02*
X123786905Y-87650057D01*
X123786905Y-87650057D02*
X123739286Y-87745295D01*
X123739286Y-87745295D02*
X123739286Y-87983390D01*
X123739286Y-87983390D02*
X123786905Y-88078628D01*
X123786905Y-88078628D02*
X123834524Y-88126247D01*
X123834524Y-88126247D02*
X123929762Y-88173866D01*
X123929762Y-88173866D02*
X124120238Y-88173866D01*
X124120238Y-88173866D02*
X124215476Y-88126247D01*
X124215476Y-88126247D02*
X124263095Y-88078628D01*
X124263095Y-88078628D02*
X124310714Y-87983390D01*
X112033333Y-126059580D02*
X111985714Y-126107200D01*
X111985714Y-126107200D02*
X111842857Y-126154819D01*
X111842857Y-126154819D02*
X111747619Y-126154819D01*
X111747619Y-126154819D02*
X111604762Y-126107200D01*
X111604762Y-126107200D02*
X111509524Y-126011961D01*
X111509524Y-126011961D02*
X111461905Y-125916723D01*
X111461905Y-125916723D02*
X111414286Y-125726247D01*
X111414286Y-125726247D02*
X111414286Y-125583390D01*
X111414286Y-125583390D02*
X111461905Y-125392914D01*
X111461905Y-125392914D02*
X111509524Y-125297676D01*
X111509524Y-125297676D02*
X111604762Y-125202438D01*
X111604762Y-125202438D02*
X111747619Y-125154819D01*
X111747619Y-125154819D02*
X111842857Y-125154819D01*
X111842857Y-125154819D02*
X111985714Y-125202438D01*
X111985714Y-125202438D02*
X112033333Y-125250057D01*
X112604762Y-125583390D02*
X112509524Y-125535771D01*
X112509524Y-125535771D02*
X112461905Y-125488152D01*
X112461905Y-125488152D02*
X112414286Y-125392914D01*
X112414286Y-125392914D02*
X112414286Y-125345295D01*
X112414286Y-125345295D02*
X112461905Y-125250057D01*
X112461905Y-125250057D02*
X112509524Y-125202438D01*
X112509524Y-125202438D02*
X112604762Y-125154819D01*
X112604762Y-125154819D02*
X112795238Y-125154819D01*
X112795238Y-125154819D02*
X112890476Y-125202438D01*
X112890476Y-125202438D02*
X112938095Y-125250057D01*
X112938095Y-125250057D02*
X112985714Y-125345295D01*
X112985714Y-125345295D02*
X112985714Y-125392914D01*
X112985714Y-125392914D02*
X112938095Y-125488152D01*
X112938095Y-125488152D02*
X112890476Y-125535771D01*
X112890476Y-125535771D02*
X112795238Y-125583390D01*
X112795238Y-125583390D02*
X112604762Y-125583390D01*
X112604762Y-125583390D02*
X112509524Y-125631009D01*
X112509524Y-125631009D02*
X112461905Y-125678628D01*
X112461905Y-125678628D02*
X112414286Y-125773866D01*
X112414286Y-125773866D02*
X112414286Y-125964342D01*
X112414286Y-125964342D02*
X112461905Y-126059580D01*
X112461905Y-126059580D02*
X112509524Y-126107200D01*
X112509524Y-126107200D02*
X112604762Y-126154819D01*
X112604762Y-126154819D02*
X112795238Y-126154819D01*
X112795238Y-126154819D02*
X112890476Y-126107200D01*
X112890476Y-126107200D02*
X112938095Y-126059580D01*
X112938095Y-126059580D02*
X112985714Y-125964342D01*
X112985714Y-125964342D02*
X112985714Y-125773866D01*
X112985714Y-125773866D02*
X112938095Y-125678628D01*
X112938095Y-125678628D02*
X112890476Y-125631009D01*
X112890476Y-125631009D02*
X112795238Y-125583390D01*
X117238095Y-85054819D02*
X117238095Y-85864342D01*
X117238095Y-85864342D02*
X117285714Y-85959580D01*
X117285714Y-85959580D02*
X117333333Y-86007200D01*
X117333333Y-86007200D02*
X117428571Y-86054819D01*
X117428571Y-86054819D02*
X117619047Y-86054819D01*
X117619047Y-86054819D02*
X117714285Y-86007200D01*
X117714285Y-86007200D02*
X117761904Y-85959580D01*
X117761904Y-85959580D02*
X117809523Y-85864342D01*
X117809523Y-85864342D02*
X117809523Y-85054819D01*
X118809523Y-86054819D02*
X118238095Y-86054819D01*
X118523809Y-86054819D02*
X118523809Y-85054819D01*
X118523809Y-85054819D02*
X118428571Y-85197676D01*
X118428571Y-85197676D02*
X118333333Y-85292914D01*
X118333333Y-85292914D02*
X118238095Y-85340533D01*
X88546947Y-86117351D02*
X88479603Y-86117351D01*
X88479603Y-86117351D02*
X88344916Y-86050007D01*
X88344916Y-86050007D02*
X88277573Y-85982664D01*
X88277573Y-85982664D02*
X88210229Y-85847977D01*
X88210229Y-85847977D02*
X88210229Y-85713290D01*
X88210229Y-85713290D02*
X88243901Y-85612275D01*
X88243901Y-85612275D02*
X88344916Y-85443916D01*
X88344916Y-85443916D02*
X88445931Y-85342901D01*
X88445931Y-85342901D02*
X88614290Y-85241885D01*
X88614290Y-85241885D02*
X88715305Y-85208214D01*
X88715305Y-85208214D02*
X88849992Y-85208214D01*
X88849992Y-85208214D02*
X88984679Y-85275557D01*
X88984679Y-85275557D02*
X89052023Y-85342901D01*
X89052023Y-85342901D02*
X89119366Y-85477588D01*
X89119366Y-85477588D02*
X89119366Y-85544931D01*
X89388740Y-85814305D02*
X89456084Y-85814305D01*
X89456084Y-85814305D02*
X89557099Y-85847977D01*
X89557099Y-85847977D02*
X89725458Y-86016336D01*
X89725458Y-86016336D02*
X89759130Y-86117351D01*
X89759130Y-86117351D02*
X89759130Y-86184694D01*
X89759130Y-86184694D02*
X89725458Y-86285710D01*
X89725458Y-86285710D02*
X89658114Y-86353053D01*
X89658114Y-86353053D02*
X89523427Y-86420397D01*
X89523427Y-86420397D02*
X88715305Y-86420397D01*
X88715305Y-86420397D02*
X89153038Y-86858129D01*
X121783333Y-100059580D02*
X121735714Y-100107200D01*
X121735714Y-100107200D02*
X121592857Y-100154819D01*
X121592857Y-100154819D02*
X121497619Y-100154819D01*
X121497619Y-100154819D02*
X121354762Y-100107200D01*
X121354762Y-100107200D02*
X121259524Y-100011961D01*
X121259524Y-100011961D02*
X121211905Y-99916723D01*
X121211905Y-99916723D02*
X121164286Y-99726247D01*
X121164286Y-99726247D02*
X121164286Y-99583390D01*
X121164286Y-99583390D02*
X121211905Y-99392914D01*
X121211905Y-99392914D02*
X121259524Y-99297676D01*
X121259524Y-99297676D02*
X121354762Y-99202438D01*
X121354762Y-99202438D02*
X121497619Y-99154819D01*
X121497619Y-99154819D02*
X121592857Y-99154819D01*
X121592857Y-99154819D02*
X121735714Y-99202438D01*
X121735714Y-99202438D02*
X121783333Y-99250057D01*
X122735714Y-100154819D02*
X122164286Y-100154819D01*
X122450000Y-100154819D02*
X122450000Y-99154819D01*
X122450000Y-99154819D02*
X122354762Y-99297676D01*
X122354762Y-99297676D02*
X122259524Y-99392914D01*
X122259524Y-99392914D02*
X122164286Y-99440533D01*
X109983333Y-79054819D02*
X109650000Y-78578628D01*
X109411905Y-79054819D02*
X109411905Y-78054819D01*
X109411905Y-78054819D02*
X109792857Y-78054819D01*
X109792857Y-78054819D02*
X109888095Y-78102438D01*
X109888095Y-78102438D02*
X109935714Y-78150057D01*
X109935714Y-78150057D02*
X109983333Y-78245295D01*
X109983333Y-78245295D02*
X109983333Y-78388152D01*
X109983333Y-78388152D02*
X109935714Y-78483390D01*
X109935714Y-78483390D02*
X109888095Y-78531009D01*
X109888095Y-78531009D02*
X109792857Y-78578628D01*
X109792857Y-78578628D02*
X109411905Y-78578628D01*
X110840476Y-78388152D02*
X110840476Y-79054819D01*
X110602381Y-78007200D02*
X110364286Y-78721485D01*
X110364286Y-78721485D02*
X110983333Y-78721485D01*
X116633333Y-80534819D02*
X116300000Y-80058628D01*
X116061905Y-80534819D02*
X116061905Y-79534819D01*
X116061905Y-79534819D02*
X116442857Y-79534819D01*
X116442857Y-79534819D02*
X116538095Y-79582438D01*
X116538095Y-79582438D02*
X116585714Y-79630057D01*
X116585714Y-79630057D02*
X116633333Y-79725295D01*
X116633333Y-79725295D02*
X116633333Y-79868152D01*
X116633333Y-79868152D02*
X116585714Y-79963390D01*
X116585714Y-79963390D02*
X116538095Y-80011009D01*
X116538095Y-80011009D02*
X116442857Y-80058628D01*
X116442857Y-80058628D02*
X116061905Y-80058628D01*
X116966667Y-79534819D02*
X117585714Y-79534819D01*
X117585714Y-79534819D02*
X117252381Y-79915771D01*
X117252381Y-79915771D02*
X117395238Y-79915771D01*
X117395238Y-79915771D02*
X117490476Y-79963390D01*
X117490476Y-79963390D02*
X117538095Y-80011009D01*
X117538095Y-80011009D02*
X117585714Y-80106247D01*
X117585714Y-80106247D02*
X117585714Y-80344342D01*
X117585714Y-80344342D02*
X117538095Y-80439580D01*
X117538095Y-80439580D02*
X117490476Y-80487200D01*
X117490476Y-80487200D02*
X117395238Y-80534819D01*
X117395238Y-80534819D02*
X117109524Y-80534819D01*
X117109524Y-80534819D02*
X117014286Y-80487200D01*
X117014286Y-80487200D02*
X116966667Y-80439580D01*
X111158333Y-85409580D02*
X111110714Y-85457200D01*
X111110714Y-85457200D02*
X110967857Y-85504819D01*
X110967857Y-85504819D02*
X110872619Y-85504819D01*
X110872619Y-85504819D02*
X110729762Y-85457200D01*
X110729762Y-85457200D02*
X110634524Y-85361961D01*
X110634524Y-85361961D02*
X110586905Y-85266723D01*
X110586905Y-85266723D02*
X110539286Y-85076247D01*
X110539286Y-85076247D02*
X110539286Y-84933390D01*
X110539286Y-84933390D02*
X110586905Y-84742914D01*
X110586905Y-84742914D02*
X110634524Y-84647676D01*
X110634524Y-84647676D02*
X110729762Y-84552438D01*
X110729762Y-84552438D02*
X110872619Y-84504819D01*
X110872619Y-84504819D02*
X110967857Y-84504819D01*
X110967857Y-84504819D02*
X111110714Y-84552438D01*
X111110714Y-84552438D02*
X111158333Y-84600057D01*
X111491667Y-84504819D02*
X112158333Y-84504819D01*
X112158333Y-84504819D02*
X111729762Y-85504819D01*
X112958333Y-78939580D02*
X112910714Y-78987200D01*
X112910714Y-78987200D02*
X112767857Y-79034819D01*
X112767857Y-79034819D02*
X112672619Y-79034819D01*
X112672619Y-79034819D02*
X112529762Y-78987200D01*
X112529762Y-78987200D02*
X112434524Y-78891961D01*
X112434524Y-78891961D02*
X112386905Y-78796723D01*
X112386905Y-78796723D02*
X112339286Y-78606247D01*
X112339286Y-78606247D02*
X112339286Y-78463390D01*
X112339286Y-78463390D02*
X112386905Y-78272914D01*
X112386905Y-78272914D02*
X112434524Y-78177676D01*
X112434524Y-78177676D02*
X112529762Y-78082438D01*
X112529762Y-78082438D02*
X112672619Y-78034819D01*
X112672619Y-78034819D02*
X112767857Y-78034819D01*
X112767857Y-78034819D02*
X112910714Y-78082438D01*
X112910714Y-78082438D02*
X112958333Y-78130057D01*
X113815476Y-78034819D02*
X113625000Y-78034819D01*
X113625000Y-78034819D02*
X113529762Y-78082438D01*
X113529762Y-78082438D02*
X113482143Y-78130057D01*
X113482143Y-78130057D02*
X113386905Y-78272914D01*
X113386905Y-78272914D02*
X113339286Y-78463390D01*
X113339286Y-78463390D02*
X113339286Y-78844342D01*
X113339286Y-78844342D02*
X113386905Y-78939580D01*
X113386905Y-78939580D02*
X113434524Y-78987200D01*
X113434524Y-78987200D02*
X113529762Y-79034819D01*
X113529762Y-79034819D02*
X113720238Y-79034819D01*
X113720238Y-79034819D02*
X113815476Y-78987200D01*
X113815476Y-78987200D02*
X113863095Y-78939580D01*
X113863095Y-78939580D02*
X113910714Y-78844342D01*
X113910714Y-78844342D02*
X113910714Y-78606247D01*
X113910714Y-78606247D02*
X113863095Y-78511009D01*
X113863095Y-78511009D02*
X113815476Y-78463390D01*
X113815476Y-78463390D02*
X113720238Y-78415771D01*
X113720238Y-78415771D02*
X113529762Y-78415771D01*
X113529762Y-78415771D02*
X113434524Y-78463390D01*
X113434524Y-78463390D02*
X113386905Y-78511009D01*
X113386905Y-78511009D02*
X113339286Y-78606247D01*
X123358333Y-91459580D02*
X123310714Y-91507200D01*
X123310714Y-91507200D02*
X123167857Y-91554819D01*
X123167857Y-91554819D02*
X123072619Y-91554819D01*
X123072619Y-91554819D02*
X122929762Y-91507200D01*
X122929762Y-91507200D02*
X122834524Y-91411961D01*
X122834524Y-91411961D02*
X122786905Y-91316723D01*
X122786905Y-91316723D02*
X122739286Y-91126247D01*
X122739286Y-91126247D02*
X122739286Y-90983390D01*
X122739286Y-90983390D02*
X122786905Y-90792914D01*
X122786905Y-90792914D02*
X122834524Y-90697676D01*
X122834524Y-90697676D02*
X122929762Y-90602438D01*
X122929762Y-90602438D02*
X123072619Y-90554819D01*
X123072619Y-90554819D02*
X123167857Y-90554819D01*
X123167857Y-90554819D02*
X123310714Y-90602438D01*
X123310714Y-90602438D02*
X123358333Y-90650057D01*
X124215476Y-90888152D02*
X124215476Y-91554819D01*
X123977381Y-90507200D02*
X123739286Y-91221485D01*
X123739286Y-91221485D02*
X124358333Y-91221485D01*
X118483333Y-83289580D02*
X118435714Y-83337200D01*
X118435714Y-83337200D02*
X118292857Y-83384819D01*
X118292857Y-83384819D02*
X118197619Y-83384819D01*
X118197619Y-83384819D02*
X118054762Y-83337200D01*
X118054762Y-83337200D02*
X117959524Y-83241961D01*
X117959524Y-83241961D02*
X117911905Y-83146723D01*
X117911905Y-83146723D02*
X117864286Y-82956247D01*
X117864286Y-82956247D02*
X117864286Y-82813390D01*
X117864286Y-82813390D02*
X117911905Y-82622914D01*
X117911905Y-82622914D02*
X117959524Y-82527676D01*
X117959524Y-82527676D02*
X118054762Y-82432438D01*
X118054762Y-82432438D02*
X118197619Y-82384819D01*
X118197619Y-82384819D02*
X118292857Y-82384819D01*
X118292857Y-82384819D02*
X118435714Y-82432438D01*
X118435714Y-82432438D02*
X118483333Y-82480057D01*
X118816667Y-82384819D02*
X119435714Y-82384819D01*
X119435714Y-82384819D02*
X119102381Y-82765771D01*
X119102381Y-82765771D02*
X119245238Y-82765771D01*
X119245238Y-82765771D02*
X119340476Y-82813390D01*
X119340476Y-82813390D02*
X119388095Y-82861009D01*
X119388095Y-82861009D02*
X119435714Y-82956247D01*
X119435714Y-82956247D02*
X119435714Y-83194342D01*
X119435714Y-83194342D02*
X119388095Y-83289580D01*
X119388095Y-83289580D02*
X119340476Y-83337200D01*
X119340476Y-83337200D02*
X119245238Y-83384819D01*
X119245238Y-83384819D02*
X118959524Y-83384819D01*
X118959524Y-83384819D02*
X118864286Y-83337200D01*
X118864286Y-83337200D02*
X118816667Y-83289580D01*
X108783333Y-84054819D02*
X108450000Y-83578628D01*
X108211905Y-84054819D02*
X108211905Y-83054819D01*
X108211905Y-83054819D02*
X108592857Y-83054819D01*
X108592857Y-83054819D02*
X108688095Y-83102438D01*
X108688095Y-83102438D02*
X108735714Y-83150057D01*
X108735714Y-83150057D02*
X108783333Y-83245295D01*
X108783333Y-83245295D02*
X108783333Y-83388152D01*
X108783333Y-83388152D02*
X108735714Y-83483390D01*
X108735714Y-83483390D02*
X108688095Y-83531009D01*
X108688095Y-83531009D02*
X108592857Y-83578628D01*
X108592857Y-83578628D02*
X108211905Y-83578628D01*
X109164286Y-83150057D02*
X109211905Y-83102438D01*
X109211905Y-83102438D02*
X109307143Y-83054819D01*
X109307143Y-83054819D02*
X109545238Y-83054819D01*
X109545238Y-83054819D02*
X109640476Y-83102438D01*
X109640476Y-83102438D02*
X109688095Y-83150057D01*
X109688095Y-83150057D02*
X109735714Y-83245295D01*
X109735714Y-83245295D02*
X109735714Y-83340533D01*
X109735714Y-83340533D02*
X109688095Y-83483390D01*
X109688095Y-83483390D02*
X109116667Y-84054819D01*
X109116667Y-84054819D02*
X109735714Y-84054819D01*
X106633333Y-84054819D02*
X106300000Y-83578628D01*
X106061905Y-84054819D02*
X106061905Y-83054819D01*
X106061905Y-83054819D02*
X106442857Y-83054819D01*
X106442857Y-83054819D02*
X106538095Y-83102438D01*
X106538095Y-83102438D02*
X106585714Y-83150057D01*
X106585714Y-83150057D02*
X106633333Y-83245295D01*
X106633333Y-83245295D02*
X106633333Y-83388152D01*
X106633333Y-83388152D02*
X106585714Y-83483390D01*
X106585714Y-83483390D02*
X106538095Y-83531009D01*
X106538095Y-83531009D02*
X106442857Y-83578628D01*
X106442857Y-83578628D02*
X106061905Y-83578628D01*
X107585714Y-84054819D02*
X107014286Y-84054819D01*
X107300000Y-84054819D02*
X107300000Y-83054819D01*
X107300000Y-83054819D02*
X107204762Y-83197676D01*
X107204762Y-83197676D02*
X107109524Y-83292914D01*
X107109524Y-83292914D02*
X107014286Y-83340533D01*
X120361905Y-86154819D02*
X120361905Y-85154819D01*
X120361905Y-85154819D02*
X120600000Y-85154819D01*
X120600000Y-85154819D02*
X120742857Y-85202438D01*
X120742857Y-85202438D02*
X120838095Y-85297676D01*
X120838095Y-85297676D02*
X120885714Y-85392914D01*
X120885714Y-85392914D02*
X120933333Y-85583390D01*
X120933333Y-85583390D02*
X120933333Y-85726247D01*
X120933333Y-85726247D02*
X120885714Y-85916723D01*
X120885714Y-85916723D02*
X120838095Y-86011961D01*
X120838095Y-86011961D02*
X120742857Y-86107200D01*
X120742857Y-86107200D02*
X120600000Y-86154819D01*
X120600000Y-86154819D02*
X120361905Y-86154819D01*
X121885714Y-86154819D02*
X121314286Y-86154819D01*
X121600000Y-86154819D02*
X121600000Y-85154819D01*
X121600000Y-85154819D02*
X121504762Y-85297676D01*
X121504762Y-85297676D02*
X121409524Y-85392914D01*
X121409524Y-85392914D02*
X121314286Y-85440533D01*
D17*
X118097000Y-113388001D02*
X118097000Y-93322001D01*
X118097000Y-93322001D02*
X89903000Y-93322001D01*
X107507740Y-113388001D02*
X118097000Y-113388001D01*
X89903000Y-113388001D02*
X100492260Y-113388001D01*
X89903000Y-93322001D02*
X89903000Y-113388001D01*
D18*
X123384420Y-88890000D02*
X123665580Y-88890000D01*
X123384420Y-89910000D02*
X123665580Y-89910000D01*
X119260000Y-115050000D02*
X119260000Y-117050000D01*
X120260000Y-116050000D02*
X118260000Y-116050000D01*
X119545563Y-117290000D02*
X117260000Y-117290000D01*
X119545563Y-117290000D02*
X120610000Y-118354437D01*
X104854437Y-117290000D02*
X107140000Y-117290000D01*
X104854437Y-117290000D02*
X103790000Y-118354437D01*
X120610000Y-118354437D02*
X120610000Y-134110000D01*
X103790000Y-118354437D02*
X103790000Y-134110000D01*
X120610000Y-134110000D02*
X117260000Y-134110000D01*
X103790000Y-134110000D02*
X107140000Y-134110000D01*
D17*
X116678600Y-85978600D02*
X116678600Y-85486729D01*
X116678600Y-83066871D02*
X116678600Y-82575000D01*
X116678600Y-82575000D02*
X116186729Y-82575000D01*
X116186729Y-85978600D02*
X116678600Y-85978600D01*
X113766871Y-82575000D02*
X113275000Y-82575000D01*
X113275000Y-85978600D02*
X113766871Y-85978600D01*
X113275000Y-85486729D02*
X113275000Y-85978600D01*
X113275000Y-82575000D02*
X113275000Y-83066871D01*
D19*
G36*
X112843200Y-84217237D02*
G01*
X112589200Y-84217237D01*
X112589200Y-83836237D01*
X112843200Y-83836237D01*
X112843200Y-84217237D01*
G37*
D18*
X90655536Y-86246634D02*
X88653366Y-84244464D01*
X94346634Y-82555536D02*
X92344464Y-80553366D01*
X120534252Y-93490000D02*
X123365748Y-93490000D01*
X120534252Y-98710000D02*
X123365748Y-98710000D01*
X109912742Y-79377500D02*
X110387258Y-79377500D01*
X109912742Y-80422500D02*
X110387258Y-80422500D01*
X117037258Y-81922500D02*
X116562742Y-81922500D01*
X117037258Y-80877500D02*
X116562742Y-80877500D01*
X111465580Y-83165000D02*
X111184420Y-83165000D01*
X111465580Y-84185000D02*
X111184420Y-84185000D01*
X113265580Y-80410000D02*
X112984420Y-80410000D01*
X113265580Y-79390000D02*
X112984420Y-79390000D01*
X113265580Y-81910000D02*
X112984420Y-81910000D01*
X113265580Y-80890000D02*
X112984420Y-80890000D01*
X123384420Y-91890000D02*
X123665580Y-91890000D01*
X123384420Y-92910000D02*
X123665580Y-92910000D01*
X118790580Y-84710000D02*
X118509420Y-84710000D01*
X118790580Y-83690000D02*
X118509420Y-83690000D01*
X109912742Y-81677500D02*
X110387258Y-81677500D01*
X109912742Y-82722500D02*
X110387258Y-82722500D01*
X106937742Y-81677500D02*
X107412258Y-81677500D01*
X106937742Y-82722500D02*
X107412258Y-82722500D01*
X121960000Y-93050000D02*
X113450000Y-93050000D01*
X121960000Y-86550000D02*
X121960000Y-93050000D01*
X121960000Y-86550000D02*
X113450000Y-86550000D01*
%LPC*%
D11*
X95341541Y-143903152D02*
X95579636Y-144569819D01*
X95579636Y-144569819D02*
X95817731Y-143903152D01*
X96389160Y-143569819D02*
X96484398Y-143569819D01*
X96484398Y-143569819D02*
X96579636Y-143617438D01*
X96579636Y-143617438D02*
X96627255Y-143665057D01*
X96627255Y-143665057D02*
X96674874Y-143760295D01*
X96674874Y-143760295D02*
X96722493Y-143950771D01*
X96722493Y-143950771D02*
X96722493Y-144188866D01*
X96722493Y-144188866D02*
X96674874Y-144379342D01*
X96674874Y-144379342D02*
X96627255Y-144474580D01*
X96627255Y-144474580D02*
X96579636Y-144522200D01*
X96579636Y-144522200D02*
X96484398Y-144569819D01*
X96484398Y-144569819D02*
X96389160Y-144569819D01*
X96389160Y-144569819D02*
X96293922Y-144522200D01*
X96293922Y-144522200D02*
X96246303Y-144474580D01*
X96246303Y-144474580D02*
X96198684Y-144379342D01*
X96198684Y-144379342D02*
X96151065Y-144188866D01*
X96151065Y-144188866D02*
X96151065Y-143950771D01*
X96151065Y-143950771D02*
X96198684Y-143760295D01*
X96198684Y-143760295D02*
X96246303Y-143665057D01*
X96246303Y-143665057D02*
X96293922Y-143617438D01*
X96293922Y-143617438D02*
X96389160Y-143569819D01*
X97151065Y-144474580D02*
X97198684Y-144522200D01*
X97198684Y-144522200D02*
X97151065Y-144569819D01*
X97151065Y-144569819D02*
X97103446Y-144522200D01*
X97103446Y-144522200D02*
X97151065Y-144474580D01*
X97151065Y-144474580D02*
X97151065Y-144569819D01*
X98151064Y-144569819D02*
X97579636Y-144569819D01*
X97865350Y-144569819D02*
X97865350Y-143569819D01*
X97865350Y-143569819D02*
X97770112Y-143712676D01*
X97770112Y-143712676D02*
X97674874Y-143807914D01*
X97674874Y-143807914D02*
X97579636Y-143855533D01*
D20*
X109215001Y-89000000D03*
X98785002Y-89000000D03*
D21*
X104000000Y-111075001D03*
D22*
X128700000Y-132500000D03*
X128700000Y-118800000D03*
D23*
X98000000Y-82000000D03*
D24*
X92484567Y-76484567D03*
D25*
X122750000Y-89400000D03*
X124300000Y-89400000D03*
D26*
X142700000Y-144600000D03*
X98400000Y-150100000D03*
X136050000Y-101300000D03*
X84450000Y-101300000D03*
D27*
X112200000Y-119450000D03*
X112200000Y-131950000D03*
D28*
X116450000Y-85026989D03*
X116450000Y-84526863D03*
X116450000Y-84026737D03*
X116450000Y-83526611D03*
D29*
X115726989Y-82803600D03*
X115226863Y-82803600D03*
X114726737Y-82803600D03*
X114226611Y-82803600D03*
D28*
X113503600Y-83526611D03*
X113503600Y-84026737D03*
X113503600Y-84526863D03*
X113503600Y-85026989D03*
D29*
X114226611Y-85750000D03*
X114726737Y-85750000D03*
X115226863Y-85750000D03*
X115726989Y-85750000D03*
D30*
X114976800Y-84276800D03*
D31*
X93303122Y-85203122D03*
X89696878Y-81596878D03*
D32*
X119400000Y-96100000D03*
X124500000Y-96100000D03*
D33*
X109325000Y-79900000D03*
X110975000Y-79900000D03*
D34*
X117625000Y-81400000D03*
X115975000Y-81400000D03*
D35*
X110550000Y-83675000D03*
X112100000Y-83675000D03*
X113900000Y-79900000D03*
X112350000Y-79900000D03*
X113900000Y-81400000D03*
X112350000Y-81400000D03*
D25*
X122750000Y-92400000D03*
X124300000Y-92400000D03*
D35*
X119425000Y-84200000D03*
X117875000Y-84200000D03*
D33*
X109325000Y-82200000D03*
X110975000Y-82200000D03*
X106350000Y-82200000D03*
X108000000Y-82200000D03*
D36*
X120450000Y-89800000D03*
X113650000Y-89800000D03*
%LPD*%
M02*
