G04 #@! TF.GenerationSoftware,KiCad,Pcbnew,8.0.1*
G04 #@! TF.CreationDate,2024-05-02T01:56:28+08:00*
G04 #@! TF.ProjectId,BatteryPod,42617474-6572-4795-906f-642e6b696361,rev?*
G04 #@! TF.SameCoordinates,Original*
G04 #@! TF.FileFunction,Copper,L1,Top*
G04 #@! TF.FilePolarity,Positive*
%FSLAX46Y46*%
G04 Gerber Fmt 4.6, Leading zero omitted, Abs format (unit mm)*
G04 Created by KiCad (PCBNEW 8.0.1) date 2024-05-02 01:56:28*
%MOMM*%
%LPD*%
G01*
G04 APERTURE LIST*
G04 Aperture macros list*
%AMRoundRect*
0 Rectangle with rounded corners*
0 $1 Rounding radius*
0 $2 $3 $4 $5 $6 $7 $8 $9 X,Y pos of 4 corners*
0 Add a 4 corners polygon primitive as box body*
4,1,4,$2,$3,$4,$5,$6,$7,$8,$9,$2,$3,0*
0 Add four circle primitives for the rounded corners*
1,1,$1+$1,$2,$3*
1,1,$1+$1,$4,$5*
1,1,$1+$1,$6,$7*
1,1,$1+$1,$8,$9*
0 Add four rect primitives between the rounded corners*
20,1,$1+$1,$2,$3,$4,$5,0*
20,1,$1+$1,$4,$5,$6,$7,0*
20,1,$1+$1,$6,$7,$8,$9,0*
20,1,$1+$1,$8,$9,$2,$3,0*%
G04 Aperture macros list end*
G04 #@! TA.AperFunction,SMDPad,CuDef*
%ADD10R,5.334000X5.588000*%
G04 #@! TD*
G04 #@! TA.AperFunction,SMDPad,CuDef*
%ADD11R,6.350000X5.283200*%
G04 #@! TD*
G04 #@! TA.AperFunction,ComponentPad*
%ADD12C,2.000000*%
G04 #@! TD*
G04 #@! TA.AperFunction,ComponentPad*
%ADD13RoundRect,0.250002X2.404160X0.000000X0.000000X2.404160X-2.404160X0.000000X0.000000X-2.404160X0*%
G04 #@! TD*
G04 #@! TA.AperFunction,ComponentPad*
%ADD14C,3.900000*%
G04 #@! TD*
G04 #@! TA.AperFunction,SMDPad,CuDef*
%ADD15RoundRect,0.225000X-0.225000X-0.250000X0.225000X-0.250000X0.225000X0.250000X-0.225000X0.250000X0*%
G04 #@! TD*
G04 #@! TA.AperFunction,SMDPad,CuDef*
%ADD16RoundRect,0.249998X-4.550002X3.650002X-4.550002X-3.650002X4.550002X-3.650002X4.550002X3.650002X0*%
G04 #@! TD*
G04 #@! TA.AperFunction,SMDPad,CuDef*
%ADD17R,0.812800X0.254000*%
G04 #@! TD*
G04 #@! TA.AperFunction,SMDPad,CuDef*
%ADD18R,0.254000X0.812800*%
G04 #@! TD*
G04 #@! TA.AperFunction,SMDPad,CuDef*
%ADD19R,1.752600X1.752600*%
G04 #@! TD*
G04 #@! TA.AperFunction,SMDPad,CuDef*
%ADD20RoundRect,0.250000X2.192031X1.272792X1.272792X2.192031X-2.192031X-1.272792X-1.272792X-2.192031X0*%
G04 #@! TD*
G04 #@! TA.AperFunction,SMDPad,CuDef*
%ADD21RoundRect,0.250000X-0.650000X-2.450000X0.650000X-2.450000X0.650000X2.450000X-0.650000X2.450000X0*%
G04 #@! TD*
G04 #@! TA.AperFunction,SMDPad,CuDef*
%ADD22RoundRect,0.200000X-0.200000X-0.275000X0.200000X-0.275000X0.200000X0.275000X-0.200000X0.275000X0*%
G04 #@! TD*
G04 #@! TA.AperFunction,SMDPad,CuDef*
%ADD23RoundRect,0.200000X0.200000X0.275000X-0.200000X0.275000X-0.200000X-0.275000X0.200000X-0.275000X0*%
G04 #@! TD*
G04 #@! TA.AperFunction,SMDPad,CuDef*
%ADD24RoundRect,0.225000X0.225000X0.250000X-0.225000X0.250000X-0.225000X-0.250000X0.225000X-0.250000X0*%
G04 #@! TD*
G04 #@! TA.AperFunction,SMDPad,CuDef*
%ADD25RoundRect,0.250000X-1.000000X1.400000X-1.000000X-1.400000X1.000000X-1.400000X1.000000X1.400000X0*%
G04 #@! TD*
G04 #@! TA.AperFunction,ViaPad*
%ADD26C,0.600000*%
G04 #@! TD*
G04 #@! TA.AperFunction,Conductor*
%ADD27C,0.200000*%
G04 #@! TD*
G04 #@! TA.AperFunction,Conductor*
%ADD28C,0.250000*%
G04 #@! TD*
G04 #@! TA.AperFunction,Conductor*
%ADD29C,1.000000*%
G04 #@! TD*
G04 #@! TA.AperFunction,Conductor*
%ADD30C,0.900000*%
G04 #@! TD*
G04 APERTURE END LIST*
D10*
X109215001Y-89000000D03*
X98785002Y-89000000D03*
D11*
X104000000Y-111075001D03*
D12*
X128700000Y-132500000D03*
X128700000Y-118800000D03*
D13*
X98000000Y-82000000D03*
D14*
X92484567Y-76484567D03*
D15*
X122750000Y-89400000D03*
X124300000Y-89400000D03*
D16*
X112200000Y-119450000D03*
X112200000Y-131950000D03*
D17*
X116450000Y-85026989D03*
X116450000Y-84526863D03*
X116450000Y-84026737D03*
X116450000Y-83526611D03*
D18*
X115726989Y-82803600D03*
X115226863Y-82803600D03*
X114726737Y-82803600D03*
X114226611Y-82803600D03*
D17*
X113503600Y-83526611D03*
X113503600Y-84026737D03*
X113503600Y-84526863D03*
X113503600Y-85026989D03*
D18*
X114226611Y-85750000D03*
X114726737Y-85750000D03*
X115226863Y-85750000D03*
X115726989Y-85750000D03*
D19*
X114976800Y-84276800D03*
D20*
X93303122Y-85203122D03*
X89696878Y-81596878D03*
D21*
X119400000Y-96100000D03*
X124500000Y-96100000D03*
D22*
X109325000Y-79900000D03*
X110975000Y-79900000D03*
D23*
X117625000Y-81400000D03*
X115975000Y-81400000D03*
D24*
X110550000Y-83675000D03*
X112100000Y-83675000D03*
X113900000Y-79900000D03*
X112350000Y-79900000D03*
X113900000Y-81400000D03*
X112350000Y-81400000D03*
D15*
X122750000Y-92400000D03*
X124300000Y-92400000D03*
D24*
X119425000Y-84200000D03*
X117875000Y-84200000D03*
D22*
X109325000Y-82200000D03*
X110975000Y-82200000D03*
X106350000Y-82200000D03*
X108000000Y-82200000D03*
D25*
X120450000Y-89800000D03*
X113650000Y-89800000D03*
D26*
X114000000Y-126000000D03*
X110000000Y-126000000D03*
X109000000Y-126000000D03*
X108000000Y-126000000D03*
X107000000Y-126000000D03*
X115000000Y-126000000D03*
X116000000Y-126000000D03*
X117000000Y-126000000D03*
X118000000Y-126000000D03*
X119000000Y-126000000D03*
X140000000Y-131000000D03*
X142000000Y-131000000D03*
X139000000Y-131000000D03*
X139000000Y-132000000D03*
X139000000Y-133000000D03*
X139000000Y-134000000D03*
X141000000Y-136000000D03*
X140000000Y-136000000D03*
X139000000Y-135000000D03*
X113000000Y-76000000D03*
X114000000Y-76000000D03*
X131000000Y-71500000D03*
X90000000Y-71500000D03*
X88000000Y-152000000D03*
X87000000Y-152000000D03*
X86000000Y-152000000D03*
X85000000Y-152000000D03*
X84000000Y-152000000D03*
X89000000Y-101000000D03*
X89000000Y-102000000D03*
X89000000Y-103000000D03*
X89000000Y-104000000D03*
X89000000Y-105000000D03*
X90000000Y-105000000D03*
X104000000Y-105000000D03*
X128000000Y-115000000D03*
X128000000Y-123000000D03*
X130000000Y-124000000D03*
X129000000Y-124000000D03*
X128000000Y-124000000D03*
X128000000Y-114000000D03*
X129000000Y-114000000D03*
X130000000Y-114000000D03*
X125000000Y-126000000D03*
X127000000Y-130000000D03*
X126000000Y-130000000D03*
X126000000Y-129000000D03*
X126000000Y-128000000D03*
X126000000Y-127000000D03*
X126000000Y-126000000D03*
X105000000Y-125000000D03*
X106000000Y-126000000D03*
X105000000Y-126000000D03*
X105000000Y-118000000D03*
X105000000Y-121000000D03*
X105000000Y-120000000D03*
X105000000Y-119000000D03*
X145000000Y-111000000D03*
X76000000Y-111000000D03*
X76000000Y-121000000D03*
X76000000Y-120000000D03*
X76000000Y-119000000D03*
X76000000Y-118000000D03*
X76000000Y-117000000D03*
X145000000Y-120000000D03*
X145000000Y-118000000D03*
X145000000Y-119000000D03*
X145000000Y-117000000D03*
X145000000Y-116000000D03*
X145000000Y-115000000D03*
X145000000Y-114000000D03*
X145000000Y-113000000D03*
X145000000Y-112000000D03*
X76000000Y-116000000D03*
X76000000Y-115000000D03*
X76000000Y-114000000D03*
X76000000Y-113000000D03*
X76000000Y-112000000D03*
X104000000Y-101000000D03*
X104000000Y-102000000D03*
X104000000Y-103000000D03*
X104000000Y-104000000D03*
X103000000Y-105000000D03*
X102000000Y-105000000D03*
X101000000Y-105000000D03*
X100000000Y-105000000D03*
X99000000Y-105000000D03*
X98000000Y-105000000D03*
X97000000Y-105000000D03*
X96000000Y-105000000D03*
X95000000Y-105000000D03*
X94000000Y-105000000D03*
X93000000Y-105000000D03*
X92000000Y-105000000D03*
X91000000Y-105000000D03*
X132000000Y-123000000D03*
X132000000Y-117000000D03*
X132000000Y-121000000D03*
X132000000Y-120000000D03*
X132000000Y-122000000D03*
X132000000Y-115000000D03*
X132000000Y-116000000D03*
X132000000Y-118000000D03*
X132000000Y-119000000D03*
X132000000Y-114000000D03*
X131000000Y-114000000D03*
X131000000Y-115000000D03*
X131000000Y-116000000D03*
X131000000Y-118000000D03*
X131000000Y-117000000D03*
X131000000Y-119000000D03*
X131000000Y-120000000D03*
X131000000Y-121000000D03*
X131000000Y-122000000D03*
X131000000Y-123000000D03*
X131000000Y-124000000D03*
X132000000Y-124000000D03*
X133000000Y-124000000D03*
X133000000Y-123000000D03*
X133000000Y-122000000D03*
X133000000Y-121000000D03*
X133000000Y-120000000D03*
X133000000Y-119000000D03*
X133000000Y-118000000D03*
X133000000Y-117000000D03*
X133000000Y-116000000D03*
X133000000Y-115000000D03*
X133000000Y-114000000D03*
X133400000Y-81000000D03*
X87000000Y-81000000D03*
X87000000Y-82000000D03*
X133400000Y-82000000D03*
X133400000Y-83000000D03*
X133400000Y-89000000D03*
X133400000Y-88000000D03*
X133400000Y-87000000D03*
X133400000Y-86000000D03*
X133400000Y-85000000D03*
X133400000Y-84000000D03*
X87000000Y-84000000D03*
X87000000Y-89000000D03*
X87000000Y-88000000D03*
X87000000Y-87000000D03*
X87000000Y-86000000D03*
X87000000Y-85000000D03*
X118200000Y-82800000D03*
X118700000Y-81400000D03*
X112900000Y-82300000D03*
X113600000Y-82800000D03*
X117000000Y-78000000D03*
X116000000Y-77000000D03*
X115000000Y-76000000D03*
X109000000Y-76000000D03*
X108000000Y-76000000D03*
X107000000Y-76000000D03*
X106000000Y-76000000D03*
X105000000Y-76000000D03*
X104000000Y-76000000D03*
X109000000Y-79000000D03*
X104000000Y-84000000D03*
X104000000Y-83000000D03*
X104000000Y-82000000D03*
X104000000Y-81000000D03*
X104000000Y-80000000D03*
X108000000Y-79000000D03*
X107000000Y-79000000D03*
X106000000Y-79000000D03*
X105000000Y-79000000D03*
X104000000Y-79000000D03*
X116450000Y-85750000D03*
X109500000Y-84400000D03*
X108547738Y-84402000D03*
X107550000Y-84300000D03*
X114900000Y-79500000D03*
X114900000Y-80400000D03*
X115800000Y-88400000D03*
X107100000Y-82950000D03*
X116000000Y-80300000D03*
X145000000Y-140000000D03*
X145000000Y-141000000D03*
X145000000Y-142000000D03*
X145000000Y-147000000D03*
X145000000Y-149000000D03*
X145000000Y-148000000D03*
X131000000Y-152000000D03*
X132000000Y-152000000D03*
X133000000Y-152000000D03*
X134000000Y-152000000D03*
X135000000Y-152000000D03*
X136000000Y-152000000D03*
X137000000Y-152000000D03*
X139000000Y-152000000D03*
X138000000Y-152000000D03*
X140000000Y-152000000D03*
X76000000Y-139000000D03*
X76000000Y-140000000D03*
X91000000Y-152000000D03*
X76000000Y-141000000D03*
X76000000Y-142000000D03*
X76000000Y-143000000D03*
X76000000Y-144000000D03*
X76000000Y-145000000D03*
X76000000Y-146000000D03*
X76000000Y-147000000D03*
X76000000Y-148000000D03*
X90000000Y-152000000D03*
X89000000Y-152000000D03*
X83000000Y-152000000D03*
X82000000Y-152000000D03*
X132000000Y-75000000D03*
X132000000Y-74000000D03*
X132000000Y-73000000D03*
X132000000Y-72000000D03*
X89000000Y-75000000D03*
X89000000Y-74000000D03*
X89000000Y-73000000D03*
X89000000Y-72000000D03*
X120000000Y-87000000D03*
X119000000Y-87000000D03*
X118000000Y-87000000D03*
X117000000Y-87000000D03*
X116000000Y-87000000D03*
X115500000Y-84800000D03*
X114450000Y-83750000D03*
X115500000Y-83750000D03*
X114450000Y-84800000D03*
X114976800Y-84276800D03*
D27*
X107100000Y-82950000D02*
X106350000Y-82200000D01*
D28*
X109325000Y-82200000D02*
X110052000Y-82927000D01*
X110052000Y-82927000D02*
X112903989Y-82927000D01*
X112903989Y-82927000D02*
X113503600Y-83526611D01*
D29*
X109325000Y-82200000D02*
X108000000Y-82200000D01*
D28*
X112100000Y-83675000D02*
X112100000Y-84026737D01*
X112100000Y-84026737D02*
X113503600Y-84026737D01*
X116000000Y-80300000D02*
X116800000Y-81100000D01*
X116800000Y-81100000D02*
X116800000Y-82700000D01*
X116800000Y-82700000D02*
X117173000Y-83073000D01*
X117173000Y-83827000D02*
X116973263Y-84026737D01*
X115955234Y-80300000D02*
X115226863Y-81028371D01*
X115226863Y-81028371D02*
X115226863Y-82803600D01*
X116000000Y-80300000D02*
X115955234Y-80300000D01*
X117173000Y-83073000D02*
X117173000Y-83827000D01*
X116973263Y-84026737D02*
X116450000Y-84026737D01*
D29*
X110975000Y-79900000D02*
X112350000Y-79900000D01*
D30*
X113900000Y-79900000D02*
X113900000Y-81400000D01*
D28*
X116450000Y-84526863D02*
X117548137Y-84526863D01*
X117548137Y-84526863D02*
X117875000Y-84200000D01*
X115726989Y-82803600D02*
X115726989Y-81648011D01*
X115726989Y-81648011D02*
X115975000Y-81400000D01*
X114226611Y-82803600D02*
X114226611Y-81726611D01*
X114226611Y-81726611D02*
X113900000Y-81400000D01*
G04 #@! TA.AperFunction,Conductor*
G36*
X111020432Y-67396261D02*
G01*
X112504640Y-67433453D01*
X112507698Y-67433569D01*
X113990499Y-67507931D01*
X113993551Y-67508122D01*
X115474045Y-67619609D01*
X115477131Y-67619880D01*
X116954388Y-67768423D01*
X116957404Y-67768764D01*
X118430437Y-67954262D01*
X118433449Y-67954679D01*
X119901474Y-68177036D01*
X119904429Y-68177521D01*
X121366341Y-68436570D01*
X121369392Y-68437150D01*
X122824394Y-68732747D01*
X122827306Y-68733377D01*
X124274463Y-69065336D01*
X124277361Y-69066038D01*
X125715758Y-69434148D01*
X125718707Y-69434942D01*
X127147398Y-69838961D01*
X127150308Y-69839824D01*
X128568369Y-70279487D01*
X128571318Y-70280441D01*
X129977980Y-70755512D01*
X129980827Y-70756514D01*
X131375143Y-71266673D01*
X131377972Y-71267748D01*
X132371011Y-71659563D01*
X132426147Y-71702479D01*
X132449329Y-71768391D01*
X132449500Y-71774909D01*
X132449500Y-78434108D01*
X132449500Y-78500000D01*
X132449500Y-78630081D01*
X132480859Y-78888347D01*
X132526803Y-79074750D01*
X132543121Y-79140955D01*
X132607630Y-79311049D01*
X132635375Y-79384206D01*
X132756278Y-79614569D01*
X132756281Y-79614574D01*
X132756282Y-79614575D01*
X132803932Y-79683608D01*
X132904068Y-79828678D01*
X133076587Y-80023413D01*
X133271322Y-80195932D01*
X133485431Y-80343722D01*
X133715794Y-80464625D01*
X133959050Y-80556880D01*
X134005174Y-80568248D01*
X134065555Y-80603404D01*
X134097344Y-80665623D01*
X134099500Y-80688645D01*
X134099500Y-89825455D01*
X134099521Y-89825797D01*
X134099541Y-90047423D01*
X134132789Y-90637598D01*
X134199180Y-91224964D01*
X134298503Y-91807655D01*
X134298512Y-91807698D01*
X134430452Y-92383871D01*
X134594594Y-92951716D01*
X134594597Y-92951724D01*
X134751397Y-93398299D01*
X134790427Y-93509456D01*
X134946862Y-93885794D01*
X135017316Y-94055286D01*
X135274548Y-94587487D01*
X135274560Y-94587510D01*
X135561305Y-95104372D01*
X135561311Y-95104382D01*
X135876694Y-95604326D01*
X135914981Y-95658073D01*
X136005620Y-95785311D01*
X136005688Y-95785419D01*
X139119360Y-100155485D01*
X143720423Y-106613118D01*
X143720424Y-106613119D01*
X143720423Y-106613119D01*
X143735547Y-106634344D01*
X143737534Y-106637216D01*
X144032452Y-107076805D01*
X144036175Y-107082706D01*
X144304996Y-107536661D01*
X144308381Y-107542763D01*
X144551236Y-108011112D01*
X144554272Y-108017394D01*
X144770402Y-108498665D01*
X144773077Y-108505102D01*
X144961793Y-108997768D01*
X144964097Y-109004329D01*
X145008397Y-109142850D01*
X145124803Y-109506834D01*
X145126741Y-109513537D01*
X145258930Y-110024295D01*
X145260487Y-110031097D01*
X145363728Y-110548443D01*
X145364901Y-110555321D01*
X145438886Y-111077700D01*
X145439669Y-111084634D01*
X145484149Y-111610300D01*
X145484542Y-111617266D01*
X145499451Y-112146997D01*
X145499500Y-112150486D01*
X145499500Y-120240244D01*
X145497973Y-120259644D01*
X145492808Y-120292251D01*
X145480820Y-120329146D01*
X145470314Y-120349765D01*
X145447510Y-120381151D01*
X145431151Y-120397510D01*
X145399765Y-120420314D01*
X145379146Y-120430820D01*
X145342251Y-120442808D01*
X145329663Y-120444801D01*
X145309638Y-120447973D01*
X145290244Y-120449500D01*
X144705514Y-120449500D01*
X144518881Y-120479059D01*
X144339163Y-120537454D01*
X144170800Y-120623240D01*
X144083579Y-120686610D01*
X144017927Y-120734310D01*
X144017925Y-120734312D01*
X144017924Y-120734312D01*
X143884312Y-120867924D01*
X143884312Y-120867925D01*
X143884310Y-120867927D01*
X143836610Y-120933579D01*
X143773240Y-121020800D01*
X143687454Y-121189163D01*
X143629059Y-121368881D01*
X143599500Y-121555513D01*
X143599500Y-127095226D01*
X143579815Y-127162265D01*
X143543697Y-127198788D01*
X143446054Y-127263086D01*
X143446037Y-127263098D01*
X143189821Y-127475493D01*
X143189811Y-127475502D01*
X142958390Y-127714731D01*
X142958387Y-127714734D01*
X142754601Y-127977863D01*
X142580869Y-128261766D01*
X142439311Y-128562986D01*
X142331618Y-128877918D01*
X142331615Y-128877930D01*
X142259094Y-129202751D01*
X142222613Y-129533584D01*
X142222613Y-129866415D01*
X142259094Y-130197248D01*
X142331615Y-130522069D01*
X142331618Y-130522081D01*
X142439311Y-130837013D01*
X142580869Y-131138233D01*
X142580870Y-131138234D01*
X142754596Y-131422129D01*
X142754599Y-131422133D01*
X142754601Y-131422136D01*
X142958387Y-131685265D01*
X142958389Y-131685267D01*
X142958393Y-131685272D01*
X143189805Y-131924492D01*
X143189810Y-131924496D01*
X143189811Y-131924497D01*
X143189812Y-131924499D01*
X143446039Y-132136902D01*
X143446043Y-132136905D01*
X143543696Y-132201209D01*
X143588861Y-132254519D01*
X143599500Y-132304772D01*
X143599500Y-137844486D01*
X143629059Y-138031118D01*
X143687454Y-138210836D01*
X143767497Y-138367927D01*
X143773240Y-138379199D01*
X143884310Y-138532073D01*
X144017927Y-138665690D01*
X144170801Y-138776760D01*
X144250347Y-138817290D01*
X144339163Y-138862545D01*
X144339165Y-138862545D01*
X144339168Y-138862547D01*
X144435497Y-138893846D01*
X144518881Y-138920940D01*
X144705514Y-138950500D01*
X144705519Y-138950500D01*
X144734108Y-138950500D01*
X145234108Y-138950500D01*
X145290244Y-138950500D01*
X145309630Y-138952025D01*
X145342253Y-138957192D01*
X145379146Y-138969179D01*
X145399765Y-138979685D01*
X145431151Y-139002489D01*
X145447510Y-139018848D01*
X145470314Y-139050234D01*
X145480820Y-139070853D01*
X145492808Y-139107748D01*
X145497973Y-139140362D01*
X145499500Y-139159755D01*
X145499500Y-148447293D01*
X145499382Y-148452702D01*
X145482614Y-148836750D01*
X145481671Y-148847526D01*
X145431849Y-149225957D01*
X145429971Y-149236610D01*
X145347354Y-149609272D01*
X145344554Y-149619721D01*
X145229775Y-149983755D01*
X145226075Y-149993921D01*
X145080002Y-150346572D01*
X145075430Y-150356376D01*
X144899183Y-150694942D01*
X144893775Y-150704310D01*
X144688681Y-151026244D01*
X144682476Y-151035105D01*
X144450110Y-151337930D01*
X144443156Y-151346217D01*
X144185284Y-151627635D01*
X144177635Y-151635284D01*
X143896217Y-151893156D01*
X143887930Y-151900110D01*
X143585105Y-152132476D01*
X143576244Y-152138681D01*
X143254310Y-152343775D01*
X143244942Y-152349183D01*
X142906376Y-152525430D01*
X142896572Y-152530002D01*
X142543921Y-152676075D01*
X142533755Y-152679775D01*
X142169721Y-152794554D01*
X142159272Y-152797354D01*
X141786610Y-152879971D01*
X141775957Y-152881849D01*
X141397526Y-152931671D01*
X141386750Y-152932614D01*
X141002703Y-152949382D01*
X140997294Y-152949500D01*
X79502706Y-152949500D01*
X79497297Y-152949382D01*
X79113249Y-152932614D01*
X79102473Y-152931671D01*
X78724042Y-152881849D01*
X78713389Y-152879971D01*
X78340727Y-152797354D01*
X78330278Y-152794554D01*
X77966244Y-152679775D01*
X77956078Y-152676075D01*
X77603427Y-152530002D01*
X77593623Y-152525430D01*
X77255057Y-152349183D01*
X77245689Y-152343775D01*
X76923755Y-152138681D01*
X76914894Y-152132476D01*
X76612069Y-151900110D01*
X76603782Y-151893156D01*
X76322364Y-151635284D01*
X76314715Y-151627635D01*
X76056843Y-151346217D01*
X76049889Y-151337930D01*
X75817523Y-151035105D01*
X75811318Y-151026244D01*
X75606224Y-150704310D01*
X75600816Y-150694942D01*
X75424569Y-150356376D01*
X75419997Y-150346572D01*
X75366781Y-150218097D01*
X96899500Y-150218097D01*
X96936446Y-150451368D01*
X97009433Y-150675996D01*
X97107197Y-150867866D01*
X97116657Y-150886433D01*
X97255483Y-151077510D01*
X97422490Y-151244517D01*
X97613567Y-151383343D01*
X97712991Y-151434002D01*
X97824003Y-151490566D01*
X97824005Y-151490566D01*
X97824008Y-151490568D01*
X97944412Y-151529689D01*
X98048631Y-151563553D01*
X98281903Y-151600500D01*
X98281908Y-151600500D01*
X98518097Y-151600500D01*
X98751368Y-151563553D01*
X98975992Y-151490568D01*
X99186433Y-151383343D01*
X99377510Y-151244517D01*
X99544517Y-151077510D01*
X99683343Y-150886433D01*
X99790568Y-150675992D01*
X99863553Y-150451368D01*
X99878598Y-150356376D01*
X99900500Y-150218097D01*
X99900500Y-149981902D01*
X99863553Y-149748631D01*
X99790566Y-149524003D01*
X99683342Y-149313566D01*
X99627430Y-149236610D01*
X99544517Y-149122490D01*
X99377510Y-148955483D01*
X99186433Y-148816657D01*
X98975996Y-148709433D01*
X98751368Y-148636446D01*
X98518097Y-148599500D01*
X98518092Y-148599500D01*
X98281908Y-148599500D01*
X98281903Y-148599500D01*
X98048631Y-148636446D01*
X97824003Y-148709433D01*
X97613566Y-148816657D01*
X97504550Y-148895862D01*
X97422490Y-148955483D01*
X97422488Y-148955485D01*
X97422487Y-148955485D01*
X97255485Y-149122487D01*
X97255485Y-149122488D01*
X97255483Y-149122490D01*
X97195862Y-149204550D01*
X97116657Y-149313566D01*
X97009433Y-149524003D01*
X96936446Y-149748631D01*
X96899500Y-149981902D01*
X96899500Y-150218097D01*
X75366781Y-150218097D01*
X75273924Y-149993921D01*
X75270224Y-149983755D01*
X75269640Y-149981902D01*
X75155442Y-149619710D01*
X75152648Y-149609284D01*
X75070025Y-149236597D01*
X75068152Y-149225971D01*
X75018326Y-148847506D01*
X75017386Y-148836771D01*
X75000618Y-148452702D01*
X75000500Y-148447293D01*
X75000500Y-144718097D01*
X141199500Y-144718097D01*
X141236446Y-144951368D01*
X141309433Y-145175996D01*
X141416657Y-145386433D01*
X141555483Y-145577510D01*
X141722490Y-145744517D01*
X141913567Y-145883343D01*
X142012991Y-145934002D01*
X142124003Y-145990566D01*
X142124005Y-145990566D01*
X142124008Y-145990568D01*
X142244412Y-146029689D01*
X142348631Y-146063553D01*
X142581903Y-146100500D01*
X142581908Y-146100500D01*
X142818097Y-146100500D01*
X143051368Y-146063553D01*
X143275992Y-145990568D01*
X143486433Y-145883343D01*
X143677510Y-145744517D01*
X143844517Y-145577510D01*
X143983343Y-145386433D01*
X144090568Y-145175992D01*
X144163553Y-144951368D01*
X144200500Y-144718097D01*
X144200500Y-144481902D01*
X144163553Y-144248631D01*
X144090566Y-144024003D01*
X143983342Y-143813566D01*
X143844517Y-143622490D01*
X143677510Y-143455483D01*
X143486433Y-143316657D01*
X143275996Y-143209433D01*
X143051368Y-143136446D01*
X142818097Y-143099500D01*
X142818092Y-143099500D01*
X142581908Y-143099500D01*
X142581903Y-143099500D01*
X142348631Y-143136446D01*
X142124003Y-143209433D01*
X141913566Y-143316657D01*
X141804550Y-143395862D01*
X141722490Y-143455483D01*
X141722488Y-143455485D01*
X141722487Y-143455485D01*
X141555485Y-143622487D01*
X141555485Y-143622488D01*
X141555483Y-143622490D01*
X141495862Y-143704550D01*
X141416657Y-143813566D01*
X141309433Y-144024003D01*
X141236446Y-144248631D01*
X141199500Y-144481902D01*
X141199500Y-144718097D01*
X75000500Y-144718097D01*
X75000500Y-113734375D01*
X100644500Y-113734375D01*
X100654973Y-113787029D01*
X100654974Y-113787032D01*
X100694867Y-113846735D01*
X100754569Y-113886626D01*
X100754572Y-113886628D01*
X100754575Y-113886628D01*
X100754576Y-113886629D01*
X100780897Y-113891864D01*
X100807223Y-113897101D01*
X105672100Y-113897100D01*
X105739139Y-113916785D01*
X105784894Y-113969589D01*
X105794541Y-114036665D01*
X105794816Y-114036685D01*
X105794725Y-114037947D01*
X105794839Y-114038736D01*
X105794501Y-114041088D01*
X105794500Y-114041102D01*
X105794500Y-124776007D01*
X105799197Y-124819686D01*
X105810397Y-124871174D01*
X105812890Y-124881372D01*
X105812891Y-124881375D01*
X105855899Y-124962083D01*
X105855901Y-124962086D01*
X105901660Y-125014895D01*
X105919242Y-125032839D01*
X105919246Y-125032843D01*
X105919247Y-125032844D01*
X105919249Y-125032845D01*
X105999059Y-125077488D01*
X105999063Y-125077490D01*
X106066102Y-125097175D01*
X106124000Y-125105500D01*
X106124004Y-125105500D01*
X133675991Y-125105500D01*
X133676000Y-125105500D01*
X133719684Y-125100803D01*
X133748875Y-125094452D01*
X133771174Y-125089602D01*
X133771190Y-125089598D01*
X133771195Y-125089597D01*
X133781373Y-125087110D01*
X133862085Y-125044100D01*
X133914889Y-124998345D01*
X133932843Y-124980754D01*
X133977490Y-124900937D01*
X133997175Y-124833898D01*
X134005500Y-124776000D01*
X134005500Y-112824000D01*
X134000803Y-112780316D01*
X133996897Y-112762364D01*
X133989602Y-112728825D01*
X133989348Y-112727789D01*
X133987110Y-112718627D01*
X133944100Y-112637915D01*
X133898345Y-112585111D01*
X133898339Y-112585104D01*
X133880757Y-112567160D01*
X133880756Y-112567159D01*
X133880754Y-112567157D01*
X133880752Y-112567156D01*
X133880750Y-112567154D01*
X133800940Y-112522511D01*
X133800935Y-112522509D01*
X133733903Y-112502826D01*
X133733899Y-112502825D01*
X133733898Y-112502825D01*
X133676000Y-112494500D01*
X133675996Y-112494500D01*
X123529500Y-112494500D01*
X123462461Y-112474815D01*
X123416706Y-112422011D01*
X123405500Y-112370500D01*
X123405500Y-101418097D01*
X134549500Y-101418097D01*
X134586446Y-101651368D01*
X134659433Y-101875996D01*
X134766657Y-102086433D01*
X134905483Y-102277510D01*
X135072490Y-102444517D01*
X135263567Y-102583343D01*
X135362991Y-102634002D01*
X135474003Y-102690566D01*
X135474005Y-102690566D01*
X135474008Y-102690568D01*
X135594412Y-102729689D01*
X135698631Y-102763553D01*
X135931903Y-102800500D01*
X135931908Y-102800500D01*
X136168097Y-102800500D01*
X136401368Y-102763553D01*
X136625992Y-102690568D01*
X136836433Y-102583343D01*
X137027510Y-102444517D01*
X137194517Y-102277510D01*
X137333343Y-102086433D01*
X137440568Y-101875992D01*
X137513553Y-101651368D01*
X137550500Y-101418097D01*
X137550500Y-101181902D01*
X137513553Y-100948631D01*
X137440566Y-100724003D01*
X137333342Y-100513566D01*
X137194517Y-100322490D01*
X137027510Y-100155483D01*
X136836433Y-100016657D01*
X136625996Y-99909433D01*
X136401368Y-99836446D01*
X136168097Y-99799500D01*
X136168092Y-99799500D01*
X135931908Y-99799500D01*
X135931903Y-99799500D01*
X135698631Y-99836446D01*
X135474003Y-99909433D01*
X135263566Y-100016657D01*
X135154550Y-100095862D01*
X135072490Y-100155483D01*
X135072488Y-100155485D01*
X135072487Y-100155485D01*
X134905485Y-100322487D01*
X134905485Y-100322488D01*
X134905483Y-100322490D01*
X134845862Y-100404550D01*
X134766657Y-100513566D01*
X134659433Y-100724003D01*
X134586446Y-100948631D01*
X134549500Y-101181902D01*
X134549500Y-101418097D01*
X123405500Y-101418097D01*
X123405500Y-88174008D01*
X123405499Y-88173992D01*
X123400803Y-88130316D01*
X123396897Y-88112364D01*
X123389602Y-88078825D01*
X123389348Y-88077789D01*
X123387110Y-88068627D01*
X123344100Y-87987915D01*
X123298345Y-87935111D01*
X123298339Y-87935104D01*
X123280757Y-87917160D01*
X123280756Y-87917159D01*
X123280754Y-87917157D01*
X123280752Y-87917156D01*
X123280750Y-87917154D01*
X123200940Y-87872511D01*
X123200935Y-87872509D01*
X123133903Y-87852826D01*
X123133899Y-87852825D01*
X123133898Y-87852825D01*
X123076000Y-87844500D01*
X115574000Y-87844500D01*
X115542753Y-87847859D01*
X115473995Y-87835454D01*
X115422858Y-87787843D01*
X115405500Y-87724570D01*
X115405500Y-86480908D01*
X115405499Y-86480892D01*
X115400803Y-86437217D01*
X115400696Y-86436725D01*
X115400704Y-86436606D01*
X115400271Y-86433930D01*
X115400903Y-86433827D01*
X115405680Y-86367033D01*
X115447550Y-86311099D01*
X115452952Y-86307275D01*
X115483996Y-86286533D01*
X115523890Y-86226828D01*
X115534363Y-86174177D01*
X115534362Y-85325824D01*
X115523890Y-85273172D01*
X115523888Y-85273170D01*
X115523888Y-85273168D01*
X115483995Y-85213465D01*
X115424293Y-85173574D01*
X115424286Y-85173571D01*
X115371643Y-85163100D01*
X115082089Y-85163100D01*
X115029429Y-85173574D01*
X115024245Y-85175722D01*
X114954775Y-85183186D01*
X114929350Y-85175720D01*
X114924165Y-85173572D01*
X114871516Y-85163099D01*
X114865454Y-85162503D01*
X114865512Y-85161905D01*
X114838888Y-85158077D01*
X114833268Y-85156426D01*
X114832619Y-85156332D01*
X114775363Y-85148100D01*
X114775359Y-85148100D01*
X114229500Y-85148100D01*
X114162461Y-85128415D01*
X114116706Y-85075611D01*
X114105500Y-85024100D01*
X114105500Y-84978371D01*
X114105499Y-84978355D01*
X114103051Y-84955587D01*
X114100803Y-84934679D01*
X114092946Y-84898564D01*
X114090709Y-84884351D01*
X114090499Y-84882221D01*
X114090499Y-84882213D01*
X114080027Y-84829561D01*
X114080025Y-84829559D01*
X114080025Y-84829556D01*
X114040134Y-84769858D01*
X114040133Y-84769856D01*
X114040129Y-84769853D01*
X114040128Y-84769852D01*
X114016007Y-84753734D01*
X113996328Y-84737415D01*
X113980757Y-84721523D01*
X113980756Y-84721522D01*
X113980754Y-84721520D01*
X113980752Y-84721519D01*
X113980750Y-84721517D01*
X113900940Y-84676874D01*
X113900935Y-84676872D01*
X113833903Y-84657189D01*
X113833899Y-84657188D01*
X113833898Y-84657188D01*
X113776000Y-84648863D01*
X113775996Y-84648863D01*
X113103296Y-84648863D01*
X113089153Y-84647993D01*
X113089151Y-84648020D01*
X113088442Y-84647950D01*
X113088113Y-84647930D01*
X113087622Y-84647869D01*
X113063458Y-84645490D01*
X113063447Y-84645489D01*
X113061767Y-84645406D01*
X113043306Y-84644500D01*
X109758822Y-84644500D01*
X109758814Y-84644500D01*
X109715133Y-84649197D01*
X109674874Y-84657955D01*
X109667512Y-84658976D01*
X109667530Y-84659076D01*
X109660664Y-84660278D01*
X109654805Y-84661999D01*
X109646239Y-84664185D01*
X109641289Y-84665261D01*
X109632365Y-84668587D01*
X109559520Y-84689976D01*
X109524585Y-84694999D01*
X109475411Y-84694999D01*
X109440479Y-84689977D01*
X109339332Y-84660279D01*
X109339329Y-84660278D01*
X109339324Y-84660277D01*
X109323644Y-84657529D01*
X109318708Y-84656559D01*
X109305588Y-84653705D01*
X109284865Y-84649197D01*
X109284857Y-84649196D01*
X109241185Y-84644500D01*
X109241178Y-84644500D01*
X108810939Y-84644500D01*
X108767253Y-84649196D01*
X108766993Y-84649238D01*
X108743928Y-84654262D01*
X108737312Y-84653790D01*
X108716332Y-84659950D01*
X108707762Y-84662138D01*
X108695136Y-84664884D01*
X108678936Y-84670922D01*
X108656038Y-84677638D01*
X108655875Y-84677702D01*
X108629559Y-84685429D01*
X108607260Y-84691976D01*
X108572328Y-84696999D01*
X108523150Y-84696999D01*
X108488215Y-84691976D01*
X108439705Y-84677732D01*
X108439676Y-84677713D01*
X108416552Y-84670928D01*
X108410629Y-84667123D01*
X108387712Y-84662138D01*
X108379138Y-84659950D01*
X108367726Y-84656599D01*
X108351604Y-84654278D01*
X108328402Y-84649225D01*
X108328223Y-84649196D01*
X108284537Y-84644500D01*
X106124000Y-84644500D01*
X106123992Y-84644500D01*
X106080313Y-84649197D01*
X106028825Y-84660397D01*
X106018627Y-84662890D01*
X106018624Y-84662891D01*
X105937916Y-84705899D01*
X105937913Y-84705901D01*
X105885104Y-84751660D01*
X105867160Y-84769242D01*
X105867154Y-84769249D01*
X105822511Y-84849059D01*
X105822509Y-84849064D01*
X105802826Y-84916096D01*
X105802825Y-84916101D01*
X105802825Y-84916102D01*
X105800155Y-84934676D01*
X105794500Y-84974003D01*
X105794500Y-95370507D01*
X105799197Y-95414186D01*
X105810397Y-95465674D01*
X105812890Y-95475872D01*
X105812892Y-95475879D01*
X105846649Y-95539226D01*
X105860804Y-95607647D01*
X105845438Y-95658073D01*
X105822511Y-95699062D01*
X105822509Y-95699064D01*
X105802826Y-95766096D01*
X105802825Y-95766101D01*
X105802825Y-95766102D01*
X105794500Y-95824000D01*
X105794500Y-108108901D01*
X105795225Y-108115649D01*
X105782820Y-108184406D01*
X105735209Y-108235543D01*
X105671936Y-108252901D01*
X100807225Y-108252901D01*
X100754571Y-108263374D01*
X100754568Y-108263375D01*
X100694865Y-108303268D01*
X100654974Y-108362970D01*
X100654971Y-108362977D01*
X100644500Y-108415619D01*
X100644500Y-113734375D01*
X75000500Y-113734375D01*
X75000500Y-112161303D01*
X75000549Y-112157803D01*
X75009169Y-111852574D01*
X75015543Y-111626878D01*
X75015936Y-111619933D01*
X75060719Y-111092468D01*
X75061498Y-111085595D01*
X75135992Y-110561401D01*
X75137154Y-110554613D01*
X75241100Y-110035528D01*
X75242666Y-110028718D01*
X75255468Y-109979421D01*
X75375733Y-109516359D01*
X75377665Y-109509696D01*
X75539452Y-109005617D01*
X75541758Y-108999072D01*
X75731722Y-108504960D01*
X75734417Y-108498504D01*
X75783083Y-108390544D01*
X75951949Y-108015935D01*
X75955001Y-108009645D01*
X76199443Y-107540079D01*
X76202812Y-107534031D01*
X76473368Y-107079005D01*
X76477077Y-107073149D01*
X76773904Y-106632600D01*
X76775842Y-106629810D01*
X76813182Y-106577632D01*
X76813182Y-106577630D01*
X78961182Y-103576007D01*
X90094500Y-103576007D01*
X90099197Y-103619686D01*
X90110397Y-103671174D01*
X90112890Y-103681372D01*
X90112891Y-103681375D01*
X90155899Y-103762083D01*
X90155901Y-103762086D01*
X90201660Y-103814895D01*
X90219242Y-103832839D01*
X90219246Y-103832843D01*
X90219247Y-103832844D01*
X90219249Y-103832845D01*
X90299059Y-103877488D01*
X90299063Y-103877490D01*
X90366102Y-103897175D01*
X90424000Y-103905500D01*
X90424004Y-103905500D01*
X102875991Y-103905500D01*
X102876000Y-103905500D01*
X102919684Y-103900803D01*
X102948875Y-103894452D01*
X102971174Y-103889602D01*
X102971190Y-103889598D01*
X102971195Y-103889597D01*
X102981373Y-103887110D01*
X103062085Y-103844100D01*
X103114889Y-103798345D01*
X103132843Y-103780754D01*
X103177490Y-103700937D01*
X103197175Y-103633898D01*
X103205500Y-103576000D01*
X103205500Y-82511110D01*
X105769500Y-82511110D01*
X105774941Y-82548454D01*
X105780276Y-82585074D01*
X105836049Y-82699158D01*
X105925841Y-82788950D01*
X106039925Y-82844723D01*
X106039926Y-82844723D01*
X106039928Y-82844724D01*
X106113890Y-82855500D01*
X106113896Y-82855500D01*
X106493525Y-82855500D01*
X106560564Y-82875185D01*
X106606319Y-82927989D01*
X106616263Y-82961853D01*
X106634222Y-83086765D01*
X106689546Y-83207905D01*
X106691621Y-83212449D01*
X106782104Y-83316872D01*
X106782106Y-83316873D01*
X106782108Y-83316875D01*
X106898338Y-83391572D01*
X106898343Y-83391574D01*
X107030912Y-83430499D01*
X107030914Y-83430500D01*
X107030915Y-83430500D01*
X107169086Y-83430500D01*
X107169086Y-83430499D01*
X107296513Y-83393084D01*
X107301656Y-83391574D01*
X107301657Y-83391573D01*
X107301659Y-83391573D01*
X107303331Y-83390499D01*
X107417891Y-83316875D01*
X107417890Y-83316875D01*
X107417896Y-83316872D01*
X107508379Y-83212449D01*
X107565777Y-83086765D01*
X107584730Y-82954940D01*
X107613755Y-82891386D01*
X107672533Y-82853611D01*
X107725344Y-82849884D01*
X107763890Y-82855500D01*
X107795081Y-82855500D01*
X107819272Y-82857883D01*
X107932974Y-82880499D01*
X107932976Y-82880500D01*
X107932977Y-82880500D01*
X109392024Y-82880500D01*
X109392024Y-82880499D01*
X109478352Y-82863328D01*
X109547940Y-82869555D01*
X109590222Y-82897264D01*
X109807539Y-83114581D01*
X109864419Y-83171461D01*
X109884045Y-83182792D01*
X109934075Y-83211678D01*
X109934077Y-83211679D01*
X109934078Y-83211679D01*
X109934081Y-83211681D01*
X110011780Y-83232500D01*
X111349749Y-83232500D01*
X111416788Y-83252185D01*
X111462543Y-83304989D01*
X111472487Y-83374147D01*
X111472222Y-83375897D01*
X111469500Y-83393083D01*
X111469500Y-83956916D01*
X111469499Y-83956916D01*
X111484537Y-84051863D01*
X111484538Y-84051866D01*
X111484539Y-84051868D01*
X111542854Y-84166318D01*
X111542855Y-84166319D01*
X111542858Y-84166323D01*
X111633676Y-84257141D01*
X111633680Y-84257144D01*
X111633682Y-84257146D01*
X111748132Y-84315461D01*
X111748134Y-84315461D01*
X111748136Y-84315462D01*
X111843083Y-84330500D01*
X111843084Y-84330500D01*
X112038456Y-84330500D01*
X112054637Y-84331560D01*
X112059779Y-84332236D01*
X112059780Y-84332237D01*
X113057154Y-84332237D01*
X113073340Y-84333831D01*
X113073359Y-84333640D01*
X113079415Y-84334235D01*
X113079423Y-84334237D01*
X113927776Y-84334236D01*
X113980428Y-84323764D01*
X114040133Y-84283870D01*
X114080027Y-84224165D01*
X114090500Y-84171514D01*
X114090499Y-83881961D01*
X114080027Y-83829309D01*
X114080025Y-83829306D01*
X114077879Y-83824124D01*
X114070412Y-83754655D01*
X114077883Y-83729212D01*
X114080023Y-83724044D01*
X114080027Y-83724039D01*
X114080585Y-83721237D01*
X114090499Y-83671392D01*
X114090500Y-83671388D01*
X114090499Y-83514498D01*
X114110183Y-83447460D01*
X114162987Y-83401705D01*
X114214499Y-83390499D01*
X114371386Y-83390499D01*
X114371387Y-83390499D01*
X114424039Y-83380027D01*
X114483744Y-83340133D01*
X114523638Y-83280428D01*
X114534111Y-83227777D01*
X114534111Y-83227774D01*
X114919363Y-83227774D01*
X114929836Y-83280428D01*
X114929837Y-83280431D01*
X114969730Y-83340134D01*
X115020635Y-83374147D01*
X115029435Y-83380027D01*
X115029438Y-83380027D01*
X115029439Y-83380028D01*
X115038519Y-83381834D01*
X115082086Y-83390500D01*
X115371639Y-83390499D01*
X115424291Y-83380027D01*
X115424295Y-83380023D01*
X115429472Y-83377880D01*
X115498942Y-83370411D01*
X115524385Y-83377882D01*
X115529559Y-83380025D01*
X115529561Y-83380027D01*
X115529563Y-83380027D01*
X115529567Y-83380029D01*
X115571566Y-83388382D01*
X115582212Y-83390500D01*
X115739100Y-83390499D01*
X115806139Y-83410183D01*
X115851894Y-83462987D01*
X115863100Y-83514498D01*
X115863100Y-83671384D01*
X115863101Y-83671387D01*
X115873573Y-83724039D01*
X115873573Y-83724040D01*
X115873574Y-83724041D01*
X115875721Y-83729225D01*
X115883187Y-83798695D01*
X115875721Y-83824121D01*
X115873572Y-83829307D01*
X115863100Y-83881957D01*
X115863100Y-84171510D01*
X115863101Y-84171513D01*
X115873573Y-84224165D01*
X115873573Y-84224166D01*
X115873574Y-84224167D01*
X115875721Y-84229351D01*
X115883187Y-84298821D01*
X115875721Y-84324247D01*
X115873572Y-84329433D01*
X115863100Y-84382083D01*
X115863100Y-84671637D01*
X115873573Y-84724291D01*
X115873574Y-84724294D01*
X115913467Y-84783997D01*
X115967624Y-84820183D01*
X115973172Y-84823890D01*
X115973175Y-84823890D01*
X115973176Y-84823891D01*
X115999497Y-84829126D01*
X116025823Y-84834363D01*
X116874176Y-84834362D01*
X116874177Y-84834361D01*
X116880236Y-84833765D01*
X116880254Y-84833956D01*
X116896438Y-84832363D01*
X117478569Y-84832363D01*
X117516889Y-84838433D01*
X117523130Y-84840460D01*
X117523132Y-84840461D01*
X117570608Y-84847980D01*
X117618083Y-84855500D01*
X117618084Y-84855500D01*
X118131916Y-84855500D01*
X118226863Y-84840462D01*
X118226863Y-84840461D01*
X118226868Y-84840461D01*
X118341318Y-84782146D01*
X118432146Y-84691318D01*
X118490461Y-84576868D01*
X118505500Y-84481916D01*
X118505500Y-83918084D01*
X118499779Y-83881961D01*
X118490462Y-83823136D01*
X118490461Y-83823134D01*
X118490461Y-83823132D01*
X118432146Y-83708682D01*
X118432144Y-83708680D01*
X118432141Y-83708676D01*
X118341323Y-83617858D01*
X118341319Y-83617855D01*
X118341318Y-83617854D01*
X118226868Y-83559539D01*
X118226866Y-83559538D01*
X118226863Y-83559537D01*
X118131916Y-83544500D01*
X117618084Y-83544500D01*
X117613233Y-83544882D01*
X117613065Y-83542756D01*
X117552597Y-83534938D01*
X117499148Y-83489938D01*
X117478513Y-83423185D01*
X117478500Y-83421423D01*
X117478500Y-83032782D01*
X117478500Y-83032780D01*
X117457681Y-82955081D01*
X117454747Y-82950000D01*
X117417464Y-82885425D01*
X117417461Y-82885419D01*
X117360581Y-82828539D01*
X117141819Y-82609777D01*
X117108334Y-82548454D01*
X117105500Y-82522096D01*
X117105500Y-81059782D01*
X117105500Y-81059780D01*
X117084681Y-80982081D01*
X117044461Y-80912419D01*
X116987581Y-80855539D01*
X116521760Y-80389718D01*
X116488275Y-80328395D01*
X116485441Y-80302037D01*
X116485441Y-80300001D01*
X116465777Y-80163234D01*
X116436208Y-80098487D01*
X116408379Y-80037551D01*
X116317896Y-79933128D01*
X116317893Y-79933126D01*
X116317891Y-79933124D01*
X116201661Y-79858427D01*
X116201656Y-79858425D01*
X116069087Y-79819500D01*
X116069085Y-79819500D01*
X115930915Y-79819500D01*
X115930912Y-79819500D01*
X115798343Y-79858425D01*
X115798338Y-79858427D01*
X115682108Y-79933124D01*
X115682106Y-79933126D01*
X115682104Y-79933127D01*
X115682104Y-79933128D01*
X115623907Y-80000291D01*
X115591621Y-80037551D01*
X115591620Y-80037552D01*
X115534222Y-80163234D01*
X115518982Y-80269232D01*
X115489956Y-80332787D01*
X115483925Y-80339265D01*
X115039282Y-80783910D01*
X114982404Y-80840787D01*
X114982398Y-80840796D01*
X114942184Y-80910446D01*
X114942183Y-80910448D01*
X114921363Y-80988151D01*
X114921363Y-82357154D01*
X114919768Y-82373340D01*
X114919960Y-82373359D01*
X114919363Y-82379421D01*
X114919363Y-83227774D01*
X114534111Y-83227774D01*
X114534110Y-82379424D01*
X114534110Y-82379422D01*
X114533513Y-82373364D01*
X114533704Y-82373345D01*
X114532111Y-82357162D01*
X114532111Y-81686391D01*
X114531560Y-81682205D01*
X114530500Y-81666024D01*
X114530500Y-79618083D01*
X114515462Y-79523136D01*
X114515461Y-79523134D01*
X114515461Y-79523132D01*
X114457146Y-79408682D01*
X114457144Y-79408680D01*
X114457141Y-79408676D01*
X114366323Y-79317858D01*
X114366319Y-79317855D01*
X114366318Y-79317854D01*
X114251868Y-79259539D01*
X114251866Y-79259538D01*
X114251863Y-79259537D01*
X114156916Y-79244500D01*
X113643084Y-79244500D01*
X113548136Y-79259537D01*
X113433680Y-79317855D01*
X113433676Y-79317858D01*
X113342858Y-79408676D01*
X113342855Y-79408680D01*
X113284537Y-79523136D01*
X113269500Y-79618083D01*
X113269500Y-79775517D01*
X113249815Y-79842556D01*
X113197011Y-79888311D01*
X113127853Y-79898255D01*
X113064297Y-79869230D01*
X113026523Y-79810452D01*
X113023883Y-79799708D01*
X113004350Y-79701511D01*
X113004349Y-79701505D01*
X112989939Y-79666715D01*
X112981227Y-79622919D01*
X112980883Y-79622947D01*
X112980653Y-79620034D01*
X112980500Y-79619262D01*
X112980500Y-79618083D01*
X112965462Y-79523136D01*
X112965461Y-79523134D01*
X112965461Y-79523132D01*
X112907146Y-79408682D01*
X112907144Y-79408680D01*
X112907141Y-79408676D01*
X112816323Y-79317858D01*
X112816319Y-79317855D01*
X112816318Y-79317854D01*
X112701868Y-79259539D01*
X112701866Y-79259538D01*
X112701863Y-79259537D01*
X112606916Y-79244500D01*
X112554919Y-79244500D01*
X112530728Y-79242117D01*
X112417026Y-79219500D01*
X112417023Y-79219500D01*
X110907977Y-79219500D01*
X110907973Y-79219500D01*
X110794272Y-79242117D01*
X110770081Y-79244500D01*
X110738890Y-79244500D01*
X110689582Y-79251684D01*
X110664925Y-79255276D01*
X110550841Y-79311049D01*
X110461050Y-79400840D01*
X110405274Y-79514932D01*
X110403217Y-79521589D01*
X110387852Y-79553858D01*
X110371951Y-79577657D01*
X110371944Y-79577669D01*
X110320651Y-79701503D01*
X110320648Y-79701512D01*
X110294500Y-79832972D01*
X110294500Y-79967027D01*
X110320648Y-80098487D01*
X110320651Y-80098496D01*
X110371944Y-80222332D01*
X110371950Y-80222342D01*
X110387850Y-80246138D01*
X110403218Y-80278412D01*
X110405275Y-80285070D01*
X110461050Y-80399159D01*
X110550841Y-80488950D01*
X110664925Y-80544723D01*
X110664926Y-80544723D01*
X110664928Y-80544724D01*
X110738890Y-80555500D01*
X110770081Y-80555500D01*
X110794272Y-80557883D01*
X110907974Y-80580499D01*
X110907976Y-80580500D01*
X110907977Y-80580500D01*
X112417024Y-80580500D01*
X112417024Y-80580499D01*
X112530728Y-80557883D01*
X112554919Y-80555500D01*
X112606916Y-80555500D01*
X112701863Y-80540462D01*
X112701863Y-80540461D01*
X112701868Y-80540461D01*
X112816318Y-80482146D01*
X112907146Y-80391318D01*
X112965461Y-80276868D01*
X112966671Y-80269232D01*
X112980500Y-80181916D01*
X112980500Y-80180735D01*
X112980654Y-80179960D01*
X112980883Y-80177053D01*
X112981227Y-80177080D01*
X112989938Y-80133285D01*
X113004349Y-80098495D01*
X113019284Y-80023412D01*
X113023883Y-80000291D01*
X113056267Y-79938380D01*
X113116983Y-79903806D01*
X113186752Y-79907545D01*
X113243425Y-79948411D01*
X113269006Y-80013429D01*
X113269500Y-80024482D01*
X113269500Y-81681916D01*
X113269499Y-81681916D01*
X113284537Y-81776863D01*
X113284538Y-81776866D01*
X113284539Y-81776868D01*
X113342854Y-81891318D01*
X113342855Y-81891319D01*
X113342858Y-81891323D01*
X113433676Y-81982141D01*
X113433680Y-81982144D01*
X113433682Y-81982146D01*
X113548132Y-82040461D01*
X113548134Y-82040461D01*
X113548136Y-82040462D01*
X113643083Y-82055500D01*
X113643084Y-82055500D01*
X113797111Y-82055500D01*
X113864150Y-82075185D01*
X113909905Y-82127989D01*
X113921111Y-82179500D01*
X113921111Y-82357154D01*
X113919516Y-82373341D01*
X113919708Y-82373360D01*
X113919111Y-82379422D01*
X113919111Y-83095111D01*
X113899426Y-83162150D01*
X113846622Y-83207905D01*
X113795111Y-83219111D01*
X113679504Y-83219111D01*
X113612465Y-83199426D01*
X113591823Y-83182792D01*
X113091572Y-82682541D01*
X113091570Y-82682539D01*
X113088448Y-82680736D01*
X113021913Y-82642321D01*
X113021911Y-82642320D01*
X113021908Y-82642319D01*
X112944209Y-82621500D01*
X112944208Y-82621500D01*
X110229904Y-82621500D01*
X110162865Y-82601815D01*
X110142223Y-82585181D01*
X110022265Y-82465223D01*
X109988780Y-82403900D01*
X109988329Y-82353351D01*
X110005499Y-82267027D01*
X110005500Y-82267024D01*
X110005500Y-82132976D01*
X110005499Y-82132972D01*
X109979351Y-82001512D01*
X109979348Y-82001503D01*
X109978725Y-82000000D01*
X109952365Y-81936359D01*
X109928055Y-81877668D01*
X109928053Y-81877665D01*
X109928052Y-81877662D01*
X109912147Y-81853858D01*
X109896777Y-81821575D01*
X109894722Y-81814923D01*
X109838950Y-81700841D01*
X109749158Y-81611049D01*
X109635074Y-81555276D01*
X109616581Y-81552582D01*
X109561110Y-81544500D01*
X109561104Y-81544500D01*
X109529919Y-81544500D01*
X109505728Y-81542117D01*
X109392026Y-81519500D01*
X109392023Y-81519500D01*
X107932977Y-81519500D01*
X107932973Y-81519500D01*
X107819272Y-81542117D01*
X107795081Y-81544500D01*
X107763890Y-81544500D01*
X107714582Y-81551684D01*
X107689925Y-81555276D01*
X107575841Y-81611049D01*
X107486050Y-81700840D01*
X107430274Y-81814932D01*
X107428217Y-81821589D01*
X107412852Y-81853858D01*
X107396951Y-81877657D01*
X107396944Y-81877669D01*
X107345651Y-82001503D01*
X107345648Y-82001512D01*
X107319500Y-82132972D01*
X107319500Y-82132976D01*
X107319500Y-82132977D01*
X107319500Y-82267023D01*
X107319501Y-82267027D01*
X107331648Y-82328097D01*
X107325419Y-82397689D01*
X107282556Y-82452865D01*
X107216666Y-82476109D01*
X107175099Y-82471265D01*
X107169088Y-82469500D01*
X107169085Y-82469500D01*
X107067549Y-82469500D01*
X107000510Y-82449815D01*
X106979864Y-82433178D01*
X106966815Y-82420128D01*
X106933333Y-82358803D01*
X106930500Y-82332450D01*
X106930500Y-81888895D01*
X106930500Y-81888890D01*
X106919724Y-81814928D01*
X106918538Y-81812503D01*
X106863950Y-81700841D01*
X106774158Y-81611049D01*
X106660074Y-81555276D01*
X106641581Y-81552582D01*
X106586110Y-81544500D01*
X106113890Y-81544500D01*
X106064582Y-81551684D01*
X106039925Y-81555276D01*
X105925841Y-81611049D01*
X105836049Y-81700841D01*
X105780276Y-81814925D01*
X105777881Y-81831368D01*
X105769500Y-81888890D01*
X105769500Y-82511110D01*
X103205500Y-82511110D01*
X103205500Y-77124000D01*
X103200803Y-77080316D01*
X103196897Y-77062364D01*
X103189602Y-77028825D01*
X103189348Y-77027789D01*
X103187110Y-77018627D01*
X103144100Y-76937915D01*
X103098345Y-76885111D01*
X103098339Y-76885104D01*
X103080757Y-76867160D01*
X103080756Y-76867159D01*
X103080754Y-76867157D01*
X103080752Y-76867156D01*
X103080750Y-76867154D01*
X103000940Y-76822511D01*
X103000935Y-76822509D01*
X102933903Y-76802826D01*
X102933899Y-76802825D01*
X102933898Y-76802825D01*
X102876000Y-76794500D01*
X98053210Y-76794500D01*
X98053199Y-76794500D01*
X98028645Y-76795972D01*
X97999241Y-76799511D01*
X97940324Y-76819195D01*
X97920777Y-76825726D01*
X97920775Y-76825726D01*
X97920775Y-76825727D01*
X97860325Y-76860749D01*
X97860322Y-76860751D01*
X97814395Y-76896981D01*
X97814390Y-76896986D01*
X93014642Y-81946073D01*
X92902882Y-82063639D01*
X90185183Y-84922516D01*
X90172498Y-84937189D01*
X90172485Y-84937205D01*
X90158054Y-84955584D01*
X90122511Y-85024593D01*
X90102826Y-85091629D01*
X90094500Y-85149536D01*
X90094500Y-103576007D01*
X78961182Y-103576007D01*
X80505410Y-101418097D01*
X82949500Y-101418097D01*
X82986446Y-101651368D01*
X83059433Y-101875996D01*
X83166657Y-102086433D01*
X83305483Y-102277510D01*
X83472490Y-102444517D01*
X83663567Y-102583343D01*
X83762991Y-102634002D01*
X83874003Y-102690566D01*
X83874005Y-102690566D01*
X83874008Y-102690568D01*
X83994412Y-102729689D01*
X84098631Y-102763553D01*
X84331903Y-102800500D01*
X84331908Y-102800500D01*
X84568097Y-102800500D01*
X84801368Y-102763553D01*
X85025992Y-102690568D01*
X85236433Y-102583343D01*
X85427510Y-102444517D01*
X85594517Y-102277510D01*
X85733343Y-102086433D01*
X85840568Y-101875992D01*
X85913553Y-101651368D01*
X85950500Y-101418097D01*
X85950500Y-101181902D01*
X85913553Y-100948631D01*
X85840566Y-100724003D01*
X85733342Y-100513566D01*
X85594517Y-100322490D01*
X85427510Y-100155483D01*
X85236433Y-100016657D01*
X85025996Y-99909433D01*
X84801368Y-99836446D01*
X84568097Y-99799500D01*
X84568092Y-99799500D01*
X84331908Y-99799500D01*
X84331903Y-99799500D01*
X84098631Y-99836446D01*
X83874003Y-99909433D01*
X83663566Y-100016657D01*
X83554550Y-100095862D01*
X83472490Y-100155483D01*
X83472488Y-100155485D01*
X83472487Y-100155485D01*
X83305485Y-100322487D01*
X83305485Y-100322488D01*
X83305483Y-100322490D01*
X83245862Y-100404550D01*
X83166657Y-100513566D01*
X83059433Y-100724003D01*
X82986446Y-100948631D01*
X82949500Y-101181902D01*
X82949500Y-101418097D01*
X80505410Y-101418097D01*
X84445537Y-95912149D01*
X84446550Y-95910915D01*
X84450846Y-95904910D01*
X84450849Y-95904909D01*
X84489196Y-95851325D01*
X84489195Y-95851324D01*
X84494186Y-95844349D01*
X84661788Y-95610180D01*
X84979172Y-95109159D01*
X85267773Y-94591024D01*
X85526673Y-94057427D01*
X85755046Y-93510069D01*
X85952163Y-92950694D01*
X86117397Y-92381087D01*
X86250221Y-91803062D01*
X86350211Y-91218462D01*
X86417048Y-90629151D01*
X86450520Y-90037007D01*
X86450500Y-89740462D01*
X86450500Y-89674570D01*
X86450500Y-80688645D01*
X86470185Y-80621606D01*
X86522989Y-80575851D01*
X86544823Y-80568248D01*
X86590950Y-80556880D01*
X86834206Y-80464625D01*
X87064569Y-80343722D01*
X87278678Y-80195932D01*
X87473413Y-80023413D01*
X87645932Y-79828678D01*
X87793722Y-79614569D01*
X87914625Y-79384206D01*
X88006880Y-79140950D01*
X88069141Y-78888347D01*
X88100500Y-78630081D01*
X88100500Y-78500000D01*
X88100500Y-78434108D01*
X88100500Y-76984567D01*
X90085769Y-76984567D01*
X90106847Y-77095066D01*
X90202111Y-77388256D01*
X90202113Y-77388261D01*
X90333369Y-77667193D01*
X90333372Y-77667199D01*
X90498549Y-77927478D01*
X90695068Y-78165029D01*
X90919789Y-78376055D01*
X90919799Y-78376063D01*
X91169184Y-78557252D01*
X91169202Y-78557264D01*
X91439345Y-78705776D01*
X91439353Y-78705780D01*
X91725974Y-78819261D01*
X91725977Y-78819262D01*
X91984567Y-78885656D01*
X91984567Y-77413302D01*
X91987205Y-77415065D01*
X92178293Y-77494217D01*
X92381151Y-77534567D01*
X92587983Y-77534567D01*
X92790841Y-77494217D01*
X92981929Y-77415065D01*
X92984567Y-77413302D01*
X92984567Y-78885655D01*
X93243156Y-78819262D01*
X93243159Y-78819261D01*
X93529780Y-78705780D01*
X93529788Y-78705776D01*
X93799931Y-78557264D01*
X93799949Y-78557252D01*
X94049334Y-78376063D01*
X94049344Y-78376055D01*
X94274065Y-78165029D01*
X94470584Y-77927478D01*
X94635761Y-77667199D01*
X94635764Y-77667193D01*
X94767020Y-77388261D01*
X94767022Y-77388256D01*
X94862286Y-77095066D01*
X94883365Y-76984567D01*
X93413302Y-76984567D01*
X93415065Y-76981929D01*
X93494217Y-76790841D01*
X93534567Y-76587983D01*
X93534567Y-76381151D01*
X93494217Y-76178293D01*
X93415065Y-75987205D01*
X93413302Y-75984567D01*
X94883365Y-75984567D01*
X94862286Y-75874067D01*
X94767022Y-75580877D01*
X94767020Y-75580872D01*
X94635764Y-75301940D01*
X94635761Y-75301934D01*
X94470584Y-75041655D01*
X94274065Y-74804104D01*
X94049344Y-74593078D01*
X94049334Y-74593070D01*
X93799949Y-74411881D01*
X93799931Y-74411869D01*
X93529788Y-74263357D01*
X93529780Y-74263353D01*
X93243159Y-74149872D01*
X92984567Y-74083476D01*
X92984567Y-75555831D01*
X92981929Y-75554069D01*
X92790841Y-75474917D01*
X92587983Y-75434567D01*
X92381151Y-75434567D01*
X92178293Y-75474917D01*
X91987205Y-75554069D01*
X91984567Y-75555831D01*
X91984567Y-74083476D01*
X91984566Y-74083476D01*
X91725974Y-74149872D01*
X91439353Y-74263353D01*
X91439345Y-74263357D01*
X91169202Y-74411869D01*
X91169184Y-74411881D01*
X90919799Y-74593070D01*
X90919789Y-74593078D01*
X90695068Y-74804104D01*
X90498549Y-75041655D01*
X90333372Y-75301934D01*
X90333369Y-75301940D01*
X90202113Y-75580872D01*
X90202111Y-75580877D01*
X90106847Y-75874067D01*
X90085769Y-75984567D01*
X91555832Y-75984567D01*
X91554069Y-75987205D01*
X91474917Y-76178293D01*
X91434567Y-76381151D01*
X91434567Y-76587983D01*
X91474917Y-76790841D01*
X91554069Y-76981929D01*
X91555832Y-76984567D01*
X90085769Y-76984567D01*
X88100500Y-76984567D01*
X88100500Y-71774909D01*
X88120185Y-71707870D01*
X88172989Y-71662115D01*
X88178979Y-71659566D01*
X89172053Y-71267738D01*
X89174829Y-71266683D01*
X90569197Y-70756505D01*
X90571994Y-70755521D01*
X91978705Y-70280433D01*
X91981599Y-70279496D01*
X93399712Y-69839817D01*
X93402580Y-69838967D01*
X94831312Y-69434936D01*
X94834221Y-69434153D01*
X96272656Y-69066033D01*
X96275517Y-69065340D01*
X97722709Y-68733373D01*
X97725589Y-68732750D01*
X99180621Y-68437147D01*
X99183644Y-68436572D01*
X100645583Y-68177519D01*
X100648513Y-68177037D01*
X102116561Y-67954678D01*
X102119551Y-67954264D01*
X103592604Y-67768763D01*
X103595602Y-67768423D01*
X105072875Y-67619879D01*
X105075947Y-67619609D01*
X106556453Y-67508122D01*
X106559495Y-67507931D01*
X108042304Y-67433568D01*
X108045356Y-67433453D01*
X109529568Y-67396261D01*
X109532674Y-67396222D01*
X111017326Y-67396222D01*
X111020432Y-67396261D01*
G37*
G04 #@! TD.AperFunction*
G04 #@! TA.AperFunction,Conductor*
G36*
X102943039Y-77019685D02*
G01*
X102988794Y-77072489D01*
X103000000Y-77124000D01*
X103000000Y-103576000D01*
X102980315Y-103643039D01*
X102927511Y-103688794D01*
X102876000Y-103700000D01*
X90424000Y-103700000D01*
X90356961Y-103680315D01*
X90311206Y-103627511D01*
X90300000Y-103576000D01*
X90300000Y-85149533D01*
X90319685Y-85082494D01*
X90334128Y-85064099D01*
X90423742Y-84969830D01*
X93163583Y-82087659D01*
X94845837Y-82087659D01*
X94845838Y-82087670D01*
X94886269Y-82258259D01*
X94964957Y-82414940D01*
X95030156Y-82494977D01*
X95030169Y-82494992D01*
X96090811Y-83555634D01*
X97101377Y-82545067D01*
X97184411Y-82669336D01*
X97330664Y-82815589D01*
X97454930Y-82898621D01*
X96444365Y-83909186D01*
X96444365Y-83909187D01*
X97505001Y-84969823D01*
X97505022Y-84969842D01*
X97585053Y-85035038D01*
X97585059Y-85035042D01*
X97741740Y-85113730D01*
X97912329Y-85154161D01*
X97912340Y-85154163D01*
X98087660Y-85154163D01*
X98087670Y-85154161D01*
X98258259Y-85113730D01*
X98414940Y-85035042D01*
X98494977Y-84969843D01*
X98494992Y-84969830D01*
X99555634Y-83909187D01*
X99555634Y-83909186D01*
X98545068Y-82898621D01*
X98669336Y-82815589D01*
X98815589Y-82669336D01*
X98898621Y-82545068D01*
X99909187Y-83555634D01*
X100969823Y-82494998D01*
X100969842Y-82494977D01*
X101035038Y-82414946D01*
X101035042Y-82414940D01*
X101113730Y-82258259D01*
X101154161Y-82087670D01*
X101154163Y-82087659D01*
X101154163Y-81912340D01*
X101154161Y-81912329D01*
X101113730Y-81741740D01*
X101035042Y-81585059D01*
X100969843Y-81505022D01*
X100969830Y-81505007D01*
X99909187Y-80444365D01*
X99909186Y-80444365D01*
X98898621Y-81454930D01*
X98815589Y-81330664D01*
X98669336Y-81184411D01*
X98545068Y-81101378D01*
X99555634Y-80090812D01*
X99555634Y-80090811D01*
X98494998Y-79030176D01*
X98494977Y-79030157D01*
X98414946Y-78964961D01*
X98414940Y-78964957D01*
X98258259Y-78886269D01*
X98087670Y-78845838D01*
X98087660Y-78845837D01*
X97912340Y-78845837D01*
X97912329Y-78845838D01*
X97741740Y-78886269D01*
X97585059Y-78964957D01*
X97505022Y-79030156D01*
X97505006Y-79030170D01*
X96444365Y-80090812D01*
X97454931Y-81101378D01*
X97330664Y-81184411D01*
X97184411Y-81330664D01*
X97101378Y-81454931D01*
X96090812Y-80444365D01*
X96090811Y-80444365D01*
X95030176Y-81505001D01*
X95030157Y-81505022D01*
X94964961Y-81585053D01*
X94964957Y-81585059D01*
X94886269Y-81741740D01*
X94845838Y-81912329D01*
X94845837Y-81912340D01*
X94845837Y-82087659D01*
X93163583Y-82087659D01*
X97963339Y-77038565D01*
X98023794Y-77003540D01*
X98053210Y-77000000D01*
X102876000Y-77000000D01*
X102943039Y-77019685D01*
G37*
G04 #@! TD.AperFunction*
G04 #@! TA.AperFunction,Conductor*
G36*
X108329104Y-84859695D02*
G01*
X108329175Y-84859455D01*
X108332539Y-84860442D01*
X108336052Y-84861207D01*
X108337683Y-84861952D01*
X108337685Y-84861953D01*
X108337686Y-84861953D01*
X108337690Y-84861955D01*
X108475774Y-84902499D01*
X108475776Y-84902500D01*
X108475777Y-84902500D01*
X108619700Y-84902500D01*
X108619700Y-84902499D01*
X108716599Y-84874048D01*
X108757785Y-84861955D01*
X108757786Y-84861954D01*
X108757791Y-84861953D01*
X108757794Y-84861950D01*
X108759424Y-84861207D01*
X108762936Y-84860442D01*
X108766301Y-84859455D01*
X108766371Y-84859695D01*
X108810939Y-84850000D01*
X109241178Y-84850000D01*
X109281077Y-84858680D01*
X109281437Y-84857455D01*
X109428036Y-84900499D01*
X109428038Y-84900500D01*
X109428039Y-84900500D01*
X109571962Y-84900500D01*
X109571962Y-84900499D01*
X109624797Y-84884985D01*
X109718563Y-84857455D01*
X109718922Y-84858680D01*
X109758822Y-84850000D01*
X113043306Y-84850000D01*
X113067494Y-84852382D01*
X113077452Y-84854363D01*
X113776000Y-84854363D01*
X113843039Y-84874048D01*
X113888794Y-84926852D01*
X113900000Y-84978363D01*
X113900000Y-85172852D01*
X113911631Y-85231329D01*
X113911632Y-85231330D01*
X113955947Y-85297652D01*
X114022269Y-85341967D01*
X114022270Y-85341968D01*
X114080747Y-85353599D01*
X114080750Y-85353600D01*
X114080752Y-85353600D01*
X114775363Y-85353600D01*
X114842402Y-85373285D01*
X114888157Y-85426089D01*
X114899363Y-85477600D01*
X114899363Y-86176152D01*
X114910994Y-86234629D01*
X114910995Y-86234630D01*
X114955310Y-86300952D01*
X115021632Y-86345267D01*
X115021633Y-86345268D01*
X115079715Y-86356820D01*
X115080115Y-86356900D01*
X115080120Y-86356900D01*
X115086175Y-86357497D01*
X115085946Y-86359820D01*
X115143039Y-86376585D01*
X115188794Y-86429389D01*
X115200000Y-86480900D01*
X115200000Y-95370500D01*
X115180315Y-95437539D01*
X115127511Y-95483294D01*
X115076000Y-95494500D01*
X106124000Y-95494500D01*
X106056961Y-95474815D01*
X106011206Y-95422011D01*
X106000000Y-95370500D01*
X106000000Y-84974000D01*
X106019685Y-84906961D01*
X106072489Y-84861206D01*
X106124000Y-84850000D01*
X108284537Y-84850000D01*
X108329104Y-84859695D01*
G37*
G04 #@! TD.AperFunction*
G04 #@! TA.AperFunction,Conductor*
G36*
X123143039Y-88069685D02*
G01*
X123188794Y-88122489D01*
X123200000Y-88174000D01*
X123200000Y-112700000D01*
X133676000Y-112700000D01*
X133743039Y-112719685D01*
X133788794Y-112772489D01*
X133800000Y-112824000D01*
X133800000Y-124776000D01*
X133780315Y-124843039D01*
X133727511Y-124888794D01*
X133676000Y-124900000D01*
X106124000Y-124900000D01*
X106056961Y-124880315D01*
X106011206Y-124827511D01*
X106000000Y-124776000D01*
X106000000Y-114041101D01*
X106019685Y-113974062D01*
X106072489Y-113928307D01*
X106124000Y-113917101D01*
X107194750Y-113917101D01*
X107194751Y-113917100D01*
X107209568Y-113914153D01*
X107253229Y-113905469D01*
X107253229Y-113905468D01*
X107253231Y-113905468D01*
X107319552Y-113861153D01*
X107363867Y-113794832D01*
X107363867Y-113794830D01*
X107363868Y-113794830D01*
X107375499Y-113736353D01*
X107375500Y-113736351D01*
X107375500Y-108413650D01*
X107375499Y-108413648D01*
X107363868Y-108355171D01*
X107363867Y-108355170D01*
X107319552Y-108288848D01*
X107253230Y-108244533D01*
X107253229Y-108244532D01*
X107194752Y-108232901D01*
X107194748Y-108232901D01*
X106124000Y-108232901D01*
X106056961Y-108213216D01*
X106011206Y-108160412D01*
X106000000Y-108108901D01*
X106000000Y-95824000D01*
X106019685Y-95756961D01*
X106072489Y-95711206D01*
X106124000Y-95700000D01*
X115450000Y-95700000D01*
X115450000Y-88174000D01*
X115469685Y-88106961D01*
X115522489Y-88061206D01*
X115574000Y-88050000D01*
X123076000Y-88050000D01*
X123143039Y-88069685D01*
G37*
G04 #@! TD.AperFunction*
M02*
