G04 #@! TF.GenerationSoftware,KiCad,Pcbnew,8.0.1*
G04 #@! TF.CreationDate,2024-05-02T01:56:28+08:00*
G04 #@! TF.ProjectId,BatteryPod,42617474-6572-4795-906f-642e6b696361,rev?*
G04 #@! TF.SameCoordinates,Original*
G04 #@! TF.FileFunction,Legend,Bot*
G04 #@! TF.FilePolarity,Positive*
%FSLAX46Y46*%
G04 Gerber Fmt 4.6, Leading zero omitted, Abs format (unit mm)*
G04 Created by KiCad (PCBNEW 8.0.1) date 2024-05-02 01:56:28*
%MOMM*%
%LPD*%
G01*
G04 APERTURE LIST*
G04 Aperture macros list*
%AMRoundRect*
0 Rectangle with rounded corners*
0 $1 Rounding radius*
0 $2 $3 $4 $5 $6 $7 $8 $9 X,Y pos of 4 corners*
0 Add a 4 corners polygon primitive as box body*
4,1,4,$2,$3,$4,$5,$6,$7,$8,$9,$2,$3,0*
0 Add four circle primitives for the rounded corners*
1,1,$1+$1,$2,$3*
1,1,$1+$1,$4,$5*
1,1,$1+$1,$6,$7*
1,1,$1+$1,$8,$9*
0 Add four rect primitives between the rounded corners*
20,1,$1+$1,$2,$3,$4,$5,0*
20,1,$1+$1,$4,$5,$6,$7,0*
20,1,$1+$1,$6,$7,$8,$9,0*
20,1,$1+$1,$8,$9,$2,$3,0*%
G04 Aperture macros list end*
%ADD10C,0.150000*%
%ADD11C,0.400000*%
%ADD12C,0.200000*%
%ADD13C,0.300000*%
%ADD14C,0.120000*%
%ADD15C,0.100000*%
%ADD16C,2.000000*%
%ADD17RoundRect,0.250002X2.404160X0.000000X0.000000X2.404160X-2.404160X0.000000X0.000000X-2.404160X0*%
%ADD18C,3.900000*%
%ADD19C,2.500000*%
G04 APERTURE END LIST*
D10*
G36*
X141350096Y-128733915D02*
G01*
X141596000Y-128733915D01*
X141596000Y-128876650D01*
X141350096Y-128876650D01*
X141350096Y-129044006D01*
X141220549Y-129044006D01*
X141220549Y-128876650D01*
X140412496Y-128876650D01*
X140412496Y-128733915D01*
X140538819Y-128733915D01*
X141220549Y-128733915D01*
X141220549Y-128285192D01*
X141217032Y-128285192D01*
X140538819Y-128728932D01*
X140538819Y-128733915D01*
X140412496Y-128733915D01*
X140412496Y-128658297D01*
X141216446Y-128139232D01*
X141350096Y-128139232D01*
X141350096Y-128733915D01*
G37*
G36*
X141347802Y-129172358D02*
G01*
X141413023Y-129196074D01*
X141470915Y-129234065D01*
X141520492Y-129285073D01*
X141560767Y-129347842D01*
X141584277Y-129401880D01*
X141601585Y-129461295D01*
X141612274Y-129525558D01*
X141615930Y-129594138D01*
X141612274Y-129662718D01*
X141601585Y-129726981D01*
X141584277Y-129786397D01*
X141560767Y-129840435D01*
X141520492Y-129903203D01*
X141470915Y-129954211D01*
X141413023Y-129992202D01*
X141347802Y-130015919D01*
X141276237Y-130024103D01*
X141274478Y-130024103D01*
X141208098Y-130016793D01*
X141146732Y-129995678D01*
X141091791Y-129961977D01*
X141044682Y-129916913D01*
X141006815Y-129861706D01*
X140979597Y-129797576D01*
X140972008Y-129769700D01*
X140968491Y-129769700D01*
X140945520Y-129826815D01*
X140907716Y-129885058D01*
X140859947Y-129930778D01*
X140803488Y-129962607D01*
X140739614Y-129979177D01*
X140705295Y-129981312D01*
X140703536Y-129981312D01*
X140638856Y-129973860D01*
X140579568Y-129952305D01*
X140526668Y-129917850D01*
X140481153Y-129871696D01*
X140444019Y-129815046D01*
X140416261Y-129749101D01*
X140398876Y-129675065D01*
X140393243Y-129614950D01*
X140392859Y-129594138D01*
X140519768Y-129594138D01*
X140525551Y-129657539D01*
X140546687Y-129723203D01*
X140581504Y-129775541D01*
X140628089Y-129812480D01*
X140684528Y-129831943D01*
X140715846Y-129834473D01*
X140717605Y-129834473D01*
X140778363Y-129824525D01*
X140830134Y-129796065D01*
X140871040Y-129751167D01*
X140899202Y-129691907D01*
X140911581Y-129633049D01*
X140913683Y-129594138D01*
X141043229Y-129594138D01*
X141047462Y-129653276D01*
X141063975Y-129719592D01*
X141091773Y-129776027D01*
X141129587Y-129821053D01*
X141186402Y-129857870D01*
X141253624Y-129873411D01*
X141265685Y-129873747D01*
X141267151Y-129873747D01*
X141334998Y-129861933D01*
X141392988Y-129828322D01*
X141438931Y-129775662D01*
X141466432Y-129719208D01*
X141482777Y-129653024D01*
X141486969Y-129594138D01*
X141482777Y-129535253D01*
X141466432Y-129469068D01*
X141438931Y-129412615D01*
X141392988Y-129359954D01*
X141334998Y-129326343D01*
X141267151Y-129314529D01*
X141265685Y-129314529D01*
X141196942Y-129326268D01*
X141138241Y-129359722D01*
X141091773Y-129412250D01*
X141063975Y-129468685D01*
X141047462Y-129535000D01*
X141043229Y-129594138D01*
X140913683Y-129594138D01*
X140907918Y-129530737D01*
X140886831Y-129465074D01*
X140852063Y-129412735D01*
X140805490Y-129375797D01*
X140748990Y-129356333D01*
X140717605Y-129353803D01*
X140715846Y-129353803D01*
X140655196Y-129363751D01*
X140603445Y-129392211D01*
X140562505Y-129437109D01*
X140534290Y-129496369D01*
X140521876Y-129555227D01*
X140519768Y-129594138D01*
X140392859Y-129594138D01*
X140396267Y-129532844D01*
X140410903Y-129456973D01*
X140436161Y-129388893D01*
X140471045Y-129329806D01*
X140514558Y-129280915D01*
X140565705Y-129243423D01*
X140623489Y-129218530D01*
X140686915Y-129207440D01*
X140703536Y-129206964D01*
X140705295Y-129206964D01*
X140772398Y-129215392D01*
X140832724Y-129239762D01*
X140884998Y-129278707D01*
X140927943Y-129330860D01*
X140955686Y-129383422D01*
X140968491Y-129418576D01*
X140972008Y-129418576D01*
X140994571Y-129351220D01*
X141028347Y-129292297D01*
X141071928Y-129243029D01*
X141123906Y-129204637D01*
X141182871Y-129178341D01*
X141247414Y-129165362D01*
X141274478Y-129164173D01*
X141276237Y-129164173D01*
X141347802Y-129172358D01*
G37*
G36*
X141596000Y-130521479D02*
G01*
X141596000Y-130667732D01*
X140412496Y-131104145D01*
X140412496Y-130949100D01*
X141418972Y-130596218D01*
X141418972Y-130592994D01*
X140412496Y-130240112D01*
X140412496Y-130085066D01*
X141596000Y-130521479D01*
G37*
D11*
X138092533Y-134861904D02*
X138092533Y-133338095D01*
D12*
X142000000Y-135841778D02*
G75*
G02*
X140999999Y-136841779I-999992J-9D01*
G01*
X140992893Y-122346089D02*
G75*
G02*
X141992893Y-123346090I-1J-1000001D01*
G01*
D11*
X138038227Y-124338095D02*
X138038227Y-125861905D01*
X137276322Y-125100000D02*
X138800132Y-125100000D01*
D12*
X139610050Y-136841778D02*
G75*
G02*
X138110050Y-135341779I-1J1499999D01*
G01*
X138039340Y-123846089D02*
G75*
G02*
X139539339Y-122346090I1499984J15D01*
G01*
X142000000Y-135841778D02*
X142000000Y-135639697D01*
X140999999Y-136841778D02*
X139610050Y-136841778D01*
X141992893Y-123346090D02*
X141992893Y-123477460D01*
X140992893Y-122346089D02*
X139539339Y-122346089D01*
D13*
G36*
X138052674Y-126531326D02*
G01*
X138129026Y-126540145D01*
X138201200Y-126554662D01*
X138269036Y-126574729D01*
X138362301Y-126614911D01*
X138444897Y-126666746D01*
X138516280Y-126729734D01*
X138575904Y-126803374D01*
X138623226Y-126887167D01*
X138657702Y-126980611D01*
X138673280Y-127048022D01*
X138682744Y-127119351D01*
X138685935Y-127194452D01*
X138682744Y-127269609D01*
X138673280Y-127340981D01*
X138657702Y-127408420D01*
X138623226Y-127501887D01*
X138575904Y-127585680D01*
X138516280Y-127659306D01*
X138444897Y-127722269D01*
X138362301Y-127774073D01*
X138269036Y-127814224D01*
X138201200Y-127834272D01*
X138129026Y-127848774D01*
X138052674Y-127857582D01*
X137972307Y-127860551D01*
X137970255Y-127860551D01*
X137890008Y-127857571D01*
X137813761Y-127848732D01*
X137741678Y-127834184D01*
X137673921Y-127814079D01*
X137580751Y-127773834D01*
X137498226Y-127721937D01*
X137426895Y-127658899D01*
X137367305Y-127585229D01*
X137320004Y-127501439D01*
X137285539Y-127408039D01*
X137269964Y-127340686D01*
X137260501Y-127269440D01*
X137257310Y-127194452D01*
X137502139Y-127194452D01*
X137510430Y-127275596D01*
X137534746Y-127348261D01*
X137574249Y-127411726D01*
X137628101Y-127465269D01*
X137695465Y-127508169D01*
X137775504Y-127539705D01*
X137843347Y-127555465D01*
X137917495Y-127564123D01*
X137970255Y-127565799D01*
X137972307Y-127565799D01*
X138049925Y-127562110D01*
X138121721Y-127551220D01*
X138207707Y-127525953D01*
X138281699Y-127488978D01*
X138342760Y-127440918D01*
X138389953Y-127382400D01*
X138422339Y-127314049D01*
X138438982Y-127236490D01*
X138441106Y-127194452D01*
X138432814Y-127113406D01*
X138408488Y-127040787D01*
X138368960Y-126977329D01*
X138315059Y-126923764D01*
X138247613Y-126880826D01*
X138167453Y-126849248D01*
X138099488Y-126833460D01*
X138025187Y-126824785D01*
X137972307Y-126823105D01*
X137970255Y-126823105D01*
X137891942Y-126826892D01*
X137819761Y-126838036D01*
X137733650Y-126863777D01*
X137659863Y-126901252D01*
X137599213Y-126949690D01*
X137552514Y-127008322D01*
X137520579Y-127076379D01*
X137504222Y-127153091D01*
X137502139Y-127194452D01*
X137257310Y-127194452D01*
X137260489Y-127119633D01*
X137269922Y-127048512D01*
X137285451Y-126981246D01*
X137319829Y-126887912D01*
X137367035Y-126804126D01*
X137426536Y-126730412D01*
X137497800Y-126667298D01*
X137580295Y-126615308D01*
X137673488Y-126574969D01*
X137741297Y-126554808D01*
X137813467Y-126540215D01*
X137889838Y-126531344D01*
X137970255Y-126528353D01*
X137972307Y-126528353D01*
X138052674Y-126531326D01*
G37*
G36*
X138683200Y-128371409D02*
G01*
X138677972Y-128440375D01*
X138658520Y-128513448D01*
X138625737Y-128575839D01*
X138580734Y-128627426D01*
X138524618Y-128668088D01*
X138492739Y-128684285D01*
X138492739Y-128690098D01*
X138662000Y-128690098D01*
X138662000Y-128969463D01*
X137636180Y-128969463D01*
X137636180Y-128690098D01*
X138225684Y-128690098D01*
X138296317Y-128681949D01*
X138364875Y-128653044D01*
X138415534Y-128605230D01*
X138445160Y-128540592D01*
X138451706Y-128485275D01*
X138440786Y-128411908D01*
X138402724Y-128350086D01*
X138339282Y-128311789D01*
X138264512Y-128297604D01*
X138240046Y-128296867D01*
X137636180Y-128296867D01*
X137636180Y-128017160D01*
X138298517Y-128017160D01*
X138383965Y-128023111D01*
X138459892Y-128040727D01*
X138525720Y-128069651D01*
X138592927Y-128121164D01*
X138642327Y-128189093D01*
X138668269Y-128254787D01*
X138681517Y-128330184D01*
X138683200Y-128371409D01*
G37*
G36*
X138683200Y-129558283D02*
G01*
X138680435Y-129627060D01*
X138672600Y-129693008D01*
X138467778Y-129693008D01*
X138472565Y-129632826D01*
X138459799Y-129560709D01*
X138404764Y-129513671D01*
X138344337Y-129505624D01*
X137846815Y-129505624D01*
X137846815Y-129693008D01*
X137636180Y-129693008D01*
X137636180Y-129505624D01*
X137385538Y-129505624D01*
X137385538Y-129223182D01*
X137636180Y-129223182D01*
X137636180Y-129080593D01*
X137846815Y-129080593D01*
X137846815Y-129223182D01*
X138375112Y-129223182D01*
X138451574Y-129228240D01*
X138530500Y-129248950D01*
X138591872Y-129285923D01*
X138636709Y-129339457D01*
X138666028Y-129409849D01*
X138678994Y-129478500D01*
X138683200Y-129558283D01*
G37*
G36*
X138997101Y-130126245D02*
G01*
X138486926Y-130126245D01*
X138486926Y-130131717D01*
X138550243Y-130169190D01*
X138602523Y-130218150D01*
X138642687Y-130277460D01*
X138669650Y-130345985D01*
X138682333Y-130422588D01*
X138683200Y-130449721D01*
X138677955Y-130519220D01*
X138655060Y-130603343D01*
X138614731Y-130677050D01*
X138557779Y-130739627D01*
X138485013Y-130790361D01*
X138420547Y-130820211D01*
X138347983Y-130842697D01*
X138267661Y-130857518D01*
X138179924Y-130864373D01*
X138149090Y-130864836D01*
X138148406Y-130864836D01*
X138058061Y-130860699D01*
X137975155Y-130848476D01*
X137900004Y-130828448D01*
X137832924Y-130800894D01*
X137756585Y-130752936D01*
X137695906Y-130692764D01*
X137651636Y-130621043D01*
X137624525Y-130538439D01*
X137615902Y-130469745D01*
X137615321Y-130445617D01*
X137623116Y-130367555D01*
X137627508Y-130353978D01*
X137846815Y-130353978D01*
X137858560Y-130426451D01*
X137892742Y-130486717D01*
X137947778Y-130533315D01*
X138022086Y-130564784D01*
X138097588Y-130578397D01*
X138148406Y-130580684D01*
X138149090Y-130580684D01*
X138231248Y-130574388D01*
X138302006Y-130556065D01*
X138370410Y-130519391D01*
X138419124Y-130468075D01*
X138446361Y-130403578D01*
X138451706Y-130353978D01*
X138439697Y-130282330D01*
X138404967Y-130221791D01*
X138349465Y-130174307D01*
X138275137Y-130141825D01*
X138200222Y-130127622D01*
X138150115Y-130125220D01*
X138149090Y-130125220D01*
X138067295Y-130131819D01*
X137996707Y-130150865D01*
X137928325Y-130188564D01*
X137879525Y-130240616D01*
X137852187Y-130305075D01*
X137846815Y-130353978D01*
X137627508Y-130353978D01*
X137645795Y-130297455D01*
X137682306Y-130236207D01*
X137731591Y-130184707D01*
X137792598Y-130143845D01*
X137815356Y-130132742D01*
X137815356Y-130126245D01*
X137636180Y-130126245D01*
X137636180Y-129846539D01*
X138997101Y-129846539D01*
X138997101Y-130126245D01*
G37*
G36*
X138683200Y-131358597D02*
G01*
X138677972Y-131427563D01*
X138658520Y-131500635D01*
X138625737Y-131563026D01*
X138580734Y-131614614D01*
X138524618Y-131655276D01*
X138492739Y-131671472D01*
X138492739Y-131677285D01*
X138662000Y-131677285D01*
X138662000Y-131956650D01*
X137636180Y-131956650D01*
X137636180Y-131677285D01*
X138225684Y-131677285D01*
X138296317Y-131669137D01*
X138364875Y-131640231D01*
X138415534Y-131592418D01*
X138445160Y-131527780D01*
X138451706Y-131472463D01*
X138440786Y-131399096D01*
X138402724Y-131337274D01*
X138339282Y-131298977D01*
X138264512Y-131284792D01*
X138240046Y-131284054D01*
X137636180Y-131284054D01*
X137636180Y-131004347D01*
X138298517Y-131004347D01*
X138383965Y-131010299D01*
X138459892Y-131027915D01*
X138525720Y-131056839D01*
X138592927Y-131108352D01*
X138642327Y-131176281D01*
X138668269Y-131241975D01*
X138681517Y-131317371D01*
X138683200Y-131358597D01*
G37*
G36*
X138683200Y-132545471D02*
G01*
X138680435Y-132614248D01*
X138672600Y-132680195D01*
X138467778Y-132680195D01*
X138472565Y-132620014D01*
X138459799Y-132547897D01*
X138404764Y-132500858D01*
X138344337Y-132492812D01*
X137846815Y-132492812D01*
X137846815Y-132680195D01*
X137636180Y-132680195D01*
X137636180Y-132492812D01*
X137385538Y-132492812D01*
X137385538Y-132210370D01*
X137636180Y-132210370D01*
X137636180Y-132067781D01*
X137846815Y-132067781D01*
X137846815Y-132210370D01*
X138375112Y-132210370D01*
X138451574Y-132215428D01*
X138530500Y-132236138D01*
X138591872Y-132273111D01*
X138636709Y-132326645D01*
X138666028Y-132397037D01*
X138678994Y-132465688D01*
X138683200Y-132545471D01*
G37*
D12*
X90807107Y-74807107D02*
X90950000Y-74950000D01*
X92089340Y-72110660D02*
G75*
G02*
X94210660Y-72110660I1060660J-1060659D01*
G01*
X102389340Y-80189340D02*
G75*
G02*
X102389340Y-82310660I-1060640J-1060660D01*
G01*
X90807107Y-74807107D02*
G75*
G02*
X90807107Y-73392893I707093J707107D01*
G01*
X101107107Y-83592893D02*
G75*
G02*
X99692893Y-83592893I-707107J707108D01*
G01*
X99692893Y-83592893D02*
X99600000Y-83500000D01*
X94210660Y-72110660D02*
X94400000Y-72300000D01*
X90807107Y-73392893D02*
X92089340Y-72110660D01*
X102389340Y-80189340D02*
X102100000Y-79900000D01*
X101107107Y-83592893D02*
X102389340Y-82310660D01*
D13*
G36*
X99325648Y-78089065D02*
G01*
X99121095Y-77884512D01*
X100097435Y-76908172D01*
X100301988Y-77112725D01*
X99325648Y-78089065D01*
G37*
G36*
X98976022Y-77739439D02*
G01*
X98778239Y-77541657D01*
X99195082Y-77124814D01*
X99239153Y-77069220D01*
X99267113Y-77000381D01*
X99269087Y-76930789D01*
X99244318Y-76864146D01*
X99209831Y-76820403D01*
X99150416Y-76776254D01*
X99080027Y-76759212D01*
X99008289Y-76776682D01*
X98945481Y-76819351D01*
X98927665Y-76836119D01*
X98500183Y-77263600D01*
X98302642Y-77066060D01*
X98770744Y-76597958D01*
X98835442Y-76541675D01*
X98901616Y-76500408D01*
X98968611Y-76474299D01*
X99052514Y-76463200D01*
X99135400Y-76476295D01*
X99200117Y-76504381D01*
X99262710Y-76548276D01*
X99293006Y-76576197D01*
X99338235Y-76628693D01*
X99376419Y-76694003D01*
X99397637Y-76761106D01*
X99401777Y-76840626D01*
X99388367Y-76908957D01*
X99380534Y-76931625D01*
X99384402Y-76935494D01*
X99503604Y-76816292D01*
X99701386Y-77014075D01*
X98976022Y-77739439D01*
G37*
G36*
X98344899Y-75679446D02*
G01*
X98422479Y-75718685D01*
X98477151Y-75761163D01*
X98494622Y-75777813D01*
X98544309Y-75838522D01*
X98577841Y-75904128D01*
X98595332Y-75973253D01*
X98596898Y-76044520D01*
X98582654Y-76116552D01*
X98574412Y-76140495D01*
X98579006Y-76145089D01*
X98705703Y-76018392D01*
X98903486Y-76216174D01*
X97941169Y-77178491D01*
X97743386Y-76980708D01*
X98104134Y-76619960D01*
X98100266Y-76616092D01*
X98028997Y-76634366D01*
X97957409Y-76636714D01*
X97887070Y-76623175D01*
X97819550Y-76593787D01*
X97756415Y-76548588D01*
X97736616Y-76530015D01*
X97691181Y-76477164D01*
X97647887Y-76401490D01*
X97624285Y-76320854D01*
X97621402Y-76259575D01*
X97908528Y-76259575D01*
X97910368Y-76330307D01*
X97936715Y-76395173D01*
X97968008Y-76434025D01*
X98027162Y-76476196D01*
X98094527Y-76494446D01*
X98167350Y-76488776D01*
X98242875Y-76459187D01*
X98305891Y-76416256D01*
X98343021Y-76382525D01*
X98343746Y-76381799D01*
X98396917Y-76319296D01*
X98433363Y-76255914D01*
X98455059Y-76180904D01*
X98452760Y-76109590D01*
X98426511Y-76044681D01*
X98395731Y-76006302D01*
X98336179Y-75963361D01*
X98269394Y-75944917D01*
X98197528Y-75950884D01*
X98122733Y-75981175D01*
X98059718Y-76024938D01*
X98022168Y-76059254D01*
X98021685Y-76059738D01*
X97968041Y-76122284D01*
X97930964Y-76185274D01*
X97908528Y-76259575D01*
X97621402Y-76259575D01*
X97620308Y-76236334D01*
X97635887Y-76149007D01*
X97660364Y-76082316D01*
X97695775Y-76015105D01*
X97742091Y-75947829D01*
X97799283Y-75880942D01*
X97820759Y-75858812D01*
X97821242Y-75858328D01*
X97888051Y-75797370D01*
X97955317Y-75747389D01*
X98022619Y-75708412D01*
X98089535Y-75680462D01*
X98177426Y-75660394D01*
X98262881Y-75660036D01*
X98344899Y-75679446D01*
G37*
G36*
X97093944Y-75887343D02*
G01*
X97048874Y-75834880D01*
X97010959Y-75769455D01*
X96990023Y-75702157D01*
X96985367Y-75633857D01*
X96996295Y-75565424D01*
X97007384Y-75531431D01*
X97003273Y-75527320D01*
X96883588Y-75647005D01*
X96686047Y-75449464D01*
X97411411Y-74724100D01*
X97608952Y-74921641D01*
X97192110Y-75338484D01*
X97147926Y-75394190D01*
X97119888Y-75463107D01*
X97117876Y-75532738D01*
X97142633Y-75599393D01*
X97177119Y-75643137D01*
X97236720Y-75687293D01*
X97307348Y-75704095D01*
X97379288Y-75686314D01*
X97442189Y-75643474D01*
X97460011Y-75626695D01*
X97887009Y-75199697D01*
X98084791Y-75397480D01*
X97616448Y-75865823D01*
X97551819Y-75922036D01*
X97485674Y-75963268D01*
X97418674Y-75989363D01*
X97334726Y-76000460D01*
X97251762Y-75987359D01*
X97186966Y-75959250D01*
X97124285Y-75915304D01*
X97093944Y-75887343D01*
G37*
G36*
X96254697Y-75048096D02*
G01*
X96208020Y-74997508D01*
X96166928Y-74945336D01*
X96311759Y-74800505D01*
X96350929Y-74846445D01*
X96410950Y-74888413D01*
X96483127Y-74882758D01*
X96531545Y-74845720D01*
X96883346Y-74493918D01*
X96750846Y-74361418D01*
X96899788Y-74212477D01*
X97032288Y-74344976D01*
X97209518Y-74167746D01*
X97409235Y-74367463D01*
X97232005Y-74544693D01*
X97332830Y-74645519D01*
X97183889Y-74794460D01*
X97083063Y-74693635D01*
X96709501Y-75067197D01*
X96651857Y-75117688D01*
X96581404Y-75158852D01*
X96511863Y-75176105D01*
X96442304Y-75169956D01*
X96371798Y-75140913D01*
X96314086Y-75101537D01*
X96254697Y-75048096D01*
G37*
D10*
G36*
X94789676Y-84101177D02*
G01*
X94237570Y-83549071D01*
X94330210Y-83456431D01*
X94739108Y-83865330D01*
X94741595Y-83862843D01*
X94746776Y-83459747D01*
X94748360Y-83377429D01*
X94751384Y-83304746D01*
X94756053Y-83240809D01*
X94765192Y-83167628D01*
X94778104Y-83106306D01*
X94800292Y-83043118D01*
X94830084Y-82991049D01*
X94868430Y-82945982D01*
X94869673Y-82944739D01*
X94922381Y-82902133D01*
X94981010Y-82872720D01*
X95043904Y-82856520D01*
X95109406Y-82853550D01*
X95175861Y-82863831D01*
X95241610Y-82887383D01*
X95305000Y-82924225D01*
X95364372Y-82974375D01*
X95404603Y-83020142D01*
X95437431Y-83069123D01*
X95469473Y-83138032D01*
X95487839Y-83209301D01*
X95492238Y-83281012D01*
X95482373Y-83351251D01*
X95457953Y-83418101D01*
X95418682Y-83479645D01*
X95393386Y-83507829D01*
X95389863Y-83511352D01*
X95288934Y-83410423D01*
X95291835Y-83407521D01*
X95332312Y-83351323D01*
X95352477Y-83286682D01*
X95352216Y-83217747D01*
X95336312Y-83160011D01*
X95306076Y-83104574D01*
X95271525Y-83063491D01*
X95217152Y-83021601D01*
X95158373Y-82998274D01*
X95098174Y-82993493D01*
X95039538Y-83007243D01*
X94985449Y-83039507D01*
X94968945Y-83054372D01*
X94967701Y-83055616D01*
X94928860Y-83103179D01*
X94902239Y-83161104D01*
X94887450Y-83226538D01*
X94879711Y-83296980D01*
X94875933Y-83366359D01*
X94874233Y-83427210D01*
X94861591Y-84029262D01*
X94789676Y-84101177D01*
G37*
G36*
X94495133Y-82180893D02*
G01*
X94559345Y-82203452D01*
X94619909Y-82238547D01*
X94676312Y-82286315D01*
X94724055Y-82342692D01*
X94759080Y-82403187D01*
X94781535Y-82467295D01*
X94791566Y-82534510D01*
X94789320Y-82604328D01*
X94774943Y-82676243D01*
X94748581Y-82749750D01*
X94710382Y-82824344D01*
X94678411Y-82874429D01*
X94641288Y-82924622D01*
X94599055Y-82974774D01*
X94551757Y-83024736D01*
X94550513Y-83025980D01*
X94500578Y-83073251D01*
X94450432Y-83115478D01*
X94400225Y-83152614D01*
X94350112Y-83184614D01*
X94275449Y-83222882D01*
X94201853Y-83249332D01*
X94129838Y-83263810D01*
X94059917Y-83266159D01*
X93992605Y-83256224D01*
X93928418Y-83233849D01*
X93867868Y-83198879D01*
X93811471Y-83151157D01*
X93763723Y-83094734D01*
X93728682Y-83034114D01*
X93706203Y-82969822D01*
X93696140Y-82902383D01*
X93696620Y-82887154D01*
X93834874Y-82887154D01*
X93840845Y-82950661D01*
X93863326Y-83008558D01*
X93902659Y-83059968D01*
X93954025Y-83099257D01*
X94011804Y-83121621D01*
X94075145Y-83127426D01*
X94143195Y-83117039D01*
X94215102Y-83090826D01*
X94271051Y-83061002D01*
X94328329Y-83022638D01*
X94386579Y-82975887D01*
X94445439Y-82920905D01*
X94446683Y-82919662D01*
X94501639Y-82860827D01*
X94548319Y-82802648D01*
X94586580Y-82745473D01*
X94616276Y-82689653D01*
X94642298Y-82617936D01*
X94652495Y-82550076D01*
X94646524Y-82486901D01*
X94624043Y-82429239D01*
X94584709Y-82377918D01*
X94533344Y-82338540D01*
X94475564Y-82315942D01*
X94412223Y-82309805D01*
X94344173Y-82319812D01*
X94272266Y-82345643D01*
X94216318Y-82375211D01*
X94159039Y-82413367D01*
X94100790Y-82459978D01*
X94041929Y-82514909D01*
X94040686Y-82516152D01*
X93985730Y-82575038D01*
X93939049Y-82633357D01*
X93900788Y-82690740D01*
X93871093Y-82746817D01*
X93845071Y-82818914D01*
X93834874Y-82887154D01*
X93696620Y-82887154D01*
X93698348Y-82832320D01*
X93712680Y-82760159D01*
X93738993Y-82686425D01*
X93777139Y-82611641D01*
X93809072Y-82561461D01*
X93846158Y-82511204D01*
X93888352Y-82461024D01*
X93935612Y-82411078D01*
X93936855Y-82409834D01*
X93986829Y-82362548D01*
X94037014Y-82320348D01*
X94087258Y-82283276D01*
X94137409Y-82251371D01*
X94212124Y-82213293D01*
X94285770Y-82187070D01*
X94357830Y-82172838D01*
X94427789Y-82170733D01*
X94495133Y-82180893D01*
G37*
G36*
X93687952Y-82415016D02*
G01*
X93316772Y-82043836D01*
X93410862Y-81949746D01*
X93782042Y-82320926D01*
X93687952Y-82415016D01*
G37*
G36*
X92592030Y-81931716D02*
G01*
X92548791Y-81883134D01*
X92513420Y-81832177D01*
X92485973Y-81779564D01*
X92461794Y-81708078D01*
X92451926Y-81636627D01*
X92456497Y-81566913D01*
X92475636Y-81500638D01*
X92509472Y-81439506D01*
X92544570Y-81398055D01*
X92545814Y-81396811D01*
X92592100Y-81358125D01*
X92654063Y-81325952D01*
X92719158Y-81311313D01*
X92785852Y-81313730D01*
X92852614Y-81332724D01*
X92905042Y-81359532D01*
X92955748Y-81396397D01*
X92958235Y-81393910D01*
X92925529Y-81333596D01*
X92905133Y-81272055D01*
X92897642Y-81210611D01*
X92903649Y-81150587D01*
X92923745Y-81093307D01*
X92958524Y-81040094D01*
X92976680Y-81020244D01*
X92977716Y-81019208D01*
X93028288Y-80978288D01*
X93083930Y-80950810D01*
X93143459Y-80936766D01*
X93205688Y-80936153D01*
X93269433Y-80948966D01*
X93333507Y-80975200D01*
X93396727Y-81014850D01*
X93442869Y-81053388D01*
X93457907Y-81067911D01*
X93498290Y-81113016D01*
X93540671Y-81175841D01*
X93569948Y-81240752D01*
X93586117Y-81306674D01*
X93589172Y-81372534D01*
X93579108Y-81437259D01*
X93555921Y-81499775D01*
X93519606Y-81559009D01*
X93508476Y-81573179D01*
X93503295Y-81579603D01*
X93402987Y-81479296D01*
X93408168Y-81472871D01*
X93441117Y-81417583D01*
X93454751Y-81358266D01*
X93449604Y-81297008D01*
X93426208Y-81235900D01*
X93393156Y-81186600D01*
X93367548Y-81158270D01*
X93319412Y-81117438D01*
X93261343Y-81086806D01*
X93194497Y-81076352D01*
X93130211Y-81093075D01*
X93078407Y-81129001D01*
X93070148Y-81136924D01*
X93068905Y-81138167D01*
X93031586Y-81189653D01*
X93013589Y-81248062D01*
X93014915Y-81310264D01*
X93035564Y-81373127D01*
X93067532Y-81423759D01*
X93093153Y-81452561D01*
X93193460Y-81552868D01*
X93105380Y-81640948D01*
X93000513Y-81536081D01*
X92955966Y-81496869D01*
X92899226Y-81461505D01*
X92842206Y-81441690D01*
X92774764Y-81439011D01*
X92709956Y-81460016D01*
X92659155Y-81496120D01*
X92649437Y-81505409D01*
X92648401Y-81506445D01*
X92609224Y-81560877D01*
X92591333Y-81622420D01*
X92594508Y-81688133D01*
X92613087Y-81743956D01*
X92646012Y-81798928D01*
X92682597Y-81841149D01*
X92736061Y-81886532D01*
X92791174Y-81918351D01*
X92857487Y-81938633D01*
X92921680Y-81939395D01*
X92981302Y-81920647D01*
X93017300Y-81897313D01*
X93023725Y-81892132D01*
X93124033Y-81992439D01*
X93116364Y-81998864D01*
X93059808Y-82037877D01*
X92998328Y-82063826D01*
X92933103Y-82076471D01*
X92865311Y-82075571D01*
X92796130Y-82060886D01*
X92726737Y-82032175D01*
X92675263Y-82001294D01*
X92624829Y-81962286D01*
X92592030Y-81931716D01*
G37*
G36*
X92184997Y-81496497D02*
G01*
X91632891Y-80944391D01*
X91725530Y-80851752D01*
X92134429Y-81260650D01*
X92136916Y-81258163D01*
X92142097Y-80855068D01*
X92143681Y-80772750D01*
X92146705Y-80700067D01*
X92151374Y-80636130D01*
X92160512Y-80562948D01*
X92173424Y-80501626D01*
X92195612Y-80438439D01*
X92225405Y-80386370D01*
X92263751Y-80341303D01*
X92264994Y-80340059D01*
X92317702Y-80297454D01*
X92376331Y-80268041D01*
X92439225Y-80251840D01*
X92504727Y-80248871D01*
X92571181Y-80259152D01*
X92636931Y-80282704D01*
X92700320Y-80319545D01*
X92759693Y-80369696D01*
X92799924Y-80415463D01*
X92832752Y-80464444D01*
X92864793Y-80533353D01*
X92883160Y-80604621D01*
X92887558Y-80676333D01*
X92877694Y-80746572D01*
X92853274Y-80813421D01*
X92814003Y-80874966D01*
X92788707Y-80903149D01*
X92785184Y-80906672D01*
X92684255Y-80805743D01*
X92687156Y-80802842D01*
X92727633Y-80746644D01*
X92747798Y-80682003D01*
X92747536Y-80613067D01*
X92731632Y-80555332D01*
X92701397Y-80499895D01*
X92666846Y-80458812D01*
X92612472Y-80416922D01*
X92553694Y-80393595D01*
X92493495Y-80388814D01*
X92434859Y-80402564D01*
X92380769Y-80434827D01*
X92364265Y-80449693D01*
X92363022Y-80450936D01*
X92324180Y-80498500D01*
X92297559Y-80556425D01*
X92282770Y-80621859D01*
X92275031Y-80692301D01*
X92271253Y-80761680D01*
X92269554Y-80822530D01*
X92256911Y-81424583D01*
X92184997Y-81496497D01*
G37*
G36*
X91257567Y-80569067D02*
G01*
X91154151Y-80465651D01*
X91682423Y-79320197D01*
X91792057Y-79429831D01*
X91329896Y-80391042D01*
X91332176Y-80393322D01*
X92293387Y-79931161D01*
X92403021Y-80040795D01*
X91257567Y-80569067D01*
G37*
D11*
X94810465Y-72762038D02*
X95887961Y-73839534D01*
X101639534Y-79437961D02*
X100562038Y-78360465D01*
X101639534Y-78360465D02*
X100562038Y-79437961D01*
D10*
X129961904Y-134454819D02*
X129390476Y-134454819D01*
X129676190Y-135454819D02*
X129676190Y-134454819D01*
X129057142Y-135454819D02*
X129057142Y-134454819D01*
X129057142Y-134454819D02*
X128676190Y-134454819D01*
X128676190Y-134454819D02*
X128580952Y-134502438D01*
X128580952Y-134502438D02*
X128533333Y-134550057D01*
X128533333Y-134550057D02*
X128485714Y-134645295D01*
X128485714Y-134645295D02*
X128485714Y-134788152D01*
X128485714Y-134788152D02*
X128533333Y-134883390D01*
X128533333Y-134883390D02*
X128580952Y-134931009D01*
X128580952Y-134931009D02*
X128676190Y-134978628D01*
X128676190Y-134978628D02*
X129057142Y-134978628D01*
X128104761Y-134550057D02*
X128057142Y-134502438D01*
X128057142Y-134502438D02*
X127961904Y-134454819D01*
X127961904Y-134454819D02*
X127723809Y-134454819D01*
X127723809Y-134454819D02*
X127628571Y-134502438D01*
X127628571Y-134502438D02*
X127580952Y-134550057D01*
X127580952Y-134550057D02*
X127533333Y-134645295D01*
X127533333Y-134645295D02*
X127533333Y-134740533D01*
X127533333Y-134740533D02*
X127580952Y-134883390D01*
X127580952Y-134883390D02*
X128152380Y-135454819D01*
X128152380Y-135454819D02*
X127533333Y-135454819D01*
X129461904Y-129202438D02*
X129557142Y-129154819D01*
X129557142Y-129154819D02*
X129699999Y-129154819D01*
X129699999Y-129154819D02*
X129842856Y-129202438D01*
X129842856Y-129202438D02*
X129938094Y-129297676D01*
X129938094Y-129297676D02*
X129985713Y-129392914D01*
X129985713Y-129392914D02*
X130033332Y-129583390D01*
X130033332Y-129583390D02*
X130033332Y-129726247D01*
X130033332Y-129726247D02*
X129985713Y-129916723D01*
X129985713Y-129916723D02*
X129938094Y-130011961D01*
X129938094Y-130011961D02*
X129842856Y-130107200D01*
X129842856Y-130107200D02*
X129699999Y-130154819D01*
X129699999Y-130154819D02*
X129604761Y-130154819D01*
X129604761Y-130154819D02*
X129461904Y-130107200D01*
X129461904Y-130107200D02*
X129414285Y-130059580D01*
X129414285Y-130059580D02*
X129414285Y-129726247D01*
X129414285Y-129726247D02*
X129604761Y-129726247D01*
X128985713Y-130154819D02*
X128985713Y-129154819D01*
X128985713Y-129154819D02*
X128414285Y-130154819D01*
X128414285Y-130154819D02*
X128414285Y-129154819D01*
X127938094Y-130154819D02*
X127938094Y-129154819D01*
X127938094Y-129154819D02*
X127699999Y-129154819D01*
X127699999Y-129154819D02*
X127557142Y-129202438D01*
X127557142Y-129202438D02*
X127461904Y-129297676D01*
X127461904Y-129297676D02*
X127414285Y-129392914D01*
X127414285Y-129392914D02*
X127366666Y-129583390D01*
X127366666Y-129583390D02*
X127366666Y-129726247D01*
X127366666Y-129726247D02*
X127414285Y-129916723D01*
X127414285Y-129916723D02*
X127461904Y-130011961D01*
X127461904Y-130011961D02*
X127557142Y-130107200D01*
X127557142Y-130107200D02*
X127699999Y-130154819D01*
X127699999Y-130154819D02*
X127938094Y-130154819D01*
X129961904Y-120754819D02*
X129390476Y-120754819D01*
X129676190Y-121754819D02*
X129676190Y-120754819D01*
X129057142Y-121754819D02*
X129057142Y-120754819D01*
X129057142Y-120754819D02*
X128676190Y-120754819D01*
X128676190Y-120754819D02*
X128580952Y-120802438D01*
X128580952Y-120802438D02*
X128533333Y-120850057D01*
X128533333Y-120850057D02*
X128485714Y-120945295D01*
X128485714Y-120945295D02*
X128485714Y-121088152D01*
X128485714Y-121088152D02*
X128533333Y-121183390D01*
X128533333Y-121183390D02*
X128580952Y-121231009D01*
X128580952Y-121231009D02*
X128676190Y-121278628D01*
X128676190Y-121278628D02*
X129057142Y-121278628D01*
X127533333Y-121754819D02*
X128104761Y-121754819D01*
X127819047Y-121754819D02*
X127819047Y-120754819D01*
X127819047Y-120754819D02*
X127914285Y-120897676D01*
X127914285Y-120897676D02*
X128009523Y-120992914D01*
X128009523Y-120992914D02*
X128104761Y-121040533D01*
X130461904Y-115454819D02*
X130128571Y-116454819D01*
X130128571Y-116454819D02*
X129795238Y-115454819D01*
X129271428Y-115454819D02*
X129080952Y-115454819D01*
X129080952Y-115454819D02*
X128985714Y-115502438D01*
X128985714Y-115502438D02*
X128890476Y-115597676D01*
X128890476Y-115597676D02*
X128842857Y-115788152D01*
X128842857Y-115788152D02*
X128842857Y-116121485D01*
X128842857Y-116121485D02*
X128890476Y-116311961D01*
X128890476Y-116311961D02*
X128985714Y-116407200D01*
X128985714Y-116407200D02*
X129080952Y-116454819D01*
X129080952Y-116454819D02*
X129271428Y-116454819D01*
X129271428Y-116454819D02*
X129366666Y-116407200D01*
X129366666Y-116407200D02*
X129461904Y-116311961D01*
X129461904Y-116311961D02*
X129509523Y-116121485D01*
X129509523Y-116121485D02*
X129509523Y-115788152D01*
X129509523Y-115788152D02*
X129461904Y-115597676D01*
X129461904Y-115597676D02*
X129366666Y-115502438D01*
X129366666Y-115502438D02*
X129271428Y-115454819D01*
X128414285Y-115454819D02*
X128414285Y-116264342D01*
X128414285Y-116264342D02*
X128366666Y-116359580D01*
X128366666Y-116359580D02*
X128319047Y-116407200D01*
X128319047Y-116407200D02*
X128223809Y-116454819D01*
X128223809Y-116454819D02*
X128033333Y-116454819D01*
X128033333Y-116454819D02*
X127938095Y-116407200D01*
X127938095Y-116407200D02*
X127890476Y-116359580D01*
X127890476Y-116359580D02*
X127842857Y-116264342D01*
X127842857Y-116264342D02*
X127842857Y-115454819D01*
X127509523Y-115454819D02*
X126938095Y-115454819D01*
X127223809Y-116454819D02*
X127223809Y-115454819D01*
D14*
X130200000Y-132500000D02*
G75*
G02*
X127200000Y-132500000I-1500000J0D01*
G01*
X127200000Y-132500000D02*
G75*
G02*
X130200000Y-132500000I1500000J0D01*
G01*
X130200000Y-118800000D02*
G75*
G02*
X127200000Y-118800000I-1500000J0D01*
G01*
X127200000Y-118800000D02*
G75*
G02*
X130200000Y-118800000I1500000J0D01*
G01*
%LPC*%
D15*
X140000000Y-131800000D02*
X144500000Y-131800000D01*
X144500000Y-134800000D01*
X140000000Y-134800000D01*
X140000000Y-131800000D01*
G36*
X140000000Y-131800000D02*
G01*
X144500000Y-131800000D01*
X144500000Y-134800000D01*
X140000000Y-134800000D01*
X140000000Y-131800000D01*
G37*
X140000000Y-124400000D02*
X144500000Y-124400000D01*
X144500000Y-127400000D01*
X140000000Y-127400000D01*
X140000000Y-124400000D01*
G36*
X140000000Y-124400000D02*
G01*
X144500000Y-124400000D01*
X144500000Y-127400000D01*
X140000000Y-127400000D01*
X140000000Y-124400000D01*
G37*
D16*
X128700000Y-132500000D03*
X128700000Y-118800000D03*
D17*
X98000000Y-82000000D03*
D18*
X92484567Y-76484567D03*
D19*
X142700000Y-144600000D03*
X98400000Y-150100000D03*
X136050000Y-101300000D03*
X84450000Y-101300000D03*
%LPD*%
M02*
