M48
; DRILL file {KiCad 8.0.1} date 2024-05-02T01:56:33+0800
; FORMAT={-:-/ absolute / metric / decimal}
; #@! TF.CreationDate,2024-05-02T01:56:33+08:00
; #@! TF.GenerationSoftware,Kicad,Pcbnew,8.0.1
; #@! TF.FileFunction,Plated,1,2,PTH
FMAT,2
METRIC
; #@! TA.AperFunction,Plated,PTH,ViaDrill
T1C0.300
; #@! TA.AperFunction,Plated,PTH,ComponentDrill
T2C1.000
; #@! TA.AperFunction,Plated,PTH,ComponentDrill
T3C2.100
%
G90
G05
T1
X76.0Y-111.0
X76.0Y-112.0
X76.0Y-113.0
X76.0Y-114.0
X76.0Y-115.0
X76.0Y-116.0
X76.0Y-117.0
X76.0Y-118.0
X76.0Y-119.0
X76.0Y-120.0
X76.0Y-121.0
X76.0Y-139.0
X76.0Y-140.0
X76.0Y-141.0
X76.0Y-142.0
X76.0Y-143.0
X76.0Y-144.0
X76.0Y-145.0
X76.0Y-146.0
X76.0Y-147.0
X76.0Y-148.0
X82.0Y-152.0
X83.0Y-152.0
X84.0Y-152.0
X85.0Y-152.0
X86.0Y-152.0
X87.0Y-81.0
X87.0Y-82.0
X87.0Y-84.0
X87.0Y-85.0
X87.0Y-86.0
X87.0Y-87.0
X87.0Y-88.0
X87.0Y-89.0
X87.0Y-152.0
X88.0Y-152.0
X89.0Y-72.0
X89.0Y-73.0
X89.0Y-74.0
X89.0Y-75.0
X89.0Y-101.0
X89.0Y-102.0
X89.0Y-103.0
X89.0Y-104.0
X89.0Y-105.0
X89.0Y-152.0
X90.0Y-71.5
X90.0Y-105.0
X90.0Y-152.0
X91.0Y-105.0
X91.0Y-152.0
X92.0Y-105.0
X93.0Y-105.0
X94.0Y-105.0
X95.0Y-105.0
X96.0Y-105.0
X97.0Y-105.0
X98.0Y-105.0
X99.0Y-105.0
X100.0Y-105.0
X101.0Y-105.0
X102.0Y-105.0
X103.0Y-105.0
X104.0Y-76.0
X104.0Y-79.0
X104.0Y-80.0
X104.0Y-81.0
X104.0Y-82.0
X104.0Y-83.0
X104.0Y-84.0
X104.0Y-101.0
X104.0Y-102.0
X104.0Y-103.0
X104.0Y-104.0
X104.0Y-105.0
X105.0Y-76.0
X105.0Y-79.0
X105.0Y-118.0
X105.0Y-119.0
X105.0Y-120.0
X105.0Y-121.0
X105.0Y-125.0
X105.0Y-126.0
X106.0Y-76.0
X106.0Y-79.0
X106.0Y-126.0
X107.0Y-76.0
X107.0Y-79.0
X107.0Y-126.0
X107.1Y-82.95
X107.55Y-84.3
X108.0Y-76.0
X108.0Y-79.0
X108.0Y-126.0
X108.548Y-84.402
X109.0Y-76.0
X109.0Y-79.0
X109.0Y-126.0
X109.5Y-84.4
X110.0Y-126.0
X112.9Y-82.3
X113.0Y-76.0
X113.6Y-82.8
X114.0Y-76.0
X114.0Y-126.0
X114.45Y-83.75
X114.45Y-84.8
X114.9Y-79.5
X114.9Y-80.4
X114.977Y-84.277
X115.0Y-76.0
X115.0Y-126.0
X115.5Y-83.75
X115.5Y-84.8
X115.8Y-88.4
X116.0Y-77.0
X116.0Y-80.3
X116.0Y-87.0
X116.0Y-126.0
X116.45Y-85.75
X117.0Y-78.0
X117.0Y-87.0
X117.0Y-126.0
X118.0Y-87.0
X118.0Y-126.0
X118.2Y-82.8
X118.7Y-81.4
X119.0Y-87.0
X119.0Y-126.0
X120.0Y-87.0
X125.0Y-126.0
X126.0Y-126.0
X126.0Y-127.0
X126.0Y-128.0
X126.0Y-129.0
X126.0Y-130.0
X127.0Y-130.0
X128.0Y-114.0
X128.0Y-115.0
X128.0Y-123.0
X128.0Y-124.0
X129.0Y-114.0
X129.0Y-124.0
X130.0Y-114.0
X130.0Y-124.0
X131.0Y-71.5
X131.0Y-114.0
X131.0Y-115.0
X131.0Y-116.0
X131.0Y-117.0
X131.0Y-118.0
X131.0Y-119.0
X131.0Y-120.0
X131.0Y-121.0
X131.0Y-122.0
X131.0Y-123.0
X131.0Y-124.0
X131.0Y-152.0
X132.0Y-72.0
X132.0Y-73.0
X132.0Y-74.0
X132.0Y-75.0
X132.0Y-114.0
X132.0Y-115.0
X132.0Y-116.0
X132.0Y-117.0
X132.0Y-118.0
X132.0Y-119.0
X132.0Y-120.0
X132.0Y-121.0
X132.0Y-122.0
X132.0Y-123.0
X132.0Y-124.0
X132.0Y-152.0
X133.0Y-114.0
X133.0Y-115.0
X133.0Y-116.0
X133.0Y-117.0
X133.0Y-118.0
X133.0Y-119.0
X133.0Y-120.0
X133.0Y-121.0
X133.0Y-122.0
X133.0Y-123.0
X133.0Y-124.0
X133.0Y-152.0
X133.4Y-81.0
X133.4Y-82.0
X133.4Y-83.0
X133.4Y-84.0
X133.4Y-85.0
X133.4Y-86.0
X133.4Y-87.0
X133.4Y-88.0
X133.4Y-89.0
X134.0Y-152.0
X135.0Y-152.0
X136.0Y-152.0
X137.0Y-152.0
X138.0Y-152.0
X139.0Y-131.0
X139.0Y-132.0
X139.0Y-133.0
X139.0Y-134.0
X139.0Y-135.0
X139.0Y-152.0
X140.0Y-131.0
X140.0Y-136.0
X140.0Y-152.0
X141.0Y-136.0
X142.0Y-131.0
X145.0Y-111.0
X145.0Y-112.0
X145.0Y-113.0
X145.0Y-114.0
X145.0Y-115.0
X145.0Y-116.0
X145.0Y-117.0
X145.0Y-118.0
X145.0Y-119.0
X145.0Y-120.0
X145.0Y-140.0
X145.0Y-141.0
X145.0Y-142.0
X145.0Y-147.0
X145.0Y-148.0
X145.0Y-149.0
T2
X128.7Y-118.8
X128.7Y-132.5
T3
X92.485Y-76.485
X98.0Y-82.0
M30
